<?xml version="1.0" encoding="utf-8"?>
<!-- Generator: Adobe Illustrator 16.0.0, SVG Export Plug-In . SVG Version: 6.00 Build 0)  -->
<!DOCTYPE svg PUBLIC "-//W3C//DTD SVG 1.1//EN" "http://www.w3.org/Graphics/SVG/1.1/DTD/svg11.dtd">
<svg version="1.1" id="Capa_1" xmlns="http://www.w3.org/2000/svg" xmlns:xlink="http://www.w3.org/1999/xlink" x="0px" y="0px"
	 width="1257.705px" height="431.959px" viewBox="0 0 1257.705 431.959" enable-background="new 0 0 1257.705 431.959"
	 xml:space="preserve">
<path fill="#FFFFFF" fill-opacity="0.6" stroke="#969696" stroke-miterlimit="10" d="M349.569,421.384
	c0,6.779-5.373,12.273-12,12.273H12c-6.627,0-12-5.494-12-12.273V12.773C0,5.994,5.373,0.5,12,0.5h325.569
	c6.627,0,12,5.494,12,12.273V421.384z"/>
<path fill="#FFFFFF" fill-opacity="0.6" stroke="#969696" stroke-miterlimit="10" d="M1257.205,419.185
	c0,6.777-5.373,12.273-12,12.273H367.569c-6.627,0-12-5.496-12-12.273V12.773c0-6.779,5.373-12.273,12-12.273h877.636
	c6.627,0,12,5.494,12,12.273V419.185z"/>
<g>
	<g opacity="0.5">
		<g>
			<polyline fill="none" stroke="#3873B4" stroke-width="3" stroke-miterlimit="10" points="521.199,83.365 521.199,85.35 
				519.215,85.35 			"/>
			
				<line fill="none" stroke="#3873B4" stroke-width="3" stroke-miterlimit="10" stroke-dasharray="3.8516,3.8512" x1="515.364" y1="85.35" x2="432.559" y2="85.35"/>
			<polyline fill="none" stroke="#3873B4" stroke-width="3" stroke-miterlimit="10" points="430.633,85.35 428.649,85.35 
				428.649,83.365 			"/>
			
				<line fill="none" stroke="#3873B4" stroke-width="3" stroke-miterlimit="10" stroke-dasharray="4.0733,4.0729" x1="428.649" y1="79.293" x2="428.649" y2="16.16"/>
			<polyline fill="none" stroke="#3873B4" stroke-width="3" stroke-miterlimit="10" points="428.649,14.123 428.649,12.139 
				430.633,12.139 			"/>
			
				<line fill="none" stroke="#3873B4" stroke-width="3" stroke-miterlimit="10" stroke-dasharray="3.8516,3.8512" x1="434.484" y1="12.139" x2="517.29" y2="12.139"/>
			<polyline fill="none" stroke="#3873B4" stroke-width="3" stroke-miterlimit="10" points="519.215,12.139 521.199,12.139 
				521.199,14.123 			"/>
			
				<line fill="none" stroke="#3873B4" stroke-width="3" stroke-miterlimit="10" stroke-dasharray="4.0733,4.0729" x1="521.199" y1="18.195" x2="521.199" y2="81.33"/>
		</g>
	</g>
	<g opacity="0.5">
		<g>
			<polyline fill="none" stroke="#3873B4" stroke-width="3" stroke-miterlimit="10" points="1110.336,89.582 1110.336,91.566 
				1108.352,91.566 			"/>
			
				<line fill="none" stroke="#3873B4" stroke-width="3" stroke-miterlimit="10" stroke-dasharray="3.8516,3.8512" x1="1104.501" y1="91.566" x2="1021.695" y2="91.566"/>
			<polyline fill="none" stroke="#3873B4" stroke-width="3" stroke-miterlimit="10" points="1019.771,91.566 1017.786,91.566 
				1017.786,89.582 			"/>
			
				<line fill="none" stroke="#3873B4" stroke-width="3" stroke-miterlimit="10" stroke-dasharray="3.9452,3.9448" x1="1017.786" y1="85.639" x2="1017.786" y2="40.27"/>
			<polyline fill="none" stroke="#3873B4" stroke-width="3" stroke-miterlimit="10" points="1017.786,38.299 1017.786,36.314 
				1019.771,36.314 			"/>
			
				<line fill="none" stroke="#3873B4" stroke-width="3" stroke-miterlimit="10" stroke-dasharray="3.8516,3.8512" x1="1023.621" y1="36.314" x2="1106.427" y2="36.314"/>
			<polyline fill="none" stroke="#3873B4" stroke-width="3" stroke-miterlimit="10" points="1108.352,36.314 1110.336,36.314 
				1110.336,38.299 			"/>
			
				<line fill="none" stroke="#3873B4" stroke-width="3" stroke-miterlimit="10" stroke-dasharray="3.9452,3.9448" x1="1110.336" y1="42.242" x2="1110.336" y2="87.611"/>
		</g>
	</g>
	<g opacity="0.5">
		<g>
			<polyline fill="none" stroke="#3873B4" stroke-width="3" stroke-miterlimit="10" points="700.579,244.714 702.15,245.925 
				700.579,247.136 			"/>
			
				<line fill="none" stroke="#3873B4" stroke-width="3" stroke-miterlimit="10" stroke-dasharray="3.9214,3.921" x1="697.474" y1="249.53" x2="655.55" y2="281.853"/>
			<polyline fill="none" stroke="#3873B4" stroke-width="3" stroke-miterlimit="10" points="653.997,283.05 652.426,284.261 
				650.812,283.106 			"/>
			
				<line fill="none" stroke="#3873B4" stroke-width="3" stroke-miterlimit="10" stroke-dasharray="4.1302,4.1298" x1="647.452" y1="280.704" x2="602.095" y2="248.28"/>
			<polyline fill="none" stroke="#3873B4" stroke-width="3" stroke-miterlimit="10" points="600.415,247.079 598.801,245.925 
				600.415,244.771 			"/>
			
				<line fill="none" stroke="#3873B4" stroke-width="3" stroke-miterlimit="10" stroke-dasharray="4.1302,4.1298" x1="603.774" y1="242.37" x2="649.132" y2="209.946"/>
			<polyline fill="none" stroke="#3873B4" stroke-width="3" stroke-miterlimit="10" points="650.812,208.745 652.426,207.591 
				653.997,208.802 			"/>
			
				<line fill="none" stroke="#3873B4" stroke-width="3" stroke-miterlimit="10" stroke-dasharray="3.9214,3.921" x1="657.103" y1="211.196" x2="699.026" y2="243.517"/>
		</g>
	</g>
	<g opacity="0.5">
		<g>
			<polyline fill="none" stroke="#3873B4" stroke-width="3" stroke-miterlimit="10" points="577.143,398.653 577.143,400.638 
				575.159,400.638 			"/>
			
				<line fill="none" stroke="#3873B4" stroke-width="3" stroke-miterlimit="10" stroke-dasharray="3.8516,3.8512" x1="571.309" y1="400.638" x2="488.503" y2="400.638"/>
			<polyline fill="none" stroke="#3873B4" stroke-width="3" stroke-miterlimit="10" points="486.578,400.638 484.594,400.638 
				484.594,398.653 			"/>
			
				<line fill="none" stroke="#3873B4" stroke-width="3" stroke-miterlimit="10" stroke-dasharray="4.0733,4.0729" x1="484.594" y1="394.581" x2="484.594" y2="331.448"/>
			<polyline fill="none" stroke="#3873B4" stroke-width="3" stroke-miterlimit="10" points="484.594,329.411 484.594,327.427 
				486.578,327.427 			"/>
			
				<line fill="none" stroke="#3873B4" stroke-width="3" stroke-miterlimit="10" stroke-dasharray="3.8516,3.8512" x1="490.429" y1="327.427" x2="573.233" y2="327.427"/>
			<polyline fill="none" stroke="#3873B4" stroke-width="3" stroke-miterlimit="10" points="575.159,327.427 577.143,327.427 
				577.143,329.411 			"/>
			
				<line fill="none" stroke="#3873B4" stroke-width="3" stroke-miterlimit="10" stroke-dasharray="4.0733,4.0729" x1="577.143" y1="333.483" x2="577.143" y2="396.618"/>
		</g>
	</g>
	<g opacity="0.5">
		<g>
			<polyline fill="none" stroke="#3873B4" stroke-width="3" stroke-miterlimit="10" points="577.143,219.081 577.143,221.065 
				575.159,221.065 			"/>
			
				<line fill="none" stroke="#3873B4" stroke-width="3" stroke-miterlimit="10" stroke-dasharray="3.8516,3.8512" x1="571.309" y1="221.065" x2="488.503" y2="221.065"/>
			<polyline fill="none" stroke="#3873B4" stroke-width="3" stroke-miterlimit="10" points="486.578,221.065 484.594,221.065 
				484.594,219.081 			"/>
			
				<line fill="none" stroke="#3873B4" stroke-width="3" stroke-miterlimit="10" stroke-dasharray="3.9452,3.9448" x1="484.594" y1="215.138" x2="484.594" y2="169.769"/>
			<polyline fill="none" stroke="#3873B4" stroke-width="3" stroke-miterlimit="10" points="484.594,167.798 484.594,165.813 
				486.552,165.491 			"/>
			
				<line fill="none" stroke="#3873B4" stroke-width="3" stroke-miterlimit="10" stroke-dasharray="3.9054,3.905" x1="490.405" y1="164.858" x2="573.259" y2="151.257"/>
			<polyline fill="none" stroke="#3873B4" stroke-width="3" stroke-miterlimit="10" points="575.186,150.94 577.143,150.618 
				577.143,152.603 			"/>
			
				<line fill="none" stroke="#3873B4" stroke-width="3" stroke-miterlimit="10" stroke-dasharray="3.9108,3.9103" x1="577.143" y1="156.513" x2="577.143" y2="217.126"/>
		</g>
	</g>
	<g opacity="0.5">
		<g>
			<polyline fill="none" stroke="#3873B4" stroke-width="3" stroke-miterlimit="10" points="460.418,240.831 460.418,242.815 
				458.435,242.815 			"/>
			
				<line fill="none" stroke="#3873B4" stroke-width="3" stroke-miterlimit="10" stroke-dasharray="3.8516,3.8512" x1="454.583" y1="242.815" x2="371.779" y2="242.815"/>
			<polyline fill="none" stroke="#3873B4" stroke-width="3" stroke-miterlimit="10" points="369.853,242.815 367.869,242.815 
				367.869,240.831 			"/>
			
				<line fill="none" stroke="#3873B4" stroke-width="3" stroke-miterlimit="10" stroke-dasharray="3.9452,3.9448" x1="367.869" y1="236.886" x2="367.869" y2="191.519"/>
			<polyline fill="none" stroke="#3873B4" stroke-width="3" stroke-miterlimit="10" points="367.869,189.546 367.869,187.562 
				369.827,187.241 			"/>
			
				<line fill="none" stroke="#3873B4" stroke-width="3" stroke-miterlimit="10" stroke-dasharray="3.9054,3.905" x1="373.68" y1="186.608" x2="456.534" y2="173.005"/>
			<polyline fill="none" stroke="#3873B4" stroke-width="3" stroke-miterlimit="10" points="458.46,172.688 460.418,172.366 
				460.418,174.351 			"/>
			
				<line fill="none" stroke="#3873B4" stroke-width="3" stroke-miterlimit="10" stroke-dasharray="3.9108,3.9104" x1="460.418" y1="178.261" x2="460.418" y2="238.876"/>
		</g>
	</g>
	<g opacity="0.5">
		<g>
			<polyline fill="none" stroke="#3873B4" stroke-width="3" stroke-miterlimit="10" points="577.143,306.099 577.143,308.083 
				575.159,308.083 			"/>
			
				<line fill="none" stroke="#3873B4" stroke-width="3" stroke-miterlimit="10" stroke-dasharray="3.8516,3.8512" x1="571.309" y1="308.083" x2="488.503" y2="308.083"/>
			<polyline fill="none" stroke="#3873B4" stroke-width="3" stroke-miterlimit="10" points="486.578,308.083 484.594,308.083 
				484.594,306.099 			"/>
			
				<line fill="none" stroke="#3873B4" stroke-width="3" stroke-miterlimit="10" stroke-dasharray="3.9452,3.9448" x1="484.594" y1="302.155" x2="484.594" y2="256.786"/>
			<polyline fill="none" stroke="#3873B4" stroke-width="3" stroke-miterlimit="10" points="484.594,254.815 484.594,252.831 
				486.552,252.509 			"/>
			
				<line fill="none" stroke="#3873B4" stroke-width="3" stroke-miterlimit="10" stroke-dasharray="3.9054,3.905" x1="490.405" y1="251.876" x2="573.259" y2="238.272"/>
			<polyline fill="none" stroke="#3873B4" stroke-width="3" stroke-miterlimit="10" points="575.186,237.956 577.143,237.636 
				577.143,239.62 			"/>
			
				<line fill="none" stroke="#3873B4" stroke-width="3" stroke-miterlimit="10" stroke-dasharray="3.9108,3.9104" x1="577.143" y1="243.53" x2="577.143" y2="304.144"/>
		</g>
	</g>
	<g opacity="0.5">
		<g>
			<polyline fill="none" stroke="#3873B4" stroke-width="3" stroke-miterlimit="10" points="996.375,387.253 996.375,389.237 
				994.391,389.237 			"/>
			
				<line fill="none" stroke="#3873B4" stroke-width="3" stroke-miterlimit="10" stroke-dasharray="3.8515,3.8511" x1="990.54" y1="389.237" x2="907.735" y2="389.237"/>
			<polyline fill="none" stroke="#3873B4" stroke-width="3" stroke-miterlimit="10" points="905.811,389.237 903.826,389.237 
				903.826,387.253 			"/>
			
				<line fill="none" stroke="#3873B4" stroke-width="3" stroke-miterlimit="10" stroke-dasharray="3.9452,3.9448" x1="903.826" y1="383.308" x2="903.826" y2="337.94"/>
			<polyline fill="none" stroke="#3873B4" stroke-width="3" stroke-miterlimit="10" points="903.826,335.968 903.826,333.983 
				905.784,333.663 			"/>
			
				<line fill="none" stroke="#3873B4" stroke-width="3" stroke-miterlimit="10" stroke-dasharray="3.9054,3.905" x1="909.638" y1="333.03" x2="992.49" y2="319.427"/>
			<polyline fill="none" stroke="#3873B4" stroke-width="3" stroke-miterlimit="10" points="994.417,319.11 996.375,318.79 
				996.375,320.774 			"/>
			
				<line fill="none" stroke="#3873B4" stroke-width="3" stroke-miterlimit="10" stroke-dasharray="3.9108,3.9103" x1="996.375" y1="324.685" x2="996.375" y2="385.298"/>
		</g>
	</g>
	<g opacity="0.5">
		<g>
			<polyline fill="none" stroke="#3873B4" stroke-width="3" stroke-miterlimit="10" points="800.916,220.118 800.916,222.103 
				798.932,222.103 			"/>
			
				<line fill="none" stroke="#3873B4" stroke-width="3" stroke-miterlimit="10" stroke-dasharray="3.8515,3.8511" x1="795.081" y1="222.103" x2="712.276" y2="222.103"/>
			<polyline fill="none" stroke="#3873B4" stroke-width="3" stroke-miterlimit="10" points="710.352,222.103 708.367,222.103 
				708.367,220.118 			"/>
			
				<line fill="none" stroke="#3873B4" stroke-width="3" stroke-miterlimit="10" stroke-dasharray="3.9452,3.9448" x1="708.367" y1="216.173" x2="708.367" y2="170.806"/>
			<polyline fill="none" stroke="#3873B4" stroke-width="3" stroke-miterlimit="10" points="708.367,168.833 708.367,166.849 
				710.325,166.528 			"/>
			
				<line fill="none" stroke="#3873B4" stroke-width="3" stroke-miterlimit="10" stroke-dasharray="3.9054,3.905" x1="714.179" y1="165.896" x2="797.031" y2="152.292"/>
			<polyline fill="none" stroke="#3873B4" stroke-width="3" stroke-miterlimit="10" points="798.958,151.976 800.916,151.653 
				800.916,153.638 			"/>
			
				<line fill="none" stroke="#3873B4" stroke-width="3" stroke-miterlimit="10" stroke-dasharray="3.9108,3.9104" x1="800.916" y1="157.548" x2="800.916" y2="218.163"/>
		</g>
	</g>
	<g opacity="0.5">
		<g>
			<polyline fill="none" stroke="#3873B4" stroke-width="3" stroke-miterlimit="10" points="921.784,220.118 921.784,222.103 
				919.8,222.103 			"/>
			
				<line fill="none" stroke="#3873B4" stroke-width="3" stroke-miterlimit="10" stroke-dasharray="3.8516,3.8512" x1="915.949" y1="222.103" x2="833.144" y2="222.103"/>
			<polyline fill="none" stroke="#3873B4" stroke-width="3" stroke-miterlimit="10" points="831.219,222.103 829.234,222.103 
				829.234,220.118 			"/>
			
				<line fill="none" stroke="#3873B4" stroke-width="3" stroke-miterlimit="10" stroke-dasharray="3.9452,3.9448" x1="829.234" y1="216.173" x2="829.234" y2="170.806"/>
			<polyline fill="none" stroke="#3873B4" stroke-width="3" stroke-miterlimit="10" points="829.234,168.833 829.234,166.849 
				831.192,166.528 			"/>
			
				<line fill="none" stroke="#3873B4" stroke-width="3" stroke-miterlimit="10" stroke-dasharray="3.9055,3.9051" x1="835.046" y1="165.896" x2="917.899" y2="152.292"/>
			<polyline fill="none" stroke="#3873B4" stroke-width="3" stroke-miterlimit="10" points="919.826,151.976 921.784,151.653 
				921.784,153.638 			"/>
			
				<line fill="none" stroke="#3873B4" stroke-width="3" stroke-miterlimit="10" stroke-dasharray="3.9108,3.9104" x1="921.784" y1="157.548" x2="921.784" y2="218.163"/>
		</g>
	</g>
	<g opacity="0.5">
		<g>
			<polyline fill="none" stroke="#3873B4" stroke-width="3" stroke-miterlimit="10" points="1040.578,220.118 1040.578,222.103 
				1038.594,222.103 			"/>
			
				<line fill="none" stroke="#3873B4" stroke-width="3" stroke-miterlimit="10" stroke-dasharray="3.8516,3.8512" x1="1034.743" y1="222.103" x2="951.938" y2="222.103"/>
			<polyline fill="none" stroke="#3873B4" stroke-width="3" stroke-miterlimit="10" points="950.013,222.103 948.028,222.103 
				948.028,220.118 			"/>
			
				<line fill="none" stroke="#3873B4" stroke-width="3" stroke-miterlimit="10" stroke-dasharray="3.9452,3.9448" x1="948.028" y1="216.173" x2="948.028" y2="170.806"/>
			<polyline fill="none" stroke="#3873B4" stroke-width="3" stroke-miterlimit="10" points="948.028,168.833 948.028,166.849 
				949.986,166.528 			"/>
			
				<line fill="none" stroke="#3873B4" stroke-width="3" stroke-miterlimit="10" stroke-dasharray="3.9055,3.9051" x1="953.84" y1="165.896" x2="1036.693" y2="152.292"/>
			<polyline fill="none" stroke="#3873B4" stroke-width="3" stroke-miterlimit="10" points="1038.62,151.976 1040.578,151.653 
				1040.578,153.638 			"/>
			
				<line fill="none" stroke="#3873B4" stroke-width="3" stroke-miterlimit="10" stroke-dasharray="3.9108,3.9104" x1="1040.578" y1="157.548" x2="1040.578" y2="218.163"/>
		</g>
	</g>
	<g opacity="0.5">
		<g>
			<polyline fill="none" stroke="#3873B4" stroke-width="3" stroke-miterlimit="10" points="1237.292,61.334 1238.932,62.451 
				1237.299,63.578 			"/>
			
				<line fill="none" stroke="#3873B4" stroke-width="3" stroke-miterlimit="10" stroke-dasharray="4.0599,4.0595" x1="1233.957" y1="65.883" x2="1195.529" y2="92.396"/>
			<polyline fill="none" stroke="#3873B4" stroke-width="3" stroke-miterlimit="10" points="1193.858,93.549 1192.226,94.676 
				1190.566,93.588 			"/>
			
				<line fill="none" stroke="#3873B4" stroke-width="3" stroke-miterlimit="10" stroke-dasharray="4.0392,4.0388" x1="1187.189" y1="91.373" x2="1148.349" y2="65.898"/>
			<polyline fill="none" stroke="#3873B4" stroke-width="3" stroke-miterlimit="10" points="1146.66,64.791 1145.001,63.703 
				1146.653,62.604 			"/>
			
				<line fill="none" stroke="#3873B4" stroke-width="3" stroke-miterlimit="10" stroke-dasharray="4.1726,4.1722" x1="1150.128" y1="60.295" x2="1190.088" y2="33.732"/>
			<polyline fill="none" stroke="#3873B4" stroke-width="3" stroke-miterlimit="10" points="1191.825,32.578 1193.478,31.479 
				1195.117,32.596 			"/>
			
				<line fill="none" stroke="#3873B4" stroke-width="3" stroke-miterlimit="10" stroke-dasharray="3.926,3.9256" x1="1198.361" y1="34.807" x2="1235.67" y2="60.229"/>
		</g>
	</g>
	<g>
		<polyline fill="none" stroke="#3E3E3E" stroke-width="4" stroke-miterlimit="10" points="524.221,48.744 531.731,48.744 
			531.731,151.653 		"/>
		<polyline fill="none" stroke="#3E3E3E" stroke-width="4" stroke-miterlimit="10" points="462.515,212.771 474.925,212.771 
			474.925,91.566 		"/>
		
			<line fill="none" stroke="#3E3E3E" stroke-width="4" stroke-miterlimit="10" x1="527.761" y1="222.103" x2="527.761" y2="238.671"/>
		
			<line fill="none" stroke="#3E3E3E" stroke-width="4" stroke-miterlimit="10" x1="527.761" y1="309.118" x2="527.761" y2="322.591"/>
		<polyline fill="none" stroke="#3E3E3E" stroke-width="4" stroke-miterlimit="10" points="650.476,288.403 650.476,354.013 
			895.368,354.013 		"/>
		<polyline fill="none" stroke="#3E3E3E" stroke-width="4" stroke-miterlimit="10" points="577.143,365.069 587.158,365.069 
			587.158,245.925 592.855,245.925 		"/>
		<polyline fill="none" stroke="#3E3E3E" stroke-width="4" stroke-miterlimit="10" points="998.45,354.013 1062.613,354.013 
			1064.061,98.816 		"/>
		
			<line fill="none" stroke="#3E3E3E" stroke-width="4" stroke-miterlimit="10" x1="1112.756" y1="62.904" x2="1134.511" y2="62.904"/>
		<polyline fill="none" stroke="#3E3E3E" stroke-width="4" stroke-miterlimit="10" points="994.302,157.522 994.302,63.078 
			1010.364,63.078 		"/>
		<polyline fill="none" stroke="#3E3E3E" stroke-width="4" stroke-miterlimit="10" points="650.476,206.042 650.476,193.608 
			700.082,193.608 		"/>
		<line fill="none" stroke="#3E3E3E" stroke-width="4" stroke-miterlimit="10" x1="802.3" y1="193.608" x2="824.402" y2="193.608"/>
		
			<line fill="none" stroke="#3E3E3E" stroke-width="4" stroke-miterlimit="10" x1="924.548" y1="193.608" x2="943.542" y2="193.608"/>
		<polygon fill="#2C2C2C" points="479.198,95.84 470.651,95.84 474.925,87.293 474.925,87.293 		"/>
		<polygon fill="#2C2C2C" points="527.458,147.38 536.005,147.38 531.731,155.927 531.731,155.927 		"/>
		<polygon fill="#2C2C2C" points="523.487,237.378 532.034,237.378 527.761,245.925 527.761,245.925 		"/>
		<polygon fill="#2C2C2C" points="591.681,250.198 591.681,241.651 600.228,245.925 600.228,245.925 		"/>
		<polygon fill="#2C2C2C" points="697.748,197.882 697.748,189.335 706.295,193.608 706.295,193.608 		"/>
		<polygon fill="#2C2C2C" points="895.368,358.286 895.368,349.739 903.915,354.013 903.915,354.013 		"/>
		<polygon fill="#2C2C2C" points="819.093,197.882 819.093,189.335 827.64,193.608 827.64,193.608 		"/>
		<polygon fill="#2C2C2C" points="939.269,197.882 939.269,189.335 947.815,193.608 947.815,193.608 		"/>
		<polygon fill="#2C2C2C" points="1008.203,67.352 1008.203,58.803 1016.75,63.078 1016.75,63.078 		"/>
		<polygon fill="#2C2C2C" points="1132.31,67.352 1132.31,58.803 1140.856,63.078 1140.856,63.078 		"/>
		<polygon fill="#2C2C2C" points="1068.334,103.09 1059.787,103.09 1064.061,94.543 1064.061,94.543 		"/>
		<polygon fill="#2C2C2C" points="523.487,318.188 532.034,318.188 527.761,326.735 527.761,326.735 		"/>
	</g>
</g>
</svg>
