<?xml version="1.0" encoding="utf-8"?>
<!-- Generator: Adobe Illustrator 16.0.0, SVG Export Plug-In . SVG Version: 6.00 Build 0)  -->
<!DOCTYPE svg PUBLIC "-//W3C//DTD SVG 1.1//EN" "http://www.w3.org/Graphics/SVG/1.1/DTD/svg11.dtd">
<svg version="1.1" id="Capa_1" xmlns="http://www.w3.org/2000/svg" xmlns:xlink="http://www.w3.org/1999/xlink" x="0px" y="0px"
	 width="390.141px" height="173.553px" viewBox="0 0 390.141 173.553" enable-background="new 0 0 390.141 173.553"
	 xml:space="preserve">
<g>
	<polygon fill="#D4822B" points="0,0 6.818,173.553 390.141,166.072 386.627,11.578 381.76,10.439 	"/>
	<g>
		<g>
			<path fill="#FFFFFF" d="M30.471,19.762h2.594v21.129h-2.594V19.762z"/>
			<path fill="#FFFFFF" d="M45.018,29.188v11.703h-2.363v-11.33c0-0.84-0.125-1.426-0.375-1.756
				c-0.25-0.328-0.676-0.494-1.278-0.494c-0.589,0-1.012,0.17-1.268,0.51c-0.257,0.338-0.385,0.918-0.385,1.74v11.33h-2.363V26.166
				h2.21l0.153,0.902c0.32-0.412,0.728-0.725,1.221-0.939s1.06-0.322,1.7-0.322c0.999,0,1.707,0.252,2.124,0.752
				C44.81,27.061,45.018,27.938,45.018,29.188z"/>
			<path fill="#FFFFFF" d="M55.318,29.561v0.83h-2.364v-0.83c0-0.908-0.086-1.51-0.259-1.805c-0.173-0.297-0.49-0.445-0.951-0.445
				c-0.41,0-0.702,0.137-0.875,0.408c-0.173,0.273-0.259,0.734-0.259,1.383v0.588c0,0.314,0.079,0.625,0.24,0.932
				c0.159,0.305,0.419,0.629,0.777,0.973l2.864,2.836c0.319,0.326,0.566,0.66,0.739,1.004s0.26,0.668,0.26,0.975v1.402
				c0,1.271-0.279,2.162-0.836,2.672c-0.558,0.512-1.502,0.768-2.835,0.768c-1.384,0-2.344-0.268-2.882-0.803
				s-0.808-1.523-0.808-2.965v-1.262h2.345v1.262c0,0.936,0.093,1.547,0.278,1.832c0.186,0.287,0.516,0.432,0.99,0.432
				c0.486,0,0.832-0.145,1.037-0.432c0.205-0.285,0.308-0.787,0.308-1.504v-0.559c0-0.801-0.391-1.574-1.172-2.32
				c-0.026-0.027-0.045-0.047-0.058-0.057l-2.787-2.809c-0.295-0.295-0.506-0.59-0.634-0.881s-0.192-0.613-0.192-0.967v-1.061
				c0-1.211,0.272-2.074,0.816-2.584c0.545-0.512,1.451-0.768,2.72-0.768c1.319,0,2.238,0.268,2.758,0.803
				C55.059,27.145,55.318,28.127,55.318,29.561z"/>
			<path fill="#FFFFFF" d="M61.025,22.197v3.969h1.807v1.488h-1.807V38.6c0,0.41,0.105,0.693,0.317,0.852
				c0.211,0.158,0.593,0.236,1.144,0.236h0.346v1.533c-0.142,0.01-0.285,0.016-0.433,0.021c-0.147,0.004-0.355,0.008-0.624,0.008
				c-1.205,0-2.024-0.219-2.46-0.652c-0.436-0.436-0.653-1.402-0.653-2.9V27.654h-1.288v-1.488h1.288v-3.252L61.025,22.197z"/>
			<path fill="#FFFFFF" d="M70.749,25.836v1.791h-0.404c-1.012,0-1.729,0.188-2.152,0.564c-0.422,0.379-0.634,1.029-0.634,1.957
				v10.742h-2.363V26.166h2.21l0.153,0.902c0.333-0.402,0.74-0.713,1.221-0.932c0.48-0.221,1.002-0.33,1.565-0.33
				c0.039,0,0.103,0.006,0.192,0.016C70.627,25.83,70.697,25.836,70.749,25.836z"/>
			<path fill="#FFFFFF" d="M72.44,26.166h2.363v11.287c0,0.869,0.125,1.469,0.375,1.797c0.25,0.33,0.676,0.496,1.277,0.496
				c0.59,0,1.006-0.17,1.249-0.51c0.244-0.338,0.365-0.934,0.365-1.783V26.166h2.402v14.725h-2.21l-0.192-0.902
				c-0.32,0.41-0.717,0.719-1.191,0.924c-0.474,0.205-1.031,0.309-1.672,0.309c-1.012,0-1.727-0.248-2.143-0.744
				c-0.416-0.498-0.624-1.367-0.624-2.607V26.166z"/>
			<path fill="#FFFFFF" d="M91.369,30.004v0.945H88.89v-1.389c0-0.965-0.086-1.58-0.259-1.848c-0.174-0.268-0.49-0.402-0.951-0.402
				c-0.462,0-0.782,0.15-0.961,0.451c-0.18,0.301-0.27,0.9-0.27,1.799v7.922c0,0.916,0.093,1.523,0.278,1.818
				c0.186,0.297,0.516,0.445,0.99,0.445c0.448,0,0.756-0.137,0.922-0.41c0.167-0.271,0.25-0.889,0.25-1.854v-1.576h2.479v1.146
				c0,1.623-0.272,2.729-0.817,3.316c-0.544,0.586-1.502,0.881-2.872,0.881c-1.358,0-2.31-0.301-2.854-0.902
				c-0.544-0.602-0.816-1.711-0.816-3.324v-7.02c0-1.633,0.27-2.74,0.807-3.322c0.538-0.584,1.493-0.875,2.864-0.875
				c1.357,0,2.312,0.299,2.863,0.896C91.093,27.299,91.369,28.4,91.369,30.004z"/>
			<path fill="#FFFFFF" d="M101.766,30.004v0.945h-2.479v-1.389c0-0.965-0.086-1.58-0.259-1.848
				c-0.174-0.268-0.49-0.402-0.951-0.402c-0.462,0-0.782,0.15-0.961,0.451c-0.18,0.301-0.27,0.9-0.27,1.799v7.922
				c0,0.916,0.093,1.523,0.278,1.818c0.186,0.297,0.516,0.445,0.99,0.445c0.448,0,0.756-0.137,0.922-0.41
				c0.167-0.271,0.25-0.889,0.25-1.854v-1.576h2.479v1.146c0,1.623-0.272,2.729-0.817,3.316c-0.544,0.586-1.502,0.881-2.872,0.881
				c-1.358,0-2.31-0.301-2.854-0.902c-0.544-0.602-0.816-1.711-0.816-3.324v-7.02c0-1.633,0.27-2.74,0.807-3.322
				c0.538-0.584,1.493-0.875,2.864-0.875c1.357,0,2.312,0.299,2.863,0.896C101.489,27.299,101.766,28.4,101.766,30.004z"/>
			<path fill="#FFFFFF" d="M104.763,19.762h2.633v2.234h-2.633V19.762z M104.878,26.166h2.363v14.725h-2.363V26.166z"/>
			<path fill="#FFFFFF" d="M118.849,30.004v7.049c0,1.623-0.295,2.729-0.884,3.316c-0.589,0.586-1.633,0.881-3.132,0.881
				c-1.486,0-2.527-0.299-3.123-0.896c-0.596-0.596-0.894-1.707-0.894-3.33v-7.02c0-1.633,0.291-2.74,0.874-3.322
				c0.583-0.584,1.631-0.875,3.143-0.875c1.485,0,2.526,0.299,3.122,0.896C118.551,27.299,118.849,28.4,118.849,30.004z
				 M116.37,29.561c0-0.869-0.115-1.461-0.346-1.777c-0.23-0.314-0.628-0.473-1.191-0.473c-0.577,0-0.983,0.168-1.221,0.502
				s-0.355,0.916-0.355,1.748v7.922c0,0.879,0.115,1.475,0.346,1.789c0.23,0.316,0.641,0.475,1.23,0.475
				c0.563,0,0.961-0.164,1.191-0.488s0.346-0.916,0.346-1.775V29.561z"/>
			<path fill="#FFFFFF" d="M130.417,29.188v11.703h-2.363v-11.33c0-0.84-0.125-1.426-0.375-1.756
				c-0.25-0.328-0.676-0.494-1.278-0.494c-0.589,0-1.012,0.17-1.268,0.51c-0.257,0.338-0.385,0.918-0.385,1.74v11.33h-2.363V26.166
				h2.21l0.153,0.902c0.32-0.412,0.728-0.725,1.221-0.939s1.06-0.322,1.7-0.322c0.999,0,1.707,0.252,2.124,0.752
				C130.209,27.061,130.417,27.938,130.417,29.188z"/>
			<path fill="#FFFFFF" d="M141.985,30.004v4.369h-5.592v3.109c0,0.879,0.115,1.475,0.346,1.789c0.23,0.316,0.641,0.475,1.23,0.475
				c0.563,0,0.961-0.164,1.191-0.488s0.346-0.916,0.346-1.775V35.85h2.479v1.203c0,1.623-0.295,2.729-0.884,3.316
				c-0.589,0.586-1.633,0.881-3.132,0.881c-1.486,0-2.527-0.299-3.123-0.896c-0.596-0.596-0.894-1.707-0.894-3.33v-7.02
				c0-1.633,0.291-2.74,0.874-3.322c0.583-0.584,1.631-0.875,3.143-0.875c1.485,0,2.526,0.299,3.122,0.896
				C141.688,27.299,141.985,28.4,141.985,30.004z M139.507,29.561c0-0.869-0.115-1.461-0.346-1.777
				c-0.23-0.314-0.628-0.473-1.191-0.473c-0.577,0-0.983,0.168-1.221,0.502s-0.355,0.916-0.355,1.748v3.322h3.113V29.561z"/>
			<path fill="#FFFFFF" d="M152.209,29.561v0.83h-2.364v-0.83c0-0.908-0.086-1.51-0.259-1.805c-0.173-0.297-0.49-0.445-0.951-0.445
				c-0.41,0-0.702,0.137-0.875,0.408c-0.173,0.273-0.259,0.734-0.259,1.383v0.588c0,0.314,0.079,0.625,0.24,0.932
				c0.159,0.305,0.419,0.629,0.777,0.973l2.864,2.836c0.319,0.326,0.566,0.66,0.739,1.004s0.26,0.668,0.26,0.975v1.402
				c0,1.271-0.279,2.162-0.836,2.672c-0.558,0.512-1.502,0.768-2.835,0.768c-1.384,0-2.344-0.268-2.882-0.803
				s-0.808-1.523-0.808-2.965v-1.262h2.345v1.262c0,0.936,0.093,1.547,0.278,1.832c0.186,0.287,0.516,0.432,0.99,0.432
				c0.486,0,0.832-0.145,1.037-0.432c0.205-0.285,0.308-0.787,0.308-1.504v-0.559c0-0.801-0.391-1.574-1.172-2.32
				c-0.026-0.027-0.045-0.047-0.058-0.057l-2.787-2.809c-0.295-0.295-0.506-0.59-0.634-0.881s-0.192-0.613-0.192-0.967v-1.061
				c0-1.211,0.272-2.074,0.816-2.584c0.545-0.512,1.451-0.768,2.72-0.768c1.319,0,2.238,0.268,2.758,0.803
				C151.949,27.145,152.209,28.127,152.209,29.561z"/>
		</g>
	</g>
	<g>
		<path fill="#FFFFFF" enable-background="new    " d="M369.248,21.02c-4.188,0-7.584,3.395-7.584,7.584
			c0,4.188,3.395,7.58,7.584,7.58c4.187,0,7.58-3.393,7.58-7.58C376.828,24.414,373.437,21.02,369.248,21.02z M372.926,31.439
			c0.231,0.232,0.231,0.609,0,0.84c-0.234,0.232-0.607,0.232-0.838,0l-2.84-2.836l-2.838,2.836c-0.233,0.232-0.607,0.232-0.84,0
			c-0.228-0.23-0.228-0.607,0-0.84l2.836-2.836l-2.836-2.838c-0.233-0.234-0.228-0.607,0.007-0.842c0.226-0.225,0.6-0.23,0.833,0
			l2.838,2.84l2.84-2.84c0.23-0.225,0.604-0.225,0.838,0c0.231,0.234,0.231,0.607,0,0.842l-2.838,2.838L372.926,31.439z"/>
	</g>
</g>
</svg>
