<?xml version="1.0" encoding="utf-8"?>
<!-- Generator: Adobe Illustrator 16.0.0, SVG Export Plug-In . SVG Version: 6.00 Build 0)  -->
<!DOCTYPE svg PUBLIC "-//W3C//DTD SVG 1.1//EN" "http://www.w3.org/Graphics/SVG/1.1/DTD/svg11.dtd">
<svg version="1.1" id="Capa_1" xmlns="http://www.w3.org/2000/svg" xmlns:xlink="http://www.w3.org/1999/xlink" x="0px" y="0px"
	 width="106.471px" height="78.988px" viewBox="0 0 106.471 78.988" enable-background="new 0 0 106.471 78.988"
	 xml:space="preserve">
<g>
	<g opacity="0.5">
		<polygon fill="#FFFFFF" points="103.195,39.492 55.199,76.496 3.438,39.492 55.199,2.49 		"/>
		<g>
			<polyline fill="none" stroke="#DFA130" stroke-width="4" stroke-miterlimit="10" points="101.624,38.281 103.195,39.492 
				101.624,40.703 			"/>
			
				<line fill="none" stroke="#DFA130" stroke-width="4" stroke-miterlimit="10" stroke-dasharray="3.7759,3.7755" x1="98.633" y1="43.01" x2="58.266" y2="74.131"/>
			<polyline fill="none" stroke="#DFA130" stroke-width="4" stroke-miterlimit="10" points="56.771,75.283 55.199,76.496 
				53.585,75.342 			"/>
			
				<line fill="none" stroke="#DFA130" stroke-width="4" stroke-miterlimit="10" stroke-dasharray="3.9775,3.9771" x1="50.35" y1="73.029" x2="6.67" y2="41.803"/>
			<polyline fill="none" stroke="#DFA130" stroke-width="4" stroke-miterlimit="10" points="5.052,40.646 3.438,39.492 
				5.052,38.338 			"/>
			
				<line fill="none" stroke="#DFA130" stroke-width="4" stroke-miterlimit="10" stroke-dasharray="3.9775,3.9771" x1="8.288" y1="36.025" x2="51.967" y2="4.801"/>
			<polyline fill="none" stroke="#DFA130" stroke-width="4" stroke-miterlimit="10" points="53.585,3.645 55.199,2.49 56.771,3.701 
							"/>
			
				<line fill="none" stroke="#DFA130" stroke-width="4" stroke-miterlimit="10" stroke-dasharray="3.7759,3.7755" x1="59.761" y1="6.008" x2="100.128" y2="37.129"/>
		</g>
	</g>
	<g>
		<path d="M27.941,35.461c-0.323,0.167-1,0.333-1.855,0.333c-1.98,0-3.46-1.25-3.46-3.563c0-2.21,1.491-3.689,3.668-3.689
			c0.865,0,1.428,0.188,1.667,0.312l-0.229,0.74c-0.333-0.167-0.823-0.292-1.407-0.292c-1.646,0-2.741,1.053-2.741,2.897
			c0,1.729,0.99,2.824,2.689,2.824c0.562,0,1.125-0.115,1.49-0.292L27.941,35.461z"/>
		<path d="M33.154,34.294c0,0.531,0.011,0.989,0.042,1.386h-0.813l-0.052-0.823H32.31c-0.229,0.406-0.771,0.938-1.667,0.938
			c-0.792,0-1.74-0.447-1.74-2.209v-2.949h0.917v2.782c0,0.959,0.302,1.615,1.125,1.615c0.615,0,1.042-0.427,1.209-0.844
			c0.052-0.125,0.083-0.292,0.083-0.469v-3.085h0.917V34.294z"/>
		<path d="M34.678,32.001c0-0.531-0.021-0.948-0.042-1.365h0.802l0.042,0.823h0.031c0.281-0.479,0.75-0.928,1.594-0.928
			c0.678,0,1.199,0.417,1.417,1.011h0.021c0.156-0.292,0.365-0.5,0.573-0.656c0.302-0.229,0.625-0.354,1.104-0.354
			c0.677,0,1.667,0.438,1.667,2.188v2.96h-0.896v-2.845c0-0.98-0.365-1.554-1.094-1.554c-0.531,0-0.927,0.386-1.094,0.824
			c-0.042,0.135-0.073,0.291-0.073,0.458v3.116h-0.896v-3.022c0-0.803-0.354-1.376-1.052-1.376c-0.563,0-0.99,0.459-1.136,0.918
			c-0.052,0.125-0.073,0.291-0.073,0.447v3.033h-0.896V32.001z"/>
		<path d="M43.374,32.282c0-0.646-0.021-1.167-0.042-1.646h0.813l0.052,0.865h0.021c0.365-0.615,0.969-0.97,1.792-0.97
			c1.23,0,2.147,1.032,2.147,2.554c0,1.813-1.115,2.709-2.303,2.709c-0.667,0-1.25-0.291-1.553-0.792h-0.021v2.741h-0.907V32.282z
			 M44.281,33.627c0,0.135,0.01,0.26,0.042,0.375c0.167,0.636,0.719,1.073,1.376,1.073c0.969,0,1.532-0.792,1.532-1.949
			c0-1-0.531-1.865-1.5-1.865c-0.625,0-1.219,0.438-1.386,1.126c-0.031,0.114-0.062,0.25-0.062,0.364V33.627z"/>
		<path d="M49.307,28.28h0.917v7.399h-0.917V28.28z"/>
		<path d="M52.278,33.324c0.021,1.24,0.802,1.751,1.73,1.751c0.657,0,1.063-0.114,1.396-0.261l0.167,0.657
			c-0.323,0.146-0.886,0.322-1.688,0.322c-1.553,0-2.48-1.031-2.48-2.553s0.896-2.71,2.366-2.71c1.657,0,2.084,1.438,2.084,2.366
			c0,0.188-0.01,0.322-0.031,0.427H52.278z M54.967,32.668c0.01-0.573-0.24-1.48-1.271-1.48c-0.938,0-1.334,0.845-1.407,1.48H54.967
			z"/>
		<path d="M59.201,28.28h0.917v7.399h-0.917V28.28z"/>
		<path d="M65.205,34.471c0,0.438,0.021,0.865,0.073,1.209h-0.823l-0.073-0.636h-0.031c-0.282,0.396-0.823,0.75-1.542,0.75
			c-1.021,0-1.542-0.719-1.542-1.448c0-1.22,1.084-1.887,3.033-1.876v-0.104c0-0.406-0.115-1.167-1.146-1.156
			c-0.479,0-0.969,0.136-1.323,0.375l-0.208-0.615c0.417-0.26,1.032-0.438,1.667-0.438c1.542,0,1.917,1.053,1.917,2.053V34.471z
			 M64.319,33.105c-1-0.021-2.137,0.156-2.137,1.136c0,0.604,0.396,0.876,0.854,0.876c0.667,0,1.095-0.417,1.24-0.845
			c0.031-0.104,0.042-0.208,0.042-0.292V33.105z"/>
		<path d="M66.562,34.752c0.281,0.167,0.761,0.354,1.219,0.354c0.657,0,0.969-0.323,0.969-0.75c0-0.438-0.26-0.667-0.927-0.917
			c-0.917-0.334-1.345-0.824-1.345-1.429c0-0.812,0.667-1.479,1.741-1.479c0.51,0,0.958,0.136,1.229,0.312l-0.219,0.667
			c-0.198-0.125-0.563-0.302-1.032-0.302c-0.542,0-0.834,0.312-0.834,0.688c0,0.417,0.292,0.604,0.949,0.865
			c0.865,0.323,1.323,0.761,1.323,1.511c0,0.896-0.698,1.521-1.875,1.521c-0.553,0-1.063-0.146-1.417-0.354L66.562,34.752z"/>
		<path d="M77.373,28.28v6.097c0,0.448,0.021,0.959,0.042,1.303h-0.813l-0.042-0.875h-0.031c-0.271,0.562-0.875,0.989-1.699,0.989
			c-1.22,0-2.168-1.031-2.168-2.563c-0.01-1.678,1.042-2.699,2.262-2.699c0.781,0,1.292,0.365,1.521,0.761h0.021V28.28H77.373z
			 M76.466,32.688c0-0.114-0.011-0.271-0.042-0.386c-0.135-0.573-0.636-1.053-1.323-1.053c-0.949,0-1.511,0.834-1.511,1.938
			c0,1.021,0.51,1.866,1.49,1.866c0.615,0,1.178-0.417,1.344-1.095c0.031-0.125,0.042-0.25,0.042-0.396V32.688z"/>
		<path d="M83.472,33.116c0,1.865-1.303,2.678-2.512,2.678c-1.355,0-2.418-1-2.418-2.595c0-1.678,1.115-2.668,2.501-2.668
			C82.492,30.531,83.472,31.584,83.472,33.116z M79.48,33.168c0,1.104,0.625,1.938,1.521,1.938c0.875,0,1.532-0.823,1.532-1.959
			c0-0.854-0.427-1.929-1.511-1.929C79.949,31.219,79.48,32.22,79.48,33.168z"/>
		<path d="M84.506,34.752c0.281,0.167,0.761,0.354,1.219,0.354c0.657,0,0.969-0.323,0.969-0.75c0-0.438-0.26-0.667-0.927-0.917
			c-0.917-0.334-1.345-0.824-1.345-1.429c0-0.812,0.667-1.479,1.741-1.479c0.51,0,0.958,0.136,1.229,0.312l-0.219,0.667
			c-0.198-0.125-0.563-0.302-1.032-0.302c-0.542,0-0.834,0.312-0.834,0.688c0,0.417,0.292,0.604,0.949,0.865
			c0.865,0.323,1.323,0.761,1.323,1.511c0,0.896-0.698,1.521-1.876,1.521c-0.552,0-1.063-0.146-1.417-0.354L84.506,34.752z"/>
		<path d="M33.274,46.877c-0.24,0.114-0.771,0.291-1.449,0.291c-1.521,0-2.512-1.031-2.512-2.574c0-1.553,1.063-2.688,2.709-2.688
			c0.542,0,1.021,0.136,1.271,0.271l-0.208,0.698c-0.219-0.115-0.562-0.24-1.063-0.24c-1.157,0-1.782,0.865-1.782,1.907
			c0,1.167,0.75,1.887,1.75,1.887c0.521,0,0.865-0.125,1.126-0.24L33.274,46.877z"/>
		<path d="M38.852,44.49c0,1.865-1.303,2.678-2.512,2.678c-1.355,0-2.418-1-2.418-2.595c0-1.678,1.115-2.668,2.501-2.668
			C37.872,41.905,38.852,42.958,38.852,44.49z M34.86,44.542c0,1.104,0.625,1.938,1.521,1.938c0.875,0,1.532-0.823,1.532-1.959
			c0-0.854-0.427-1.929-1.511-1.929C35.329,42.593,34.86,43.594,34.86,44.542z"/>
		<path d="M40.011,43.375c0-0.531-0.01-0.948-0.042-1.365h0.813l0.052,0.834h0.021c0.25-0.47,0.833-0.938,1.667-0.938
			c0.698,0,1.782,0.417,1.782,2.146v3.002h-0.917v-2.907c0-0.813-0.302-1.491-1.167-1.491c-0.594,0-1.063,0.428-1.23,0.938
			c-0.042,0.114-0.062,0.271-0.062,0.427v3.033h-0.917V43.375z"/>
		<path d="M50.144,39.654v6.097c0,0.448,0.021,0.959,0.042,1.303h-0.813l-0.042-0.875H49.3c-0.271,0.562-0.875,0.989-1.699,0.989
			c-1.22,0-2.168-1.031-2.168-2.563c-0.01-1.678,1.042-2.699,2.262-2.699c0.781,0,1.292,0.365,1.521,0.761h0.021v-3.012H50.144z
			 M49.237,44.062c0-0.114-0.011-0.271-0.042-0.386c-0.135-0.573-0.636-1.053-1.324-1.053c-0.948,0-1.511,0.834-1.511,1.938
			c0,1.021,0.511,1.866,1.49,1.866c0.615,0,1.178-0.417,1.344-1.095c0.031-0.125,0.042-0.25,0.042-0.396V44.062z"/>
		<path d="M52.7,40.592c0,0.313-0.219,0.563-0.583,0.563c-0.333,0-0.553-0.25-0.553-0.563c0-0.312,0.229-0.573,0.573-0.573
			C52.471,40.019,52.7,40.27,52.7,40.592z M51.679,47.054V42.01h0.917v5.044H51.679z"/>
		<path d="M57.714,46.877c-0.24,0.114-0.771,0.291-1.449,0.291c-1.521,0-2.512-1.031-2.512-2.574c0-1.553,1.063-2.688,2.709-2.688
			c0.542,0,1.021,0.136,1.271,0.271l-0.208,0.698c-0.219-0.115-0.562-0.24-1.063-0.24c-1.157,0-1.782,0.865-1.782,1.907
			c0,1.167,0.75,1.887,1.75,1.887c0.521,0,0.865-0.125,1.126-0.24L57.714,46.877z"/>
		<path d="M59.811,40.592c0,0.313-0.219,0.563-0.583,0.563c-0.333,0-0.553-0.25-0.553-0.563c0-0.312,0.229-0.573,0.573-0.573
			C59.582,40.019,59.811,40.27,59.811,40.592z M58.79,47.054V42.01h0.917v5.044H58.79z"/>
		<path d="M65.794,44.49c0,1.865-1.303,2.678-2.512,2.678c-1.355,0-2.418-1-2.418-2.595c0-1.678,1.115-2.668,2.501-2.668
			C64.814,41.905,65.794,42.958,65.794,44.49z M61.802,44.542c0,1.104,0.625,1.938,1.521,1.938c0.875,0,1.532-0.823,1.532-1.959
			c0-0.854-0.427-1.929-1.511-1.929C62.271,42.593,61.802,43.594,61.802,44.542z"/>
		<path d="M66.953,43.375c0-0.531-0.01-0.948-0.042-1.365h0.813l0.052,0.834h0.021c0.25-0.47,0.833-0.938,1.667-0.938
			c0.698,0,1.782,0.417,1.782,2.146v3.002H70.33v-2.907c0-0.813-0.302-1.491-1.167-1.491c-0.594,0-1.063,0.428-1.23,0.938
			c-0.042,0.114-0.062,0.271-0.062,0.427v3.033h-0.917V43.375z"/>
		<path d="M73.25,44.698c0.021,1.24,0.802,1.751,1.73,1.751c0.657,0,1.063-0.114,1.396-0.261l0.167,0.657
			c-0.323,0.146-0.886,0.322-1.688,0.322c-1.553,0-2.48-1.031-2.48-2.553s0.896-2.71,2.366-2.71c1.657,0,2.084,1.438,2.084,2.366
			c0,0.188-0.01,0.322-0.031,0.427H73.25z M75.939,44.042c0.01-0.573-0.24-1.48-1.271-1.48c-0.938,0-1.334,0.845-1.407,1.48H75.939z
			"/>
		<path d="M77.838,46.126c0.281,0.167,0.761,0.354,1.219,0.354c0.657,0,0.969-0.323,0.969-0.75c0-0.438-0.26-0.667-0.927-0.917
			c-0.917-0.334-1.345-0.824-1.345-1.428c0-0.813,0.667-1.48,1.741-1.48c0.51,0,0.958,0.136,1.229,0.312l-0.219,0.667
			c-0.198-0.125-0.563-0.302-1.032-0.302c-0.542,0-0.834,0.312-0.834,0.688c0,0.417,0.292,0.604,0.949,0.865
			c0.865,0.323,1.323,0.761,1.323,1.511c0,0.896-0.698,1.521-1.876,1.521c-0.552,0-1.063-0.146-1.417-0.354L77.838,46.126z"/>
		<path d="M35.163,54.75c0-0.531-0.021-0.948-0.042-1.365h0.802l0.042,0.823h0.031c0.281-0.479,0.75-0.928,1.594-0.928
			c0.678,0,1.199,0.417,1.417,1.011h0.021c0.156-0.292,0.365-0.5,0.573-0.656c0.302-0.229,0.625-0.354,1.104-0.354
			c0.677,0,1.667,0.438,1.667,2.188v2.96h-0.896v-2.845c0-0.98-0.365-1.554-1.094-1.554c-0.531,0-0.927,0.386-1.094,0.824
			c-0.042,0.135-0.073,0.291-0.073,0.458v3.116h-0.896v-3.022c0-0.803-0.354-1.376-1.052-1.376c-0.563,0-0.99,0.459-1.136,0.918
			c-0.052,0.125-0.073,0.291-0.073,0.447v3.033h-0.896V54.75z"/>
		<path d="M45.725,51.206l-1.271,1.49h-0.646l0.917-1.49H45.725z M43.859,58.429v-5.044h0.917v5.044H43.859z"/>
		<path d="M46.298,54.75c0-0.531-0.01-0.948-0.042-1.365h0.813l0.052,0.834h0.021c0.25-0.47,0.833-0.938,1.667-0.938
			c0.698,0,1.782,0.417,1.782,2.146v3.002h-0.917v-2.907c0-0.813-0.302-1.491-1.167-1.491c-0.594,0-1.063,0.428-1.23,0.938
			c-0.042,0.114-0.062,0.271-0.062,0.427v3.033h-0.917V54.75z"/>
		<path d="M53.107,51.967c0,0.313-0.219,0.563-0.583,0.563c-0.333,0-0.553-0.25-0.553-0.563c0-0.312,0.229-0.573,0.573-0.573
			C52.877,51.394,53.107,51.645,53.107,51.967z M52.085,58.429v-5.044h0.917v5.044H52.085z"/>
		<path d="M54.525,54.75c0-0.531-0.021-0.948-0.042-1.365h0.802l0.042,0.823h0.031c0.281-0.479,0.75-0.928,1.594-0.928
			c0.678,0,1.199,0.417,1.417,1.011h0.021c0.156-0.292,0.365-0.5,0.573-0.656c0.302-0.229,0.625-0.354,1.104-0.354
			c0.677,0,1.667,0.438,1.667,2.188v2.96H60.84v-2.845c0-0.98-0.365-1.554-1.094-1.554c-0.531,0-0.927,0.386-1.094,0.824
			c-0.042,0.135-0.073,0.291-0.073,0.458v3.116h-0.896v-3.022c0-0.803-0.354-1.376-1.052-1.376c-0.563,0-0.99,0.459-1.136,0.918
			c-0.052,0.125-0.073,0.291-0.073,0.447v3.033h-0.896V54.75z"/>
		<path d="M66.764,57.22c0,0.438,0.021,0.865,0.073,1.209h-0.823l-0.073-0.636H65.91c-0.281,0.396-0.823,0.75-1.542,0.75
			c-1.021,0-1.542-0.719-1.542-1.448c0-1.22,1.084-1.887,3.033-1.876v-0.104c0-0.406-0.115-1.167-1.146-1.156
			c-0.479,0-0.969,0.135-1.323,0.375l-0.208-0.615c0.417-0.26,1.032-0.438,1.667-0.438c1.542,0,1.917,1.053,1.917,2.053V57.22z
			 M65.878,55.854c-1-0.021-2.137,0.156-2.137,1.136c0,0.604,0.396,0.876,0.854,0.876c0.667,0,1.095-0.417,1.24-0.845
			c0.031-0.104,0.042-0.208,0.042-0.292V55.854z"/>
		<path d="M68.121,57.501c0.281,0.167,0.761,0.354,1.219,0.354c0.657,0,0.969-0.323,0.969-0.75c0-0.438-0.26-0.667-0.927-0.917
			c-0.917-0.334-1.345-0.824-1.345-1.428c0-0.813,0.667-1.48,1.741-1.48c0.51,0,0.958,0.136,1.229,0.312l-0.219,0.667
			c-0.198-0.125-0.563-0.302-1.032-0.302c-0.542,0-0.834,0.312-0.834,0.688c0,0.417,0.292,0.604,0.949,0.865
			c0.865,0.323,1.323,0.761,1.323,1.511c0,0.896-0.698,1.521-1.875,1.521c-0.553,0-1.063-0.146-1.417-0.354L68.121,57.501z"/>
		<path d="M73.083,56.428l-0.021-0.271c-0.062-0.553,0.125-1.178,0.646-1.804c0.469-0.552,0.729-0.959,0.729-1.428
			c0-0.531-0.333-0.886-0.99-0.896c-0.375,0-0.792,0.126-1.053,0.323l-0.25-0.656c0.354-0.25,0.938-0.417,1.49-0.417
			c1.198,0,1.74,0.74,1.74,1.532c0,0.709-0.396,1.219-0.896,1.813c-0.459,0.542-0.625,1.011-0.594,1.542l0.021,0.261H73.083z
			 M72.865,57.897c0-0.386,0.261-0.657,0.615-0.657c0.375,0,0.615,0.271,0.615,0.657c0,0.364-0.24,0.646-0.625,0.646
			C73.115,58.543,72.865,58.262,72.865,57.897z"/>
	</g>
</g>
</svg>
