<?xml version="1.0" encoding="utf-8"?>
<!-- Generator: Adobe Illustrator 16.0.0, SVG Export Plug-In . SVG Version: 6.00 Build 0)  -->
<!DOCTYPE svg PUBLIC "-//W3C//DTD SVG 1.1//EN" "http://www.w3.org/Graphics/SVG/1.1/DTD/svg11.dtd">
<svg version="1.1" id="Capa_1" xmlns="http://www.w3.org/2000/svg" xmlns:xlink="http://www.w3.org/1999/xlink" x="0px" y="0px"
	 width="93.333px" height="72.354px" viewBox="0 0 93.333 72.354" enable-background="new 0 0 93.333 72.354" xml:space="preserve">
<g>
	<g opacity="0.5">
		<polygon fill="#FFFFFF" points="91.333,70.354 2,70.354 2,17.02 91.333,2.354 		"/>
		<g>
			<polyline fill="none" stroke="#DFA130" stroke-width="4" stroke-miterlimit="10" points="91.333,68.369 91.333,70.354 
				89.35,70.354 			"/>
			
				<line fill="none" stroke="#DFA130" stroke-width="4" stroke-miterlimit="10" stroke-dasharray="4.0652,4.0648" x1="85.285" y1="70.354" x2="6.017" y2="70.354"/>
			<polyline fill="none" stroke="#DFA130" stroke-width="4" stroke-miterlimit="10" points="3.984,70.354 2,70.354 2,68.369 			"/>
			
				<line fill="none" stroke="#DFA130" stroke-width="4" stroke-miterlimit="10" stroke-dasharray="3.7976,3.7972" x1="2" y1="64.572" x2="2" y2="20.902"/>
			<polyline fill="none" stroke="#DFA130" stroke-width="4" stroke-miterlimit="10" points="2,19.004 2,17.02 3.958,16.697 			"/>
			
				<line fill="none" stroke="#DFA130" stroke-width="4" stroke-miterlimit="10" stroke-dasharray="4.1222,4.1218" x1="8.025" y1="16.029" x2="87.342" y2="3.008"/>
			<polyline fill="none" stroke="#DFA130" stroke-width="4" stroke-miterlimit="10" points="89.375,2.674 91.333,2.354 
				91.333,4.338 			"/>
			
				<line fill="none" stroke="#DFA130" stroke-width="4" stroke-miterlimit="10" stroke-dasharray="3.7668,3.7664" x1="91.333" y1="8.104" x2="91.333" y2="66.486"/>
		</g>
	</g>
	<g>
		<path d="M22.426,25.18c0.429,0.275,1.045,0.484,1.705,0.484c0.979,0,1.551-0.518,1.551-1.266c0-0.682-0.396-1.088-1.397-1.463
			c-1.21-0.439-1.958-1.078-1.958-2.111c0-1.156,0.957-2.014,2.398-2.014c0.748,0,1.309,0.176,1.628,0.363l-0.264,0.781
			c-0.231-0.145-0.726-0.354-1.397-0.354c-1.012,0-1.397,0.605-1.397,1.111c0,0.693,0.451,1.035,1.475,1.432
			c1.254,0.482,1.881,1.088,1.881,2.178c0,1.145-0.836,2.145-2.585,2.145c-0.715,0-1.497-0.219-1.893-0.484L22.426,25.18z"/>
		<path d="M28.542,23.859c0.022,1.311,0.847,1.85,1.826,1.85c0.693,0,1.122-0.121,1.474-0.275l0.176,0.693
			c-0.341,0.152-0.935,0.34-1.782,0.34c-1.64,0-2.619-1.088-2.619-2.695c0-1.605,0.946-2.859,2.498-2.859
			c1.749,0,2.2,1.518,2.2,2.496c0,0.199-0.011,0.342-0.033,0.451H28.542z M31.38,23.166c0.011-0.604-0.253-1.561-1.342-1.561
			c-0.99,0-1.408,0.891-1.485,1.561H31.38z"/>
		<path d="M33.514,18.535h0.968v7.811h-0.968V18.535z"/>
		<path d="M36.648,23.859c0.022,1.311,0.847,1.85,1.826,1.85c0.693,0,1.122-0.121,1.474-0.275l0.176,0.693
			c-0.341,0.152-0.935,0.34-1.782,0.34c-1.64,0-2.619-1.088-2.619-2.695c0-1.605,0.946-2.859,2.498-2.859
			c1.749,0,2.2,1.518,2.2,2.496c0,0.199-0.011,0.342-0.033,0.451H36.648z M39.487,23.166c0.011-0.604-0.253-1.561-1.342-1.561
			c-0.99,0-1.408,0.891-1.485,1.561H39.487z"/>
		<path d="M45.416,26.158c-0.253,0.121-0.814,0.309-1.529,0.309c-1.606,0-2.651-1.088-2.651-2.717c0-1.639,1.122-2.838,2.86-2.838
			c0.572,0,1.078,0.143,1.342,0.285l-0.22,0.736c-0.231-0.119-0.594-0.252-1.122-0.252c-1.221,0-1.881,0.912-1.881,2.014
			c0,1.232,0.792,1.99,1.849,1.99c0.55,0,0.913-0.131,1.188-0.252L45.416,26.158z"/>
		<path d="M50.278,26.158c-0.253,0.121-0.814,0.309-1.529,0.309c-1.606,0-2.651-1.088-2.651-2.717c0-1.639,1.122-2.838,2.86-2.838
			c0.572,0,1.078,0.143,1.342,0.285l-0.22,0.736c-0.231-0.119-0.594-0.252-1.122-0.252c-1.221,0-1.881,0.912-1.881,2.014
			c0,1.232,0.792,1.99,1.849,1.99c0.55,0,0.913-0.131,1.188-0.252L50.278,26.158z"/>
		<path d="M52.488,19.525c0,0.33-0.231,0.594-0.616,0.594c-0.352,0-0.583-0.264-0.583-0.594s0.242-0.605,0.605-0.605
			C52.246,18.92,52.488,19.184,52.488,19.525z M51.41,26.346v-5.324h0.968v5.324H51.41z"/>
		<path d="M58.803,23.641c0,1.969-1.375,2.826-2.651,2.826c-1.43,0-2.552-1.057-2.552-2.738c0-1.771,1.177-2.816,2.641-2.816
			C57.769,20.912,58.803,22.023,58.803,23.641z M54.589,23.695c0,1.166,0.66,2.045,1.606,2.045c0.924,0,1.617-0.869,1.617-2.068
			c0-0.9-0.451-2.035-1.595-2.035C55.084,21.637,54.589,22.693,54.589,23.695z"/>
		<path d="M60.023,22.463c0-0.561-0.011-1.002-0.044-1.441h0.858l0.055,0.881h0.022c0.264-0.496,0.88-0.99,1.76-0.99
			c0.737,0,1.881,0.439,1.881,2.266v3.168h-0.968v-3.068c0-0.859-0.319-1.574-1.232-1.574c-0.627,0-1.122,0.451-1.298,0.99
			c-0.044,0.121-0.066,0.287-0.066,0.451v3.201h-0.968V22.463z"/>
		<path d="M69.868,25.07c0,0.461,0.022,0.912,0.077,1.275h-0.869l-0.077-0.67h-0.033c-0.297,0.418-0.869,0.791-1.628,0.791
			c-1.078,0-1.628-0.758-1.628-1.529c0-1.287,1.144-1.99,3.201-1.98v-0.109c0-0.43-0.121-1.232-1.21-1.221
			c-0.506,0-1.023,0.143-1.397,0.396l-0.22-0.65c0.44-0.275,1.089-0.461,1.76-0.461c1.628,0,2.024,1.111,2.024,2.166V25.07z
			 M68.933,23.629c-1.056-0.021-2.255,0.164-2.255,1.199c0,0.639,0.418,0.924,0.902,0.924c0.704,0,1.155-0.439,1.309-0.891
			c0.033-0.111,0.044-0.221,0.044-0.309V23.629z"/>
		<path d="M20.55,38.158c-0.253,0.121-0.814,0.309-1.529,0.309c-1.606,0-2.651-1.088-2.651-2.717c0-1.639,1.122-2.838,2.86-2.838
			c0.572,0,1.078,0.143,1.342,0.285l-0.22,0.736c-0.231-0.119-0.594-0.252-1.122-0.252c-1.221,0-1.881,0.912-1.881,2.014
			c0,1.232,0.792,1.99,1.849,1.99c0.55,0,0.913-0.131,1.188-0.252L20.55,38.158z"/>
		<path d="M26.435,35.641c0,1.969-1.375,2.826-2.651,2.826c-1.43,0-2.552-1.057-2.552-2.738c0-1.771,1.177-2.816,2.641-2.816
			C25.401,32.912,26.435,34.023,26.435,35.641z M22.222,35.695c0,1.166,0.66,2.045,1.606,2.045c0.924,0,1.617-0.869,1.617-2.068
			c0-0.9-0.451-2.035-1.595-2.035C22.717,33.637,22.222,34.693,22.222,35.695z M25.28,30.723l-1.342,1.572h-0.682l0.957-1.572H25.28
			z"/>
		<path d="M32.243,30.535v6.436c0,0.473,0.022,1.012,0.044,1.375h-0.858l-0.044-0.924h-0.033c-0.286,0.594-0.924,1.045-1.793,1.045
			c-1.287,0-2.289-1.088-2.289-2.705c-0.011-1.771,1.1-2.85,2.387-2.85c0.825,0,1.364,0.385,1.606,0.803h0.022v-3.18H32.243z
			 M31.286,35.189c0-0.121-0.011-0.287-0.044-0.408c-0.143-0.605-0.671-1.111-1.397-1.111c-1.001,0-1.596,0.881-1.596,2.047
			c0,1.078,0.539,1.969,1.573,1.969c0.649,0,1.243-0.439,1.419-1.154c0.033-0.133,0.044-0.264,0.044-0.418V35.189z"/>
		<path d="M34.938,31.525c0,0.33-0.231,0.594-0.616,0.594c-0.352,0-0.583-0.264-0.583-0.594s0.242-0.605,0.605-0.605
			C34.696,30.92,34.938,31.184,34.938,31.525z M33.86,38.346v-5.324h0.968v5.324H33.86z"/>
		<path d="M40.988,37.564c0,1.232-0.253,1.971-0.759,2.443c-0.528,0.473-1.276,0.639-1.947,0.639c-0.638,0-1.342-0.154-1.771-0.441
			l0.242-0.748c0.352,0.23,0.902,0.43,1.562,0.43c0.99,0,1.716-0.518,1.716-1.871v-0.582h-0.022
			c-0.286,0.494-0.869,0.891-1.694,0.891c-1.32,0-2.267-1.123-2.267-2.596c0-1.805,1.177-2.816,2.41-2.816
			c0.924,0,1.419,0.473,1.661,0.912h0.022l0.033-0.803h0.858c-0.033,0.373-0.044,0.814-0.044,1.453V37.564z M40.02,35.123
			c0-0.166-0.011-0.309-0.055-0.43c-0.176-0.572-0.638-1.033-1.353-1.033c-0.924,0-1.584,0.781-1.584,2.012
			c0,1.047,0.54,1.916,1.573,1.916c0.605,0,1.145-0.375,1.342-0.99c0.055-0.166,0.077-0.354,0.077-0.518V35.123z"/>
		<path d="M47.401,35.641c0,1.969-1.375,2.826-2.651,2.826c-1.43,0-2.552-1.057-2.552-2.738c0-1.771,1.177-2.816,2.641-2.816
			C46.367,32.912,47.401,34.023,47.401,35.641z M43.188,35.695c0,1.166,0.66,2.045,1.606,2.045c0.924,0,1.617-0.869,1.617-2.068
			c0-0.9-0.451-2.035-1.595-2.035C43.683,33.637,43.188,34.693,43.188,35.695z"/>
		<path d="M48.489,37.367c0.297,0.176,0.803,0.373,1.288,0.373c0.693,0,1.023-0.34,1.023-0.791c0-0.463-0.275-0.705-0.979-0.969
			c-0.968-0.352-1.419-0.869-1.419-1.506c0-0.859,0.704-1.562,1.837-1.562c0.539,0,1.012,0.143,1.298,0.33l-0.231,0.703
			c-0.209-0.131-0.594-0.318-1.089-0.318c-0.572,0-0.88,0.33-0.88,0.727c0,0.439,0.308,0.637,1.001,0.912
			c0.913,0.342,1.397,0.803,1.397,1.596c0,0.945-0.737,1.605-1.98,1.605c-0.583,0-1.122-0.154-1.496-0.373L48.489,37.367z"/>
		<path d="M60.513,38.115c-0.341,0.176-1.056,0.352-1.958,0.352c-2.09,0-3.653-1.32-3.653-3.762c0-2.332,1.573-3.895,3.873-3.895
			c0.913,0,1.507,0.197,1.76,0.33l-0.242,0.781c-0.352-0.176-0.869-0.309-1.485-0.309c-1.738,0-2.894,1.111-2.894,3.059
			c0,1.826,1.045,2.98,2.838,2.98c0.594,0,1.188-0.121,1.573-0.307L60.513,38.115z"/>
		<path d="M62.68,30.932v7.414h-0.968v-7.414H62.68z"/>
		<path d="M64.34,30.932h3.994v0.803h-3.025v2.465h2.794v0.791h-2.794v3.355H64.34V30.932z"/>
		<path d="M72.359,33.021l1.155,3.146c0.132,0.352,0.264,0.77,0.352,1.09h0.022c0.099-0.32,0.209-0.727,0.341-1.111l1.056-3.125
			h1.023l-1.453,3.795c-0.693,1.826-1.166,2.75-1.826,3.334c-0.484,0.406-0.946,0.572-1.188,0.615L71.6,39.963
			c0.242-0.076,0.561-0.23,0.847-0.473c0.264-0.209,0.583-0.582,0.814-1.078c0.044-0.1,0.077-0.176,0.077-0.23
			s-0.022-0.133-0.077-0.254l-1.958-4.906H72.359z"/>
		<path d="M22.255,50.158c-0.253,0.121-0.814,0.309-1.529,0.309c-1.606,0-2.651-1.088-2.651-2.717c0-1.639,1.122-2.838,2.86-2.838
			c0.572,0,1.078,0.143,1.342,0.285l-0.22,0.736c-0.231-0.119-0.594-0.252-1.122-0.252c-1.221,0-1.881,0.912-1.881,2.014
			c0,1.232,0.792,1.99,1.849,1.99c0.55,0,0.913-0.131,1.188-0.252L22.255,50.158z"/>
		<path d="M27.128,49.07c0,0.461,0.022,0.912,0.077,1.275h-0.869l-0.077-0.67h-0.033c-0.297,0.418-0.869,0.791-1.628,0.791
			c-1.078,0-1.628-0.758-1.628-1.529c0-1.287,1.144-1.99,3.201-1.98v-0.109c0-0.43-0.121-1.232-1.21-1.221
			c-0.506,0-1.023,0.143-1.397,0.396l-0.22-0.65c0.44-0.275,1.089-0.461,1.76-0.461c1.628,0,2.024,1.111,2.024,2.166V49.07z
			 M26.193,47.629c-1.056-0.021-2.255,0.164-2.255,1.199c0,0.639,0.418,0.924,0.902,0.924c0.704,0,1.155-0.439,1.309-0.891
			c0.033-0.111,0.044-0.221,0.044-0.309V47.629z"/>
		<path d="M29.812,43.746v1.275h1.386v0.736h-1.386v2.873c0,0.66,0.187,1.033,0.726,1.033c0.264,0,0.418-0.021,0.561-0.066
			l0.044,0.738c-0.187,0.064-0.484,0.131-0.858,0.131c-0.451,0-0.814-0.154-1.045-0.406c-0.264-0.297-0.374-0.77-0.374-1.398v-2.904
			h-0.825v-0.736h0.825v-0.99L29.812,43.746z"/>
		<path d="M32.76,47.859c0.022,1.311,0.847,1.85,1.826,1.85c0.693,0,1.122-0.121,1.474-0.275l0.176,0.693
			c-0.341,0.152-0.935,0.34-1.782,0.34c-1.64,0-2.619-1.088-2.619-2.695c0-1.605,0.946-2.859,2.498-2.859
			c1.749,0,2.2,1.518,2.2,2.496c0,0.199-0.011,0.342-0.033,0.451H32.76z M35.598,47.166c0.011-0.604-0.253-1.561-1.342-1.561
			c-0.99,0-1.408,0.891-1.485,1.561H35.598z"/>
		<path d="M42.287,49.564c0,1.232-0.253,1.971-0.759,2.443C41,52.48,40.251,52.646,39.58,52.646c-0.638,0-1.342-0.154-1.771-0.441
			l0.242-0.748c0.352,0.23,0.902,0.43,1.562,0.43c0.99,0,1.716-0.518,1.716-1.871v-0.582h-0.022
			c-0.286,0.494-0.869,0.891-1.694,0.891c-1.32,0-2.267-1.123-2.267-2.596c0-1.805,1.177-2.816,2.41-2.816
			c0.924,0,1.419,0.473,1.661,0.912h0.022l0.033-0.803h0.858c-0.033,0.373-0.044,0.814-0.044,1.453V49.564z M41.318,47.123
			c0-0.166-0.011-0.309-0.055-0.43c-0.176-0.572-0.638-1.033-1.353-1.033c-0.924,0-1.584,0.781-1.584,2.012
			c0,1.047,0.539,1.916,1.573,1.916c0.605,0,1.145-0.375,1.342-0.99c0.055-0.166,0.077-0.354,0.077-0.518V47.123z"/>
		<path d="M48.699,47.641c0,1.969-1.375,2.826-2.651,2.826c-1.43,0-2.552-1.057-2.552-2.738c0-1.771,1.177-2.816,2.641-2.816
			C47.666,44.912,48.699,46.023,48.699,47.641z M44.486,47.695c0,1.166,0.66,2.045,1.606,2.045c0.924,0,1.617-0.869,1.617-2.068
			c0-0.9-0.451-2.035-1.595-2.035C44.981,45.637,44.486,46.693,44.486,47.695z"/>
		<path d="M49.919,46.684c0-0.629-0.011-1.168-0.044-1.662h0.847l0.044,1.057h0.033c0.242-0.715,0.836-1.166,1.485-1.166
			c0.099,0,0.176,0.01,0.264,0.021v0.912c-0.099-0.021-0.198-0.021-0.33-0.021c-0.682,0-1.167,0.506-1.298,1.232
			c-0.022,0.133-0.033,0.297-0.033,0.451v2.838h-0.968V46.684z"/>
		<path d="M55.53,42.723l-1.342,1.572h-0.682l0.968-1.572H55.53z M53.561,50.346v-5.324h0.968v5.324H53.561z"/>
		<path d="M59.875,49.07c0,0.461,0.022,0.912,0.077,1.275h-0.869l-0.077-0.67h-0.033c-0.297,0.418-0.869,0.791-1.628,0.791
			c-1.078,0-1.628-0.758-1.628-1.529c0-1.287,1.144-1.99,3.201-1.98v-0.109c0-0.43-0.121-1.232-1.21-1.221
			c-0.506,0-1.023,0.143-1.397,0.396l-0.22-0.65c0.44-0.275,1.089-0.461,1.76-0.461c1.628,0,2.024,1.111,2.024,2.166V49.07z
			 M58.939,47.629c-1.056-0.021-2.255,0.164-2.255,1.199c0,0.639,0.418,0.924,0.902,0.924c0.704,0,1.155-0.439,1.309-0.891
			c0.033-0.111,0.044-0.221,0.044-0.309V47.629z"/>
		<path d="M68.356,42.535v6.436c0,0.473,0.022,1.012,0.044,1.375h-0.858l-0.044-0.924h-0.033c-0.286,0.594-0.924,1.045-1.793,1.045
			c-1.287,0-2.289-1.088-2.289-2.705c-0.011-1.771,1.1-2.85,2.387-2.85c0.825,0,1.364,0.385,1.606,0.803h0.022v-3.18H68.356z
			 M67.399,47.189c0-0.121-0.011-0.287-0.044-0.408c-0.143-0.605-0.671-1.111-1.397-1.111c-1.001,0-1.595,0.881-1.595,2.047
			c0,1.078,0.54,1.969,1.573,1.969c0.649,0,1.243-0.439,1.419-1.154c0.033-0.133,0.044-0.264,0.044-0.418V47.189z"/>
		<path d="M70.511,47.859c0.022,1.311,0.847,1.85,1.826,1.85c0.693,0,1.122-0.121,1.474-0.275l0.176,0.693
			c-0.341,0.152-0.935,0.34-1.782,0.34c-1.64,0-2.619-1.088-2.619-2.695c0-1.605,0.946-2.859,2.498-2.859
			c1.749,0,2.2,1.518,2.2,2.496c0,0.199-0.011,0.342-0.033,0.451H70.511z M73.35,47.166c0.011-0.604-0.253-1.561-1.342-1.561
			c-0.99,0-1.408,0.891-1.485,1.561H73.35z"/>
		<path d="M21.491,54.535v6.436c0,0.473,0.022,1.012,0.044,1.375h-0.858l-0.044-0.924H20.6c-0.286,0.594-0.924,1.045-1.793,1.045
			c-1.287,0-2.289-1.088-2.289-2.705c-0.011-1.771,1.1-2.85,2.387-2.85c0.825,0,1.364,0.385,1.606,0.803h0.022v-3.18H21.491z
			 M20.534,59.189c0-0.121-0.011-0.287-0.044-0.408c-0.143-0.605-0.671-1.111-1.397-1.111c-1.001,0-1.595,0.881-1.595,2.047
			c0,1.078,0.54,1.969,1.573,1.969c0.649,0,1.243-0.439,1.419-1.154c0.033-0.133,0.044-0.264,0.044-0.418V59.189z"/>
		<path d="M24.186,55.525c0,0.33-0.231,0.594-0.616,0.594c-0.352,0-0.583-0.264-0.583-0.594s0.242-0.605,0.605-0.605
			C23.943,54.92,24.186,55.184,24.186,55.525z M23.107,62.346v-5.324h0.968v5.324H23.107z"/>
		<path d="M25.549,61.367c0.297,0.176,0.803,0.373,1.288,0.373c0.693,0,1.023-0.34,1.023-0.791c0-0.463-0.275-0.705-0.979-0.969
			c-0.968-0.352-1.419-0.869-1.419-1.506c0-0.859,0.704-1.562,1.837-1.562c0.539,0,1.012,0.143,1.298,0.33l-0.231,0.703
			c-0.209-0.131-0.594-0.318-1.089-0.318c-0.572,0-0.88,0.33-0.88,0.727c0,0.439,0.308,0.637,1.001,0.912
			c0.913,0.342,1.397,0.803,1.397,1.596c0,0.945-0.737,1.605-1.98,1.605c-0.583,0-1.122-0.154-1.496-0.373L25.549,61.367z"/>
		<path d="M33.833,62.158c-0.253,0.121-0.814,0.309-1.529,0.309c-1.606,0-2.651-1.088-2.651-2.717c0-1.639,1.122-2.838,2.86-2.838
			c0.572,0,1.078,0.143,1.342,0.285l-0.22,0.736c-0.231-0.119-0.594-0.252-1.122-0.252c-1.221,0-1.881,0.912-1.881,2.014
			c0,1.232,0.792,1.99,1.849,1.99c0.55,0,0.913-0.131,1.188-0.252L33.833,62.158z"/>
		<path d="M38.706,61.07c0,0.461,0.022,0.912,0.077,1.275h-0.869l-0.077-0.67h-0.033c-0.297,0.418-0.869,0.791-1.628,0.791
			c-1.078,0-1.628-0.758-1.628-1.529c0-1.287,1.144-1.99,3.201-1.98v-0.109c0-0.43-0.121-1.232-1.21-1.221
			c-0.506,0-1.023,0.143-1.397,0.396l-0.22-0.65c0.44-0.275,1.089-0.461,1.76-0.461c1.628,0,2.024,1.111,2.024,2.166V61.07z
			 M37.771,59.629c-1.056-0.021-2.255,0.164-2.255,1.199c0,0.639,0.418,0.924,0.902,0.924c0.704,0,1.155-0.439,1.309-0.891
			c0.033-0.111,0.044-0.221,0.044-0.309V59.629z"/>
		<path d="M40.267,58.76c0-0.682-0.022-1.232-0.044-1.738h0.858l0.055,0.912h0.022c0.385-0.648,1.023-1.021,1.892-1.021
			c1.298,0,2.267,1.088,2.267,2.695c0,1.914-1.177,2.859-2.432,2.859c-0.704,0-1.32-0.309-1.639-0.836h-0.022v2.895h-0.957V58.76z
			 M41.224,60.18c0,0.143,0.011,0.273,0.044,0.395c0.176,0.672,0.759,1.135,1.452,1.135c1.023,0,1.617-0.838,1.617-2.059
			c0-1.057-0.561-1.969-1.584-1.969c-0.66,0-1.287,0.463-1.463,1.188c-0.033,0.121-0.066,0.264-0.066,0.385V60.18z"/>
		<path d="M50.266,61.07c0,0.461,0.022,0.912,0.077,1.275h-0.869l-0.077-0.67h-0.033c-0.297,0.418-0.869,0.791-1.628,0.791
			c-1.078,0-1.628-0.758-1.628-1.529c0-1.287,1.144-1.99,3.201-1.98v-0.109c0-0.43-0.121-1.232-1.21-1.221
			c-0.506,0-1.023,0.143-1.397,0.396l-0.22-0.65c0.44-0.275,1.089-0.461,1.76-0.461c1.628,0,2.024,1.111,2.024,2.166V61.07z
			 M49.331,59.629c-1.056-0.021-2.255,0.164-2.255,1.199c0,0.639,0.418,0.924,0.902,0.924c0.704,0,1.155-0.439,1.309-0.891
			c0.033-0.111,0.044-0.221,0.044-0.309V59.629z"/>
		<path d="M55.623,62.158c-0.253,0.121-0.814,0.309-1.529,0.309c-1.606,0-2.651-1.088-2.651-2.717c0-1.639,1.122-2.838,2.86-2.838
			c0.572,0,1.078,0.143,1.342,0.285l-0.22,0.736c-0.231-0.119-0.594-0.252-1.123-0.252c-1.221,0-1.881,0.912-1.881,2.014
			c0,1.232,0.792,1.99,1.849,1.99c0.55,0,0.913-0.131,1.188-0.252L55.623,62.158z"/>
		<path d="M57.834,55.525c0,0.33-0.231,0.594-0.616,0.594c-0.352,0-0.583-0.264-0.583-0.594s0.242-0.605,0.605-0.605
			C57.592,54.92,57.834,55.184,57.834,55.525z M56.756,62.346v-5.324h0.968v5.324H56.756z"/>
		<path d="M63.917,54.535v6.436c0,0.473,0.022,1.012,0.044,1.375h-0.858l-0.044-0.924h-0.033c-0.286,0.594-0.924,1.045-1.793,1.045
			c-1.287,0-2.289-1.088-2.289-2.705c-0.011-1.771,1.1-2.85,2.387-2.85c0.825,0,1.364,0.385,1.606,0.803h0.022v-3.18H63.917z
			 M62.96,59.189c0-0.121-0.011-0.287-0.044-0.408c-0.143-0.605-0.671-1.111-1.397-1.111c-1.001,0-1.596,0.881-1.596,2.047
			c0,1.078,0.539,1.969,1.573,1.969c0.649,0,1.243-0.439,1.419-1.154c0.033-0.133,0.044-0.264,0.044-0.418V59.189z"/>
		<path d="M69.274,61.07c0,0.461,0.022,0.912,0.077,1.275h-0.869l-0.077-0.67h-0.033c-0.297,0.418-0.869,0.791-1.628,0.791
			c-1.078,0-1.628-0.758-1.628-1.529c0-1.287,1.144-1.99,3.201-1.98v-0.109c0-0.43-0.121-1.232-1.21-1.221
			c-0.506,0-1.023,0.143-1.397,0.396l-0.22-0.65c0.44-0.275,1.089-0.461,1.76-0.461c1.628,0,2.024,1.111,2.024,2.166V61.07z
			 M68.339,59.629c-1.056-0.021-2.255,0.164-2.255,1.199c0,0.639,0.418,0.924,0.902,0.924c0.704,0,1.155-0.439,1.309-0.891
			c0.033-0.111,0.044-0.221,0.044-0.309V59.629z"/>
		<path d="M75.423,54.535v6.436c0,0.473,0.022,1.012,0.044,1.375h-0.858l-0.044-0.924h-0.033c-0.286,0.594-0.924,1.045-1.793,1.045
			c-1.287,0-2.289-1.088-2.289-2.705c-0.011-1.771,1.1-2.85,2.387-2.85c0.825,0,1.364,0.385,1.606,0.803h0.022v-3.18H75.423z
			 M74.466,59.189c0-0.121-0.011-0.287-0.044-0.408c-0.143-0.605-0.671-1.111-1.397-1.111c-1.001,0-1.596,0.881-1.596,2.047
			c0,1.078,0.539,1.969,1.573,1.969c0.649,0,1.243-0.439,1.419-1.154c0.033-0.133,0.044-0.264,0.044-0.418V59.189z"/>
	</g>
</g>
</svg>
