<?xml version="1.0" encoding="utf-8"?>
<!-- Generator: Adobe Illustrator 16.0.0, SVG Export Plug-In . SVG Version: 6.00 Build 0)  -->
<!DOCTYPE svg PUBLIC "-//W3C//DTD SVG 1.1//EN" "http://www.w3.org/Graphics/SVG/1.1/DTD/svg11.dtd">
<svg version="1.1" id="Capa_1" xmlns="http://www.w3.org/2000/svg" xmlns:xlink="http://www.w3.org/1999/xlink" x="0px" y="0px"
	 width="93.333px" height="72.354px" viewBox="0 0 93.333 72.354" enable-background="new 0 0 93.333 72.354" xml:space="preserve">
<g>
	<g opacity="0.5">
		<polygon fill="#FFFFFF" points="91.333,70.354 2,70.354 2,17.02 91.333,2.354 		"/>
		<g>
			<polyline fill="none" stroke="#DFA130" stroke-width="4" stroke-miterlimit="10" points="91.333,68.369 91.333,70.354 
				89.35,70.354 			"/>
			
				<line fill="none" stroke="#DFA130" stroke-width="4" stroke-miterlimit="10" stroke-dasharray="4.0652,4.0648" x1="85.285" y1="70.354" x2="6.017" y2="70.354"/>
			<polyline fill="none" stroke="#DFA130" stroke-width="4" stroke-miterlimit="10" points="3.984,70.354 2,70.354 2,68.369 			"/>
			
				<line fill="none" stroke="#DFA130" stroke-width="4" stroke-miterlimit="10" stroke-dasharray="3.7976,3.7972" x1="2" y1="64.572" x2="2" y2="20.902"/>
			<polyline fill="none" stroke="#DFA130" stroke-width="4" stroke-miterlimit="10" points="2,19.004 2,17.02 3.958,16.697 			"/>
			
				<line fill="none" stroke="#DFA130" stroke-width="4" stroke-miterlimit="10" stroke-dasharray="4.1222,4.1218" x1="8.025" y1="16.029" x2="87.342" y2="3.008"/>
			<polyline fill="none" stroke="#DFA130" stroke-width="4" stroke-miterlimit="10" points="89.375,2.674 91.333,2.354 
				91.333,4.338 			"/>
			
				<line fill="none" stroke="#DFA130" stroke-width="4" stroke-miterlimit="10" stroke-dasharray="3.7668,3.7664" x1="91.333" y1="8.104" x2="91.333" y2="66.486"/>
		</g>
	</g>
	<g>
		<path d="M31.668,18.44v7.415H30.7V18.44H31.668z"/>
		<path d="M33.417,21.972c0-0.561-0.011-1.001-0.044-1.441h0.858l0.055,0.881h0.022c0.264-0.495,0.88-0.99,1.76-0.99
			c0.737,0,1.881,0.439,1.881,2.266v3.169h-0.968v-3.069c0-0.858-0.319-1.573-1.232-1.573c-0.627,0-1.122,0.451-1.298,0.99
			c-0.044,0.121-0.066,0.286-0.066,0.451v3.201h-0.968V21.972z"/>
		<path d="M44.077,25.074c0,1.232-0.253,1.97-0.759,2.442c-0.528,0.474-1.276,0.639-1.947,0.639c-0.638,0-1.342-0.154-1.771-0.44
			l0.242-0.748c0.352,0.23,0.902,0.429,1.562,0.429c0.99,0,1.716-0.517,1.716-1.87v-0.583h-0.022
			c-0.286,0.495-0.869,0.891-1.694,0.891c-1.32,0-2.267-1.122-2.267-2.596c0-1.805,1.177-2.816,2.41-2.816
			c0.924,0,1.419,0.473,1.661,0.913h0.022l0.033-0.804h0.858c-0.033,0.374-0.044,0.814-0.044,1.453V25.074z M43.108,22.632
			c0-0.165-0.011-0.308-0.055-0.429c-0.176-0.572-0.638-1.034-1.353-1.034c-0.924,0-1.584,0.781-1.584,2.013
			c0,1.046,0.539,1.915,1.573,1.915c0.605,0,1.145-0.374,1.342-0.99c0.055-0.165,0.077-0.353,0.077-0.518V22.632z"/>
		<path d="M45.605,22.192c0-0.628-0.011-1.167-0.044-1.662h0.847l0.044,1.057h0.033c0.242-0.715,0.836-1.166,1.485-1.166
			c0.099,0,0.176,0.011,0.264,0.021v0.913c-0.099-0.021-0.198-0.021-0.33-0.021c-0.682,0-1.167,0.506-1.298,1.232
			c-0.022,0.132-0.033,0.297-0.033,0.45v2.839h-0.968V22.192z"/>
		<path d="M49.631,23.369c0.022,1.31,0.847,1.849,1.826,1.849c0.693,0,1.122-0.121,1.474-0.275l0.176,0.693
			c-0.341,0.153-0.935,0.341-1.782,0.341c-1.64,0-2.619-1.089-2.619-2.695s0.946-2.86,2.498-2.86c1.749,0,2.2,1.518,2.2,2.497
			c0,0.198-0.011,0.341-0.033,0.451H49.631z M52.469,22.676c0.011-0.604-0.253-1.562-1.342-1.562c-0.99,0-1.408,0.891-1.485,1.562
			H52.469z"/>
		<path d="M54.471,24.876c0.297,0.177,0.803,0.374,1.288,0.374c0.693,0,1.023-0.341,1.023-0.792c0-0.462-0.275-0.704-0.979-0.968
			c-0.968-0.353-1.419-0.869-1.419-1.507c0-0.858,0.704-1.562,1.837-1.562c0.539,0,1.012,0.143,1.298,0.33l-0.231,0.704
			c-0.209-0.132-0.594-0.319-1.089-0.319c-0.572,0-0.88,0.33-0.88,0.727c0,0.439,0.308,0.638,1.001,0.913
			c0.913,0.341,1.397,0.803,1.397,1.595c0,0.946-0.737,1.606-1.98,1.606c-0.583,0-1.122-0.154-1.496-0.374L54.471,24.876z"/>
		<path d="M62.699,24.579c0,0.462,0.022,0.913,0.077,1.276h-0.869l-0.077-0.671h-0.033c-0.297,0.418-0.869,0.792-1.628,0.792
			c-1.078,0-1.628-0.759-1.628-1.529c0-1.287,1.144-1.991,3.201-1.98v-0.109c0-0.43-0.121-1.232-1.21-1.222
			c-0.506,0-1.023,0.143-1.397,0.396l-0.22-0.649c0.44-0.275,1.089-0.462,1.76-0.462c1.628,0,2.024,1.111,2.024,2.167V24.579z
			 M61.764,23.138c-1.056-0.021-2.255,0.165-2.255,1.199c0,0.639,0.418,0.925,0.902,0.925c0.704,0,1.155-0.44,1.309-0.892
			c0.033-0.11,0.044-0.22,0.044-0.308V23.138z"/>
		<path d="M12.452,31.034c0,0.33-0.231,0.595-0.616,0.595c-0.352,0-0.583-0.265-0.583-0.595s0.242-0.604,0.605-0.604
			C12.209,30.43,12.452,30.693,12.452,31.034z M11.374,37.855V32.53h0.968v5.325H11.374z"/>
		<path d="M13.947,33.972c0-0.561-0.011-1.001-0.044-1.441h0.858l0.055,0.881h0.022c0.264-0.495,0.88-0.99,1.76-0.99
			c0.737,0,1.881,0.439,1.881,2.266v3.169h-0.968v-3.069c0-0.858-0.319-1.573-1.232-1.573c-0.627,0-1.122,0.451-1.298,0.99
			c-0.044,0.121-0.066,0.286-0.066,0.451v3.201h-0.968V33.972z"/>
		<path d="M20.151,37.855v-4.588h-0.737V32.53h0.737v-0.253c0-0.748,0.176-1.43,0.616-1.859c0.363-0.352,0.847-0.495,1.298-0.495
			c0.352,0,0.638,0.077,0.825,0.154l-0.132,0.748c-0.143-0.065-0.33-0.121-0.616-0.121c-0.825,0-1.034,0.716-1.034,1.541v0.285
			h1.287v0.737h-1.287v4.588H20.151z"/>
		<path d="M27.94,35.149c0,1.969-1.375,2.827-2.651,2.827c-1.43,0-2.552-1.057-2.552-2.739c0-1.771,1.177-2.816,2.641-2.816
			C26.906,32.421,27.94,33.532,27.94,35.149z M23.727,35.204c0,1.166,0.66,2.046,1.606,2.046c0.924,0,1.617-0.869,1.617-2.068
			c0-0.901-0.451-2.035-1.595-2.035C24.222,33.146,23.727,34.203,23.727,35.204z"/>
		<path d="M29.161,34.192c0-0.628-0.011-1.167-0.044-1.662h0.847l0.044,1.057h0.033c0.242-0.715,0.836-1.166,1.485-1.166
			c0.099,0,0.176,0.011,0.264,0.021v0.913c-0.099-0.021-0.198-0.021-0.33-0.021c-0.682,0-1.167,0.506-1.298,1.232
			c-0.022,0.132-0.033,0.297-0.033,0.45v2.839h-0.968V34.192z"/>
		<path d="M32.801,33.972c0-0.561-0.022-1.001-0.044-1.441h0.847l0.044,0.869h0.033c0.297-0.506,0.792-0.979,1.684-0.979
			c0.715,0,1.265,0.439,1.496,1.067h0.022c0.165-0.309,0.385-0.528,0.605-0.693c0.319-0.242,0.66-0.374,1.166-0.374
			c0.715,0,1.76,0.462,1.76,2.311v3.124h-0.946v-3.004c0-1.033-0.385-1.639-1.155-1.639c-0.561,0-0.979,0.407-1.155,0.869
			c-0.044,0.143-0.077,0.308-0.077,0.484v3.289h-0.946v-3.19c0-0.847-0.374-1.452-1.111-1.452c-0.594,0-1.045,0.484-1.199,0.968
			c-0.055,0.132-0.077,0.309-0.077,0.474v3.201h-0.946V33.972z"/>
		<path d="M45.716,36.579c0,0.462,0.022,0.913,0.077,1.276h-0.869l-0.077-0.671h-0.033c-0.297,0.418-0.869,0.792-1.628,0.792
			c-1.078,0-1.628-0.759-1.628-1.529c0-1.287,1.144-1.991,3.201-1.98v-0.109c0-0.43-0.121-1.232-1.21-1.222
			c-0.506,0-1.023,0.143-1.397,0.396l-0.22-0.649c0.44-0.275,1.089-0.462,1.76-0.462c1.628,0,2.024,1.111,2.024,2.167V36.579z
			 M44.781,35.138c-1.056-0.021-2.255,0.165-2.255,1.199c0,0.639,0.418,0.925,0.902,0.925c0.704,0,1.155-0.44,1.309-0.892
			c0.033-0.11,0.044-0.22,0.044-0.308V35.138z"/>
		<path d="M51.073,37.668c-0.253,0.121-0.814,0.309-1.529,0.309c-1.606,0-2.651-1.089-2.651-2.718c0-1.639,1.122-2.838,2.86-2.838
			c0.572,0,1.078,0.143,1.342,0.286l-0.22,0.736c-0.231-0.12-0.594-0.253-1.122-0.253c-1.221,0-1.881,0.913-1.881,2.014
			c0,1.232,0.792,1.991,1.849,1.991c0.55,0,0.913-0.132,1.188-0.253L51.073,37.668z"/>
		<path d="M53.283,31.034c0,0.33-0.231,0.595-0.616,0.595c-0.352,0-0.583-0.265-0.583-0.595s0.242-0.604,0.605-0.604
			C53.041,30.43,53.283,30.693,53.283,31.034z M52.205,37.855V32.53h0.968v5.325H52.205z"/>
		<path d="M59.598,35.149c0,1.969-1.375,2.827-2.651,2.827c-1.43,0-2.552-1.057-2.552-2.739c0-1.771,1.177-2.816,2.641-2.816
			C58.564,32.421,59.598,33.532,59.598,35.149z M55.384,35.204c0,1.166,0.66,2.046,1.606,2.046c0.924,0,1.617-0.869,1.617-2.068
			c0-0.901-0.451-2.035-1.595-2.035C55.879,33.146,55.384,34.203,55.384,35.204z M58.443,30.231l-1.342,1.573h-0.682l0.957-1.573
			H58.443z"/>
		<path d="M60.818,33.972c0-0.561-0.011-1.001-0.044-1.441h0.858l0.055,0.881h0.022c0.264-0.495,0.88-0.99,1.76-0.99
			c0.737,0,1.881,0.439,1.881,2.266v3.169h-0.968v-3.069c0-0.858-0.319-1.573-1.232-1.573c-0.627,0-1.122,0.451-1.298,0.99
			c-0.044,0.121-0.066,0.286-0.066,0.451v3.201h-0.968V33.972z"/>
		<path d="M73.842,30.044v6.437c0,0.473,0.022,1.012,0.044,1.375h-0.858l-0.044-0.924h-0.033c-0.286,0.594-0.924,1.045-1.793,1.045
			c-1.287,0-2.289-1.089-2.289-2.706c-0.011-1.771,1.1-2.85,2.387-2.85c0.825,0,1.364,0.385,1.606,0.803h0.022v-3.18H73.842z
			 M72.885,34.698c0-0.121-0.011-0.286-0.044-0.407c-0.143-0.605-0.671-1.111-1.397-1.111c-1.001,0-1.595,0.88-1.595,2.047
			c0,1.078,0.54,1.969,1.573,1.969c0.649,0,1.243-0.44,1.419-1.155c0.033-0.132,0.044-0.264,0.044-0.418V34.698z"/>
		<path d="M75.998,35.369c0.022,1.31,0.847,1.849,1.826,1.849c0.693,0,1.122-0.121,1.474-0.275l0.176,0.693
			c-0.341,0.153-0.935,0.341-1.782,0.341c-1.64,0-2.619-1.089-2.619-2.695s0.946-2.86,2.498-2.86c1.749,0,2.2,1.518,2.2,2.497
			c0,0.198-0.011,0.341-0.033,0.451H75.998z M78.836,34.676c0.011-0.604-0.253-1.562-1.342-1.562c-0.99,0-1.408,0.891-1.485,1.562
			H78.836z"/>
		<path d="M80.97,30.044h0.968v7.812H80.97V30.044z"/>
		<path d="M28.423,46.269c0-0.682-0.022-1.231-0.044-1.738h0.858l0.055,0.913h0.022c0.385-0.648,1.023-1.022,1.892-1.022
			c1.298,0,2.267,1.089,2.267,2.695c0,1.914-1.177,2.86-2.432,2.86c-0.704,0-1.32-0.309-1.639-0.836H29.38v2.894h-0.957V46.269z
			 M29.38,47.688c0,0.143,0.011,0.274,0.044,0.396c0.176,0.671,0.759,1.134,1.452,1.134c1.023,0,1.617-0.837,1.617-2.058
			c0-1.057-0.561-1.97-1.584-1.97c-0.66,0-1.287,0.463-1.463,1.188c-0.033,0.121-0.066,0.264-0.066,0.385V47.688z"/>
		<path d="M35.221,47.369c0.022,1.31,0.847,1.849,1.826,1.849c0.693,0,1.122-0.121,1.474-0.275l0.176,0.693
			c-0.341,0.153-0.935,0.341-1.782,0.341c-1.64,0-2.619-1.089-2.619-2.695s0.946-2.86,2.498-2.86c1.749,0,2.2,1.518,2.2,2.497
			c0,0.198-0.011,0.341-0.033,0.451H35.221z M38.06,46.676c0.011-0.604-0.253-1.562-1.342-1.562c-0.99,0-1.408,0.891-1.485,1.562
			H38.06z"/>
		<path d="M40.193,46.192c0-0.628-0.011-1.167-0.044-1.662h0.847l0.044,1.057h0.033c0.242-0.715,0.836-1.166,1.485-1.166
			c0.099,0,0.176,0.011,0.264,0.021v0.913c-0.099-0.021-0.198-0.021-0.33-0.021c-0.682,0-1.167,0.506-1.298,1.232
			c-0.022,0.132-0.033,0.297-0.033,0.45v2.839h-0.968V46.192z"/>
		<path d="M44.219,49.855v-4.588h-0.737V44.53h0.737v-0.297c0-1.396,0.825-2.311,2.321-2.311c0.495,0,1.078,0.154,1.353,0.353
			l-0.275,0.737c-0.242-0.165-0.649-0.309-1.122-0.309c-1.023,0-1.32,0.716-1.32,1.562v0.264h3.091v5.325h-0.968v-4.588h-2.123
			v4.588H44.219z"/>
		<path d="M49.873,42.044h0.968v7.812h-0.968V42.044z"/>
		<path d="M59.388,42.044v6.437c0,0.473,0.022,1.012,0.044,1.375h-0.858l-0.044-0.924h-0.033c-0.286,0.594-0.924,1.045-1.793,1.045
			c-1.287,0-2.289-1.089-2.289-2.706c-0.011-1.771,1.1-2.85,2.387-2.85c0.825,0,1.364,0.385,1.606,0.803h0.022v-3.18H59.388z
			 M58.431,46.698c0-0.121-0.011-0.286-0.044-0.407c-0.143-0.605-0.671-1.111-1.397-1.111c-1.001,0-1.595,0.88-1.595,2.047
			c0,1.078,0.54,1.969,1.573,1.969c0.649,0,1.243-0.44,1.419-1.155c0.033-0.132,0.044-0.264,0.044-0.418V46.698z"/>
		<path d="M61.544,47.369c0.022,1.31,0.847,1.849,1.826,1.849c0.693,0,1.122-0.121,1.474-0.275l0.176,0.693
			c-0.341,0.153-0.935,0.341-1.782,0.341c-1.64,0-2.619-1.089-2.619-2.695s0.946-2.86,2.498-2.86c1.749,0,2.2,1.518,2.2,2.497
			c0,0.198-0.011,0.341-0.033,0.451H61.544z M64.382,46.676c0.011-0.604-0.253-1.562-1.342-1.562c-0.99,0-1.408,0.891-1.485,1.562
			H64.382z"/>
		<path d="M10.939,61.855v-4.588h-0.737V56.53h0.737v-0.253c0-0.748,0.176-1.43,0.616-1.859c0.363-0.352,0.847-0.495,1.298-0.495
			c0.352,0,0.638,0.077,0.825,0.154l-0.132,0.748c-0.143-0.065-0.33-0.121-0.616-0.121c-0.825,0-1.034,0.716-1.034,1.541v0.285
			h1.287v0.737h-1.287v4.588H10.939z"/>
		<path d="M18.508,60.393c0,0.561,0.011,1.045,0.044,1.463h-0.858l-0.055-0.869h-0.022c-0.242,0.429-0.814,0.99-1.76,0.99
			c-0.836,0-1.837-0.474-1.837-2.332V56.53h0.968v2.938c0,1.013,0.319,1.706,1.188,1.706c0.649,0,1.1-0.451,1.276-0.892
			c0.055-0.132,0.088-0.308,0.088-0.495V56.53h0.968V60.393z"/>
		<path d="M20.113,57.972c0-0.561-0.011-1.001-0.044-1.441h0.858l0.055,0.881h0.022c0.264-0.495,0.88-0.99,1.76-0.99
			c0.737,0,1.881,0.439,1.881,2.266v3.169h-0.968v-3.069c0-0.858-0.319-1.573-1.232-1.573c-0.627,0-1.122,0.451-1.298,0.99
			c-0.044,0.121-0.066,0.286-0.066,0.451v3.201h-0.968V57.972z"/>
		<path d="M30.014,61.668c-0.253,0.121-0.814,0.309-1.529,0.309c-1.606,0-2.651-1.089-2.651-2.718c0-1.639,1.122-2.838,2.86-2.838
			c0.572,0,1.078,0.143,1.342,0.286l-0.22,0.736c-0.231-0.12-0.594-0.253-1.123-0.253c-1.221,0-1.881,0.913-1.881,2.014
			c0,1.232,0.792,1.991,1.849,1.991c0.55,0,0.913-0.132,1.188-0.253L30.014,61.668z"/>
		<path d="M32.224,55.034c0,0.33-0.231,0.595-0.616,0.595c-0.352,0-0.583-0.265-0.583-0.595s0.242-0.604,0.605-0.604
			C31.982,54.43,32.224,54.693,32.224,55.034z M31.146,61.855V56.53h0.968v5.325H31.146z"/>
		<path d="M38.539,59.149c0,1.969-1.375,2.827-2.651,2.827c-1.43,0-2.552-1.057-2.552-2.739c0-1.771,1.177-2.816,2.641-2.816
			C37.505,56.421,38.539,57.532,38.539,59.149z M34.325,59.204c0,1.166,0.66,2.046,1.606,2.046c0.924,0,1.617-0.869,1.617-2.068
			c0-0.901-0.451-2.035-1.595-2.035C34.82,57.146,34.325,58.203,34.325,59.204z"/>
		<path d="M39.759,57.972c0-0.561-0.011-1.001-0.044-1.441h0.858l0.055,0.881h0.022c0.264-0.495,0.88-0.99,1.76-0.99
			c0.737,0,1.881,0.439,1.881,2.266v3.169h-0.968v-3.069c0-0.858-0.319-1.573-1.232-1.573c-0.627,0-1.122,0.451-1.298,0.99
			c-0.044,0.121-0.066,0.286-0.066,0.451v3.201h-0.968V57.972z"/>
		<path d="M49.604,60.579c0,0.462,0.022,0.913,0.077,1.276h-0.869l-0.077-0.671h-0.033c-0.297,0.418-0.869,0.792-1.628,0.792
			c-1.078,0-1.628-0.759-1.628-1.529c0-1.287,1.144-1.991,3.201-1.98v-0.109c0-0.43-0.121-1.232-1.21-1.222
			c-0.506,0-1.023,0.143-1.397,0.396l-0.22-0.649c0.44-0.275,1.089-0.462,1.76-0.462c1.628,0,2.024,1.111,2.024,2.167V60.579z
			 M48.669,59.138c-1.056-0.021-2.255,0.165-2.255,1.199c0,0.639,0.418,0.925,0.902,0.925c0.704,0,1.155-0.44,1.309-0.892
			c0.033-0.11,0.044-0.22,0.044-0.308V59.138z"/>
		<path d="M51.166,57.972c0-0.561-0.022-1.001-0.044-1.441h0.847l0.044,0.869h0.033c0.297-0.506,0.792-0.979,1.684-0.979
			c0.715,0,1.265,0.439,1.496,1.067h0.022c0.165-0.309,0.385-0.528,0.605-0.693c0.319-0.242,0.66-0.374,1.166-0.374
			c0.715,0,1.76,0.462,1.76,2.311v3.124h-0.946v-3.004c0-1.033-0.385-1.639-1.155-1.639c-0.561,0-0.979,0.407-1.155,0.869
			c-0.044,0.143-0.077,0.308-0.077,0.484v3.289H54.5v-3.19c0-0.847-0.374-1.452-1.111-1.452c-0.594,0-1.045,0.484-1.199,0.968
			c-0.055,0.132-0.077,0.309-0.077,0.474v3.201h-0.946V57.972z"/>
		<path d="M61.418,55.034c0,0.33-0.231,0.595-0.616,0.595c-0.352,0-0.583-0.265-0.583-0.595s0.242-0.604,0.605-0.604
			C61.176,54.43,61.418,54.693,61.418,55.034z M60.34,61.855V56.53h0.968v5.325H60.34z"/>
		<path d="M63.453,59.369c0.022,1.31,0.847,1.849,1.826,1.849c0.693,0,1.122-0.121,1.474-0.275l0.176,0.693
			c-0.341,0.153-0.935,0.341-1.782,0.341c-1.64,0-2.619-1.089-2.619-2.695s0.946-2.86,2.498-2.86c1.749,0,2.2,1.518,2.2,2.497
			c0,0.198-0.011,0.341-0.033,0.451H63.453z M66.291,58.676c0.011-0.604-0.253-1.562-1.342-1.562c-0.99,0-1.408,0.891-1.485,1.562
			H66.291z"/>
		<path d="M68.425,57.972c0-0.561-0.011-1.001-0.044-1.441h0.858l0.055,0.881h0.022c0.264-0.495,0.88-0.99,1.76-0.99
			c0.737,0,1.881,0.439,1.881,2.266v3.169h-0.968v-3.069c0-0.858-0.319-1.573-1.232-1.573c-0.627,0-1.122,0.451-1.298,0.99
			c-0.044,0.121-0.066,0.286-0.066,0.451v3.201h-0.968V57.972z"/>
		<path d="M75.652,55.255v1.275h1.386v0.737h-1.386v2.872c0,0.66,0.187,1.034,0.726,1.034c0.264,0,0.418-0.022,0.561-0.066
			l0.044,0.737c-0.187,0.065-0.484,0.132-0.858,0.132c-0.451,0-0.814-0.154-1.045-0.407c-0.264-0.297-0.374-0.77-0.374-1.397v-2.904
			h-0.825V56.53h0.825v-0.989L75.652,55.255z"/>
		<path d="M82.879,59.149c0,1.969-1.375,2.827-2.651,2.827c-1.43,0-2.552-1.057-2.552-2.739c0-1.771,1.177-2.816,2.641-2.816
			C81.845,56.421,82.879,57.532,82.879,59.149z M78.666,59.204c0,1.166,0.66,2.046,1.606,2.046c0.924,0,1.617-0.869,1.617-2.068
			c0-0.901-0.451-2.035-1.595-2.035C79.161,57.146,78.666,58.203,78.666,59.204z"/>
	</g>
</g>
</svg>
