<?xml version="1.0" encoding="utf-8"?>
<!-- Generator: Adobe Illustrator 16.0.0, SVG Export Plug-In . SVG Version: 6.00 Build 0)  -->
<!DOCTYPE svg PUBLIC "-//W3C//DTD SVG 1.1//EN" "http://www.w3.org/Graphics/SVG/1.1/DTD/svg11.dtd">
<svg version="1.1" id="Capa_1" xmlns="http://www.w3.org/2000/svg" xmlns:xlink="http://www.w3.org/1999/xlink" x="0px" y="0px"
	 width="93.333px" height="72.354px" viewBox="0 0 93.333 72.354" enable-background="new 0 0 93.333 72.354" xml:space="preserve">
<g>
	<g opacity="0.5">
		<polygon fill="#FFFFFF" points="91.333,70.354 2,70.354 2,17.02 91.333,2.354 		"/>
		<g>
			<polyline fill="none" stroke="#DFA130" stroke-width="4" stroke-miterlimit="10" points="91.333,68.369 91.333,70.354 
				89.35,70.354 			"/>
			
				<line fill="none" stroke="#DFA130" stroke-width="4" stroke-miterlimit="10" stroke-dasharray="4.0652,4.0648" x1="85.285" y1="70.354" x2="6.017" y2="70.354"/>
			<polyline fill="none" stroke="#DFA130" stroke-width="4" stroke-miterlimit="10" points="3.984,70.354 2,70.354 2,68.369 			"/>
			
				<line fill="none" stroke="#DFA130" stroke-width="4" stroke-miterlimit="10" stroke-dasharray="3.7975,3.7971" x1="2" y1="64.572" x2="2" y2="20.902"/>
			<polyline fill="none" stroke="#DFA130" stroke-width="4" stroke-miterlimit="10" points="2,19.004 2,17.02 3.958,16.699 			"/>
			
				<line fill="none" stroke="#DFA130" stroke-width="4" stroke-miterlimit="10" stroke-dasharray="4.1222,4.1218" x1="8.025" y1="16.031" x2="87.342" y2="3.008"/>
			<polyline fill="none" stroke="#DFA130" stroke-width="4" stroke-miterlimit="10" points="89.375,2.674 91.333,2.354 
				91.333,4.338 			"/>
			
				<line fill="none" stroke="#DFA130" stroke-width="4" stroke-miterlimit="10" stroke-dasharray="3.7668,3.7664" x1="91.333" y1="8.104" x2="91.333" y2="66.486"/>
		</g>
	</g>
	<g>
		<path d="M6.701,21.413v6.695H5.827v-6.695H6.701z"/>
		<path d="M8.282,24.602c0-0.506-0.01-0.903-0.04-1.301h0.775l0.049,0.795h0.02c0.238-0.447,0.794-0.895,1.589-0.895
			c0.666,0,1.699,0.397,1.699,2.046v2.861H11.5v-2.771c0-0.774-0.288-1.421-1.112-1.421c-0.566,0-1.013,0.408-1.172,0.895
			c-0.04,0.109-0.06,0.258-0.06,0.407v2.891H8.282V24.602z"/>
		<path d="M17.911,27.403c0,1.112-0.229,1.778-0.685,2.205c-0.477,0.427-1.152,0.576-1.758,0.576c-0.576,0-1.212-0.139-1.6-0.397
			l0.219-0.676c0.318,0.209,0.814,0.388,1.411,0.388c0.894,0,1.549-0.467,1.549-1.688v-0.526h-0.02
			c-0.258,0.446-0.785,0.805-1.53,0.805c-1.192,0-2.046-1.014-2.046-2.345c0-1.629,1.063-2.543,2.175-2.543
			c0.834,0,1.282,0.427,1.5,0.824h0.02l0.03-0.725h0.775c-0.03,0.338-0.04,0.735-0.04,1.312V27.403z M17.037,25.198
			c0-0.149-0.01-0.278-0.05-0.388c-0.159-0.517-0.576-0.934-1.222-0.934c-0.834,0-1.43,0.705-1.43,1.817
			c0,0.944,0.487,1.729,1.42,1.729c0.546,0,1.033-0.338,1.212-0.894c0.049-0.149,0.069-0.318,0.069-0.467V25.198z"/>
		<path d="M19.295,24.801c0-0.566-0.01-1.053-0.04-1.5h0.765l0.04,0.953h0.03c0.218-0.646,0.755-1.053,1.341-1.053
			c0.089,0,0.159,0.01,0.238,0.02v0.825c-0.089-0.021-0.179-0.021-0.298-0.021c-0.616,0-1.053,0.457-1.172,1.113
			c-0.02,0.119-0.03,0.268-0.03,0.407v2.562h-0.874V24.801z"/>
		<path d="M22.933,25.863c0.02,1.183,0.765,1.669,1.649,1.669c0.626,0,1.013-0.109,1.331-0.248l0.159,0.626
			c-0.308,0.139-0.845,0.308-1.609,0.308c-1.48,0-2.364-0.983-2.364-2.434s0.854-2.583,2.255-2.583c1.58,0,1.987,1.371,1.987,2.255
			c0,0.179-0.01,0.308-0.03,0.407H22.933z M25.496,25.237c0.01-0.546-0.229-1.41-1.212-1.41c-0.894,0-1.271,0.805-1.341,1.41H25.496
			z"/>
		<path d="M27.307,27.225c0.268,0.158,0.725,0.338,1.162,0.338c0.626,0,0.924-0.309,0.924-0.716c0-0.417-0.248-0.636-0.884-0.874
			c-0.875-0.317-1.282-0.785-1.282-1.36c0-0.775,0.636-1.411,1.659-1.411c0.486,0,0.914,0.129,1.172,0.298l-0.208,0.636
			c-0.189-0.119-0.537-0.288-0.983-0.288c-0.517,0-0.795,0.298-0.795,0.656c0,0.396,0.278,0.576,0.904,0.824
			c0.824,0.308,1.261,0.725,1.261,1.44c0,0.854-0.666,1.45-1.788,1.45c-0.526,0-1.013-0.14-1.351-0.338L27.307,27.225z"/>
		<path d="M34.74,26.956c0,0.417,0.02,0.824,0.069,1.152h-0.785l-0.069-0.605h-0.03c-0.268,0.377-0.785,0.715-1.47,0.715
			c-0.974,0-1.47-0.686-1.47-1.381c0-1.162,1.033-1.798,2.891-1.788v-0.1c0-0.387-0.109-1.112-1.093-1.103
			c-0.457,0-0.924,0.129-1.261,0.357l-0.199-0.586c0.397-0.248,0.983-0.417,1.589-0.417c1.47,0,1.828,1.003,1.828,1.957V26.956z
			 M33.896,25.655c-0.954-0.021-2.037,0.148-2.037,1.082c0,0.576,0.377,0.835,0.814,0.835c0.636,0,1.043-0.397,1.182-0.805
			c0.03-0.1,0.04-0.199,0.04-0.278V25.655z"/>
		<path d="M39.234,21.949c0,0.299-0.208,0.537-0.556,0.537c-0.318,0-0.527-0.238-0.527-0.537c0-0.298,0.219-0.546,0.546-0.546
			C39.015,21.403,39.234,21.642,39.234,21.949z M38.26,28.108v-4.808h0.874v4.808H38.26z"/>
		<path d="M40.586,24.602c0-0.506-0.01-0.903-0.04-1.301h0.775l0.049,0.795h0.02c0.238-0.447,0.794-0.895,1.589-0.895
			c0.666,0,1.699,0.397,1.699,2.046v2.861h-0.875v-2.771c0-0.774-0.288-1.421-1.112-1.421c-0.566,0-1.013,0.408-1.172,0.895
			c-0.04,0.109-0.06,0.258-0.06,0.407v2.891h-0.874V24.602z"/>
		<path d="M46.192,28.108v-4.143h-0.666v-0.665h0.666v-0.229c0-0.676,0.159-1.291,0.556-1.679c0.328-0.318,0.765-0.447,1.172-0.447
			c0.318,0,0.576,0.069,0.745,0.139l-0.119,0.676c-0.129-0.06-0.298-0.109-0.557-0.109c-0.745,0-0.934,0.646-0.934,1.391v0.259
			h1.162v0.665h-1.162v4.143H46.192z"/>
		<path d="M53.228,25.665c0,1.777-1.242,2.553-2.394,2.553c-1.292,0-2.305-0.954-2.305-2.474c0-1.6,1.063-2.543,2.384-2.543
			C52.293,23.201,53.228,24.204,53.228,25.665z M49.423,25.715c0,1.053,0.596,1.848,1.45,1.848c0.834,0,1.46-0.785,1.46-1.868
			c0-0.814-0.407-1.838-1.44-1.838C49.87,23.856,49.423,24.811,49.423,25.715z"/>
		<path d="M54.333,24.801c0-0.566-0.01-1.053-0.04-1.5h0.765l0.04,0.953h0.03c0.218-0.646,0.755-1.053,1.341-1.053
			c0.089,0,0.159,0.01,0.238,0.02v0.825c-0.089-0.021-0.179-0.021-0.298-0.021c-0.616,0-1.053,0.457-1.172,1.113
			c-0.02,0.119-0.03,0.268-0.03,0.407v2.562h-0.874V24.801z"/>
		<path d="M57.623,24.602c0-0.506-0.02-0.903-0.04-1.301h0.765l0.04,0.784h0.03c0.268-0.457,0.715-0.884,1.52-0.884
			c0.646,0,1.143,0.397,1.351,0.964h0.02c0.149-0.278,0.348-0.477,0.546-0.626c0.288-0.219,0.596-0.338,1.053-0.338
			c0.646,0,1.589,0.417,1.589,2.086v2.821h-0.854v-2.712c0-0.934-0.348-1.48-1.043-1.48c-0.506,0-0.884,0.368-1.043,0.785
			c-0.04,0.129-0.069,0.278-0.069,0.438v2.97h-0.854v-2.881c0-0.765-0.337-1.312-1.003-1.312c-0.537,0-0.944,0.438-1.083,0.875
			c-0.05,0.119-0.069,0.277-0.069,0.427v2.891h-0.854V24.602z"/>
		<path d="M69.291,26.956c0,0.417,0.02,0.824,0.069,1.152h-0.785l-0.069-0.605h-0.03c-0.268,0.377-0.785,0.715-1.47,0.715
			c-0.974,0-1.47-0.686-1.47-1.381c0-1.162,1.033-1.798,2.891-1.788v-0.1c0-0.387-0.109-1.112-1.093-1.103
			c-0.457,0-0.924,0.129-1.261,0.357l-0.199-0.586c0.397-0.248,0.983-0.417,1.589-0.417c1.47,0,1.828,1.003,1.828,1.957V26.956z
			 M68.446,25.655c-0.954-0.021-2.037,0.148-2.037,1.082c0,0.576,0.377,0.835,0.814,0.835c0.636,0,1.043-0.397,1.182-0.805
			c0.03-0.1,0.04-0.199,0.04-0.278V25.655z"/>
		<path d="M74.131,27.939c-0.229,0.109-0.735,0.278-1.381,0.278c-1.45,0-2.394-0.983-2.394-2.454c0-1.479,1.013-2.562,2.583-2.562
			c0.517,0,0.974,0.129,1.212,0.259l-0.199,0.665c-0.208-0.109-0.536-0.229-1.013-0.229c-1.103,0-1.698,0.824-1.698,1.818
			c0,1.112,0.715,1.798,1.668,1.798c0.497,0,0.825-0.119,1.073-0.229L74.131,27.939z"/>
		<path d="M76.131,21.949c0,0.299-0.208,0.537-0.556,0.537c-0.318,0-0.527-0.238-0.527-0.537c0-0.298,0.219-0.546,0.546-0.546
			C75.912,21.403,76.131,21.642,76.131,21.949z M75.157,28.108v-4.808h0.874v4.808H75.157z"/>
		<path d="M81.834,25.665c0,1.777-1.242,2.553-2.394,2.553c-1.292,0-2.305-0.954-2.305-2.474c0-1.6,1.063-2.543,2.384-2.543
			C80.9,23.201,81.834,24.204,81.834,25.665z M78.029,25.715c0,1.053,0.596,1.848,1.45,1.848c0.834,0,1.46-0.785,1.46-1.868
			c0-0.814-0.407-1.838-1.44-1.838C78.476,23.856,78.029,24.811,78.029,25.715z M80.791,21.225l-1.212,1.42h-0.616l0.864-1.42
			H80.791z"/>
		<path d="M82.94,24.602c0-0.506-0.01-0.903-0.04-1.301h0.775l0.049,0.795h0.02c0.238-0.447,0.794-0.895,1.589-0.895
			c0.666,0,1.699,0.397,1.699,2.046v2.861h-0.875v-2.771c0-0.774-0.288-1.421-1.112-1.421c-0.566,0-1.013,0.408-1.172,0.895
			c-0.04,0.109-0.06,0.258-0.06,0.407v2.891H82.94V24.602z"/>
		<path d="M17.854,38.068c0.268,0.158,0.725,0.338,1.162,0.338c0.626,0,0.924-0.309,0.924-0.716c0-0.417-0.248-0.636-0.884-0.874
			c-0.875-0.317-1.282-0.785-1.282-1.36c0-0.775,0.636-1.411,1.659-1.411c0.486,0,0.914,0.129,1.172,0.298l-0.208,0.636
			c-0.189-0.119-0.537-0.288-0.983-0.288c-0.517,0-0.795,0.298-0.795,0.656c0,0.396,0.278,0.576,0.904,0.824
			c0.824,0.308,1.261,0.725,1.261,1.44c0,0.854-0.666,1.45-1.788,1.45c-0.527,0-1.014-0.14-1.351-0.338L17.854,38.068z"/>
		<path d="M26.261,36.509c0,1.777-1.242,2.553-2.394,2.553c-1.292,0-2.305-0.954-2.305-2.474c0-1.6,1.063-2.543,2.384-2.543
			C25.327,34.045,26.261,35.048,26.261,36.509z M22.456,36.559c0,1.053,0.596,1.848,1.45,1.848c0.834,0,1.46-0.785,1.46-1.868
			c0-0.814-0.407-1.838-1.44-1.838C22.903,34.7,22.456,35.654,22.456,36.559z"/>
		<path d="M27.367,31.899h0.864v3.02h0.02c0.308-0.536,0.864-0.874,1.639-0.874c1.202,0,2.037,0.993,2.037,2.443
			c0,1.719-1.093,2.573-2.166,2.573c-0.695,0-1.251-0.269-1.619-0.895h-0.02l-0.049,0.785h-0.745c0.02-0.328,0.04-0.814,0.04-1.241
			V31.899z M28.231,37.025c0,0.109,0.01,0.218,0.04,0.317c0.159,0.606,0.676,1.023,1.312,1.023c0.924,0,1.46-0.745,1.46-1.848
			c0-0.964-0.497-1.788-1.44-1.788c-0.586,0-1.142,0.417-1.321,1.073c-0.03,0.108-0.05,0.228-0.05,0.367V37.025z"/>
		<path d="M33.022,35.645c0-0.566-0.01-1.053-0.04-1.5h0.765l0.04,0.953h0.03c0.218-0.646,0.755-1.053,1.341-1.053
			c0.089,0,0.159,0.01,0.238,0.02v0.825c-0.089-0.021-0.179-0.021-0.298-0.021c-0.616,0-1.053,0.457-1.172,1.113
			c-0.02,0.119-0.03,0.268-0.03,0.407v2.562h-0.874V35.645z"/>
		<path d="M36.66,36.707c0.02,1.183,0.765,1.669,1.649,1.669c0.626,0,1.013-0.109,1.331-0.248l0.159,0.626
			c-0.308,0.139-0.845,0.308-1.609,0.308c-1.48,0-2.364-0.983-2.364-2.434s0.854-2.583,2.255-2.583c1.58,0,1.987,1.371,1.987,2.255
			c0,0.179-0.01,0.308-0.03,0.407H36.66z M39.223,36.081c0.01-0.546-0.229-1.41-1.212-1.41c-0.894,0-1.271,0.805-1.341,1.41H39.223z
			"/>
		<path d="M43.35,38.952V34.81h-0.666v-0.665h0.666v-0.229c0-0.676,0.159-1.291,0.556-1.679c0.328-0.318,0.765-0.447,1.172-0.447
			c0.318,0,0.576,0.069,0.745,0.139l-0.119,0.676c-0.129-0.06-0.298-0.109-0.557-0.109c-0.745,0-0.934,0.646-0.934,1.391v0.259
			h1.162v0.665h-1.162v4.143H43.35z"/>
		<path d="M49.54,37.8c0,0.417,0.02,0.824,0.069,1.152h-0.785l-0.069-0.605h-0.03c-0.269,0.377-0.785,0.715-1.47,0.715
			c-0.974,0-1.47-0.686-1.47-1.381c0-1.162,1.033-1.798,2.891-1.788v-0.1c0-0.387-0.109-1.112-1.093-1.103
			c-0.457,0-0.924,0.129-1.261,0.357l-0.199-0.586c0.397-0.248,0.983-0.417,1.589-0.417c1.47,0,1.828,1.003,1.828,1.957V37.8z
			 M48.696,36.499c-0.954-0.021-2.037,0.148-2.037,1.082c0,0.576,0.377,0.835,0.814,0.835c0.636,0,1.043-0.397,1.182-0.805
			c0.03-0.1,0.04-0.199,0.04-0.278V36.499z"/>
		<path d="M54.381,38.783c-0.229,0.109-0.735,0.278-1.381,0.278c-1.45,0-2.394-0.983-2.394-2.454c0-1.479,1.013-2.562,2.583-2.562
			c0.517,0,0.974,0.129,1.212,0.259l-0.198,0.665c-0.209-0.109-0.537-0.229-1.014-0.229c-1.103,0-1.698,0.824-1.698,1.818
			c0,1.112,0.715,1.798,1.668,1.798c0.497,0,0.825-0.119,1.073-0.229L54.381,38.783z"/>
		<path d="M56.589,32.992v1.152h1.251v0.665h-1.251v2.593c0,0.597,0.168,0.934,0.655,0.934c0.238,0,0.377-0.02,0.507-0.06
			l0.04,0.666c-0.169,0.06-0.437,0.119-0.775,0.119c-0.407,0-0.735-0.14-0.943-0.367c-0.239-0.269-0.338-0.695-0.338-1.262V34.81
			h-0.745v-0.665h0.745V33.25L56.589,32.992z"/>
		<path d="M63.117,36.509c0,1.777-1.242,2.553-2.394,2.553c-1.292,0-2.305-0.954-2.305-2.474c0-1.6,1.063-2.543,2.384-2.543
			C62.183,34.045,63.117,35.048,63.117,36.509z M59.312,36.559c0,1.053,0.596,1.848,1.45,1.848c0.834,0,1.46-0.785,1.46-1.868
			c0-0.814-0.407-1.838-1.44-1.838C59.759,34.7,59.312,35.654,59.312,36.559z"/>
		<path d="M64.223,35.645c0-0.566-0.01-1.053-0.04-1.5h0.765l0.04,0.953h0.03c0.218-0.646,0.755-1.053,1.341-1.053
			c0.089,0,0.159,0.01,0.238,0.02v0.825c-0.089-0.021-0.179-0.021-0.298-0.021c-0.616,0-1.053,0.457-1.172,1.113
			c-0.02,0.119-0.03,0.268-0.03,0.407v2.562h-0.874V35.645z"/>
		<path d="M67.861,36.707c0.02,1.183,0.765,1.669,1.649,1.669c0.626,0,1.013-0.109,1.331-0.248L71,38.754
			c-0.308,0.139-0.845,0.308-1.609,0.308c-1.48,0-2.364-0.983-2.364-2.434s0.854-2.583,2.255-2.583c1.58,0,1.987,1.371,1.987,2.255
			c0,0.179-0.01,0.308-0.03,0.407H67.861z M70.424,36.081c0.01-0.546-0.229-1.41-1.212-1.41c-0.894,0-1.271,0.805-1.341,1.41H70.424
			z"/>
		<path d="M72.235,38.068c0.268,0.158,0.725,0.338,1.162,0.338c0.626,0,0.924-0.309,0.924-0.716c0-0.417-0.248-0.636-0.884-0.874
			c-0.875-0.317-1.282-0.785-1.282-1.36c0-0.775,0.636-1.411,1.659-1.411c0.486,0,0.914,0.129,1.172,0.298l-0.208,0.636
			c-0.189-0.119-0.537-0.288-0.983-0.288c-0.517,0-0.795,0.298-0.795,0.656c0,0.396,0.278,0.576,0.904,0.824
			c0.824,0.308,1.261,0.725,1.261,1.44c0,0.854-0.666,1.45-1.788,1.45c-0.526,0-1.013-0.14-1.351-0.338L72.235,38.068z"/>
		<path d="M21.313,46.558c0-0.616-0.02-1.112-0.04-1.569h0.775l0.049,0.824h0.02c0.348-0.586,0.924-0.924,1.708-0.924
			c1.172,0,2.046,0.983,2.046,2.434c0,1.729-1.063,2.583-2.195,2.583c-0.636,0-1.192-0.278-1.48-0.755h-0.02v2.612h-0.864V46.558z
			 M22.178,47.839c0,0.129,0.01,0.248,0.04,0.357c0.159,0.606,0.686,1.023,1.312,1.023c0.924,0,1.46-0.755,1.46-1.857
			c0-0.954-0.506-1.778-1.43-1.778c-0.596,0-1.162,0.417-1.321,1.073c-0.03,0.109-0.06,0.238-0.06,0.348V47.839z"/>
		<path d="M27.456,47.551c0.02,1.183,0.765,1.669,1.649,1.669c0.626,0,1.013-0.109,1.331-0.248l0.159,0.626
			c-0.308,0.139-0.845,0.308-1.609,0.308c-1.48,0-2.364-0.983-2.364-2.434s0.854-2.583,2.255-2.583c1.58,0,1.987,1.371,1.987,2.255
			c0,0.179-0.01,0.308-0.03,0.407H27.456z M30.019,46.925c0.01-0.546-0.229-1.41-1.212-1.41c-0.894,0-1.271,0.805-1.341,1.41H30.019
			z"/>
		<path d="M31.949,46.488c0-0.566-0.01-1.053-0.04-1.5h0.765l0.04,0.953h0.03c0.218-0.646,0.755-1.053,1.341-1.053
			c0.089,0,0.159,0.01,0.238,0.02v0.825c-0.089-0.021-0.179-0.021-0.298-0.021c-0.616,0-1.053,0.457-1.172,1.113
			c-0.02,0.119-0.03,0.268-0.03,0.407v2.562h-0.874V46.488z"/>
		<path d="M35.08,48.912c0.268,0.158,0.725,0.338,1.162,0.338c0.626,0,0.924-0.309,0.924-0.716c0-0.417-0.248-0.636-0.884-0.874
			C35.408,47.343,35,46.875,35,46.3c0-0.775,0.636-1.411,1.659-1.411c0.486,0,0.914,0.129,1.172,0.298l-0.208,0.636
			c-0.189-0.119-0.537-0.288-0.983-0.288c-0.517,0-0.795,0.298-0.795,0.656c0,0.396,0.278,0.576,0.904,0.824
			c0.824,0.308,1.261,0.725,1.261,1.44c0,0.854-0.666,1.45-1.788,1.45c-0.527,0-1.014-0.14-1.351-0.338L35.08,48.912z"/>
		<path d="M43.486,47.353c0,1.777-1.242,2.553-2.394,2.553c-1.292,0-2.305-0.954-2.305-2.474c0-1.6,1.063-2.543,2.384-2.543
			C42.552,44.889,43.486,45.892,43.486,47.353z M39.682,47.402c0,1.053,0.596,1.848,1.45,1.848c0.834,0,1.46-0.785,1.46-1.868
			c0-0.814-0.407-1.838-1.44-1.838C40.128,45.544,39.682,46.498,39.682,47.402z"/>
		<path d="M44.592,46.289c0-0.506-0.01-0.903-0.04-1.301h0.775l0.049,0.795h0.02c0.238-0.447,0.794-0.895,1.589-0.895
			c0.666,0,1.699,0.397,1.699,2.046v2.861h-0.875v-2.771c0-0.774-0.288-1.421-1.112-1.421c-0.566,0-1.013,0.408-1.172,0.895
			c-0.04,0.109-0.06,0.258-0.06,0.407v2.891h-0.874V46.289z"/>
		<path d="M53.486,48.644c0,0.417,0.02,0.824,0.069,1.152h-0.785l-0.069-0.605h-0.03c-0.269,0.377-0.785,0.715-1.47,0.715
			c-0.974,0-1.47-0.686-1.47-1.381c0-1.162,1.033-1.798,2.891-1.788v-0.1c0-0.387-0.109-1.112-1.093-1.103
			c-0.457,0-0.924,0.129-1.261,0.357l-0.199-0.586c0.397-0.248,0.983-0.417,1.589-0.417c1.47,0,1.828,1.003,1.828,1.957V48.644z
			 M52.642,47.343c-0.954-0.021-2.037,0.148-2.037,1.082c0,0.576,0.377,0.835,0.814,0.835c0.636,0,1.043-0.397,1.182-0.805
			c0.03-0.1,0.04-0.199,0.04-0.278V47.343z"/>
		<path d="M54.9,42.743h0.874v7.053H54.9V42.743z"/>
		<path d="M57.732,47.551c0.02,1.183,0.765,1.669,1.649,1.669c0.626,0,1.013-0.109,1.331-0.248l0.159,0.626
			c-0.308,0.139-0.845,0.308-1.609,0.308c-1.48,0-2.364-0.983-2.364-2.434s0.854-2.583,2.255-2.583c1.58,0,1.987,1.371,1.987,2.255
			c0,0.179-0.01,0.308-0.03,0.407H57.732z M60.295,46.925c0.01-0.546-0.229-1.41-1.212-1.41c-0.894,0-1.271,0.805-1.341,1.41H60.295
			z"/>
		<path d="M62.106,48.912c0.268,0.158,0.725,0.338,1.162,0.338c0.626,0,0.924-0.309,0.924-0.716c0-0.417-0.248-0.636-0.884-0.874
			c-0.875-0.317-1.282-0.785-1.282-1.36c0-0.775,0.636-1.411,1.659-1.411c0.486,0,0.914,0.129,1.172,0.298l-0.208,0.636
			c-0.189-0.119-0.537-0.288-0.983-0.288c-0.517,0-0.795,0.298-0.795,0.656c0,0.396,0.278,0.576,0.904,0.824
			c0.824,0.308,1.261,0.725,1.261,1.44c0,0.854-0.666,1.45-1.788,1.45c-0.527,0-1.014-0.14-1.351-0.338L62.106,48.912z"/>
		<path d="M68.587,44.988l1.043,2.841c0.119,0.317,0.238,0.695,0.318,0.983h0.02c0.089-0.288,0.188-0.655,0.308-1.003l0.954-2.821
			h0.924l-1.312,3.427c-0.626,1.649-1.053,2.483-1.649,3.01c-0.437,0.368-0.854,0.517-1.073,0.557l-0.219-0.726
			c0.219-0.069,0.507-0.208,0.765-0.427c0.238-0.188,0.526-0.526,0.735-0.974c0.04-0.09,0.07-0.159,0.07-0.209
			c0-0.049-0.02-0.119-0.07-0.229l-1.768-4.43H68.587z"/>
		<path d="M25.079,59.486c0,0.417,0.02,0.824,0.069,1.152h-0.785l-0.069-0.605h-0.03c-0.268,0.377-0.785,0.715-1.47,0.715
			c-0.974,0-1.47-0.686-1.47-1.381c0-1.162,1.033-1.798,2.891-1.788v-0.1c0-0.387-0.109-1.112-1.093-1.103
			c-0.457,0-0.924,0.13-1.261,0.357l-0.199-0.586c0.397-0.248,0.983-0.417,1.589-0.417c1.47,0,1.828,1.003,1.828,1.957V59.486z
			 M24.234,58.186c-0.954-0.021-2.037,0.148-2.037,1.082c0,0.576,0.377,0.835,0.814,0.835c0.636,0,1.043-0.397,1.182-0.805
			c0.03-0.1,0.04-0.199,0.04-0.278V58.186z"/>
		<path d="M26.492,57.132c0-0.506-0.02-0.903-0.04-1.301h0.765l0.04,0.784h0.03c0.268-0.457,0.715-0.884,1.52-0.884
			c0.646,0,1.143,0.397,1.351,0.964h0.02c0.149-0.278,0.348-0.477,0.546-0.626c0.288-0.219,0.596-0.338,1.053-0.338
			c0.646,0,1.589,0.417,1.589,2.086v2.821h-0.854v-2.712c0-0.934-0.348-1.48-1.043-1.48c-0.506,0-0.884,0.368-1.043,0.785
			c-0.04,0.129-0.069,0.278-0.069,0.438v2.97h-0.854v-2.881c0-0.765-0.337-1.312-1.003-1.312c-0.537,0-0.944,0.438-1.083,0.875
			c-0.05,0.119-0.069,0.277-0.069,0.427v2.891h-0.854V57.132z"/>
		<path d="M34.782,53.586h0.864v3.02h0.02c0.308-0.536,0.864-0.874,1.639-0.874c1.202,0,2.037,0.993,2.037,2.443
			c0,1.719-1.093,2.573-2.166,2.573c-0.695,0-1.251-0.269-1.619-0.895h-0.02l-0.05,0.785h-0.745c0.02-0.328,0.04-0.814,0.04-1.241
			V53.586z M35.646,58.712c0,0.109,0.01,0.218,0.04,0.317c0.159,0.606,0.676,1.023,1.312,1.023c0.924,0,1.46-0.745,1.46-1.848
			c0-0.964-0.497-1.788-1.44-1.788c-0.586,0-1.142,0.417-1.321,1.073c-0.03,0.108-0.05,0.228-0.05,0.367V58.712z"/>
		<path d="M41.411,54.479c0,0.299-0.208,0.537-0.556,0.537c-0.318,0-0.527-0.238-0.527-0.537c0-0.298,0.219-0.546,0.546-0.546
			C41.192,53.934,41.411,54.172,41.411,54.479z M40.438,60.639v-4.808h0.874v4.808H40.438z"/>
		<path d="M43.25,58.394c0.02,1.183,0.765,1.669,1.649,1.669c0.626,0,1.013-0.109,1.331-0.248l0.159,0.626
			c-0.308,0.139-0.845,0.308-1.609,0.308c-1.48,0-2.364-0.983-2.364-2.434s0.854-2.583,2.255-2.583c1.58,0,1.987,1.371,1.987,2.255
			c0,0.179-0.01,0.308-0.03,0.407H43.25z M45.813,57.768c0.01-0.546-0.229-1.41-1.212-1.41c-0.894,0-1.271,0.805-1.341,1.41H45.813z
			"/>
		<path d="M47.743,57.132c0-0.506-0.01-0.903-0.04-1.301h0.775l0.049,0.795h0.02c0.238-0.447,0.794-0.895,1.589-0.895
			c0.666,0,1.699,0.397,1.699,2.047v2.86h-0.875v-2.771c0-0.774-0.288-1.421-1.112-1.421c-0.566,0-1.013,0.408-1.172,0.895
			c-0.04,0.109-0.06,0.258-0.06,0.407v2.891h-0.874V57.132z"/>
		<path d="M54.273,54.679v1.152h1.251v0.665h-1.251v2.593c0,0.596,0.168,0.934,0.655,0.934c0.238,0,0.377-0.02,0.507-0.06
			l0.04,0.666c-0.169,0.06-0.437,0.119-0.775,0.119c-0.407,0-0.735-0.14-0.943-0.367c-0.239-0.269-0.338-0.696-0.338-1.262v-2.623
			h-0.745v-0.665h0.745v-0.895L54.273,54.679z"/>
		<path d="M59.888,59.486c0,0.417,0.02,0.824,0.069,1.152h-0.785l-0.069-0.605h-0.03c-0.269,0.377-0.785,0.715-1.47,0.715
			c-0.974,0-1.47-0.686-1.47-1.381c0-1.162,1.033-1.798,2.891-1.788v-0.1c0-0.387-0.109-1.112-1.093-1.103
			c-0.457,0-0.924,0.13-1.261,0.357l-0.199-0.586c0.397-0.248,0.983-0.417,1.589-0.417c1.47,0,1.828,1.003,1.828,1.957V59.486z
			 M59.043,58.186c-0.954-0.021-2.037,0.148-2.037,1.082c0,0.576,0.377,0.835,0.814,0.835c0.636,0,1.043-0.397,1.182-0.805
			c0.03-0.1,0.04-0.199,0.04-0.278V58.186z"/>
		<path d="M61.301,53.586h0.874v7.053h-0.874V53.586z"/>
		<path d="M64.134,58.394c0.02,1.183,0.765,1.669,1.649,1.669c0.626,0,1.013-0.109,1.331-0.248l0.159,0.626
			c-0.308,0.139-0.845,0.308-1.609,0.308c-1.48,0-2.364-0.983-2.364-2.434s0.854-2.583,2.255-2.583c1.58,0,1.987,1.371,1.987,2.255
			c0,0.179-0.01,0.308-0.03,0.407H64.134z M66.697,57.768c0.01-0.546-0.229-1.41-1.212-1.41c-0.894,0-1.271,0.805-1.341,1.41H66.697
			z"/>
		<path d="M68.508,59.755c0.268,0.158,0.725,0.338,1.162,0.338c0.626,0,0.924-0.309,0.924-0.716c0-0.417-0.248-0.636-0.884-0.874
			c-0.875-0.317-1.282-0.785-1.282-1.361c0-0.774,0.636-1.41,1.659-1.41c0.486,0,0.914,0.129,1.172,0.298l-0.208,0.636
			c-0.189-0.119-0.537-0.288-0.983-0.288c-0.517,0-0.795,0.298-0.795,0.656c0,0.396,0.278,0.576,0.904,0.824
			c0.824,0.308,1.261,0.725,1.261,1.44c0,0.854-0.666,1.45-1.788,1.45c-0.527,0-1.014-0.14-1.351-0.338L68.508,59.755z"/>
	</g>
</g>
</svg>
