<?xml version="1.0" encoding="utf-8"?>
<!-- Generator: Adobe Illustrator 16.0.0, SVG Export Plug-In . SVG Version: 6.00 Build 0)  -->
<!DOCTYPE svg PUBLIC "-//W3C//DTD SVG 1.1//EN" "http://www.w3.org/Graphics/SVG/1.1/DTD/svg11.dtd">
<svg version="1.1" id="Capa_1" xmlns="http://www.w3.org/2000/svg" xmlns:xlink="http://www.w3.org/1999/xlink" x="0px" y="0px"
	 width="93.333px" height="74.668px" viewBox="0 0 93.333 74.668" enable-background="new 0 0 93.333 74.668" xml:space="preserve">
<g>
	<g opacity="0.5">
		<rect x="2" y="2" fill="#FFFFFF" width="89.333" height="70.668"/>
		<g>
			<polyline fill="none" stroke="#DFA130" stroke-width="4" stroke-miterlimit="10" points="91.333,70.684 91.333,72.668 
				89.35,72.668 			"/>
			
				<line fill="none" stroke="#DFA130" stroke-width="4" stroke-miterlimit="10" stroke-dasharray="4.0652,4.0648" x1="85.285" y1="72.668" x2="6.017" y2="72.668"/>
			<polyline fill="none" stroke="#DFA130" stroke-width="4" stroke-miterlimit="10" points="3.984,72.668 2,72.668 2,70.684 			"/>
			
				<line fill="none" stroke="#DFA130" stroke-width="4" stroke-miterlimit="10" stroke-dasharray="3.9237,3.9233" x1="2" y1="66.76" x2="2" y2="5.945"/>
			<polyline fill="none" stroke="#DFA130" stroke-width="4" stroke-miterlimit="10" points="2,3.984 2,2 3.984,2 			"/>
			
				<line fill="none" stroke="#DFA130" stroke-width="4" stroke-miterlimit="10" stroke-dasharray="4.0652,4.0648" x1="8.049" y1="2" x2="87.317" y2="2"/>
			<polyline fill="none" stroke="#DFA130" stroke-width="4" stroke-miterlimit="10" points="89.35,2 91.333,2 91.333,3.984 			"/>
			
				<line fill="none" stroke="#DFA130" stroke-width="4" stroke-miterlimit="10" stroke-dasharray="3.9237,3.9233" x1="91.333" y1="7.908" x2="91.333" y2="68.723"/>
		</g>
	</g>
	<g>
		<path d="M21.712,15.828c0.429,0.275,1.045,0.484,1.705,0.484c0.979,0,1.551-0.518,1.551-1.266c0-0.682-0.396-1.088-1.397-1.463
			c-1.21-0.439-1.958-1.078-1.958-2.111c0-1.156,0.957-2.014,2.398-2.014c0.748,0,1.309,0.176,1.628,0.363l-0.264,0.781
			c-0.231-0.145-0.726-0.354-1.397-0.354c-1.012,0-1.397,0.605-1.397,1.111c0,0.693,0.451,1.035,1.475,1.432
			c1.254,0.482,1.881,1.088,1.881,2.178c0,1.145-0.836,2.145-2.585,2.145c-0.715,0-1.497-0.219-1.893-0.484L21.712,15.828z"/>
		<path d="M32.107,14.289c0,1.969-1.375,2.826-2.651,2.826c-1.43,0-2.552-1.057-2.552-2.738c0-1.771,1.177-2.816,2.641-2.816
			C31.074,11.561,32.107,12.672,32.107,14.289z M27.894,14.344c0,1.166,0.66,2.045,1.606,2.045c0.924,0,1.617-0.869,1.617-2.068
			c0-0.9-0.451-2.035-1.595-2.035C28.389,12.285,27.894,13.342,27.894,14.344z"/>
		<path d="M33.328,9.184h0.968v7.811h-0.968V9.184z"/>
		<path d="M37.002,10.174c0,0.33-0.231,0.594-0.616,0.594c-0.352,0-0.583-0.264-0.583-0.594s0.242-0.605,0.605-0.605
			C36.76,9.568,37.002,9.832,37.002,10.174z M35.924,16.994V11.67h0.968v5.324H35.924z"/>
		<path d="M42.293,16.807c-0.253,0.121-0.814,0.309-1.529,0.309c-1.606,0-2.651-1.088-2.651-2.717c0-1.639,1.122-2.838,2.86-2.838
			c0.572,0,1.078,0.143,1.342,0.285l-0.22,0.736c-0.231-0.119-0.594-0.252-1.123-0.252c-1.221,0-1.881,0.912-1.881,2.014
			c0,1.232,0.792,1.99,1.849,1.99c0.55,0,0.913-0.131,1.188-0.252L42.293,16.807z"/>
		<path d="M44.504,10.174c0,0.33-0.231,0.594-0.616,0.594c-0.352,0-0.583-0.264-0.583-0.594s0.242-0.605,0.605-0.605
			C44.262,9.568,44.504,9.832,44.504,10.174z M43.426,16.994V11.67h0.968v5.324H43.426z"/>
		<path d="M47.166,10.395v1.275h1.386v0.736h-1.386v2.873c0,0.66,0.187,1.033,0.726,1.033c0.264,0,0.418-0.021,0.561-0.066
			l0.044,0.738c-0.187,0.064-0.484,0.131-0.858,0.131c-0.451,0-0.814-0.154-1.045-0.406c-0.264-0.297-0.374-0.77-0.374-1.398v-2.904
			h-0.825V11.67h0.825v-0.99L47.166,10.395z"/>
		<path d="M53.381,15.719c0,0.461,0.022,0.912,0.077,1.275h-0.869l-0.077-0.67h-0.033c-0.297,0.418-0.869,0.791-1.628,0.791
			c-1.078,0-1.628-0.758-1.628-1.529c0-1.287,1.144-1.99,3.201-1.98v-0.109c0-0.43-0.121-1.232-1.21-1.221
			c-0.506,0-1.023,0.143-1.397,0.396l-0.22-0.65c0.44-0.275,1.089-0.461,1.76-0.461c1.628,0,2.024,1.111,2.024,2.166V15.719z
			 M52.446,14.277c-1.056-0.021-2.255,0.164-2.255,1.199c0,0.639,0.418,0.924,0.902,0.924c0.704,0,1.155-0.439,1.309-0.891
			c0.033-0.111,0.044-0.221,0.044-0.309V14.277z"/>
		<path d="M61.015,15.719c0,0.461,0.022,0.912,0.077,1.275h-0.869l-0.077-0.67h-0.033c-0.297,0.418-0.869,0.791-1.628,0.791
			c-1.078,0-1.628-0.758-1.628-1.529c0-1.287,1.144-1.99,3.201-1.98v-0.109c0-0.43-0.121-1.232-1.21-1.221
			c-0.506,0-1.023,0.143-1.397,0.396l-0.22-0.65c0.44-0.275,1.089-0.461,1.76-0.461c1.628,0,2.024,1.111,2.024,2.166V15.719z
			 M60.08,14.277c-1.056-0.021-2.255,0.164-2.255,1.199c0,0.639,0.418,0.924,0.902,0.924c0.704,0,1.155-0.439,1.309-0.891
			c0.033-0.111,0.044-0.221,0.044-0.309V14.277z"/>
		<path d="M64.909,9.184h0.968v7.811h-0.968V9.184z"/>
		<path d="M71.245,15.719c0,0.461,0.022,0.912,0.077,1.275h-0.869l-0.077-0.67h-0.033c-0.297,0.418-0.869,0.791-1.628,0.791
			c-1.078,0-1.628-0.758-1.628-1.529c0-1.287,1.144-1.99,3.201-1.98v-0.109c0-0.43-0.121-1.232-1.21-1.221
			c-0.506,0-1.023,0.143-1.397,0.396l-0.22-0.65c0.44-0.275,1.089-0.461,1.76-0.461c1.628,0,2.024,1.111,2.024,2.166V15.719z
			 M70.31,14.277c-1.056-0.021-2.255,0.164-2.255,1.199c0,0.639,0.418,0.924,0.902,0.924c0.704,0,1.155-0.439,1.309-0.891
			c0.033-0.111,0.044-0.221,0.044-0.309V14.277z"/>
		<path d="M12.571,25.408c0-0.682-0.022-1.232-0.044-1.738h0.858l0.055,0.912h0.022c0.385-0.648,1.023-1.021,1.892-1.021
			c1.298,0,2.267,1.088,2.267,2.695c0,1.914-1.177,2.859-2.432,2.859c-0.704,0-1.32-0.309-1.639-0.836h-0.022v2.895h-0.957V25.408z
			 M13.528,26.828c0,0.143,0.011,0.273,0.044,0.395c0.176,0.672,0.759,1.135,1.452,1.135c1.023,0,1.617-0.838,1.617-2.059
			c0-1.057-0.561-1.969-1.584-1.969c-0.66,0-1.287,0.463-1.463,1.188c-0.033,0.121-0.066,0.264-0.066,0.385V26.828z"/>
		<path d="M19.369,26.508c0.022,1.311,0.847,1.85,1.826,1.85c0.693,0,1.122-0.121,1.474-0.275l0.176,0.693
			c-0.341,0.152-0.935,0.34-1.782,0.34c-1.64,0-2.619-1.088-2.619-2.695c0-1.605,0.946-2.859,2.498-2.859
			c1.749,0,2.2,1.518,2.2,2.496c0,0.199-0.011,0.342-0.033,0.451H19.369z M22.208,25.814c0.011-0.604-0.253-1.561-1.342-1.561
			c-0.99,0-1.408,0.891-1.485,1.561H22.208z"/>
		<path d="M24.341,25.332c0-0.629-0.011-1.168-0.044-1.662h0.847l0.044,1.057h0.033c0.242-0.715,0.836-1.166,1.485-1.166
			c0.099,0,0.176,0.01,0.264,0.021v0.912c-0.099-0.021-0.198-0.021-0.33-0.021c-0.682,0-1.167,0.506-1.298,1.232
			c-0.022,0.133-0.033,0.297-0.033,0.451v2.838h-0.968V25.332z"/>
		<path d="M27.806,28.016c0.297,0.176,0.803,0.373,1.288,0.373c0.693,0,1.023-0.34,1.023-0.791c0-0.463-0.275-0.705-0.979-0.969
			c-0.968-0.352-1.419-0.869-1.419-1.506c0-0.859,0.704-1.562,1.837-1.562c0.539,0,1.012,0.143,1.298,0.33l-0.231,0.703
			c-0.209-0.131-0.594-0.318-1.089-0.318c-0.572,0-0.88,0.33-0.88,0.727c0,0.439,0.308,0.637,1.001,0.912
			c0.913,0.342,1.397,0.803,1.397,1.596c0,0.945-0.737,1.605-1.98,1.605c-0.583,0-1.123-0.154-1.497-0.373L27.806,28.016z"/>
		<path d="M37.112,26.289c0,1.969-1.375,2.826-2.651,2.826c-1.43,0-2.552-1.057-2.552-2.738c0-1.771,1.177-2.816,2.641-2.816
			C36.079,23.561,37.112,24.672,37.112,26.289z M32.899,26.344c0,1.166,0.66,2.045,1.606,2.045c0.924,0,1.617-0.869,1.617-2.068
			c0-0.9-0.451-2.035-1.595-2.035C33.394,24.285,32.899,25.342,32.899,26.344z"/>
		<path d="M38.333,25.111c0-0.561-0.011-1.002-0.044-1.441h0.858l0.055,0.881h0.022c0.264-0.496,0.88-0.99,1.76-0.99
			c0.737,0,1.881,0.439,1.881,2.266v3.168h-0.968v-3.068c0-0.859-0.319-1.574-1.232-1.574c-0.627,0-1.122,0.451-1.298,0.99
			c-0.044,0.121-0.066,0.287-0.066,0.451v3.201h-0.968V25.111z"/>
		<path d="M48.178,27.719c0,0.461,0.022,0.912,0.077,1.275h-0.869l-0.077-0.67h-0.033c-0.297,0.418-0.869,0.791-1.628,0.791
			c-1.078,0-1.628-0.758-1.628-1.529c0-1.287,1.144-1.99,3.201-1.98v-0.109c0-0.43-0.121-1.232-1.21-1.221
			c-0.506,0-1.023,0.143-1.397,0.396l-0.22-0.65c0.44-0.275,1.089-0.461,1.76-0.461c1.628,0,2.024,1.111,2.024,2.166V27.719z
			 M47.243,26.277c-1.056-0.021-2.255,0.164-2.255,1.199c0,0.639,0.418,0.924,0.902,0.924c0.704,0,1.155-0.439,1.309-0.891
			c0.033-0.111,0.044-0.221,0.044-0.309V26.277z"/>
		<path d="M55.702,28.18H55.68c-0.297,0.518-0.88,0.936-1.738,0.936c-1.243,0-2.255-1.066-2.255-2.684
			c0-2.002,1.287-2.871,2.41-2.871c0.825,0,1.375,0.406,1.639,0.912h0.022l0.033-0.803h0.913c-0.022,0.439-0.044,0.912-0.044,1.463
			v6.041h-0.957V28.18z M55.702,25.826c0-0.133-0.011-0.275-0.044-0.396c-0.154-0.594-0.66-1.1-1.386-1.1
			c-1.001,0-1.606,0.848-1.606,2.035c0,1.066,0.506,1.98,1.573,1.98c0.627,0,1.167-0.385,1.386-1.045
			c0.044-0.143,0.077-0.33,0.077-0.473V25.826z"/>
		<path d="M62.72,27.531c0,0.561,0.011,1.045,0.044,1.463h-0.858l-0.055-0.869h-0.022c-0.242,0.43-0.814,0.99-1.76,0.99
			c-0.836,0-1.837-0.473-1.837-2.332V23.67H59.2v2.938c0,1.012,0.319,1.705,1.188,1.705c0.649,0,1.1-0.451,1.276-0.891
			c0.055-0.133,0.088-0.309,0.088-0.496V23.67h0.968V27.531z"/>
		<path d="M64.865,26.508c0.022,1.311,0.847,1.85,1.826,1.85c0.693,0,1.122-0.121,1.474-0.275l0.176,0.693
			c-0.341,0.152-0.935,0.34-1.782,0.34c-1.64,0-2.619-1.088-2.619-2.695c0-1.605,0.946-2.859,2.498-2.859
			c1.749,0,2.2,1.518,2.2,2.496c0,0.199-0.011,0.342-0.033,0.451H64.865z M67.703,25.814c0.011-0.604-0.253-1.561-1.342-1.561
			c-0.99,0-1.408,0.891-1.485,1.561H67.703z"/>
		<path d="M72.036,28.016c0.297,0.176,0.803,0.373,1.288,0.373c0.693,0,1.023-0.34,1.023-0.791c0-0.463-0.275-0.705-0.979-0.969
			c-0.968-0.352-1.419-0.869-1.419-1.506c0-0.859,0.704-1.562,1.837-1.562c0.539,0,1.012,0.143,1.298,0.33l-0.231,0.703
			c-0.209-0.131-0.594-0.318-1.089-0.318c-0.572,0-0.88,0.33-0.88,0.727c0,0.439,0.308,0.637,1.001,0.912
			c0.913,0.342,1.397,0.803,1.397,1.596c0,0.945-0.737,1.605-1.98,1.605c-0.583,0-1.123-0.154-1.497-0.373L72.036,28.016z"/>
		<path d="M77.063,26.508c0.022,1.311,0.847,1.85,1.826,1.85c0.693,0,1.122-0.121,1.474-0.275l0.176,0.693
			c-0.341,0.152-0.935,0.34-1.782,0.34c-1.64,0-2.619-1.088-2.619-2.695c0-1.605,0.946-2.859,2.498-2.859
			c1.749,0,2.2,1.518,2.2,2.496c0,0.199-0.011,0.342-0.033,0.451H77.063z M79.902,25.814c0.011-0.604-0.253-1.561-1.342-1.561
			c-0.99,0-1.408,0.891-1.485,1.561H79.902z"/>
		<path d="M7.666,37.332c0-0.629-0.011-1.168-0.044-1.662h0.847l0.044,1.057h0.033c0.242-0.715,0.836-1.166,1.485-1.166
			c0.099,0,0.176,0.01,0.264,0.021v0.912c-0.099-0.021-0.198-0.021-0.33-0.021c-0.682,0-1.166,0.506-1.298,1.232
			c-0.022,0.133-0.033,0.297-0.033,0.451v2.838H7.666V37.332z"/>
		<path d="M11.691,38.508c0.022,1.311,0.847,1.85,1.826,1.85c0.693,0,1.122-0.121,1.474-0.275l0.176,0.693
			c-0.341,0.152-0.935,0.34-1.782,0.34c-1.64,0-2.619-1.088-2.619-2.695c0-1.605,0.946-2.859,2.498-2.859
			c1.749,0,2.2,1.518,2.2,2.496c0,0.199-0.011,0.342-0.033,0.451H11.691z M14.53,37.814c0.011-0.604-0.253-1.561-1.342-1.561
			c-0.99,0-1.408,0.891-1.485,1.561H14.53z"/>
		<path d="M17.83,34.395v1.275h1.386v0.736H17.83v2.873c0,0.66,0.187,1.033,0.726,1.033c0.264,0,0.418-0.021,0.561-0.066
			l0.044,0.738c-0.187,0.064-0.484,0.131-0.858,0.131c-0.451,0-0.814-0.154-1.045-0.406c-0.264-0.297-0.374-0.77-0.374-1.398v-2.904
			h-0.825V35.67h0.825v-0.99L17.83,34.395z"/>
		<path d="M21.382,34.174c0,0.33-0.231,0.594-0.616,0.594c-0.352,0-0.583-0.264-0.583-0.594s0.242-0.605,0.605-0.605
			C21.14,33.568,21.382,33.832,21.382,34.174z M20.304,40.994V35.67h0.968v5.324H20.304z"/>
		<path d="M22.878,37.332c0-0.629-0.011-1.168-0.044-1.662h0.847l0.044,1.057h0.033c0.242-0.715,0.836-1.166,1.485-1.166
			c0.099,0,0.176,0.01,0.264,0.021v0.912c-0.099-0.021-0.198-0.021-0.33-0.021c-0.682,0-1.166,0.506-1.298,1.232
			c-0.022,0.133-0.033,0.297-0.033,0.451v2.838h-0.968V37.332z"/>
		<path d="M26.904,38.508c0.022,1.311,0.847,1.85,1.826,1.85c0.693,0,1.122-0.121,1.474-0.275l0.176,0.693
			c-0.341,0.152-0.935,0.34-1.782,0.34c-1.64,0-2.619-1.088-2.619-2.695c0-1.605,0.946-2.859,2.498-2.859
			c1.749,0,2.2,1.518,2.2,2.496c0,0.199-0.011,0.342-0.033,0.451H26.904z M29.743,37.814c0.011-0.604-0.253-1.561-1.342-1.561
			c-0.99,0-1.408,0.891-1.485,1.561H29.743z"/>
		<path d="M34.56,35.67l1.155,3.146c0.132,0.352,0.264,0.77,0.352,1.09h0.022c0.099-0.32,0.209-0.727,0.341-1.111l1.056-3.125h1.023
			l-1.453,3.795c-0.693,1.826-1.166,2.75-1.826,3.334c-0.484,0.406-0.946,0.572-1.188,0.615l-0.242-0.803
			c0.242-0.076,0.561-0.23,0.847-0.473c0.264-0.209,0.583-0.582,0.814-1.078c0.044-0.1,0.077-0.176,0.077-0.23
			s-0.022-0.133-0.077-0.254l-1.958-4.906H34.56z"/>
		<path d="M42.26,38.508c0.022,1.311,0.847,1.85,1.826,1.85c0.693,0,1.122-0.121,1.474-0.275l0.176,0.693
			c-0.341,0.152-0.935,0.34-1.782,0.34c-1.64,0-2.619-1.088-2.619-2.695c0-1.605,0.946-2.859,2.498-2.859
			c1.749,0,2.2,1.518,2.2,2.496c0,0.199-0.011,0.342-0.033,0.451H42.26z M45.099,37.814c0.011-0.604-0.253-1.561-1.342-1.561
			c-0.99,0-1.408,0.891-1.485,1.561H45.099z"/>
		<path d="M47.1,40.016c0.297,0.176,0.803,0.373,1.288,0.373c0.693,0,1.023-0.34,1.023-0.791c0-0.463-0.275-0.705-0.979-0.969
			c-0.968-0.352-1.419-0.869-1.419-1.506c0-0.859,0.704-1.562,1.837-1.562c0.539,0,1.012,0.143,1.298,0.33l-0.231,0.703
			c-0.209-0.131-0.594-0.318-1.089-0.318c-0.572,0-0.88,0.33-0.88,0.727c0,0.439,0.308,0.637,1.001,0.912
			c0.913,0.342,1.397,0.803,1.397,1.596c0,0.945-0.737,1.605-1.98,1.605c-0.583,0-1.123-0.154-1.497-0.373L47.1,40.016z"/>
		<path d="M51.588,37.408c0-0.682-0.022-1.232-0.044-1.738h0.858l0.055,0.912h0.022c0.385-0.648,1.023-1.021,1.892-1.021
			c1.298,0,2.267,1.088,2.267,2.695c0,1.914-1.177,2.859-2.432,2.859c-0.704,0-1.32-0.309-1.639-0.836h-0.022v2.895h-0.957V37.408z
			 M52.545,38.828c0,0.143,0.011,0.273,0.044,0.395c0.176,0.672,0.759,1.135,1.452,1.135c1.023,0,1.617-0.838,1.617-2.059
			c0-1.057-0.561-1.969-1.584-1.969c-0.66,0-1.287,0.463-1.463,1.188c-0.033,0.121-0.066,0.264-0.066,0.385V38.828z"/>
		<path d="M58.386,38.508c0.022,1.311,0.847,1.85,1.826,1.85c0.693,0,1.122-0.121,1.474-0.275l0.176,0.693
			c-0.341,0.152-0.935,0.34-1.782,0.34c-1.64,0-2.619-1.088-2.619-2.695c0-1.605,0.946-2.859,2.498-2.859
			c1.749,0,2.2,1.518,2.2,2.496c0,0.199-0.011,0.342-0.033,0.451H58.386z M61.224,37.814c0.011-0.604-0.253-1.561-1.342-1.561
			c-0.99,0-1.408,0.891-1.485,1.561H61.224z"/>
		<path d="M63.357,37.332c0-0.629-0.011-1.168-0.044-1.662h0.847l0.044,1.057h0.033c0.242-0.715,0.836-1.166,1.485-1.166
			c0.099,0,0.176,0.01,0.264,0.021v0.912c-0.099-0.021-0.198-0.021-0.33-0.021c-0.682,0-1.167,0.506-1.298,1.232
			c-0.022,0.133-0.033,0.297-0.033,0.451v2.838h-0.968V37.332z"/>
		<path d="M67.384,38.508c0.022,1.311,0.847,1.85,1.826,1.85c0.693,0,1.122-0.121,1.474-0.275l0.176,0.693
			c-0.341,0.152-0.935,0.34-1.782,0.34c-1.64,0-2.619-1.088-2.619-2.695c0-1.605,0.946-2.859,2.498-2.859
			c1.749,0,2.2,1.518,2.2,2.496c0,0.199-0.011,0.342-0.033,0.451H67.384z M70.222,37.814c0.011-0.604-0.253-1.561-1.342-1.561
			c-0.99,0-1.408,0.891-1.485,1.561H70.222z"/>
		<path d="M74.688,33.184h0.968v7.811h-0.968V33.184z"/>
		<path d="M81.023,39.719c0,0.461,0.022,0.912,0.077,1.275h-0.869l-0.077-0.67h-0.033c-0.297,0.418-0.869,0.791-1.628,0.791
			c-1.078,0-1.628-0.758-1.628-1.529c0-1.287,1.144-1.99,3.201-1.98v-0.109c0-0.43-0.121-1.232-1.21-1.221
			c-0.506,0-1.023,0.143-1.397,0.396l-0.22-0.65c0.44-0.275,1.089-0.461,1.76-0.461c1.628,0,2.024,1.111,2.024,2.166V39.719z
			 M80.088,38.277c-1.056-0.021-2.255,0.164-2.255,1.199c0,0.639,0.418,0.924,0.902,0.924c0.704,0,1.155-0.439,1.309-0.891
			c0.033-0.111,0.044-0.221,0.044-0.309V38.277z"/>
		<path d="M82.453,40.016c0.297,0.176,0.803,0.373,1.288,0.373c0.693,0,1.023-0.34,1.023-0.791c0-0.463-0.275-0.705-0.979-0.969
			c-0.968-0.352-1.419-0.869-1.419-1.506c0-0.859,0.704-1.562,1.837-1.562c0.539,0,1.012,0.143,1.298,0.33l-0.231,0.703
			c-0.209-0.131-0.594-0.318-1.089-0.318c-0.572,0-0.88,0.33-0.88,0.727c0,0.439,0.308,0.637,1.001,0.912
			c0.913,0.342,1.397,0.803,1.397,1.596c0,0.945-0.737,1.605-1.98,1.605c-0.583,0-1.123-0.154-1.497-0.373L82.453,40.016z"/>
		<path d="M13.012,52.807c-0.253,0.121-0.814,0.309-1.529,0.309c-1.606,0-2.651-1.088-2.651-2.717c0-1.639,1.122-2.838,2.86-2.838
			c0.572,0,1.078,0.143,1.342,0.285l-0.22,0.736c-0.231-0.119-0.594-0.252-1.122-0.252c-1.221,0-1.881,0.912-1.881,2.014
			c0,1.232,0.792,1.99,1.849,1.99c0.55,0,0.913-0.131,1.188-0.252L13.012,52.807z"/>
		<path d="M18.896,50.289c0,1.969-1.375,2.826-2.651,2.826c-1.43,0-2.552-1.057-2.552-2.738c0-1.771,1.177-2.816,2.641-2.816
			C17.863,47.561,18.896,48.672,18.896,50.289z M14.683,50.344c0,1.166,0.66,2.045,1.606,2.045c0.924,0,1.617-0.869,1.617-2.068
			c0-0.9-0.451-2.035-1.595-2.035C15.178,48.285,14.683,49.342,14.683,50.344z"/>
		<path d="M20.117,49.111c0-0.561-0.011-1.002-0.044-1.441h0.858l0.055,0.881h0.022c0.264-0.496,0.88-0.99,1.76-0.99
			c0.737,0,1.881,0.439,1.881,2.266v3.168h-0.968v-3.068c0-0.859-0.319-1.574-1.232-1.574c-0.627,0-1.122,0.451-1.298,0.99
			c-0.044,0.121-0.066,0.287-0.066,0.451v3.201h-0.968V49.111z"/>
		<path d="M30.018,52.807c-0.253,0.121-0.814,0.309-1.529,0.309c-1.606,0-2.651-1.088-2.651-2.717c0-1.639,1.122-2.838,2.86-2.838
			c0.572,0,1.078,0.143,1.342,0.285l-0.22,0.736c-0.231-0.119-0.594-0.252-1.122-0.252c-1.221,0-1.881,0.912-1.881,2.014
			c0,1.232,0.792,1.99,1.849,1.99c0.55,0,0.913-0.131,1.188-0.252L30.018,52.807z"/>
		<path d="M31.15,45.184h0.968v7.811H31.15V45.184z"/>
		<path d="M38.202,51.531c0,0.561,0.011,1.045,0.044,1.463h-0.858l-0.055-0.869h-0.022c-0.242,0.43-0.814,0.99-1.76,0.99
			c-0.836,0-1.837-0.473-1.837-2.332V47.67h0.968v2.938c0,1.012,0.319,1.705,1.188,1.705c0.649,0,1.1-0.451,1.276-0.891
			c0.055-0.133,0.088-0.309,0.088-0.496V47.67h0.968V51.531z"/>
		<path d="M39.675,52.016c0.297,0.176,0.803,0.373,1.288,0.373c0.693,0,1.023-0.34,1.023-0.791c0-0.463-0.275-0.705-0.979-0.969
			c-0.968-0.352-1.419-0.869-1.419-1.506c0-0.859,0.704-1.562,1.837-1.562c0.539,0,1.012,0.143,1.298,0.33l-0.231,0.703
			c-0.209-0.131-0.594-0.318-1.089-0.318c-0.572,0-0.88,0.33-0.88,0.727c0,0.439,0.308,0.637,1.001,0.912
			c0.913,0.342,1.397,0.803,1.397,1.596c0,0.945-0.737,1.605-1.98,1.605c-0.583,0-1.123-0.154-1.497-0.373L39.675,52.016z"/>
		<path d="M45.241,46.174c0,0.33-0.231,0.594-0.616,0.594c-0.352,0-0.583-0.264-0.583-0.594s0.242-0.605,0.605-0.605
			C44.999,45.568,45.241,45.832,45.241,46.174z M44.163,52.994V47.67h0.968v5.324H44.163z"/>
		<path d="M51.555,50.289c0,1.969-1.375,2.826-2.651,2.826c-1.43,0-2.552-1.057-2.552-2.738c0-1.771,1.177-2.816,2.641-2.816
			C50.521,47.561,51.555,48.672,51.555,50.289z M47.342,50.344c0,1.166,0.66,2.045,1.606,2.045c0.924,0,1.617-0.869,1.617-2.068
			c0-0.9-0.451-2.035-1.595-2.035C47.837,48.285,47.342,49.342,47.342,50.344z"/>
		<path d="M52.776,49.111c0-0.561-0.011-1.002-0.044-1.441h0.858l0.055,0.881h0.022c0.264-0.496,0.88-0.99,1.76-0.99
			c0.737,0,1.881,0.439,1.881,2.266v3.168H56.34v-3.068c0-0.859-0.319-1.574-1.232-1.574c-0.627,0-1.122,0.451-1.298,0.99
			c-0.044,0.121-0.066,0.287-0.066,0.451v3.201h-0.968V49.111z"/>
		<path d="M59.42,50.508c0.022,1.311,0.847,1.85,1.826,1.85c0.693,0,1.122-0.121,1.474-0.275l0.176,0.693
			c-0.341,0.152-0.935,0.34-1.782,0.34c-1.64,0-2.619-1.088-2.619-2.695c0-1.605,0.946-2.859,2.498-2.859
			c1.749,0,2.2,1.518,2.2,2.496c0,0.199-0.011,0.342-0.033,0.451H59.42z M62.258,49.814c0.011-0.604-0.253-1.561-1.342-1.561
			c-0.99,0-1.408,0.891-1.485,1.561H62.258z"/>
		<path d="M64.259,52.016c0.297,0.176,0.803,0.373,1.288,0.373c0.693,0,1.023-0.34,1.023-0.791c0-0.463-0.275-0.705-0.979-0.969
			c-0.968-0.352-1.419-0.869-1.419-1.506c0-0.859,0.704-1.562,1.837-1.562c0.539,0,1.012,0.143,1.298,0.33l-0.231,0.703
			c-0.209-0.131-0.594-0.318-1.089-0.318c-0.572,0-0.88,0.33-0.88,0.727c0,0.439,0.308,0.637,1.001,0.912
			c0.913,0.342,1.397,0.803,1.397,1.596c0,0.945-0.737,1.605-1.98,1.605c-0.583,0-1.122-0.154-1.496-0.373L64.259,52.016z"/>
		<path d="M75.667,45.184v6.436c0,0.473,0.022,1.012,0.044,1.375h-0.858l-0.044-0.924h-0.033c-0.286,0.594-0.924,1.045-1.793,1.045
			c-1.287,0-2.289-1.088-2.289-2.705c-0.011-1.771,1.1-2.85,2.387-2.85c0.825,0,1.364,0.385,1.606,0.803h0.022v-3.18H75.667z
			 M74.71,49.838c0-0.121-0.011-0.287-0.044-0.408c-0.143-0.605-0.671-1.111-1.397-1.111c-1.001,0-1.595,0.881-1.595,2.047
			c0,1.078,0.54,1.969,1.573,1.969c0.649,0,1.243-0.439,1.419-1.154c0.033-0.133,0.044-0.264,0.044-0.418V49.838z"/>
		<path d="M77.823,50.508c0.022,1.311,0.847,1.85,1.826,1.85c0.693,0,1.122-0.121,1.474-0.275l0.176,0.693
			c-0.341,0.152-0.935,0.34-1.782,0.34c-1.64,0-2.619-1.088-2.619-2.695c0-1.605,0.946-2.859,2.498-2.859
			c1.749,0,2.2,1.518,2.2,2.496c0,0.199-0.011,0.342-0.033,0.451H77.823z M80.661,49.814c0.011-0.604-0.253-1.561-1.342-1.561
			c-0.99,0-1.408,0.891-1.485,1.561H80.661z"/>
		<path d="M82.794,45.184h0.968v7.811h-0.968V45.184z"/>
		<path d="M29.027,61.408c0-0.682-0.022-1.232-0.044-1.738h0.858l0.055,0.912h0.022c0.385-0.648,1.023-1.021,1.892-1.021
			c1.298,0,2.267,1.088,2.267,2.695c0,1.914-1.177,2.859-2.432,2.859c-0.704,0-1.32-0.309-1.639-0.836h-0.022v2.895h-0.957V61.408z
			 M29.984,62.828c0,0.143,0.011,0.273,0.044,0.395c0.176,0.672,0.759,1.135,1.452,1.135c1.023,0,1.617-0.838,1.617-2.059
			c0-1.057-0.561-1.969-1.584-1.969c-0.66,0-1.287,0.463-1.463,1.188c-0.033,0.121-0.066,0.264-0.066,0.385V62.828z"/>
		<path d="M35.286,61.332c0-0.629-0.011-1.168-0.044-1.662h0.847l0.044,1.057h0.033c0.242-0.715,0.836-1.166,1.485-1.166
			c0.099,0,0.176,0.01,0.264,0.021v0.912c-0.099-0.021-0.198-0.021-0.33-0.021c-0.682,0-1.166,0.506-1.298,1.232
			c-0.022,0.133-0.033,0.297-0.033,0.451v2.838h-0.968V61.332z"/>
		<path d="M43.591,62.289c0,1.969-1.375,2.826-2.651,2.826c-1.43,0-2.552-1.057-2.552-2.738c0-1.771,1.177-2.816,2.641-2.816
			C42.558,59.561,43.591,60.672,43.591,62.289z M39.378,62.344c0,1.166,0.66,2.045,1.606,2.045c0.924,0,1.617-0.869,1.617-2.068
			c0-0.9-0.451-2.035-1.595-2.035C39.873,60.285,39.378,61.342,39.378,62.344z"/>
		<path d="M48.607,64.807c-0.253,0.121-0.814,0.309-1.529,0.309c-1.606,0-2.651-1.088-2.651-2.717c0-1.639,1.122-2.838,2.86-2.838
			c0.572,0,1.078,0.143,1.342,0.285l-0.22,0.736c-0.231-0.119-0.594-0.252-1.123-0.252c-1.221,0-1.881,0.912-1.881,2.014
			c0,1.232,0.792,1.99,1.849,1.99c0.55,0,0.913-0.131,1.188-0.252L48.607,64.807z"/>
		<path d="M50.213,62.508c0.022,1.311,0.847,1.85,1.826,1.85c0.693,0,1.122-0.121,1.474-0.275l0.176,0.693
			c-0.341,0.152-0.935,0.34-1.782,0.34c-1.64,0-2.619-1.088-2.619-2.695c0-1.605,0.946-2.859,2.498-2.859
			c1.749,0,2.2,1.518,2.2,2.496c0,0.199-0.011,0.342-0.033,0.451H50.213z M53.051,61.814c0.011-0.604-0.253-1.561-1.342-1.561
			c-0.99,0-1.408,0.891-1.485,1.561H53.051z"/>
		<path d="M55.052,64.016c0.297,0.176,0.803,0.373,1.288,0.373c0.693,0,1.023-0.34,1.023-0.791c0-0.463-0.275-0.705-0.979-0.969
			c-0.968-0.352-1.419-0.869-1.419-1.506c0-0.859,0.704-1.562,1.837-1.562c0.539,0,1.012,0.143,1.298,0.33l-0.231,0.703
			c-0.209-0.131-0.594-0.318-1.089-0.318c-0.572,0-0.88,0.33-0.88,0.727c0,0.439,0.308,0.637,1.001,0.912
			c0.913,0.342,1.397,0.803,1.397,1.596c0,0.945-0.737,1.605-1.98,1.605c-0.583,0-1.122-0.154-1.496-0.373L55.052,64.016z"/>
		<path d="M64.359,62.289c0,1.969-1.375,2.826-2.651,2.826c-1.43,0-2.552-1.057-2.552-2.738c0-1.771,1.177-2.816,2.641-2.816
			C63.325,59.561,64.359,60.672,64.359,62.289z M60.146,62.344c0,1.166,0.66,2.045,1.606,2.045c0.924,0,1.617-0.869,1.617-2.068
			c0-0.9-0.451-2.035-1.595-2.035C60.641,60.285,60.146,61.342,60.146,62.344z"/>
	</g>
</g>
</svg>
