<?xml version="1.0" encoding="utf-8"?>
<!-- Generator: Adobe Illustrator 16.0.0, SVG Export Plug-In . SVG Version: 6.00 Build 0)  -->
<!DOCTYPE svg PUBLIC "-//W3C//DTD SVG 1.1//EN" "http://www.w3.org/Graphics/SVG/1.1/DTD/svg11.dtd">
<svg version="1.1" id="Capa_1" xmlns="http://www.w3.org/2000/svg" xmlns:xlink="http://www.w3.org/1999/xlink" x="0px" y="0px"
	 width="97.833px" height="65.82px" viewBox="0 0 97.833 65.82" enable-background="new 0 0 97.833 65.82" xml:space="preserve">
<g>
	<g opacity="0.5">
		<polygon fill="#FFFFFF" points="94.297,32.305 49.214,63.41 3.63,33.514 50.423,2.41 		"/>
		<g>
			<polyline fill="none" stroke="#DFA130" stroke-width="4" stroke-miterlimit="10" points="92.657,31.188 94.297,32.305 
				92.664,33.432 			"/>
			
				<line fill="none" stroke="#DFA130" stroke-width="4" stroke-miterlimit="10" stroke-dasharray="3.9082,3.9078" x1="89.447" y1="35.65" x2="52.456" y2="61.174"/>
			<polyline fill="none" stroke="#DFA130" stroke-width="4" stroke-miterlimit="10" points="50.847,62.283 49.214,63.41 
				47.556,62.322 			"/>
			
				<line fill="none" stroke="#DFA130" stroke-width="4" stroke-miterlimit="10" stroke-dasharray="3.8883,3.8879" x1="44.304" y1="60.189" x2="6.915" y2="35.668"/>
			<polyline fill="none" stroke="#DFA130" stroke-width="4" stroke-miterlimit="10" points="5.29,34.602 3.63,33.514 5.282,32.414 
							"/>
			
				<line fill="none" stroke="#DFA130" stroke-width="4" stroke-miterlimit="10" stroke-dasharray="4.0171,4.0166" x1="8.628" y1="30.191" x2="47.099" y2="4.619"/>
			<polyline fill="none" stroke="#DFA130" stroke-width="4" stroke-miterlimit="10" points="48.771,3.508 50.423,2.41 52.062,3.527 
							"/>
			
				<line fill="none" stroke="#DFA130" stroke-width="4" stroke-miterlimit="10" stroke-dasharray="3.7789,3.7785" x1="55.185" y1="5.654" x2="91.097" y2="30.125"/>
		</g>
	</g>
	<g>
		<path d="M27.578,18.736h0.865v5.904h2.83v0.719h-3.695V18.736z"/>
		<path d="M35.538,24.219c0,0.412,0.02,0.816,0.068,1.141h-0.776l-0.069-0.6h-0.03c-0.265,0.373-0.776,0.707-1.454,0.707
			c-0.963,0-1.455-0.678-1.455-1.365c0-1.15,1.022-1.779,2.86-1.77v-0.098c0-0.383-0.108-1.102-1.081-1.092
			c-0.452,0-0.914,0.129-1.248,0.354l-0.196-0.578c0.393-0.246,0.973-0.414,1.572-0.414c1.454,0,1.808,0.992,1.808,1.936V24.219z
			 M34.703,22.932c-0.943-0.02-2.015,0.148-2.015,1.07c0,0.57,0.374,0.826,0.806,0.826c0.629,0,1.032-0.393,1.169-0.795
			c0.03-0.1,0.04-0.197,0.04-0.275V22.932z"/>
		<path d="M39.016,22.156c0-0.609-0.02-1.102-0.039-1.553h0.766l0.049,0.814h0.02c0.344-0.58,0.914-0.914,1.69-0.914
			c1.16,0,2.024,0.973,2.024,2.408c0,1.709-1.051,2.555-2.171,2.555c-0.629,0-1.179-0.275-1.464-0.746h-0.02v2.584h-0.855V22.156z
			 M39.871,23.424c0,0.127,0.01,0.244,0.039,0.354c0.157,0.6,0.678,1.012,1.297,1.012c0.914,0,1.444-0.746,1.444-1.838
			c0-0.943-0.501-1.758-1.415-1.758c-0.589,0-1.149,0.412-1.307,1.061c-0.03,0.107-0.059,0.236-0.059,0.344V23.424z"/>
		<path d="M45.089,23.139c0.02,1.168,0.757,1.65,1.631,1.65c0.619,0,1.002-0.107,1.317-0.246l0.157,0.619
			c-0.305,0.139-0.835,0.305-1.592,0.305c-1.464,0-2.339-0.973-2.339-2.408c0-1.434,0.845-2.555,2.23-2.555
			c1.562,0,1.965,1.357,1.965,2.23c0,0.178-0.01,0.305-0.029,0.404H45.089z M47.624,22.52c0.01-0.541-0.226-1.396-1.199-1.396
			c-0.884,0-1.258,0.797-1.327,1.396H47.624z"/>
		<path d="M49.53,22.086c0-0.559-0.01-1.041-0.039-1.482h0.756l0.04,0.943h0.029c0.216-0.639,0.747-1.043,1.327-1.043
			c0.088,0,0.157,0.01,0.236,0.02v0.816c-0.088-0.02-0.177-0.02-0.295-0.02c-0.609,0-1.042,0.451-1.159,1.1
			c-0.02,0.119-0.03,0.266-0.03,0.404v2.535H49.53V22.086z"/>
		<path d="M52.626,24.484c0.265,0.156,0.717,0.334,1.149,0.334c0.619,0,0.914-0.305,0.914-0.707c0-0.414-0.246-0.629-0.875-0.865
			c-0.865-0.314-1.268-0.775-1.268-1.346c0-0.768,0.629-1.396,1.641-1.396c0.481,0,0.904,0.129,1.159,0.295l-0.206,0.629
			c-0.187-0.117-0.531-0.285-0.973-0.285c-0.511,0-0.786,0.295-0.786,0.648c0,0.395,0.275,0.57,0.895,0.816
			c0.815,0.305,1.248,0.717,1.248,1.426c0,0.844-0.658,1.434-1.769,1.434c-0.521,0-1.002-0.137-1.336-0.334L52.626,24.484z"/>
		<path d="M60.939,22.941c0,1.76-1.229,2.525-2.368,2.525c-1.278,0-2.28-0.943-2.28-2.447c0-1.582,1.051-2.516,2.358-2.516
			C60.015,20.504,60.939,21.496,60.939,22.941z M57.175,22.99c0,1.043,0.589,1.828,1.435,1.828c0.826,0,1.445-0.775,1.445-1.848
			c0-0.805-0.403-1.818-1.425-1.818C57.618,21.152,57.175,22.096,57.175,22.99z"/>
		<path d="M62.03,21.891c0-0.502-0.01-0.895-0.039-1.287h0.766l0.049,0.785h0.02c0.236-0.441,0.786-0.885,1.572-0.885
			c0.659,0,1.681,0.395,1.681,2.025v2.83h-0.865v-2.742c0-0.766-0.285-1.404-1.101-1.404c-0.561,0-1.002,0.402-1.16,0.883
			c-0.04,0.109-0.059,0.256-0.059,0.404v2.859H62.03V21.891z"/>
		<path d="M70.825,24.219c0,0.412,0.02,0.816,0.069,1.141h-0.776l-0.069-0.6h-0.03c-0.265,0.373-0.776,0.707-1.454,0.707
			c-0.963,0-1.455-0.678-1.455-1.365c0-1.15,1.022-1.779,2.86-1.77v-0.098c0-0.383-0.108-1.102-1.081-1.092
			c-0.452,0-0.914,0.129-1.248,0.354l-0.196-0.578c0.393-0.246,0.973-0.414,1.572-0.414c1.454,0,1.808,0.992,1.808,1.936V24.219z
			 M69.989,22.932c-0.943-0.02-2.015,0.148-2.015,1.07c0,0.57,0.374,0.826,0.806,0.826c0.629,0,1.032-0.393,1.169-0.795
			c0.029-0.1,0.039-0.197,0.039-0.275V22.932z"/>
		<path d="M33.735,34.939c0,0.412,0.02,0.814,0.069,1.139h-0.776l-0.069-0.6h-0.03c-0.265,0.375-0.776,0.709-1.454,0.709
			c-0.963,0-1.455-0.68-1.455-1.367c0-1.148,1.022-1.777,2.86-1.768v-0.1c0-0.383-0.108-1.1-1.081-1.09
			c-0.452,0-0.914,0.127-1.248,0.354l-0.196-0.58c0.393-0.246,0.973-0.412,1.572-0.412c1.454,0,1.808,0.992,1.808,1.936V34.939z
			 M32.899,33.652c-0.943-0.021-2.015,0.146-2.015,1.07c0,0.57,0.374,0.826,0.806,0.826c0.629,0,1.032-0.395,1.169-0.797
			c0.029-0.098,0.039-0.197,0.039-0.275V33.652z"/>
		<path d="M38.52,35.912c-0.226,0.107-0.727,0.275-1.366,0.275c-1.435,0-2.368-0.973-2.368-2.428c0-1.465,1.002-2.535,2.555-2.535
			c0.511,0,0.963,0.127,1.199,0.256l-0.197,0.658c-0.207-0.109-0.531-0.227-1.002-0.227c-1.091,0-1.68,0.816-1.68,1.799
			c0,1.1,0.708,1.777,1.651,1.777c0.491,0,0.815-0.117,1.061-0.225L38.52,35.912z"/>
		<path d="M39.955,33.857c0.02,1.17,0.757,1.65,1.631,1.65c0.619,0,1.002-0.107,1.317-0.244l0.157,0.619
			c-0.305,0.137-0.835,0.305-1.592,0.305c-1.464,0-2.338-0.973-2.338-2.408s0.845-2.555,2.23-2.555c1.562,0,1.965,1.355,1.965,2.23
			c0,0.176-0.01,0.305-0.029,0.402H39.955z M42.49,33.238c0.01-0.539-0.226-1.395-1.199-1.395c-0.884,0-1.258,0.795-1.327,1.395
			H42.49z"/>
		<path d="M44.396,32.875c0-0.609-0.02-1.1-0.039-1.553h0.766l0.049,0.816h0.02c0.344-0.58,0.914-0.914,1.69-0.914
			c1.159,0,2.024,0.973,2.024,2.406c0,1.711-1.052,2.557-2.172,2.557c-0.629,0-1.179-0.275-1.464-0.748h-0.02v2.584h-0.855V32.875z
			 M45.251,34.143c0,0.129,0.01,0.246,0.04,0.354c0.157,0.6,0.678,1.012,1.297,1.012c0.914,0,1.444-0.746,1.444-1.836
			c0-0.943-0.501-1.76-1.415-1.76c-0.589,0-1.149,0.412-1.307,1.061c-0.03,0.109-0.059,0.236-0.059,0.344V34.143z"/>
		<path d="M51.029,30.184v1.139h1.238v0.658h-1.238v2.564c0,0.59,0.167,0.924,0.649,0.924c0.236,0,0.373-0.02,0.501-0.059
			l0.039,0.658c-0.167,0.059-0.432,0.119-0.766,0.119c-0.403,0-0.727-0.139-0.934-0.365c-0.236-0.264-0.334-0.688-0.334-1.248V31.98
			h-0.737v-0.658h0.737v-0.885L51.029,30.184z"/>
		<path d="M56.582,34.939c0,0.412,0.02,0.814,0.069,1.139h-0.776l-0.069-0.6h-0.03c-0.265,0.375-0.776,0.709-1.454,0.709
			c-0.963,0-1.455-0.68-1.455-1.367c0-1.148,1.022-1.777,2.86-1.768v-0.1c0-0.383-0.108-1.1-1.081-1.09
			c-0.452,0-0.914,0.127-1.248,0.354l-0.196-0.58c0.393-0.246,0.973-0.412,1.572-0.412c1.454,0,1.808,0.992,1.808,1.936V34.939z
			 M55.746,33.652c-0.943-0.021-2.015,0.146-2.015,1.07c0,0.57,0.374,0.826,0.806,0.826c0.629,0,1.032-0.395,1.169-0.797
			c0.029-0.098,0.039-0.197,0.039-0.275V33.652z"/>
		<path d="M60.541,33.857c0.02,1.17,0.757,1.65,1.631,1.65c0.619,0,1.002-0.107,1.317-0.244l0.157,0.619
			c-0.305,0.137-0.835,0.305-1.592,0.305c-1.464,0-2.339-0.973-2.339-2.408s0.845-2.555,2.23-2.555c1.562,0,1.965,1.355,1.965,2.23
			c0,0.176-0.01,0.305-0.029,0.402H60.541z M63.076,33.238c0.01-0.539-0.226-1.395-1.199-1.395c-0.884,0-1.258,0.795-1.327,1.395
			H63.076z"/>
		<path d="M64.982,29.102h0.865v6.977h-0.865V29.102z"/>
		<path d="M30.595,43.525c0-0.559-0.01-1.041-0.039-1.482h0.756l0.04,0.943h0.029c0.216-0.639,0.747-1.043,1.327-1.043
			c0.088,0,0.157,0.01,0.236,0.02v0.816c-0.088-0.02-0.177-0.02-0.295-0.02c-0.609,0-1.042,0.451-1.159,1.1
			c-0.02,0.119-0.03,0.266-0.03,0.404v2.535h-0.865V43.525z"/>
		<path d="M34.191,44.578c0.02,1.168,0.757,1.65,1.631,1.65c0.619,0,1.002-0.107,1.317-0.246l0.157,0.619
			c-0.305,0.139-0.835,0.305-1.592,0.305c-1.464,0-2.339-0.973-2.339-2.408c0-1.434,0.845-2.555,2.23-2.555
			c1.562,0,1.965,1.357,1.965,2.23c0,0.178-0.01,0.305-0.029,0.404H34.191z M36.727,43.959c0.01-0.541-0.226-1.396-1.199-1.396
			c-0.884,0-1.258,0.797-1.327,1.396H36.727z"/>
		<path d="M38.515,45.924c0.265,0.156,0.717,0.334,1.149,0.334c0.619,0,0.914-0.305,0.914-0.707c0-0.414-0.246-0.629-0.875-0.865
			c-0.865-0.314-1.268-0.775-1.268-1.346c0-0.768,0.629-1.396,1.641-1.396c0.482,0,0.904,0.129,1.16,0.295l-0.206,0.629
			c-0.187-0.117-0.531-0.285-0.973-0.285c-0.511,0-0.786,0.295-0.786,0.648c0,0.395,0.275,0.57,0.895,0.816
			c0.815,0.305,1.248,0.717,1.248,1.426c0,0.844-0.659,1.434-1.769,1.434c-0.521,0-1.002-0.137-1.336-0.334L38.515,45.924z"/>
		<path d="M46.504,45.492c0,0.5,0.01,0.934,0.039,1.307h-0.767l-0.049-0.777h-0.02c-0.216,0.385-0.728,0.885-1.572,0.885
			c-0.747,0-1.641-0.422-1.641-2.084v-2.779h0.865v2.623c0,0.904,0.285,1.523,1.061,1.523c0.58,0,0.983-0.402,1.14-0.797
			c0.049-0.117,0.079-0.275,0.079-0.441v-2.908h0.865V45.492z"/>
		<path d="M47.938,39.822h0.865v6.977h-0.865V39.822z"/>
		<path d="M51.299,40.902v1.141h1.238v0.658h-1.238v2.564c0,0.59,0.167,0.924,0.649,0.924c0.236,0,0.373-0.02,0.501-0.059
			l0.04,0.658c-0.167,0.059-0.433,0.117-0.767,0.117c-0.403,0-0.728-0.137-0.934-0.363c-0.236-0.266-0.334-0.688-0.334-1.248v-2.594
			h-0.737v-0.658h0.737v-0.885L51.299,40.902z"/>
		<path d="M56.852,45.658c0,0.412,0.02,0.816,0.068,1.141h-0.776l-0.069-0.6h-0.03c-0.265,0.373-0.776,0.707-1.454,0.707
			c-0.963,0-1.455-0.678-1.455-1.365c0-1.15,1.022-1.779,2.86-1.77v-0.098c0-0.383-0.108-1.102-1.081-1.092
			c-0.452,0-0.914,0.129-1.248,0.354l-0.196-0.578c0.393-0.246,0.973-0.414,1.572-0.414c1.454,0,1.808,0.992,1.808,1.936V45.658z
			 M56.016,44.371c-0.943-0.02-2.015,0.148-2.015,1.07c0,0.57,0.374,0.826,0.806,0.826c0.629,0,1.032-0.393,1.169-0.795
			c0.03-0.1,0.04-0.197,0.04-0.275V44.371z"/>
		<path d="M62.344,39.822v5.748c0,0.422,0.02,0.904,0.04,1.229h-0.767l-0.039-0.826h-0.03c-0.255,0.531-0.825,0.934-1.602,0.934
			c-1.15,0-2.044-0.973-2.044-2.418c-0.01-1.582,0.982-2.545,2.132-2.545c0.737,0,1.218,0.344,1.435,0.719h0.02v-2.84H62.344z
			 M61.489,43.979c0-0.109-0.01-0.256-0.039-0.363c-0.128-0.541-0.6-0.994-1.248-0.994c-0.894,0-1.425,0.787-1.425,1.828
			c0,0.963,0.481,1.76,1.405,1.76c0.58,0,1.11-0.393,1.268-1.031c0.029-0.119,0.039-0.236,0.039-0.375V43.979z"/>
		<path d="M68.093,44.381c0,1.76-1.229,2.525-2.368,2.525c-1.277,0-2.28-0.943-2.28-2.447c0-1.582,1.051-2.516,2.358-2.516
			C67.169,41.943,68.093,42.936,68.093,44.381z M64.329,44.43c0,1.043,0.59,1.828,1.435,1.828c0.826,0,1.445-0.775,1.445-1.848
			c0-0.805-0.403-1.818-1.425-1.818C64.771,42.592,64.329,43.535,64.329,44.43z"/>
	</g>
</g>
</svg>
