<?xml version="1.0" encoding="utf-8"?>
<!-- Generator: Adobe Illustrator 16.0.0, SVG Export Plug-In . SVG Version: 6.00 Build 0)  -->
<!DOCTYPE svg PUBLIC "-//W3C//DTD SVG 1.1//EN" "http://www.w3.org/Graphics/SVG/1.1/DTD/svg11.dtd">
<svg version="1.1" id="Capa_1" xmlns="http://www.w3.org/2000/svg" xmlns:xlink="http://www.w3.org/1999/xlink" x="0px" y="0px"
	 width="93.333px" height="72.354px" viewBox="0 0 93.333 72.354" enable-background="new 0 0 93.333 72.354" xml:space="preserve">
<g>
	<g opacity="0.5">
		<polygon fill="#FFFFFF" points="91.333,70.354 2,70.354 2,17.02 91.333,2.354 		"/>
		<g>
			<polyline fill="none" stroke="#DFA130" stroke-width="4" stroke-miterlimit="10" points="91.333,68.369 91.333,70.354 
				89.349,70.354 			"/>
			
				<line fill="none" stroke="#DFA130" stroke-width="4" stroke-miterlimit="10" stroke-dasharray="4.0652,4.0648" x1="85.284" y1="70.354" x2="6.017" y2="70.354"/>
			<polyline fill="none" stroke="#DFA130" stroke-width="4" stroke-miterlimit="10" points="3.984,70.354 2,70.354 2,68.369 			"/>
			
				<line fill="none" stroke="#DFA130" stroke-width="4" stroke-miterlimit="10" stroke-dasharray="3.7975,3.7971" x1="2" y1="64.572" x2="2" y2="20.902"/>
			<polyline fill="none" stroke="#DFA130" stroke-width="4" stroke-miterlimit="10" points="2,19.004 2,17.02 3.958,16.699 			"/>
			
				<line fill="none" stroke="#DFA130" stroke-width="4" stroke-miterlimit="10" stroke-dasharray="4.1222,4.1217" x1="8.025" y1="16.031" x2="87.342" y2="3.008"/>
			<polyline fill="none" stroke="#DFA130" stroke-width="4" stroke-miterlimit="10" points="89.375,2.674 91.333,2.354 
				91.333,4.338 			"/>
			
				<line fill="none" stroke="#DFA130" stroke-width="4" stroke-miterlimit="10" stroke-dasharray="3.7668,3.7664" x1="91.333" y1="8.104" x2="91.333" y2="66.486"/>
		</g>
	</g>
	<g>
		<path d="M11.091,37.016c-0.429,0.164-1.287,0.406-2.288,0.406c-1.122,0-2.046-0.285-2.772-0.979
			c-0.638-0.617-1.034-1.607-1.034-2.762c0-2.211,1.529-3.828,4.016-3.828c0.858,0,1.54,0.188,1.859,0.34l-0.242,0.781
			c-0.396-0.186-0.891-0.318-1.639-0.318c-1.804,0-2.981,1.123-2.981,2.98c0,1.883,1.122,2.994,2.86,2.994
			c0.627,0,1.056-0.088,1.276-0.199v-2.211H8.649v-0.77h2.442V37.016z"/>
		<path d="M13.104,34.859c0.022,1.309,0.847,1.848,1.826,1.848c0.693,0,1.122-0.121,1.474-0.275l0.176,0.693
			c-0.341,0.154-0.935,0.342-1.782,0.342c-1.64,0-2.619-1.09-2.619-2.695c0-1.607,0.946-2.861,2.498-2.861
			c1.749,0,2.2,1.518,2.2,2.498c0,0.197-0.011,0.34-0.033,0.451H13.104z M15.942,34.166c0.011-0.605-0.253-1.562-1.342-1.562
			c-0.99,0-1.408,0.891-1.485,1.562H15.942z"/>
		<path d="M18.076,33.461c0-0.561-0.011-1-0.044-1.441h0.858l0.055,0.881h0.022c0.264-0.494,0.88-0.99,1.76-0.99
			c0.737,0,1.881,0.439,1.881,2.266v3.17H21.64v-3.07c0-0.857-0.319-1.572-1.232-1.572c-0.627,0-1.122,0.451-1.298,0.99
			c-0.044,0.121-0.066,0.285-0.066,0.451v3.201h-0.968V33.461z"/>
		<path d="M24.72,34.859c0.022,1.309,0.847,1.848,1.826,1.848c0.693,0,1.122-0.121,1.474-0.275l0.176,0.693
			c-0.341,0.154-0.935,0.342-1.782,0.342c-1.64,0-2.619-1.09-2.619-2.695c0-1.607,0.946-2.861,2.498-2.861
			c1.749,0,2.2,1.518,2.2,2.498c0,0.197-0.011,0.34-0.033,0.451H24.72z M27.558,34.166c0.011-0.605-0.253-1.562-1.342-1.562
			c-0.99,0-1.408,0.891-1.485,1.562H27.558z"/>
		<path d="M29.691,33.682c0-0.627-0.011-1.166-0.044-1.662h0.847l0.044,1.057h0.033c0.242-0.715,0.836-1.166,1.485-1.166
			c0.099,0,0.176,0.012,0.264,0.021v0.914c-0.099-0.021-0.198-0.021-0.33-0.021c-0.682,0-1.166,0.506-1.298,1.232
			c-0.022,0.131-0.033,0.297-0.033,0.449v2.84h-0.968V33.682z"/>
		<path d="M36.974,36.068c0,0.463,0.022,0.914,0.077,1.277h-0.869l-0.077-0.672h-0.033c-0.297,0.418-0.869,0.793-1.628,0.793
			c-1.078,0-1.628-0.76-1.628-1.529c0-1.287,1.144-1.992,3.201-1.98v-0.109c0-0.43-0.121-1.232-1.21-1.223
			c-0.506,0-1.023,0.143-1.397,0.396l-0.22-0.648c0.44-0.275,1.089-0.463,1.76-0.463c1.628,0,2.024,1.111,2.024,2.168V36.068z
			 M36.039,34.627c-1.056-0.021-2.255,0.166-2.255,1.199c0,0.639,0.418,0.926,0.902,0.926c0.704,0,1.155-0.441,1.309-0.893
			c0.033-0.109,0.044-0.219,0.044-0.307V34.627z"/>
		<path d="M44.663,37.158c-0.253,0.121-0.814,0.309-1.529,0.309c-1.606,0-2.651-1.09-2.651-2.719c0-1.639,1.122-2.838,2.86-2.838
			c0.572,0,1.078,0.143,1.342,0.287l-0.22,0.736c-0.231-0.121-0.594-0.254-1.122-0.254c-1.221,0-1.881,0.914-1.881,2.014
			c0,1.232,0.792,1.992,1.849,1.992c0.55,0,0.913-0.133,1.188-0.254L44.663,37.158z"/>
		<path d="M46.269,34.859c0.022,1.309,0.847,1.848,1.826,1.848c0.693,0,1.122-0.121,1.474-0.275l0.176,0.693
			c-0.341,0.154-0.935,0.342-1.782,0.342c-1.64,0-2.619-1.09-2.619-2.695c0-1.607,0.946-2.861,2.498-2.861
			c1.749,0,2.2,1.518,2.2,2.498c0,0.197-0.011,0.34-0.033,0.451H46.269z M49.107,34.166c0.011-0.605-0.253-1.562-1.342-1.562
			c-0.99,0-1.408,0.891-1.485,1.562H49.107z"/>
		<path d="M51.24,33.682c0-0.627-0.011-1.166-0.044-1.662h0.847l0.044,1.057h0.033c0.242-0.715,0.836-1.166,1.485-1.166
			c0.099,0,0.176,0.012,0.264,0.021v0.914c-0.099-0.021-0.198-0.021-0.33-0.021c-0.682,0-1.166,0.506-1.298,1.232
			c-0.022,0.131-0.033,0.297-0.033,0.449v2.84H51.24V33.682z"/>
		<path d="M56.267,30.744v1.275h1.386v0.738h-1.386v2.871c0,0.66,0.187,1.035,0.726,1.035c0.264,0,0.418-0.023,0.561-0.066
			l0.044,0.736c-0.187,0.066-0.484,0.133-0.858,0.133c-0.451,0-0.814-0.154-1.045-0.408c-0.264-0.297-0.374-0.77-0.374-1.396v-2.904
			h-0.825V32.02h0.825v-0.988L56.267,30.744z"/>
		<path d="M59.82,30.523c0,0.33-0.231,0.596-0.616,0.596c-0.352,0-0.583-0.266-0.583-0.596s0.242-0.604,0.605-0.604
			C59.578,29.92,59.82,30.184,59.82,30.523z M58.742,37.346V32.02h0.968v5.326H58.742z"/>
		<path d="M61.415,37.346v-4.588h-0.737V32.02h0.737v-0.297c0-1.396,0.825-2.311,2.321-2.311c0.495,0,1.078,0.154,1.353,0.354
			l-0.275,0.736c-0.242-0.164-0.649-0.309-1.122-0.309c-1.023,0-1.32,0.717-1.32,1.562v0.264h3.091v5.326h-0.968v-4.588h-2.123
			v4.588H61.415z"/>
		<path d="M70.864,37.158c-0.253,0.121-0.814,0.309-1.529,0.309c-1.606,0-2.651-1.09-2.651-2.719c0-1.639,1.122-2.838,2.86-2.838
			c0.572,0,1.078,0.143,1.342,0.287l-0.22,0.736c-0.231-0.121-0.594-0.254-1.123-0.254c-1.221,0-1.881,0.914-1.881,2.014
			c0,1.232,0.792,1.992,1.849,1.992c0.55,0,0.913-0.133,1.188-0.254L70.864,37.158z"/>
		<path d="M75.737,36.068c0,0.463,0.022,0.914,0.077,1.277h-0.869l-0.077-0.672h-0.033c-0.297,0.418-0.869,0.793-1.628,0.793
			c-1.078,0-1.628-0.76-1.628-1.529c0-1.287,1.144-1.992,3.201-1.98v-0.109c0-0.43-0.121-1.232-1.21-1.223
			c-0.506,0-1.023,0.143-1.397,0.396l-0.22-0.648c0.44-0.275,1.089-0.463,1.76-0.463c1.628,0,2.024,1.111,2.024,2.168V36.068z
			 M74.802,34.627c-1.056-0.021-2.255,0.166-2.255,1.199c0,0.639,0.418,0.926,0.902,0.926c0.704,0,1.155-0.441,1.309-0.893
			c0.033-0.109,0.044-0.219,0.044-0.307V34.627z"/>
		<path d="M81.886,29.533v6.438c0,0.473,0.022,1.012,0.044,1.375h-0.858l-0.044-0.924h-0.033c-0.286,0.594-0.924,1.045-1.793,1.045
			c-1.287,0-2.289-1.09-2.289-2.707c-0.011-1.771,1.1-2.85,2.387-2.85c0.825,0,1.364,0.385,1.606,0.803h0.022v-3.18H81.886z
			 M80.929,34.188c0-0.121-0.011-0.285-0.044-0.406c-0.143-0.605-0.671-1.111-1.397-1.111c-1.001,0-1.595,0.879-1.595,2.047
			c0,1.078,0.54,1.969,1.573,1.969c0.649,0,1.243-0.441,1.419-1.156c0.033-0.131,0.044-0.264,0.044-0.418V34.188z"/>
		<path d="M88.321,34.639c0,1.969-1.375,2.828-2.651,2.828c-1.43,0-2.552-1.057-2.552-2.74c0-1.771,1.177-2.816,2.641-2.816
			C87.288,31.91,88.321,33.021,88.321,34.639z M84.108,34.693c0,1.166,0.66,2.047,1.606,2.047c0.924,0,1.617-0.869,1.617-2.068
			c0-0.902-0.451-2.035-1.595-2.035C84.603,32.637,84.108,33.693,84.108,34.693z"/>
		<path d="M14.969,41.533v6.438c0,0.473,0.022,1.012,0.044,1.375h-0.858l-0.044-0.924h-0.033c-0.286,0.594-0.924,1.045-1.793,1.045
			c-1.287,0-2.289-1.09-2.289-2.707c-0.011-1.771,1.1-2.85,2.387-2.85c0.825,0,1.364,0.385,1.606,0.803h0.022v-3.18H14.969z
			 M14.012,46.188c0-0.121-0.011-0.285-0.044-0.406c-0.143-0.605-0.671-1.111-1.397-1.111c-1.001,0-1.596,0.879-1.596,2.047
			c0,1.078,0.539,1.969,1.573,1.969c0.649,0,1.243-0.441,1.419-1.156c0.033-0.131,0.044-0.264,0.044-0.418V46.188z"/>
		<path d="M17.125,46.859c0.022,1.309,0.847,1.848,1.826,1.848c0.693,0,1.122-0.121,1.474-0.275l0.176,0.693
			c-0.341,0.154-0.935,0.342-1.782,0.342c-1.64,0-2.619-1.09-2.619-2.695c0-1.607,0.946-2.861,2.498-2.861
			c1.749,0,2.2,1.518,2.2,2.498c0,0.197-0.011,0.34-0.033,0.451H17.125z M19.963,46.166c0.011-0.605-0.253-1.562-1.342-1.562
			c-0.99,0-1.408,0.891-1.485,1.562H19.963z"/>
		<path d="M29.016,41.533v6.438c0,0.473,0.022,1.012,0.044,1.375h-0.858l-0.044-0.924h-0.033c-0.286,0.594-0.924,1.045-1.793,1.045
			c-1.287,0-2.289-1.09-2.289-2.707c-0.011-1.771,1.1-2.85,2.387-2.85c0.825,0,1.364,0.385,1.606,0.803h0.022v-3.18H29.016z
			 M28.059,46.188c0-0.121-0.011-0.285-0.044-0.406c-0.143-0.605-0.671-1.111-1.397-1.111c-1.001,0-1.596,0.879-1.596,2.047
			c0,1.078,0.539,1.969,1.573,1.969c0.649,0,1.243-0.441,1.419-1.156c0.033-0.131,0.044-0.264,0.044-0.418V46.188z"/>
		<path d="M31.71,42.523c0,0.33-0.231,0.596-0.616,0.596c-0.352,0-0.583-0.266-0.583-0.596s0.242-0.604,0.605-0.604
			C31.468,41.92,31.71,42.184,31.71,42.523z M30.632,49.346V44.02H31.6v5.326H30.632z"/>
		<path d="M33.074,48.365c0.297,0.178,0.803,0.375,1.288,0.375c0.693,0,1.023-0.342,1.023-0.793c0-0.461-0.275-0.703-0.979-0.967
			c-0.968-0.354-1.419-0.869-1.419-1.508c0-0.857,0.704-1.562,1.837-1.562c0.539,0,1.012,0.143,1.298,0.33l-0.231,0.705
			c-0.209-0.133-0.594-0.32-1.089-0.32c-0.572,0-0.88,0.33-0.88,0.727c0,0.439,0.308,0.639,1.001,0.914
			c0.913,0.34,1.397,0.803,1.397,1.594c0,0.947-0.737,1.607-1.98,1.607c-0.583,0-1.123-0.154-1.497-0.375L33.074,48.365z"/>
		<path d="M41.357,49.158c-0.253,0.121-0.814,0.309-1.529,0.309c-1.606,0-2.651-1.09-2.651-2.719c0-1.639,1.122-2.838,2.86-2.838
			c0.572,0,1.078,0.143,1.342,0.287l-0.22,0.736c-0.231-0.121-0.594-0.254-1.123-0.254c-1.221,0-1.881,0.914-1.881,2.014
			c0,1.232,0.792,1.992,1.849,1.992c0.55,0,0.913-0.133,1.188-0.254L41.357,49.158z"/>
		<path d="M46.23,48.068c0,0.463,0.022,0.914,0.077,1.277h-0.869l-0.077-0.672h-0.033c-0.297,0.418-0.869,0.793-1.628,0.793
			c-1.078,0-1.628-0.76-1.628-1.529c0-1.287,1.144-1.992,3.201-1.98v-0.109c0-0.43-0.121-1.232-1.21-1.223
			c-0.506,0-1.023,0.143-1.397,0.396l-0.22-0.648c0.44-0.275,1.089-0.463,1.76-0.463c1.628,0,2.024,1.111,2.024,2.168V48.068z
			 M45.295,46.627c-1.056-0.021-2.255,0.166-2.255,1.199c0,0.639,0.418,0.926,0.902,0.926c0.704,0,1.155-0.441,1.309-0.893
			c0.033-0.109,0.044-0.219,0.044-0.307V46.627z"/>
		<path d="M47.792,45.758c0-0.682-0.022-1.23-0.044-1.738h0.858l0.055,0.914h0.022c0.385-0.648,1.023-1.023,1.892-1.023
			c1.298,0,2.267,1.09,2.267,2.695c0,1.914-1.177,2.861-2.432,2.861c-0.704,0-1.32-0.309-1.639-0.836h-0.022v2.893h-0.957V45.758z
			 M48.749,47.178c0,0.143,0.011,0.275,0.044,0.396c0.176,0.67,0.759,1.133,1.452,1.133c1.023,0,1.617-0.836,1.617-2.057
			c0-1.057-0.561-1.971-1.584-1.971c-0.66,0-1.287,0.463-1.463,1.189c-0.033,0.121-0.066,0.264-0.066,0.385V47.178z"/>
		<path d="M57.791,48.068c0,0.463,0.022,0.914,0.077,1.277h-0.869l-0.077-0.672h-0.033c-0.297,0.418-0.869,0.793-1.628,0.793
			c-1.078,0-1.628-0.76-1.628-1.529c0-1.287,1.144-1.992,3.201-1.98v-0.109c0-0.43-0.121-1.232-1.21-1.223
			c-0.506,0-1.023,0.143-1.397,0.396l-0.22-0.648c0.44-0.275,1.089-0.463,1.76-0.463c1.628,0,2.024,1.111,2.024,2.168V48.068z
			 M56.856,46.627c-1.056-0.021-2.255,0.166-2.255,1.199c0,0.639,0.418,0.926,0.902,0.926c0.704,0,1.155-0.441,1.309-0.893
			c0.033-0.109,0.044-0.219,0.044-0.307V46.627z"/>
		<path d="M63.148,49.158c-0.253,0.121-0.814,0.309-1.529,0.309c-1.606,0-2.651-1.09-2.651-2.719c0-1.639,1.122-2.838,2.86-2.838
			c0.572,0,1.078,0.143,1.342,0.287l-0.22,0.736c-0.231-0.121-0.594-0.254-1.122-0.254c-1.221,0-1.881,0.914-1.881,2.014
			c0,1.232,0.792,1.992,1.849,1.992c0.55,0,0.913-0.133,1.188-0.254L63.148,49.158z"/>
		<path d="M65.359,42.523c0,0.33-0.231,0.596-0.616,0.596c-0.352,0-0.583-0.266-0.583-0.596s0.242-0.604,0.605-0.604
			C65.117,41.92,65.359,42.184,65.359,42.523z M64.281,49.346V44.02h0.968v5.326H64.281z"/>
		<path d="M71.442,41.533v6.438c0,0.473,0.022,1.012,0.044,1.375h-0.858l-0.044-0.924h-0.033c-0.286,0.594-0.924,1.045-1.793,1.045
			c-1.287,0-2.289-1.09-2.289-2.707c-0.011-1.771,1.1-2.85,2.387-2.85c0.825,0,1.364,0.385,1.606,0.803h0.022v-3.18H71.442z
			 M70.485,46.188c0-0.121-0.011-0.285-0.044-0.406c-0.143-0.605-0.671-1.111-1.397-1.111c-1.001,0-1.595,0.879-1.595,2.047
			c0,1.078,0.54,1.969,1.573,1.969c0.649,0,1.243-0.441,1.419-1.156c0.033-0.131,0.044-0.264,0.044-0.418V46.188z"/>
		<path d="M76.799,48.068c0,0.463,0.022,0.914,0.077,1.277h-0.869l-0.077-0.672h-0.033c-0.297,0.418-0.869,0.793-1.628,0.793
			c-1.078,0-1.628-0.76-1.628-1.529c0-1.287,1.144-1.992,3.201-1.98v-0.109c0-0.43-0.121-1.232-1.21-1.223
			c-0.506,0-1.023,0.143-1.397,0.396l-0.22-0.648c0.44-0.275,1.089-0.463,1.76-0.463c1.628,0,2.024,1.111,2.024,2.168V48.068z
			 M75.864,46.627c-1.056-0.021-2.255,0.166-2.255,1.199c0,0.639,0.418,0.926,0.902,0.926c0.704,0,1.155-0.441,1.309-0.893
			c0.033-0.109,0.044-0.219,0.044-0.307V46.627z"/>
		<path d="M82.948,41.533v6.438c0,0.473,0.022,1.012,0.044,1.375h-0.858l-0.044-0.924h-0.033c-0.286,0.594-0.924,1.045-1.793,1.045
			c-1.287,0-2.289-1.09-2.289-2.707c-0.011-1.771,1.1-2.85,2.387-2.85c0.825,0,1.364,0.385,1.606,0.803h0.022v-3.18H82.948z
			 M81.991,46.188c0-0.121-0.011-0.285-0.044-0.406c-0.143-0.605-0.671-1.111-1.397-1.111c-1.001,0-1.595,0.879-1.595,2.047
			c0,1.078,0.54,1.969,1.573,1.969c0.649,0,1.243-0.441,1.419-1.156c0.033-0.131,0.044-0.264,0.044-0.418V46.188z"/>
	</g>
</g>
</svg>
