<?xml version="1.0" encoding="utf-8"?>
<!-- Generator: Adobe Illustrator 16.0.0, SVG Export Plug-In . SVG Version: 6.00 Build 0)  -->
<!DOCTYPE svg PUBLIC "-//W3C//DTD SVG 1.1//EN" "http://www.w3.org/Graphics/SVG/1.1/DTD/svg11.dtd">
<svg version="1.1" id="Capa_1" xmlns="http://www.w3.org/2000/svg" xmlns:xlink="http://www.w3.org/1999/xlink" x="0px" y="0px"
	 width="202.533px" height="108.307px" viewBox="0 0 202.533 108.307" enable-background="new 0 0 202.533 108.307"
	 xml:space="preserve">
<g>
	<g>
		<g>
			<path fill="#9CA82E" d="M54.151,106.307C25.395,106.307,2,82.91,2,54.152C2,25.396,25.395,2,54.151,2
				s52.152,23.396,52.152,52.152C106.304,82.91,82.908,106.307,54.151,106.307z"/>
			<path fill="#FFFFFF" d="M54.151,4c27.698,0,50.152,22.457,50.152,50.152c0,27.701-22.454,50.154-50.152,50.154
				C26.454,104.307,4,81.854,4,54.152C4,26.457,26.454,4,54.151,4 M54.151,0C24.292,0,0,24.293,0,54.152
				c0,29.86,24.292,54.154,54.151,54.154s54.152-24.294,54.152-54.154C108.304,24.293,84.011,0,54.151,0L54.151,0z"/>
		</g>
		<g>
			<g>
				<path fill="#FFFFFF" d="M56.305,34.397v5.314h-6.724V34.55c0-2.188-0.304-3.688-0.91-4.504s-1.686-1.225-3.236-1.225
					c-1.483,0-2.527,0.457-3.134,1.375s-0.91,2.543-0.91,4.881v2.713c0,1.131,0.21,2.293,0.632,3.486
					c0.421,1.193,1.036,2.318,1.846,3.373L52.26,55.69c1.416,1.861,2.443,3.613,3.084,5.258c0.641,1.646,0.961,3.348,0.961,5.107
					v3.768c0,4.824-0.817,8.078-2.452,9.762s-4.542,2.525-8.721,2.525c-4.079,0-6.919-0.68-8.519-2.035
					c-1.602-1.357-2.401-3.92-2.401-7.689v-6.18h6.774v5.992c0,2.262,0.303,3.793,0.91,4.598c0.606,0.805,1.719,1.205,3.336,1.205
					c1.651,0,2.789-0.457,3.413-1.375c0.623-0.916,0.936-2.934,0.936-6.049v-3.844c0-1.432-0.178-2.732-0.531-3.9
					s-0.868-2.23-1.542-3.186L38.61,47.815c-1.248-1.584-2.199-3.092-2.856-4.523c-0.658-1.432-0.986-2.676-0.986-3.73v-3.242
					c0-4.32,0.8-7.33,2.401-9.025c1.601-1.695,4.355-2.543,8.266-2.543c4.112,0,6.952,0.666,8.52,1.996
					C55.521,28.079,56.305,30.63,56.305,34.397z"/>
				<path fill="#FFFFFF" d="M65.305,25.579h6.825v55.588h-6.825V25.579z"/>
			</g>
		</g>
	</g>
	<path fill-rule="evenodd" clip-rule="evenodd" fill="#FFFFFF" d="M161.512,56.525c0.653-1.568,1.04-2.268,1.243-3.018
		c3.498-12.697,11.696-21.564,22.948-27.799c3.311-1.834,6.97-3.031,10.491-4.471c0.735-0.303,1.649-0.674,2.335-0.484
		c1.24,0.338,2.661,0.809,3.474,1.705c1.146,1.275,0.235,2.637-0.865,3.602c-2.781,2.436-5.516,4.932-8.447,7.172
		c-8.746,6.678-13.381,15.346-13.381,26.445c0,4.963-0.102,9.932-0.379,14.885c-0.264,4.721-2.169,8.422-7.02,10.092
		c-2.169,0.75-4.16,2.078-6.357,2.662c-3.275,0.859-5.098-0.174-6.154-3.369c-1.971-5.943-5.736-10.537-10.631-14.195
		c-5.738-4.281-11.591-8.408-17.508-12.439c-4.522-3.082-4.861-5.521-0.82-9.299c1.258-1.178,2.674-2.199,4.099-3.18
		c5.28-3.652,8.011-3.822,13.257-0.092c2.992,2.127,5.518,4.896,8.295,7.326C157.705,53.48,159.399,54.795,161.512,56.525z"/>
</g>
</svg>
