<?xml version="1.0" encoding="utf-8"?>
<!-- Generator: Adobe Illustrator 16.0.0, SVG Export Plug-In . SVG Version: 6.00 Build 0)  -->
<!DOCTYPE svg PUBLIC "-//W3C//DTD SVG 1.1//EN" "http://www.w3.org/Graphics/SVG/1.1/DTD/svg11.dtd">
<svg version="1.1" id="Capa_1" xmlns="http://www.w3.org/2000/svg" xmlns:xlink="http://www.w3.org/1999/xlink" x="0px" y="0px"
	 width="500.465px" height="111.431px" viewBox="0 0 500.465 111.431" enable-background="new 0 0 500.465 111.431"
	 xml:space="preserve">
<polygon opacity="0.7" fill="#FFFFFF" points="500.465,7.65 0,0 0,111.431 456.462,111.38 "/>
<g>
	<path fill="#3EA4DD" d="M229.438,28.132h4.874l5.58,28.809h-3.589l-1.337-8.008h-6.341l-1.44,8.008h-3.511L229.438,28.132z
		 M231.744,30.261l-2.804,16.562h5.581l-2.62-16.562H231.744z"/>
	<path fill="#3EA4DD" d="M254.487,32.702v2.754h-3.512V32.78c0-1.12-0.161-1.895-0.484-2.324s-0.896-0.645-1.716-0.645
		c-0.751,0-1.275,0.244-1.572,0.732s-0.445,1.514-0.445,3.076v17.832c0,1.602,0.157,2.644,0.472,3.125
		c0.314,0.482,0.891,0.723,1.729,0.723c0.716,0,1.231-0.228,1.546-0.684c0.314-0.456,0.471-1.23,0.471-2.324v-3.105h3.512v3.203
		c0,1.966-0.411,3.298-1.231,3.994c-0.821,0.696-2.289,1.045-4.402,1.045c-2.079,0-3.528-0.449-4.35-1.348
		c-0.82-0.898-1.231-2.571-1.231-5.02V34.011c0-2.435,0.411-4.095,1.231-4.98c0.821-0.885,2.271-1.328,4.35-1.328
		c2.131,0,3.603,0.345,4.415,1.035C254.081,29.428,254.487,30.749,254.487,32.702z"/>
	<path fill="#3EA4DD" d="M256.295,28.132h11.345v2.285h-3.982V56.94h-3.38V30.417h-3.982V28.132z"/>
	<path fill="#3EA4DD" d="M271.124,28.132h3.538V56.94h-3.538V28.132z"/>
	<path fill="#3EA4DD" d="M278.356,28.132h3.38l3.59,25.938h0.366l3.38-25.938h3.171l-4.192,28.809h-5.188L278.356,28.132z"/>
	<path fill="#3EA4DD" d="M296.067,28.132h3.538V56.94h-3.538V28.132z"/>
	<path fill="#3EA4DD" d="M305.5,28.132h3.904c3.302,0,5.459,0.388,6.472,1.162c1.013,0.775,1.52,2.549,1.52,5.322v15.84
		c0,2.761-0.516,4.531-1.546,5.312s-3.179,1.172-6.445,1.172H305.5V28.132z M308.828,30.261v24.551h1.074
		c1.606,0,2.668-0.198,3.184-0.596c0.515-0.397,0.772-1.272,0.772-2.627V33.542c0-1.367-0.262-2.256-0.786-2.666
		c-0.523-0.41-1.581-0.615-3.17-0.615H308.828z"/>
	<path fill="#3EA4DD" d="M326.54,28.132h4.874l5.58,28.809h-3.589l-1.337-8.008h-6.341l-1.44,8.008h-3.511L326.54,28.132z
		 M328.846,30.261l-2.804,16.562h5.581l-2.62-16.562H328.846z"/>
	<path fill="#3EA4DD" d="M340.531,28.132h3.904c3.302,0,5.459,0.388,6.472,1.162c1.013,0.775,1.52,2.549,1.52,5.322v15.84
		c0,2.761-0.516,4.531-1.546,5.312s-3.179,1.172-6.445,1.172h-3.904V28.132z M343.859,30.261v24.551h1.074
		c1.606,0,2.668-0.198,3.184-0.596c0.515-0.397,0.772-1.272,0.772-2.627V33.542c0-1.367-0.262-2.256-0.786-2.666
		c-0.523-0.41-1.581-0.615-3.17-0.615H343.859z"/>
	<path fill="#331842" d="M229.438,63.132h4.874l5.58,28.809h-3.589l-1.337-8.008h-6.341l-1.44,8.008h-3.511L229.438,63.132z
		 M231.744,65.261l-2.804,16.562h5.581l-2.62-16.562H231.744z"/>
	<path fill="#331842" d="M243.43,63.132h8.961v2.285h-5.633v10.449h5.424v2.266h-5.424V91.94h-3.328V63.132z"/>
	<path fill="#331842" d="M256.478,63.132h3.538V91.94h-3.538V63.132z"/>
	<path fill="#331842" d="M269.186,63.132h4.874l5.58,28.809h-3.589l-1.337-8.008h-6.341l-1.44,8.008h-3.511L269.186,63.132z
		 M271.491,65.261l-2.804,16.562h5.581l-2.62-16.562H271.491z"/>
	<path fill="#331842" d="M283.177,63.132h4.56l5.528,27.09h0.053l-0.498-27.09h3.013V91.94h-4.611l-5.476-26.719h-0.105
		l0.472,26.719h-2.935V63.132z"/>
	<path fill="#331842" d="M299.814,63.132h10.402v2.52l-7.493,24.004h7.834v2.285h-11.109v-2.715l7.546-23.809h-7.18V63.132z"/>
	<path fill="#331842" d="M317.475,63.132h4.874l5.58,28.809h-3.589l-1.337-8.008h-6.341l-1.44,8.008h-3.511L317.475,63.132z
		 M319.78,65.261l-2.804,16.562h5.581l-2.62-16.562H319.78z"/>
	<path fill="#331842" d="M331.466,63.132h5.791l3.747,26.523h0.262l3.668-26.523h5.634V91.94h-2.909V65.3h-0.523l-3.773,26.641
		h-4.663L334.794,65.3h-0.445V91.94h-2.883V63.132z"/>
	<path fill="#331842" d="M356.566,63.132h3.538V91.94h-3.538V63.132z"/>
	<path fill="#331842" d="M365.999,63.132h9.224v2.285h-5.896v10.371h5.633v2.266h-5.633v11.602h6.053v2.285h-9.381V63.132z"/>
	<path fill="#331842" d="M380.174,63.132h4.56l5.528,27.09h0.053l-0.498-27.09h3.013V91.94h-4.611l-5.476-26.719h-0.105
		l0.472,26.719h-2.935V63.132z"/>
	<path fill="#331842" d="M396.262,63.132h11.345v2.285h-3.982V91.94h-3.38V65.417h-3.982V63.132z"/>
	<path fill="#331842" d="M423.092,69.011v17.051c0,2.474-0.446,4.154-1.337,5.039s-2.48,1.328-4.769,1.328
		c-2.253,0-3.825-0.449-4.716-1.348s-1.337-2.571-1.337-5.02V69.011c0-2.422,0.45-4.079,1.35-4.971
		c0.899-0.892,2.484-1.338,4.756-1.338c2.271,0,3.847,0.443,4.729,1.328C422.65,64.916,423.092,66.576,423.092,69.011z
		 M419.606,68.62c0-1.458-0.192-2.458-0.576-2.998c-0.385-0.54-1.065-0.811-2.044-0.811c-0.961,0-1.629,0.264-2.004,0.791
		c-0.376,0.527-0.563,1.533-0.563,3.018v17.832c0,1.498,0.191,2.507,0.576,3.027c0.384,0.521,1.065,0.781,2.044,0.781
		c0.96,0,1.629-0.26,2.004-0.781c0.376-0.521,0.563-1.53,0.563-3.027V68.62z"/>
</g>
<g>
	<path fill-rule="evenodd" clip-rule="evenodd" fill="#331842" d="M128.32,89.224c0.14-0.609,0.232-1.238,0.432-1.828
		c1.081-3.246,3.491-5.064,6.635-6.062c0.259-0.082,0.524-0.141,0.838-0.226c0-2.889,0-5.765,0-8.646
		c0-0.577-0.013-1.153,0.007-1.726c0.046-1.46,1.172-2.676,2.633-2.768c1.005-0.059,2.017-0.01,3.006-0.01
		c0.314-1.883,0.766-2.443,1.945-2.479c1.271-0.043,1.769,0.504,2.165,2.404c0.878,0,1.765,0,2.705,0
		c-0.311-1.415-0.19-2.738,0.986-3.623c0.616-0.465,1.474-0.852,2.224-0.855c13.667-0.049,27.332-0.042,40.999-0.033
		c2.125,0.003,3.681,1.89,3.314,3.973c-0.026,0.158-0.023,0.318-0.043,0.583c0.334,0,0.629,0,0.924,0c2.715,0,5.43-0.007,8.148,0
		c2.204,0.006,3.36,1.126,3.367,3.34c0.023,5.24,0.02,10.481,0,15.72c-0.006,2.228-1.146,3.344-3.363,3.348
		c-21.901,0-43.799,0-65.696-0.003c-2.217,0-3.314-1.13-3.321-3.36c0-0.495,0-0.986,0-1.483c-1.693,0.186-3.36,2.118-3.465,3.979
		c-0.144,2.545,1.445,4.602,4.189,5.348c2.099,0.57,4.238,0.786,6.422,0.747c2.905-0.046,5.836-0.203,8.708,0.131
		c5.955,0.688,10.788,3.609,14.598,8.208c1.035,1.244,0.665,2.469-0.976,3.599c-0.328,0-0.658,0-0.989,0
		c-0.383-0.344-0.766-0.684-1.153-1.025c-1.454-1.284-2.797-2.731-4.389-3.812c-3.766-2.555-8.06-3.167-12.531-3.118
		c-2.977,0.03-5.98,0.02-8.925-0.34c-3.586-0.433-6.429-2.339-8.178-5.548c-0.642-1.185-0.825-2.62-1.218-3.943
		C128.32,89.551,128.32,89.387,128.32,89.224z"/>
	<path fill-rule="evenodd" clip-rule="evenodd" fill="#331842" d="M167.187,13.964c0.792,0.187,1.614,0.298,2.374,0.573
		c4.565,1.67,7.474,4.854,8.27,9.675c0.802,4.864-0.94,8.83-4.844,11.817c-0.462,0.354-0.61,0.662-0.492,1.222
		c1.156,5.459,2.289,10.919,3.432,16.378c0.043,0.217,0.115,0.419,0.2,0.721c0.285,0,0.58,0,0.875,0
		c2.168,0,4.336-0.023,6.505,0.006c1.729,0.026,2.806,1.441,2.259,2.902c-0.157,0.419-0.386,0.648-0.9,0.648
		c-8.287-0.016-16.576-0.02-24.862,0c-0.753,0.004-0.95-0.426-1.038-0.995c-0.236-1.467,0.75-2.535,2.377-2.555
		c1.811-0.026,3.619-0.006,5.433-0.006c0.295,0,0.596,0,1.022,0c-0.324-1.566-0.625-3.052-0.934-4.539
		c-0.75-3.583-1.523-7.167-2.237-10.762c-0.111-0.567-0.341-0.741-0.871-0.826c-5.034-0.845-8.879-4.579-9.931-9.603
		c-1.438-6.865,3.236-13.513,10.189-14.505c0.127-0.017,0.245-0.098,0.37-0.151C165.319,13.964,166.252,13.964,167.187,13.964z
		 M173.419,25.666c-0.128-2.895-1.104-4.938-3.318-6.269c-1.084-0.648-2.05-0.426-2.626,0.53c-0.56,0.918-0.308,1.592,0.855,2.319
		c1.437,0.897,2.056,2.476,1.617,4.117c-0.072,0.265-0.167,0.527-0.196,0.796c-0.092,0.825,0.56,1.742,1.339,1.938
		c0.77,0.19,1.523-0.242,1.805-1.159C173.157,27.084,173.301,26.19,173.419,25.666z"/>
	<path fill-rule="evenodd" clip-rule="evenodd" fill="#331842" d="M172.391,62.367c-6.203,0-12.403,0-18.603,0
		c-0.832,0-0.986-0.177-0.907-1.015c0.124-1.324,1.133-2.332,2.459-2.45c0.272-0.026,0.544-0.033,0.819-0.033
		c10.841,0,21.679,0.007,32.516-0.007c1.127,0,2.136,0.184,2.787,1.212c0.174,0.275,0.324,0.583,0.397,0.894
		c0.261,1.163,0.058,1.399-1.114,1.399C184.626,62.367,178.508,62.367,172.391,62.367z"/>
</g>
</svg>
