<?xml version="1.0" encoding="utf-8"?>
<!-- Generator: Adobe Illustrator 24.2.3, SVG Export Plug-In . SVG Version: 6.00 Build 0)  -->
<svg version="1.1" id="Capa_1" xmlns="http://www.w3.org/2000/svg" xmlns:xlink="http://www.w3.org/1999/xlink" x="0px" y="0px"
	 viewBox="0 0 447 263.1" style="enable-background:new 0 0 447 263.1;" xml:space="preserve">
<style type="text/css">
	.st0{fill:none;stroke:#FD3888;stroke-width:1.958;stroke-dasharray:2.911,2.911;}
	.st1{fill:none;stroke:#FD3888;stroke-width:1.958;stroke-dasharray:3.002,3.002;}
	.st2{fill:none;stroke:#FD3888;stroke-width:1.958;stroke-dasharray:3.019,3.019;}
	.st3{fill:none;stroke:#FD3888;stroke-width:1.958;}
	.st4{fill:#42454A;}
	.st5{fill:#2196AA;}
	.st6{fill:none;stroke:#FD3888;stroke-width:1.958;stroke-dasharray:3.009,3.009;}
	.st7{fill:none;stroke:#FD3888;stroke-width:1.958;stroke-dasharray:2.98,2.98;}
</style>
<g id="Grupo_691" transform="translate(-715 -285.268)">
	<path id="Trazado_990" class="st0" d="M1159.9,541.8c-1.9,2.9-4.9,4.9-8.3,5.4"/>
	<path id="Trazado_991" class="st1" d="M1144.2,547.4H731.3"/>
	<path id="Trazado_992" class="st0" d="M724,546.8c-3.4-0.8-6.1-3.2-7.5-6.4"/>
	<path id="Trazado_993" class="st2" d="M716,533.1v-234"/>
	<path id="Trazado_994" class="st0" d="M717.1,291.9c1.9-2.9,4.9-4.9,8.3-5.4"/>
	<path id="Trazado_995" class="st1" d="M732.8,286.2h412.8"/>
	<path id="Trazado_996" class="st0" d="M1153,286.9c3.3,0.8,6.1,3.2,7.5,6.4"/>
	<path id="Trazado_997" class="st2" d="M1161,300.6v234"/>
	<path id="Trazado_998" class="st3" d="M1150.1,547.4c-0.5,0-1,0.1-1.5,0.1h-1.5 M729.8,547.4h-1.5c-0.5,0-1,0-1.5-0.1 M716.1,539.1
		c-0.1-0.5-0.1-1-0.1-1.4v-1.5 M716,297.6v-1.5c0-0.5,0-1,0.1-1.4 M726.9,286.3c0.5,0,1-0.1,1.5-0.1h1.5 M1147.2,286.2h1.5
		c0.5,0,1,0,1.5,0.1 M1160.9,294.6c0.1,0.5,0.1,1,0.1,1.4v1.5 M1161,536.1v1.5c0,0.5,0,1-0.1,1.4"/>
	<path id="Trazado_1000" class="st4" d="M759.2,391.9h3.4V391h-3.4V391.9z"/>
	<path id="Trazado_1001" class="st4" d="M769.6,395.2v-8.8h-3.3v-1.2h7.9v1.2h-3.3v8.8H769.6z"/>
	<path id="Trazado_1002" class="st4" d="M773.4,391.6c-0.1-1.1,0.3-2.2,1.1-3c0.6-0.5,1.4-0.8,2.3-0.8c0.9,0,1.8,0.3,2.4,1
		c0.7,0.7,1,1.7,0.9,2.7c0,0.8-0.1,1.5-0.4,2.2c-0.3,0.5-0.7,1-1.2,1.2c-0.5,0.3-1.1,0.4-1.7,0.4c-0.9,0-1.8-0.3-2.4-1
		C773.7,393.6,773.4,392.6,773.4,391.6 M774.7,391.6c-0.1,0.7,0.2,1.5,0.6,2.1c0.4,0.4,0.9,0.7,1.5,0.7c0.6,0,1.1-0.2,1.5-0.7
		c0.4-0.6,0.7-1.4,0.6-2.1c0.1-0.7-0.2-1.4-0.6-2c-0.4-0.4-0.9-0.7-1.5-0.7c-0.6,0-1.1,0.2-1.5,0.7
		C774.8,390.1,774.6,390.8,774.7,391.6"/>
	<path id="Trazado_1003" class="st4" d="M786.3,395.2v-0.9c-0.4,0.7-1.2,1.1-2,1.1c-0.6,0-1.1-0.2-1.6-0.5c-0.5-0.3-0.9-0.8-1.1-1.3
		c-0.3-0.6-0.4-1.3-0.4-2c0-0.7,0.1-1.3,0.4-2c0.2-0.6,0.6-1,1.1-1.3c0.5-0.3,1-0.5,1.6-0.5c0.4,0,0.8,0.1,1.2,0.3
		c0.3,0.2,0.6,0.4,0.8,0.7v-3.6h1.2v10H786.3z M782.4,391.6c-0.1,0.7,0.2,1.5,0.6,2.1c0.3,0.4,0.8,0.7,1.4,0.7c0.5,0,1-0.2,1.4-0.7
		c0.4-0.6,0.6-1.3,0.6-2c0.1-0.8-0.1-1.5-0.6-2.2c-0.3-0.4-0.9-0.7-1.4-0.7c-0.5,0-1,0.2-1.4,0.7
		C782.6,390.1,782.4,390.9,782.4,391.6"/>
	<path id="Trazado_1004" class="st4" d="M794.1,394.3c-0.4,0.3-0.8,0.6-1.3,0.8c-0.4,0.2-0.9,0.2-1.3,0.2c-0.7,0-1.3-0.2-1.8-0.6
		c-0.4-0.4-0.7-0.9-0.6-1.5c0-0.3,0.1-0.7,0.2-1c0.2-0.3,0.4-0.5,0.6-0.7c0.3-0.2,0.6-0.3,0.9-0.4c0.4-0.1,0.7-0.1,1.1-0.2
		c0.7-0.1,1.5-0.2,2.2-0.4c0-0.2,0-0.3,0-0.3c0-0.4-0.1-0.8-0.3-1.1c-0.4-0.3-0.9-0.5-1.4-0.4c-0.4,0-0.9,0.1-1.3,0.3
		c-0.3,0.3-0.5,0.7-0.6,1.1l-1.2-0.2c0.1-0.4,0.3-0.9,0.5-1.2c0.3-0.3,0.7-0.6,1.1-0.7c0.5-0.2,1.1-0.3,1.6-0.3c0.5,0,1,0.1,1.5,0.2
		c0.3,0.1,0.6,0.3,0.8,0.5c0.2,0.2,0.3,0.5,0.4,0.8c0.1,0.4,0.1,0.8,0.1,1.1v1.6c0,0.7,0,1.4,0.1,2.2c0.1,0.3,0.2,0.6,0.3,0.9h-1.3
		C794.2,394.9,794.1,394.6,794.1,394.3 M794,391.6c-0.6,0.2-1.3,0.4-2,0.5c-0.4,0-0.7,0.1-1.1,0.2c-0.2,0.1-0.4,0.2-0.5,0.4
		c-0.1,0.2-0.2,0.4-0.2,0.6c0,0.3,0.1,0.6,0.4,0.8c0.3,0.2,0.7,0.4,1.1,0.3c0.4,0,0.9-0.1,1.3-0.3c0.4-0.2,0.6-0.5,0.8-0.8
		c0.2-0.4,0.2-0.8,0.2-1.2V391.6z"/>
	<path id="Trazado_1005" class="st4" d="M796.6,393l1.2-0.2c0,0.4,0.2,0.8,0.6,1.1c0.4,0.3,0.8,0.4,1.3,0.4c0.4,0,0.9-0.1,1.2-0.3
		c0.3-0.2,0.4-0.5,0.4-0.8c0-0.3-0.1-0.5-0.4-0.7c-0.4-0.2-0.8-0.3-1.2-0.4c-0.6-0.1-1.3-0.3-1.9-0.6c-0.3-0.1-0.6-0.4-0.8-0.7
		c-0.2-0.3-0.3-0.6-0.3-1c0-0.3,0.1-0.6,0.2-0.9c0.1-0.3,0.4-0.5,0.6-0.7c0.2-0.2,0.5-0.3,0.8-0.4c0.3-0.1,0.7-0.1,1.1-0.1
		c0.5,0,1,0.1,1.5,0.2c0.4,0.1,0.7,0.4,0.9,0.7c0.2,0.3,0.4,0.7,0.4,1.1l-1.2,0.2c0-0.3-0.2-0.6-0.5-0.9c-0.3-0.2-0.7-0.3-1.1-0.3
		c-0.4,0-0.8,0.1-1.2,0.3c-0.2,0.1-0.4,0.4-0.4,0.7c0,0.2,0.1,0.3,0.1,0.4c0.1,0.1,0.3,0.3,0.5,0.3c0.1,0,0.5,0.1,1.1,0.3
		c0.6,0.2,1.2,0.3,1.8,0.6c0.3,0.1,0.6,0.4,0.8,0.6c0.2,0.3,0.3,0.7,0.3,1c0,0.4-0.1,0.8-0.4,1.2c-0.3,0.4-0.6,0.7-1,0.8
		c-0.5,0.2-1,0.3-1.5,0.3c-0.8,0-1.5-0.2-2.1-0.6C797,394.3,796.7,393.7,796.6,393"/>
	<path id="Trazado_1007" class="st4" d="M807.9,385.2h1.2v10h-1.2L807.9,385.2z"/>
	<path id="Trazado_1008" class="st4" d="M815.7,394.3c-0.4,0.3-0.8,0.6-1.3,0.8c-0.4,0.2-0.9,0.2-1.3,0.2c-0.7,0-1.3-0.2-1.8-0.6
		c-0.4-0.4-0.7-0.9-0.6-1.5c0-0.3,0.1-0.7,0.2-1c0.2-0.3,0.4-0.5,0.6-0.7c0.3-0.2,0.6-0.3,0.9-0.4c0.4-0.1,0.7-0.1,1.1-0.2
		c0.7-0.1,1.5-0.2,2.2-0.4c0-0.2,0-0.3,0-0.3c0-0.4-0.1-0.8-0.3-1.1c-0.4-0.3-0.9-0.5-1.4-0.4c-0.4,0-0.9,0.1-1.3,0.3
		c-0.3,0.3-0.5,0.7-0.6,1.1l-1.2-0.2c0.1-0.4,0.3-0.9,0.5-1.2c0.3-0.3,0.7-0.6,1.1-0.7c0.5-0.2,1.1-0.3,1.6-0.3c0.5,0,1,0.1,1.5,0.2
		c0.3,0.1,0.6,0.3,0.8,0.5c0.2,0.2,0.3,0.5,0.4,0.8c0.1,0.4,0.1,0.8,0.1,1.1v1.6c0,0.7,0,1.4,0.1,2.2c0.1,0.3,0.2,0.6,0.3,0.9h-1.3
		C815.8,394.9,815.7,394.6,815.7,394.3 M815.6,391.6c-0.6,0.2-1.3,0.4-2,0.5c-0.4,0-0.7,0.1-1.1,0.2c-0.2,0.1-0.4,0.2-0.5,0.4
		c-0.1,0.2-0.2,0.4-0.2,0.6c0,0.3,0.1,0.6,0.4,0.8c0.3,0.2,0.7,0.4,1.1,0.3c0.4,0,0.9-0.1,1.3-0.3c0.4-0.2,0.6-0.5,0.8-0.8
		c0.2-0.4,0.2-0.8,0.2-1.2V391.6z"/>
	<path id="Trazado_1009" class="st4" d="M818.2,393l1.2-0.2c0,0.4,0.2,0.8,0.6,1.1c0.4,0.3,0.8,0.4,1.3,0.4c0.4,0,0.9-0.1,1.2-0.3
		c0.3-0.2,0.4-0.5,0.4-0.8c0-0.3-0.1-0.5-0.4-0.7c-0.4-0.2-0.8-0.3-1.2-0.4c-0.6-0.1-1.3-0.3-1.9-0.6c-0.3-0.1-0.6-0.4-0.8-0.7
		c-0.2-0.3-0.3-0.6-0.3-1c0-0.3,0.1-0.6,0.2-0.9c0.1-0.3,0.4-0.5,0.6-0.7c0.2-0.2,0.5-0.3,0.8-0.4c0.3-0.1,0.7-0.1,1.1-0.1
		c0.5,0,1,0.1,1.5,0.2c0.4,0.1,0.7,0.4,0.9,0.7c0.2,0.3,0.4,0.7,0.4,1.1l-1.2,0.2c0-0.3-0.2-0.6-0.5-0.9c-0.3-0.2-0.7-0.3-1.1-0.3
		c-0.4,0-0.8,0.1-1.2,0.3c-0.2,0.1-0.4,0.4-0.4,0.7c0,0.2,0.1,0.3,0.1,0.4c0.1,0.1,0.3,0.3,0.5,0.3c0.1,0,0.5,0.1,1.1,0.3
		c0.6,0.2,1.2,0.3,1.8,0.6c0.3,0.1,0.6,0.4,0.8,0.6c0.2,0.3,0.3,0.7,0.3,1c0,0.4-0.1,0.8-0.4,1.2c-0.3,0.4-0.6,0.7-1,0.8
		c-0.5,0.2-1,0.3-1.5,0.3c-0.8,0-1.5-0.2-2.1-0.6C818.7,394.3,818.3,393.7,818.2,393"/>
	<path id="Trazado_1010" class="st4" d="M831.5,395.2l-2.7-7.2h1.3l1.6,4.3c0.2,0.5,0.3,1,0.5,1.5c0.1-0.4,0.3-0.8,0.5-1.4l1.6-4.4
		h1.3l-2.7,7.2H831.5z"/>
	<path id="Trazado_1011" class="st4" d="M841.2,394.3c-0.4,0.3-0.8,0.6-1.3,0.8c-0.4,0.2-0.9,0.2-1.3,0.2c-0.7,0-1.3-0.2-1.8-0.6
		c-0.4-0.4-0.7-0.9-0.6-1.5c0-0.3,0.1-0.7,0.2-1c0.2-0.3,0.4-0.5,0.6-0.7c0.3-0.2,0.6-0.3,0.9-0.4c0.4-0.1,0.7-0.1,1.1-0.2
		c0.7-0.1,1.5-0.2,2.2-0.4c0-0.2,0-0.3,0-0.3c0-0.4-0.1-0.8-0.3-1.1c-0.4-0.3-0.9-0.5-1.4-0.4c-0.4,0-0.9,0.1-1.3,0.3
		c-0.3,0.3-0.5,0.7-0.6,1.1l-1.2-0.2c0.1-0.4,0.3-0.9,0.5-1.2c0.3-0.3,0.7-0.6,1.1-0.7c0.5-0.2,1.1-0.3,1.6-0.3c0.5,0,1,0.1,1.5,0.2
		c0.3,0.1,0.6,0.3,0.8,0.5c0.2,0.2,0.3,0.5,0.4,0.8c0.1,0.4,0.1,0.8,0.1,1.1v1.6c0,0.7,0,1.4,0.1,2.2c0.1,0.3,0.2,0.6,0.3,0.9h-1.3
		C841.3,394.9,841.2,394.6,841.2,394.3 M841.1,391.6c-0.6,0.2-1.3,0.4-2,0.5c-0.4,0-0.7,0.1-1.1,0.2c-0.2,0.1-0.4,0.2-0.5,0.4
		c-0.1,0.2-0.2,0.4-0.2,0.6c0,0.3,0.1,0.6,0.4,0.8c0.3,0.2,0.7,0.4,1.1,0.3c0.4,0,0.9-0.1,1.3-0.3c0.4-0.2,0.6-0.5,0.8-0.8
		c0.2-0.4,0.2-0.8,0.2-1.2V391.6z"/>
	<path id="Trazado_1012" class="st4" d="M844.2,395.2V388h1.1v1.1c0.2-0.4,0.4-0.7,0.8-1c0.2-0.2,0.5-0.2,0.8-0.2
		c0.4,0,0.9,0.1,1.3,0.4l-0.4,1.1c-0.3-0.2-0.6-0.3-0.9-0.3c-0.3,0-0.5,0.1-0.7,0.2c-0.2,0.2-0.4,0.4-0.5,0.7
		c-0.1,0.5-0.2,0.9-0.2,1.4v3.8H844.2z"/>
	<path id="Trazado_1014" class="st4" d="M848.9,385.2h1.2v1.4h-1.2V385.2z M848.9,386.6v1.3h1.2v7.2h-1.2V386.6z"/>
	<path id="Trazado_1015" class="st4" d="M856.7,394.3c-0.4,0.3-0.8,0.6-1.3,0.8c-0.4,0.2-0.9,0.2-1.3,0.2c-0.7,0-1.3-0.2-1.8-0.6
		c-0.4-0.4-0.7-0.9-0.6-1.5c0-0.3,0.1-0.7,0.2-1c0.2-0.3,0.4-0.5,0.6-0.7c0.3-0.2,0.6-0.3,0.9-0.4c0.4-0.1,0.7-0.1,1.1-0.2
		c0.7-0.1,1.5-0.2,2.2-0.4c0-0.2,0-0.3,0-0.3c0-0.4-0.1-0.8-0.3-1.1c-0.4-0.3-0.9-0.5-1.4-0.4c-0.4,0-0.9,0.1-1.3,0.3
		c-0.3,0.3-0.5,0.7-0.6,1.1l-1.2-0.2c0.1-0.4,0.3-0.9,0.5-1.2c0.3-0.3,0.7-0.6,1.1-0.7c0.5-0.2,1.1-0.3,1.6-0.3c0.5,0,1,0.1,1.5,0.2
		c0.3,0.1,0.6,0.3,0.8,0.5c0.2,0.2,0.3,0.5,0.4,0.8c0.1,0.4,0.1,0.8,0.1,1.1v1.6c0,0.7,0,1.4,0.1,2.2c0.1,0.3,0.2,0.6,0.3,0.9h-1.3
		C856.8,394.9,856.7,394.6,856.7,394.3 M856.6,391.6c-0.6,0.2-1.3,0.4-2,0.5c-0.4,0-0.7,0.1-1.1,0.2c-0.2,0.1-0.4,0.2-0.5,0.4
		c-0.1,0.2-0.2,0.4-0.2,0.6c0,0.3,0.1,0.6,0.4,0.8c0.3,0.2,0.7,0.4,1.1,0.3c0.4,0,0.9-0.1,1.3-0.3c0.4-0.2,0.6-0.5,0.8-0.8
		c0.2-0.4,0.2-0.8,0.2-1.2V391.6z"/>
	<path id="Trazado_1016" class="st4" d="M860.8,395.2h-1.1v-10h1.2v3.6c0.5-0.6,1.2-1,2-1c0.4,0,0.9,0.1,1.3,0.3
		c0.4,0.2,0.7,0.4,1,0.8c0.3,0.4,0.5,0.7,0.6,1.2c0.1,0.5,0.2,1,0.2,1.5c0.1,1-0.3,2.1-0.9,2.9c-0.5,0.6-1.4,1-2.2,1
		c-0.8,0-1.6-0.4-2-1.1V395.2z M860.8,391.5c0,0.6,0.1,1.3,0.4,1.9c0.3,0.6,0.9,0.9,1.6,0.9c0.5,0,1.1-0.3,1.4-0.7
		c0.4-0.6,0.6-1.3,0.6-2.1c0.1-0.7-0.1-1.5-0.6-2.1c-0.3-0.4-0.8-0.7-1.4-0.7c-0.5,0-1.1,0.3-1.4,0.7
		C861,390.1,860.7,390.8,860.8,391.5"/>
	<path id="Trazado_1018" class="st4" d="M867.4,385.2h1.2v10h-1.2V385.2z"/>
	<path id="Trazado_1019" class="st4" d="M875.4,392.9l1.3,0.2c-0.2,0.7-0.6,1.3-1.1,1.7c-0.6,0.4-1.3,0.6-2.1,0.6
		c-0.9,0-1.8-0.3-2.5-1c-0.7-0.8-1-1.7-0.9-2.7c-0.1-1,0.3-2,0.9-2.8c0.6-0.7,1.5-1,2.4-1c0.9,0,1.8,0.3,2.4,1
		c0.6,0.8,1,1.8,0.9,2.8c0,0.1,0,0.2,0,0.3h-5.4c0,0.7,0.2,1.3,0.7,1.8c0.4,0.4,0.9,0.6,1.5,0.6c0.4,0,0.8-0.1,1.1-0.4
		C875,393.7,875.3,393.3,875.4,392.9 M871.4,390.9h4c0-0.5-0.2-1-0.5-1.4c-0.4-0.5-0.9-0.7-1.5-0.7c-0.5,0-1,0.2-1.4,0.6
		C871.7,389.8,871.4,390.3,871.4,390.9"/>
	<path id="Trazado_1020" class="st4" d="M877.8,393l1.2-0.2c0,0.4,0.2,0.8,0.6,1.1c0.4,0.3,0.8,0.4,1.3,0.4c0.4,0,0.9-0.1,1.2-0.3
		c0.3-0.2,0.4-0.5,0.4-0.8c0-0.3-0.1-0.5-0.4-0.7c-0.4-0.2-0.8-0.3-1.2-0.4c-0.6-0.1-1.3-0.3-1.9-0.6c-0.3-0.1-0.6-0.4-0.8-0.7
		c-0.2-0.3-0.3-0.6-0.3-1c0-0.3,0.1-0.6,0.2-0.9c0.1-0.3,0.4-0.5,0.6-0.7c0.2-0.2,0.5-0.3,0.8-0.4c0.3-0.1,0.7-0.1,1.1-0.1
		c0.5,0,1,0.1,1.5,0.2c0.4,0.1,0.7,0.4,0.9,0.7c0.2,0.3,0.4,0.7,0.4,1.1l-1.2,0.2c0-0.3-0.2-0.6-0.5-0.9c-0.3-0.2-0.7-0.3-1.1-0.3
		c-0.4,0-0.8,0.1-1.2,0.3c-0.2,0.1-0.4,0.4-0.4,0.7c0,0.2,0.1,0.3,0.1,0.4c0.1,0.1,0.3,0.3,0.5,0.3c0.1,0,0.5,0.1,1.1,0.3
		c0.6,0.2,1.2,0.3,1.8,0.6c0.3,0.1,0.6,0.4,0.8,0.6c0.2,0.3,0.3,0.7,0.3,1c0,0.4-0.1,0.8-0.4,1.2c-0.3,0.4-0.6,0.7-1,0.8
		c-0.5,0.2-1,0.3-1.5,0.3c-0.8,0-1.5-0.2-2.1-0.6C878.2,394.3,877.8,393.7,877.8,393"/>
	<path id="Trazado_1021" class="st4" d="M983.5,381.8c0.6,0.4,1.4,0.6,2.2,0.6c1.2,0,2-0.7,2-1.6c0-0.9-0.5-1.4-1.8-1.9
		c-1.5-0.6-2.5-1.4-2.5-2.7c0-1.5,1.2-2.5,3-2.5c0.7,0,1.4,0.1,2.1,0.5l-0.3,1c-0.5-0.3-1.1-0.5-1.8-0.4c-1.3,0-1.8,0.8-1.8,1.4
		c0,0.9,0.6,1.3,1.9,1.8c1.6,0.6,2.4,1.4,2.4,2.8c0,1.4-1.1,2.7-3.3,2.7c-0.8,0-1.7-0.2-2.4-0.6L983.5,381.8z"/>
	<path id="Trazado_1022" class="st4" d="M996.7,379.8c0.2,1.8-1.2,3.4-3,3.6c-0.1,0-0.2,0-0.3,0c-1.8,0-3.2-1.4-3.2-3.2
		c0-0.1,0-0.2,0-0.3c-0.1-1.8,1.2-3.4,3-3.5c0.1,0,0.2,0,0.3,0c1.8,0,3.2,1.4,3.3,3.1C996.7,379.6,996.7,379.7,996.7,379.8
		 M991.4,379.9c0,1.5,0.8,2.6,2,2.6c1.2,0,2-1.1,2-2.6c0-1.1-0.6-2.6-2-2.6C992,377.3,991.4,378.6,991.4,379.9"/>
	<path id="Trazado_1024" class="st4" d="M998.2,373.4h1.2v9.9h-1.2V373.4z"/>
	<path id="Trazado_1025" class="st4" d="M1007.6,379.8c0.2,1.8-1.2,3.4-3,3.6c-0.1,0-0.2,0-0.3,0c-1.8,0-3.2-1.4-3.2-3.2
		c0-0.1,0-0.2,0-0.3c-0.1-1.8,1.2-3.4,3-3.5c0.1,0,0.2,0,0.3,0c1.8,0,3.2,1.4,3.3,3.1C1007.6,379.6,1007.6,379.7,1007.6,379.8
		 M1002.3,379.9c0,1.5,0.8,2.6,2,2.6c1.2,0,2-1.1,2-2.6c0-1.1-0.6-2.6-2-2.6S1002.3,378.6,1002.3,379.9"/>
	<path id="Trazado_1026" class="st4" d="M1012.6,376.5l1.3,3.8c0.2,0.6,0.4,1.2,0.5,1.7h0c0.2-0.6,0.3-1.1,0.6-1.7l1.3-3.8h1.3
		l-2.6,6.7h-1.2l-2.6-6.7H1012.6z"/>
	<path id="Trazado_1027" class="st4" d="M1023.5,381.6c0,0.5,0,1.1,0.1,1.6h-1.1l-0.1-0.8h0c-0.5,0.6-1.3,1-2.1,1
		c-1.1,0.1-2-0.7-2.1-1.8c0-0.1,0-0.1,0-0.2c0-1.6,1.4-2.5,4-2.5v-0.1c0.1-0.8-0.4-1.4-1.2-1.5c-0.1,0-0.2,0-0.3,0
		c-0.6,0-1.2,0.2-1.8,0.5l-0.3-0.8c0.7-0.4,1.4-0.6,2.2-0.6c2.1,0,2.6,1.4,2.6,2.7V381.6z M1022.3,379.8c-1.3,0-2.9,0.2-2.9,1.5
		c-0.1,0.6,0.4,1.1,1,1.2c0.1,0,0.1,0,0.2,0c0.7,0,1.4-0.4,1.7-1.1c0-0.1,0.1-0.3,0.1-0.4V379.8z"/>
	<path id="Trazado_1028" class="st4" d="M1025.4,378.6c0-0.8,0-1.5-0.1-2.1h1.1l0.1,1.3h0c0.2-0.8,1-1.4,1.9-1.5c0.1,0,0.2,0,0.3,0
		v1.2c-0.1,0-0.3,0-0.4,0c-0.9,0-1.6,0.7-1.6,1.6c0,0.2,0,0.4,0,0.6v3.6h-1.2V378.6z"/>
	<path id="Trazado_1029" class="st4" d="M1031.4,374.6c0,0.4-0.3,0.7-0.7,0.8c0,0,0,0-0.1,0c-0.4,0-0.7-0.3-0.7-0.7c0,0,0,0,0,0
		c0-0.4,0.3-0.8,0.7-0.8c0,0,0,0,0,0C1031.1,373.9,1031.4,374.2,1031.4,374.6C1031.4,374.6,1031.4,374.6,1031.4,374.6 M1030,376.5
		h1.2v6.7h-1.2V376.5z"/>
	<path id="Trazado_1030" class="st4" d="M1038,381.6c0,0.5,0,1.1,0.1,1.6h-1.1l-0.1-0.8h0c-0.5,0.6-1.3,1-2.1,1
		c-1.1,0.1-2-0.7-2.1-1.8c0-0.1,0-0.1,0-0.2c0-1.6,1.4-2.5,4-2.5v-0.1c0.1-0.8-0.4-1.4-1.2-1.5c-0.1,0-0.2,0-0.3,0
		c-0.6,0-1.2,0.2-1.8,0.5l-0.3-0.8c0.7-0.4,1.4-0.6,2.2-0.6c2.1,0,2.6,1.4,2.6,2.7V381.6z M1036.8,379.8c-1.3,0-2.8,0.2-2.8,1.5
		c-0.1,0.6,0.4,1.1,1,1.2c0.1,0,0.1,0,0.2,0c0.7,0,1.4-0.4,1.7-1.1c0-0.1,0.1-0.3,0.1-0.4V379.8z"/>
	<path id="Trazado_1031" class="st4" d="M1040,373.4h1.2v4.2h0c0.5-0.8,1.4-1.3,2.3-1.2c1.7,0,2.8,1.4,2.8,3.4c0,2.4-1.5,3.6-3,3.6
		c-0.9,0.1-1.8-0.4-2.3-1.2h0l-0.1,1.1h-1c0-0.5,0.1-1.1,0.1-1.7V373.4z M1041.2,380.6c0,0.1,0,0.3,0.1,0.4c0.2,0.8,1,1.4,1.8,1.4
		c1.3,0,2-1,2-2.6c0-1.3-0.7-2.5-2-2.5c-1.1,0.1-1.9,0.9-1.9,2V380.6z"/>
	<path id="Trazado_1033" class="st4" d="M1047.9,373.4h1.2v9.9h-1.2V373.4z"/>
	<path id="Trazado_1034" class="st4" d="M1051.9,380.1c-0.1,1.2,0.8,2.2,1.9,2.3c0.1,0,0.2,0,0.4,0c0.6,0,1.3-0.1,1.9-0.3l0.2,0.9
		c-0.7,0.3-1.5,0.5-2.3,0.4c-1.7,0.1-3.2-1.2-3.3-2.9c0-0.2,0-0.3,0-0.5c0-2,1.2-3.6,3.2-3.6c2.2,0,2.8,1.9,2.8,3.2
		c0,0.2,0,0.4,0,0.6H1051.9z M1055.5,379.2c0.1-0.9-0.5-1.8-1.5-2c-0.1,0-0.1,0-0.2,0c-1,0.1-1.9,0.9-1.9,2H1055.5z"/>
	<path id="Trazado_1035" class="st4" d="M1058,382c0.5,0.3,1.1,0.5,1.6,0.5c0.9,0,1.3-0.4,1.3-1s-0.3-0.9-1.2-1.2
		c-1.2-0.5-1.8-1.1-1.8-1.9c0.1-1.1,1-2,2.2-2c0,0,0.1,0,0.1,0c0.6,0,1.1,0.1,1.6,0.4l-0.3,0.9c-0.4-0.3-0.9-0.4-1.4-0.4
		c-0.7,0-1.1,0.4-1.1,0.9c0,0.6,0.4,0.8,1.3,1.2c1.2,0.4,1.8,1,1.8,2c0,1.2-0.9,2-2.5,2c-0.7,0-1.3-0.2-1.9-0.5L1058,382z"/>
	<path id="Trazado_1036" class="st4" d="M1066.6,383.3v-9.4h1.3l3,4.7c0.6,1,1.2,2,1.7,3l0,0c-0.1-1.2-0.1-2.4-0.1-3.8v-3.9h1.1v9.4
		h-1.2l-3-4.8c-0.6-1-1.2-2-1.7-3.1l0,0c0.1,1.2,0.1,2.3,0.1,3.9v4H1066.6z"/>
	<path id="Trazado_1037" class="st4" d="M1083.8,378.5c0,3.2-2,4.9-4.4,4.9c-2.5,0-4.2-1.9-4.2-4.8c0-3,1.8-4.9,4.3-4.9
		C1082.1,373.7,1083.8,375.7,1083.8,378.5 M1076.5,378.6c0,2,1.1,3.8,3,3.8s3-1.8,3-3.9c0-1.9-1-3.8-3-3.8
		S1076.5,376.6,1076.5,378.6"/>
	<path id="Trazado_1038" class="st4" d="M1089.9,383.3l-3.1-9.4h1.3l1.5,4.6c0.4,1.3,0.7,2.4,1,3.5h0c0.3-1.1,0.6-2.3,1.1-3.5
		l1.6-4.6h1.3l-3.4,9.4H1089.9z"/>
	<path id="Trazado_1040" class="st4" d="M1100.4,378.9h-3.6v3.4h4.1v1h-5.3v-9.4h5.1v1h-3.9v3h3.6V378.9z"/>
	<path id="Trazado_1041" class="st4" d="M1110.3,379.1c-0.1-1.3-0.2-2.9-0.2-4h0c-0.3,1.1-0.7,2.3-1.2,3.6l-1.7,4.5h-0.9l-1.5-4.5
		c-0.4-1.3-0.8-2.5-1.1-3.6h0c0,1.2-0.1,2.7-0.2,4.1l-0.2,4h-1.2l0.7-9.4h1.5l1.6,4.5c0.4,1.2,0.7,2.2,0.9,3.2h0
		c0.3-0.9,0.6-2,1-3.2l1.7-4.5h1.5l0.6,9.4h-1.2L1110.3,379.1z"/>
	<path id="Trazado_1042" class="st4" d="M1113.3,377.6c0-0.5,0.3-0.8,0.8-0.9c0,0,0,0,0.1,0c0.4,0,0.8,0.3,0.8,0.8c0,0,0,0.1,0,0.1
		c0,0.4-0.3,0.8-0.8,0.9c0,0-0.1,0-0.1,0C1113.6,378.5,1113.3,378.1,1113.3,377.6C1113.3,377.7,1113.3,377.7,1113.3,377.6
		 M1113.3,382.5c0-0.5,0.3-0.8,0.8-0.9c0,0,0,0,0.1,0c0.4,0,0.8,0.3,0.8,0.8c0,0,0,0.1,0,0.1c0,0.4-0.3,0.8-0.8,0.9c0,0-0.1,0-0.1,0
		C1113.6,383.4,1113.3,383,1113.3,382.5C1113.3,382.6,1113.3,382.6,1113.3,382.5"/>
	<path id="Trazado_1044" class="st4" d="M974.9,409.4h3.4v-0.9h-3.4V409.4z"/>
	<path id="Trazado_1045" class="st4" d="M982.7,403.5c0.9-0.1,1.7-0.2,2.6-0.2c1.4-0.1,2.7,0.3,3.8,1.2c0.9,0.9,1.4,2.1,1.3,3.4
		c0.1,1.3-0.4,2.7-1.3,3.6c-1.2,1-2.6,1.5-4.2,1.3c-0.7,0-1.5,0-2.2-0.1V403.5z M983.9,411.8c0.4,0,0.8,0.1,1.2,0.1c2.6,0,4-1.4,4-4
		c0-2.2-1.2-3.6-3.8-3.6c-0.5,0-1,0-1.4,0.1V411.8z"/>
	<path id="Trazado_1046" class="st4" d="M996.7,411.1c0,0.5,0,1.1,0.1,1.6h-1.1l-0.1-0.8h0c-0.5,0.6-1.3,1-2.1,1
		c-1.1,0.1-2-0.7-2.1-1.8c0-0.1,0-0.1,0-0.2c0-1.6,1.4-2.5,4-2.5v-0.1c0.1-0.8-0.4-1.4-1.2-1.5c-0.1,0-0.2,0-0.3,0
		c-0.6,0-1.2,0.2-1.8,0.5l-0.3-0.8c0.7-0.4,1.4-0.6,2.2-0.6c2.1,0,2.6,1.4,2.6,2.7V411.1z M995.5,409.3c-1.3,0-2.8,0.2-2.8,1.5
		c-0.1,0.6,0.4,1.1,1,1.2c0.1,0,0.1,0,0.2,0c0.7,0,1.4-0.4,1.7-1.1c0-0.1,0.1-0.3,0.1-0.4V409.3z"/>
	<path id="Trazado_1047" class="st4" d="M1000.1,404.4v1.6h1.8v0.9h-1.8v3.6c0,0.8,0.2,1.3,0.9,1.3c0.2,0,0.5,0,0.7-0.1l0.1,0.9
		c-0.3,0.1-0.7,0.2-1.1,0.2c-0.5,0-1-0.2-1.3-0.5c-0.4-0.5-0.5-1.1-0.5-1.8v-3.7h-1V406h1v-1.3L1000.1,404.4z"/>
	<path id="Trazado_1048" class="st4" d="M1009.2,409.3c0.2,1.8-1.2,3.4-3,3.6c-0.1,0-0.2,0-0.3,0c-1.8,0-3.2-1.4-3.2-3.2
		c0-0.1,0-0.2,0-0.3c-0.1-1.8,1.2-3.4,3-3.5c0.1,0,0.2,0,0.3,0c1.8,0,3.2,1.4,3.3,3.1C1009.2,409.1,1009.2,409.2,1009.2,409.3
		 M1003.9,409.4c0,1.5,0.8,2.6,2,2.6c1.2,0,2-1.1,2-2.6c0-1.1-0.6-2.6-2-2.6S1003.9,408.1,1003.9,409.4"/>
	<path id="Trazado_1049" class="st4" d="M1010.6,411.5c0.5,0.3,1.1,0.5,1.6,0.5c0.9,0,1.3-0.4,1.3-1s-0.3-0.9-1.2-1.2
		c-1.2-0.4-1.8-1.1-1.8-1.9c0.1-1.1,1-2,2.2-2c0,0,0.1,0,0.1,0c0.6,0,1.1,0.1,1.6,0.4l-0.3,0.9c-0.4-0.3-0.9-0.4-1.4-0.4
		c-0.7,0-1.1,0.4-1.1,0.9c0,0.6,0.4,0.8,1.3,1.2c1.2,0.4,1.8,1,1.8,2c0,1.2-0.9,2-2.5,2c-0.7,0-1.3-0.2-1.9-0.5L1010.6,411.5z"/>
	<path id="Trazado_1050" class="st4" d="M1019.2,408.2c0-0.9,0-1.6-0.1-2.2h1.1l0.1,1.2h0c0.5-0.8,1.4-1.3,2.4-1.3
		c1.6,0,2.9,1.4,2.9,3.4c0,2.4-1.5,3.6-3.1,3.6c-0.8,0-1.6-0.4-2.1-1.1h0v3.7h-1.2V408.2z M1020.4,410c0,1,0.8,1.9,1.8,1.9
		c0,0,0,0,0,0c1.3,0,2-1.1,2-2.6c0-1.3-0.7-2.5-2-2.5c-0.9,0-1.7,0.6-1.9,1.5c0,0.2-0.1,0.3-0.1,0.5V410z"/>
	<path id="Trazado_1051" class="st4" d="M1027.8,409.6c-0.1,1.2,0.8,2.2,1.9,2.3c0.1,0,0.2,0,0.4,0c0.6,0,1.3-0.1,1.9-0.3l0.2,0.9
		c-0.7,0.3-1.5,0.5-2.3,0.4c-1.7,0.1-3.2-1.2-3.3-2.9c0-0.2,0-0.3,0-0.5c0-2,1.2-3.6,3.2-3.6c2.2,0,2.8,1.9,2.8,3.2
		c0,0.2,0,0.4,0,0.6H1027.8z M1031.4,408.7c0.1-0.9-0.5-1.8-1.5-2c-0.1,0-0.1,0-0.2,0c-1,0.1-1.9,0.9-1.9,2H1031.4z"/>
	<path id="Trazado_1052" class="st4" d="M1034.1,408.1c0-0.8,0-1.5-0.1-2.1h1.1l0.1,1.3h0c0.2-0.8,1-1.4,1.9-1.5c0.1,0,0.2,0,0.3,0
		v1.2c-0.1,0-0.3,0-0.4,0c-0.9,0-1.6,0.7-1.6,1.6c0,0.2,0,0.4,0,0.6v3.6h-1.2V408.1z"/>
	<path id="Trazado_1053" class="st4" d="M1038.5,411.5c0.5,0.3,1.1,0.5,1.6,0.5c0.9,0,1.3-0.4,1.3-1s-0.3-0.9-1.2-1.2
		c-1.2-0.4-1.8-1.1-1.8-1.9c0.1-1.1,1-2,2.2-2c0,0,0.1,0,0.1,0c0.6,0,1.1,0.1,1.6,0.4l-0.3,0.9c-0.4-0.3-0.9-0.4-1.4-0.4
		c-0.7,0-1.1,0.4-1.1,0.9c0,0.6,0.4,0.8,1.3,1.2c1.2,0.4,1.8,1,1.8,2c0,1.2-0.9,2-2.5,2c-0.7,0-1.3-0.2-1.9-0.5L1038.5,411.5z"/>
	<path id="Trazado_1054" class="st4" d="M1050.2,409.3c0.2,1.8-1.2,3.4-3,3.6c-0.1,0-0.2,0-0.3,0c-1.8,0-3.2-1.4-3.2-3.2
		c0-0.1,0-0.2,0-0.3c-0.1-1.8,1.2-3.4,3-3.5c0.1,0,0.2,0,0.3,0c1.8,0,3.2,1.4,3.3,3.1C1050.2,409.1,1050.2,409.2,1050.2,409.3
		 M1044.9,409.4c0,1.5,0.8,2.6,2,2.6c1.2,0,2-1.1,2-2.6c0-1.1-0.6-2.6-2-2.6C1045.5,406.8,1044.9,408.1,1044.9,409.4"/>
	<path id="Trazado_1055" class="st4" d="M1051.8,407.8c0-0.7,0-1.3-0.1-1.8h1.1l0.1,1.1h0c0.5-0.8,1.3-1.3,2.2-1.3
		c0.9,0,2.4,0.6,2.4,2.9v4h-1.2v-3.9c0-1.1-0.4-2-1.6-2c-0.8,0-1.4,0.5-1.6,1.3c-0.1,0.2-0.1,0.4-0.1,0.6v4h-1.2V407.8z"/>
	<path id="Trazado_1056" class="st4" d="M1064.2,411.1c0,0.5,0,1.1,0.1,1.6h-1.1l-0.1-0.8h0c-0.5,0.6-1.3,1-2.1,1
		c-1.1,0.1-2-0.7-2.1-1.8c0-0.1,0-0.1,0-0.2c0-1.6,1.4-2.5,4-2.5v-0.1c0.1-0.8-0.4-1.4-1.2-1.5c-0.1,0-0.2,0-0.3,0
		c-0.6,0-1.2,0.2-1.8,0.5l-0.3-0.8c0.7-0.4,1.4-0.6,2.2-0.6c2.1,0,2.6,1.4,2.6,2.7V411.1z M1063,409.3c-1.3,0-2.8,0.2-2.8,1.5
		c-0.1,0.6,0.4,1.1,1,1.2c0.1,0,0.1,0,0.2,0c0.7,0,1.4-0.4,1.7-1.1c0-0.1,0.1-0.3,0.1-0.4V409.3z"/>
	<path id="Trazado_1058" class="st4" d="M1066.2,402.8h1.2v9.9h-1.2V402.8z"/>
	<path id="Trazado_1059" class="st4" d="M1070.2,409.6c-0.1,1.2,0.8,2.2,1.9,2.3c0.1,0,0.2,0,0.4,0c0.6,0,1.3-0.1,1.9-0.3l0.2,0.9
		c-0.7,0.3-1.5,0.5-2.3,0.4c-1.7,0.1-3.2-1.2-3.3-2.9c0-0.2,0-0.3,0-0.5c0-2,1.2-3.6,3.2-3.6c2.2,0,2.8,1.9,2.8,3.2
		c0,0.2,0,0.4,0,0.6H1070.2z M1073.7,408.7c0.1-1-0.5-1.8-1.5-2c-0.1,0-0.1,0-0.2,0c-1,0.1-1.9,0.9-1.9,2H1073.7z"/>
	<path id="Trazado_1060" class="st4" d="M1076.3,411.5c0.5,0.3,1.1,0.5,1.6,0.5c0.9,0,1.3-0.4,1.3-1c0-0.6-0.3-0.9-1.2-1.2
		c-1.2-0.4-1.8-1.1-1.8-1.9c0.1-1.1,1-2,2.2-2c0,0,0.1,0,0.1,0c0.6,0,1.1,0.1,1.6,0.4l-0.3,0.9c-0.4-0.3-0.9-0.4-1.4-0.4
		c-0.7,0-1.1,0.4-1.1,0.9c0,0.6,0.4,0.8,1.3,1.2c1.2,0.4,1.8,1,1.8,2c0,1.2-0.9,2-2.5,2c-0.7,0-1.3-0.2-1.9-0.5L1076.3,411.5z"/>
	<path id="Trazado_1062" class="st4" d="M974.9,424.1h3.4v-0.9h-3.4V424.1z"/>
	<path id="Trazado_1063" class="st4" d="M982.7,418.2c0.9-0.1,1.7-0.2,2.6-0.2c1.4-0.1,2.7,0.3,3.8,1.2c0.9,0.9,1.4,2.1,1.3,3.4
		c0.1,1.3-0.4,2.7-1.3,3.6c-1.2,1-2.6,1.5-4.2,1.3c-0.7,0-1.5,0-2.2-0.1V418.2z M983.9,426.5c0.4,0,0.8,0.1,1.2,0.1c2.6,0,4-1.4,4-4
		c0-2.2-1.2-3.6-3.8-3.6c-0.5,0-1,0-1.4,0.1V426.5z"/>
	<path id="Trazado_1064" class="st4" d="M996.7,425.8c0,0.5,0,1.1,0.1,1.6h-1.1l-0.1-0.8h0c-0.5,0.6-1.3,1-2.1,1
		c-1.1,0.1-2-0.7-2.1-1.8c0-0.1,0-0.1,0-0.2c0-1.6,1.4-2.5,4-2.5V423c0.1-0.8-0.4-1.4-1.2-1.5c-0.1,0-0.2,0-0.3,0
		c-0.6,0-1.2,0.2-1.8,0.5l-0.3-0.8c0.7-0.4,1.4-0.6,2.2-0.6c2.1,0,2.6,1.4,2.6,2.7V425.8z M995.5,424c-1.3,0-2.8,0.2-2.8,1.5
		c-0.1,0.6,0.4,1.1,1,1.2c0.1,0,0.1,0,0.2,0c0.7,0,1.4-0.4,1.7-1.1c0-0.1,0.1-0.3,0.1-0.4V424z"/>
	<path id="Trazado_1065" class="st4" d="M1000.1,419.1v1.6h1.8v0.9h-1.8v3.6c0,0.8,0.2,1.3,0.9,1.3c0.2,0,0.5,0,0.7-0.1l0.1,0.9
		c-0.3,0.1-0.7,0.2-1.1,0.2c-0.5,0-1-0.2-1.3-0.5c-0.4-0.5-0.5-1.1-0.5-1.8v-3.7h-1v-0.9h1v-1.3L1000.1,419.1z"/>
	<path id="Trazado_1066" class="st4" d="M1009.2,424c0.2,1.8-1.2,3.4-3,3.6c-0.1,0-0.2,0-0.3,0c-1.8,0-3.2-1.4-3.2-3.2
		c0-0.1,0-0.2,0-0.3c-0.1-1.8,1.2-3.4,3-3.5c0.1,0,0.2,0,0.3,0c1.8,0,3.2,1.4,3.3,3.1C1009.2,423.8,1009.2,423.9,1009.2,424
		 M1003.9,424.1c0,1.5,0.8,2.6,2,2.6c1.2,0,2-1.1,2-2.6c0-1.1-0.6-2.6-2-2.6S1003.9,422.8,1003.9,424.1"/>
	<path id="Trazado_1067" class="st4" d="M1010.6,426.2c0.5,0.3,1.1,0.5,1.6,0.5c0.9,0,1.3-0.4,1.3-1c0-0.6-0.3-0.9-1.2-1.2
		c-1.2-0.4-1.8-1.1-1.8-1.9c0.1-1.1,1-2,2.2-2c0,0,0.1,0,0.1,0c0.6,0,1.1,0.1,1.6,0.4l-0.3,0.9c-0.4-0.3-0.9-0.4-1.4-0.4
		c-0.7,0-1.1,0.4-1.1,0.9c0,0.6,0.4,0.8,1.3,1.2c1.2,0.4,1.8,1,1.8,2c0,1.2-0.9,2-2.5,2c-0.7,0-1.3-0.2-1.9-0.5L1010.6,426.2z"/>
	<path id="Trazado_1068" class="st4" d="M1019.2,422.8c0-0.8,0-1.5-0.1-2.1h1.1l0.1,1.3h0c0.2-0.8,1-1.4,1.9-1.5c0.1,0,0.2,0,0.3,0
		v1.2c-0.1,0-0.3,0-0.4,0c-0.9,0-1.6,0.7-1.6,1.6c0,0.2,0,0.4,0,0.6v3.6h-1.2V422.8z"/>
	<path id="Trazado_1069" class="st4" d="M1024.3,424.3c-0.1,1.2,0.8,2.2,1.9,2.3c0.1,0,0.2,0,0.4,0c0.6,0,1.3-0.1,1.9-0.3l0.2,0.9
		c-0.7,0.3-1.5,0.5-2.3,0.4c-1.7,0.1-3.2-1.2-3.3-2.9c0-0.2,0-0.3,0-0.5c0-2,1.2-3.6,3.2-3.6c2.2,0,2.8,1.9,2.8,3.2
		c0,0.2,0,0.4,0,0.6H1024.3z M1027.9,423.4c0.1-0.9-0.5-1.8-1.5-2c-0.1,0-0.1,0-0.2,0c-1,0.1-1.9,0.9-1.9,2H1027.9z"/>
	<path id="Trazado_1070" class="st4" d="M1030.4,426.2c0.5,0.3,1.1,0.5,1.6,0.5c0.9,0,1.3-0.4,1.3-1c0-0.6-0.3-0.9-1.2-1.2
		c-1.2-0.4-1.8-1.1-1.8-1.9c0.1-1.1,1-2,2.2-2c0,0,0.1,0,0.1,0c0.6,0,1.1,0.1,1.6,0.4l-0.3,0.9c-0.4-0.3-0.9-0.4-1.4-0.4
		c-0.7,0-1.1,0.4-1.1,0.9c0,0.6,0.4,0.8,1.3,1.2c1.2,0.4,1.8,1,1.8,2c0,1.2-0.9,2-2.5,2c-0.7,0-1.3-0.2-1.9-0.5L1030.4,426.2z"/>
	<path id="Trazado_1071" class="st4" d="M1037.5,418.8c0,0.4-0.3,0.7-0.7,0.8c0,0,0,0-0.1,0c-0.4,0-0.7-0.3-0.7-0.7c0,0,0,0,0,0
		c0-0.4,0.3-0.8,0.7-0.8c0,0,0,0,0,0C1037.1,418,1037.4,418.4,1037.5,418.8C1037.5,418.8,1037.5,418.8,1037.5,418.8 M1036.1,420.7
		h1.2v6.7h-1.2V420.7z"/>
	<path id="Trazado_1072" class="st4" d="M1045.1,417.6v8.1c0,0.6,0,1.3,0.1,1.7h-1.1l-0.1-1.2h0c-0.4,0.8-1.3,1.4-2.3,1.3
		c-1.6,0-2.9-1.4-2.9-3.4c0-2.2,1.4-3.6,3-3.6c0.8-0.1,1.6,0.3,2,1h0v-4H1045.1z M1043.9,423.4c0-0.2,0-0.3-0.1-0.5
		c-0.2-0.8-0.9-1.4-1.8-1.4c-1.3,0-2,1.1-2,2.6c0,1.4,0.7,2.5,2,2.5c0.9,0,1.6-0.6,1.8-1.5c0-0.2,0.1-0.4,0.1-0.5V423.4z"/>
	<path id="Trazado_1073" class="st4" d="M1047.9,424.3c-0.1,1.2,0.8,2.2,1.9,2.3c0.1,0,0.2,0,0.4,0c0.6,0,1.3-0.1,1.9-0.3l0.2,0.9
		c-0.7,0.3-1.5,0.5-2.3,0.4c-1.7,0.1-3.2-1.2-3.3-2.9c0-0.2,0-0.3,0-0.5c0-2,1.2-3.6,3.2-3.6c2.2,0,2.8,1.9,2.8,3.2
		c0,0.2,0,0.4,0,0.6H1047.9z M1051.5,423.4c0.1-0.9-0.5-1.8-1.5-2c-0.1,0-0.1,0-0.2,0c-1,0.1-1.9,0.9-1.9,2H1051.5z"/>
	<path id="Trazado_1074" class="st4" d="M1054.2,422.5c0-0.7,0-1.3-0.1-1.8h1.1l0.1,1.1h0c0.5-0.8,1.3-1.3,2.2-1.3
		c0.9,0,2.4,0.6,2.4,2.9v4h-1.2v-3.9c0-1.1-0.4-2-1.6-2c-0.8,0-1.4,0.5-1.6,1.3c-0.1,0.2-0.1,0.4-0.1,0.6v4h-1.2V422.5z"/>
	<path id="Trazado_1075" class="st4" d="M1066.7,427.2c-0.6,0.3-1.3,0.4-1.9,0.4c-1.8,0.1-3.3-1.3-3.4-3c0-0.1,0-0.3,0-0.4
		c-0.1-1.9,1.4-3.5,3.3-3.6c0.1,0,0.2,0,0.3,0c0.6,0,1.2,0.1,1.7,0.4l-0.3,0.9c-0.4-0.2-0.9-0.3-1.4-0.3c-1.3,0-2.4,1-2.4,2.3
		c0,0.1,0,0.2,0,0.3c-0.1,1.3,0.8,2.4,2.1,2.5c0.1,0,0.2,0,0.2,0c0.5,0,1-0.1,1.5-0.3L1066.7,427.2z"/>
	<path id="Trazado_1076" class="st4" d="M1069.5,418.8c0,0.4-0.3,0.7-0.7,0.8c0,0,0,0-0.1,0c-0.4,0-0.7-0.3-0.7-0.7c0,0,0,0,0,0
		c0-0.4,0.3-0.8,0.7-0.8c0,0,0,0,0,0C1069.1,418,1069.5,418.4,1069.5,418.8C1069.5,418.8,1069.5,418.8,1069.5,418.8 M1068.1,420.7
		h1.2v6.7h-1.2V420.7z"/>
	<path id="Trazado_1077" class="st4" d="M1076.1,425.8c0,0.5,0,1.1,0.1,1.6h-1.1l-0.1-0.8h0c-0.5,0.6-1.3,1-2.1,1
		c-1.1,0.1-2-0.7-2.1-1.8c0-0.1,0-0.1,0-0.2c0-1.6,1.4-2.5,4-2.5V423c0.1-0.8-0.4-1.4-1.2-1.5c-0.1,0-0.2,0-0.3,0
		c-0.6,0-1.2,0.2-1.8,0.5l-0.3-0.8c0.7-0.4,1.4-0.6,2.2-0.6c2.1,0,2.6,1.4,2.6,2.7V425.8z M1074.9,424c-1.3,0-2.8,0.2-2.8,1.5
		c-0.1,0.6,0.4,1.1,1,1.2c0.1,0,0.1,0,0.2,0c0.7,0,1.4-0.4,1.7-1.1c0-0.1,0.1-0.3,0.1-0.4V424z"/>
	<path id="Trazado_1079" class="st4" d="M974.9,438.8h3.4v-0.9h-3.4V438.8z"/>
	<path id="Trazado_1080" class="st4" d="M982.7,432.9c0.9-0.1,1.7-0.2,2.6-0.2c1.4-0.1,2.7,0.3,3.8,1.2c0.9,0.9,1.4,2.1,1.3,3.4
		c0.1,1.3-0.4,2.7-1.3,3.6c-1.2,1-2.6,1.5-4.2,1.3c-0.7,0-1.5,0-2.2-0.1V432.9z M983.9,441.2c0.4,0,0.8,0.1,1.2,0.1c2.6,0,4-1.4,4-4
		c0-2.2-1.2-3.6-3.8-3.6c-0.5,0-1,0-1.4,0.1V441.2z"/>
	<path id="Trazado_1081" class="st4" d="M996.7,440.5c0,0.5,0,1.1,0.1,1.6h-1.1l-0.1-0.8h0c-0.5,0.6-1.3,1-2.1,1
		c-1.1,0.1-2-0.7-2.1-1.8c0-0.1,0-0.1,0-0.2c0-1.6,1.4-2.5,4-2.5v-0.1c0.1-0.8-0.4-1.4-1.2-1.5c-0.1,0-0.2,0-0.3,0
		c-0.6,0-1.2,0.2-1.8,0.5l-0.3-0.8c0.7-0.4,1.4-0.6,2.2-0.6c2.1,0,2.6,1.4,2.6,2.7V440.5z M995.5,438.7c-1.3,0-2.8,0.2-2.8,1.5
		c-0.1,0.6,0.4,1.1,1,1.2c0.1,0,0.1,0,0.2,0c0.7,0,1.4-0.4,1.7-1.1c0-0.1,0.1-0.3,0.1-0.4V438.7z"/>
	<path id="Trazado_1082" class="st4" d="M1000.1,433.8v1.6h1.8v0.9h-1.8v3.6c0,0.8,0.2,1.3,0.9,1.3c0.2,0,0.5,0,0.7-0.1l0.1,0.9
		c-0.3,0.1-0.7,0.2-1.1,0.2c-0.5,0-1-0.2-1.3-0.5c-0.4-0.5-0.5-1.1-0.5-1.8v-3.7h-1v-0.9h1v-1.2L1000.1,433.8z"/>
	<path id="Trazado_1083" class="st4" d="M1009.2,438.7c0.2,1.8-1.2,3.4-3,3.6c-0.1,0-0.2,0-0.3,0c-1.8,0-3.2-1.4-3.2-3.2
		c0-0.1,0-0.2,0-0.3c-0.1-1.8,1.2-3.4,3-3.5c0.1,0,0.2,0,0.3,0c1.8,0,3.2,1.4,3.3,3.1C1009.2,438.5,1009.2,438.6,1009.2,438.7
		 M1003.9,438.8c0,1.5,0.8,2.6,2,2.6c1.2,0,2-1.1,2-2.6c0-1.1-0.6-2.6-2-2.6S1003.9,437.5,1003.9,438.8"/>
	<path id="Trazado_1084" class="st4" d="M1010.6,440.9c0.5,0.3,1.1,0.5,1.6,0.5c0.9,0,1.3-0.4,1.3-1s-0.3-0.9-1.2-1.2
		c-1.2-0.5-1.8-1.1-1.8-1.9c0.1-1.1,1-2,2.2-2c0,0,0.1,0,0.1,0c0.6,0,1.1,0.1,1.6,0.4l-0.3,0.9c-0.4-0.3-0.9-0.4-1.4-0.4
		c-0.7,0-1.1,0.4-1.1,0.9c0,0.6,0.4,0.8,1.3,1.2c1.2,0.4,1.8,1,1.8,2c0,1.2-0.9,2-2.5,2c-0.7,0-1.3-0.2-1.9-0.5L1010.6,440.9z"/>
	<path id="Trazado_1085" class="st4" d="M1019,440.9c0.5,0.3,1.1,0.5,1.6,0.5c0.9,0,1.3-0.4,1.3-1s-0.3-0.9-1.2-1.2
		c-1.2-0.5-1.8-1.1-1.8-1.9c0.1-1.1,1-2,2.2-2c0,0,0.1,0,0.1,0c0.6,0,1.1,0.1,1.6,0.4l-0.3,0.9c-0.4-0.3-0.9-0.4-1.4-0.4
		c-0.7,0-1.1,0.4-1.1,0.9c0,0.6,0.4,0.8,1.3,1.2c1.2,0.4,1.8,1,1.8,2c0,1.2-0.9,2-2.5,2c-0.7,0-1.3-0.2-1.9-0.5L1019,440.9z"/>
	<path id="Trazado_1086" class="st4" d="M1030.8,438.7c0.2,1.8-1.2,3.4-3,3.6c-0.1,0-0.2,0-0.3,0c-1.8,0-3.2-1.4-3.2-3.2
		c0-0.1,0-0.2,0-0.3c-0.1-1.8,1.2-3.4,3-3.5c0.1,0,0.2,0,0.3,0c1.8,0,3.2,1.4,3.3,3.1C1030.8,438.5,1030.8,438.6,1030.8,438.7
		 M1025.5,438.8c0,1.5,0.8,2.6,2,2.6c1.2,0,2-1.1,2-2.6c0-1.1-0.6-2.6-2-2.6C1026.1,436.2,1025.5,437.5,1025.5,438.8"/>
	<path id="Trazado_1087" class="st4" d="M1032.4,432.3h1.2v4.2h0c0.5-0.8,1.4-1.3,2.3-1.2c1.7,0,2.8,1.4,2.8,3.4
		c0,2.4-1.5,3.6-3,3.6c-0.9,0.1-1.8-0.4-2.3-1.2h0l-0.1,1.1h-1c0-0.5,0.1-1.1,0.1-1.7V432.3z M1033.6,439.5c0,0.2,0,0.3,0.1,0.4
		c0.2,0.8,1,1.4,1.8,1.4c1.3,0,2-1,2-2.6c0-1.3-0.7-2.5-2-2.5c-0.9,0-1.6,0.6-1.8,1.5c0,0.2-0.1,0.3-0.1,0.5L1033.6,439.5z"/>
	<path id="Trazado_1088" class="st4" d="M1040.3,437.5c0-0.8,0-1.5-0.1-2.1h1.1l0.1,1.3h0c0.2-0.8,1-1.4,1.9-1.5c0.1,0,0.2,0,0.3,0
		v1.2c-0.1,0-0.3,0-0.4,0c-0.9,0-1.6,0.7-1.6,1.6c0,0.2,0,0.4,0,0.6v3.6h-1.2V437.5z"/>
	<path id="Trazado_1089" class="st4" d="M1045.4,439c-0.1,1.2,0.8,2.2,1.9,2.3c0.1,0,0.2,0,0.4,0c0.6,0,1.3-0.1,1.9-0.3l0.2,0.9
		c-0.7,0.3-1.5,0.5-2.3,0.4c-1.7,0.1-3.2-1.2-3.3-2.9c0-0.2,0-0.3,0-0.5c0-2,1.2-3.6,3.2-3.6c2.2,0,2.8,1.9,2.8,3.2
		c0,0.2,0,0.4,0,0.6H1045.4z M1048.9,438.1c0.1-0.9-0.5-1.8-1.5-2c-0.1,0-0.1,0-0.2,0c-1,0.1-1.9,0.9-1.9,2H1048.9z"/>
	<path id="Trazado_1090" class="st4" d="M1059.3,440.5c0,0.5,0,1.1,0.1,1.6h-1.1l-0.1-0.8h0c-0.5,0.6-1.3,1-2.1,1
		c-1.1,0.1-2-0.7-2.1-1.8c0-0.1,0-0.1,0-0.2c0-1.6,1.4-2.5,4-2.5v-0.1c0.1-0.8-0.4-1.4-1.2-1.5c-0.1,0-0.2,0-0.3,0
		c-0.6,0-1.2,0.2-1.8,0.5l-0.3-0.8c0.7-0.4,1.4-0.6,2.2-0.6c2.1,0,2.6,1.4,2.6,2.7V440.5z M1058.1,438.7c-1.3,0-2.8,0.2-2.8,1.5
		c-0.1,0.6,0.4,1.1,1,1.2c0.1,0,0.1,0,0.2,0c0.7,0,1.4-0.4,1.7-1.1c0-0.1,0.1-0.3,0.1-0.4V438.7z"/>
	<path id="Trazado_1091" class="st4" d="M1066.9,440.3c0,0.7,0,1.3,0.1,1.8h-1.1l-0.1-1.1h0c-0.5,0.8-1.3,1.3-2.2,1.2
		c-1.1,0-2.3-0.6-2.3-2.9v-3.9h1.2v3.7c0,1.3,0.4,2.2,1.5,2.2c0.7,0,1.4-0.5,1.6-1.1c0.1-0.2,0.1-0.4,0.1-0.6v-4.1h1.2V440.3z"/>
	<path id="Trazado_1092" class="st4" d="M1070.4,433.8v1.6h1.8v0.9h-1.8v3.6c0,0.8,0.2,1.3,0.9,1.3c0.2,0,0.5,0,0.7-0.1l0.1,0.9
		c-0.3,0.1-0.7,0.2-1.1,0.2c-0.5,0-1-0.2-1.3-0.5c-0.4-0.5-0.5-1.1-0.5-1.8v-3.7h-1v-0.9h1v-1.2L1070.4,433.8z"/>
	<path id="Trazado_1093" class="st4" d="M1079.6,438.7c0.2,1.8-1.2,3.4-3,3.6c-0.1,0-0.2,0-0.3,0c-1.8,0-3.2-1.4-3.2-3.2
		c0-0.1,0-0.2,0-0.3c-0.1-1.8,1.2-3.4,3-3.5c0.1,0,0.2,0,0.3,0c1.8,0,3.2,1.4,3.3,3.1C1079.6,438.5,1079.6,438.6,1079.6,438.7
		 M1074.2,438.8c0,1.5,0.8,2.6,2,2.6c1.2,0,2-1.1,2-2.6c0-1.1-0.6-2.6-2-2.6C1074.8,436.2,1074.2,437.5,1074.2,438.8"/>
	<path id="Trazado_1094" class="st4" d="M983.7,452.2c0-0.8,0-1.5-0.1-2.1h1.1l0.1,1.3h0c0.2-0.8,1-1.4,1.9-1.5c0.1,0,0.2,0,0.3,0
		v1.2c-0.1,0-0.3,0-0.4,0c-0.9,0-1.6,0.7-1.6,1.6c0,0.2,0,0.4,0,0.6v3.6h-1.2V452.2z"/>
	<path id="Trazado_1095" class="st4" d="M988.8,453.7c-0.1,1.2,0.8,2.2,1.9,2.3c0.1,0,0.2,0,0.4,0c0.6,0,1.3-0.1,1.9-0.3l0.2,0.9
		c-0.7,0.3-1.5,0.5-2.3,0.4c-1.7,0.1-3.2-1.2-3.3-2.9c0-0.2,0-0.3,0-0.5c0-2,1.2-3.6,3.2-3.6c2.2,0,2.8,1.9,2.8,3.2
		c0,0.2,0,0.4,0,0.6H988.8z M992.3,452.9c0.1-0.9-0.5-1.8-1.5-2c-0.1,0-0.1,0-0.2,0c-1,0.1-1.9,0.9-1.9,2H992.3z"/>
	<path id="Trazado_1096" class="st4" d="M999.8,456.6c-0.6,0.3-1.3,0.4-1.9,0.4c-1.8,0.1-3.3-1.3-3.4-3c0-0.1,0-0.3,0-0.4
		c-0.1-1.9,1.4-3.5,3.3-3.6c0.1,0,0.2,0,0.3,0c0.6,0,1.2,0.1,1.7,0.4l-0.3,0.9c-0.4-0.2-0.9-0.3-1.4-0.3c-1.3,0-2.4,1-2.4,2.3
		c0,0.1,0,0.2,0,0.3c-0.1,1.3,0.8,2.4,2.1,2.5c0.1,0,0.2,0,0.2,0c0.5,0,1-0.1,1.5-0.3L999.8,456.6z"/>
	<path id="Trazado_1097" class="st4" d="M1007.3,453.5c0.2,1.8-1.2,3.4-3,3.6c-0.1,0-0.2,0-0.3,0c-1.8,0-3.2-1.4-3.2-3.2
		c0-0.1,0-0.2,0-0.3c-0.1-1.8,1.2-3.4,3-3.5c0.1,0,0.2,0,0.3,0c1.8,0,3.2,1.4,3.3,3.1C1007.3,453.2,1007.3,453.3,1007.3,453.5
		 M1001.9,453.5c0,1.5,0.8,2.6,2,2.6c1.2,0,2-1.1,2-2.6c0-1.1-0.6-2.6-2-2.6C1002.6,450.9,1001.9,452.2,1001.9,453.5"/>
	<path id="Trazado_1098" class="st4" d="M1008.8,452c0-0.7,0-1.3-0.1-1.8h1.1l0.1,1.1h0c0.5-0.8,1.3-1.3,2.2-1.3
		c0.9,0,2.4,0.6,2.4,2.9v4h-1.2V453c0-1.1-0.4-2-1.6-2c-0.8,0-1.4,0.5-1.6,1.2c-0.1,0.2-0.1,0.4-0.1,0.6v4h-1.2V452z"/>
	<path id="Trazado_1099" class="st4" d="M1022.6,453.5c0.2,1.8-1.2,3.4-3,3.6c-0.1,0-0.2,0-0.3,0c-1.8,0-3.2-1.4-3.2-3.2
		c0-0.1,0-0.2,0-0.3c-0.1-1.8,1.2-3.4,3-3.5c0.1,0,0.2,0,0.3,0c1.8,0,3.2,1.4,3.3,3.1C1022.6,453.2,1022.6,453.3,1022.6,453.5
		 M1017.3,453.5c0,1.5,0.8,2.6,2,2.6c1.2,0,2-1.1,2-2.6c0-1.1-0.6-2.6-2-2.6S1017.3,452.2,1017.3,453.5"/>
	<path id="Trazado_1100" class="st4" d="M1029,456.6c-0.6,0.3-1.3,0.4-1.9,0.4c-1.8,0.1-3.3-1.3-3.4-3c0-0.1,0-0.3,0-0.4
		c-0.1-1.9,1.4-3.5,3.3-3.6c0.1,0,0.2,0,0.3,0c0.6,0,1.2,0.1,1.7,0.4l-0.3,0.9c-0.4-0.2-0.9-0.3-1.4-0.3c-1.3,0-2.4,1-2.4,2.3
		c0,0.1,0,0.2,0,0.3c-0.1,1.3,0.8,2.4,2.1,2.5c0.1,0,0.2,0,0.2,0c0.5,0,1-0.1,1.5-0.3L1029,456.6z"/>
	<path id="Trazado_1101" class="st4" d="M1031.8,448.3c0,0.4-0.3,0.7-0.7,0.8c0,0,0,0-0.1,0c-0.4,0-0.7-0.3-0.7-0.7c0,0,0,0,0-0.1
		c0-0.4,0.3-0.8,0.7-0.8c0,0,0,0,0,0C1031.4,447.5,1031.7,447.8,1031.8,448.3C1031.8,448.2,1031.8,448.2,1031.8,448.3 M1030.4,450.1
		h1.2v6.7h-1.2V450.1z"/>
	<path id="Trazado_1102" class="st4" d="M1033.7,452c0-0.7,0-1.3-0.1-1.8h1.1l0.1,1.1h0c0.4-0.8,1.2-1.3,2.1-1.2
		c0.9,0,1.6,0.5,1.9,1.3h0c0.2-0.3,0.4-0.6,0.8-0.9c0.4-0.3,0.9-0.5,1.5-0.5c0.9,0,2.2,0.6,2.2,2.9v3.9h-1.2v-3.8
		c0-1.3-0.5-2.1-1.5-2.1c-0.7,0-1.2,0.5-1.5,1.1c-0.1,0.2-0.1,0.4-0.1,0.6v4.2h-1.2v-4c0-1.1-0.5-1.8-1.4-1.8
		c-0.7,0-1.3,0.5-1.5,1.2c-0.1,0.2-0.1,0.4-0.1,0.6v4h-1.2V452z"/>
	<path id="Trazado_1103" class="st4" d="M1046.6,448.3c0,0.4-0.3,0.7-0.7,0.8c0,0,0,0-0.1,0c-0.4,0-0.7-0.3-0.7-0.7c0,0,0,0,0-0.1
		c0-0.4,0.3-0.8,0.7-0.8c0,0,0,0,0,0C1046.3,447.5,1046.6,447.8,1046.6,448.3C1046.6,448.2,1046.6,448.2,1046.6,448.3 M1045.2,450.1
		h1.2v6.7h-1.2V450.1z"/>
	<path id="Trazado_1104" class="st4" d="M1049.2,453.7c-0.1,1.2,0.8,2.2,1.9,2.3c0.1,0,0.2,0,0.4,0c0.6,0,1.3-0.1,1.9-0.3l0.2,0.9
		c-0.7,0.3-1.5,0.5-2.3,0.4c-1.7,0.1-3.2-1.2-3.3-2.9c0-0.2,0-0.3,0-0.5c0-2,1.2-3.6,3.2-3.6c2.2,0,2.8,1.9,2.8,3.2
		c0,0.2,0,0.4,0,0.6H1049.2z M1052.8,452.9c0.1-0.9-0.5-1.8-1.5-2c-0.1,0-0.1,0-0.2,0c-1,0.1-1.9,0.9-1.9,2H1052.8z"/>
	<path id="Trazado_1105" class="st4" d="M1055.5,452c0-0.7,0-1.3-0.1-1.8h1.1l0.1,1.1h0c0.5-0.8,1.3-1.3,2.2-1.3
		c0.9,0,2.4,0.6,2.4,2.9v4h-1.2V453c0-1.1-0.4-2-1.6-2c-0.8,0-1.4,0.5-1.6,1.2c-0.1,0.2-0.1,0.4-0.1,0.6v4h-1.2V452z"/>
	<path id="Trazado_1106" class="st4" d="M1064.6,448.5v1.6h1.8v0.9h-1.8v3.6c0,0.8,0.2,1.3,0.9,1.3c0.2,0,0.5,0,0.7-0.1l0.1,0.9
		c-0.3,0.1-0.7,0.2-1.1,0.2c-0.5,0-1-0.2-1.3-0.5c-0.4-0.5-0.5-1.1-0.5-1.8v-3.7h-1v-0.9h1v-1.3L1064.6,448.5z"/>
	<path id="Trazado_1107" class="st4" d="M1073.7,453.5c0.2,1.8-1.2,3.4-3,3.6c-0.1,0-0.2,0-0.3,0c-1.8,0-3.2-1.4-3.2-3.2
		c0-0.1,0-0.2,0-0.3c-0.1-1.8,1.2-3.4,3-3.5c0.1,0,0.2,0,0.3,0c1.8,0,3.2,1.4,3.2,3.1C1073.7,453.2,1073.7,453.3,1073.7,453.5
		 M1068.4,453.5c0,1.5,0.8,2.6,2,2.6c1.2,0,2-1.1,2-2.6c0-1.1-0.6-2.6-2-2.6C1069,450.9,1068.4,452.2,1068.4,453.5"/>
	<path id="Trazado_1110" class="st4" d="M974.9,468.3h3.4v-0.9h-3.4V468.3z"/>
	<path id="Trazado_1111" class="st4" d="M982.7,462.4c0.9-0.1,1.7-0.2,2.6-0.2c1.4-0.1,2.7,0.3,3.8,1.2c0.9,0.9,1.4,2.1,1.3,3.4
		c0.1,1.3-0.4,2.7-1.3,3.6c-1.2,1-2.6,1.5-4.2,1.3c-0.7,0-1.5,0-2.2-0.1V462.4z M983.9,470.6c0.4,0,0.8,0.1,1.2,0.1c2.6,0,4-1.4,4-4
		c0-2.2-1.2-3.6-3.8-3.6c-0.5,0-1,0-1.4,0.1V470.6z"/>
	<path id="Trazado_1112" class="st4" d="M996.7,470c0,0.5,0,1.1,0.1,1.6h-1.1l-0.1-0.8h0c-0.5,0.6-1.3,1-2.1,1
		c-1.1,0.1-2-0.7-2.1-1.8c0-0.1,0-0.1,0-0.2c0-1.6,1.4-2.5,4-2.5v-0.1c0.1-0.8-0.4-1.4-1.2-1.5c-0.1,0-0.2,0-0.3,0
		c-0.6,0-1.2,0.2-1.8,0.5l-0.3-0.8c0.7-0.4,1.4-0.6,2.2-0.6c2.1,0,2.6,1.4,2.6,2.7V470z M995.5,468.2c-1.3,0-2.8,0.2-2.8,1.5
		c-0.1,0.6,0.4,1.1,1,1.2c0.1,0,0.1,0,0.2,0c0.7,0,1.4-0.4,1.7-1.1c0-0.1,0.1-0.3,0.1-0.4V468.2z"/>
	<path id="Trazado_1113" class="st4" d="M1000.1,463.3v1.6h1.8v0.9h-1.8v3.6c0,0.8,0.2,1.3,0.9,1.3c0.2,0,0.5,0,0.7-0.1l0.1,0.9
		c-0.3,0.1-0.7,0.2-1.1,0.2c-0.5,0-1-0.2-1.3-0.5c-0.4-0.5-0.5-1.1-0.5-1.8v-3.7h-1v-0.9h1v-1.3L1000.1,463.3z"/>
	<path id="Trazado_1114" class="st4" d="M1009.2,468.2c0.2,1.8-1.2,3.4-3,3.6c-0.1,0-0.2,0-0.3,0c-1.8,0-3.2-1.4-3.2-3.2
		c0-0.1,0-0.2,0-0.3c-0.1-1.8,1.2-3.4,3-3.6c0.1,0,0.2,0,0.3,0c1.8,0,3.2,1.4,3.3,3.1C1009.2,468,1009.2,468.1,1009.2,468.2
		 M1003.9,468.2c0,1.5,0.8,2.6,2,2.6c1.2,0,2-1.1,2-2.6c0-1.1-0.6-2.6-2-2.6S1003.9,467,1003.9,468.2"/>
	<path id="Trazado_1115" class="st4" d="M1010.6,470.4c0.5,0.3,1.1,0.5,1.6,0.5c0.9,0,1.3-0.4,1.3-1s-0.3-0.9-1.2-1.2
		c-1.2-0.5-1.8-1.1-1.8-1.9c0.1-1.1,1-2,2.2-2c0,0,0.1,0,0.1,0c0.6,0,1.1,0.1,1.6,0.4l-0.3,0.9c-0.4-0.3-0.9-0.4-1.4-0.4
		c-0.7,0-1.1,0.4-1.1,0.9c0,0.6,0.4,0.8,1.3,1.2c1.2,0.4,1.8,1,1.8,2c0,1.2-0.9,2-2.5,2c-0.7,0-1.3-0.2-1.9-0.5L1010.6,470.4z"/>
	<path id="Trazado_1116" class="st4" d="M1019.9,468.5c-0.1,1.2,0.8,2.2,1.9,2.3c0.1,0,0.2,0,0.4,0c0.6,0,1.3-0.1,1.9-0.3l0.2,0.9
		c-0.7,0.3-1.5,0.5-2.3,0.4c-1.7,0.1-3.2-1.2-3.3-2.9c0-0.2,0-0.3,0-0.5c0-2,1.2-3.6,3.2-3.6c2.2,0,2.8,1.9,2.8,3.2
		c0,0.2,0,0.4,0,0.6H1019.9z M1023.5,467.6c0.1-0.9-0.5-1.8-1.5-2c-0.1,0-0.1,0-0.2,0c-1,0.1-1.9,0.9-1.9,2H1023.5z"/>
	<path id="Trazado_1117" class="st4" d="M1024.5,473.6c0.5,0,1-0.2,1.3-0.5c0.3-0.4,0.5-0.9,0.5-2.5v-5.7h1.2v6.1
		c0.1,1-0.2,2-0.8,2.8c-0.6,0.5-1.3,0.8-2.1,0.8L1024.5,473.6z M1027.7,463c0,0.4-0.3,0.7-0.7,0.8c0,0,0,0-0.1,0
		c-0.4,0-0.7-0.3-0.7-0.7c0,0,0,0,0,0c0-0.4,0.3-0.8,0.7-0.8c0,0,0,0,0,0C1027.3,462.2,1027.7,462.5,1027.7,463
		C1027.7,462.9,1027.7,463,1027.7,463"/>
	<path id="Trazado_1118" class="st4" d="M1030.2,468.5c-0.1,1.2,0.8,2.2,1.9,2.3c0.1,0,0.2,0,0.4,0c0.6,0,1.3-0.1,1.9-0.3l0.2,0.9
		c-0.7,0.3-1.5,0.5-2.3,0.4c-1.7,0.1-3.2-1.2-3.3-2.9c0-0.2,0-0.3,0-0.5c0-2,1.2-3.6,3.2-3.6c2.2,0,2.8,1.9,2.8,3.2
		c0,0.2,0,0.4,0,0.6H1030.2z M1033.8,467.6c0.1-0.9-0.5-1.8-1.5-2c-0.1,0-0.1,0-0.2,0c-1,0.1-1.9,0.9-1.9,2H1033.8z"/>
	<path id="Trazado_1119" class="st4" d="M1036.5,467c0-0.8,0-1.5-0.1-2.1h1.1l0.1,1.3h0c0.2-0.8,1-1.4,1.9-1.5c0.1,0,0.2,0,0.3,0
		v1.2c-0.1,0-0.3,0-0.4,0c-0.9,0-1.6,0.7-1.6,1.6c0,0.2,0,0.4,0,0.6v3.6h-1.2V467z"/>
	<path id="Trazado_1120" class="st4" d="M1045.7,471.4c-0.6,0.3-1.3,0.4-1.9,0.4c-1.8,0.1-3.3-1.3-3.4-3c0-0.1,0-0.3,0-0.4
		c-0.1-1.9,1.4-3.5,3.3-3.6c0.1,0,0.2,0,0.3,0c0.6,0,1.2,0.1,1.7,0.4l-0.3,0.9c-0.4-0.2-0.9-0.3-1.4-0.3c-1.3,0-2.4,1-2.4,2.3
		c0,0.1,0,0.2,0,0.3c-0.1,1.3,0.8,2.4,2.1,2.5c0.1,0,0.2,0,0.2,0c0.5,0,1-0.1,1.5-0.3L1045.7,471.4z"/>
	<path id="Trazado_1121" class="st4" d="M1048.5,463c0,0.4-0.3,0.7-0.7,0.8c0,0,0,0-0.1,0c-0.4,0-0.7-0.3-0.7-0.7c0,0,0,0,0-0.1
		c0-0.4,0.3-0.8,0.7-0.8c0,0,0,0,0,0C1048.2,462.2,1048.5,462.5,1048.5,463C1048.5,462.9,1048.5,463,1048.5,463 M1047.2,464.9h1.2
		v6.7h-1.2V464.9z"/>
	<path id="Trazado_1122" class="st4" d="M1055.2,471.4c-0.6,0.3-1.3,0.4-1.9,0.4c-1.8,0.1-3.3-1.3-3.4-3c0-0.1,0-0.3,0-0.4
		c-0.1-1.9,1.4-3.5,3.3-3.6c0.1,0,0.2,0,0.3,0c0.6,0,1.2,0.1,1.7,0.4l-0.3,0.9c-0.4-0.2-0.9-0.3-1.4-0.3c-1.3,0-2.4,1-2.4,2.3
		c0,0.1,0,0.2,0,0.3c-0.1,1.3,0.8,2.4,2.1,2.5c0.1,0,0.2,0,0.2,0c0.5,0,1-0.1,1.5-0.3L1055.2,471.4z"/>
	<path id="Trazado_1123" class="st4" d="M1058,463c0,0.4-0.3,0.7-0.7,0.8c0,0,0,0-0.1,0c-0.4,0-0.7-0.3-0.7-0.7c0,0,0,0,0-0.1
		c0-0.4,0.3-0.8,0.7-0.8c0,0,0,0,0,0C1057.7,462.2,1058,462.5,1058,463C1058,462.9,1058,463,1058,463 M1056.6,464.9h1.2v6.7h-1.2
		V464.9z"/>
	<path id="Trazado_1124" class="st4" d="M1066,468.2c0.2,1.8-1.2,3.4-3,3.6c-0.1,0-0.2,0-0.3,0c-1.8,0-3.2-1.4-3.2-3.2
		c0-0.1,0-0.2,0-0.3c-0.1-1.8,1.2-3.4,3-3.6c0.1,0,0.2,0,0.3,0c1.8,0,3.2,1.4,3.3,3.1C1066,468,1066,468.1,1066,468.2 M1060.7,468.2
		c0,1.5,0.8,2.6,2,2.6c1.2,0,2-1.1,2-2.6c0-1.1-0.6-2.6-2-2.6C1061.3,465.6,1060.7,467,1060.7,468.2"/>
	<path id="Trazado_1125" class="st4" d="M1076.3,461.7v8.1c0,0.6,0,1.3,0.1,1.7h-1.1l-0.1-1.2h0c-0.4,0.8-1.3,1.4-2.3,1.3
		c-1.6,0-2.9-1.4-2.9-3.4c0-2.2,1.4-3.6,3-3.6c0.8-0.1,1.6,0.3,2,1h0v-4H1076.3z M1075.1,467.6c0-0.2,0-0.3-0.1-0.5
		c-0.2-0.8-0.9-1.4-1.8-1.4c-1.3,0-2,1.1-2,2.6c0,1.4,0.7,2.5,2,2.5c0.9,0,1.6-0.6,1.8-1.5c0-0.2,0.1-0.4,0.1-0.5V467.6z"/>
	<path id="Trazado_1126" class="st4" d="M1079,468.5c-0.1,1.2,0.8,2.2,1.9,2.3c0.1,0,0.2,0,0.4,0c0.6,0,1.3-0.1,1.9-0.3l0.2,0.9
		c-0.7,0.3-1.5,0.4-2.3,0.4c-1.7,0.1-3.2-1.2-3.3-2.9c0-0.2,0-0.3,0-0.5c0-2,1.2-3.6,3.2-3.6c2.2,0,2.8,1.9,2.8,3.2
		c0,0.2,0,0.4,0,0.6H1079z M1082.6,467.6c0.1-1-0.5-1.8-1.5-2c-0.1,0-0.1,0-0.2,0c-1,0.1-1.9,0.9-1.9,2H1082.6z"/>
	<path id="Trazado_1127" class="st4" d="M989.5,476.4v8.1c0,0.6,0,1.3,0.1,1.7h-1.1l-0.1-1.2h0c-0.4,0.8-1.3,1.4-2.3,1.3
		c-1.6,0-2.9-1.4-2.9-3.4c0-2.2,1.4-3.6,3-3.6c0.8-0.1,1.6,0.3,2,1h0v-4H989.5z M988.2,482.3c0-0.2,0-0.3-0.1-0.5
		c-0.2-0.8-0.9-1.4-1.8-1.4c-1.3,0-2,1.1-2,2.6c0,1.4,0.7,2.5,2,2.5c0.9,0,1.6-0.6,1.8-1.5c0-0.2,0.1-0.3,0.1-0.5V482.3z"/>
	<path id="Trazado_1128" class="st4" d="M992.2,483.2c-0.1,1.2,0.8,2.2,1.9,2.3c0.1,0,0.2,0,0.4,0c0.6,0,1.3-0.1,1.9-0.3l0.2,0.9
		c-0.7,0.3-1.5,0.5-2.3,0.4c-1.7,0.1-3.2-1.2-3.3-2.9c0-0.2,0-0.3,0-0.5c0-2,1.2-3.6,3.2-3.6c2.2,0,2.8,1.9,2.8,3.2
		c0,0.2,0,0.4,0,0.6H992.2z M995.8,482.3c0.1-1-0.5-1.8-1.5-2c-0.1,0-0.1,0-0.2,0c-1,0.1-1.9,0.9-1.9,2H995.8z"/>
	<path id="Trazado_1129" class="st4" d="M998.5,481.7c0-0.8,0-1.5-0.1-2.1h1.1l0.1,1.3h0c0.2-0.8,1-1.4,1.9-1.5c0.1,0,0.2,0,0.3,0
		v1.2c-0.1,0-0.3,0-0.4,0c-0.9,0-1.6,0.7-1.6,1.6c0,0.2,0,0.4,0,0.6v3.6h-1.2V481.7z"/>
	<path id="Trazado_1130" class="st4" d="M1003.6,483.2c-0.1,1.2,0.8,2.2,1.9,2.3c0.1,0,0.2,0,0.4,0c0.6,0,1.3-0.1,1.9-0.3l0.2,0.9
		c-0.7,0.3-1.5,0.5-2.3,0.4c-1.7,0.1-3.2-1.2-3.3-2.9c0-0.2,0-0.3,0-0.5c0-2,1.2-3.6,3.2-3.6c2.2,0,2.8,1.9,2.8,3.2
		c0,0.2,0,0.4,0,0.6H1003.6z M1007.1,482.3c0.1-1-0.5-1.8-1.5-2c-0.1,0-0.1,0-0.2,0c-1,0.1-1.9,0.9-1.9,2H1007.1z"/>
	<path id="Trazado_1131" class="st4" d="M1014.6,486.1c-0.6,0.3-1.3,0.4-1.9,0.4c-1.8,0.1-3.3-1.3-3.4-3c0-0.1,0-0.3,0-0.4
		c-0.1-1.9,1.4-3.5,3.3-3.6c0.1,0,0.2,0,0.4,0c0.6,0,1.2,0.1,1.7,0.4l-0.3,0.9c-0.4-0.2-0.9-0.3-1.4-0.3c-1.3,0-2.4,1-2.4,2.3
		c0,0.1,0,0.2,0,0.3c-0.1,1.3,0.8,2.4,2.1,2.5c0.1,0,0.2,0,0.2,0c0.5,0,1-0.1,1.5-0.3L1014.6,486.1z"/>
	<path id="Trazado_1132" class="st4" d="M1016.1,476.4h1.2v4.2h0c0.2-0.4,0.5-0.7,0.9-0.9c0.4-0.2,0.8-0.3,1.3-0.3
		c0.9,0,2.4,0.6,2.4,2.9v4h-1.2v-3.9c0-1.1-0.4-2-1.6-2c-0.7,0-1.4,0.5-1.6,1.2c-0.1,0.2-0.1,0.4-0.1,0.6v4.1h-1.2V476.4z"/>
	<path id="Trazado_1133" class="st4" d="M1029.9,482.9c0.2,1.8-1.2,3.4-3,3.6c-0.1,0-0.2,0-0.3,0c-1.8,0-3.2-1.4-3.2-3.2
		c0-0.1,0-0.2,0-0.3c-0.1-1.8,1.2-3.4,3-3.5c0.1,0,0.2,0,0.3,0c1.8,0,3.2,1.4,3.3,3.1C1029.9,482.7,1029.9,482.8,1029.9,482.9
		 M1024.6,483c0,1.5,0.8,2.6,2,2.6c1.2,0,2-1.1,2-2.6c0-1.1-0.6-2.6-2-2.6C1025.2,480.4,1024.6,481.7,1024.6,483"/>
	<path id="Trazado_1134" class="st4" d="M1031.3,485.1c0.5,0.3,1.1,0.5,1.6,0.5c0.9,0,1.3-0.4,1.3-1s-0.3-0.9-1.2-1.2
		c-1.2-0.5-1.8-1.1-1.8-1.9c0.1-1.1,1-2,2.2-2c0,0,0.1,0,0.1,0c0.6,0,1.1,0.1,1.6,0.4l-0.3,0.9c-0.4-0.3-0.9-0.4-1.4-0.4
		c-0.7,0-1.1,0.4-1.1,0.9c0,0.6,0.4,0.8,1.3,1.2c1.2,0.4,1.8,1,1.8,2c0,1.2-0.9,2-2.5,2c-0.7,0-1.3-0.2-1.9-0.5L1031.3,485.1z"/>
	<path id="Trazado_1136" class="st4" d="M974.9,497.7h3.4v-0.9h-3.4V497.7z"/>
	<path id="Trazado_1137" class="st4" d="M982.7,491.8c0.9-0.1,1.7-0.2,2.6-0.2c1.4-0.1,2.7,0.3,3.8,1.2c0.9,0.9,1.4,2.1,1.3,3.4
		c0.1,1.3-0.4,2.7-1.3,3.6c-1.2,1-2.6,1.5-4.2,1.3c-0.7,0-1.5,0-2.2-0.1V491.8z M983.9,500.1c0.4,0,0.8,0.1,1.2,0.1c2.6,0,4-1.4,4-4
		c0-2.2-1.2-3.6-3.8-3.6c-0.5,0-1,0-1.4,0.1V500.1z"/>
	<path id="Trazado_1138" class="st4" d="M996.7,499.4c0,0.5,0,1.1,0.1,1.6h-1.1l-0.1-0.8h0c-0.5,0.6-1.3,1-2.1,1
		c-1.1,0.1-2-0.7-2.1-1.8c0-0.1,0-0.1,0-0.2c0-1.6,1.4-2.5,4-2.5v-0.1c0.1-0.8-0.4-1.4-1.2-1.5c-0.1,0-0.2,0-0.3,0
		c-0.6,0-1.2,0.2-1.8,0.5l-0.3-0.8c0.7-0.4,1.4-0.6,2.2-0.6c2.1,0,2.6,1.4,2.6,2.7V499.4z M995.5,497.6c-1.3,0-2.8,0.2-2.8,1.5
		c-0.1,0.6,0.4,1.1,1,1.2c0.1,0,0.1,0,0.2,0c0.7,0,1.4-0.4,1.7-1.1c0-0.1,0.1-0.3,0.1-0.4V497.6z"/>
	<path id="Trazado_1139" class="st4" d="M1000.1,492.7v1.6h1.8v0.9h-1.8v3.6c0,0.8,0.2,1.3,0.9,1.3c0.2,0,0.5,0,0.7-0.1l0.1,0.9
		c-0.3,0.1-0.7,0.2-1.1,0.2c-0.5,0-1-0.2-1.3-0.5c-0.4-0.5-0.5-1.1-0.5-1.8v-3.7h-1v-0.9h1v-1.3L1000.1,492.7z"/>
	<path id="Trazado_1140" class="st4" d="M1009.2,497.6c0.2,1.8-1.2,3.4-3,3.6c-0.1,0-0.2,0-0.3,0c-1.8,0-3.2-1.4-3.2-3.2
		c0-0.1,0-0.2,0-0.3c-0.1-1.8,1.2-3.4,3-3.5c0.1,0,0.2,0,0.3,0c1.8,0,3.2,1.4,3.3,3.1C1009.2,497.4,1009.2,497.5,1009.2,497.6
		 M1003.9,497.7c0,1.5,0.8,2.6,2,2.6c1.2,0,2-1.1,2-2.6c0-1.1-0.6-2.6-2-2.6S1003.9,496.4,1003.9,497.7"/>
	<path id="Trazado_1141" class="st4" d="M1010.6,499.8c0.5,0.3,1.1,0.5,1.6,0.5c0.9,0,1.3-0.4,1.3-1s-0.3-0.9-1.2-1.2
		c-1.2-0.4-1.8-1.1-1.8-1.9c0.1-1.1,1-2,2.2-2c0,0,0.1,0,0.1,0c0.6,0,1.1,0.1,1.6,0.4l-0.3,0.9c-0.4-0.3-0.9-0.4-1.4-0.4
		c-0.7,0-1.1,0.4-1.1,0.9c0,0.6,0.4,0.8,1.3,1.2c1.2,0.4,1.8,1,1.8,2c0,1.2-0.9,2-2.5,2c-0.7,0-1.3-0.2-1.9-0.5L1010.6,499.8z"/>
	<path id="Trazado_1142" class="st4" d="M1019,499.8c0.5,0.3,1.1,0.5,1.6,0.5c0.9,0,1.3-0.4,1.3-1c0-0.6-0.3-0.9-1.2-1.2
		c-1.2-0.4-1.8-1.1-1.8-1.9c0.1-1.1,1-2,2.2-2c0,0,0.1,0,0.1,0c0.6,0,1.1,0.1,1.6,0.4l-0.3,0.9c-0.4-0.3-0.9-0.4-1.4-0.4
		c-0.7,0-1.1,0.4-1.1,0.9c0,0.6,0.4,0.8,1.3,1.2c1.2,0.4,1.8,1,1.8,2c0,1.2-0.9,2-2.5,2c-0.7,0-1.3-0.2-1.9-0.5L1019,499.8z"/>
	<path id="Trazado_1143" class="st4" d="M1030.8,497.6c0.2,1.8-1.2,3.4-3,3.6c-0.1,0-0.2,0-0.3,0c-1.8,0-3.2-1.4-3.2-3.2
		c0-0.1,0-0.2,0-0.3c-0.1-1.8,1.2-3.4,3-3.5c0.1,0,0.2,0,0.3,0c1.8,0,3.2,1.4,3.3,3.1C1030.8,497.4,1030.8,497.5,1030.8,497.6
		 M1025.5,497.7c0,1.5,0.8,2.6,2,2.6c1.2,0,2-1.1,2-2.6c0-1.1-0.6-2.6-2-2.6C1026.1,495.1,1025.5,496.4,1025.5,497.7"/>
	<path id="Trazado_1144" class="st4" d="M1032.4,491.2h1.2v4.2h0c0.5-0.8,1.4-1.3,2.3-1.2c1.7,0,2.8,1.4,2.8,3.4
		c0,2.4-1.5,3.6-3,3.6c-0.9,0-1.8-0.4-2.3-1.2h0l-0.1,1.1h-1c0-0.5,0.1-1.1,0.1-1.7V491.2z M1033.6,498.3c0,0.2,0,0.3,0.1,0.4
		c0.2,0.8,1,1.4,1.8,1.4c1.3,0,2-1,2-2.6c0-1.3-0.7-2.5-2-2.5c-0.9,0-1.6,0.6-1.8,1.5c0,0.2-0.1,0.3-0.1,0.5L1033.6,498.3z"/>
	<path id="Trazado_1145" class="st4" d="M1040.3,496.4c0-0.8,0-1.5-0.1-2.1h1.1l0.1,1.3h0c0.2-0.8,1-1.4,1.9-1.5c0.1,0,0.2,0,0.3,0
		v1.2c-0.1,0-0.3,0-0.4,0c-0.9,0-1.6,0.7-1.6,1.6c0,0.2,0,0.4,0,0.6v3.6h-1.2V496.4z"/>
	<path id="Trazado_1146" class="st4" d="M1045.4,497.9c-0.1,1.2,0.8,2.2,1.9,2.3c0.1,0,0.2,0,0.4,0c0.6,0,1.3-0.1,1.9-0.3l0.2,0.9
		c-0.7,0.3-1.5,0.5-2.3,0.4c-1.7,0.1-3.2-1.2-3.3-2.9c0-0.2,0-0.3,0-0.5c0-2,1.2-3.6,3.2-3.6c2.2,0,2.8,1.9,2.8,3.2
		c0,0.2,0,0.4,0,0.6H1045.4z M1048.9,497c0.1-0.9-0.5-1.8-1.5-2c-0.1,0-0.1,0-0.2,0c-1,0.1-1.9,0.9-1.9,2H1048.9z"/>
	<path id="Trazado_1147" class="st4" d="M1055.3,497.9c-0.1,1.2,0.8,2.2,1.9,2.3c0.1,0,0.2,0,0.4,0c0.6,0,1.3-0.1,1.9-0.3l0.2,0.9
		c-0.7,0.3-1.5,0.5-2.3,0.4c-1.7,0.1-3.2-1.2-3.3-2.9c0-0.2,0-0.3,0-0.5c0-2,1.2-3.6,3.2-3.6c2.2,0,2.8,1.9,2.8,3.2
		c0,0.2,0,0.4,0,0.6H1055.3z M1058.9,497c0.1-0.9-0.5-1.8-1.5-2c-0.1,0-0.1,0-0.2,0c-1,0.1-1.9,0.9-1.9,2H1058.9z"/>
	<path id="Trazado_1149" class="st4" d="M1061.6,491.2h1.2v9.9h-1.2V491.2z"/>
	<path id="Trazado_1150" class="st4" d="M1068.5,497.9c-0.1,1.2,0.8,2.2,1.9,2.3c0.1,0,0.2,0,0.4,0c0.6,0,1.3-0.1,1.9-0.3l0.2,0.9
		c-0.7,0.3-1.5,0.5-2.3,0.4c-1.7,0.1-3.2-1.2-3.3-2.9c0-0.2,0-0.3,0-0.5c0-2,1.2-3.6,3.2-3.6c2.2,0,2.8,1.9,2.8,3.2
		c0,0.2,0,0.4,0,0.6H1068.5z M1072.1,497c0.1-0.9-0.5-1.8-1.5-2c-0.1,0-0.1,0-0.2,0c-1,0.1-1.9,0.9-1.9,2H1072.1z"/>
	<path id="Trazado_1151" class="st4" d="M1074.7,496.1c0-0.7,0-1.3-0.1-1.8h1.1l0.1,1.1h0c0.5-0.8,1.3-1.3,2.2-1.3
		c0.9,0,2.4,0.6,2.4,2.9v4h-1.2v-3.9c0-1.1-0.4-2-1.6-2c-0.8,0-1.4,0.5-1.6,1.3c-0.1,0.2-0.1,0.4-0.1,0.6v4h-1.2V496.1z"/>
	<path id="Trazado_1152" class="st4" d="M1083.9,492.7v1.6h1.8v0.9h-1.8v3.6c0,0.8,0.2,1.3,0.9,1.3c0.2,0,0.5,0,0.7-0.1l0.1,0.9
		c-0.3,0.1-0.7,0.2-1.1,0.2c-0.5,0-1-0.2-1.3-0.5c-0.4-0.5-0.5-1.1-0.5-1.8v-3.7h-1v-0.9h1v-1.3L1083.9,492.7z"/>
	<path id="Trazado_1153" class="st4" d="M1093,497.6c0.2,1.8-1.2,3.4-3,3.6c-0.1,0-0.2,0-0.3,0c-1.8,0-3.2-1.4-3.2-3.2
		c0-0.1,0-0.2,0-0.3c-0.1-1.8,1.2-3.4,3-3.5c0.1,0,0.2,0,0.3,0c1.8,0,3.2,1.4,3.3,3.1C1093,497.4,1093,497.5,1093,497.6
		 M1087.7,497.7c0,1.5,0.8,2.6,2,2.6c1.2,0,2-1.1,2-2.6c0-1.1-0.6-2.6-2-2.6C1088.3,495.1,1087.7,496.4,1087.7,497.7"/>
	<path id="Trazado_1154" class="st4" d="M1094.6,496.4c0-0.8,0-1.5-0.1-2.1h1.1l0.1,1.3h0c0.2-0.8,1-1.4,1.9-1.5c0.1,0,0.2,0,0.3,0
		v1.2c-0.1,0-0.3,0-0.4,0c-0.9,0-1.6,0.7-1.6,1.6c0,0.2,0,0.4,0,0.6v3.6h-1.2V496.4z"/>
	<path id="Trazado_1155" class="st4" d="M1099.2,496.1c0-0.7,0-1.3-0.1-1.8h1.1l0.1,1.1h0c0.5-0.8,1.3-1.3,2.2-1.3
		c0.9,0,2.4,0.6,2.4,2.9v4h-1.2v-3.9c0-1.1-0.4-2-1.6-2c-0.8,0-1.4,0.5-1.6,1.3c-0.1,0.2-0.1,0.4-0.1,0.6v4h-1.2V496.1z"/>
	<path id="Trazado_1156" class="st4" d="M1113,497.6c0.2,1.8-1.2,3.4-3,3.6c-0.1,0-0.2,0-0.3,0c-1.8,0-3.2-1.4-3.2-3.2
		c0-0.1,0-0.2,0-0.3c-0.1-1.8,1.2-3.4,3-3.5c0.1,0,0.2,0,0.3,0c1.8,0,3.2,1.4,3.2,3.1C1113,497.4,1113,497.5,1113,497.6
		 M1107.6,497.7c0,1.5,0.8,2.6,2,2.6c1.2,0,2-1.1,2-2.6c0-1.1-0.6-2.6-2-2.6C1108.3,495.1,1107.6,496.4,1107.6,497.7"/>
	<path id="Trazado_1157" class="st4" d="M983.7,511.2c0-0.9,0-1.6-0.1-2.2h1.1l0.1,1.2h0c0.5-0.8,1.4-1.3,2.4-1.3
		c1.6,0,2.9,1.4,2.9,3.4c0,2.4-1.5,3.6-3.1,3.6c-0.8,0-1.6-0.4-2.1-1.1h0v3.7h-1.2V511.2z M984.9,513c0,1,0.8,1.9,1.9,1.9
		c0,0,0,0,0,0c1.3,0,2-1.1,2-2.6c0-1.3-0.7-2.5-2-2.5c-0.9,0-1.7,0.6-1.9,1.5c0,0.2-0.1,0.3-0.1,0.5V513z"/>
	<path id="Trazado_1158" class="st4" d="M996.3,514.2c0,0.5,0,1.1,0.1,1.6h-1.1l-0.1-0.8h0c-0.5,0.6-1.3,1-2.1,1
		c-1.1,0.1-2-0.7-2.1-1.8c0-0.1,0-0.1,0-0.2c0-1.6,1.4-2.5,4-2.5v-0.1c0.1-0.8-0.4-1.4-1.2-1.5c-0.1,0-0.2,0-0.3,0
		c-0.6,0-1.2,0.2-1.8,0.5l-0.3-0.8c0.7-0.4,1.4-0.6,2.2-0.6c2.1,0,2.6,1.4,2.6,2.7V514.2z M995.1,512.3c-1.3,0-2.9,0.2-2.9,1.5
		c-0.1,0.6,0.4,1.1,1,1.2c0.1,0,0.1,0,0.2,0c0.7,0,1.4-0.4,1.7-1.1c0-0.1,0.1-0.3,0.1-0.4V512.3z"/>
	<path id="Trazado_1159" class="st4" d="M998.3,511.1c0-0.8,0-1.5-0.1-2.1h1.1l0.1,1.3h0c0.2-0.8,1-1.4,1.9-1.5c0.1,0,0.2,0,0.3,0
		v1.2c-0.1,0-0.3,0-0.4,0c-0.9,0-1.6,0.7-1.6,1.6c0,0.2,0,0.4,0,0.6v3.6h-1.2V511.1z"/>
	<path id="Trazado_1160" class="st4" d="M1007.5,514.2c0,0.5,0,1.1,0.1,1.6h-1.1l-0.1-0.8h0c-0.5,0.6-1.3,1-2.1,1
		c-1.1,0.1-2-0.7-2.1-1.8c0-0.1,0-0.1,0-0.2c0-1.6,1.4-2.5,4-2.5v-0.1c0.1-0.8-0.4-1.4-1.2-1.5c-0.1,0-0.2,0-0.3,0
		c-0.6,0-1.2,0.2-1.8,0.5l-0.3-0.8c0.7-0.4,1.4-0.6,2.2-0.6c2.1,0,2.6,1.4,2.6,2.7V514.2z M1006.3,512.3c-1.3,0-2.8,0.2-2.8,1.5
		c-0.1,0.6,0.4,1.1,1,1.2c0.1,0,0.1,0,0.2,0c0.7,0,1.4-0.4,1.7-1.1c0-0.1,0.1-0.3,0.1-0.4V512.3z"/>
	<path id="Trazado_1162" class="st4" d="M1012.4,505.9h1.2v9.9h-1.2V505.9z"/>
	<path id="Trazado_1163" class="st4" d="M1020.4,514.2c0,0.5,0,1.1,0.1,1.6h-1.1l-0.1-0.8h0c-0.5,0.6-1.3,1-2.1,1
		c-1.1,0.1-2-0.7-2.1-1.8c0-0.1,0-0.1,0-0.2c0-1.6,1.4-2.5,4-2.5v-0.1c0.1-0.8-0.4-1.4-1.2-1.5c-0.1,0-0.2,0-0.3,0
		c-0.6,0-1.2,0.2-1.8,0.5l-0.3-0.8c0.7-0.4,1.4-0.6,2.2-0.6c2.1,0,2.6,1.4,2.6,2.7V514.2z M1019.2,512.3c-1.3,0-2.9,0.2-2.9,1.5
		c-0.1,0.6,0.4,1.1,1,1.2c0.1,0,0.1,0,0.2,0c0.7,0,1.4-0.4,1.7-1.1c0-0.1,0.1-0.3,0.1-0.4V512.3z"/>
	<path id="Trazado_1164" class="st4" d="M1025.8,509l1.3,3.8c0.2,0.6,0.4,1.2,0.5,1.7h0c0.2-0.6,0.3-1.1,0.6-1.7l1.3-3.8h1.3
		l-2.6,6.7h-1.2l-2.6-6.7H1025.8z"/>
	<path id="Trazado_1165" class="st4" d="M1033.4,507.1c0,0.4-0.3,0.7-0.7,0.8c0,0,0,0-0.1,0c-0.4,0-0.7-0.3-0.7-0.7c0,0,0,0,0,0
		c0-0.4,0.3-0.8,0.7-0.8c0,0,0,0,0,0C1033,506.4,1033.4,506.7,1033.4,507.1C1033.4,507.1,1033.4,507.1,1033.4,507.1 M1032,509h1.2
		v6.7h-1.2V509z"/>
	<path id="Trazado_1166" class="st4" d="M1041.1,505.9v8.1c0,0.6,0,1.3,0.1,1.7h-1.1l-0.1-1.2h0c-0.4,0.8-1.3,1.4-2.3,1.3
		c-1.6,0-2.9-1.4-2.9-3.4c0-2.2,1.4-3.6,3-3.6c0.8-0.1,1.6,0.3,2,1h0v-4H1041.1z M1039.9,511.8c0-0.2,0-0.3-0.1-0.5
		c-0.2-0.8-0.9-1.4-1.8-1.4c-1.3,0-2,1.1-2,2.6c0,1.4,0.7,2.5,2,2.5c0.9,0,1.6-0.6,1.8-1.5c0-0.2,0.1-0.4,0.1-0.5V511.8z"/>
	<path id="Trazado_1167" class="st4" d="M1047.8,514.2c0,0.5,0,1.1,0.1,1.6h-1.1l-0.1-0.8h0c-0.5,0.6-1.3,1-2.1,1
		c-1.1,0.1-2-0.7-2.1-1.8c0-0.1,0-0.1,0-0.2c0-1.6,1.4-2.5,4-2.5v-0.1c0.1-0.8-0.4-1.4-1.2-1.5c-0.1,0-0.2,0-0.3,0
		c-0.6,0-1.2,0.2-1.8,0.5l-0.3-0.8c0.7-0.4,1.4-0.6,2.2-0.6c2.1,0,2.6,1.4,2.6,2.7V514.2z M1046.7,512.3c-1.3,0-2.8,0.2-2.8,1.5
		c-0.1,0.6,0.4,1.1,1,1.2c0.1,0,0.1,0,0.2,0c0.7,0,1.4-0.4,1.7-1.1c0-0.1,0.1-0.3,0.1-0.4V512.3z"/>
	<path id="Trazado_1168" class="st4" d="M1053.2,509l1.5,4c0.2,0.4,0.3,1,0.4,1.4h0c0.1-0.4,0.3-0.9,0.4-1.4l1.3-4h1.3l-1.8,4.8
		c-0.9,2.3-1.5,3.5-2.3,4.2c-0.4,0.4-0.9,0.6-1.5,0.8l-0.3-1c0.4-0.1,0.8-0.3,1.1-0.6c0.4-0.4,0.8-0.8,1-1.4
		c0.1-0.1,0.1-0.2,0.1-0.3c0-0.1,0-0.2-0.1-0.3l-2.5-6.2H1053.2z"/>
	<path id="Trazado_1169" class="st4" d="M1062.9,512.6c-0.1,1.2,0.8,2.2,1.9,2.3c0.1,0,0.2,0,0.4,0c0.6,0,1.3-0.1,1.9-0.3l0.2,0.9
		c-0.7,0.3-1.5,0.5-2.3,0.4c-1.7,0.1-3.2-1.2-3.3-2.9c0-0.2,0-0.3,0-0.5c0-2,1.2-3.6,3.2-3.6c2.2,0,2.8,1.9,2.8,3.2
		c0,0.2,0,0.4,0,0.6H1062.9z M1066.5,511.7c0.1-0.9-0.5-1.8-1.5-2c-0.1,0-0.1,0-0.2,0c-1,0.1-1.9,0.9-1.9,2H1066.5z"/>
	<path id="Trazado_1171" class="st4" d="M1069.2,505.9h1.2v9.9h-1.2V505.9z"/>
	<path id="Trazado_1172" class="st4" d="M1080.3,515.5c-0.6,0.3-1.3,0.4-1.9,0.4c-1.8,0.1-3.3-1.3-3.4-3c0-0.1,0-0.3,0-0.4
		c-0.1-1.9,1.4-3.5,3.3-3.6c0.1,0,0.2,0,0.3,0c0.6,0,1.2,0.1,1.7,0.4l-0.3,0.9c-0.4-0.2-0.9-0.3-1.4-0.3c-1.3,0-2.4,1-2.4,2.3
		c0,0.1,0,0.2,0,0.3c-0.1,1.3,0.8,2.4,2.1,2.5c0.1,0,0.2,0,0.2,0c0.5,0,1-0.1,1.5-0.3L1080.3,515.5z"/>
	<path id="Trazado_1173" class="st4" d="M1087.3,513.9c0,0.7,0,1.3,0.1,1.8h-1.1l-0.1-1.1h0c-0.5,0.8-1.3,1.3-2.2,1.2
		c-1.1,0-2.3-0.6-2.3-2.9V509h1.2v3.7c0,1.3,0.4,2.2,1.5,2.2c0.7,0,1.4-0.5,1.6-1.1c0.1-0.2,0.1-0.4,0.1-0.6V509h1.2V513.9z"/>
	<path id="Trazado_1174" class="st4" d="M1090.7,507.1c0,0.4-0.3,0.7-0.7,0.8c0,0,0,0-0.1,0c-0.4,0-0.7-0.3-0.7-0.7c0,0,0,0,0,0
		c0-0.4,0.3-0.8,0.7-0.8c0,0,0,0,0,0C1090.4,506.4,1090.7,506.7,1090.7,507.1C1090.7,507.1,1090.7,507.1,1090.7,507.1 M1089.4,509
		h1.2v6.7h-1.2V509z"/>
	<path id="Trazado_1175" class="st4" d="M1098.4,505.9v8.1c0,0.6,0,1.3,0.1,1.7h-1.1l-0.1-1.2h0c-0.4,0.8-1.3,1.4-2.3,1.3
		c-1.6,0-2.9-1.4-2.9-3.4c0-2.2,1.4-3.6,3-3.6c0.8-0.1,1.6,0.3,2,1h0v-4H1098.4z M1097.2,511.8c0-0.2,0-0.3-0.1-0.5
		c-0.2-0.8-0.9-1.4-1.8-1.4c-1.3,0-2,1.1-2,2.6c0,1.4,0.7,2.5,2,2.5c0.9,0,1.6-0.6,1.8-1.5c0-0.2,0.1-0.4,0.1-0.5V511.8z"/>
	<path id="Trazado_1176" class="st4" d="M1105.2,514.2c0,0.5,0,1.1,0.1,1.6h-1.1l-0.1-0.8h0c-0.5,0.6-1.3,1-2.1,1
		c-1.1,0.1-2-0.7-2.1-1.8c0-0.1,0-0.1,0-0.2c0-1.6,1.4-2.5,4-2.5v-0.1c0.1-0.8-0.4-1.4-1.2-1.5c-0.1,0-0.2,0-0.3,0
		c-0.6,0-1.2,0.2-1.8,0.5l-0.3-0.8c0.7-0.4,1.4-0.6,2.2-0.6c2.1,0,2.6,1.4,2.6,2.7V514.2z M1104,512.3c-1.3,0-2.9,0.2-2.9,1.5
		c-0.1,0.6,0.4,1.1,1,1.2c0.1,0,0.1,0,0.2,0c0.7,0,1.4-0.4,1.7-1.1c0-0.1,0.1-0.3,0.1-0.4V512.3z"/>
	<path id="Trazado_1177" class="st4" d="M1112.9,505.9v8.1c0,0.6,0,1.3,0.1,1.7h-1.1l-0.1-1.2h0c-0.4,0.8-1.3,1.4-2.3,1.3
		c-1.6,0-2.9-1.4-2.9-3.4c0-2.2,1.4-3.6,3-3.6c0.8-0.1,1.6,0.3,2,1h0v-4H1112.9z M1111.7,511.8c0-0.2,0-0.3-0.1-0.5
		c-0.2-0.8-0.9-1.4-1.8-1.4c-1.3,0-2,1.1-2,2.6c0,1.4,0.7,2.5,2,2.5c0.9,0,1.6-0.6,1.8-1.5c0-0.2,0.1-0.4,0.1-0.5V511.8z"/>
	<path id="Trazado_1178" class="st4" d="M1121.1,512.3c0.2,1.8-1.2,3.4-3,3.6c-0.1,0-0.2,0-0.3,0c-1.8,0-3.2-1.4-3.2-3.2
		c0-0.1,0-0.2,0-0.3c-0.1-1.8,1.2-3.4,3-3.5c0.1,0,0.2,0,0.3,0c1.8,0,3.2,1.4,3.3,3.1C1121.1,512.1,1121.1,512.2,1121.1,512.3
		 M1115.8,512.4c0,1.5,0.8,2.6,2,2.6c1.2,0,2-1.1,2-2.6c0-1.1-0.6-2.6-2-2.6C1116.4,509.8,1115.8,511.1,1115.8,512.4"/>
	<path id="Trazado_1180" class="st5" d="M979.2,306.2h2.1l2.4,12.4h-1.5l-0.6-3.4h-2.7l-0.6,3.4h-1.5L979.2,306.2z M980.2,307.1
		l-1.2,7.1h2.4L980.2,307.1L980.2,307.1z"/>
	<path id="Trazado_1181" class="st5" d="M989.2,312.2v0.6h-1.5v-0.8c0-0.4,0-0.7-0.1-1.1c-0.1-0.2-0.3-0.3-0.6-0.2
		c-0.2,0-0.4,0.1-0.6,0.3c-0.1,0.3-0.2,0.7-0.2,1.1v4.6c0,0.4,0,0.7,0.2,1.1c0.1,0.2,0.4,0.3,0.6,0.3c0.2,0,0.4-0.1,0.5-0.2
		c0.1-0.3,0.2-0.7,0.1-1.1v-0.9h1.5v0.7c0.1,0.7-0.1,1.4-0.5,1.9c-0.5,0.4-1.1,0.6-1.7,0.5c-0.6,0.1-1.2-0.1-1.7-0.5
		c-0.4-0.6-0.6-1.3-0.5-1.9v-4.1c-0.1-0.7,0.1-1.4,0.5-1.9c0.5-0.4,1.1-0.6,1.7-0.5c0.6-0.1,1.2,0.1,1.7,0.5
		C989.1,310.8,989.3,311.5,989.2,312.2"/>
	<path id="Trazado_1182" class="st5" d="M992.5,307.6v2.3h1.1v0.9h-1.1v6.4c0,0.2,0,0.4,0.2,0.5c0.2,0.1,0.4,0.2,0.7,0.1h0.2v0.9
		c-0.1,0-0.2,0-0.3,0c-0.1,0-0.2,0-0.4,0c-0.5,0.1-1-0.1-1.4-0.4c-0.3-0.5-0.5-1.1-0.4-1.7v-5.9h-0.8v-0.9h0.8V308L992.5,307.6z"/>
	<path id="Trazado_1183" class="st5" d="M994.9,309.9h1.4v6.6c0,0.4,0,0.7,0.2,1.1c0.2,0.2,0.5,0.3,0.7,0.3c0.3,0,0.6-0.1,0.7-0.3
		c0.2-0.3,0.2-0.7,0.2-1v-6.6h1.4v8.6h-1.3l-0.1-0.5c-0.2,0.2-0.4,0.4-0.7,0.5c-0.3,0.1-0.6,0.2-1,0.2c-0.5,0-0.9-0.1-1.3-0.4
		c-0.3-0.5-0.4-1-0.4-1.5V309.9z"/>
	<path id="Trazado_1184" class="st5" d="M1006.3,311.9v6.6h-1.3l-0.1-0.5c-0.2,0.2-0.4,0.4-0.7,0.5c-0.3,0.1-0.7,0.2-1,0.2
		c-0.5,0-0.9-0.1-1.2-0.4c-0.3-0.5-0.4-1-0.4-1.5v-1.7c-0.1-0.6,0.2-1.1,0.7-1.4c0.8-0.4,1.7-0.5,2.6-0.5v-1.2c0-0.4,0-0.7-0.2-1
		c-0.2-0.2-0.4-0.3-0.7-0.3c-0.3,0-0.5,0.1-0.7,0.2c-0.2,0.3-0.2,0.6-0.2,0.9v0.5h-1.4v-0.2c-0.1-0.6,0.1-1.3,0.5-1.8
		c0.5-0.4,1.2-0.5,1.8-0.5c0.6-0.1,1.3,0.1,1.8,0.5C1006.2,310.7,1006.4,311.3,1006.3,311.9 M1004.9,314c-0.5,0-1,0.1-1.5,0.3
		c-0.3,0.2-0.4,0.6-0.4,0.9v1.4c0,0.4,0,0.7,0.2,1c0.2,0.2,0.5,0.3,0.7,0.3c0.3,0,0.5-0.1,0.7-0.3c0.2-0.3,0.3-0.7,0.2-1L1004.9,314
		z"/>
	<path id="Trazado_1186" class="st5" d="M1008.4,306.2h1.4v12.4h-1.4V306.2z"/>
	<path id="Trazado_1187" class="st5" d="M1011.9,306.2h1.5v1.3h-1.5L1011.9,306.2z M1011.9,309.9h1.4v8.6h-1.4V309.9z"/>
	<path id="Trazado_1188" class="st5" d="M1014.9,309.9h3.6v1l-2.5,6.7h2.5v0.9h-3.8v-1.1l2.4-6.6h-2.3V309.9z"/>
	<path id="Trazado_1189" class="st5" d="M1024.5,311.9v6.6h-1.3l-0.1-0.5c-0.2,0.2-0.4,0.4-0.7,0.5c-0.3,0.1-0.7,0.2-1,0.2
		c-0.5,0-0.9-0.1-1.2-0.4c-0.3-0.5-0.4-1-0.4-1.5v-1.7c-0.1-0.6,0.2-1.1,0.7-1.4c0.8-0.4,1.7-0.5,2.6-0.5v-1.2c0-0.4,0-0.7-0.2-1
		c-0.2-0.2-0.4-0.3-0.7-0.3c-0.3,0-0.5,0.1-0.7,0.2c-0.2,0.3-0.2,0.6-0.2,0.9v0.5h-1.4v-0.2c-0.1-0.6,0.1-1.3,0.5-1.8
		c0.5-0.4,1.2-0.5,1.8-0.5c0.6-0.1,1.3,0.1,1.8,0.5C1024.4,310.7,1024.6,311.3,1024.5,311.9 M1023.1,314c-0.5,0-1,0.1-1.5,0.3
		c-0.3,0.2-0.4,0.6-0.4,0.9v1.4c0,0.4,0,0.7,0.2,1c0.2,0.2,0.5,0.3,0.7,0.3c0.3,0,0.5-0.1,0.7-0.3c0.2-0.3,0.3-0.7,0.2-1L1023.1,314
		z"/>
	<path id="Trazado_1190" class="st5" d="M1030.9,312.2v0.6h-1.5v-0.8c0-0.4,0-0.7-0.1-1.1c-0.1-0.2-0.3-0.3-0.6-0.2
		c-0.2,0-0.4,0.1-0.6,0.3c-0.1,0.3-0.2,0.7-0.2,1.1v4.6c0,0.4,0,0.7,0.2,1.1c0.1,0.2,0.4,0.3,0.6,0.3c0.2,0,0.4-0.1,0.5-0.2
		c0.1-0.3,0.2-0.7,0.1-1.1v-0.9h1.5v0.7c0.1,0.7-0.1,1.4-0.5,1.9c-0.5,0.4-1.1,0.6-1.7,0.5c-0.6,0.1-1.2-0.1-1.7-0.5
		c-0.4-0.6-0.5-1.3-0.5-1.9v-4.1c-0.1-0.7,0.1-1.4,0.5-1.9c0.5-0.4,1.1-0.6,1.7-0.5c0.6-0.1,1.2,0.1,1.7,0.5
		C1030.8,310.8,1031,311.5,1030.9,312.2"/>
	<path id="Trazado_1192" class="st5" d="M1032.6,306.2h1.5v1.3h-1.5V306.2z M1032.7,309.9h1.4v8.6h-1.4L1032.7,309.9z"/>
	<path id="Trazado_1193" class="st5" d="M1040.9,312.2v4.1c0.1,0.7-0.1,1.4-0.5,1.9c-0.5,0.4-1.2,0.6-1.8,0.5
		c-0.7,0.1-1.3-0.1-1.8-0.5c-0.4-0.6-0.6-1.3-0.5-2v-4.1c-0.1-0.7,0.1-1.4,0.5-1.9c0.5-0.4,1.2-0.6,1.8-0.5c0.7-0.1,1.3,0.1,1.8,0.5
		C1040.8,310.8,1041,311.5,1040.9,312.2 M1039.4,311.9c0-0.4,0-0.7-0.2-1c-0.2-0.2-0.4-0.3-0.7-0.3c-0.3,0-0.5,0.1-0.7,0.3
		c-0.2,0.3-0.2,0.7-0.2,1v4.6c0,0.4,0,0.7,0.2,1c0.2,0.2,0.4,0.3,0.7,0.3c0.3,0,0.5-0.1,0.7-0.3c0.2-0.3,0.2-0.7,0.2-1L1039.4,311.9
		z M1038.9,306.9h1.6l-1.5,1.9h-1.1L1038.9,306.9z"/>
	<path id="Trazado_1194" class="st5" d="M1047.7,311.7v6.9h-1.4v-6.6c0-0.4,0-0.7-0.2-1c-0.2-0.2-0.5-0.3-0.8-0.3
		c-0.3,0-0.6,0.1-0.7,0.3c-0.2,0.3-0.3,0.7-0.2,1v6.6h-1.4v-8.6h1.3l0.1,0.5c0.2-0.2,0.4-0.4,0.7-0.5c0.3-0.1,0.7-0.2,1-0.2
		c0.5,0,0.9,0.1,1.2,0.4C1047.6,310.6,1047.7,311.2,1047.7,311.7"/>
	<path id="Trazado_1195" class="st5" d="M1056.5,306.2h1.4v12.4h-1.3l-0.1-0.5c-0.2,0.2-0.4,0.4-0.7,0.6c-0.3,0.1-0.6,0.2-1,0.2
		c-0.5,0-0.9-0.1-1.2-0.4c-0.3-0.5-0.4-1-0.4-1.5v-5.1c-0.1-0.5,0.1-1.1,0.4-1.5c0.3-0.3,0.8-0.5,1.2-0.4c0.3,0,0.7,0.1,1,0.2
		c0.3,0.1,0.5,0.3,0.7,0.5L1056.5,306.2z M1056.5,311.9c0-0.4,0-0.7-0.2-1c-0.2-0.2-0.4-0.3-0.7-0.3c-0.3,0-0.5,0.1-0.7,0.3
		c-0.2,0.3-0.2,0.7-0.2,1v4.6c0,0.4,0,0.7,0.2,1c0.2,0.2,0.5,0.3,0.7,0.3c0.3,0,0.5-0.1,0.7-0.3c0.2-0.3,0.2-0.7,0.2-1V311.9z"/>
	<path id="Trazado_1196" class="st5" d="M1064.7,312.2v2.6h-3.3v1.8c0,0.4,0,0.7,0.2,1c0.2,0.2,0.4,0.3,0.7,0.3
		c0.3,0,0.5-0.1,0.7-0.3c0.2-0.3,0.2-0.7,0.2-1v-1h1.5v0.7c0.1,0.7-0.1,1.4-0.5,1.9c-0.5,0.4-1.2,0.6-1.8,0.5
		c-0.7,0.1-1.3-0.1-1.8-0.5c-0.4-0.6-0.6-1.3-0.5-2v-4.1c-0.1-0.7,0.1-1.4,0.5-1.9c0.5-0.4,1.2-0.6,1.8-0.5c0.7-0.1,1.3,0.1,1.8,0.5
		C1064.6,310.8,1064.8,311.5,1064.7,312.2 M1063.3,311.9c0-0.4,0-0.7-0.2-1c-0.2-0.2-0.4-0.3-0.7-0.3c-0.3,0-0.5,0.1-0.7,0.3
		c-0.2,0.3-0.2,0.7-0.2,1v1.9h1.8V311.9z"/>
	<path id="Trazado_1197" class="st5" d="M1070.6,306.2h1.7c1-0.1,1.9,0.1,2.8,0.5c0.4,0.3,0.7,1.1,0.7,2.3v6.8
		c0,1.2-0.2,1.9-0.7,2.3c-0.9,0.4-1.8,0.6-2.8,0.5h-1.7V306.2z M1072,307.1v10.5h0.5c0.5,0,0.9,0,1.4-0.3c0.2-0.2,0.3-0.5,0.3-1.1
		v-7.7c0.1-0.4-0.1-0.8-0.3-1.1c-0.4-0.2-0.9-0.3-1.4-0.3H1072z"/>
	<path id="Trazado_1198" class="st5" d="M1082.5,311.9v6.6h-1.3l-0.1-0.5c-0.2,0.2-0.4,0.4-0.7,0.5c-0.3,0.1-0.7,0.2-1,0.2
		c-0.5,0-0.9-0.1-1.2-0.4c-0.3-0.5-0.4-1-0.4-1.5v-1.7c0-0.6,0.2-1.1,0.7-1.4c0.8-0.4,1.7-0.5,2.6-0.5v-1.2c0-0.4,0-0.7-0.2-1
		c-0.2-0.2-0.4-0.3-0.7-0.3c-0.3,0-0.5,0.1-0.7,0.2c-0.2,0.3-0.2,0.6-0.2,0.9v0.5h-1.4v-0.2c-0.1-0.6,0.1-1.3,0.5-1.8
		c0.5-0.4,1.2-0.5,1.8-0.5c0.6-0.1,1.3,0.1,1.8,0.5C1082.4,310.7,1082.5,311.3,1082.5,311.9 M1081.1,314c-0.5,0-1,0.1-1.5,0.3
		c-0.3,0.2-0.4,0.6-0.4,0.9v1.4c0,0.4,0,0.7,0.2,1c0.2,0.2,0.5,0.3,0.7,0.3c0.3,0,0.5-0.1,0.7-0.3c0.2-0.3,0.3-0.7,0.2-1L1081.1,314
		z"/>
	<path id="Trazado_1199" class="st5" d="M1086,307.6v2.3h1.1v0.9h-1.1v6.4c0,0.2,0,0.4,0.2,0.5c0.2,0.1,0.4,0.2,0.7,0.1h0.2v0.9
		c-0.1,0-0.2,0-0.3,0c-0.1,0-0.2,0-0.4,0c-0.5,0.1-1-0.1-1.4-0.4c-0.3-0.5-0.5-1.1-0.4-1.7v-5.9h-0.8v-0.9h0.8V308L1086,307.6z"/>
	<path id="Trazado_1200" class="st5" d="M1093.1,312.2v4.1c0.1,0.7-0.1,1.4-0.5,1.9c-0.5,0.4-1.2,0.6-1.8,0.5
		c-0.7,0.1-1.3-0.1-1.8-0.5c-0.4-0.6-0.6-1.3-0.5-2v-4.1c-0.1-0.7,0.1-1.4,0.5-1.9c0.5-0.4,1.2-0.6,1.8-0.5c0.7-0.1,1.3,0.1,1.8,0.5
		C1093,310.8,1093.2,311.5,1093.1,312.2 M1091.7,311.9c0-0.4,0-0.7-0.2-1c-0.2-0.2-0.4-0.3-0.7-0.3c-0.3,0-0.5,0.1-0.7,0.3
		c-0.2,0.3-0.2,0.7-0.2,1v4.6c0,0.4,0,0.7,0.2,1c0.2,0.2,0.4,0.3,0.7,0.3c0.3,0,0.5-0.1,0.7-0.3c0.2-0.3,0.2-0.7,0.2-1L1091.7,311.9
		z"/>
	<path id="Trazado_1201" class="st5" d="M1099.1,311.9v0.5h-1.4v-0.5c0-0.4,0-0.7-0.2-1.1c-0.1-0.2-0.3-0.3-0.6-0.3
		c-0.2,0-0.4,0.1-0.5,0.2c-0.1,0.3-0.2,0.5-0.2,0.8v0.3c0,0.2,0,0.4,0.1,0.5c0.1,0.2,0.3,0.4,0.5,0.6l1.7,1.7
		c0.2,0.2,0.3,0.4,0.4,0.6c0.1,0.2,0.1,0.4,0.2,0.6v0.8c0.1,0.6-0.1,1.1-0.5,1.6c-0.5,0.3-1.1,0.5-1.7,0.4c-0.6,0.1-1.2-0.1-1.7-0.5
		c-0.4-0.5-0.5-1.1-0.5-1.7v-0.7h1.4v0.7c0,0.4,0,0.7,0.2,1.1c0.1,0.2,0.4,0.3,0.6,0.3c0.2,0,0.5-0.1,0.6-0.3
		c0.1-0.3,0.2-0.6,0.2-0.9v-0.3c0-0.5-0.3-1-0.7-1.4c0,0,0,0,0,0l-1.6-1.6c-0.2-0.1-0.3-0.3-0.4-0.5c-0.1-0.2-0.1-0.4-0.1-0.6v-0.6
		c-0.1-0.5,0.1-1.1,0.5-1.5c0.5-0.3,1-0.5,1.6-0.5c0.6-0.1,1.2,0.1,1.6,0.5C1099,310.7,1099.2,311.3,1099.1,311.9"/>
	<path id="Trazado_1202" class="st5" d="M1109.2,311.7v5.1c0.1,0.5-0.1,1.1-0.4,1.5c-0.3,0.3-0.8,0.5-1.2,0.4c-0.3,0-0.7-0.1-1-0.2
		c-0.3-0.1-0.5-0.3-0.7-0.5v3.8h-1.4v-11.9h1.3l0.1,0.5c0.2-0.2,0.4-0.4,0.7-0.5c0.3-0.1,0.7-0.2,1-0.2c0.5,0,0.9,0.1,1.2,0.4
		C1109.2,310.6,1109.3,311.2,1109.2,311.7 M1107.8,311.9c0-0.4,0-0.7-0.2-1c-0.2-0.2-0.4-0.3-0.7-0.3c-0.3,0-0.5,0.1-0.7,0.3
		c-0.2,0.3-0.2,0.7-0.2,1v4.6c0,0.4,0,0.7,0.2,1c0.2,0.2,0.5,0.3,0.7,0.3c0.3,0,0.5-0.1,0.7-0.3c0.2-0.3,0.2-0.7,0.2-1L1107.8,311.9
		z"/>
	<path id="Trazado_1203" class="st5" d="M1116,312.2v4.1c0.1,0.7-0.1,1.4-0.5,1.9c-0.5,0.4-1.2,0.6-1.8,0.5
		c-0.7,0.1-1.3-0.1-1.8-0.5c-0.4-0.6-0.6-1.3-0.5-2v-4.1c-0.1-0.7,0.1-1.4,0.5-1.9c0.5-0.4,1.2-0.6,1.8-0.5c0.7-0.1,1.3,0.1,1.8,0.5
		C1115.9,310.8,1116,311.5,1116,312.2 M1114.5,311.9c0-0.4,0-0.7-0.2-1c-0.2-0.2-0.4-0.3-0.7-0.3c-0.3,0-0.5,0.1-0.7,0.3
		c-0.2,0.3-0.2,0.7-0.2,1v4.6c0,0.4,0,0.7,0.2,1c0.2,0.2,0.4,0.3,0.7,0.3c0.3,0,0.5-0.1,0.7-0.3c0.2-0.3,0.2-0.7,0.2-1L1114.5,311.9
		z"/>
	<path id="Trazado_1204" class="st5" d="M1121.3,309.7v1h-0.2c-0.4,0-0.9,0.1-1.3,0.3c-0.3,0.3-0.4,0.7-0.4,1.1v6.3h-1.4v-8.6h1.3
		l0.1,0.5c0.2-0.2,0.4-0.4,0.7-0.5c0.3-0.1,0.6-0.2,0.9-0.2c0,0,0.1,0,0.1,0C1121.2,309.7,1121.3,309.7,1121.3,309.7"/>
	<path id="Trazado_1206" class="st5" d="M976.5,324.2h4v1H978v4.5h2.4v1H978v5h2.6v1h-4V324.2z"/>
	<path id="Trazado_1207" class="st5" d="M987.1,329.7v6.9h-1.4v-6.6c0-0.4,0-0.7-0.2-1c-0.2-0.2-0.5-0.3-0.8-0.3
		c-0.3,0-0.6,0.1-0.7,0.3c-0.2,0.3-0.3,0.7-0.2,1v6.6h-1.4v-8.6h1.3l0.1,0.5c0.2-0.2,0.4-0.4,0.7-0.6c0.3-0.1,0.7-0.2,1-0.2
		c0.5,0,0.9,0.1,1.2,0.4C987,328.6,987.1,329.2,987.1,329.7"/>
	<path id="Trazado_1208" class="st5" d="M990.7,325.6v2.3h1.1v0.9h-1.1v6.4c0,0.2,0,0.4,0.2,0.5c0.2,0.1,0.4,0.2,0.7,0.1h0.2v0.9
		c-0.1,0-0.2,0-0.3,0c-0.1,0-0.2,0-0.4,0c-0.5,0.1-1-0.1-1.4-0.4c-0.3-0.5-0.5-1.1-0.4-1.7v-5.9h-0.8v-0.9h0.8V326L990.7,325.6z"/>
	<path id="Trazado_1210" class="st5" d="M993,324.2h1.5v1.3H993V324.2z M993.1,327.9h1.4v8.6h-1.4L993.1,327.9z"/>
	<path id="Trazado_1211" class="st5" d="M999.9,324.2h1.4v12.4h-1.3l-0.1-0.5c-0.2,0.2-0.4,0.4-0.7,0.6c-0.3,0.1-0.6,0.2-1,0.2
		c-0.5,0-0.9-0.1-1.2-0.4c-0.3-0.5-0.4-1-0.4-1.5v-5.1c-0.1-0.5,0.1-1.1,0.4-1.5c0.3-0.3,0.8-0.5,1.2-0.4c0.3,0,0.7,0.1,1,0.2
		c0.3,0.1,0.5,0.3,0.7,0.5L999.9,324.2z M999.9,329.9c0-0.4,0-0.7-0.2-1c-0.2-0.2-0.4-0.3-0.7-0.3c-0.3,0-0.5,0.1-0.7,0.3
		c-0.2,0.3-0.2,0.7-0.2,1v4.6c0,0.4,0,0.7,0.2,1c0.2,0.2,0.5,0.3,0.7,0.3c0.3,0,0.5-0.1,0.7-0.3c0.2-0.3,0.2-0.7,0.2-1V329.9z"/>
	<path id="Trazado_1212" class="st5" d="M1007.9,329.9v6.6h-1.3l-0.1-0.5c-0.2,0.2-0.4,0.4-0.7,0.5c-0.3,0.1-0.7,0.2-1,0.2
		c-0.5,0-0.9-0.1-1.2-0.4c-0.3-0.5-0.4-1-0.4-1.5v-1.7c0-0.6,0.2-1.1,0.7-1.4c0.8-0.4,1.7-0.5,2.6-0.5v-1.2c0-0.4,0-0.7-0.2-1
		c-0.2-0.2-0.4-0.3-0.7-0.3c-0.3,0-0.5,0.1-0.7,0.2c-0.2,0.3-0.2,0.6-0.2,0.9v0.5h-1.4v-0.2c-0.1-0.6,0.1-1.3,0.5-1.8
		c0.5-0.4,1.2-0.5,1.8-0.5c0.6-0.1,1.3,0.1,1.8,0.5C1007.8,328.7,1008,329.3,1007.9,329.9 M1006.5,332c-0.5,0-1,0.1-1.5,0.3
		c-0.3,0.2-0.4,0.6-0.4,0.9v1.4c0,0.4,0,0.7,0.2,1c0.2,0.2,0.4,0.3,0.7,0.3c0.3,0,0.5-0.1,0.7-0.3c0.2-0.3,0.3-0.7,0.2-1L1006.5,332
		z"/>
	<path id="Trazado_1213" class="st5" d="M1013.3,324.2h1.4v12.4h-1.3l-0.1-0.5c-0.2,0.2-0.4,0.4-0.7,0.6c-0.3,0.1-0.6,0.2-1,0.2
		c-0.5,0-0.9-0.1-1.2-0.4c-0.3-0.5-0.4-1-0.4-1.5v-5.1c-0.1-0.5,0.1-1.1,0.4-1.5c0.3-0.3,0.8-0.5,1.2-0.4c0.3,0,0.7,0.1,1,0.2
		c0.3,0.1,0.5,0.3,0.7,0.5L1013.3,324.2z M1013.3,329.9c0-0.4,0-0.7-0.2-1c-0.2-0.2-0.4-0.3-0.7-0.3c-0.3,0-0.5,0.1-0.7,0.3
		c-0.2,0.3-0.2,0.7-0.2,1v4.6c0,0.4,0,0.7,0.2,1c0.2,0.2,0.5,0.3,0.7,0.3c0.3,0,0.5-0.1,0.7-0.3c0.2-0.3,0.2-0.7,0.2-1V329.9z"/>
	<path id="Trazado_1215" class="st5" d="M1019.5,324.2h4.9v1h-1.7v11.4h-1.5v-11.4h-1.7V324.2z"/>
	<path id="Trazado_1216" class="st5" d="M1030.3,330.2v2.6h-3.3v1.8c0,0.4,0,0.7,0.2,1c0.2,0.2,0.4,0.3,0.7,0.3
		c0.3,0,0.5-0.1,0.7-0.3c0.2-0.3,0.2-0.7,0.2-1v-1h1.5v0.7c0.1,0.7-0.1,1.4-0.5,1.9c-0.5,0.4-1.2,0.6-1.8,0.5
		c-0.7,0.1-1.3-0.1-1.8-0.5c-0.4-0.6-0.6-1.3-0.5-1.9v-4.1c-0.1-0.7,0.1-1.4,0.5-1.9c0.5-0.4,1.2-0.6,1.8-0.5
		c0.7-0.1,1.3,0.1,1.8,0.5C1030.2,328.8,1030.3,329.5,1030.3,330.2 M1028.8,329.9c0-0.4,0-0.7-0.2-1c-0.2-0.2-0.4-0.3-0.7-0.3
		c-0.3,0-0.5,0.1-0.7,0.3c-0.2,0.3-0.2,0.7-0.2,1v1.9h1.8V329.9z"/>
	<path id="Trazado_1217" class="st5" d="M1035.6,327.7v1h-0.2c-0.4,0-0.9,0.1-1.3,0.3c-0.3,0.3-0.4,0.7-0.4,1.1v6.3h-1.4v-8.6h1.3
		l0.1,0.5c0.2-0.2,0.4-0.4,0.7-0.5c0.3-0.1,0.6-0.2,0.9-0.2c0,0,0.1,0,0.1,0C1035.5,327.7,1035.6,327.7,1035.6,327.7"/>
	<path id="Trazado_1218" class="st5" d="M1039.8,327.7v1h-0.2c-0.4,0-0.9,0.1-1.3,0.3c-0.3,0.3-0.4,0.7-0.4,1.1v6.3h-1.4v-8.6h1.3
		l0.1,0.5c0.2-0.2,0.4-0.4,0.7-0.5c0.3-0.1,0.6-0.2,0.9-0.2c0,0,0.1,0,0.1,0C1039.8,327.7,1039.8,327.7,1039.8,327.7"/>
	<path id="Trazado_1220" class="st5" d="M1040.8,324.2h1.5v1.3h-1.5L1040.8,324.2z M1040.8,327.9h1.4v8.6h-1.4V327.9z"/>
	<path id="Trazado_1221" class="st5" d="M1045.8,325.6v2.3h1.1v0.9h-1.1v6.4c0,0.2,0,0.4,0.2,0.5c0.2,0.1,0.4,0.2,0.7,0.1h0.2v0.9
		c-0.1,0-0.2,0-0.3,0c-0.1,0-0.2,0-0.4,0c-0.5,0.1-1-0.1-1.4-0.4c-0.3-0.5-0.5-1.1-0.4-1.7v-5.9h-0.8v-0.9h0.8V326L1045.8,325.6z"/>
	<path id="Trazado_1222" class="st5" d="M1052.9,330.2v4.1c0.1,0.7-0.1,1.4-0.5,1.9c-0.5,0.4-1.2,0.6-1.8,0.5
		c-0.7,0.1-1.3-0.1-1.8-0.5c-0.4-0.6-0.6-1.3-0.5-1.9v-4.1c-0.1-0.7,0.1-1.4,0.5-1.9c0.5-0.4,1.2-0.6,1.8-0.5
		c0.7-0.1,1.3,0.1,1.8,0.5C1052.8,328.8,1053,329.5,1052.9,330.2 M1051.4,329.9c0-0.4,0-0.7-0.2-1c-0.2-0.2-0.4-0.3-0.7-0.3
		c-0.3,0-0.5,0.1-0.7,0.3c-0.2,0.3-0.2,0.7-0.2,1v4.6c0,0.4,0,0.7,0.2,1c0.2,0.2,0.4,0.3,0.7,0.3c0.3,0,0.5-0.1,0.7-0.3
		c0.2-0.3,0.2-0.7,0.2-1L1051.4,329.9z"/>
	<path id="Trazado_1223" class="st5" d="M1058.2,327.7v1h-0.2c-0.4,0-0.9,0.1-1.3,0.3c-0.3,0.3-0.4,0.7-0.4,1.1v6.3h-1.4v-8.6h1.3
		l0.1,0.5c0.2-0.2,0.4-0.4,0.7-0.5c0.3-0.1,0.6-0.2,0.9-0.2c0,0,0.1,0,0.1,0C1058.1,327.7,1058.2,327.7,1058.2,327.7"/>
	<path id="Trazado_1225" class="st5" d="M1059.1,324.2h1.5v1.3h-1.5V324.2z M1059.2,327.9h1.4v8.6h-1.4V327.9z"/>
	<path id="Trazado_1226" class="st5" d="M1067.3,329.9v6.6h-1.3l-0.1-0.5c-0.2,0.2-0.4,0.4-0.7,0.5c-0.3,0.1-0.7,0.2-1,0.2
		c-0.5,0-0.9-0.1-1.2-0.4c-0.3-0.5-0.4-1-0.4-1.5v-1.7c0-0.6,0.2-1.1,0.7-1.4c0.8-0.4,1.7-0.5,2.6-0.5v-1.2c0-0.4,0-0.7-0.2-1
		c-0.2-0.2-0.4-0.3-0.7-0.3c-0.3,0-0.5,0.1-0.7,0.2c-0.2,0.3-0.2,0.6-0.2,0.9v0.5h-1.4v-0.2c-0.1-0.6,0.1-1.3,0.5-1.8
		c0.5-0.4,1.2-0.5,1.8-0.5c0.6-0.1,1.3,0.1,1.8,0.5C1067.1,328.7,1067.3,329.3,1067.3,329.9 M1065.9,332c-0.5,0-1,0.1-1.5,0.3
		c-0.3,0.2-0.4,0.6-0.4,0.9v1.4c0,0.4,0,0.7,0.2,1c0.2,0.2,0.5,0.3,0.7,0.3c0.3,0,0.5-0.1,0.7-0.3c0.2-0.3,0.3-0.7,0.2-1L1065.9,332
		z"/>
	<path id="Trazado_1228" class="st5" d="M1069.4,324.2h1.4v12.4h-1.4V324.2z"/>
	<path id="Trazado_1229" class="st5" d="M1079.7,324.2h1.4v12.4h-1.3l-0.1-0.5c-0.2,0.2-0.4,0.4-0.7,0.6c-0.3,0.1-0.6,0.2-1,0.2
		c-0.5,0-0.9-0.1-1.2-0.4c-0.3-0.5-0.4-1-0.4-1.5v-5.1c-0.1-0.5,0.1-1.1,0.4-1.5c0.3-0.3,0.8-0.5,1.2-0.4c0.3,0,0.7,0.1,1,0.2
		c0.3,0.1,0.5,0.3,0.7,0.5L1079.7,324.2z M1079.7,329.9c0-0.4,0-0.7-0.2-1c-0.2-0.2-0.4-0.3-0.7-0.3c-0.3,0-0.5,0.1-0.7,0.3
		c-0.2,0.3-0.2,0.7-0.2,1v4.6c0,0.4,0,0.7,0.2,1c0.2,0.2,0.5,0.3,0.7,0.3c0.3,0,0.5-0.1,0.7-0.3c0.2-0.3,0.2-0.7,0.2-1V329.9z"/>
	<path id="Trazado_1230" class="st5" d="M1087.8,330.2v2.6h-3.3v1.8c0,0.4,0,0.7,0.2,1c0.2,0.2,0.4,0.3,0.7,0.3
		c0.3,0,0.5-0.1,0.7-0.3c0.2-0.3,0.2-0.7,0.2-1v-1h1.5v0.7c0.1,0.7-0.1,1.4-0.5,1.9c-0.5,0.4-1.2,0.6-1.8,0.5
		c-0.7,0.1-1.3-0.1-1.8-0.5c-0.4-0.6-0.6-1.3-0.5-1.9v-4.1c-0.1-0.7,0.1-1.4,0.5-1.9c0.5-0.4,1.2-0.6,1.8-0.5
		c0.7-0.1,1.3,0.1,1.8,0.5C1087.7,328.8,1087.9,329.5,1087.8,330.2 M1086.4,329.9c0-0.4,0-0.7-0.2-1c-0.2-0.2-0.4-0.3-0.7-0.3
		c-0.3,0-0.5,0.1-0.7,0.3c-0.2,0.3-0.2,0.7-0.2,1v1.9h1.8V329.9z"/>
	<path id="Trazado_1231" class="st5" d="M1098,326.1v1.2h-1.5v-1.1c0-0.3,0-0.7-0.2-1c-0.2-0.2-0.5-0.3-0.7-0.3
		c-0.3,0-0.5,0.1-0.7,0.3c-0.2,0.3-0.2,0.7-0.2,1.1v0.6c0,0.3,0,0.5,0.1,0.8c0.1,0.3,0.2,0.5,0.4,0.8l1.9,2.5
		c0.3,0.4,0.5,0.8,0.7,1.2c0.1,0.4,0.2,0.7,0.2,1.1v0.8c0.1,0.8-0.1,1.5-0.5,2.2c-0.5,0.4-1.2,0.6-1.9,0.6c-0.7,0.1-1.3-0.1-1.9-0.5
		c-0.4-0.5-0.6-1.1-0.5-1.7v-1.4h1.5v1.3c0,0.4,0,0.7,0.2,1c0.2,0.2,0.5,0.3,0.7,0.3c0.3,0,0.6-0.1,0.8-0.3c0.2-0.4,0.3-0.9,0.2-1.3
		v-0.9c0-0.3,0-0.6-0.1-0.9c-0.1-0.3-0.2-0.5-0.3-0.7l-2-2.6c-0.2-0.3-0.5-0.7-0.6-1c-0.1-0.3-0.2-0.5-0.2-0.8v-0.7
		c-0.1-0.7,0.1-1.4,0.5-2c0.5-0.4,1.2-0.6,1.8-0.6c0.7-0.1,1.3,0.1,1.9,0.4C1097.9,324.9,1098.1,325.5,1098,326.1"/>
	<path id="Trazado_1232" class="st5" d="M1104.3,329.9v6.6h-1.3l-0.1-0.5c-0.2,0.2-0.4,0.4-0.7,0.5c-0.3,0.1-0.7,0.2-1,0.2
		c-0.5,0-0.9-0.1-1.2-0.4c-0.3-0.5-0.4-1-0.4-1.5v-1.7c0-0.6,0.2-1.1,0.7-1.4c0.8-0.4,1.7-0.5,2.6-0.5v-1.2c0-0.4,0-0.7-0.2-1
		c-0.2-0.2-0.4-0.3-0.7-0.3c-0.3,0-0.5,0.1-0.7,0.2c-0.2,0.3-0.2,0.6-0.2,0.9v0.5h-1.4v-0.2c-0.1-0.6,0.1-1.3,0.5-1.8
		c0.5-0.4,1.2-0.5,1.8-0.5c0.6-0.1,1.3,0.1,1.8,0.5C1104.2,328.7,1104.4,329.3,1104.3,329.9 M1102.9,332c-0.5,0-1,0.1-1.5,0.3
		c-0.3,0.2-0.4,0.6-0.4,0.9v1.4c0,0.4,0,0.7,0.2,1c0.2,0.2,0.5,0.3,0.7,0.3c0.3,0,0.5-0.1,0.7-0.3c0.2-0.3,0.3-0.7,0.2-1L1102.9,332
		z"/>
	<path id="Trazado_1234" class="st5" d="M1106.4,324.2h1.4v12.4h-1.4V324.2z"/>
	<path id="Trazado_1235" class="st5" d="M1109.9,327.9h1.4v6.6c0,0.4,0,0.7,0.2,1.1c0.2,0.2,0.5,0.3,0.7,0.3c0.3,0,0.6-0.1,0.7-0.3
		c0.2-0.3,0.2-0.7,0.2-1v-6.6h1.4v8.6h-1.3l-0.1-0.5c-0.2,0.2-0.4,0.4-0.7,0.5c-0.3,0.1-0.6,0.2-1,0.2c-0.5,0-0.9-0.1-1.3-0.4
		c-0.3-0.5-0.4-1-0.4-1.5V327.9z"/>
	<path id="Trazado_1236" class="st5" d="M1120,324.2h1.4v12.4h-1.3l-0.1-0.5c-0.2,0.2-0.4,0.4-0.7,0.6c-0.3,0.1-0.6,0.2-1,0.2
		c-0.5,0-0.9-0.1-1.2-0.4c-0.3-0.5-0.4-1-0.4-1.5v-5.1c-0.1-0.5,0.1-1.1,0.4-1.5c0.3-0.3,0.8-0.5,1.2-0.4c0.3,0,0.7,0.1,1,0.2
		c0.3,0.1,0.5,0.3,0.7,0.5L1120,324.2z M1120,329.9c0-0.4,0-0.7-0.2-1c-0.2-0.2-0.4-0.3-0.7-0.3c-0.3,0-0.5,0.1-0.7,0.3
		c-0.2,0.3-0.2,0.7-0.2,1v4.6c0,0.4,0,0.7,0.2,1c0.2,0.2,0.5,0.3,0.7,0.3c0.3,0,0.5-0.1,0.7-0.3c0.2-0.3,0.2-0.7,0.2-1V329.9z"/>
	<path id="Trazado_1238" class="st6" d="M938.1,286v261.8"/>
	<path id="Trazado_1239" class="st7" d="M716.1,354h444"/>
	<path id="Trazado_1242" class="st5" d="M730.9,303.9l1.2,3.4h1.5l-3.7-10.8h-1.7l-3.7,10.8h1.4l1.1-3.4H730.9z M727.3,302.8
		l1.1-3.1c0.2-0.7,0.4-1.3,0.5-2h0c0.2,0.6,0.3,1.3,0.6,2l1.1,3.1H727.3z M740.1,305.9c-0.5,0.3-1.1,0.4-1.7,0.4
		c-1.5,0-2.7-1.1-2.7-2.6c0-0.1,0-0.2,0-0.3c-0.1-1.5,0.9-2.8,2.4-2.9c0.1,0,0.2,0,0.3,0c0.6,0,1.1,0.1,1.6,0.4l0.3-1.1
		c-0.6-0.3-1.3-0.4-2-0.4c-2.2-0.1-4,1.5-4.2,3.7c0,0.1,0,0.3,0,0.4c-0.2,2,1.4,3.8,3.4,3.9c0.2,0,0.3,0,0.5,0
		c0.8,0,1.5-0.1,2.2-0.4L740.1,305.9z"/>
	<path id="Trazado_1243" class="st5" d="M742.5,297.7v1.9h-1.2v1.1h1.2v4.2c-0.1,0.7,0.1,1.4,0.5,2c0.4,0.4,1,0.6,1.5,0.6
		c0.4,0,0.8-0.1,1.2-0.2l-0.1-1.1c-0.3,0.1-0.5,0.1-0.8,0.1c-0.8,0-1.1-0.5-1.1-1.5v-4.2h2v-1.1h-2v-2.2L742.5,297.7z M754,299.5
		h-1.4v4.8c0,0.2,0,0.5-0.1,0.7c-0.3,0.8-1,1.3-1.9,1.3c-1.3,0-1.7-1-1.7-2.5v-4.3h-1.4v4.5c0,2.7,1.5,3.4,2.7,3.4
		c1.1,0,2-0.5,2.6-1.4h0l0.1,1.3h1.2c0-0.6-0.1-1.3-0.1-2.1V299.5z M761.9,307.3c-0.1-0.6-0.1-1.2-0.1-1.9v-2.9
		c0-1.6-0.6-3.2-2.9-3.2c-0.9,0-1.8,0.2-2.5,0.7l0.3,0.9c0.6-0.4,1.3-0.6,2-0.6c0.9-0.1,1.7,0.5,1.8,1.4c0,0.1,0,0.2,0,0.4v0.2
		c-3,0-4.7,1-4.7,2.9c0,1.2,1,2.2,2.2,2.2c0.1,0,0.1,0,0.2,0c0.9,0,1.8-0.4,2.4-1.2h0l0.1,1H761.9z M760.4,304.7
		c0,0.2,0,0.3-0.1,0.4c-0.3,0.8-1,1.3-1.9,1.3c-0.7,0-1.3-0.5-1.3-1.2c0-0.1,0-0.1,0-0.2c0-1.5,1.7-1.8,3.3-1.7V304.7z M764,307.3
		h1.4v-11.4H764V307.3z M769.2,307.3v-7.7h-1.4v7.7H769.2z M768.5,296.5c-0.5,0-0.9,0.4-0.9,0.8c0,0,0,0,0,0c0,0.5,0.3,0.8,0.8,0.9
		c0,0,0,0,0,0c0.5,0,0.9-0.3,0.9-0.8c0,0,0-0.1,0-0.1C769.4,296.9,769.1,296.5,768.5,296.5C768.6,296.5,768.5,296.5,768.5,296.5
		L768.5,296.5z M770.7,307.3h6.3v-1.1h-4.5v0c0.4-0.4,0.7-0.8,1-1.2l3.5-4.5l0-0.9H771v1.1h4.2v0c-0.4,0.4-0.7,0.8-1,1.2l-3.5,4.6
		L770.7,307.3z M784,307.3c-0.1-0.6-0.1-1.2-0.1-1.9v-2.9c0-1.6-0.6-3.2-2.9-3.2c-0.9,0-1.8,0.2-2.5,0.7l0.3,0.9
		c0.6-0.4,1.3-0.6,2-0.6c0.9-0.1,1.7,0.5,1.8,1.4c0,0.1,0,0.2,0,0.4v0.2c-3,0-4.7,1-4.7,2.9c0,1.2,1,2.2,2.2,2.2c0.1,0,0.1,0,0.2,0
		c0.9,0,1.8-0.4,2.4-1.2h0l0.1,1H784z M782.5,304.7c0,0.2,0,0.3-0.1,0.4c-0.3,0.8-1,1.3-1.9,1.3c-0.7,0-1.3-0.5-1.3-1.2
		c0-0.1,0-0.1,0-0.2c0-1.5,1.7-1.8,3.3-1.7V304.7z M791.4,305.9c-0.5,0.3-1.1,0.4-1.7,0.4c-1.5,0-2.7-1.1-2.7-2.6c0-0.1,0-0.2,0-0.3
		c-0.1-1.5,0.9-2.8,2.4-2.9c0.1,0,0.2,0,0.3,0c0.6,0,1.1,0.1,1.6,0.4l0.3-1.1c-0.6-0.3-1.3-0.4-2-0.4c-2.2-0.1-4,1.5-4.2,3.7
		c0,0.1,0,0.3,0,0.4c-0.2,2,1.4,3.8,3.4,3.9c0.2,0,0.3,0,0.5,0c0.8,0,1.5-0.1,2.2-0.4L791.4,305.9z M794.7,307.3v-7.7h-1.4v7.7
		H794.7z M794,296.5c-0.5,0-0.9,0.4-0.9,0.8c0,0,0,0,0,0c0,0.5,0.3,0.8,0.8,0.9c0,0,0,0,0,0c0.5,0,0.9-0.3,0.9-0.8c0,0,0-0.1,0-0.1
		C794.9,296.9,794.5,296.5,794,296.5C794,296.5,794,296.5,794,296.5L794,296.5z M800.3,299.4c-2.1,0-3.8,1.6-3.9,3.7
		c0,0.1,0,0.3,0,0.4c-0.2,2,1.3,3.8,3.4,4c0.1,0,0.2,0,0.3,0c2.1,0,3.8-1.6,3.9-3.7c0-0.1,0-0.3,0-0.4c0.2-2-1.3-3.8-3.3-4
		C800.6,299.4,800.4,299.4,800.3,299.4L800.3,299.4z M800.3,300.4c1.7,0,2.3,1.7,2.3,3c0,1.7-1,3-2.4,3c-1.4,0-2.4-1.3-2.4-3
		C797.9,302,798.6,300.4,800.3,300.4L800.3,300.4z M800.8,296.2l-1.4,2.3h1l2-2.3H800.8z M805.8,307.3h1.4v-4.7c0-0.2,0-0.4,0.1-0.7
		c0.2-0.8,1-1.4,1.9-1.4c1.3,0,1.8,1,1.8,2.3v4.5h1.4v-4.6c0-2.7-1.7-3.3-2.7-3.3c-1.1,0-2,0.5-2.6,1.5h0l-0.1-1.3h-1.3
		c0,0.6,0.1,1.3,0.1,2.1L805.8,307.3z M823.4,295.9v4.6h0c-0.5-0.8-1.4-1.2-2.3-1.2c-1.9,0-3.5,1.6-3.5,4.2c0,2.4,1.4,3.9,3.3,3.9
		c1.1,0,2.1-0.5,2.6-1.5h0l0.1,1.3h1.3c0-0.5-0.1-1.3-0.1-2v-9.4H823.4z M823.4,304c0,0.2,0,0.4-0.1,0.6c-0.2,1-1.1,1.7-2.1,1.7
		c-1.5,0-2.3-1.3-2.3-2.9c0-1.7,0.9-3,2.3-3c1,0,1.8,0.7,2,1.6c0,0.2,0.1,0.4,0.1,0.6V304z M833.3,303.7c0-0.2,0-0.4,0-0.7
		c0-1.4-0.7-3.6-3.2-3.6c-2.3,0-3.6,1.8-3.6,4.2c-0.2,2,1.3,3.7,3.3,3.9c0.2,0,0.4,0,0.5,0c0.9,0,1.8-0.1,2.6-0.5l-0.2-1
		c-0.7,0.3-1.4,0.4-2.1,0.4c-1.4,0.1-2.6-0.9-2.7-2.3c0-0.1,0-0.3,0-0.4H833.3z M827.9,302.7c0-1.2,1-2.2,2.2-2.3c1.1,0,2,0.9,2,2
		c0,0.1,0,0.2,0,0.3H827.9z M838.6,307.3c0.8,0.1,1.7,0.1,2.5,0.1c1.7,0.1,3.4-0.4,4.8-1.6c1.1-1.1,1.6-2.6,1.6-4.2
		c0.1-1.5-0.5-2.9-1.5-3.9c-1.2-1-2.8-1.5-4.4-1.3c-1,0-2,0.1-3,0.2V307.3z M840,297.7c0.5-0.1,1.1-0.2,1.6-0.1
		c2.9,0,4.4,1.6,4.4,4.2c0,2.9-1.6,4.6-4.6,4.6c-0.5,0-0.9,0-1.4-0.1V297.7z M854.7,307.3c-0.1-0.6-0.1-1.2-0.1-1.9v-2.9
		c0-1.6-0.6-3.2-2.9-3.2c-0.9,0-1.8,0.2-2.5,0.7l0.3,0.9c0.6-0.4,1.3-0.6,2-0.6c0.9-0.1,1.7,0.5,1.8,1.4c0,0.1,0,0.2,0,0.4v0.2
		c-3,0-4.7,1-4.7,2.9c0,1.2,1,2.2,2.2,2.2c0.1,0,0.1,0,0.2,0c0.9,0,1.8-0.4,2.4-1.2h0l0.1,1H854.7z M853.3,304.7
		c0,0.2,0,0.3-0.1,0.4c-0.3,0.8-1,1.3-1.9,1.3c-0.7,0-1.3-0.5-1.3-1.2c0-0.1,0-0.1,0-0.2c0-1.5,1.7-1.8,3.3-1.7V304.7z M857.1,297.7
		v1.9h-1.2v1.1h1.2v4.2c-0.1,0.7,0.1,1.4,0.5,2c0.4,0.4,1,0.6,1.5,0.6c0.4,0,0.8-0.1,1.2-0.2l-0.1-1.1c-0.3,0.1-0.5,0.1-0.8,0.1
		c-0.8,0-1.1-0.5-1.1-1.5v-4.2h2v-1.1h-2v-2.2L857.1,297.7z M865.3,299.4c-2.1,0-3.8,1.6-3.9,3.7c0,0.1,0,0.3,0,0.4
		c-0.2,2,1.3,3.8,3.4,4c0.1,0,0.2,0,0.3,0c2.1,0,3.8-1.6,3.9-3.7c0-0.1,0-0.3,0-0.4c0.2-2-1.3-3.8-3.3-4
		C865.6,299.4,865.4,299.4,865.3,299.4L865.3,299.4z M865.3,300.4c1.7,0,2.3,1.7,2.3,3c0,1.7-1,3-2.4,3c-1.4,0-2.4-1.3-2.4-3
		C862.9,302,863.6,300.4,865.3,300.4L865.3,300.4z M874.2,310.5h1.4v-4.2h0c0.5,0.8,1.4,1.3,2.4,1.2c1.8,0,3.5-1.4,3.5-4.2
		c0-2.4-1.4-3.9-3.3-3.9c-1.1,0-2.2,0.5-2.8,1.5h0l-0.1-1.3h-1.3c0,0.7,0.1,1.5,0.1,2.5L874.2,310.5z M875.6,302.8
		c0-0.2,0-0.4,0.1-0.6c0.2-1,1.1-1.7,2.1-1.7c1.5,0,2.3,1.3,2.3,2.9c0,1.8-0.9,3-2.4,3c-1,0-1.9-0.7-2.1-1.6c0-0.2-0.1-0.4-0.1-0.6
		L875.6,302.8z M886.6,299.4c-2.1,0-3.8,1.6-3.9,3.7c0,0.1,0,0.3,0,0.4c-0.2,2,1.3,3.8,3.4,4c0.1,0,0.2,0,0.3,0
		c2.1,0,3.8-1.6,3.9-3.7c0-0.1,0-0.3,0-0.4c0.2-2-1.3-3.8-3.3-4C886.8,299.4,886.7,299.4,886.6,299.4L886.6,299.4z M886.5,300.4
		c1.7,0,2.3,1.7,2.3,3c0,1.7-1,3-2.4,3c-1.4,0-2.4-1.3-2.4-3C884.2,302,884.9,300.4,886.5,300.4z M892.1,307.3h1.4v-4.1
		c0-0.2,0-0.4,0.1-0.7c0.1-1,0.9-1.8,1.9-1.8c0.2,0,0.3,0,0.5,0v-1.3c-0.1,0-0.3,0-0.4,0c-1,0-1.9,0.7-2.1,1.7h-0.1l0-1.5H892
		c0,0.7,0.1,1.5,0.1,2.4V307.3z"/>
	<path id="Trazado_1244" class="st5" d="M904.1,307.3l3.9-10.8h-1.5l-1.8,5.3c-0.5,1.4-0.9,2.8-1.2,4h0c-0.3-1.3-0.7-2.6-1.2-4
		l-1.7-5.3H899l3.5,10.8H904.1z"/>
	<path id="Trazado_1245" class="st5" d="M914.1,307.3c-0.1-0.6-0.1-1.2-0.1-1.9v-2.9c0-1.6-0.6-3.2-2.9-3.2c-0.9,0-1.8,0.2-2.5,0.7
		l0.3,0.9c0.6-0.4,1.3-0.6,2-0.6c0.9-0.1,1.7,0.5,1.8,1.4c0,0.1,0,0.2,0,0.4v0.2c-3,0-4.7,1-4.7,2.9c0,1.2,1,2.2,2.2,2.2
		c0.1,0,0.1,0,0.2,0c0.9,0,1.8-0.4,2.4-1.2h0l0.1,1H914.1z M912.6,304.7c0,0.2,0,0.3-0.1,0.4c-0.3,0.8-1,1.3-1.9,1.3
		c-0.7,0-1.3-0.5-1.3-1.2c0-0.1,0-0.1,0-0.2c0-1.5,1.7-1.8,3.3-1.7V304.7z M916.2,307.3h1.4v-11.4h-1.4V307.3z M923.3,299.4
		c-2.1,0-3.8,1.6-3.8,3.7c0,0.1,0,0.3,0,0.4c-0.2,2,1.3,3.8,3.4,4c0.1,0,0.2,0,0.3,0c2.1,0,3.8-1.6,3.9-3.7c0-0.1,0-0.3,0-0.4
		c0.2-2-1.3-3.8-3.3-4C923.6,299.4,923.4,299.4,923.3,299.4z M923.3,300.4c1.7,0,2.3,1.7,2.3,3c0,1.7-1,3-2.4,3
		c-1.4,0-2.3-1.3-2.3-3C920.9,302,921.6,300.4,923.3,300.4z"/>
	<path id="Trazado_1246" class="st5" d="M926.6,302.4v1h4v-1H926.6z"/>
	<path id="Trazado_1240" class="st5" d="M725.2,325.5h1.4v-4.1c0-0.2,0-0.4,0.1-0.7c0.1-1,0.9-1.8,1.9-1.8c0.2,0,0.3,0,0.5,0v-1.3
		c-0.1,0-0.3,0-0.4,0c-1,0-1.9,0.7-2.1,1.7h-0.1l0-1.5h-1.2c0,0.7,0.1,1.5,0.1,2.4L725.2,325.5z M736,325.5
		c-0.1-0.6-0.1-1.2-0.1-1.9v-2.9c0-1.6-0.6-3.2-2.9-3.2c-0.9,0-1.8,0.2-2.5,0.7l0.3,0.9c0.6-0.4,1.3-0.6,2-0.6
		c0.9-0.1,1.7,0.5,1.8,1.4c0,0.1,0,0.2,0,0.4v0.2c-3,0-4.7,1-4.7,2.9c0,1.2,1,2.2,2.2,2.2c0.1,0,0.1,0,0.2,0c0.9,0,1.8-0.4,2.4-1.2
		h0.1l0.1,1H736z M734.5,322.9c0,0.2,0,0.3-0.1,0.4c-0.3,0.8-1,1.3-1.9,1.3c-0.7,0-1.3-0.5-1.3-1.2c0-0.1,0-0.1,0-0.2
		c0-1.5,1.7-1.8,3.3-1.7V322.9z M743.4,324.1c-0.5,0.3-1.1,0.4-1.7,0.4c-1.5,0-2.7-1.1-2.7-2.6c0-0.1,0-0.2,0-0.3
		c-0.1-1.5,0.9-2.8,2.4-2.9c0.1,0,0.2,0,0.3,0c0.6,0,1.1,0.1,1.6,0.4l0.3-1.1c-0.6-0.3-1.3-0.4-2-0.4c-2.2-0.1-4,1.5-4.2,3.7
		c0,0.1,0,0.3,0,0.4c-0.2,2,1.4,3.8,3.4,3.9c0.2,0,0.3,0,0.5,0c0.8,0,1.5-0.1,2.2-0.4L743.4,324.1z M746.7,325.5v-7.7h-1.4v7.7
		H746.7z M746,314.7c-0.5,0-0.9,0.4-0.9,0.8c0,0,0,0,0,0c0,0.5,0.3,0.8,0.8,0.9c0,0,0,0,0,0c0.5,0,0.9-0.3,0.9-0.8c0,0,0-0.1,0-0.1
		C746.9,315.1,746.5,314.7,746,314.7C746,314.7,746,314.7,746,314.7L746,314.7z M752.3,317.6c-2.1,0-3.8,1.6-3.9,3.7
		c0,0.1,0,0.3,0,0.4c-0.2,2,1.3,3.8,3.4,4c0.1,0,0.2,0,0.3,0c2.1,0,3.8-1.6,3.9-3.7c0-0.1,0-0.3,0-0.4c0.2-2-1.3-3.8-3.3-4
		C752.6,317.6,752.4,317.6,752.3,317.6L752.3,317.6z M752.3,318.6c1.7,0,2.3,1.7,2.3,3c0,1.7-1,3-2.4,3c-1.4,0-2.4-1.3-2.4-3
		C749.9,320.2,750.6,318.6,752.3,318.6L752.3,318.6z M752.8,314.4l-1.4,2.3h1l2-2.3H752.8z M757.8,325.5h1.4v-4.7
		c0-0.2,0-0.4,0.1-0.7c0.2-0.8,1-1.4,1.9-1.4c1.3,0,1.8,1,1.8,2.3v4.5h1.4v-4.6c0-2.7-1.7-3.3-2.7-3.3c-1.1,0-2,0.5-2.6,1.5h0
		l-0.1-1.3h-1.2c0,0.6,0.1,1.3,0.1,2.1V325.5z M777.4,324c-0.7,0.3-1.5,0.5-2.3,0.4c-2.6,0-4.1-1.7-4.1-4.3c0-2.8,1.7-4.4,4.2-4.4
		c0.7,0,1.5,0.1,2.2,0.4l0.3-1.1c-0.8-0.4-1.7-0.5-2.6-0.5c-3-0.2-5.5,2.1-5.6,5.1c0,0.2,0,0.4,0,0.6c0,3.5,2.3,5.5,5.3,5.5
		c1,0,1.9-0.1,2.8-0.5L777.4,324z M779.4,325.5h1.4v-11.4h-1.4V325.5z M784.5,325.5v-7.7h-1.4v7.7H784.5z M784.4,314.4l-1.4,2.3h1
		l2-2.3H784.4z M786.9,325.5h1.4v-4.7c0-0.2,0-0.4,0.1-0.7c0.2-0.8,1-1.4,1.9-1.4c1.3,0,1.8,1,1.8,2.3v4.5h1.4v-4.6
		c0-2.7-1.7-3.3-2.7-3.3c-1.1,0-2,0.5-2.6,1.5h0l-0.1-1.3h-1.3c0,0.6,0.1,1.3,0.1,2.1V325.5z M797.2,325.5v-7.7h-1.4v7.7H797.2z
		 M796.5,314.7c-0.5,0-0.9,0.4-0.9,0.8c0,0,0,0,0,0c0,0.5,0.3,0.8,0.8,0.9c0,0,0,0,0,0c0.5,0,0.9-0.3,0.9-0.8c0,0,0-0.1,0-0.1
		C797.4,315.1,797,314.7,796.5,314.7C796.5,314.7,796.5,314.7,796.5,314.7L796.5,314.7z M804.8,324.1c-0.5,0.3-1.1,0.4-1.7,0.4
		c-1.5,0-2.7-1.1-2.7-2.6c0-0.1,0-0.2,0-0.3c-0.1-1.5,0.9-2.8,2.4-2.9c0.1,0,0.2,0,0.3,0c0.6,0,1.1,0.1,1.6,0.4l0.3-1.1
		c-0.6-0.3-1.3-0.4-2-0.4c-2.2-0.1-4,1.5-4.2,3.7c0,0.1,0,0.3,0,0.4c-0.2,2,1.4,3.8,3.4,4c0.2,0,0.3,0,0.5,0c0.8,0,1.5-0.1,2.2-0.4
		L804.8,324.1z M812.2,325.5c-0.1-0.6-0.1-1.2-0.1-1.9v-2.9c0-1.6-0.6-3.2-2.9-3.2c-0.9,0-1.8,0.2-2.5,0.7l0.3,0.9
		c0.6-0.4,1.3-0.6,2-0.6c0.9-0.1,1.7,0.5,1.8,1.4c0,0.1,0,0.2,0,0.4v0.2c-3,0-4.7,1-4.7,2.9c0,1.2,1,2.2,2.2,2.2c0.1,0,0.1,0,0.2,0
		c0.9,0,1.8-0.4,2.4-1.2h0l0.1,1H812.2z M810.7,322.9c0,0.2,0,0.3-0.1,0.4c-0.3,0.8-1,1.3-1.9,1.3c-0.7,0-1.3-0.5-1.3-1.2
		c0-0.1,0-0.1,0-0.2c0-1.5,1.7-1.8,3.3-1.7V322.9z M823,314.1v4.6h0c-0.5-0.8-1.4-1.2-2.3-1.2c-1.9,0-3.5,1.6-3.5,4.2
		c0,2.4,1.4,3.9,3.3,3.9c1.1,0,2.1-0.5,2.6-1.5h0l0.1,1.3h1.3c0-0.5-0.1-1.3-0.1-2v-9.4H823z M823,322.2c0,0.2,0,0.4-0.1,0.6
		c-0.2,1-1.1,1.7-2.1,1.7c-1.5,0-2.3-1.3-2.3-2.9c0-1.7,0.9-3,2.3-3c1,0,1.8,0.7,2,1.6c0,0.2,0.1,0.4,0.1,0.6L823,322.2z M833,321.9
		c0-0.2,0-0.4,0-0.7c0-1.4-0.7-3.6-3.2-3.6c-2.3,0-3.6,1.8-3.6,4.2c-0.2,2,1.3,3.7,3.3,3.9c0.2,0,0.4,0,0.5,0c0.9,0,1.8-0.1,2.6-0.5
		l-0.2-1c-0.7,0.3-1.4,0.4-2.1,0.4c-1.4,0.1-2.6-0.9-2.7-2.3c0-0.1,0-0.3,0-0.4H833z M827.6,320.9c0-1.2,1-2.2,2.2-2.3
		c1.1,0,2,0.9,2,2c0,0.1,0,0.2,0,0.3H827.6z M844.4,321.9c0-0.2,0-0.4,0-0.7c0-1.4-0.7-3.6-3.2-3.6c-2.3,0-3.6,1.8-3.6,4.2
		c-0.2,2,1.3,3.7,3.3,3.9c0.2,0,0.4,0,0.5,0c0.9,0,1.8-0.1,2.6-0.5l-0.2-1c-0.7,0.3-1.4,0.4-2.1,0.4c-1.4,0.1-2.6-0.9-2.7-2.3
		c0-0.1,0-0.3,0-0.4L844.4,321.9z M839,320.9c0-1.2,1-2.2,2.2-2.3c1.1,0,2,0.9,2,2c0,0.1,0,0.2,0,0.3H839z M851.5,328.7h1.4v-8.8
		c0-0.8,0-1.5,0-2.1h-1.3l-0.1,1.2h0c-0.5-0.9-1.4-1.4-2.4-1.3c-1.6,0-3.5,1.3-3.5,4.2c0,2.4,1.5,3.9,3.3,3.9c1,0.1,2-0.5,2.5-1.4h0
		L851.5,328.7z M851.5,322.3c0,0.2,0,0.5-0.1,0.7c-0.3,0.9-1.1,1.5-2,1.5c-1.6,0-2.3-1.3-2.3-2.9c0-1.7,0.9-3,2.3-3
		c1,0,1.8,0.7,2,1.6c0,0.2,0.1,0.4,0.1,0.6V322.3z M861.7,317.7h-1.4v4.8c0,0.2,0,0.5-0.1,0.7c-0.3,0.8-1,1.3-1.9,1.3
		c-1.3,0-1.7-1-1.7-2.5v-4.3h-1.4v4.5c0,2.7,1.5,3.4,2.7,3.4c1.1,0,2-0.5,2.6-1.4h0l0.1,1.3h1.3c0-0.6-0.1-1.3-0.1-2.1V317.7z
		 M865.4,325.5v-7.7H864v7.7H865.4z M864.7,314.7c-0.5,0-0.9,0.4-0.9,0.8c0,0,0,0,0,0c0,0.5,0.3,0.8,0.8,0.9c0,0,0,0,0,0
		c0.5,0,0.9-0.3,0.9-0.8c0,0,0-0.1,0-0.1C865.6,315.1,865.3,314.7,864.7,314.7C864.8,314.7,864.8,314.7,864.7,314.7L864.7,314.7z
		 M867.8,328.7h1.4v-4.2h0c0.5,0.8,1.4,1.3,2.4,1.2c1.8,0,3.5-1.4,3.5-4.2c0-2.4-1.4-3.9-3.3-3.9c-1.1,0-2.2,0.5-2.8,1.5h0l-0.1-1.3
		h-1.3c0,0.7,0.1,1.5,0.1,2.5L867.8,328.7z M869.2,321c0-0.2,0-0.4,0.1-0.6c0.2-1,1.1-1.7,2.1-1.7c1.5,0,2.3,1.3,2.3,2.9
		c0,1.8-0.9,3-2.4,3c-1,0-1.9-0.7-2.1-1.6c0-0.2-0.1-0.4-0.1-0.6V321z M880.2,317.6c-2.1,0-3.8,1.6-3.9,3.7c0,0.1,0,0.3,0,0.4
		c-0.2,2,1.3,3.8,3.4,4c0.1,0,0.2,0,0.3,0c2.1,0,3.8-1.6,3.9-3.7c0-0.1,0-0.3,0-0.4c0.2-2-1.3-3.8-3.3-4
		C880.4,317.6,880.3,317.6,880.2,317.6z M880.1,318.6c1.7,0,2.3,1.7,2.3,3c0,1.7-1,3-2.4,3c-1.4,0-2.4-1.3-2.4-3
		C877.8,320.2,878.5,318.6,880.1,318.6L880.1,318.6z M898.5,325.5h1.4l-0.7-10.8h-1.8l-1.9,5.2c-0.5,1.4-0.9,2.5-1.1,3.6h0
		c-0.3-1.1-0.6-2.3-1.1-3.6l-1.8-5.2h-1.8l-0.7,10.8h1.3l0.3-4.6c0.1-1.6,0.2-3.4,0.2-4.8h0c0.3,1.3,0.7,2.7,1.2,4.2l1.7,5.1h1.1
		l1.9-5.2c0.5-1.5,1-2.8,1.4-4.1h0c0,1.3,0.1,3.2,0.2,4.7L898.5,325.5z M908.5,317.7H907v4.8c0,0.2,0,0.5-0.1,0.7
		c-0.3,0.8-1,1.3-1.9,1.3c-1.3,0-1.7-1-1.7-2.5v-4.3h-1.4v4.5c0,2.7,1.5,3.4,2.7,3.4c1.1,0,2-0.5,2.6-1.4h0l0.1,1.3h1.2
		c0-0.6-0.1-1.3-0.1-2.1V317.7z M910.8,325.5h1.4v-11.4h-1.4V325.5z M914.9,315.9v1.9h-1.2v1.1h1.2v4.2c-0.1,0.7,0.1,1.4,0.5,2
		c0.4,0.4,1,0.6,1.5,0.6c0.4,0,0.8-0.1,1.2-0.2l-0.1-1.1c-0.3,0.1-0.5,0.1-0.8,0.1c-0.8,0-1.1-0.5-1.1-1.5v-4.2h2v-1.1h-2v-2.2
		L914.9,315.9z M921.3,325.5v-7.7h-1.4v7.7H921.3z M920.6,314.7c-0.5,0-0.9,0.4-0.9,0.8c0,0,0,0,0,0c0,0.5,0.3,0.8,0.8,0.9
		c0,0,0,0,0,0c0.5,0,0.9-0.3,0.9-0.8c0,0,0-0.1,0-0.1C921.5,315.1,921.1,314.7,920.6,314.7C920.6,314.7,920.6,314.7,920.6,314.7z
		 M753.8,346.8h1.4v-4.2h0c0.5,0.8,1.4,1.3,2.4,1.2c1.8,0,3.5-1.4,3.5-4.2c0-2.4-1.4-3.9-3.3-3.9c-1.1,0-2.2,0.5-2.8,1.5h0l-0.1-1.3
		h-1.3c0,0.7,0.1,1.5,0.1,2.5L753.8,346.8z M755.2,339.2c0-0.2,0-0.4,0.1-0.6c0.2-1,1.1-1.7,2.1-1.7c1.5,0,2.3,1.3,2.3,2.9
		c0,1.8-0.9,3-2.4,3c-1,0-1.9-0.7-2.1-1.6c0-0.2-0.1-0.4-0.1-0.6V339.2z M763.4,343.9h1.4v-11.4h-1.4V343.9z M769.1,343.7v-7.7h-1.4
		v7.7H769.1z M768.4,332.9c-0.5,0-0.9,0.4-0.9,0.8c0,0,0,0,0,0c0,0.5,0.3,0.8,0.8,0.9c0,0,0,0,0,0c0.5,0,0.9-0.3,0.9-0.8
		c0,0,0-0.1,0-0.1C769.3,333.3,769,332.9,768.4,332.9C768.5,332.9,768.5,332.9,768.4,332.9z M771.7,344.2h1.4v-4.7
		c0-0.2,0-0.4,0.1-0.7c0.2-0.8,1-1.4,1.9-1.4c1.3,0,1.8,1,1.8,2.3v4.5h1.4v-4.6c0-2.7-1.7-3.3-2.7-3.3c-1.1,0-2,0.5-2.6,1.5h0
		l-0.1-1.3h-1.2c0,0.6,0.1,1.3,0.1,2.1V344.2z M785.7,344.1c-0.1-0.6-0.1-1.2-0.1-1.9v-2.9c0-1.6-0.6-3.2-2.9-3.2
		c-0.9,0-1.8,0.2-2.5,0.7l0.3,0.9c0.6-0.4,1.3-0.6,2-0.6c0.9-0.1,1.7,0.5,1.8,1.4c0,0.1,0,0.2,0,0.4v0.2c-3,0-4.7,1-4.7,2.9
		c0,1.2,1,2.2,2.2,2.2c0.1,0,0.1,0,0.2,0c0.9,0,1.8-0.4,2.4-1.2h0.1l0.1,1H785.7z M784.3,341.5c0,0.2,0,0.3-0.1,0.4
		c-0.3,0.8-1,1.3-1.9,1.3c-0.7,0-1.3-0.5-1.3-1.2c0-0.1,0-0.1,0-0.2c0-1.5,1.7-1.8,3.3-1.7V341.5z M787.9,344.2h1.4v-4.1
		c0-0.2,0-0.4,0.1-0.7c0.1-1,0.9-1.8,1.9-1.8c0.2,0,0.3,0,0.5,0v-1.3c-0.1,0-0.3,0-0.4,0c-1,0-1.9,0.7-2.1,1.7h-0.1l0-1.5h-1.2
		c0,0.7,0.1,1.5,0.1,2.4L787.9,344.2z M728.1,332h1.4v12.4h-1.3l-0.1-0.5c-0.2,0.2-0.4,0.4-0.7,0.6c-0.3,0.1-0.6,0.2-1,0.2
		c-0.5,0-0.9-0.1-1.2-0.4c-0.3-0.5-0.4-1-0.4-1.5v-5.1c-0.1-0.5,0.1-1.1,0.4-1.5c0.3-0.3,0.8-0.5,1.2-0.4c0.3,0,0.7,0.1,1,0.2
		c0.3,0.1,0.5,0.3,0.7,0.5L728.1,332z M728.1,337.7c0-0.4,0-0.7-0.2-1c-0.2-0.2-0.4-0.3-0.7-0.3c-0.3,0-0.5,0.1-0.7,0.3
		c-0.2,0.3-0.2,0.7-0.2,1v4.6c0,0.4,0,0.7,0.2,1c0.2,0.2,0.5,0.3,0.7,0.3c0.3,0,0.5-0.1,0.7-0.3c0.2-0.3,0.2-0.7,0.2-1V337.7z
		 M732.4,332.1h1.5v1.3h-1.5V332.1z M732.5,335.8h1.4v8.6h-1.4L732.5,335.8z M739.8,337.9v0.5h-1.4v-0.5c0-0.4,0-0.7-0.2-1.1
		c-0.1-0.2-0.3-0.3-0.6-0.3c-0.2,0-0.4,0.1-0.5,0.2c-0.1,0.3-0.2,0.5-0.2,0.8v0.3c0,0.2,0,0.4,0.1,0.5c0.1,0.2,0.3,0.4,0.5,0.6
		l1.7,1.7c0.2,0.2,0.3,0.4,0.4,0.6c0.1,0.2,0.1,0.4,0.2,0.6v0.8c0.1,0.6-0.1,1.1-0.5,1.6c-0.5,0.3-1.1,0.5-1.7,0.4
		c-0.6,0.1-1.2-0.1-1.7-0.5c-0.4-0.5-0.5-1.1-0.5-1.7v-0.7h1.4v0.7c0,0.4,0,0.7,0.2,1.1c0.1,0.2,0.4,0.3,0.6,0.3
		c0.2,0,0.5-0.1,0.6-0.3c0.1-0.3,0.2-0.6,0.2-0.9v-0.3c0-0.5-0.3-1-0.7-1.4c0,0,0,0,0,0l-1.6-1.6c-0.2-0.1-0.3-0.3-0.4-0.5
		c-0.1-0.2-0.1-0.4-0.1-0.6v-0.6c-0.1-0.5,0.1-1.1,0.5-1.5c0.5-0.3,1-0.5,1.6-0.5c0.6-0.1,1.2,0.1,1.6,0.5
		C739.7,336.7,739.9,337.3,739.8,337.9 M749.5,332.1h1.5v1.3h-1.5V332.1z M749.6,335.8h1.4v8.6h-1.4L749.6,335.8z M746.5,338.2v0.6
		h-1.5v-0.8c0-0.4,0-0.7-0.1-1.1c-0.1-0.2-0.3-0.3-0.6-0.2c-0.2,0-0.4,0.1-0.6,0.3c-0.1,0.3-0.2,0.7-0.2,1.1v4.6
		c0,0.4,0,0.7,0.2,1.1c0.1,0.2,0.4,0.3,0.6,0.3c0.2,0,0.4-0.1,0.5-0.2c0.1-0.3,0.2-0.7,0.1-1.1v-0.9h1.5v0.7
		c0.1,0.7-0.1,1.4-0.5,1.9c-0.5,0.4-1.1,0.6-1.7,0.5c-0.6,0.1-1.2-0.1-1.7-0.5c-0.4-0.6-0.5-1.3-0.5-1.9v-4.1
		c-0.1-0.7,0.1-1.4,0.5-1.9c0.5-0.4,1.1-0.6,1.7-0.5c0.6-0.1,1.2,0.1,1.7,0.5C746.4,336.8,746.6,337.5,746.5,338.2"/>
	<path id="Trazado_1241" class="st5" d="M922.9,321.6v1h4v-1H922.9z"/>
</g>
</svg>
