<svg xmlns="http://www.w3.org/2000/svg" xmlns:xlink="http://www.w3.org/1999/xlink" width="139.727" height="139.32" viewBox="0 0 139.727 139.32">
  <defs>
    <clipPath id="clip-path">
      <path id="Trazado_1034" data-name="Trazado 1034" d="M0,0H139.727V-139.32H0Z" fill="none"/>
    </clipPath>
  </defs>
  <g id="Grupo_778" data-name="Grupo 778" transform="translate(0 139.32)">
    <g id="Grupo_735" data-name="Grupo 735" clip-path="url(#clip-path)">
      <g id="Grupo_691" data-name="Grupo 691" transform="translate(34.492 -85.365)">
        <path id="Trazado_990" data-name="Trazado 990" d="M0,0-.345,9.583c0,.056.035,1.675,4.117,1.675S7.891,9.639,7.891,9.583L7.544,0Z" fill="#705e55"/>
      </g>
      <g id="Grupo_692" data-name="Grupo 692" transform="translate(38.264 -73.775)">
        <path id="Trazado_991" data-name="Trazado 991" d="M0,0C-4.324,0-4.45-1.8-4.45-2.007V-2.02L-4.1-11.6a.329.329,0,0,1,.331-.319H3.772a.332.332,0,0,1,.333.319L4.451-2.02C4.451-1.8,4.326,0,0,0M-3.785-2.007C-3.777-1.933-3.6-.665,0-.665,3.691-.665,3.785-2,3.785-2.012l-.333-9.245h-6.9Z" fill="#2d2e35"/>
      </g>
      <g id="Grupo_693" data-name="Grupo 693" transform="translate(41.773 -83.437)">
        <path id="Trazado_992" data-name="Trazado 992" d="M0,0Q-.632.37-1.3.694a5.1,5.1,0,0,1-2.212.5,5.1,5.1,0,0,1-2.212-.5c-.22-.106-.437-.217-.652-.331A7.53,7.53,0,0,0,.163,4.506Z" fill="#524140"/>
      </g>
      <g id="Grupo_694" data-name="Grupo 694" transform="translate(42.098 -83.633)">
        <path id="Trazado_993" data-name="Trazado 993" d="M0,0C-.107.066-.216.131-.325.195L-.163,4.7c.109,0,.221.006.333.006Z" fill="#2d2e33"/>
      </g>
      <g id="Grupo_695" data-name="Grupo 695" transform="translate(51.914 -113.314)">
        <path id="Trazado_994" data-name="Trazado 994" d="M0,0A16.345,16.345,0,0,1-.538,2.885c-.236.847-.472,1.6-.674,2.365A15.7,15.7,0,0,0-1.781,9.5V15.08a15.776,15.776,0,0,1-.089,1.7A16.088,16.088,0,0,1-2.681,20.4a16.437,16.437,0,0,1-1.83,3.716,17.7,17.7,0,0,1-7.073,6.158,4.754,4.754,0,0,1-2.067.473,4.748,4.748,0,0,1-2.067-.473,18.087,18.087,0,0,1-3.955-2.6l-.01-.016a22.756,22.756,0,0,1-3.208-4.942,3.494,3.494,0,0,0,.612-1.238,3.691,3.691,0,0,0,3.445-3.679,3.684,3.684,0,0,0-1.446-2.93,19.827,19.827,0,0,0,.348-2.845c.007-.106.013-.183.013-.226l0-.042a2.462,2.462,0,0,0,.547.327,2.316,2.316,0,0,0,1.354.14V2.836l.136.007h0a1.453,1.453,0,0,0,.972-.421l.007-.006a2.511,2.511,0,0,0,.475-.608,2.16,2.16,0,0,0,2.78-.887l.019-.033C-8.867.888-5.658-.294-3.515-1.7l.025-.02A11.943,11.943,0,0,0-1.992-2.9a10.713,10.713,0,0,0,1.3-1.436A7.67,7.67,0,0,1,0,0" fill="#705e55"/>
      </g>
      <g id="Grupo_696" data-name="Grupo 696" transform="translate(38.264 -82.239)">
        <path id="Trazado_995" data-name="Trazado 995" d="M0,0A5.087,5.087,0,0,1-2.212-.5,18.322,18.322,0,0,1-6.239-3.156l-.052-.057A23.167,23.167,0,0,1-9.548-8.241.33.33,0,0,1-9.5-8.569a3.136,3.136,0,0,0,.551-1.118.338.338,0,0,1,.3-.247,3.365,3.365,0,0,0,3.135-3.347,3.334,3.334,0,0,0-1.315-2.666.333.333,0,0,1-.124-.33,19.322,19.322,0,0,0,.342-2.8l.006-.1.008-.112v-.047a.318.318,0,0,1,.179-.3.335.335,0,0,1,.362.05,2.229,2.229,0,0,0,.47.28,2.1,2.1,0,0,0,.89.154v-9.091a.334.334,0,0,1,.108-.243.341.341,0,0,1,.25-.088l.111,0a1.1,1.1,0,0,0,.736-.321l.03-.026a2.3,2.3,0,0,0,.4-.507.33.33,0,0,1,.434-.149A1.819,1.819,0,0,0-.28-30.319l.016-.027a.331.331,0,0,1,.292-.174,17.842,17.842,0,0,0,9.921-2.533l.03-.021a11.734,11.734,0,0,0,1.455-1.142,10.468,10.468,0,0,0,1.259-1.39.34.34,0,0,1,.288-.134.335.335,0,0,1,.268.171,7.858,7.858,0,0,1,.733,4.522,16.267,16.267,0,0,1-.549,2.944c-.1.369-.206.721-.3,1.065-.131.44-.254.866-.367,1.3a15.256,15.256,0,0,0-.557,4.161v5.584a15.656,15.656,0,0,1-.094,1.74,16.534,16.534,0,0,1-.825,3.685A16.9,16.9,0,0,1,9.418-6.78,18.024,18.024,0,0,1,2.212-.5,5.09,5.09,0,0,1,0,0M-5.777-3.635A17.643,17.643,0,0,0-1.922-1.1a4.493,4.493,0,0,0,3.843,0,17.353,17.353,0,0,0,6.94-6.042,16.142,16.142,0,0,0,1.8-3.641,15.828,15.828,0,0,0,.791-3.54,15.072,15.072,0,0,0,.09-1.668v-5.584a15.912,15.912,0,0,1,.579-4.332c.115-.436.24-.867.372-1.314.1-.341.2-.689.3-1.055A15.529,15.529,0,0,0,13.32-31.1a7.848,7.848,0,0,0-.429-3.682,11.45,11.45,0,0,1-1.006,1.057,12.41,12.41,0,0,1-1.54,1.209h0l-.024.019A18.348,18.348,0,0,1,.214-29.854a2.476,2.476,0,0,1-2.85,1,2.984,2.984,0,0,1-.378.437l-.015.016a1.84,1.84,0,0,1-1,.5v9.053a.331.331,0,0,1-.251.321,2.649,2.649,0,0,1-1.567-.155l-.119-.055a20,20,0,0,1-.3,2.4A4,4,0,0,1-4.85-13.281,4.034,4.034,0,0,1-8.374-9.293a3.734,3.734,0,0,1-.486.972A23.194,23.194,0,0,0-5.779-3.637Zm19.428-27.44h0Z" fill="#2d2e35"/>
      </g>
      <g id="Grupo_697" data-name="Grupo 697" transform="translate(48.548 -90.903)">
        <path id="Trazado_996" data-name="Trazado 996" d="M0,0H-.016A21.043,21.043,0,0,1-4.839-.639c-2.027-.557-2.276-1.379-2.5-2.106a3.591,3.591,0,0,0-.157-.445.331.331,0,0,1,.172-.437.329.329,0,0,1,.437.167,4.71,4.71,0,0,1,.185.523c.195.642.362,1.2,2.036,1.655A20.139,20.139,0,0,0-.031-.666.364.364,0,0,1,.24-.561.331.331,0,0,1,.227-.09.327.327,0,0,1,0,0" fill="#2d2e35"/>
      </g>
      <g id="Grupo_698" data-name="Grupo 698" transform="translate(46.297 -103.891)">
        <path id="Trazado_997" data-name="Trazado 997" d="M0,0A.832.832,0,0,1-.831-.832V-3.718A.832.832,0,0,1,0-4.55a.833.833,0,0,1,.832.832V-.832A.833.833,0,0,1,0,0" fill="#2d2e35"/>
      </g>
      <g id="Grupo_699" data-name="Grupo 699" transform="translate(43.328 -110.344)">
        <path id="Trazado_998" data-name="Trazado 998" d="M0,0A.337.337,0,0,1-.276-.146.335.335,0,0,1-.187-.608a5.5,5.5,0,0,1,5.884,0,.333.333,0,0,1,.088.462.329.329,0,0,1-.46.088,4.734,4.734,0,0,0-5.138,0A.322.322,0,0,1,0,0" fill="#2d2e35"/>
      </g>
      <g id="Grupo_700" data-name="Grupo 700" transform="translate(50.045 -96.532)">
        <path id="Trazado_999" data-name="Trazado 999" d="M0,0C5.253,0,.092-7.286.092-7.286V-1.7A15.51,15.51,0,0,1,0,0" fill="#705e55"/>
      </g>
      <g id="Grupo_701" data-name="Grupo 701" transform="translate(50.045 -96.2)">
        <path id="Trazado_1000" data-name="Trazado 1000" d="M0,0A.331.331,0,0,1-.247-.11.338.338,0,0,1-.332-.368,14.83,14.83,0,0,0-.241-2.036V-7.618a.331.331,0,0,1,.232-.316.328.328,0,0,1,.37.123C.493-7.626,3.55-3.274,2.446-1.14A2.5,2.5,0,0,1,0,0M.424-6.494v4.458c0,.461-.018.917-.056,1.357a1.681,1.681,0,0,0,1.486-.766c.609-1.179-.527-3.55-1.43-5.049" fill="#2d2e35"/>
      </g>
      <g id="Grupo_702" data-name="Grupo 702" transform="translate(55.264 -116.735)">
        <path id="Trazado_1001" data-name="Trazado 1001" d="M0,0A4.93,4.93,0,0,1,2.081,4.029a4.941,4.941,0,0,1-4.94,4.942,4.942,4.942,0,0,1-1.7-.3c.2-.764.439-1.518.674-2.364a16.361,16.361,0,0,0,.539-2.885A9.94,9.94,0,0,0-3.456.748,5.279,5.279,0,0,1-8.278,3.882a5.29,5.29,0,0,1-2.054-.414A4.5,4.5,0,0,1-13.9,5.229a4.463,4.463,0,0,1-2.732-.922c-.113,0-.227,0-.34,0l-.019.032a2.157,2.157,0,0,1-2.779.887,2.563,2.563,0,0,1-.483.615,2.862,2.862,0,0,1-.975.421l-.136-.007v4.7q0,2.327-.005,4.656a2.537,2.537,0,0,1-1.348-.113,2.418,2.418,0,0,1-.547-.327l-.006.037c0,.077-.007.155-.011.231a19.7,19.7,0,0,1-.348,2.845,3.683,3.683,0,0,1,1.447,2.929,3.694,3.694,0,0,1-3.446,3.68,3.487,3.487,0,0,1-.611,1.237A3.5,3.5,0,0,1-29.012,27.5,3.493,3.493,0,0,1-32.505,24a3.4,3.4,0,0,1,.14-.978,4.967,4.967,0,0,1-1.286.168,4.938,4.938,0,0,1-4.938-4.939,4.93,4.93,0,0,1,2.046-4.005,6.508,6.508,0,0,1-5.481-6.427,6.5,6.5,0,0,1,3.889-5.952,6.468,6.468,0,0,1-1.253-3.837A6.507,6.507,0,0,1-32.881-8.47l.155,0c-.4-.032-.34-2.431-.324-2.772A5.353,5.353,0,0,1-30.8-15.508a5.159,5.159,0,0,1,6.511.715,4.944,4.944,0,0,1,4.73-3.512c2.335,0,4.781,1.164,4.807,3.792-.023-2.171,3.339-3.589,5.78-2.9,2.358.664,3.748,2.352,3.4,4.552a7.211,7.211,0,0,1,4.411-1.5A7.23,7.23,0,0,1,6.074-7.134,7.223,7.223,0,0,1,0,0" fill="#41484e"/>
      </g>
      <g id="Grupo_703" data-name="Grupo 703" transform="translate(26.252 -88.905)">
        <path id="Trazado_1002" data-name="Trazado 1002" d="M0,0A3.829,3.829,0,0,1-3.825-3.825a3.932,3.932,0,0,1,.038-.546,5.4,5.4,0,0,1-.852.069A5.277,5.277,0,0,1-9.91-9.575,5.288,5.288,0,0,1-8.271-13.4a6.8,6.8,0,0,1-5.074-6.611A6.835,6.835,0,0,1-9.62-26.092a6.8,6.8,0,0,1-1.09-3.7,6.847,6.847,0,0,1,6.455-6.827,9.525,9.525,0,0,1-.115-2.461,5.693,5.693,0,0,1,2.4-4.531,5.531,5.531,0,0,1,6.556.4,5.239,5.239,0,0,1,4.872-3.25c2.08,0,4.187.858,4.892,2.736a3.529,3.529,0,0,1,.84-.89,5.97,5.97,0,0,1,4.945-.944c2.329.655,3.689,2.228,3.694,4.2a7.494,7.494,0,0,1,4.026-1.158,7.572,7.572,0,0,1,7.564,7.564,7.514,7.514,0,0,1-5.658,7.318A5.286,5.286,0,0,1,31.425-23.8a5.279,5.279,0,0,1-5.272,5.274,5.272,5.272,0,0,1-1.817-.32.33.33,0,0,1-.207-.4c.114-.436.24-.868.372-1.315.1-.341.2-.689.3-1.055a15.432,15.432,0,0,0,.529-2.825,10.472,10.472,0,0,0,.021-1.606,5.62,5.62,0,0,1-4.618,2.431,5.583,5.583,0,0,1-1.95-.35,4.8,4.8,0,0,1-3.673,1.694,4.774,4.774,0,0,1-2.84-.918h-.045a2.476,2.476,0,0,1-2.85.995,2.91,2.91,0,0,1-.393.45l-.041.035a3.246,3.246,0,0,1-.961.437v4.591q-.008,2.231-.008,4.462a.331.331,0,0,1-.269.327,2.835,2.835,0,0,1-1.525-.128l-.134-.061a20.053,20.053,0,0,1-.3,2.4A4,4,0,0,1,7.161-6.615,4.034,4.034,0,0,1,3.638-2.626a3.777,3.777,0,0,1-.6,1.132A3.81,3.81,0,0,1,0,0M-3.354-5.136a.333.333,0,0,1,.238.1.332.332,0,0,1,.081.326,3.1,3.1,0,0,0-.125.884A3.162,3.162,0,0,0,0-.665,3.143,3.143,0,0,0,2.508-1.9a3.141,3.141,0,0,0,.553-1.12.336.336,0,0,1,.3-.247A3.365,3.365,0,0,0,6.5-6.615,3.331,3.331,0,0,0,5.18-9.28a.334.334,0,0,1-.124-.33,19.494,19.494,0,0,0,.343-2.8l.01-.229.01-.067a.332.332,0,0,1,.186-.255.33.33,0,0,1,.35.041,2.226,2.226,0,0,0,.469.281,2.205,2.205,0,0,0,.885.126q0-2.086.005-4.172v-4.891a.334.334,0,0,1,.109-.244.337.337,0,0,1,.249-.088l.078.006a2.529,2.529,0,0,0,.8-.35,2.27,2.27,0,0,0,.4-.505.332.332,0,0,1,.434-.149,1.819,1.819,0,0,0,2.35-.75l.016-.028a.322.322,0,0,1,.3-.173c.106,0,.213,0,.32,0a.316.316,0,0,1,.213.069,4.111,4.111,0,0,0,2.529.853,4.144,4.144,0,0,0,3.305-1.632.331.331,0,0,1,.392-.1,4.972,4.972,0,0,0,1.926.386,4.953,4.953,0,0,0,4.518-2.936.335.335,0,0,1,.341-.2.329.329,0,0,1,.287.268,10,10,0,0,1,.113,2.764,16.293,16.293,0,0,1-.549,2.945c-.1.369-.2.72-.305,1.064s-.195.666-.285,1a4.644,4.644,0,0,0,1.3.184A4.613,4.613,0,0,0,30.759-23.8a4.612,4.612,0,0,0-1.938-3.757.331.331,0,0,1-.133-.347.335.335,0,0,1,.271-.252,6.856,6.856,0,0,0,5.794-6.807,6.906,6.906,0,0,0-6.9-6.9,6.838,6.838,0,0,0-4.209,1.432.331.331,0,0,1-.373.022.334.334,0,0,1-.158-.338c.311-1.972-.87-3.534-3.159-4.178a5.349,5.349,0,0,0-4.362.831,2.234,2.234,0,0,0-1,1.75.334.334,0,0,1-.33.335h0a.333.333,0,0,1-.333-.33c-.023-2.393-2.264-3.463-4.474-3.463a4.641,4.641,0,0,0-4.413,3.275A.33.33,0,0,1,4.8-42.3a.332.332,0,0,1-.318-.094A4.834,4.834,0,0,0-1.6-43.064a5.039,5.039,0,0,0-2.108,4.01A9.414,9.414,0,0,0-3.565-36.6a.329.329,0,0,1,.184.322.337.337,0,0,1-.355.307l-.133,0A6.181,6.181,0,0,0-10.043-29.8a6.118,6.118,0,0,0,1.187,3.641.335.335,0,0,1,.052.283.324.324,0,0,1-.188.217,6.172,6.172,0,0,0-3.688,5.649,6.142,6.142,0,0,0,5.2,6.1.323.323,0,0,1,.269.251.327.327,0,0,1-.127.346A4.624,4.624,0,0,0-9.246-9.575,4.611,4.611,0,0,0-4.639-4.968a4.634,4.634,0,0,0,1.2-.157Zm8.767-7.523v0Zm0,0v0Z" fill="#2d2e35"/>
      </g>
      <g id="Grupo_704" data-name="Grupo 704" transform="translate(24.507 -124.708)">
        <path id="Trazado_1003" data-name="Trazado 1003" d="M0,0-.048,0A14.044,14.044,0,0,0-1.969-.163.332.332,0,0,1-2.3-.494.333.333,0,0,1-1.97-.828,15.27,15.27,0,0,1,.048-.663a.336.336,0,0,1,.28.38A.331.331,0,0,1,0,0" fill="#2d2e35"/>
      </g>
      <g id="Grupo_705" data-name="Grupo 705" transform="translate(18.721 -102.15)">
        <path id="Trazado_1004" data-name="Trazado 1004" d="M0,0A.334.334,0,0,1-.333-.333.334.334,0,0,1,0-.666c3.174,0,6.59-1.9,6.59-6.072a.333.333,0,0,1,.332-.332.332.332,0,0,1,.333.332C7.255-2.11,3.494,0,0,0" fill="#2d2e35"/>
      </g>
      <g id="Grupo_706" data-name="Grupo 706" transform="translate(22.887 -93.378)">
        <path id="Trazado_1005" data-name="Trazado 1005" d="M0,0-.084-.011A.332.332,0,0,1-.32-.418,3.843,3.843,0,0,1,3.492-3.27,3.837,3.837,0,0,1,6.41-1.8a.333.333,0,0,1-.055.467.335.335,0,0,1-.468-.055A3.175,3.175,0,0,0,.323-.248.336.336,0,0,1,0,0" fill="#2d2e35"/>
      </g>
      <g id="Grupo_707" data-name="Grupo 707" transform="translate(44.941 -112.929)">
        <path id="Trazado_1006" data-name="Trazado 1006" d="M0,0A.326.326,0,0,1-.2-.069.334.334,0,0,1-.262-.536,4.153,4.153,0,0,0,.617-3.108a4.179,4.179,0,0,0-.634-2.22.337.337,0,0,1,.106-.459.334.334,0,0,1,.459.106,4.85,4.85,0,0,1,.734,2.573A4.812,4.812,0,0,1,.263-.128.335.335,0,0,1,0,0" fill="#2d2e35"/>
      </g>
      <g id="Grupo_708" data-name="Grupo 708" transform="translate(38.626 -112.091)">
        <path id="Trazado_1007" data-name="Trazado 1007" d="M0,0A.334.334,0,0,1-.2-.068,4.851,4.851,0,0,1-1.864-2.362a.329.329,0,0,1,.206-.421.331.331,0,0,1,.422.2A4.19,4.19,0,0,0,.2-.6a.336.336,0,0,1,.065.468A.341.341,0,0,1,0,0" fill="#2d2e35"/>
      </g>
      <g id="Grupo_709" data-name="Grupo 709" transform="translate(47.333 -124.79)">
        <path id="Trazado_1008" data-name="Trazado 1008" d="M0,0H-.028a.333.333,0,0,1-.3-.36A6.314,6.314,0,0,1,2.183-5.091a.333.333,0,0,1,.458.1.331.331,0,0,1-.1.459A5.747,5.747,0,0,0,.332-.3.331.331,0,0,1,0,0" fill="#2d2e35"/>
      </g>
      <g id="Grupo_710" data-name="Grupo 710" transform="translate(25.436 -106.109)">
        <path id="Trazado_1009" data-name="Trazado 1009" d="M0,0A5.954,5.954,0,0,1-.593,1.064,7.07,7.07,0,0,1-6.275,3.948c-.109.005-.218.009-.327.01A4.62,4.62,0,0,0-8.424,7.63l0,.131C-7.147,7.488-2.814,6.367-.9,3.452A5.583,5.583,0,0,0,0,0" fill="#3d4148"/>
      </g>
      <g id="Grupo_711" data-name="Grupo 711" transform="translate(19.162 -102.162)">
        <path id="Trazado_1010" data-name="Trazado 1010" d="M0,0C-.107,0-.216.008-.325.009a0,0,0,0,0,0,0C-.218.009-.109,0,0,0M6.274-3.96a6.2,6.2,0,0,1-.592,1.077,6.062,6.062,0,0,0,.593-1.065s0-.008,0-.012" fill="#2d2e35"/>
      </g>
      <g id="Grupo_712" data-name="Grupo 712" transform="translate(25.875 -107.628)">
        <path id="Trazado_1011" data-name="Trazado 1011" d="M0,0A6.515,6.515,0,0,1-.439,1.519a5.579,5.579,0,0,1-.906,3.452C-3.253,7.886-7.587,9.007-8.861,9.28l0-.132A4.62,4.62,0,0,1-7.041,5.477h-.005A4.626,4.626,0,0,0-8.87,9.148a4.674,4.674,0,0,0,.069.8c1.254-.264,5.934-1.439,8.013-4.61A6.542,6.542,0,0,0,0,0M-.665-.067A.131.131,0,0,0-.671-.04,5.957,5.957,0,0,1-.865.742a6.054,6.054,0,0,0,.2-.809" fill="#3d4148"/>
      </g>
      <g id="Grupo_713" data-name="Grupo 713" transform="translate(18.489 -102.722)">
        <path id="Trazado_1012" data-name="Trazado 1012" d="M0,0A5.281,5.281,0,0,0-2.144,4.243a5.411,5.411,0,0,0,.033.566.328.328,0,0,0,.128.228.329.329,0,0,0,.2.07l.052,0c.008,0,.12-.021.314-.061a4.572,4.572,0,0,1-.069-.8A4.624,4.624,0,0,1,.341.571H.232A.333.333,0,0,1,0,0" fill="#2d2e35"/>
      </g>
      <g id="Grupo_714" data-name="Grupo 714" transform="translate(25.532 -107.943)">
        <path id="Trazado_1013" data-name="Trazado 1013" d="M0,0A.335.335,0,0,0-.322.248a5.941,5.941,0,0,1-.2.809c-.8,2.5-3.186,4.069-6.285,4.069A.329.329,0,0,0-7,5.19l-.042.031a.334.334,0,0,0-.1.238.334.334,0,0,0,.333.333H-6.7l0,0c.109,0,.218,0,.325-.009A7.315,7.315,0,0,0-.688,2.9,6.2,6.2,0,0,0-.1,1.821v.008A6.358,6.358,0,0,0,.344.315C.339.294.333.272.328.25A.342.342,0,0,0,0,0" fill="#2d2e35"/>
      </g>
      <g id="Grupo_715" data-name="Grupo 715" transform="translate(24.844 -105.045)">
        <path id="Trazado_1014" data-name="Trazado 1014" d="M0,0A7.315,7.315,0,0,1-5.682,2.883,7.071,7.071,0,0,0,0,0" fill="#3d4148"/>
      </g>
      <g id="Grupo_716" data-name="Grupo 716" transform="translate(31.039 -102.255)">
        <path id="Trazado_1015" data-name="Trazado 1015" d="M0,0-.574,4.249c.213.438.994,2.211.384,3.49A2.23,2.23,0,0,1-1.8,8.925a3.52,3.52,0,0,1-2.645,1.809,2.252,2.252,0,0,1-.4-.037A2.8,2.8,0,0,1-7,9.228a2.694,2.694,0,0,1-.03-2.006,3.149,3.149,0,0,0-.777,1.331.33.33,0,0,1-.014.088,3.1,3.1,0,0,0-.125.884,3.162,3.162,0,0,0,3.158,3.16,3.146,3.146,0,0,0,2.506-1.236,3.1,3.1,0,0,0,.553-1.12.339.339,0,0,1,.3-.247A3.364,3.364,0,0,0,1.705,6.735,3.33,3.33,0,0,0,.389,4.07a.333.333,0,0,1-.124-.33,22.176,22.176,0,0,0,.34-2.67c0-.042,0-.084.007-.126l0-.114L.594.8A5.2,5.2,0,0,1,0,0" fill="#3d4148"/>
      </g>
      <g id="Grupo_717" data-name="Grupo 717" transform="translate(23.231 -93.702)">
        <path id="Trazado_1016" data-name="Trazado 1016" d="M0,0-.009.032-.018.087A3.164,3.164,0,0,0,3.018,4.132h0A3.164,3.164,0,0,1-.139.972,3.113,3.113,0,0,1-.014.087.323.323,0,0,0,0,0M8.425-7.723l-.005.114c0,.042,0,.083-.007.125.006-.079.01-.158.015-.236Z" fill="#2d2e35"/>
      </g>
      <g id="Grupo_718" data-name="Grupo 718" transform="translate(24.008 -95.033)">
        <path id="Trazado_1017" data-name="Trazado 1017" d="M0,0A3.119,3.119,0,0,0-.781,1.331l0,.033.009-.032A3.164,3.164,0,0,1,0,0H0" fill="#2d2e35"/>
      </g>
      <g id="Grupo_719" data-name="Grupo 719" transform="translate(22.465 -93.276)">
        <path id="Trazado_1018" data-name="Trazado 1018" d="M0,0H0A3.964,3.964,0,0,0-.041.546,3.829,3.829,0,0,0,3.784,4.371h0A3.829,3.829,0,0,1-.038.546,3.953,3.953,0,0,1,0,0" fill="#c5c3c4"/>
      </g>
      <g id="Grupo_720" data-name="Grupo 720" transform="translate(24.708 -96.31)">
        <path id="Trazado_1019" data-name="Trazado 1019" d="M0,0-.029.011A3.814,3.814,0,0,0-2.091,2.328h0A3.812,3.812,0,0,1,0,0M6.936-4.876a22.124,22.124,0,0,1-.34,2.67.335.335,0,0,0,.124.331A3.329,3.329,0,0,1,8.036.79,3.364,3.364,0,0,1,4.9,4.137a.334.334,0,0,0-.3.247A3.106,3.106,0,0,1,4.048,5.5,3.146,3.146,0,0,1,1.542,6.74h0A3.141,3.141,0,0,0,4.052,5.5a3.137,3.137,0,0,0,.553-1.119.337.337,0,0,1,.3-.247A3.365,3.365,0,0,0,8.04.79,3.331,3.331,0,0,0,6.724-1.875.337.337,0,0,1,6.6-2.206a19.362,19.362,0,0,0,.336-2.67m-.775-2.63H6.134a.334.334,0,0,0-.306.287L5.085-1.683a.328.328,0,0,0,.035.2c.01.018.965,1.854.42,2.99a1.642,1.642,0,0,1-1.282.853.326.326,0,0,0-.225.165c-.011.018-.892,1.6-2.145,1.6A1.466,1.466,0,0,1,1.611,4.1,2.239,2.239,0,0,1-.066,3.005,2.757,2.757,0,0,1,.345.568,3.143,3.143,0,0,0-.7,1.277,2.692,2.692,0,0,0-.67,3.282,2.8,2.8,0,0,0,1.487,4.751a2.163,2.163,0,0,0,.4.037A3.522,3.522,0,0,0,4.534,2.98,2.229,2.229,0,0,0,6.141,1.793C6.751.514,5.97-1.258,5.757-1.7l.574-4.249a5.268,5.268,0,0,0,.594.8l.023.027.005-.115.01-.067a.338.338,0,0,1,.186-.256.338.338,0,0,1,.142-.032.324.324,0,0,1,.17.048c-.011-.014-.024-.027-.036-.041a4.277,4.277,0,0,1-.947-1.688.327.327,0,0,0-.317-.24" fill="#3d4148"/>
      </g>
      <g id="Grupo_721" data-name="Grupo 721" transform="translate(31.666 -101.562)">
        <path id="Trazado_1020" data-name="Trazado 1020" d="M0,0H0ZM0,0V0Zm.333-.33A.319.319,0,0,0,.192-.3a.33.33,0,0,0-.186.256L0,.022l0,.115,0,0c0,.078-.009.156-.014.236a19.694,19.694,0,0,1-.336,2.67.333.333,0,0,0,.124.33A3.336,3.336,0,0,1,1.082,6.042,3.364,3.364,0,0,1-2.053,9.389a.34.34,0,0,0-.3.247,3.131,3.131,0,0,1-.552,1.12,3.143,3.143,0,0,1-2.508,1.236h0a3.163,3.163,0,0,1-3.16-3.159,3.139,3.139,0,0,1,.125-.885l.008-.055-.012.044a.337.337,0,0,1-.323.248l-.084-.012A.331.331,0,0,1-9.1,7.766c.017-.063.035-.125.055-.186h0c-.021.062-.039.123-.056.186l-.011.079a4.1,4.1,0,0,0-.09.441h0a4.119,4.119,0,0,0-.038.547,3.828,3.828,0,0,0,3.824,3.824,3.811,3.811,0,0,0,3.033-1.494,3.8,3.8,0,0,0,.6-1.132A4.035,4.035,0,0,0,1.744,6.042,3.99,3.99,0,0,0,.328,2.979,23.527,23.527,0,0,0,.663.057.471.471,0,0,0,.5-.285.336.336,0,0,0,.333-.332" fill="#2d2e35"/>
      </g>
      <g id="Grupo_722" data-name="Grupo 722" transform="translate(24.806 -96.326)">
        <path id="Trazado_1021" data-name="Trazado 1021" d="M0,0A.3.3,0,0,0-.1.016,3.812,3.812,0,0,0-2.185,2.343c-.019.062-.037.124-.055.187A.332.332,0,0,0-2,2.937l.085.011A.336.336,0,0,0-1.6,2.7c0-.015.007-.029.012-.044l0-.033A3.131,3.131,0,0,1-.8,1.292h0A3.143,3.143,0,0,1,.247.584C.259.564.27.543.283.522A.328.328,0,0,0,.335.258.343.343,0,0,0,0,0" fill="#2d2e35"/>
      </g>
      <g id="Grupo_723" data-name="Grupo 723" transform="translate(56.969 -113.327)">
        <path id="Trazado_1022" data-name="Trazado 1022" d="M0,0A5.156,5.156,0,0,1-4.985,3.257c-.119,0-.238,0-.361-.009q-.117.411-.231.8c-.1.339-.195.666-.286,1a4.655,4.655,0,0,0,1.3.184A4.611,4.611,0,0,0,.041.621,5.15,5.15,0,0,0,.014.1C.01.07,0,.035,0,0" fill="#3d4148"/>
      </g>
      <g id="Grupo_724" data-name="Grupo 724" transform="translate(51.623 -110.079)">
        <path id="Trazado_1023" data-name="Trazado 1023" d="M0,0C-.078.273-.155.538-.231.8c-.1.338-.2.668-.288,1a4.672,4.672,0,0,0,1.3.184h0A4.655,4.655,0,0,1-.517,1.8c.091-.331.187-.658.286-1C-.155.541-.078.275,0,0ZM5.348-3.25s0,0,0,0c0,.035.01.07.014.105L5.348-3.25" fill="#2d2e35"/>
      </g>
      <g id="Grupo_725" data-name="Grupo 725" transform="translate(50.936 -107.638)">
        <path id="Trazado_1024" data-name="Trazado 1024" d="M0,0H0A5.309,5.309,0,0,0,1.467.206h0A5.29,5.29,0,0,1,0,0M6.433-6.839a5.325,5.325,0,0,1,.249.985,5.115,5.115,0,0,0-.249-.985" fill="#c5c3c4"/>
      </g>
      <g id="Grupo_726" data-name="Grupo 726" transform="translate(51.055 -110.519)">
        <path id="Trazado_1025" data-name="Trazado 1025" d="M0,0H0C-.1.365-.2.714-.3,1.052c-.132.448-.257.881-.373,1.318L-.681,2.4c0-.009,0-.018.007-.027.115-.437.24-.868.372-1.315C-.2.714-.1.366,0,0" fill="#5f524f"/>
      </g>
      <g id="Grupo_727" data-name="Grupo 727" transform="translate(50.381 -108.149)">
        <path id="Trazado_1026" data-name="Trazado 1026" d="M0,0C0,.009,0,.019-.007.028A.333.333,0,0,0,.206.4C.322.44.438.478.556.512h0Q.381.46.208.4A.332.332,0,0,1,0,0" fill="#2d2e35"/>
      </g>
      <g id="Grupo_728" data-name="Grupo 728" transform="translate(56.982 -113.223)">
        <path id="Trazado_1027" data-name="Trazado 1027" d="M0,0A4.887,4.887,0,0,1,.028.517,4.613,4.613,0,0,1-4.578,5.126h0A4.613,4.613,0,0,0,.029.517,4.674,4.674,0,0,0,0,0M-.345-1.3a4.583,4.583,0,0,1-4.65,3.792l-.186,0c-.033.132-.068.263-.1.395-.025.088-.048.176-.073.262q.183.009.36.009A5.155,5.155,0,0,0-.014-.1,4.6,4.6,0,0,0-.345-1.3" fill="#3d4148"/>
      </g>
      <g id="Grupo_729" data-name="Grupo 729" transform="translate(56.981 -114.891)">
        <path id="Trazado_1028" data-name="Trazado 1028" d="M0,0A.455.455,0,0,0-.053,0,.333.333,0,0,0-.329.281c0,.012-.007.041-.015.085a4.6,4.6,0,0,1,.332,1.2h0c0,.035.01.07.013.106a4.656,4.656,0,0,1,.029.516A4.613,4.613,0,0,1-4.576,6.794h0a4.66,4.66,0,0,1-1.3-.184c.091-.33.188-.66.288-1,.075-.262.153-.527.23-.8h0c.025-.087.049-.174.073-.262.037-.133.072-.264.106-.395-.13,0-.263-.011-.4-.023l-.036,0a.332.332,0,0,0-.313.242c-.1.366-.2.714-.3,1.056-.132.446-.258.878-.372,1.314a.33.33,0,0,0,.207.4q.173.063.348.114a5.266,5.266,0,0,0,1.469.207A5.281,5.281,0,0,0,.695,2.185,5.261,5.261,0,0,0,.637,1.4,5.244,5.244,0,0,0,.389.414C.365.349.341.285.315.221L.3.183A.331.331,0,0,0,0,0" fill="#2d2e35"/>
      </g>
      <g id="Grupo_730" data-name="Grupo 730" transform="translate(28.778 -106.004)">
        <path id="Trazado_1029" data-name="Trazado 1029" d="M0,0C0,2.6.678,3.856,1.418,4.441a2.324,2.324,0,0,0,1.9.465V-4.475S0-5.77,0,0" fill="#705e55"/>
      </g>
      <g id="Grupo_731" data-name="Grupo 731" transform="translate(31.656 -100.721)">
        <path id="Trazado_1030" data-name="Trazado 1030" d="M0,0A2.655,2.655,0,0,1-1.669-.581c-1.024-.81-1.542-2.392-1.542-4.7s.52-3.826,1.544-4.526A2.549,2.549,0,0,1,.56-10.067a.334.334,0,0,1,.211.309V-.376a.333.333,0,0,1-.249.321A2.2,2.2,0,0,1,0,0M-.318-9.551a1.707,1.707,0,0,0-.98.3c-.817.562-1.248,1.936-1.248,3.971,0,2.067.447,3.512,1.291,4.18A2,2,0,0,0,.107-.665V-9.506a2.1,2.1,0,0,0-.425-.045" fill="#2d2e35"/>
      </g>
      <g id="Grupo_732" data-name="Grupo 732" transform="translate(30.232 -105.201)">
        <path id="Trazado_1031" data-name="Trazado 1031" d="M0,0A.332.332,0,0,1-.331-.3C-.479-2-.2-3.142.488-3.686a1.671,1.671,0,0,1,1.484-.262.335.335,0,0,1,.209.422.334.334,0,0,1-.419.209.991.991,0,0,0-.87.158c-.342.275-.719.984-.559,2.8A.335.335,0,0,1,.03,0Z" fill="#2d2e35"/>
      </g>
      <g id="Grupo_733" data-name="Grupo 733" transform="translate(87.47 -54.672)">
        <path id="Trazado_1032" data-name="Trazado 1032" d="M0,0-.052.358A4.607,4.607,0,0,1-3.357,4.142L-14.781,7.648S-39.1,23.36-42.86,25.387s-7.667-6.677-7.667-6.677L-57.459,3.771A20.384,20.384,0,0,0-46.278-1.6h.005C-44.465,3.749-41.3,14.2-41.3,14.2L-17.77,3.277l3.435-8.483a1.083,1.083,0,0,1,1.115-.57l.038.008A1.081,1.081,0,0,1-12.367-4.3L-13.936-.511l7.06-4.11a4.6,4.6,0,0,1,5.264.444A4.605,4.605,0,0,1-.265-2.3,4.581,4.581,0,0,1,0,0" fill="#705e55"/>
      </g>
      <g id="Grupo_734" data-name="Grupo 734" transform="translate(43.434 -28.647)">
        <path id="Trazado_1033" data-name="Trazado 1033" d="M0,0A3.072,3.072,0,0,1-.981-.169c-3.108-1.052-5.7-6.768-5.813-7.01l-6.931-14.937a.326.326,0,0,1,.008-.3.335.335,0,0,1,.24-.173A20.125,20.125,0,0,0-2.472-27.86l.149-.084a.335.335,0,0,1,.4.214C-.323-23,2.362-14.189,2.94-12.288L26.007-22.994l3.386-8.361a1.424,1.424,0,0,1,1.468-.776l.067.013a1.4,1.4,0,0,1,.975.7,1.392,1.392,0,0,1,.073,1.217l-1.189,2.878,6.207-3.612a4.943,4.943,0,0,1,5.643.473,4.94,4.94,0,0,1,1.445,2.015,4.952,4.952,0,0,1,.283,2.466l-.052.357a4.947,4.947,0,0,1-3.543,4.056L29.4-18.072c-1.1.713-24.4,15.755-28.062,17.725A2.771,2.771,0,0,1,0,0M-12.939-22l6.75,14.545C-6.162-7.4-3.6-1.759-.768-.8A2.134,2.134,0,0,0,1.019-.933C4.726-2.928,28.83-18.5,29.074-18.656l.082-.039L40.581-22.2a4.286,4.286,0,0,0,3.074-3.512l.052-.358a4.266,4.266,0,0,0-.246-2.133,4.287,4.287,0,0,0-1.249-1.742,4.282,4.282,0,0,0-4.885-.41l-7.057,4.11a.335.335,0,0,1-.387-.039.335.335,0,0,1-.089-.377l1.569-3.784a.744.744,0,0,0-.041-.644.745.745,0,0,0-.524-.375l-.054-.011a.749.749,0,0,0-.749.4l-3.421,8.454a.319.319,0,0,1-.168.176L2.873-11.524a.326.326,0,0,1-.275,0,.33.33,0,0,1-.183-.207c-.031-.1-2.994-9.892-4.8-15.3A20.858,20.858,0,0,1-12.939-22" fill="#2d2e35"/>
      </g>
    </g>
    <g id="Grupo_745" data-name="Grupo 745" clip-path="url(#clip-path)">
      <g id="Grupo_736" data-name="Grupo 736" transform="translate(74.096 -49.87)">
        <path id="Trazado_1035" data-name="Trazado 1035" d="M0,0-.134-.027A.343.343,0,0,1-.317-.476c1.23-2.93-.3-4.051-.315-4.062a.343.343,0,0,1-.085-.478A.342.342,0,0,1-.238-5.1c.083.058,2,1.454.553,4.887A.342.342,0,0,1,0,0" fill="#2d2e35"/>
      </g>
      <g id="Grupo_737" data-name="Grupo 737" transform="translate(14.657 -4.621)">
        <path id="Trazado_1036" data-name="Trazado 1036" d="M0,0,1.266,19.9a15.288,15.288,0,0,0,6.6-12.444V0Z" fill="#41484e"/>
      </g>
      <g id="Grupo_738" data-name="Grupo 738" transform="translate(15.922 15.62)">
        <path id="Trazado_1037" data-name="Trazado 1037" d="M0,0-.149-.034A.342.342,0,0,1-.343-.322l-1.263-19.9a.336.336,0,0,1,.09-.258.348.348,0,0,1,.25-.108H6.595a.344.344,0,0,1,.345.344v7.452A15.594,15.594,0,0,1,.2-.062.333.333,0,0,1,0,0M-.9-19.9.3-.99a14.884,14.884,0,0,0,5.948-11.8V-19.9Z" fill="#2d2e35"/>
      </g>
      <g id="Grupo_739" data-name="Grupo 739" transform="translate(52.055 -4.621)">
        <path id="Trazado_1038" data-name="Trazado 1038" d="M0,0V7.452A15.286,15.286,0,0,0,6.6,19.9L7.86,0Z" fill="#41484e"/>
      </g>
      <g id="Grupo_740" data-name="Grupo 740" transform="translate(58.651 15.62)">
        <path id="Trazado_1039" data-name="Trazado 1039" d="M0,0A.337.337,0,0,1-.2-.062,15.6,15.6,0,0,1-6.941-12.789v-7.452a.344.344,0,0,1,.345-.344h7.86a.349.349,0,0,1,.251.108.349.349,0,0,1,.092.258L.343-.322a.345.345,0,0,1-.195.288ZM-6.252-19.9v7.108A14.877,14.877,0,0,0-.305-.99L.9-19.9Z" fill="#2d2e35"/>
      </g>
      <g id="Grupo_741" data-name="Grupo 741" transform="translate(37.287 13.205)">
        <path id="Trazado_1040" data-name="Trazado 1040" d="M0,0,4.259,101.46h.012c1.737-.611,3.555,1.549,5.372,1.549s3.632-2.16,5.37-1.549h.039L21.363,2.07a15.288,15.288,0,0,1-6.6-12.445v-7.451H3.427v15.46Z" fill="#41484e"/>
      </g>
      <g id="Grupo_742" data-name="Grupo 742" transform="translate(46.93 116.559)">
        <path id="Trazado_1041" data-name="Trazado 1041" d="M0,0A5.752,5.752,0,0,1-2.562-.879c-.96-.5-1.867-.981-2.7-.691a.361.361,0,0,1-.466-.31L-9.987-103.34a.35.35,0,0,1,.15-.3l3.278-2.263v-15.28a.345.345,0,0,1,.342-.345H5.125a.346.346,0,0,1,.343.345v7.452a14.9,14.9,0,0,0,6.449,12.163.342.342,0,0,1,.146.3L5.751-1.873a.345.345,0,0,1-.342.323H5.37l-.115-.02c-.826-.29-1.733.188-2.694.691A5.757,5.757,0,0,1,0,0M-4.722-2.348a5.627,5.627,0,0,1,2.479.861A5.318,5.318,0,0,0,0-.687a5.306,5.306,0,0,0,2.24-.8,4.776,4.776,0,0,1,2.851-.831l6.274-98.795A15.588,15.588,0,0,1,4.78-113.728v-7.108H-5.873v15.116a.343.343,0,0,1-.147.284l-3.271,2.257L-5.056-2.323a2.078,2.078,0,0,1,.334-.025" fill="#2d2e35"/>
      </g>
      <g id="Grupo_743" data-name="Grupo 743" transform="translate(15.922 15.275)">
        <path id="Trazado_1042" data-name="Trazado 1042" d="M0,0,6.315,99.39h.038a16.258,16.258,0,0,1,10.743,0H17.1L21.365-2.07V-19.9H6.595v7.451A15.288,15.288,0,0,1,0,0" fill="#41484e"/>
      </g>
      <g id="Grupo_744" data-name="Grupo 744" transform="translate(33.024 115.009)">
        <path id="Trazado_1043" data-name="Trazado 1043" d="M0,0-.12-.02a16,16,0,0,0-10.515,0l-.114.02h-.038a.343.343,0,0,1-.342-.323l-6.316-99.388a.343.343,0,0,1,.147-.3,14.907,14.907,0,0,0,6.447-12.163v-7.452a.344.344,0,0,1,.344-.344H4.263a.345.345,0,0,1,.345.344V-101.8L.343-.33A.342.342,0,0,1,0,0M-16.747-99.563-10.471-.8A16.7,16.7,0,0,1-.324-.813L3.919-101.818v-17.468H-10.162v7.108a15.585,15.585,0,0,1-6.585,12.615" fill="#2d2e35"/>
      </g>
    </g>
    <path id="Trazado_1045" data-name="Trazado 1045" d="M37.288,0h3.427V-4.622H37.288Z" fill="#41484e"/>
    <g id="Grupo_747" data-name="Grupo 747" clip-path="url(#clip-path)">
      <g id="Grupo_746" data-name="Grupo 746" transform="translate(37.287 13.549)">
        <path id="Trazado_1046" data-name="Trazado 1046" d="M0,0-.159-.039A.346.346,0,0,1-.344-.344V-18.17A.345.345,0,0,1,0-18.515H3.426a.344.344,0,0,1,.344.345V-2.71a.341.341,0,0,1-.148.284L.2-.061A.341.341,0,0,1,0,0M.345-17.826V-1L3.083-2.891V-17.826Z" fill="#2d2e35"/>
      </g>
    </g>
    <g id="Grupo_751" data-name="Grupo 751" clip-path="url(#clip-path)">
      <g id="Grupo_748" data-name="Grupo 748" transform="translate(98.972 -48.938)">
        <path id="Trazado_1048" data-name="Trazado 1048" d="M0,0A6.591,6.591,0,0,0,7.317-5.772,6.589,6.589,0,0,0,6.706-9.41c-.552-1.141-1.94-1.976-1.945-3.356a1.851,1.851,0,0,1,.165-.75,2.156,2.156,0,0,1,2.24-1.214l15.9,1.876a1.982,1.982,0,0,1,1.734,2.2l-1.879,15.9a2.154,2.154,0,0,1-1.707,1.895,1.866,1.866,0,0,1-.762-.016c-1.337-.325-1.829-1.871-2.811-2.673A6.588,6.588,0,1,0,16.338,15.5c1.143-.552,1.982-1.942,3.357-1.946a1.921,1.921,0,0,1,.748.162,2.158,2.158,0,0,1,1.218,2.241l-1.878,15.9a1.981,1.981,0,0,1-2.2,1.734l-42.509-5.018a1.981,1.981,0,0,1-1.734-2.2l1.878-15.9a2.156,2.156,0,0,1,1.706-1.9,1.845,1.845,0,0,1,.765.015c1.337.323,1.829,1.871,2.809,2.673A6.594,6.594,0,0,0-16.1,12.7,6.589,6.589,0,0,0-8.786,6.931,6.594,6.594,0,0,0-14.557-.388a6.609,6.609,0,0,0-3.638.61c-1.142.552-1.98,1.942-3.355,1.945a1.847,1.847,0,0,1-.748-.161A2.155,2.155,0,0,1-23.516-.236l1.877-15.9a1.979,1.979,0,0,1,2.2-1.733l15.9,1.876a2.158,2.158,0,0,1,1.9,1.708,1.848,1.848,0,0,1-.018.762c-.324,1.342-1.87,1.83-2.671,2.813A6.594,6.594,0,0,0-5.774-7.318,6.59,6.59,0,0,0,0,0" fill="#60cad3"/>
      </g>
      <g id="Grupo_749" data-name="Grupo 749" transform="translate(116.789 -15)">
        <path id="Trazado_1049" data-name="Trazado 1049" d="M0,0A2.279,2.279,0,0,1-.271-.017L-42.78-5.035A2.29,2.29,0,0,1-44.324-5.9a2.291,2.291,0,0,1-.48-1.7l1.877-15.9a2.494,2.494,0,0,1,1.977-2.185,2.182,2.182,0,0,1,.9.019,3.738,3.738,0,0,1,2.037,1.692,5.659,5.659,0,0,0,.907,1.047,6.24,6.24,0,0,0,3.224,1.365,6.215,6.215,0,0,0,4.609-1.3,6.224,6.224,0,0,0,2.338-4.18,6.269,6.269,0,0,0-5.481-6.95,6.234,6.234,0,0,0-3.452.58,5.646,5.646,0,0,0-1.127.807,3.737,3.737,0,0,1-2.374,1.17,2.173,2.173,0,0,1-.883-.19,2.5,2.5,0,0,1-1.413-2.585l1.877-15.9a2.292,2.292,0,0,1,.864-1.544,2.281,2.281,0,0,1,1.7-.48l15.9,1.875a2.492,2.492,0,0,1,2.183,1.977,2.187,2.187,0,0,1-.019.9,3.734,3.734,0,0,1-1.694,2.038,5.9,5.9,0,0,0-1.047.9,6.236,6.236,0,0,0-1.363,3.225,6.221,6.221,0,0,0,1.3,4.61,6.221,6.221,0,0,0,4.182,2.339,6.226,6.226,0,0,0,4.609-1.3,6.217,6.217,0,0,0,2.337-4.181A6.228,6.228,0,0,0-11.41-43.2a5.8,5.8,0,0,0-.806-1.123A3.713,3.713,0,0,1-13.388-46.7a2.185,2.185,0,0,1,.191-.886A2.5,2.5,0,0,1-10.613-49l15.9,1.875a2.317,2.317,0,0,1,2.026,2.567l-1.879,15.9a2.49,2.49,0,0,1-1.973,2.184,2.231,2.231,0,0,1-.9-.019A3.745,3.745,0,0,1,.521-28.18a5.679,5.679,0,0,0-.907-1.046A6.217,6.217,0,0,0-3.61-30.595a6.225,6.225,0,0,0-4.61,1.3,6.226,6.226,0,0,0-2.338,4.179,6.267,6.267,0,0,0,5.483,6.949,6.241,6.241,0,0,0,3.451-.575A5.756,5.756,0,0,0-.5-19.548,3.725,3.725,0,0,1,1.877-20.72a2.231,2.231,0,0,1,.883.191,2.492,2.492,0,0,1,1.411,2.584L2.3-2.041A2.315,2.315,0,0,1,0,0M-40.54-25.06a1.435,1.435,0,0,0-.291.028,1.826,1.826,0,0,0-1.437,1.609l-1.878,15.9A1.647,1.647,0,0,0-43.8-6.31a1.637,1.637,0,0,0,1.1.614L-.193-.677A1.649,1.649,0,0,0,1.635-2.121l1.878-15.9a1.828,1.828,0,0,0-1.02-1.9,1.6,1.6,0,0,0-.616-.135A3.224,3.224,0,0,0-.071-19.039a6.245,6.245,0,0,1-1.263.9,6.883,6.883,0,0,1-3.82.637,6.93,6.93,0,0,1-6.064-7.687A6.879,6.879,0,0,1-8.63-29.815a6.884,6.884,0,0,1,5.1-1.441A6.9,6.9,0,0,1,.036-29.74a6.274,6.274,0,0,1,1.02,1.164,3.2,3.2,0,0,0,1.658,1.441,1.508,1.508,0,0,0,.629.012A1.821,1.821,0,0,0,4.775-28.73l1.877-15.9a1.626,1.626,0,0,0-.344-1.213,1.634,1.634,0,0,0-1.1-.616l-15.9-1.876a1.83,1.83,0,0,0-1.9,1.018,1.526,1.526,0,0,0-.138.618,3.218,3.218,0,0,0,1.017,1.948,6.234,6.234,0,0,1,.9,1.262,6.9,6.9,0,0,1,.642,3.82,6.876,6.876,0,0,1-2.587,4.625,6.878,6.878,0,0,1-5.1,1.44,6.883,6.883,0,0,1-4.626-2.588,6.878,6.878,0,0,1-1.437-5.1,6.9,6.9,0,0,1,1.509-3.567,6.229,6.229,0,0,1,1.165-1.019,3.191,3.191,0,0,0,1.441-1.66,1.467,1.467,0,0,0,.013-.627A1.826,1.826,0,0,0-21.4-49.6l-15.9-1.877a1.633,1.633,0,0,0-1.211.343,1.644,1.644,0,0,0-.617,1.1l-1.877,15.9a1.833,1.833,0,0,0,1.022,1.9,1.591,1.591,0,0,0,.615.135,3.209,3.209,0,0,0,1.946-1.018,6.409,6.409,0,0,1,1.266-.9,6.913,6.913,0,0,1,3.82-.642,6.936,6.936,0,0,1,6.063,7.687,6.878,6.878,0,0,1-2.587,4.626,6.889,6.889,0,0,1-5.1,1.439,6.9,6.9,0,0,1-3.567-1.51,6.245,6.245,0,0,1-1.02-1.166,3.219,3.219,0,0,0-1.659-1.442,1.557,1.557,0,0,0-.335-.038" fill="#2d2e35"/>
      </g>
      <g id="Grupo_750" data-name="Grupo 750" transform="translate(47.789 -73.082)">
        <path id="Trazado_1050" data-name="Trazado 1050" d="M0,0A15.168,15.168,0,0,1-10.61,1.832c-2.948-.7-6.47-2.622-7.619-5.585a25.769,25.769,0,0,1,3.787-1.465s4.056,5.54,10.45,2.34A17.34,17.34,0,0,1,0,0" fill="#a4b2b1"/>
      </g>
    </g>
    <g id="Grupo_755" data-name="Grupo 755" clip-path="url(#clip-path)">
      <g id="Grupo_752" data-name="Grupo 752" transform="translate(38.965 -70.627)">
        <path id="Trazado_1052" data-name="Trazado 1052" d="M0,0A13.112,13.112,0,0,1-2.981-.342C-5.925-1.037-9.818-3.021-11.1-6.329a.347.347,0,0,1,.174-.433A26.914,26.914,0,0,1-6.959-8.3a.34.34,0,0,1,.372.126A8.167,8.167,0,0,0,3.791-5.856a.338.338,0,0,1,.308,0A18.157,18.157,0,0,1,8.306-2.82a.343.343,0,0,1,.105.294.346.346,0,0,1-.178.258A17.7,17.7,0,0,1,0,0M-10.335-6.28c1.3,2.881,4.819,4.633,7.511,5.267a15.262,15.262,0,0,0,10.3-1.635A17.374,17.374,0,0,0,3.941-5.162,8.9,8.9,0,0,1-6.988-7.573,26.444,26.444,0,0,0-10.335-6.28" fill="#2d2e35"/>
      </g>
      <g id="Grupo_753" data-name="Grupo 753" transform="translate(48.6 0.564)">
        <path id="Trazado_1053" data-name="Trazado 1053" d="M0,0C-16.45,2.9-35.862,1.365-35.084-5.185c2.406-20.271-2.054-39.275,1.141-53.734,3.354-15.183,9.334-16.724,13.528-18.724,1.188,3.064,4.83,5.055,7.879,5.775A15.69,15.69,0,0,0-1.564-73.762C2.49-69.927,8.66-63.151,7.726-48.333c-.681,10.84,4.708,41.855,4.708,41.855S13.375-2.354,0,0" fill="#ff6776"/>
      </g>
      <g id="Grupo_754" data-name="Grupo 754" transform="translate(32.643 2.287)">
        <path id="Trazado_1054" data-name="Trazado 1054" d="M0,0C-8.134,0-15.392-1.164-18.225-3.842a3.564,3.564,0,0,1-1.244-3.106c1.157-9.739.731-19.02.319-28-.431-9.378-.837-18.236.826-25.772,3.132-14.158,8.665-16.663,12.7-18.492.348-.159.687-.311,1.012-.467a.349.349,0,0,1,.276-.011.354.354,0,0,1,.195.2C-2.952-76.432.715-74.582,3.5-73.926c4.186.985,8.145-.469,10.732-1.86a.339.339,0,0,1,.4.052c3.113,2.943,10.4,9.833,9.4,25.7-.67,10.677,4.651,41.463,4.7,41.773a2.4,2.4,0,0,1-.5,1.74C27.2-4.978,24.254-2.834,16.017-1.385A94.934,94.934,0,0,1,0,0M-4.636-78.9c-.228.107-.462.212-.7.32-4.125,1.868-9.26,4.193-12.314,18.014-1.644,7.448-1.241,16.261-.813,25.593.413,9,.84,18.313-.323,28.107a2.88,2.88,0,0,0,1.032,2.525C-13.715-.526,1.38.5,15.9-2.061,24.229-3.527,26.817-5.689,27.62-6.848a1.867,1.867,0,0,0,.434-1.284C28-8.455,22.663-39.321,23.339-50.077,24.3-65.324,17.466-72.1,14.334-75.064A16.075,16.075,0,0,1,3.34-73.256C.5-73.926-3.229-75.8-4.636-78.9" fill="#2d2e35"/>
      </g>
    </g>
    <g id="Grupo_765" data-name="Grupo 765" clip-path="url(#clip-path)">
      <g id="Grupo_756" data-name="Grupo 756" transform="translate(24.063 -60.092)">
        <path id="Trazado_1056" data-name="Trazado 1056" d="M0,0C-1.107,2.945-2.938,9.358-.839,15.53c.461,1.353,1.845,5.223,3.311,9.317,1.043,2.913,2.1,5.872,2.93,8.215-.2-1.018-.379-1.977-.494-2.739-.378-2.478-.667-4.667-.948-6.783-.524-3.957-1.018-7.694-1.97-12.36-.068-.333-.185-.831-.326-1.445A58.517,58.517,0,0,1,0,0" fill="#cb5865"/>
      </g>
      <g id="Grupo_757" data-name="Grupo 757" transform="translate(29.465 -27.03)">
        <path id="Trazado_1057" data-name="Trazado 1057" d="M0,0C-.829-2.343-1.887-5.3-2.929-8.215c-1.466-4.094-2.851-7.964-3.312-9.317-2.1-6.172-.268-12.585.839-15.53a58.517,58.517,0,0,0,1.664,9.735c.142.614.258,1.112.326,1.445.953,4.666,1.447,8.4,1.97,12.36.281,2.116.57,4.305.948,6.783C-.379-1.977-.2-1.018,0,0M-5.032-35.127a.357.357,0,0,0-.314.2c-.73,1.542-4.236,9.63-1.524,17.6.462,1.359,1.848,5.23,3.314,9.329C-1.525-2.313.777,4.12.932,4.738a.333.333,0,0,0,.323.251l.07-.009A.33.33,0,0,0,1.582,4.6c-.151-.842-.363-1.89-.584-3C.674-.008.342-1.669.163-2.838-.213-5.311-.5-7.5-.782-9.609c-.525-3.969-1.023-7.717-1.979-12.406-.068-.339-.185-.842-.33-1.463-.675-2.888-1.928-8.262-1.61-11.3a.321.321,0,0,0-.247-.34.3.3,0,0,0-.084-.011" fill="#cb5865"/>
      </g>
      <g id="Grupo_758" data-name="Grupo 758" transform="translate(83.995 -29.343)">
        <path id="Trazado_1058" data-name="Trazado 1058" d="M0,0-.137.334A4.608,4.608,0,0,1-4.282,3.171l-11.942.542s-27.469,9.138-31.619,10.162S-53.6,5.492-53.6,5.492l-2.98-16.2a20.38,20.38,0,0,0,12.171-2.4h0c.415,5.628.864,16.539.864,16.539l25.516-4.7,5.445-7.357A1.091,1.091,0,0,1-11.357-8.9l.037.02A1.08,1.08,0,0,1-10.9-7.25l-2.464,3.275L-5.5-6.191A4.6,4.6,0,0,1-.516-4.447,4.588,4.588,0,0,1,.319-2.291,4.577,4.577,0,0,1,0,0" fill="#705e55"/>
      </g>
      <g id="Grupo_759" data-name="Grupo 759" transform="translate(35.529 -15.058)">
        <path id="Trazado_1059" data-name="Trazado 1059" d="M0,0A2.86,2.86,0,0,1-1.584-.5c-2.745-1.8-3.831-7.978-3.876-8.239l-2.978-16.2a.321.321,0,0,1,.081-.284.324.324,0,0,1,.276-.108,20.1,20.1,0,0,0,11.974-2.36.348.348,0,0,1,.5.266c.366,4.973.764,14.181.849,16.167l25.01-4.606,5.366-7.25a1.427,1.427,0,0,1,1.617-.383l.058.028a1.4,1.4,0,0,1,.773.927,1.413,1.413,0,0,1-.233,1.2l-1.873,2.488,6.912-1.946a4.949,4.949,0,0,1,5.347,1.867,4.967,4.967,0,0,1,.9,2.313,4.964,4.964,0,0,1-.341,2.459l-.141.332a4.94,4.94,0,0,1-4.442,3.042L32.3-10.242C31.057-9.827,4.739-1.081.7-.088A2.943,2.943,0,0,1,0,0M-7.708-24.622l2.9,15.77c.013.065,1.084,6.164,3.587,7.8A2.137,2.137,0,0,0,.544-.735C4.633-1.741,31.863-10.8,32.136-10.885l.092-.018,11.939-.542a4.286,4.286,0,0,0,3.853-2.633l.14-.333a4.279,4.279,0,0,0,.294-2.126,4.287,4.287,0,0,0-.773-2,4.29,4.29,0,0,0-4.626-1.616l-7.863,2.216a.335.335,0,0,1-.365-.132.33.33,0,0,1,.01-.388L37.3-21.732a.753.753,0,0,0,.122-.634.749.749,0,0,0-.415-.494l-.046-.022a.747.747,0,0,0-.828.2l-5.425,7.33a.338.338,0,0,1-.208.129l-25.517,4.7a.334.334,0,0,1-.266-.069.328.328,0,0,1-.125-.245c0-.107-.427-10.326-.826-16.013a20.816,20.816,0,0,1-11.475,2.23" fill="#2d2e35"/>
      </g>
      <g id="Grupo_760" data-name="Grupo 760" transform="translate(37.059 -22.041)">
        <path id="Trazado_1060" data-name="Trazado 1060" d="M0,0-.132-.027A.331.331,0,0,1-.3-.465,7.043,7.043,0,0,1,3.277-4.18a.332.332,0,0,1,.428.192.335.335,0,0,1-.191.429A6.5,6.5,0,0,0,.305-.2.335.335,0,0,1,0,0" fill="#2d2e35"/>
      </g>
      <g id="Grupo_761" data-name="Grupo 761" transform="translate(42.944 -45.014)">
        <path id="Trazado_1061" data-name="Trazado 1061" d="M0,0A13.735,13.735,0,0,1-3.356,2.563a20.382,20.382,0,0,1-12.172,2.4c-.647-.063-1.313-.148-2-.263,0,0-8.686-21.086,3.679-24.781S0,0,0,0" fill="#ff6776"/>
      </g>
      <g id="Grupo_762" data-name="Grupo 762" transform="translate(29.647 -39.611)">
        <path id="Trazado_1062" data-name="Trazado 1062" d="M0,0C-.723,0-1.477-.033-2.26-.106c-.713-.069-1.376-.155-2.031-.267a.338.338,0,0,1-.25-.2A48.162,48.162,0,0,1-6.755-7.96c-1.181-5.553-1.021-9.959.474-13.094A8.735,8.735,0,0,1-.647-25.8a7.562,7.562,0,0,1,6.8.93c2.731,1.9,4.819,5.761,6.208,11.469A51.5,51.5,0,0,1,13.63-5.422a.331.331,0,0,1-.082.239,14.061,14.061,0,0,1-3.442,2.632A20.25,20.25,0,0,1,0,0M-3.993-1c.578.093,1.167.169,1.8.228A20.114,20.114,0,0,0,9.775-3.128a14.292,14.292,0,0,0,3.178-2.393c-.113-1.513-1.3-14.7-7.182-18.8a6.938,6.938,0,0,0-6.229-.84,8.111,8.111,0,0,0-5.223,4.4C-8.887-14.044-4.6-2.535-3.993-1" fill="#2d2e35"/>
      </g>
      <g id="Grupo_763" data-name="Grupo 763" transform="translate(46.941 -78.339)">
        <path id="Trazado_1063" data-name="Trazado 1063" d="M0,0,5.637,1.135A5.246,5.246,0,0,1,9.729,7.3L9.24,9.721a5.245,5.245,0,0,1-6.157,4.1l-5.636-1.134A5.251,5.251,0,0,1-6.718,8.1l2.495.5a2.932,2.932,0,0,0,2.285,2.25l5.393,1.086A2.937,2.937,0,0,0,6.911,9.644l.641-3.188A2.934,2.934,0,0,0,5.257,3L-.137,1.917a2.928,2.928,0,0,0-2.983,1.2l-2.494-.5A5.248,5.248,0,0,1,0,0" fill="#155c91"/>
      </g>
      <g id="Grupo_764" data-name="Grupo 764" transform="translate(51.057 -64.086)">
        <path id="Trazado_1064" data-name="Trazado 1064" d="M0,0A5.573,5.573,0,0,1-1.1-.11L-6.734-1.244a5.552,5.552,0,0,1-4.432-4.875.344.344,0,0,1,.105-.281.348.348,0,0,1,.292-.081l2.5.5a.331.331,0,0,1,.258.258A2.6,2.6,0,0,0-5.989-3.726L-.594-2.64a2.584,2.584,0,0,0,1.953-.385,2.581,2.581,0,0,0,1.109-1.65L3.11-7.863a2.584,2.584,0,0,0-.384-1.951,2.589,2.589,0,0,0-1.651-1.11l-5.4-1.085a2.593,2.593,0,0,0-2.643,1.063.333.333,0,0,1-.338.135l-2.495-.5a.339.339,0,0,1-.236-.187.331.331,0,0,1,.011-.3,5.544,5.544,0,0,1,5.972-2.78l5.634,1.135A5.568,5.568,0,0,1,5.939-6.892L5.45-4.466A5.572,5.572,0,0,1,0,0M-10.432-5.734A4.942,4.942,0,0,0-6.6-1.9L-.968-.762A4.9,4.9,0,0,0,4.8-4.6l.489-2.425a4.9,4.9,0,0,0-3.832-5.769L-4.18-13.927A4.953,4.953,0,0,0-9.2-11.87l1.823.366a3.257,3.257,0,0,1,3.187-1.158l5.4,1.087a3.235,3.235,0,0,1,2.072,1.394,3.235,3.235,0,0,1,.483,2.45L3.119-4.545A3.237,3.237,0,0,1,1.726-2.47a3.254,3.254,0,0,1-2.45.482L-6.119-3.075a3.261,3.261,0,0,1-2.489-2.29Z" fill="#2d2e35"/>
      </g>
    </g>
    <g id="Grupo_766" data-name="Grupo 766" transform="translate(48.615 -72.323)">
      <path id="Trazado_1066" data-name="Trazado 1066" d="M0,0-.353,1.758-5.763.668l.355-1.757Z" fill="#95acd0"/>
    </g>
    <g id="Grupo_774" data-name="Grupo 774" clip-path="url(#clip-path)">
      <g id="Grupo_767" data-name="Grupo 767" transform="translate(48.262 -70.232)">
        <path id="Trazado_1067" data-name="Trazado 1067" d="M0,0-.066-.009-5.474-1.1a.328.328,0,0,1-.26-.39l.352-1.757A.331.331,0,0,1-4.989-3.5L.418-2.416a.335.335,0,0,1,.261.392L.324-.267a.334.334,0,0,1-.141.21A.324.324,0,0,1,0,0M-5.018-1.683l4.757.958.222-1.1L-4.8-2.788Z" fill="#2d2e35"/>
      </g>
      <g id="Grupo_768" data-name="Grupo 768" transform="translate(46.804 -76.422)">
        <path id="Trazado_1068" data-name="Trazado 1068" d="M0,0,5.394,1.087a2.933,2.933,0,0,1,2.3,3.452L7.048,7.727a2.937,2.937,0,0,1-3.455,2.294L-1.8,8.934a2.928,2.928,0,0,1-2.285-2.25l6.478,1.3a1.161,1.161,0,0,0,1.365-.907l.648-3.21A1.161,1.161,0,0,0,3.5,2.5l-6.48-1.3A2.929,2.929,0,0,1,0,0" fill="#3076a9"/>
      </g>
      <g id="Grupo_769" data-name="Grupo 769" transform="translate(50.983 -66.009)">
        <path id="Trazado_1069" data-name="Trazado 1069" d="M0,0A3.332,3.332,0,0,1-.65-.065l-5.4-1.086A3.264,3.264,0,0,1-8.589-3.657a.343.343,0,0,1,.09-.3.334.334,0,0,1,.3-.092l6.477,1.3A.828.828,0,0,0-.746-3.4L-.1-6.608a.827.827,0,0,0-.648-.973L-7.227-8.887a.335.335,0,0,1-.244-.2A.337.337,0,0,1-7.435-9.4a3.26,3.26,0,0,1,3.321-1.336L1.281-9.652A3.239,3.239,0,0,1,3.353-8.258a3.238,3.238,0,0,1,.483,2.451L3.193-2.621A3.234,3.234,0,0,1,1.8-.547,3.245,3.245,0,0,1,0,0M-7.772-3.291A2.6,2.6,0,0,0-5.915-1.8L-.52-.716A2.584,2.584,0,0,0,1.433-1.1a2.586,2.586,0,0,0,1.109-1.65l.642-3.188A2.583,2.583,0,0,0,2.8-7.89,2.585,2.585,0,0,0,1.149-9l-5.395-1.086a2.594,2.594,0,0,0-2.3.66L-.618-8.233A1.493,1.493,0,0,1,.551-6.475L-.1-3.266A1.5,1.5,0,0,1-1.854-2.1Z" fill="#2d2e35"/>
      </g>
      <g id="Grupo_770" data-name="Grupo 770" transform="translate(51.21 -72.551)">
        <path id="Trazado_1070" data-name="Trazado 1070" d="M0,0-.648,3.213a1.162,1.162,0,0,1-1.367.906L-18.151.867l1.1-5.482L-.91-1.367A1.162,1.162,0,0,1,0,0" fill="#ececec"/>
      </g>
      <g id="Grupo_771" data-name="Grupo 771" transform="translate(49.424 -68.076)">
        <path id="Trazado_1071" data-name="Trazado 1071" d="M0,0A1.4,1.4,0,0,1-.294-.03L-16.429-3.281a.333.333,0,0,1-.26-.392l1.1-5.482a.331.331,0,0,1,.392-.261L.945-6.167A1.5,1.5,0,0,1,2.113-4.409h0L1.464-1.2A1.5,1.5,0,0,1,0,0M-15.971-3.868-.163-.682a.831.831,0,0,0,.976-.647L1.46-4.541a.827.827,0,0,0-.647-.974L-15-8.7ZM1.787-4.475h0Z" fill="#2d2e35"/>
      </g>
      <g id="Grupo_772" data-name="Grupo 772" transform="translate(21.89 -80.87)">
        <path id="Trazado_1072" data-name="Trazado 1072" d="M0,0,12.514,2.52l-1.582,7.851L-1.582,7.85A10.576,10.576,0,0,1,0,0" fill="#155c91"/>
      </g>
      <g id="Grupo_773" data-name="Grupo 773" transform="translate(32.822 -70.166)">
        <path id="Trazado_1073" data-name="Trazado 1073" d="M0,0-.066-.009-12.58-2.527a.339.339,0,0,1-.26-.264,10.913,10.913,0,0,1,1.631-8.1.332.332,0,0,1,.343-.142L1.648-8.509a.322.322,0,0,1,.21.142.325.325,0,0,1,.05.248L.326-.267A.333.333,0,0,1,0,0M-12.226-3.135-.26-.724l1.449-7.2-11.965-2.409a10.256,10.256,0,0,0-1.45,7.2" fill="#2d2e35"/>
      </g>
    </g>
    <g id="Grupo_775" data-name="Grupo 775" transform="translate(40.939 -73.868)">
      <path id="Trazado_1075" data-name="Trazado 1075" d="M0,0,7.676,1.545,7.323,3.3-.353,1.757Z" fill="#407da8"/>
    </g>
    <g id="Grupo_777" data-name="Grupo 777" clip-path="url(#clip-path)">
      <g id="Grupo_776" data-name="Grupo 776" transform="translate(48.262 -70.232)">
        <path id="Trazado_1076" data-name="Trazado 1076" d="M0,0-.066-.009-7.742-1.554A.336.336,0,0,1-7.954-1.7a.352.352,0,0,1-.051-.249L-7.648-3.7a.331.331,0,0,1,.392-.26L.418-2.416a.335.335,0,0,1,.261.392L.324-.267a.334.334,0,0,1-.141.21A.324.324,0,0,1,0,0M-7.285-2.14-.261-.725l.222-1.1L-7.065-3.245Z" fill="#2d2e35"/>
      </g>
    </g>
  </g>
</svg>
