<svg xmlns="http://www.w3.org/2000/svg" xmlns:xlink="http://www.w3.org/1999/xlink" width="157.631" height="176.61" viewBox="0 0 157.631 176.61">
  <defs>
    <clipPath id="clip-path">
      <path id="Trazado_991" data-name="Trazado 991" d="M0,0H157.63V-176.61H0Z" fill="none"/>
    </clipPath>
    <clipPath id="clip-path-2">
      <path id="Trazado_997" data-name="Trazado 997" d="M0,0H157.631V-176.61H0Z" fill="none"/>
    </clipPath>
  </defs>
  <g id="Grupo_804" data-name="Grupo 804" transform="translate(0 176.61)">
    <g id="Grupo_692" data-name="Grupo 692" clip-path="url(#clip-path)">
      <g id="Grupo_691" data-name="Grupo 691" transform="translate(129.294 -143.885)">
        <path id="Trazado_990" data-name="Trazado 990" d="M0,0-8.1-5.144C6.247-13.613,36.967-19.76,64.945-19.76v7.143C36.646-12.617,10.364-6.118,0,0" fill="#515c61"/>
      </g>
    </g>
    <g id="Grupo_698" data-name="Grupo 698" clip-path="url(#clip-path-2)">
      <g id="Grupo_693" data-name="Grupo 693" transform="translate(132.687 -151.753)">
        <path id="Trazado_992" data-name="Trazado 992" d="M0,0C5.613,7.344,6.48,16.1,1.943,19.57s-12.759.327-18.372-7.013-6.477-16.1-1.94-19.569S-5.605-7.34,0,0" fill="#95e2f4"/>
      </g>
      <g id="Grupo_694" data-name="Grupo 694" transform="translate(136.48 -34.094)">
        <path id="Trazado_993" data-name="Trazado 993" d="M0,0-.086.451a5.966,5.966,0,0,1-4.5,4.707l-15.864,4.32-7.58,4.21c-1.966-2.615-4.091-5.325-4.4-8.422l8.479-3.334,5.691-9.518a1.409,1.409,0,0,1,1.482-.681l.055.015a1.4,1.4,0,0,1,.961,1.958L-18-1.489-8.628-6.4a5.973,5.973,0,0,1,6.79.889A5.965,5.965,0,0,1-.2-2.995,5.8,5.8,0,0,1,0,0" fill="#ffc4aa"/>
      </g>
      <g id="Grupo_695" data-name="Grupo 695" transform="translate(108.454 -19.921)">
        <path id="Trazado_994" data-name="Trazado 994" d="M0,0A.5.5,0,0,1-.392-.194L-.635-.523C-2.574-3.1-4.576-5.758-4.883-8.86a.484.484,0,0,1,.307-.5l8.323-3.274L9.354-22.01a1.9,1.9,0,0,1,1.992-.908l.09.022a1.872,1.872,0,0,1,1.252.994,1.9,1.9,0,0,1,.025,1.637l-1.643,3.5,8.1-4.24a6.49,6.49,0,0,1,7.344.958,6.452,6.452,0,0,1,1.769,2.72,6.383,6.383,0,0,1,.221,3.24l-.09.452a6.458,6.458,0,0,1-4.86,5.088L7.762-4.245.234-.062ZM-3.87-8.594c.4,2.684,2.229,5.121,4,7.476L7.342-5.123l.111-.047L23.317-9.484a5.487,5.487,0,0,0,4.145-4.328l.088-.455v0a5.372,5.372,0,0,0-.186-2.744,5.485,5.485,0,0,0-1.5-2.309,5.516,5.516,0,0,0-6.242-.816l-9.377,4.906a.484.484,0,0,1-.562-.08.483.483,0,0,1-.1-.556l2.25-4.8a.924.924,0,0,0-.014-.8.9.9,0,0,0-.614-.483l-.077-.022a.926.926,0,0,0-.934.459L4.5-11.989a.5.5,0,0,1-.242.2Z" fill="#2d2e35"/>
      </g>
      <g id="Grupo_696" data-name="Grupo 696" transform="translate(108.454 -20.406)">
        <path id="Trazado_995" data-name="Trazado 995" d="M0,0-21.836,12.148A102.317,102.317,0,0,1-21.475,0c.077-.651.165-1.258.273-1.818l16.8-6.6C-4.092-5.325-1.967-2.616,0,0" fill="#dee0de"/>
      </g>
      <g id="Grupo_697" data-name="Grupo 697" transform="translate(86.618 -7.774)">
        <path id="Trazado_996" data-name="Trazado 996" d="M0,0-.246-.062A.5.5,0,0,1-.491-.48,99.674,99.674,0,0,1-.119-12.69c.083-.712.174-1.32.276-1.851a.49.49,0,0,1,.3-.361l16.8-6.6a.5.5,0,0,1,.432.034.507.507,0,0,1,.232.37c.278,2.83,2.2,5.38,4.052,7.849l.248.328a.493.493,0,0,1,.086.395.49.49,0,0,1-.235.321L.234-.058ZM1.063-14.1c-.076.445-.149.946-.22,1.52A99.067,99.067,0,0,0,.474-1.308L21.11-12.784c-1.777-2.363-3.585-4.8-4.07-7.59Z" fill="#2d2e35"/>
      </g>
    </g>
    <g id="Grupo_700" data-name="Grupo 700" clip-path="url(#clip-path)">
      <g id="Grupo_699" data-name="Grupo 699" transform="translate(119.276 -29.348)">
        <path id="Trazado_998" data-name="Trazado 998" d="M0,0-.15-.025A.48.48,0,0,1-.459-.638,6.539,6.539,0,0,0-1.2-5.957a.483.483,0,0,1,.122-.676.485.485,0,0,1,.675.122A7.439,7.439,0,0,1,.463-.333.485.485,0,0,1,0,0" fill="#2d2e35"/>
      </g>
    </g>
    <g id="Grupo_701" data-name="Grupo 701" transform="translate(107.074 -0.404)">
      <path id="Trazado_1000" data-name="Trazado 1000" d="M0,0,1.023.4H12.529l18.3-46.316L19.856-50.249Z" fill="#8cc9cc"/>
    </g>
    <g id="Grupo_703" data-name="Grupo 703" clip-path="url(#clip-path)">
      <g id="Grupo_702" data-name="Grupo 702" transform="translate(118.049 4.419)">
        <path id="Trazado_1001" data-name="Trazado 1001" d="M0,0-.179-.035-11.153-4.373A.488.488,0,0,1-11.425-5L8.433-55.252a.486.486,0,0,1,.629-.27l10.977,4.337a.458.458,0,0,1,.265.258.471.471,0,0,1,.008.372L.453-.309A.494.494,0,0,1,.2-.042ZM-10.346-5.1-.271-1.117l19.5-49.344L9.158-54.442Z" fill="#2d2e35"/>
      </g>
    </g>
    <g id="Grupo_704" data-name="Grupo 704" transform="translate(125.397 -41.761)">
      <path id="Trazado_1003" data-name="Trazado 1003" d="M0,0,7.555,2.985l-1.622,4.1L-1.622,4.1Z" fill="#dee0de"/>
    </g>
    <g id="Grupo_713" data-name="Grupo 713" clip-path="url(#clip-path-2)">
      <g id="Grupo_705" data-name="Grupo 705" transform="translate(131.33 -34.185)">
        <path id="Trazado_1004" data-name="Trazado 1004" d="M0,0-.178-.037-7.734-3.02A.5.5,0,0,1-8-3.281a.482.482,0,0,1-.005-.371l1.62-4.1a.493.493,0,0,1,.633-.276L1.8-5.041a.482.482,0,0,1,.263.258.5.5,0,0,1,.008.373L.451-.308A.484.484,0,0,1,0,0M-6.927-3.745-.272-1.116.99-4.316-5.659-6.944Z" fill="#2d2e35"/>
      </g>
      <g id="Grupo_706" data-name="Grupo 706" transform="translate(113.748 -8.615)">
        <path id="Trazado_1005" data-name="Trazado 1005" d="M0,0A2.712,2.712,0,1,1,1.526,3.515,2.712,2.712,0,0,1,0,0" fill="#fff3cf"/>
      </g>
      <g id="Grupo_707" data-name="Grupo 707" transform="translate(116.27 -4.421)">
        <path id="Trazado_1006" data-name="Trazado 1006" d="M0,0A3.185,3.185,0,0,1-1.175-.224a3.214,3.214,0,0,1-1.762-1.7,3.207,3.207,0,0,1-.035-2.449,3.185,3.185,0,0,1,1.7-1.755A3.164,3.164,0,0,1,1.175-6.17a3.173,3.173,0,0,1,1.758,1.7,3.179,3.179,0,0,1,.04,2.445,3.185,3.185,0,0,1-1.7,1.757A3.18,3.18,0,0,1,0,0M0-5.424a2.182,2.182,0,0,0-.88.185A2.2,2.2,0,0,0-2.067-4.015a2.2,2.2,0,0,0,.025,1.7A2.211,2.211,0,0,0-.816-1.129a2.211,2.211,0,0,0,1.7-.027A2.217,2.217,0,0,0,2.069-2.38a2.21,2.21,0,0,0-.029-1.7A2.2,2.2,0,0,0,.818-5.266,2.219,2.219,0,0,0,0-5.424m-2.522,1.23h.006Z" fill="#2d2e35"/>
      </g>
      <g id="Grupo_708" data-name="Grupo 708" transform="translate(86.303 -69.593)">
        <path id="Trazado_1007" data-name="Trazado 1007" d="M0,0A6.368,6.368,0,0,1-2.8,3.323,102.023,102.023,0,0,0-11.4-5.525l-.235-6.6a23.078,23.078,0,0,0,2.655-1.948A12.854,12.854,0,0,0-6.416-11.12C-4.387-9.364-2-7.935-.48-5.727A6.221,6.221,0,0,1,0,0" fill="#705e55"/>
      </g>
      <g id="Grupo_709" data-name="Grupo 709" transform="translate(83.506 -65.784)">
        <path id="Trazado_1008" data-name="Trazado 1008" d="M0,0A.478.478,0,0,1-.361-.164,102.561,102.561,0,0,0-8.907-8.951a.474.474,0,0,1-.183-.366l-.242-6.6a.482.482,0,0,1,.228-.427,22.164,22.164,0,0,0,2.6-1.909.484.484,0,0,1,.393-.112.49.49,0,0,1,.339.232A12.083,12.083,0,0,0-3.3-15.3c.589.507,1.217,1,1.831,1.476A18.985,18.985,0,0,1,2.716-9.815a6.669,6.669,0,0,1,.53,6.185,6.825,6.825,0,0,1-3,3.566ZM-8.127-9.575A112.659,112.659,0,0,1,.092-1.113,5.969,5.969,0,0,0,2.344-3.987,5.692,5.692,0,0,0,1.918-9.26a17.955,17.955,0,0,0-3.989-3.8c-.62-.484-1.263-.981-1.864-1.5A13.713,13.713,0,0,1-6.3-17.16a22.509,22.509,0,0,1-2.05,1.486Z" fill="#2d2e35"/>
      </g>
      <g id="Grupo_710" data-name="Grupo 710" transform="translate(82.132 -68.089)">
        <path id="Trazado_1009" data-name="Trazado 1009" d="M0,0A17.948,17.948,0,0,1-2.054.618L-2.173.5A10.887,10.887,0,0,0-7.62-2c-.6.584-1.922,1.216-4.823,1.216-5.29,0-5.337-2.094-5.337-2.172l.447-12.42h9.78l.186,5.341A5.566,5.566,0,0,0-4.944-5.628,10.642,10.642,0,0,1-3.559-4.539,34.868,34.868,0,0,1,0,0" fill="#ffc4aa"/>
      </g>
      <g id="Grupo_711" data-name="Grupo 711" transform="translate(80.078 -66.987)">
        <path id="Trazado_1010" data-name="Trazado 1010" d="M0,0A.476.476,0,0,1-.344-.143L-.438-.23A10.276,10.276,0,0,0-5.421-2.577C-6.388-1.8-8.06-1.4-10.389-1.4c-5.661,0-5.821-2.386-5.821-2.658l.445-12.438a.489.489,0,0,1,.486-.47H-5.5a.487.487,0,0,1,.483.47l.189,5.342a5.084,5.084,0,0,0,2.209,4.02A11.826,11.826,0,0,1-1.16-5.988,35,35,0,0,1,2.455-1.376a.488.488,0,0,1,.065.42.5.5,0,0,1-.3.31A17.609,17.609,0,0,1,.109-.014ZM-5.565-3.585l.093.007A11.429,11.429,0,0,1,.142-1.018c.376-.1.758-.206,1.148-.336A32.36,32.36,0,0,0-1.851-5.3,10.7,10.7,0,0,0-3.167-6.329,6.071,6.071,0,0,1-5.8-11.12l-.177-4.87h-8.837l-.43,11.95s.144,1.669,4.85,1.669c2.785,0,3.98-.587,4.485-1.078a.485.485,0,0,1,.339-.136" fill="#2d2e35"/>
      </g>
      <g id="Grupo_712" data-name="Grupo 712" transform="translate(83.007 -66.792)">
        <path id="Trazado_1011" data-name="Trazado 1011" d="M0,0C-.3-.451-.584-.879-.87-1.3A18.066,18.066,0,0,1-2.929-.68C3.34,5.125,5.357,24.408,5.357,24.408c.687,6.507-.3,13.045-.981,19.485.856-8.077,4.944-15.775,4.292-23.975C8.082,12.509,3.989,6.048,0,0" fill="#ffc4aa"/>
      </g>
    </g>
    <g id="Grupo_717" data-name="Grupo 717" clip-path="url(#clip-path)">
      <g id="Grupo_714" data-name="Grupo 714" transform="translate(87.382 -22.414)">
        <path id="Trazado_1013" data-name="Trazado 1013" d="M0,0-.05,0A.483.483,0,0,1-.482-.536c.1-.962.21-1.92.318-2.882C.443-8.833,1.077-14.433.5-19.921.48-20.11-1.559-39.076-7.636-44.7a.488.488,0,0,1-.138-.479.484.484,0,0,1,.359-.349,17.788,17.788,0,0,0,2-.6.49.49,0,0,1,.571.184c.285.417.579.85.875,1.3C.478-37.907,4.2-31.74,4.777-24.5c.394,4.953-.924,9.769-2.2,14.425A62,62,0,0,0,.484-.435.486.486,0,0,1,0,0M1.467-20.021A56.275,56.275,0,0,1,1.445-9.613c.064-.238.129-.475.2-.719,1.251-4.575,2.546-9.3,2.166-14.089C3.252-31.435-.409-37.489-4.783-44.112h0c-.217-.338-.438-.661-.655-.98q-.466.16-.929.291c5.722,6.336,7.73,23.712,7.834,24.781" fill="#2d2e35"/>
      </g>
      <g id="Grupo_715" data-name="Grupo 715" transform="translate(86.928 17.826)">
        <path id="Trazado_1014" data-name="Trazado 1014" d="M0,0C-12.18,1.878-28.6.957-38.3-1.958A4.3,4.3,0,0,1-41.2-7.349a42.944,42.944,0,0,0,1.735-7.773c.386-23.884-5.043-36.5-2.357-50.346,1.8-9.263,4.673-18.169,7.841-23.655a11.552,11.552,0,0,1,8.55-5.725l.043-.008c-.722,2.608-1.267,5.893.031,7.34,2.305,2.591,9.345,7.775,9.345,7.775l5.31-3.293S-.928-71.976,1.435-60.21c0,0,.041.289.086.88l.01.105a65.789,65.789,0,0,1-.02,8.066L1.5-50.9c-.142,2.45-.4,5.376-.864,8.779-.034.225-.059.459-.1.7L.5-41.184c-.034.259-.073.518-.114.775l0,.023c-.026.111-.042.223-.062.336-.109.56-.2,1.167-.274,1.818A102.317,102.317,0,0,0-.31-26.084c.039,2.647.1,5.489.173,8.467.092,3.68-.628,2.024.806,5.959.384,1.057,1.5,3.5,2.523,5.865A4.172,4.172,0,0,1,0,0" fill="#ffc4aa"/>
      </g>
      <g id="Grupo_716" data-name="Grupo 716" transform="translate(72.905 19.284)">
        <path id="Trazado_1015" data-name="Trazado 1015" d="M0,0C-8.914,0-18.043-1.035-24.427-2.951A4.781,4.781,0,0,1-27.3-5.3a4.693,4.693,0,0,1-.342-3.646,43.309,43.309,0,0,0,1.713-7.639,181.7,181.7,0,0,0-1.839-27.26c-1.1-8.777-1.96-15.708-.511-23.171,1.86-9.567,4.815-18.464,7.9-23.809a12.089,12.089,0,0,1,8.911-5.961.54.54,0,0,1,.45.162.509.509,0,0,1,.121.445c-.956,3.43-.983,5.875-.079,6.883,2,2.244,7.711,6.546,9.008,7.514l5.029-3.121a.486.486,0,0,1,.622.091c.1.112,9.886,11.294,12.25,23.051,0,.03.045.332.092.938l0,.055.006.055a67.4,67.4,0,0,1-.02,8.124L16-52.33c-.16,2.761-.45,5.727-.866,8.81-.021.141-.04.275-.054.408l-.077.529c-.033.267-.073.528-.112.787l-.007.022v.026c-.025.112-.042.217-.062.322-.1.52-.187,1.1-.27,1.791A103.393,103.393,0,0,0,14.2-27.55c.034,2.39.094,4.927.154,7.608l.02.856a17.358,17.358,0,0,1-.071,2.334c-.072.834-.078.921.849,3.47.269.743.933,2.253,1.644,3.855.285.647.581,1.318.869,1.983a4.611,4.611,0,0,1-.189,4.11A4.631,4.631,0,0,1,14.1-.979,94.519,94.519,0,0,1,0,0M-12.022-95.716a11.123,11.123,0,0,0-7.509,5.378c-3.035,5.251-5.947,14.038-7.789,23.5-1.421,7.314-.56,14.178.519,22.865a181.56,181.56,0,0,1,1.844,27.4A41.823,41.823,0,0,1-26.711-8.66a3.739,3.739,0,0,0,.274,2.9,3.8,3.8,0,0,0,2.292,1.875C-14.344-.939,2.029-.1,13.949-1.939A3.655,3.655,0,0,0,16.619-3.8a3.67,3.67,0,0,0,.157-3.253c-.29-.666-.587-1.336-.875-1.983-.742-1.682-1.382-3.137-1.666-3.909-.968-2.665-.99-2.866-.9-3.891a18.073,18.073,0,0,0,.06-2.223l-.017-.858c-.064-2.684-.123-5.221-.158-7.614a99.782,99.782,0,0,1,.371-12.216c.084-.711.175-1.319.276-1.85.022-.11.039-.227.065-.343v-.008c.037-.252.079-.5.11-.754l.02-.136.056-.4c.018-.138.034-.279.056-.416.411-3.052.7-5.993.856-8.73l.017-.259a65.6,65.6,0,0,0,.016-8.005l0-.053.481-.084-.484.034c-.043-.557-.083-.841-.083-.853C12.887-72,4.8-81.992,3.221-83.863l-4.956,3.077a.483.483,0,0,1-.545-.023c-.286-.212-7.1-5.242-9.415-7.84-1.093-1.218-1.2-3.593-.327-7.067" fill="#2d2e35"/>
      </g>
    </g>
    <g id="Grupo_732" data-name="Grupo 732" clip-path="url(#clip-path-2)">
      <g id="Grupo_718" data-name="Grupo 718" transform="translate(87.382 -119.696)">
        <path id="Trazado_1017" data-name="Trazado 1017" d="M0,0A20.032,20.032,0,0,1-.7,3.737c-.809,2.891-1.609,4.97-1.609,8.57v7.241a19.268,19.268,0,0,1-.115,2.207c-.078.733-.2,1.462-.344,2.176a21.385,21.385,0,0,1-.7,2.508,21.31,21.31,0,0,1-2.372,4.816l-.027.042a22.914,22.914,0,0,1-9.142,7.942,6.138,6.138,0,0,1-2.678.611,6.143,6.143,0,0,1-2.683-.611A23.274,23.274,0,0,1-25.5,35.866l-.014-.02c-.371-.435-6.96-8.3-3.773-10,2.956-1.574,3.476-10.611,3.476-10.611a3.029,3.029,0,0,0,2.461.6V3.678C-23.03,0-17.655,1.152-17.655,1.152c7.848,0,12.454-2.483,15.079-4.91A13.124,13.124,0,0,0-.9-5.618,9.878,9.878,0,0,1,0,0" fill="#ffc4aa"/>
      </g>
      <g id="Grupo_719" data-name="Grupo 719" transform="translate(69.692 -79.357)">
        <path id="Trazado_1018" data-name="Trazado 1018" d="M0,0A6.69,6.69,0,0,1-2.9-.664a23.705,23.705,0,0,1-5.23-3.442L-8.2-4.187c-.905-1.073-5.246-6.406-4.7-9.27a2.034,2.034,0,0,1,1.077-1.464C-9.6-16.106-8.745-22.695-8.6-25.133a.484.484,0,0,1,.284-.415.49.49,0,0,1,.5.063,2.531,2.531,0,0,0,1.675.555V-36.66A3.071,3.071,0,0,1-4.914-39c1.7-1.256,4.559-.757,5-.669,7.887-.012,12.346-2.6,14.7-4.779A12.761,12.761,0,0,0,16.4-46.243a.487.487,0,0,1,.422-.2.487.487,0,0,1,.4.249,10.253,10.253,0,0,1,.959,5.9,21.5,21.5,0,0,1-.715,3.827c-.126.441-.249.864-.372,1.275a22.936,22.936,0,0,0-1.217,7.164v7.242a19.254,19.254,0,0,1-.125,2.26,20.739,20.739,0,0,1-.351,2.223,21.233,21.233,0,0,1-.722,2.568,21.636,21.636,0,0,1-2.424,4.922l-.028.044A23.433,23.433,0,0,1,2.891-.664,6.674,6.674,0,0,1,0,0M-7.45-4.8A22.886,22.886,0,0,0-2.47-1.539a5.784,5.784,0,0,0,4.935,0,22.379,22.379,0,0,0,8.944-7.769l.438.223-.4-.269a20.886,20.886,0,0,0,2.315-4.7,20.787,20.787,0,0,0,.691-2.452,19.778,19.778,0,0,0,.336-2.126,18.632,18.632,0,0,0,.115-2.154v-7.242a23.683,23.683,0,0,1,1.263-7.435c.119-.408.24-.829.363-1.266a20.1,20.1,0,0,0,.683-3.648,10.192,10.192,0,0,0-.516-4.663,14.175,14.175,0,0,1-1.25,1.3C12.958-41.441,8.267-38.7.036-38.7l-.1-.008c-.027-.007-2.82-.588-4.269.488a2.093,2.093,0,0,0-.837,1.6l0,12.117a.484.484,0,0,1-.366.468,3.515,3.515,0,0,1-2.16-.241c-.2,2.375-1,8.787-3.667,10.21a1.05,1.05,0,0,0-.579.792c-.391,2.026,2.767,6.424,4.491,8.465ZM17.69-40.338h.01Z" fill="#2d2e35"/>
      </g>
      <g id="Grupo_720" data-name="Grupo 720" transform="translate(84.96 -97.941)">
        <path id="Trazado_1019" data-name="Trazado 1019" d="M0,0C6.812,0,.119-9.444.119-9.444v7.237A20.2,20.2,0,0,1,0,0" fill="#ffc4aa"/>
      </g>
      <g id="Grupo_721" data-name="Grupo 721" transform="translate(84.96 -97.456)">
        <path id="Trazado_1020" data-name="Trazado 1020" d="M0,0A.486.486,0,0,1-.361-.16.49.49,0,0,1-.484-.54,19.452,19.452,0,0,0-.365-2.692V-9.93a.483.483,0,0,1,.338-.463.482.482,0,0,1,.54.18c.431.605,4.126,5.957,2.706,8.707C2.7-.51,1.622,0,0,0M.605-8.274v5.582C.605-2.118.583-1.548.539-1a2.107,2.107,0,0,0,1.82-.958C3.113-3.417,1.752-6.336.605-8.274" fill="#2d2e35"/>
      </g>
      <g id="Grupo_722" data-name="Grupo 722" transform="translate(88.363 -42.384)">
        <path id="Trazado_1021" data-name="Trazado 1021" d="M0,0C-2.363-11.766-12.135-22.824-12.135-22.824l-5.31,3.294s-7.036-5.185-9.345-7.776c-1.3-1.447-.754-4.732-.029-7.337a34.68,34.68,0,0,1,1.257-3.678l1.848,1.415a19.326,19.326,0,0,0,.093,2.054c.954,9.942,9.233,4.32,15.216,9.652C-2.044-19.53,0,0,0,0" fill="#ffc4aa"/>
      </g>
      <g id="Grupo_723" data-name="Grupo 723" transform="translate(88.363 -41.899)">
        <path id="Trazado_1022" data-name="Trazado 1022" d="M0,0A.488.488,0,0,1-.474-.392c-2.094-10.42-10.184-20.416-11.758-22.285L-17.189-19.6a.486.486,0,0,1-.544-.018c-.289-.214-7.1-5.246-9.42-7.845-1.165-1.3-1.213-3.921-.134-7.792a34.735,34.735,0,0,1,1.278-3.735.487.487,0,0,1,.322-.282.474.474,0,0,1,.419.085l1.847,1.415a.486.486,0,0,1,.192.384c0,.758.034,1.413.09,2,.53,5.53,3.259,5.883,7.031,6.369,2.574.333,5.491.708,8.029,2.97C-1.651-20.32.4-1.341.486-.537A.487.487,0,0,1,.076,0ZM-12.135-23.8a.488.488,0,0,1,.365.164A66.435,66.435,0,0,1-1.48-6.966C-2.635-13.124-4.887-21.9-8.727-25.322c-2.312-2.061-4.952-2.4-7.506-2.73-3.741-.483-7.269-.939-7.873-7.239-.057-.558-.088-1.171-.095-1.861l-1.147-.879c-.246.65-.648,1.764-1,3.034-.952,3.427-.979,5.873-.077,6.881,2,2.243,7.71,6.546,9.006,7.513l5.034-3.12Z" fill="#ffc4aa"/>
      </g>
      <g id="Grupo_724" data-name="Grupo 724" transform="translate(81.944 -27.05)">
        <path id="Trazado_1023" data-name="Trazado 1023" d="M0,0A1.845,1.845,0,0,1,1.845-1.845,1.844,1.844,0,0,1,3.69,0,1.842,1.842,0,0,1,1.845,1.844,1.842,1.842,0,0,1,0,0" fill="#a4b2b1"/>
      </g>
      <g id="Grupo_725" data-name="Grupo 725" transform="translate(83.789 -24.717)">
        <path id="Trazado_1024" data-name="Trazado 1024" d="M0,0A2.336,2.336,0,0,1-2.334-2.333,2.334,2.334,0,0,1,0-4.661,2.333,2.333,0,0,1,2.331-2.333,2.335,2.335,0,0,1,0,0M0-3.691A1.361,1.361,0,0,0-1.361-2.333,1.362,1.362,0,0,0,0-.973a1.362,1.362,0,0,0,1.359-1.36A1.361,1.361,0,0,0,0-3.691" fill="#2d2e35"/>
      </g>
      <g id="Grupo_726" data-name="Grupo 726" transform="translate(81.215 -16.999)">
        <path id="Trazado_1025" data-name="Trazado 1025" d="M0,0A1.845,1.845,0,0,1,1.845-1.845,1.843,1.843,0,0,1,3.689,0,1.844,1.844,0,0,1,1.845,1.845,1.846,1.846,0,0,1,0,0" fill="#a4b2b1"/>
      </g>
      <g id="Grupo_727" data-name="Grupo 727" transform="translate(83.061 -14.669)">
        <path id="Trazado_1026" data-name="Trazado 1026" d="M0,0A2.334,2.334,0,0,1-2.334-2.33,2.333,2.333,0,0,1,0-4.66,2.332,2.332,0,0,1,2.329-2.33,2.333,2.333,0,0,1,0,0M0-3.689A1.363,1.363,0,0,0-1.363-2.33,1.361,1.361,0,0,0,0-.971,1.357,1.357,0,0,0,1.357-2.33,1.359,1.359,0,0,0,0-3.689" fill="#2d2e35"/>
      </g>
      <g id="Grupo_728" data-name="Grupo 728" transform="translate(84.616 -95.765)">
        <path id="Trazado_1027" data-name="Trazado 1027" d="M0,0A21.385,21.385,0,0,1-.7,2.508,21.33,21.33,0,0,1-3.077,7.324l-.027.042A4.01,4.01,0,0,1-5.225,3.83,4.015,4.015,0,0,1-1.211-.184,3.973,3.973,0,0,1,0,0" fill="#ececec"/>
      </g>
      <g id="Grupo_729" data-name="Grupo 729" transform="translate(81.479 -87.921)">
        <path id="Trazado_1028" data-name="Trazado 1028" d="M0,0-.2-.049A4.494,4.494,0,0,1-2.573-4.014a4.5,4.5,0,0,1,4.5-4.5,4.582,4.582,0,0,1,1.355.2.492.492,0,0,1,.329.568,21.3,21.3,0,0,1-.722,2.566A21.636,21.636,0,0,1,.464-.253.576.576,0,0,1,0,0M1.926-7.54A3.532,3.532,0,0,0-1.6-4.014,3.522,3.522,0,0,0-.118-1.14,20.718,20.718,0,0,0,1.97-5.493a19.583,19.583,0,0,0,.586-1.995,3.853,3.853,0,0,0-.63-.052" fill="#2d2e35"/>
      </g>
      <g id="Grupo_730" data-name="Grupo 730" transform="translate(80.101 -107.343)">
        <path id="Trazado_1029" data-name="Trazado 1029" d="M0,0A1.214,1.214,0,0,1-1.212-1.214V-4.956A1.213,1.213,0,0,1,0-6.169,1.215,1.215,0,0,1,1.215-4.956v3.742A1.215,1.215,0,0,1,0,0" fill="#2d2e35"/>
      </g>
      <g id="Grupo_731" data-name="Grupo 731" transform="translate(74.877 -114.065)">
        <path id="Trazado_1030" data-name="Trazado 1030" d="M0,0A.491.491,0,0,1-.353-.15.487.487,0,0,1-.334-.839c3.881-3.672,8.73-.845,8.778-.816a.484.484,0,0,1,.168.665.486.486,0,0,1-.667.169c-.173-.1-4.271-2.471-7.611.69A.5.5,0,0,1,0,0" fill="#2d2e35"/>
      </g>
    </g>
    <g id="Grupo_736" data-name="Grupo 736" clip-path="url(#clip-path)">
      <g id="Grupo_733" data-name="Grupo 733" transform="translate(77.326 -111.815)">
        <path id="Trazado_1032" data-name="Trazado 1032" d="M0,0A.476.476,0,0,1-.344-.143l-.8-.8a.488.488,0,0,1,0-.688.485.485,0,0,1,.687,0l.487.491a4.222,4.222,0,0,1,5.644.3A.483.483,0,0,1,5.7-.146a.487.487,0,0,1-.688.011A3.382,3.382,0,0,0,.328-.124.485.485,0,0,1,0,0" fill="#2d2e35"/>
      </g>
      <g id="Grupo_734" data-name="Grupo 734" transform="translate(73.302 -12.227)">
        <path id="Trazado_1033" data-name="Trazado 1033" d="M0,0S.458-10.5.635-18.088C.662-19.3.68-20.446.688-21.455l.48-12.351a14.683,14.683,0,0,0-.977-6c-3.966-9.839-15.826-8.4-16.343,6.55l1.225,14.521,1.715,20.3S-12.161,13.886-6.7,13.014c3.681-.58,21.37-4.748,32.573-7.418A33.232,33.232,0,0,1,24.438-2.4Z" fill="#dee0de"/>
      </g>
      <g id="Grupo_735" data-name="Grupo 735" transform="translate(66.062 1.318)">
        <path id="Trazado_1034" data-name="Trazado 1034" d="M0,0A3.7,3.7,0,0,1-2.33-.838c-3.364-2.635-4.1-10.757-4.125-11.1L-9.4-46.762v-.058C-9.1-55.564-5.108-59.364-1.482-60c3.84-.673,7.507,1.865,9.365,6.467a15.069,15.069,0,0,1,1.012,6.2L8.419-34.982c-.01,1-.031,2.143-.06,3.359-.148,6.508-.513,15.262-.611,17.538l23.882-2.34a.48.48,0,0,1,.362.114.5.5,0,0,1,.171.344,32.936,32.936,0,0,0,1.414,7.873.482.482,0,0,1-.04.383.486.486,0,0,1-.309.234C22.656-4.954,4.363-.64.622-.048A4.161,4.161,0,0,1,0,0M-8.422-46.815-5.486-12.02c.007.076.722,8.045,3.755,10.42a2.73,2.73,0,0,0,2.2.593c3.652-.581,21.4-4.762,32.028-7.3a33.812,33.812,0,0,1-1.273-7.106L7.29-13.063a.477.477,0,0,1-.38-.132.465.465,0,0,1-.155-.371c.008-.107.46-10.584.629-18.077.033-1.212.052-2.354.062-3.363L7.922-47.37a14.032,14.032,0,0,0-.941-5.8c-1.677-4.16-4.933-6.464-8.292-5.872-3.251.572-6.826,4.085-7.111,12.229" fill="#2d2e35"/>
      </g>
    </g>
    <g id="Grupo_755" data-name="Grupo 755" clip-path="url(#clip-path-2)">
      <g id="Grupo_737" data-name="Grupo 737" transform="translate(129.739 -17.71)">
        <path id="Trazado_1036" data-name="Trazado 1036" d="M0,0A5.977,5.977,0,0,0-6.25-2.794l-10.4,2,3.539-3.956a1.4,1.4,0,0,0-.371-2.15l-.04-.032a1.406,1.406,0,0,0-1.609.226l-7.839,8.9L-32,3.086a33.185,33.185,0,0,0,1.437,7.993,52.048,52.048,0,0,1,9.856-1.4L-5.7,9.433A5.972,5.972,0,0,0-.038,6.22l.216-.413A5.981,5.981,0,0,0,.84,2.882,5.9,5.9,0,0,0,0,0" fill="#ffc4aa"/>
      </g>
      <g id="Grupo_738" data-name="Grupo 738" transform="translate(99.177 -6.145)">
        <path id="Trazado_1037" data-name="Trazado 1037" d="M0,0A.486.486,0,0,1-.464-.341,33.643,33.643,0,0,1-1.922-8.45a.487.487,0,0,1,.437-.512l8.844-.867,7.711-8.764a1.91,1.91,0,0,1,2.194-.334l.048.029.044.029a1.865,1.865,0,0,1,.906,1.309,1.889,1.889,0,0,1-.44,1.567l-2.585,2.886,8.985-1.728a6.479,6.479,0,0,1,6.756,3.019l0,0A6.493,6.493,0,0,1,31.888-8.7a6.47,6.47,0,0,1-.715,3.163l-.214.413a6.463,6.463,0,0,1-6.125,3.474L9.862-1.4A52.442,52.442,0,0,0,.113-.013ZM-.925-8.04A33.229,33.229,0,0,0,.331-1.062,52.745,52.745,0,0,1,9.845-2.371l15.008-.248A5.52,5.52,0,0,0,30.095-5.57l.215-.411a5.558,5.558,0,0,0,.608-2.688,5.523,5.523,0,0,0-.773-2.644A5.505,5.505,0,0,0,24.4-13.881l-10.4,2a.49.49,0,0,1-.517-.236.486.486,0,0,1,.065-.565l3.539-3.957a.918.918,0,0,0,.213-.76.934.934,0,0,0-.457-.645l-.045-.029a.933.933,0,0,0-1.039.154L7.96-9.043a.469.469,0,0,1-.315.164Z" fill="#2d2e35"/>
      </g>
      <g id="Grupo_739" data-name="Grupo 739" transform="translate(73.77 -12.362)">
        <path id="Trazado_1038" data-name="Trazado 1038" d="M0,0A.486.486,0,0,0-.6-.333,9.2,9.2,0,0,0-5.665,4.1a.489.489,0,0,0,.2.66l.231.058a.492.492,0,0,0,.428-.254A8.367,8.367,0,0,1-.333.6.486.486,0,0,0,0,0" fill="#2d2e35"/>
      </g>
      <g id="Grupo_740" data-name="Grupo 740" transform="translate(94.28 -123.882)">
        <path id="Trazado_1039" data-name="Trazado 1039" d="M0,0A11.68,11.68,0,0,1-3.065,2.662,9.222,9.222,0,0,1-6.9,4.187,13.253,13.253,0,0,0-7.8-1.43C-10.1,3.232-18.218,5.147-21.07,5.163s-5.219,4.49-2.369,10.58a6.865,6.865,0,0,1-2.491,9.148c.31-.255,2.41-2.185.357-7.248-2.221-5.46-1.983-6.964-1.344-10.126s-3.328.346-3.328.346V20.025c-1.342,1.242-.523,3.71.633,5.129s2.737,2.678,3.051,4.479c.393,2.281-1.415,4.362-1.672,6.663-.3,2.67,1.517,5.116,3.545,6.873s4.415,3.186,5.935,5.393a6.217,6.217,0,0,1,.48,5.728c-2.016,5.134-7.824,4.76-12.333,3.811-.2-.041-.4-.086-.591-.127-.62-.145-1.242-.291-1.862-.434a32.238,32.238,0,0,0-5.238-.9c-2.215-.152-4.175.823-6.311,1.324-1.985.459-4.35.39-5.744-1.1a5.056,5.056,0,0,1-.406-.5c-1.148-1.586-1-3.394-.487-5.227v0c.535-1.855,1.449-3.737,1.786-5.449a5.064,5.064,0,0,0-.5-3.954,6.2,6.2,0,0,0-2.3-1.636,5.4,5.4,0,0,1-.959-.665,3.758,3.758,0,0,1-.516-5.358,16.283,16.283,0,0,0,1.935-2.62v-.009a3,3,0,0,0,.416-1.852l-.018-.1c-.237-1.165-1.031-2.094-1.164-3.343a5.656,5.656,0,0,1,1.53-4.816,5.185,5.185,0,0,0,1.6-3.8,4.854,4.854,0,0,1,1.567-3.689,2.646,2.646,0,0,1,.468-.289s-.058-.465-.119-1.277C-47.933,6.393-48.238-17.7-25.1-17c.911,0,1.776.036,2.585.1,7.521.6,10.6,3.716,10.6,3.716s2.264-4.931,9.091-3.347C4.369-14.864,3.685-4.571,0,0" fill="#705e55"/>
      </g>
      <g id="Grupo_741" data-name="Grupo 741" transform="translate(68.443 -64.705)">
        <path id="Trazado_1040" data-name="Trazado 1040" d="M0,0A23.732,23.732,0,0,1-4.875-.6L-7.33-1.163a31.529,31.529,0,0,0-5.16-.891A11.466,11.466,0,0,0-16.7-1.3c-.63.2-1.286.4-1.956.555-1.252.29-4.356.746-6.213-1.249a5.555,5.555,0,0,1-.45-.555,6.262,6.262,0,0,1-.562-5.607l.013-.036c.224-.8.524-1.6.813-2.374A20.821,20.821,0,0,0-24.1-13.6a4.529,4.529,0,0,0-.424-3.579A4.437,4.437,0,0,0-26.2-18.422c-.154-.082-.309-.162-.462-.245A5.89,5.89,0,0,1-27.7-19.4a4.249,4.249,0,0,1-.569-6.025c.107-.134.225-.274.351-.423a12.844,12.844,0,0,0,1.5-2.065l.028-.064a2.511,2.511,0,0,0,.361-1.549l0-.074a6.672,6.672,0,0,0-.52-1.385,6.317,6.317,0,0,1-.662-2.006A6.133,6.133,0,0,1-25.539-38.2a4.7,4.7,0,0,0,1.45-3.479,5.256,5.256,0,0,1,1.761-4.054l.24-.17c-.019-.223-.053-.552-.084-.974-.261-3.726-.554-16.47,6.671-23.991,3.9-4.056,9.37-6,16.251-5.8H.756c.869,0,1.747.036,2.607.1,6.065.487,9.3,2.565,10.434,3.454.868-1.3,3.6-4.4,9.326-3.072a7.143,7.143,0,0,1,5.312,4.892,14.282,14.282,0,0,1-2.221,12.419A12.142,12.142,0,0,1,23.022-56.1a9.321,9.321,0,0,1-4.083,1.592.481.481,0,0,1-.356-.158.48.48,0,0,1-.127-.368,12.5,12.5,0,0,0-.528-4.429C15.006-55.295,7.614-53.548,4.77-53.528A2.837,2.837,0,0,0,2.459-52.05c-1.282,2.024-1.14,5.167.376,8.409A7.316,7.316,0,0,1,.158-33.869.491.491,0,0,1-.493-34a.5.5,0,0,1,.088-.66c.228-.183,2.146-1.934.215-6.692-2.227-5.482-2.042-7.057-1.367-10.4.117-.592.016-.748.016-.748a5.48,5.48,0,0,0-2.384,1.412v11.939a.477.477,0,0,1-.156.354c-1.1,1.02-.313,3.251.684,4.466.272.337.577.672.876.995A7.664,7.664,0,0,1-.247-29.626a7.579,7.579,0,0,1-.836,4.13,10.148,10.148,0,0,0-.831,2.67c-.315,2.793,1.985,5.238,3.378,6.449.586.507,1.217,1,1.828,1.475a18.966,18.966,0,0,1,4.192,4.008,6.675,6.675,0,0,1,.532,6.185C6.522-.9,3.067,0,0,0M-12.922-3.042c.163,0,.328.008.493.019a32.637,32.637,0,0,1,5.315.912l2.446.558C1.881-.175,5.628-1.29,7.111-5.067a5.706,5.706,0,0,0-.424-5.273,17.988,17.988,0,0,0-3.992-3.8c-.62-.484-1.259-.981-1.864-1.5-2.662-2.308-3.983-4.9-3.714-7.3a11.4,11.4,0,0,1,.894-2.929,6.644,6.644,0,0,0,.78-3.6A6.82,6.82,0,0,0-3.24-32.68c-.3-.336-.623-.68-.91-1.038-1.184-1.449-2.148-4.1-.747-5.636V-51.315a.5.5,0,0,1,.164-.363c.777-.689,2.7-2.23,3.694-1.658.705.407.5,1.434.434,1.772-.613,3.032-.89,4.415,1.317,9.844a9.681,9.681,0,0,1,.835,5.248C2.6-37.885,3.4-40.138,1.956-43.23.3-46.772.18-50.263,1.636-52.57A3.786,3.786,0,0,1,4.766-54.5c2.772-.02,10.666-1.928,12.844-6.324a.482.482,0,0,1,.45-.269.482.482,0,0,1,.43.295,13.932,13.932,0,0,1,.968,5.262,11.58,11.58,0,0,0,3.063-1.4,11.051,11.051,0,0,0,2.935-2.552,13.215,13.215,0,0,0,2.063-11.487,6.247,6.247,0,0,0-4.614-4.261c-6.338-1.473-8.46,2.887-8.543,3.076a.488.488,0,0,1-.358.272.486.486,0,0,1-.431-.138c-.026-.028-3.068-2.99-10.293-3.571-.831-.068-1.687-.1-2.544-.1C-5.883-75.9-11.1-74.048-14.8-70.2c-6.951,7.235-6.657,19.624-6.4,23.248.056.786.115,1.244.115,1.244a.486.486,0,0,1-.271.507,2.132,2.132,0,0,0-.387.237,4.33,4.33,0,0,0-1.374,3.322,5.641,5.641,0,0,1-1.735,4.126A5.17,5.17,0,0,0-26.247-33.1a5.394,5.394,0,0,0,.575,1.706,7.21,7.21,0,0,1,.586,1.594l.02.151a3.45,3.45,0,0,1-.44,2.079l-.023.054a13.278,13.278,0,0,1-1.65,2.293c-.122.146-.237.282-.343.41a3.337,3.337,0,0,0,.469,4.693,4.791,4.791,0,0,0,.87.6c.144.078.291.157.437.234a5.251,5.251,0,0,1,2.017,1.545,5.442,5.442,0,0,1,.587,4.33,21.53,21.53,0,0,1-1.007,3.183c-.28.746-.566,1.521-.78,2.278l-.011.028c-.6,2.111-.469,3.594.411,4.806a4.1,4.1,0,0,0,.374.462c1.5,1.62,4.189,1.212,5.276.96.635-.147,1.272-.345,1.89-.539a13.734,13.734,0,0,1,4.067-.814M25.836-59.178h0Z" fill="#2d2e35"/>
      </g>
      <g id="Grupo_742" data-name="Grupo 742" transform="translate(86.49 -124.825)">
        <path id="Trazado_1041" data-name="Trazado 1041" d="M0,0A.476.476,0,0,1-.336-.136a.487.487,0,0,1-.02-.682,4.983,4.983,0,0,0,.829-4.1.481.481,0,0,1,.405-.552.483.483,0,0,1,.554.405A5.88,5.88,0,0,1,.35-.152.474.474,0,0,1,0,0" fill="#2d2e35"/>
      </g>
      <g id="Grupo_743" data-name="Grupo 743" transform="translate(75.639 -131.043)">
        <path id="Trazado_1042" data-name="Trazado 1042" d="M0,0C-.261,0-.534-.01-.815-.027a.488.488,0,0,1-.454-.515A.485.485,0,0,1-.747-1c6.459.431,6.968-4.842,6.989-5.066a.485.485,0,0,1,.52-.444.485.485,0,0,1,.449.518C7.2-5.923,6.678,0,0,0" fill="#2d2e35"/>
      </g>
      <g id="Grupo_744" data-name="Grupo 744" transform="translate(86.893 -127.244)">
        <path id="Trazado_1043" data-name="Trazado 1043" d="M0,0A4.353,4.353,0,0,1-.8,1.644a.662.662,0,0,0-.107.2c.022-.041.044-.085.066-.128a.508.508,0,0,1,.062-.1h0l0,0,.009-.011,0,0A3.79,3.79,0,0,0,0,0M1.078-2.28a6.1,6.1,0,0,1-.93,4.3A13.938,13.938,0,0,1,.693,3.891L2,2.522a10.2,10.2,0,0,0-.925-4.8" fill="#5f524f"/>
      </g>
      <g id="Grupo_745" data-name="Grupo 745" transform="translate(86.116 -125.623)">
        <path id="Trazado_1044" data-name="Trazado 1044" d="M0,0A.513.513,0,0,0-.063.1C-.084.139-.106.183-.128.225A.4.4,0,0,0-.106.55a7.484,7.484,0,0,1,.83,2.5L1.47,2.27A14.091,14.091,0,0,0,.925.4a2.421,2.421,0,0,1-.2.25A.473.473,0,0,1,.374.8.474.474,0,0,1,.038.663.487.487,0,0,1,0,0M0,0,0,0,0,0M.014-.016Z" fill="#2d2e35"/>
      </g>
      <g id="Grupo_746" data-name="Grupo 746" transform="translate(87.048 -128.389)">
        <path id="Trazado_1045" data-name="Trazado 1045" d="M0,0A6.031,6.031,0,0,1-.152,1.134,5.746,5.746,0,0,0,0,0" fill="#5f524f"/>
      </g>
      <g id="Grupo_747" data-name="Grupo 747" transform="translate(87.538 -129.787)">
        <path id="Trazado_1046" data-name="Trazado 1046" d="M0,0A.451.451,0,0,0-.121.015.481.481,0,0,0-.487.486c.011.329.011.632,0,.912A5.735,5.735,0,0,1-.642,2.531s0,.008,0,.012a3.8,3.8,0,0,1-.759,1.6l0,0-.009.01,0,.005h0a.487.487,0,0,0,.038.662.476.476,0,0,0,.336.136A.474.474,0,0,0-.7,4.81a2.58,2.58,0,0,0,.2-.251,6.1,6.1,0,0,0,.93-4.3A.045.045,0,0,1,.427.251.484.484,0,0,0,0,0" fill="#2d2e35"/>
      </g>
      <g id="Grupo_748" data-name="Grupo 748" transform="translate(59.736 -110.218)">
        <path id="Trazado_1047" data-name="Trazado 1047" d="M0,0C0,3.375.877,5,1.837,5.756A3.016,3.016,0,0,0,4.3,6.361V-5.8S0-7.478,0,0" fill="#ffc4aa"/>
      </g>
      <g id="Grupo_749" data-name="Grupo 749" transform="translate(63.467 -103.317)">
        <path id="Trazado_1048" data-name="Trazado 1048" d="M0,0A3.5,3.5,0,0,1-2.2-.764C-3.536-1.825-4.217-3.889-4.217-6.9s.681-4.995,2.025-5.912a3.359,3.359,0,0,1,2.939-.341.487.487,0,0,1,.305.451V-.541A.483.483,0,0,1,.69-.073,2.9,2.9,0,0,1,0,0M-.411-12.379a2.147,2.147,0,0,0-1.242.374c-1.042.72-1.589,2.484-1.589,5.1,0,2.66.566,4.518,1.647,5.375a2.55,2.55,0,0,0,1.68.555v-11.36a2.588,2.588,0,0,0-.5-.048" fill="#2d2e35"/>
      </g>
      <g id="Grupo_750" data-name="Grupo 750" transform="translate(61.621 -109.122)">
        <path id="Trazado_1049" data-name="Trazado 1049" d="M0,0A.485.485,0,0,1-.484-.443C-.678-2.668-.313-4.161.6-4.878a2.222,2.222,0,0,1,1.975-.347.485.485,0,0,1,.3.613.482.482,0,0,1-.612.308,1.233,1.233,0,0,0-1.073.2C.754-3.759.28-2.857.486-.528A.49.49,0,0,1,.043,0Z" fill="#2d2e35"/>
      </g>
      <g id="Grupo_751" data-name="Grupo 751" transform="translate(40.139 -87.771)">
        <path id="Trazado_1050" data-name="Trazado 1050" d="M0,0A3.762,3.762,0,0,0,1.251,2.95a4.815,4.815,0,0,0,.869.6l.438.234A5.231,5.231,0,0,1,4.574,5.331a4.734,4.734,0,0,1,.747,3.148L6.378,7.373A8.567,8.567,0,0,0,5.929,5.08C5.067,2.781,2.787,1.529.37.206L0,0" fill="#5f524f"/>
      </g>
      <g id="Grupo_752" data-name="Grupo 752" transform="translate(44.714 -82.441)">
        <path id="Trazado_1051" data-name="Trazado 1051" d="M0,0A4.733,4.733,0,0,1,.743,3.152l0,0A4.741,4.741,0,0,0,0,0M-4.577-5.332A3.692,3.692,0,0,0-3.328-2.381a4.856,4.856,0,0,0,.873.6c.142.079.289.157.434.234A5.263,5.263,0,0,1,0,0,5.248,5.248,0,0,0-2.016-1.545c-.147-.077-.294-.155-.438-.234a4.729,4.729,0,0,1-.869-.6,3.76,3.76,0,0,1-1.251-2.95h0" fill="#2d2e35"/>
      </g>
      <g id="Grupo_753" data-name="Grupo 753" transform="translate(41.783 -83.372)">
        <path id="Trazado_1052" data-name="Trazado 1052" d="M0,0C.151.083.3.163.457.245A4.44,4.44,0,0,1,2.136,1.493a4.529,4.529,0,0,1,.426,3.578c-.016.075-.032.15-.049.226.017-.076.033-.151.049-.226a4.53,4.53,0,0,0-.424-3.578A4.432,4.432,0,0,0,.461.245C.308.163.152.083,0,0M-2.59-4.676A4.5,4.5,0,0,0-1.05-.729,5.954,5.954,0,0,0,0,0,5.935,5.935,0,0,1-1.045-.729,4.6,4.6,0,0,1-2.59-4.676" fill="#c5c3c4"/>
      </g>
      <g id="Grupo_754" data-name="Grupo 754" transform="translate(40.418 -88.726)">
        <path id="Trazado_1053" data-name="Trazado 1053" d="M0,0A2.976,2.976,0,0,0-.278.955l.37.206c2.417,1.323,4.7,2.575,5.559,4.874A8.606,8.606,0,0,1,6.1,8.328l.875-.915a8,8,0,0,0-.412-1.721C5.572,3.056,3.026,1.661.561.308L0,0" fill="#5f524f"/>
      </g>
    </g>
    <g id="Grupo_757" data-name="Grupo 757" clip-path="url(#clip-path)">
      <g id="Grupo_756" data-name="Grupo 756" transform="translate(39.807 -88.996)">
        <path id="Trazado_1055" data-name="Trazado 1055" d="M0,0A.5.5,0,0,0-.175.031a.5.5,0,0,0-.285.3A3.963,3.963,0,0,0-.614.948,4.6,4.6,0,0,0,.931,4.895a5.9,5.9,0,0,0,1.045.729c.152.084.308.163.461.245A4.432,4.432,0,0,1,4.114,7.117a4.526,4.526,0,0,1,.423,3.578c-.015.075-.031.15-.048.226L5.65,9.707a4.741,4.741,0,0,0-.743-3.152A5.263,5.263,0,0,0,2.886,5.01c-.146-.077-.292-.155-.434-.233a4.855,4.855,0,0,1-.873-.6A3.691,3.691,0,0,1,.33,1.223h0A2.95,2.95,0,0,1,.611.27C.486.2.362.132.239.061A.489.489,0,0,0,0,0" fill="#2d2e35"/>
      </g>
    </g>
    <path id="Trazado_1057" data-name="Trazado 1057" d="M0,0H157.63V-61.628H0Z" fill="#c653a9"/>
    <path id="Trazado_1058" data-name="Trazado 1058" d="M37.234,0h10.18V-61.628H37.234Z" fill="#eae569"/>
    <path id="Trazado_1059" data-name="Trazado 1059" d="M5.489,0h10.18V-61.529H5.489Z" fill="#eae569"/>
    <path id="Trazado_1060" data-name="Trazado 1060" d="M73.523,0H83.705V-61.628H73.523Z" fill="#eae569"/>
    <path id="Trazado_1061" data-name="Trazado 1061" d="M108.534,0h10.181V-61.628H108.534Z" fill="#eae569"/>
    <path id="Trazado_1062" data-name="Trazado 1062" d="M139.522,0H149.7V-61.628h-10.18Z" fill="#eae569"/>
    <g id="Grupo_793" data-name="Grupo 793" clip-path="url(#clip-path-2)">
      <g id="Grupo_758" data-name="Grupo 758" transform="translate(128.497 -148.238)">
        <path id="Trazado_1063" data-name="Trazado 1063" d="M0,0C5.344,6.991,6.923,14.758,3.533,17.349s-10.467-.975-15.81-7.967S-19.2-5.376-15.811-7.965-5.339-6.988,0,0" fill="#fff"/>
      </g>
      <g id="Grupo_759" data-name="Grupo 759" transform="translate(44.296 -78.075)">
        <path id="Trazado_1064" data-name="Trazado 1064" d="M0,0-15.724,16.446H3.961c.446-1.322.909-2.59,1.383-3.785a9.907,9.907,0,0,1-2.065.229h0A5.561,5.561,0,0,1-.345,11.74a4.125,4.125,0,0,1-.38-.36,4.816,4.816,0,0,1-.451-.555,6.259,6.259,0,0,1-.562-5.607l.012-.036c.226-.8.526-1.6.812-2.374A23.252,23.252,0,0,0,0,0M67.1-70.183l-14,14.648A14.529,14.529,0,0,1,50.361-45.5a12.137,12.137,0,0,1-3.191,2.772,10.906,10.906,0,0,1-3.637,1.56,21.846,21.846,0,0,1-.674,3.416c-.126.441-.249.864-.372,1.275a23.062,23.062,0,0,0-1.216,7.017c.71,1.025,3.958,5.968,2.612,8.574A3.073,3.073,0,0,1,41.1-19.394c-.074.595-.175,1.2-.3,1.786,0,.006,0,.014,0,.021a21.366,21.366,0,0,1-.668,2.411l-.054.155A21.636,21.636,0,0,1,37.648-10.1l-.028.044a22.977,22.977,0,0,1-3.969,4.547,12.592,12.592,0,0,0,2.256,2.5c.589.507,1.217,1,1.831,1.476a18.985,18.985,0,0,1,4.188,4.007,6.67,6.67,0,0,1,.53,6.184,6.874,6.874,0,0,1-2.673,3.365c.973,1.493,1.907,2.961,2.77,4.421H54.721l25.2-69.99a27.278,27.278,0,0,1-8-7.238,27.556,27.556,0,0,1-4.825-9.4" fill="#ace2f2"/>
      </g>
      <g id="Grupo_760" data-name="Grupo 760" transform="translate(77.207 -82.944)">
        <path id="Trazado_1065" data-name="Trazado 1065" d="M0,0A22.562,22.562,0,0,1-2.05,1.486l.139,3.837a5.072,5.072,0,0,0,2.164,3.5A12.026,12.026,0,0,1,1.711,9.968a34.95,34.95,0,0,1,3.583,4.567.572.572,0,0,1,.037.046c.253.37.513.752.776,1.151l.283.315a5.976,5.976,0,0,0,2.253-2.874A5.7,5.7,0,0,0,8.217,7.9a17.978,17.978,0,0,0-3.99-3.8c-.62-.484-1.263-.981-1.864-1.5A13.747,13.747,0,0,1,0,0" fill="#7fafb6"/>
      </g>
      <g id="Grupo_761" data-name="Grupo 761" transform="translate(77.947 -83.582)">
        <path id="Trazado_1066" data-name="Trazado 1066" d="M0,0A23.673,23.673,0,0,1-2.814,2.127L-2.7,5.442c.007.176.022.349.046.52l-.14-3.837A22.423,22.423,0,0,0-.74.639a13.754,13.754,0,0,0,2.364,2.6c.6.523,1.244,1.02,1.864,1.5a17.951,17.951,0,0,1,3.989,3.8A5.7,5.7,0,0,1,7.9,13.811a5.971,5.971,0,0,1-2.252,2.875l-.283-.315.1.151.665,1.011a6.868,6.868,0,0,0,2.673-3.365,6.67,6.67,0,0,0-.53-6.184A18.985,18.985,0,0,0,4.087,3.977C3.473,3.5,2.845,3.008,2.256,2.5A12.592,12.592,0,0,1,0,0" fill="#6797a3"/>
      </g>
      <g id="Grupo_762" data-name="Grupo 762" transform="translate(76.852 -73.357)">
        <path id="Trazado_1067" data-name="Trazado 1067" d="M0,0A7.077,7.077,0,0,1-.179,3.323,10.411,10.411,0,0,1,3.364,5.35c.313-.08.629-.17.943-.268.07-.02.139-.043.209-.066A32.457,32.457,0,0,0,1.375,1.065,10.652,10.652,0,0,0,.058.041L0,0" fill="#ffe7dc"/>
      </g>
      <g id="Grupo_763" data-name="Grupo 763" transform="translate(76.673 -70.033)">
        <path id="Trazado_1068" data-name="Trazado 1068" d="M0,0A0,0,0,0,0,0,0,10.368,10.368,0,0,1,3.542,2.026h0A10.385,10.385,0,0,0,0,0M-1.54-11.422q-.234.15-.471.3l.149,4.2c.22.231.431.469.632.718.011.012.021.023.031.036l.016.021c.152.189.3.384.438.587A5.873,5.873,0,0,1,.179-3.323c.02.013.039.028.059.04A10.7,10.7,0,0,1,1.554-2.259,32.36,32.36,0,0,1,4.7,1.692c-.07.023-.139.046-.208.067.269-.084.539-.175.807-.273a.518.518,0,0,1,.168-.03.487.487,0,0,1,.366.168A34.863,34.863,0,0,0,2.245-2.942,11.826,11.826,0,0,0,.787-4.087a5.075,5.075,0,0,1-2.163-3.5c-.024-.172-.039-.345-.046-.52Z" fill="#6797a3"/>
      </g>
      <g id="Grupo_764" data-name="Grupo 764" transform="translate(81.944 -67.507)">
        <path id="Trazado_1069" data-name="Trazado 1069" d="M0,0C-.311.1-.619.2-.927.291A19.923,19.923,0,0,1,2.391,5.879H3.773C2.8,4.266,1.751,2.642.656.981h0C.438.642.217.318,0,0" fill="#ffe7dc"/>
      </g>
      <g id="Grupo_765" data-name="Grupo 765" transform="translate(82.134 -68.577)">
        <path id="Trazado_1070" data-name="Trazado 1070" d="M0,0A.487.487,0,0,0-.167.03Q-.57.177-.975.3c-.315.1-.63.188-.943.267h0l.069.061a9.7,9.7,0,0,1,.733.73c.308-.089.616-.186.927-.291.217.318.437.642.655.98h0c1.1,1.661,2.148,3.285,3.117,4.9H4.714c-.863-1.461-1.8-2.928-2.77-4.421-.22-.336-.441-.672-.665-1.011l-.1-.152C.917.967.657.585.4.214A.406.406,0,0,0,.367.168.491.491,0,0,0,0,0" fill="#6797a3"/>
      </g>
      <g id="Grupo_766" data-name="Grupo 766" transform="translate(76.129 -64.574)">
        <path id="Trazado_1071" data-name="Trazado 1071" d="M0,0-4.751,2.946H2.312C1.251,1.512.409.485,0,0M-20.615-2.2a12.762,12.762,0,0,0-3.773.772c-.305.1-.616.191-.931.283-.524,1.28-1.035,2.649-1.527,4.09h21.2C-6.153,2.568-7.906,1.26-9.807-.26-10.943-.391-11.915-.6-12.56-.732l-2.461-.561a31.531,31.531,0,0,0-5.157-.892c-.147-.01-.292-.014-.437-.014" fill="#ffe7dc"/>
      </g>
      <g id="Grupo_767" data-name="Grupo 767" transform="translate(76.131 -64.575)">
        <path id="Trazado_1072" data-name="Trazado 1072" d="M0,0H0C.407.486,1.249,1.513,2.31,2.947h0C1.25,1.509.407.483,0,0M-9.81-.259c1.9,1.52,3.655,2.828,4.165,3.206-.517-.384-2.266-1.69-4.164-3.206Zm-15.511-.884c-.338.1-.68.191-1.025.273l-.145.032c-.474,1.195-.937,2.462-1.383,3.785h1.025c.493-1.441,1-2.81,1.528-4.09" fill="#6797a3"/>
      </g>
      <g id="Grupo_768" data-name="Grupo 768" transform="translate(74.182 -80.873)">
        <path id="Trazado_1073" data-name="Trazado 1073" d="M0,0Q-.78.455-1.6.852a6.742,6.742,0,0,1-.915.361l.067.053A32.338,32.338,0,0,1,.162,3.445,6.367,6.367,0,0,1,.1,2.766Z" fill="#ffd8cd"/>
      </g>
      <g id="Grupo_769" data-name="Grupo 769" transform="translate(74.661 -81.159)">
        <path id="Trazado_1074" data-name="Trazado 1074" d="M0,0C-.159.1-.318.193-.479.286l.1,2.766a6.078,6.078,0,0,0,.062.678c.159.153.315.31.467.469Z" fill="#6797a3"/>
      </g>
      <g id="Grupo_770" data-name="Grupo 770" transform="translate(86.761 -122.491)">
        <path id="Trazado_1075" data-name="Trazado 1075" d="M0,0-5.669,5.929a8.765,8.765,0,0,1,2.23.842.485.485,0,0,1,.168.665.487.487,0,0,1-.419.238.489.489,0,0,1-.248-.069,7.673,7.673,0,0,0-2.509-.862L-8.728,9.129A4.6,4.6,0,0,1-6.64,8.6,4.067,4.067,0,0,1-3.755,9.843a.483.483,0,0,1,.017.687.489.489,0,0,1-.352.148.479.479,0,0,1-.336-.137A3.619,3.619,0,0,0-5.51,9.8a1.2,1.2,0,0,1,.064.39v3.743a1.213,1.213,0,0,1-1.215,1.213,1.212,1.212,0,0,1-1.211-1.213V10.191a1.214,1.214,0,0,1,.071-.41,4.316,4.316,0,0,0-1.306.771.485.485,0,0,1-.328.124.476.476,0,0,1-.344-.143l-.149-.149-5,5.225a7.278,7.278,0,0,1-3.236,8.308.482.482,0,0,1-.253.071.486.486,0,0,1-.4-.2.5.5,0,0,1,.087-.661c.189-.151,1.533-1.375.9-4.483l-4.2,4.4a5.158,5.158,0,0,0,.308.419c.272.336.578.671.876.995a7.656,7.656,0,0,1,2.274,3.711,7.572,7.572,0,0,1-.836,4.131,10.125,10.125,0,0,0-.831,2.67c-.315,2.792,1.985,5.237,3.378,6.448.256.222.52.439.786.654A5.476,5.476,0,0,0-14.6,41.6a22.415,22.415,0,0,0,8.665-7.357,4.5,4.5,0,0,1-1.916-3.683,4.5,4.5,0,0,1,4.5-4.5,4.548,4.548,0,0,1,.834.076c.1-.537.18-1.08.236-1.619V24.5q.044-.384.071-.781c.03-.438.044-.9.044-1.371V15.1A23.677,23.677,0,0,1-.907,7.668c.119-.408.24-.829.363-1.266A20.13,20.13,0,0,0,.139,2.753,11.255,11.255,0,0,0,0,0" fill="#ffe7dc"/>
      </g>
      <g id="Grupo_771" data-name="Grupo 771" transform="translate(84.422 -93.25)">
        <path id="Trazado_1076" data-name="Trazado 1076" d="M0,0C-.018.051-.036.1-.054.155A21.636,21.636,0,0,1-2.478,5.077a.578.578,0,0,1-.464.253l-.2-.049A4.761,4.761,0,0,1-3.6,5a22.415,22.415,0,0,1-8.665,7.357,5.48,5.48,0,0,1-1.463.467c.323.261.65.516.974.768a6.742,6.742,0,0,0,.915-.361q.819-.4,1.6-.852.241-.139.48-.286t.471-.3A23.673,23.673,0,0,0-6.475,9.668,22.977,22.977,0,0,0-2.506,5.121l.028-.044A21.636,21.636,0,0,0-.054.155C-.036.1-.018.051,0,0M.053-4.726C0-4.188-.081-3.645-.183-3.107a4.353,4.353,0,0,1,.521.128.493.493,0,0,1,.334.547C.8-3.023.9-3.623.972-4.218.832-4.21.688-4.2.539-4.2a.483.483,0,0,1-.361-.16.49.49,0,0,1-.125-.361M2.478-26.487a20.1,20.1,0,0,1-.683,3.648c-.123.437-.244.858-.363,1.266A23.683,23.683,0,0,0,.169-14.138V-6.9c0,.474-.014.932-.044,1.37C.157-5.974.173-6.432.173-6.9v-7.238A.483.483,0,0,1,.511-14.6a.474.474,0,0,1,.147-.023.485.485,0,0,1,.393.2l.094.133A23.062,23.062,0,0,1,2.361-21.3c.123-.411.246-.834.372-1.275a21.834,21.834,0,0,0,.674-3.417,3.281,3.281,0,0,1-.447.033H2.91L2.8-25.974a.371.371,0,0,1-.25-.218.491.491,0,0,1-.07-.3" fill="#6797a3"/>
      </g>
      <g id="Grupo_772" data-name="Grupo 772" transform="translate(85.566 -105.73)">
        <path id="Trazado_1077" data-name="Trazado 1077" d="M0,0V5.582c0,.574-.022,1.144-.067,1.7a2.106,2.106,0,0,0,1.821-.958C2.507,4.858,1.146,1.938,0,0" fill="#ffe7dc"/>
      </g>
      <g id="Grupo_773" data-name="Grupo 773" transform="translate(85.499 -98.45)">
        <path id="Trazado_1078" data-name="Trazado 1078" d="M0,0C.045-.553.067-1.123.067-1.7V-7.279C1.213-5.341,2.574-2.422,1.82-.958A2.105,2.105,0,0,1,0,0M-.419-9.421A.47.47,0,0,0-.566-9.4.484.484,0,0,0-.9-8.935V-1.7c0,.465-.016.924-.048,1.371q-.027.4-.071.781l0,.019A.5.5,0,0,0-.9.835.482.482,0,0,0-.539,1C-.389,1-.245.99-.1.982A3.073,3.073,0,0,0,2.68-.511C4.025-3.117.778-8.06.068-9.085l-.094-.133a.485.485,0,0,0-.393-.2" fill="#6797a3"/>
      </g>
      <g id="Grupo_774" data-name="Grupo 774" transform="translate(76.338 -69.12)">
        <path id="Trazado_1079" data-name="Trazado 1079" d="M0,0C-1.554,3.558-4.908,4.415-7.894,4.415h0c-.13,0-.259,0-.387,0,1.3,1.015,2.4,1.846,2.888,2.208L-.363,3.5l.253-.072a.487.487,0,0,1,.366.165c.035.039,1.314,1.5,3.05,3.9H6.933A16.152,16.152,0,0,0,3.3,1.9,9.368,9.368,0,0,0,0,0" fill="#ffe7dc"/>
      </g>
      <g id="Grupo_775" data-name="Grupo 775" transform="translate(76.228 -65.694)">
        <path id="Trazado_1080" data-name="Trazado 1080" d="M0,0-.254.072-5.288,3.193C-5.773,2.831-6.878,2-8.176.985-8.777.971-9.36.924-9.906.86c1.9,1.516,3.647,2.822,4.164,3.206h.892L-.1,1.12h0C.31,1.6,1.153,2.628,2.215,4.066h1.2C1.68,1.666.4.2.365.165A.485.485,0,0,0,0,0M.444-4.335q-.092.311-.212.615c-.039.1-.08.2-.122.294a9.377,9.377,0,0,1,3.3,1.9A16.148,16.148,0,0,1,7.043,4.066H8.107A19.923,19.923,0,0,0,4.789-1.522a9.7,9.7,0,0,0-.733-.73l-.069-.061A10.341,10.341,0,0,0,.444-4.335" fill="#ffe7dc"/>
      </g>
      <g id="Grupo_776" data-name="Grupo 776" transform="translate(83.405 -95.461)">
        <path id="Trazado_1081" data-name="Trazado 1081" d="M0,0A3.532,3.532,0,0,0-3.529,3.526,3.522,3.522,0,0,0-2.044,6.4,20.668,20.668,0,0,0,.044,2.047,19.583,19.583,0,0,0,.63.052,3.853,3.853,0,0,0,0,0" fill="#ebeeef"/>
      </g>
      <g id="Grupo_777" data-name="Grupo 777" transform="translate(81.362 -89.061)">
        <path id="Trazado_1082" data-name="Trazado 1082" d="M0,0A3.523,3.523,0,0,1-1.485-2.875,3.531,3.531,0,0,1,2.044-6.4a3.746,3.746,0,0,1,.63.052,19.64,19.64,0,0,1-.586,1.994A20.725,20.725,0,0,1,0,0M2.044-7.373a4.5,4.5,0,0,0-4.5,4.5A4.494,4.494,0,0,0-.54.808a4.761,4.761,0,0,0,.46.283l.2.049A.576.576,0,0,0,.582.887,21.636,21.636,0,0,0,3.006-4.035c.018-.052.037-.1.054-.155A21.366,21.366,0,0,0,3.728-6.6c0-.007,0-.014,0-.021A.494.494,0,0,0,3.4-7.169,4.449,4.449,0,0,0,2.878-7.3a4.564,4.564,0,0,0-.834-.076" fill="#6797a3"/>
      </g>
      <g id="Grupo_778" data-name="Grupo 778" transform="translate(80.113 -112.926)">
        <path id="Trazado_1083" data-name="Trazado 1083" d="M0,0A3.332,3.332,0,0,0-1.153.216a1.21,1.21,0,0,0-.071.41V4.368A1.213,1.213,0,0,0-.012,5.582,1.214,1.214,0,0,0,1.2,4.368V.626a1.226,1.226,0,0,0-.064-.39A2.858,2.858,0,0,0,0,0" fill="#6797a3"/>
      </g>
      <g id="Grupo_779" data-name="Grupo 779" transform="translate(81.092 -116.562)">
        <path id="Trazado_1084" data-name="Trazado 1084" d="M0,0-.778.814a7.7,7.7,0,0,1,2.509.862.486.486,0,0,0,.5-.834A8.765,8.765,0,0,0,0,0" fill="#6797a3"/>
      </g>
      <g id="Grupo_780" data-name="Grupo 780" transform="translate(80.121 -113.894)">
        <path id="Trazado_1085" data-name="Trazado 1085" d="M0,0A4.617,4.617,0,0,0-2.089.532l-1.2,1.255.148.149a.478.478,0,0,0,.345.143.476.476,0,0,0,.327-.124,4.317,4.317,0,0,1,1.306-.77A3.318,3.318,0,0,1-.009.969,2.856,2.856,0,0,1,1.13,1.2a3.629,3.629,0,0,1,1.084.741.48.48,0,0,0,.336.136A.491.491,0,0,0,2.9,1.933a.485.485,0,0,0-.017-.687A4.073,4.073,0,0,0,0,0" fill="#6797a3"/>
      </g>
      <g id="Grupo_781" data-name="Grupo 781" transform="translate(64.052 -98.739)">
        <path id="Trazado_1086" data-name="Trazado 1086" d="M0,0-16.66,17.425c.064.47.1.94.14,1.405a9.787,9.787,0,0,0,.547,2.977c1,2.432,3.8,3.482,6.14,3.482.145,0,.287,0,.427-.012,2.768-.157,5.332-1.451,7.809-2.7C.84,21.341,3.6,19.946,6.6,19.79c.112-.006.223-.009.335-.011-.572-.446-1.156-.9-1.711-1.384-2.662-2.308-3.983-4.9-3.714-7.3A11.4,11.4,0,0,1,2.4,8.171a6.654,6.654,0,0,0,.781-3.6A6.815,6.815,0,0,0,1.151,1.354C.848,1.018.528.674.241.316.159.217.078.111,0,0M6.988-7.31l-1.3,1.361a8.226,8.226,0,0,1,.249,3.511A5.9,5.9,0,0,0,6.988-7.31M32.437-33.927l-7.594,7.943a14.719,14.719,0,0,1-.832,4.446,12.362,12.362,0,0,0,2.9-1.361,11.036,11.036,0,0,0,2.935-2.552,13.353,13.353,0,0,0,2.59-8.476" fill="#7fafb6"/>
      </g>
      <g id="Grupo_782" data-name="Grupo 782" transform="translate(55.513 -66.773)">
        <path id="Trazado_1087" data-name="Trazado 1087" d="M0,0A12.73,12.73,0,0,0-3.772.772c-.636.2-1.292.4-1.959.556a9.968,9.968,0,0,1-2.207.261h0A9.9,9.9,0,0,0-5.873,1.36l.145-.032c.346-.082.688-.174,1.025-.273.315-.092.627-.188.931-.283A12.774,12.774,0,0,1,0,0H0M20.415-8.825a6.676,6.676,0,0,1,.529,6.184C19.45,1.164,16,2.069,12.929,2.069h0c2.986,0,6.34-.857,7.894-4.415.043-.1.083-.195.122-.3.081-.2.151-.408.212-.615v0a7.077,7.077,0,0,0,.18-3.323,5.888,5.888,0,0,0-.925-2.242m-.454-.608a.173.173,0,0,0,.017.021.173.173,0,0,1-.017-.021M9.226-32.682l-.686.717c.078.111.159.217.241.316.287.358.606.7.91,1.038a6.813,6.813,0,0,1,2.031,3.219,6.644,6.644,0,0,1-.78,3.6,11.4,11.4,0,0,0-.894,2.929c-.269,2.4,1.052,4.987,3.714,7.3.555.48,1.139.938,1.711,1.384H15.6a9.127,9.127,0,0,1,1.511.127l.222.1a17.293,17.293,0,0,1,2.6,2.489c-.2-.249-.413-.487-.632-.717-.152-.16-.308-.317-.467-.469a32.119,32.119,0,0,0-2.609-2.178l-.068-.054c-.323-.252-.651-.507-.974-.768-.267-.215-.531-.432-.786-.653C13-15.519,10.7-17.965,11.017-20.757a10.137,10.137,0,0,1,.831-2.67,7.579,7.579,0,0,0,.836-4.13,7.664,7.664,0,0,0-2.274-3.712c-.3-.324-.6-.658-.876-1a5.138,5.138,0,0,1-.308-.418m7.1-7.427-.8.834a5.9,5.9,0,0,1-1.05,4.872,8.247,8.247,0,0,0-.249-3.512l-.8.837c.631,3.109-.713,4.332-.9,4.484a.5.5,0,0,0-.088.66.486.486,0,0,0,.4.2.485.485,0,0,0,.253-.071,7.279,7.279,0,0,0,3.235-8.309m15-15.692-.079.083a11.219,11.219,0,0,1,.138,2.754.5.5,0,0,0,.07.3.694.694,0,0,1-.055-.356,11.687,11.687,0,0,0-.074-2.776m10.55-11.035-.9.943a13.356,13.356,0,0,1-2.59,8.477,11.051,11.051,0,0,1-2.935,2.552,12.382,12.382,0,0,1-2.9,1.361q-.129.373-.28.757a.487.487,0,0,1-.427.308h.026a3.263,3.263,0,0,0,.446-.032,10.9,10.9,0,0,0,3.637-1.56A12.142,12.142,0,0,0,39.145-56.8a14.528,14.528,0,0,0,2.733-10.034" fill="#6797a3"/>
      </g>
      <g id="Grupo_783" data-name="Grupo 783" transform="translate(86.97 -119.442)">
        <path id="Trazado_1088" data-name="Trazado 1088" d="M0,0A.373.373,0,0,0,.25.218L.362.231H.387A.49.49,0,0,1,.056.073.488.488,0,0,1,0,0" fill="#6797a3"/>
      </g>
      <g id="Grupo_784" data-name="Grupo 784" transform="translate(88.895 -124.723)">
        <path id="Trazado_1089" data-name="Trazado 1089" d="M0,0-1.309,1.369A13.2,13.2,0,0,1-.993,4.483l.161-.036A14.725,14.725,0,0,0,0,0" fill="#7aaab3"/>
      </g>
      <g id="Grupo_785" data-name="Grupo 785" transform="translate(87.586 -123.353)">
        <path id="Trazado_1090" data-name="Trazado 1090" d="M0,0-.745.779A11.685,11.685,0,0,1-.671,3.555a.684.684,0,0,0,.055.356.488.488,0,0,0,.056.073.488.488,0,0,0,.331.158A.489.489,0,0,0,.2,3.834q.152-.384.281-.757C.423,3.091.37,3.1.316,3.114A13.14,13.14,0,0,0,0,0" fill="#6797a3"/>
      </g>
      <g id="Grupo_786" data-name="Grupo 786" transform="translate(46.518 -80.398)">
        <path id="Trazado_1091" data-name="Trazado 1091" d="M0,0-1.057,1.105a9.317,9.317,0,0,1-.159,1.182A21.649,21.649,0,0,1-2.223,5.47c-.28.747-.566,1.521-.78,2.278l-.011.028c-.6,2.112-.469,3.594.411,4.807a4.1,4.1,0,0,0,.357.443l.017.018a4.357,4.357,0,0,0,3.276,1.2,9.039,9.039,0,0,0,2-.238c.633-.147,1.268-.345,1.889-.538A13.7,13.7,0,0,1,9,12.652H9c.163,0,.328.007.492.019l.084.006a32.977,32.977,0,0,1,5.232.906l2.446.557a23.45,23.45,0,0,0,4.76.568c3.671,0,5.941-1.339,7.019-4.081a5.7,5.7,0,0,0-.429-5.273A14.014,14.014,0,0,0,25.817,2.5a8.178,8.178,0,0,0-1.231-.094c-.134,0-.268,0-.4.01-2.8.144-5.458,1.5-7.809,2.684-2.449,1.234-5.225,2.634-8.2,2.8-.153.008-.308.012-.466.012C5.049,7.92,1.834,6.687.662,3.838A10.769,10.769,0,0,1,.048.566C.032.375.017.187,0,0" fill="#7aaab3"/>
      </g>
      <g id="Grupo_787" data-name="Grupo 787" transform="translate(61.329 -66.815)">
        <path id="Trazado_1092" data-name="Trazado 1092" d="M0,0,2.446.557a23.459,23.459,0,0,0,4.761.568A23.45,23.45,0,0,1,2.447.557ZM-17.041-.539A4.357,4.357,0,0,0-13.766.66h0a4.358,4.358,0,0,1-3.276-1.2M-5.232-.906A33,33,0,0,1,0,0,32.957,32.957,0,0,0-5.232-.906m-.575-.025h0c.165,0,.33.008.494.019-.165-.012-.33-.019-.492-.019M-17.415-1a3.561,3.561,0,0,0,.357.444A4.341,4.341,0,0,1-17.415-1m1.547-11.478,0,.005a9.448,9.448,0,0,1-.161,1.177,22.154,22.154,0,0,1-1,3.184c-.279.746-.565,1.52-.785,2.277l-.006.028c-.6,2.112-.472,3.594.411,4.807-.88-1.213-1.007-2.695-.411-4.807l.012-.028c.214-.757.5-1.531.779-2.277A21.586,21.586,0,0,0-16.027-11.3a9.5,9.5,0,0,0,.159-1.182" fill="#6797a3"/>
      </g>
      <g id="Grupo_788" data-name="Grupo 788" transform="translate(44.296 -78.075)">
        <path id="Trazado_1093" data-name="Trazado 1093" d="M0,0H0A23.252,23.252,0,0,1-.914,2.808c-.286.774-.586,1.575-.812,2.374l-.012.036a6.259,6.259,0,0,0,.562,5.607,4.816,4.816,0,0,0,.451.555,5.671,5.671,0,0,1-.45-.555,6.262,6.262,0,0,1-.561-5.607l.012-.036c.225-.8.524-1.6.813-2.374A22.7,22.7,0,0,0,0,0" fill="#9cd0e0"/>
      </g>
      <g id="Grupo_789" data-name="Grupo 789" transform="translate(75.49 -76.185)">
        <path id="Trazado_1094" data-name="Trazado 1094" d="M0,0Q.228.283.437.587C.3.384.151.189,0,0M-.047-.057l.03.036-.03-.036" fill="#6797a3"/>
      </g>
      <g id="Grupo_790" data-name="Grupo 790" transform="translate(55.516 -66.773)">
        <path id="Trazado_1095" data-name="Trazado 1095" d="M0,0H0c.145,0,.29,0,.437.015A31.421,31.421,0,0,1,5.592.906l2.461.562L5.6.906A31.51,31.51,0,0,0,.437.015C.291,0,.145,0,0,0" fill="#cfd0cd"/>
      </g>
      <g id="Grupo_791" data-name="Grupo 791" transform="translate(43.951 -66.334)">
        <path id="Trazado_1096" data-name="Trazado 1096" d="M0,0A5.56,5.56,0,0,0,3.623,1.149h0A5.559,5.559,0,0,1,0,0" fill="#9cd0e0"/>
      </g>
      <g id="Grupo_792" data-name="Grupo 792" transform="translate(63.569 -65.306)">
        <path id="Trazado_1097" data-name="Trazado 1097" d="M0,0C.645.136,1.617.34,2.753.472h0C1.618.339.646.136,0,0" fill="#cfd0cd"/>
      </g>
    </g>
    <g id="Grupo_794" data-name="Grupo 794" transform="translate(66.322 -64.834)">
      <path id="Trazado_1099" data-name="Trazado 1099" d="M0,0H0Z" fill="#6797a3"/>
    </g>
    <g id="Grupo_799" data-name="Grupo 799" clip-path="url(#clip-path-2)">
      <g id="Grupo_795" data-name="Grupo 795" transform="translate(68.053 -64.709)">
        <path id="Trazado_1100" data-name="Trazado 1100" d="M0,0H0C.128,0,.257,0,.387,0h0C.258,0,.129,0,0,0" fill="#cfd0cd"/>
      </g>
      <g id="Grupo_796" data-name="Grupo 796" transform="translate(66.322 -64.834)">
        <path id="Trazado_1101" data-name="Trazado 1101" d="M0,0H0C.546.064,1.129.111,1.731.125,1.128.111.545.064,0,0" fill="#cfd0cd"/>
      </g>
      <g id="Grupo_797" data-name="Grupo 797" transform="translate(44.271 -67.372)">
        <path id="Trazado_1102" data-name="Trazado 1102" d="M0,0A.149.149,0,0,1,.017.018.149.149,0,0,0,0,0M11.246-.375A13.74,13.74,0,0,0,7.18.439C6.559.633,5.925.831,5.291.978a9.1,9.1,0,0,1-2,.238h0a9.112,9.112,0,0,0,2-.238C5.928.831,6.565.633,7.183.439a13.721,13.721,0,0,1,4.066-.814h0M3.121-13.942l-.875.916q.025.279.048.565a10.775,10.775,0,0,0,.614,3.273C4.081-6.339,7.3-5.106,9.959-5.106c.158,0,.313,0,.466-.013,2.973-.171,5.75-1.57,8.2-2.8,2.351-1.189,5.015-2.54,7.809-2.684.133-.007.266-.01.4-.01a8.178,8.178,0,0,1,1.231.094,14.008,14.008,0,0,1,2.791,2.85,5.7,5.7,0,0,1,.43,5.273C30.2.343,27.935,1.682,24.265,1.682h0c3.671,0,5.941-1.339,7.019-4.082a5.709,5.709,0,0,0-.425-5.273,17.988,17.988,0,0,0-3.992-3.8c-.05-.04-.1-.079-.153-.12-.112,0-.224.005-.335.011-3,.156-5.758,1.551-8.195,2.785-2.477,1.251-5.042,2.545-7.809,2.7-.14.008-.283.012-.427.012-2.342,0-5.141-1.05-6.14-3.482a9.787,9.787,0,0,1-.547-2.977c-.037-.464-.076-.935-.14-1.405" fill="#7aaab3"/>
      </g>
      <g id="Grupo_798" data-name="Grupo 798" transform="translate(45.457 -79.289)">
        <path id="Trazado_1103" data-name="Trazado 1103" d="M0,0-1.161,1.214a22.852,22.852,0,0,1-.91,2.808C-2.361,4.8-2.66,5.6-2.885,6.4l-.012.036a6.262,6.262,0,0,0,.561,5.607,5.853,5.853,0,0,0,.45.555,4.278,4.278,0,0,0,.38.361A5.565,5.565,0,0,0,2.118,14.1a9.95,9.95,0,0,0,2.206-.261c.668-.157,1.323-.359,1.96-.555a12.694,12.694,0,0,1,3.772-.773h0c.145,0,.291,0,.438.015a31.529,31.529,0,0,1,5.16.891l2.455.562c.646.135,1.618.339,2.752.472h0c.546.063,1.129.11,1.731.125.129,0,.258,0,.389,0,3.071,0,6.521-.9,8.015-4.709a6.681,6.681,0,0,0-.529-6.185c-.139-.2-.286-.4-.437-.587-.006-.007-.012-.013-.017-.02s-.02-.026-.03-.037a17.241,17.241,0,0,0-2.6-2.488l-.221-.1A9.245,9.245,0,0,0,25.655.328h-.126l.153.12a17.988,17.988,0,0,1,3.992,3.795A5.709,5.709,0,0,1,30.1,9.517C29.021,12.26,26.751,13.6,23.08,13.6h0a23.459,23.459,0,0,1-4.761-.568l-2.446-.558a32.965,32.965,0,0,0-5.231-.906l-.084-.006c-.163-.01-.328-.019-.493-.019A13.715,13.715,0,0,0,6,12.356c-.618.194-1.256.392-1.89.539a9.128,9.128,0,0,1-2,.238h0a4.362,4.362,0,0,1-3.276-1.2.145.145,0,0,0-.016-.018,3.489,3.489,0,0,1-.357-.444c-.883-1.213-1.008-2.695-.411-4.806l.006-.028c.219-.757.5-1.532.785-2.278a22.328,22.328,0,0,0,1-3.184A9.6,9.6,0,0,0,0,0" fill="#6797a3"/>
      </g>
    </g>
    <g id="Grupo_800" data-name="Grupo 800" transform="translate(86.849 -61.628)">
      <path id="Trazado_1105" data-name="Trazado 1105" d="M0,0H-3.145V.149h15.26L12.168,0ZM-15.471,0H-39.435V.149h26.109V0ZM-58.277,0l-.142.149h8.8V0Z" fill="#c1bcde"/>
    </g>
    <path id="Trazado_1106" data-name="Trazado 1106" d="M37.234-61.479h10.18v-.149H37.234Z" fill="#e1efcb"/>
    <g id="Grupo_801" data-name="Grupo 801" transform="translate(83.271 -61.628)">
      <path id="Trazado_1107" data-name="Trazado 1107" d="M0,0H-9.748V.149H.434V0Z" fill="#e1efcb"/>
    </g>
    <g id="Grupo_803" data-name="Grupo 803" clip-path="url(#clip-path-2)">
      <g id="Grupo_802" data-name="Grupo 802" transform="translate(113.733 -150.703)">
        <path id="Trazado_1108" data-name="Trazado 1108" d="M0,0-2.339,2.446a27.574,27.574,0,0,0,4.826,9.4,27.287,27.287,0,0,0,8,7.238l1.567-4.352Z" fill="#fff"/>
      </g>
    </g>
  </g>
</svg>
