<svg xmlns="http://www.w3.org/2000/svg" xmlns:xlink="http://www.w3.org/1999/xlink" width="166.353" height="172.012" viewBox="0 0 166.353 172.012">
  <defs>
    <clipPath id="clip-path">
      <path id="Trazado_997" data-name="Trazado 997" d="M0,0H166.353V-172.012H0Z" fill="none"/>
    </clipPath>
  </defs>
  <g id="Grupo_876" data-name="Grupo 876" transform="translate(0 172.012)">
    <g id="Grupo_698" data-name="Grupo 698" clip-path="url(#clip-path)">
      <g id="Grupo_691" data-name="Grupo 691" transform="translate(71.898 -38.779)">
        <path id="Trazado_990" data-name="Trazado 990" d="M0,0,.086.438a5.733,5.733,0,0,0,4.319,4.52L19.647,9.1l34.886,19.4c5.339,3.124,9.117,1.559,11.173-2.658,1.466-3,2.16-6.691,3.19-9.859,2.781-8.631,5.164-17.53,8.379-26,2.05-5.418,6.252-13.494.972-18.474-5.883-5.546-12.6-.337-15.471,5.3-2.76,5.413-3.885,11.55-4.963,17.479a140.049,140.049,0,0,0-2.25,20.365L23,1.86,17.54-7.286a1.348,1.348,0,0,0-1.421-.651l-.053.014a1.348,1.348,0,0,0-.926,1.882L17.3-1.424,8.29-6.139a5.734,5.734,0,0,0-6.522.852A5.755,5.755,0,0,0,.194-2.875,5.671,5.671,0,0,0,0,0" fill="#f1a387"/>
      </g>
      <g id="Grupo_692" data-name="Grupo 692" transform="translate(131.598 -8.215)">
        <path id="Trazado_991" data-name="Trazado 991" d="M0,0A10.808,10.808,0,0,1-5.374-1.7L-40.208-21.077-55.4-25.211a6.129,6.129,0,0,1-4.613-4.837l-.085-.439a6.118,6.118,0,0,1,.209-3.081,6.185,6.185,0,0,1,1.682-2.586,6.175,6.175,0,0,1,6.993-.913l7.934,4.153-1.648-3.518a1.777,1.777,0,0,1,.019-1.526,1.747,1.747,0,0,1,1.191-.929l.032-.009a1.777,1.777,0,0,1,1.883.841l5.389,9.022L-4.525-16.5A141.831,141.831,0,0,1-2.289-36.349c1.078-5.943,2.194-12.09,5-17.591,1.594-3.133,4.939-7.048,9.1-7.771a7.918,7.918,0,0,1,7.013,2.363c4.863,4.592,2,11.727-.092,16.937-.276.69-.543,1.353-.778,1.98C15.82-34.8,14.024-28.878,12.284-23.155c-.87,2.864-1.771,5.824-2.7,8.7-.336,1.042-.63,2.117-.943,3.256A38.592,38.592,0,0,1,6.374-4.534,7.564,7.564,0,0,1,1.87-.271,6.374,6.374,0,0,1,0,0M-54.052-36.941a5.358,5.358,0,0,0-3.605,1.39,5.342,5.342,0,0,0-1.458,2.242,5.29,5.29,0,0,0-.184,2.668l.084.437A5.334,5.334,0,0,0-55.2-26l15.258,4.15.09.036L-4.97-2.414c2.515,1.47,4.734,1.927,6.6,1.361a6.793,6.793,0,0,0,4-3.841,38.116,38.116,0,0,0,2.212-6.517c.3-1.1.613-2.234.953-3.29.927-2.875,1.829-5.83,2.693-8.691,1.748-5.737,3.547-11.67,5.7-17.33.234-.63.506-1.3.785-1.993,2.114-5.271,4.745-11.828.288-16.038a7.142,7.142,0,0,0-6.306-2.153c-3.873.673-7.011,4.373-8.521,7.337C.691-48.175-.416-42.088-1.484-36.2A140.306,140.306,0,0,0-3.73-15.9a.4.4,0,0,1-.181.329.407.407,0,0,1-.377.039L-36.844-28.323l-.2-.172-5.464-9.143a.948.948,0,0,0-.994-.46l-.024.005a.939.939,0,0,0-.647.5.937.937,0,0,0-.01.817l2.156,4.613a.4.4,0,0,1-.086.47.413.413,0,0,1-.472.067L-51.6-36.341a5.31,5.31,0,0,0-2.454-.6" fill="#2d2e35"/>
      </g>
      <g id="Grupo_693" data-name="Grupo 693" transform="translate(132.102 -18.575)">
        <path id="Trazado_992" data-name="Trazado 992" d="M0,0A.41.41,0,0,1-.378-.259a10.605,10.605,0,0,0-4.45-4.929A.405.405,0,0,1-5-5.739a.407.407,0,0,1,.553-.174A11.278,11.278,0,0,1,.382-.559a.409.409,0,0,1-.232.53Z" fill="#2d2e35"/>
      </g>
      <g id="Grupo_694" data-name="Grupo 694" transform="translate(88.429 -34.274)">
        <path id="Trazado_993" data-name="Trazado 993" d="M0,0A.412.412,0,0,1-.39-.282,7.074,7.074,0,0,1,.438-6.164a.408.408,0,0,1,.569-.1.41.41,0,0,1,.1.569A6.355,6.355,0,0,0,.388-.538a.409.409,0,0,1-.26.515Z" fill="#2d2e35"/>
      </g>
      <g id="Grupo_695" data-name="Grupo 695" transform="translate(120.807 -72.879)">
        <path id="Trazado_994" data-name="Trazado 994" d="M0,0A6.109,6.109,0,0,0,2.687,3.194a97.69,97.69,0,0,1,8.269-8.5l.228-6.343a21.879,21.879,0,0,1-2.553-1.875,12.193,12.193,0,0,1-2.465,2.841C4.214-8.995,1.925-7.624.462-5.5A5.978,5.978,0,0,0,0,0" fill="#2d1d1d"/>
      </g>
      <g id="Grupo_696" data-name="Grupo 696" transform="translate(123.494 -69.278)">
        <path id="Trazado_995" data-name="Trazado 995" d="M0,0-.2-.053a6.539,6.539,0,0,1-2.865-3.4,6.365,6.365,0,0,1,.506-5.885,18.226,18.226,0,0,1,4.011-3.838c.591-.459,1.2-.931,1.76-1.419a11.613,11.613,0,0,0,2.384-2.741.4.4,0,0,1,.285-.192.4.4,0,0,1,.332.092A21.185,21.185,0,0,0,8.715-15.6a.411.411,0,0,1,.192.363L8.681-8.893a.42.42,0,0,1-.159.308A105.056,105.056,0,0,0,.3-.135.419.419,0,0,1,0,0M6.041-16.511a13.072,13.072,0,0,1-2.3,2.537c-.579.5-1.2.982-1.793,1.445A17.422,17.422,0,0,0-1.888-8.871,5.534,5.534,0,0,0-2.306-3.75,5.788,5.788,0,0,0-.078-.934,107.031,107.031,0,0,1,7.869-9.108L8.08-15.03a21.979,21.979,0,0,1-2.039-1.481" fill="#2d2e35"/>
      </g>
      <g id="Grupo_697" data-name="Grupo 697" transform="translate(123.27 -70.19)">
        <path id="Trazado_996" data-name="Trazado 996" d="M0,0A39.756,39.756,0,0,1,4.258-5.6S7.9-9.178,14.9-9.9C11.209-4.518,6.426,1.2,0,0" fill="#2d1d1d"/>
      </g>
    </g>
    <g id="Grupo_704" data-name="Grupo 704" clip-path="url(#clip-path)">
      <g id="Grupo_699" data-name="Grupo 699" transform="translate(124.997 -69.618)">
        <path id="Trazado_998" data-name="Trazado 998" d="M0,0A9.655,9.655,0,0,1-1.8-.169a.407.407,0,0,1-.3-.242A.4.4,0,0,1-2.067-.8,39.387,39.387,0,0,1,2.239-6.459c.161-.157,3.832-3.69,10.888-4.422a.417.417,0,0,1,.394.195.413.413,0,0,1-.013.442C9.989-5.107,5.669,0,0,0M-1.032-.879C4.5-.235,8.8-4.956,12.311-9.957A18.108,18.108,0,0,0,2.82-5.883a36.555,36.555,0,0,0-3.852,5" fill="#2d2e35"/>
      </g>
      <g id="Grupo_700" data-name="Grupo 700" transform="translate(114.749 -37.445)">
        <path id="Trazado_999" data-name="Trazado 999" d="M0,0C-7.062-13.12,1.515-22.121,8.522-32.745c6.425,1.2,11.209-4.518,14.9-9.9a27.529,27.529,0,0,1,10.129.947c4.461,2.934,8.937,14.8,11.378,27.357,2.586,13.3-2.632,25.419-2.262,48.364a41.324,41.324,0,0,0,1.669,7.47,4.129,4.129,0,0,1-2.779,5.178c-9.321,2.8-25.1,3.683-36.8,1.883a4.011,4.011,0,0,1-3.07-5.568c.987-2.266,2.055-4.622,2.425-5.634,1.377-3.779.689-2.187.773-5.725.246-10.555.489-19.361-.933-23.491A49.673,49.673,0,0,0,0,0" fill="#ea45a2"/>
      </g>
      <g id="Grupo_701" data-name="Grupo 701" transform="translate(132.97 12.447)">
        <path id="Trazado_1000" data-name="Trazado 1000" d="M0,0A90.81,90.81,0,0,1-13.526-.937a4.395,4.395,0,0,1-3.206-2.242,4.386,4.386,0,0,1-.182-3.894c.284-.651.573-1.307.853-1.939.673-1.522,1.308-2.962,1.57-3.67.892-2.46.884-2.544.816-3.361a16.207,16.207,0,0,1-.069-2.235l.017-.758c.233-10,.434-18.629-.931-22.593a36.681,36.681,0,0,0-2.977-6.338c-.3-.543-.616-1.112-.949-1.729-6.281-11.674-.4-20.185,5.838-29.194.894-1.291,1.817-2.626,2.706-3.971a.411.411,0,0,1,.415-.179c6.108,1.14,10.75-4.281,14.482-9.731a.421.421,0,0,1,.3-.176,28.029,28.029,0,0,1,10.283.961l.117.05c4.9,3.227,9.336,16.2,11.552,27.621,1.394,7.163.562,13.821-.487,22.246a174.087,174.087,0,0,0-1.764,26.191A41.689,41.689,0,0,0,26.5-8.525a4.454,4.454,0,0,1-.319,3.456,4.545,4.545,0,0,1-2.728,2.238C17.321-.993,8.552,0,0,0M-17.861-50.083c.331.613.644,1.18.944,1.722A37.939,37.939,0,0,1-13.883-41.9c1.414,4.1,1.219,12.39.976,22.88l-.017.759a16.717,16.717,0,0,0,.059,2.144c.088.971.069,1.165-.859,3.712-.27.734-.878,2.117-1.588,3.719-.276.628-.567,1.286-.849,1.936a3.569,3.569,0,0,0,.144,3.173A3.593,3.593,0,0,0-13.4-1.746C-1.953.017,13.79-.788,23.215-3.617a3.733,3.733,0,0,0,2.242-1.837,3.666,3.666,0,0,0,.264-2.828,40.864,40.864,0,0,1-1.686-7.583,175.336,175.336,0,0,1,1.77-26.3c1.043-8.355,1.869-14.952.5-21.987-2.614-13.468-7.089-24.32-11.148-27.059a27.28,27.28,0,0,0-9.73-.935c-3.5,5.083-7.785,10.086-13.4,10.086a9.91,9.91,0,0,1-1.534-.122c-.846,1.276-1.719,2.54-2.567,3.763-6.085,8.8-11.834,17.106-5.787,28.341" fill="#2d2e35"/>
      </g>
      <g id="Grupo_702" data-name="Grupo 702" transform="translate(162.374 -75.916)">
        <path id="Trazado_1001" data-name="Trazado 1001" d="M0,0C.494,1.76.636,3.5-.468,5.02A8.339,8.339,0,0,0,3.494,2.251c2.4-3.118,2.2-5.234-.95-7.6C-.189-7.4,1.67-9.947.973-10.609a6.017,6.017,0,0,0-2.21,1.573,4.9,4.9,0,0,0-.481,3.8C-1.395-3.592-.514-1.787,0,0Z" fill="#af754d"/>
      </g>
      <g id="Grupo_703" data-name="Grupo 703" transform="translate(161.906 -70.484)">
        <path id="Trazado_1002" data-name="Trazado 1002" d="M0,0A.409.409,0,0,1-.329-.169a.413.413,0,0,1,0-.483C.524-1.833.65-3.274.073-5.32L.065-5.348c-.208-.728-.489-1.472-.753-2.2a20.3,20.3,0,0,1-.961-3.046A5.163,5.163,0,0,1-1.1-14.7,5.079,5.079,0,0,1,.817-16.171c.143-.075.288-.149.425-.225a.413.413,0,0,1,.483.059c.385.368.313.926.229,1.575A3.361,3.361,0,0,0,3.259-11.1C4.931-9.85,5.791-8.666,5.966-7.375c.177,1.312-.355,2.724-1.68,4.445A8.723,8.723,0,0,1,.13-.024ZM.868-5.516A6.712,6.712,0,0,1,.912-1.228a7.7,7.7,0,0,0,2.727-2.2C4.822-4.966,5.306-6.183,5.155-7.264c-.144-1.06-.9-2.073-2.389-3.187a4.2,4.2,0,0,1-1.625-4.416c.023-.174.054-.4.059-.58A4.332,4.332,0,0,0-.434-14.229a4.419,4.419,0,0,0-.413,3.482A19.386,19.386,0,0,0,.079-7.825c.277.744.559,1.512.779,2.278Z" fill="#2d2e35"/>
      </g>
    </g>
    <g id="Grupo_717" data-name="Grupo 717" clip-path="url(#clip-path)">
      <g id="Grupo_705" data-name="Grupo 705" transform="translate(141.464 -86.207)">
        <path id="Trazado_1004" data-name="Trazado 1004" d="M0,0,.433,11.933c0,.071-.045,2.086-5.128,2.086S-9.822,12-9.822,11.933L-9.394,0Z" fill="#f1a387"/>
      </g>
      <g id="Grupo_706" data-name="Grupo 706" transform="translate(136.769 -71.778)">
        <path id="Trazado_1005" data-name="Trazado 1005" d="M0,0C-5.38,0-5.535-2.24-5.535-2.5L-5.1-14.443a.4.4,0,0,1,.405-.391H4.7a.409.409,0,0,1,.409.391L5.536-2.509l0,.013C5.532-2.24,5.381,0,0,0M-4.722-2.479S-4.6-.816,0-.816C4.49-.816,4.71-2.4,4.719-2.5L4.3-14.019H-4.3Z" fill="#2d2e35"/>
      </g>
      <g id="Grupo_707" data-name="Grupo 707" transform="translate(132.393 -83.815)">
        <path id="Trazado_1006" data-name="Trazado 1006" d="M0,0-.128,3.519A29.908,29.908,0,0,1,2.444,1.362L2.6,1.243A6.239,6.239,0,0,1,1.622.868Q.791.464,0,0" fill="#f27763"/>
      </g>
      <g id="Grupo_708" data-name="Grupo 708" transform="translate(131.993 -84.055)">
        <path id="Trazado_1007" data-name="Trazado 1007" d="M0,0-.15,4.187q.207-.219.423-.429L.4.24C.266.161.132.081,0,0" fill="#2d2e35"/>
      </g>
      <g id="Grupo_709" data-name="Grupo 709" transform="translate(144.28 -86.575)">
        <path id="Trazado_1008" data-name="Trazado 1008" d="M0,0-.013.019A22.564,22.564,0,0,1-4.938,3.26a5.893,5.893,0,0,1-2.576.59,5.865,5.865,0,0,1-2.571-.59A21.983,21.983,0,0,1-18.9-4.41a20.468,20.468,0,0,1-2.278-4.626,19.9,19.9,0,0,1-1-4.5,18.665,18.665,0,0,1-.119-2.121V-22.61c0-3.461-.767-5.458-1.548-8.234a20.067,20.067,0,0,1-.667-3.593,9.56,9.56,0,0,1,.86-5.392,13.552,13.552,0,0,0,1.617,1.786c2.523,2.331,6.945,4.714,14.486,4.714,0,0,5.161-1.108,5.469,2.426v11.681A2.888,2.888,0,0,0,.286-19.8s.5,8.683,3.339,10.2C6.688-7.979.354-.418,0,0" fill="#f1a387"/>
      </g>
      <g id="Grupo_710" data-name="Grupo 710" transform="translate(136.766 -82.317)">
        <path id="Trazado_1009" data-name="Trazado 1009" d="M0,0A6.32,6.32,0,0,1-2.751-.63a22.418,22.418,0,0,1-8.973-7.811,20.989,20.989,0,0,1-2.324-4.721,20.394,20.394,0,0,1-1.028-4.588,19.23,19.23,0,0,1-.118-2.163v-6.954a21.973,21.973,0,0,0-1.175-6.9c-.116-.394-.234-.8-.351-1.228a20.124,20.124,0,0,1-.687-3.665,9.761,9.761,0,0,1,.913-5.629.4.4,0,0,1,.328-.209.393.393,0,0,1,.354.162,13.115,13.115,0,0,0,1.57,1.733c2.271,2.1,6.57,4.595,14.169,4.606.4-.079,3.139-.568,4.759.629a2.888,2.888,0,0,1,1.156,2.172v11.36a2.517,2.517,0,0,0,1.7-.546.411.411,0,0,1,.422-.053.41.41,0,0,1,.243.349c.136,2.353.958,8.706,3.121,9.858a1.893,1.893,0,0,1,1.006,1.367c.535,2.8-3.951,8.2-4.5,8.856L7.8-3.966A22.8,22.8,0,0,1,2.754-.63,6.345,6.345,0,0,1,0,0M-16.055-43.322a9.731,9.731,0,0,0-.537,4.594,19.82,19.82,0,0,0,.656,3.518c.118.421.237.823.352,1.216a22.63,22.63,0,0,1,1.21,7.127v6.954a18.868,18.868,0,0,0,.11,2.073,19.722,19.722,0,0,0,.988,4.413A20.269,20.269,0,0,0-11.04-8.891,21.6,21.6,0,0,0-2.393-1.366a5.6,5.6,0,0,0,4.791,0A21.981,21.981,0,0,0,7.2-4.521c1.665-1.965,4.708-6.2,4.331-8.182a1.089,1.089,0,0,0-.587-.8c-2.551-1.359-3.316-7.718-3.5-9.846a3.348,3.348,0,0,1-2.116.268.412.412,0,0,1-.3-.4V-35.16A2.058,2.058,0,0,0,4.2-36.707C2.788-37.753.08-37.192.051-37.186l-.085.01C-7.923-37.176-12.416-39.8-14.8-42a13.942,13.942,0,0,1-1.26-1.322M7.5-4.238H7.5Z" fill="#2d2e35"/>
      </g>
      <g id="Grupo_711" data-name="Grupo 711" transform="translate(126.764 -109.287)">
        <path id="Trazado_1010" data-name="Trazado 1010" d="M0,0A1.023,1.023,0,0,1-1.022-1.023V-4.617A1.023,1.023,0,0,1,0-5.64,1.023,1.023,0,0,1,1.025-4.617v3.594A1.023,1.023,0,0,1,0,0" fill="#2d2e35"/>
      </g>
      <g id="Grupo_712" data-name="Grupo 712" transform="translate(122.103 -100.11)">
        <path id="Trazado_1011" data-name="Trazado 1011" d="M0,0C-6.544-.006-.118-9.074-.118-9.074V-2.12A18.881,18.881,0,0,0,0,0" fill="#f1a387"/>
      </g>
      <g id="Grupo_713" data-name="Grupo 713" transform="translate(122.099 -99.702)">
        <path id="Trazado_1012" data-name="Trazado 1012" d="M0,0H0C-1.535,0-2.559-.479-3.045-1.418c-1.372-2.654,2.434-8.071,2.6-8.3A.414.414,0,0,1,.01-9.874a.41.41,0,0,1,.282.391v6.954A18.851,18.851,0,0,0,.4-.456a.389.389,0,0,1-.1.319A.4.4,0,0,1,0,0M-.527-8.1C-1.649-6.233-3.079-3.267-2.316-1.794A2.1,2.1,0,0,0-.455-.836C-.5-1.385-.527-1.955-.527-2.529Z" fill="#2d2e35"/>
      </g>
      <g id="Grupo_714" data-name="Grupo 714" transform="translate(131.017 -96.806)">
        <path id="Trazado_1013" data-name="Trazado 1013" d="M0,0A.411.411,0,0,1-.3-.134.407.407,0,0,1-.272-.711l.1-.07A5.111,5.111,0,0,0,1.281-1.8a.412.412,0,0,1,.578,0,.41.41,0,0,1,0,.581A5.987,5.987,0,0,1,.189-.043Z" fill="#2d2e35"/>
      </g>
      <g id="Grupo_715" data-name="Grupo 715" transform="translate(131.017 -97.211)">
        <path id="Trazado_1014" data-name="Trazado 1014" d="M0,0A5.339,5.339,0,0,0-1.132,2.222,3.677,3.677,0,0,1-3.934,4.9,22.89,22.89,0,0,1-6.3,5.151,19.611,19.611,0,0,1-8.235.524h5.879A5.634,5.634,0,0,0,0,0" fill="#e9eae9"/>
      </g>
      <g id="Grupo_716" data-name="Grupo 716" transform="translate(124.721 -91.649)">
        <path id="Trazado_1015" data-name="Trazado 1015" d="M0,0A.407.407,0,0,1-.34-.185,15.854,15.854,0,0,1-2.059-4.116c-.089-.261-.175-.524-.267-.788a.408.408,0,0,1,.054-.372.4.4,0,0,1,.334-.171H3.941a5.234,5.234,0,0,0,2.188-.486.408.408,0,0,1,.513.145.411.411,0,0,1-.062.523A4.994,4.994,0,0,0,5.56-3.236,4.079,4.079,0,0,1,2.444-.262C1.76-.129.529-.037.027,0ZM-1.37-4.629l.086.253A16.059,16.059,0,0,0,.216-.835c.9-.068,1.665-.152,2.069-.232A3.241,3.241,0,0,0,4.767-3.448a6.9,6.9,0,0,1,.512-1.334,5.843,5.843,0,0,1-1.338.153Z" fill="#2d2e35"/>
      </g>
    </g>
    <g id="Grupo_725" data-name="Grupo 725" clip-path="url(#clip-path)">
      <g id="Grupo_718" data-name="Grupo 718" transform="translate(130.195 -116.885)">
        <path id="Trazado_1017" data-name="Trazado 1017" d="M0,0-.229-.071a5.983,5.983,0,0,0-6.4,0A.41.41,0,0,1-7.2-.178a.408.408,0,0,1,.109-.568c.037-.025,3.7-2.456,7.321,0a.407.407,0,0,1,.109.568A.4.4,0,0,1,0,0" fill="#2d2e35"/>
      </g>
      <g id="Grupo_719" data-name="Grupo 719" transform="translate(160.963 -81.822)">
        <path id="Trazado_1018" data-name="Trazado 1018" d="M0,0Q.038.285.1.591a20.065,20.065,0,0,0,.924,2.921c.278.744.563,1.513.781,2.278l.008.021a6.749,6.749,0,0,1,.049,4.3,7.7,7.7,0,0,0,2.722-2.2c.12-.156.232-.308.338-.457A5.987,5.987,0,0,0,6.1,4.842V4.088A4.905,4.905,0,0,0,3.924,1.055c-.079,0-.158,0-.239,0A5.635,5.635,0,0,1,0,0" fill="#8e644a"/>
      </g>
      <g id="Grupo_720" data-name="Grupo 720" transform="translate(165.882 -74.37)">
        <path id="Trazado_1019" data-name="Trazado 1019" d="M0,0C-.1.149-.218.3-.337.457-.218.3-.1.149,0,0" fill="#2d2e35"/>
      </g>
      <g id="Grupo_721" data-name="Grupo 721" transform="translate(167.061 -76.979)">
        <path id="Trazado_1020" data-name="Trazado 1020" d="M0,0A5.987,5.987,0,0,1-1.179,2.61,6,6,0,0,0,0,.02ZM-6.133-6.162A6.01,6.01,0,0,0-6.1-4.842,5.635,5.635,0,0,0-2.413-3.785c.081,0,.161,0,.239,0A4.9,4.9,0,0,1,0-.754V-.768C-.144-1.829-.9-2.842-2.39-3.956a5.009,5.009,0,0,1-.74-.674,3.378,3.378,0,0,1-3-1.532" fill="#8e644a"/>
      </g>
      <g id="Grupo_722" data-name="Grupo 722" transform="translate(167.061 -76.959)">
        <path id="Trazado_1021" data-name="Trazado 1021" d="M0,0A6.01,6.01,0,0,1-1.179,2.59q-.158.224-.338.456a7.674,7.674,0,0,1-2.722,2.2A4.719,4.719,0,0,1-4.819,6.3c-.024.033-.049.067-.075.1A8.693,8.693,0,0,0-.87,3.545,12.148,12.148,0,0,0,0,2.27ZM-3.13-4.65a5.065,5.065,0,0,0,.74.674C-.9-2.862-.144-1.849,0-.789V-2.8A8.859,8.859,0,0,0-1.79-4.545a.438.438,0,0,0-.258-.082c-.109,0-.215,0-.319,0-.269,0-.523-.01-.763-.027" fill="#2d2e35"/>
      </g>
      <g id="Grupo_723" data-name="Grupo 723" transform="translate(177.025 -26.742)">
        <path id="Trazado_1022" data-name="Trazado 1022" d="M0,0-1.338,4.781l1.332.374L-23.188,87.936a2.941,2.941,0,0,1-3.623,2.036l-13.345-3.739a2.936,2.936,0,0,1-2.035-3.62L-19.008-.167l1.331.374,1.338-4.781-1.331-.375,6.614-23.61A2.934,2.934,0,0,1-7.439-30.6l13.348,3.74a2.932,2.932,0,0,1,2.038,3.619L1.332.375Z" fill="#41484e"/>
      </g>
      <g id="Grupo_724" data-name="Grupo 724" transform="translate(151.012 63.749)">
        <path id="Trazado_1023" data-name="Trazado 1023" d="M0,0A3.361,3.361,0,0,1-.906-.125L-14.254-3.864a3.315,3.315,0,0,1-2.014-1.583,3.328,3.328,0,0,1-.3-2.54L6.611-90.77a.411.411,0,0,1,.2-.247.419.419,0,0,1,.311-.037l.937.263,1.118-3.99-.94-.264a.411.411,0,0,1-.283-.506l6.615-23.61a3.346,3.346,0,0,1,4.122-2.319l13.35,3.738a3.356,3.356,0,0,1,2.32,4.125l-6.615,23.61a.417.417,0,0,1-.193.248.44.44,0,0,1-.313.037l-.937-.263-1.116,3.991.939.264a.408.408,0,0,1,.244.191.412.412,0,0,1,.038.313L3.22-2.445A3.33,3.33,0,0,1,1.639-.432,3.322,3.322,0,0,1,0,0M7.288-90.156-15.783-7.767a2.51,2.51,0,0,0,.229,1.92,2.5,2.5,0,0,0,1.521,1.2L-.684-.914a2.508,2.508,0,0,0,1.921-.231A2.523,2.523,0,0,0,2.431-2.666L25.5-85.052l-.937-.263a.422.422,0,0,1-.245-.193.406.406,0,0,1-.038-.312L25.62-90.6a.408.408,0,0,1,.195-.247.434.434,0,0,1,.311-.038l.937.263,6.5-23.216a2.532,2.532,0,0,0-1.753-3.116l-13.346-3.737a2.528,2.528,0,0,0-3.113,1.752l-6.5,23.216.938.263a.41.41,0,0,1,.283.5L8.73-90.176a.406.406,0,0,1-.191.249.43.43,0,0,1-.313.034Z" fill="#2d2e35"/>
      </g>
    </g>
    <g id="Grupo_726" data-name="Grupo 726" transform="translate(161.351 -38.817)">
      <path id="Trazado_1025" data-name="Trazado 1025" d="M0,0,5,1.4V-3.754L1.338-4.78Z" fill="#ba3130"/>
    </g>
    <g id="Grupo_728" data-name="Grupo 728" clip-path="url(#clip-path)">
      <g id="Grupo_727" data-name="Grupo 727" transform="translate(180.357 -33.083)">
        <path id="Trazado_1026" data-name="Trazado 1026" d="M0,0-.11-.016-19.118-5.339a.406.406,0,0,1-.281-.5l1.338-4.781a.4.4,0,0,1,.191-.247.432.432,0,0,1,.311-.038L1.449-5.584A.424.424,0,0,1,1.7-5.39a.436.436,0,0,1,.039.31L.394-.3A.413.413,0,0,1,0,0M-18.5-6.017-.285-.915.833-4.906l-18.217-5.1Z" fill="#2d2e35"/>
      </g>
    </g>
    <g id="Grupo_729" data-name="Grupo 729" transform="translate(157.273 -24.25)">
      <path id="Trazado_1028" data-name="Trazado 1028" d="M0,0,9.08,2.544V-.324L.744-2.659Z" fill="#708282"/>
    </g>
    <g id="Grupo_731" data-name="Grupo 731" clip-path="url(#clip-path)">
      <g id="Grupo_730" data-name="Grupo 730" transform="translate(176.274 -18.518)">
        <path id="Trazado_1029" data-name="Trazado 1029" d="M0,0-.111-.014l-19-5.324a.408.408,0,0,1-.282-.5l.744-2.662a.414.414,0,0,1,.195-.247.422.422,0,0,1,.312-.037l19,5.324a.41.41,0,0,1,.282.5L.4-.3A.416.416,0,0,1,.2-.052ZM-18.5-6.016-.282-.913.244-2.786l-18.218-5.1Z" fill="#2d2e35"/>
      </g>
    </g>
    <g id="Grupo_732" data-name="Grupo 732" transform="translate(159.367 -31.736)">
      <path id="Trazado_1031" data-name="Trazado 1031" d="M0,0,6.986,1.956V-.913L.745-2.661Z" fill="#708282"/>
    </g>
    <g id="Grupo_739" data-name="Grupo 739" clip-path="url(#clip-path)">
      <g id="Grupo_733" data-name="Grupo 733" transform="translate(178.371 -26.004)">
        <path id="Trazado_1032" data-name="Trazado 1032" d="M0,0-.111-.016l-19-5.321a.412.412,0,0,1-.284-.5L-18.65-8.5a.407.407,0,0,1,.195-.248.42.42,0,0,1,.31-.036l19,5.321a.412.412,0,0,1,.281.506L.4-.3A.417.417,0,0,1,.2-.053ZM-18.5-6.015l18.22,5.1L.243-2.787l-18.217-5.1Z" fill="#2d2e35"/>
      </g>
      <g id="Grupo_734" data-name="Grupo 734" transform="translate(184.544 -48.043)">
        <path id="Trazado_1033" data-name="Trazado 1033" d="M0,0-.113-.015l-19-5.321a.412.412,0,0,1-.283-.506.409.409,0,0,1,.5-.283L.111-.8a.41.41,0,0,1,.283.5A.41.41,0,0,1,0,0" fill="#2d2e35"/>
      </g>
      <g id="Grupo_735" data-name="Grupo 735" transform="translate(152.093 53.184)">
        <path id="Trazado_1034" data-name="Trazado 1034" d="M0,0-.108-.015a.412.412,0,0,1-.286-.5L19.988-73.284a.407.407,0,0,1,.5-.285.407.407,0,0,1,.284.5L.4-.3A.412.412,0,0,1,0,0" fill="#2d2e35"/>
      </g>
      <g id="Grupo_736" data-name="Grupo 736" transform="translate(148.294 52.118)">
        <path id="Trazado_1035" data-name="Trazado 1035" d="M0,0-.111-.013A.412.412,0,0,1-.394-.52l20.38-72.763a.406.406,0,0,1,.5-.285.408.408,0,0,1,.283.5L.4-.3A.408.408,0,0,1,0,0" fill="#2d2e35"/>
      </g>
      <g id="Grupo_737" data-name="Grupo 737" transform="translate(144.494 51.055)">
        <path id="Trazado_1036" data-name="Trazado 1036" d="M0,0-.11-.014A.41.41,0,0,1-.394-.52L19.985-73.285a.406.406,0,0,1,.5-.284.413.413,0,0,1,.289.506L.392-.3A.407.407,0,0,1,0,0" fill="#2d2e35"/>
      </g>
      <g id="Grupo_738" data-name="Grupo 738" transform="translate(140.693 49.992)">
        <path id="Trazado_1037" data-name="Trazado 1037" d="M0,0-.111-.016A.412.412,0,0,1-.4-.52L19.983-73.287a.417.417,0,0,1,.506-.286.411.411,0,0,1,.284.507L.4-.3A.411.411,0,0,1,0,0" fill="#2d2e35"/>
      </g>
    </g>
    <g id="Grupo_742" data-name="Grupo 742" clip-path="url(#clip-path)">
      <g id="Grupo_740" data-name="Grupo 740" transform="translate(158.752 -44.935)">
        <path id="Trazado_1039" data-name="Trazado 1039" d="M0,0-1.464,5.218l4,1.123-.51,1.81L-2.876,6.777a.946.946,0,0,1-.654-1.16l1.969-7.031A.941.941,0,0,1-.4-2.067L4.506-.692,4,1.118Z" fill="#c2c9c6"/>
      </g>
      <g id="Grupo_741" data-name="Grupo 741" transform="translate(160.782 -36.373)">
        <path id="Trazado_1040" data-name="Trazado 1040" d="M0,0-.108-.017-5.017-1.391a1.338,1.338,0,0,1-.812-.639,1.356,1.356,0,0,1-.124-1.024l1.967-7.032a1.352,1.352,0,0,1,.641-.814,1.341,1.341,0,0,1,1.025-.124L2.588-9.648a.41.41,0,0,1,.284.5l-.51,1.813a.4.4,0,0,1-.192.247.413.413,0,0,1-.308.035L-1.747-8.06l-1.24,4.433,3.6,1.011a.409.409,0,0,1,.285.5L.394-.3A.429.429,0,0,1,.2-.053ZM-2.683-10.255a.526.526,0,0,0-.26.068.546.546,0,0,0-.254.319L-5.166-2.835a.53.53,0,0,0,.052.4.516.516,0,0,0,.316.253L-.283-.914,0-1.939l-3.607-1.01a.41.41,0,0,1-.282-.506l1.462-5.219a.407.407,0,0,1,.5-.284l3.609,1.01L1.972-8.97-2.54-10.235Z" fill="#2d2e35"/>
      </g>
    </g>
    <g id="Grupo_743" data-name="Grupo 743" transform="translate(142.438 -66.406)">
      <path id="Trazado_1042" data-name="Trazado 1042" d="M0,0,16.315,21.471l-1.464,5.217L-3.491,2.36Z" fill="#41484e"/>
    </g>
    <g id="Grupo_745" data-name="Grupo 745" clip-path="url(#clip-path)">
      <g id="Grupo_744" data-name="Grupo 744" transform="translate(157.289 -39.307)">
        <path id="Trazado_1043" data-name="Trazado 1043" d="M0,0A.4.4,0,0,1-.327-.165L-18.665-24.493a.393.393,0,0,1-.079-.314.421.421,0,0,1,.172-.272l3.492-2.36a.416.416,0,0,1,.558.09L1.787-5.876a.4.4,0,0,1,.067.357L.394-.3a.408.408,0,0,1-.317.292ZM-17.756-24.641-.173-1.317,1.014-5.544l-15.954-21Z" fill="#2d2e35"/>
      </g>
    </g>
    <g id="Grupo_746" data-name="Grupo 746" transform="translate(129.347)">
      <path id="Trazado_1045" data-name="Trazado 1045" d="M0,0H4.593L3.067-36.783l-4.642-1.76Z" fill="#41484e"/>
    </g>
    <g id="Grupo_750" data-name="Grupo 750" clip-path="url(#clip-path)">
      <g id="Grupo_747" data-name="Grupo 747" transform="translate(131.488 52.806)">
        <path id="Trazado_1046" data-name="Trazado 1046" d="M0,0-.157-.031a.408.408,0,0,1-.25-.362l-3.717-90.94a.407.407,0,0,1,.168-.351.415.415,0,0,1,.384-.051l4.64,1.763a.41.41,0,0,1,.265.365l3.52,84.8a.411.411,0,0,1-.1.277L3.443-2.961l-.04.042L.273-.1A.411.411,0,0,1,0,0M-3.282-90.751.376-1.3,2.834-3.509,4.027-4.936.527-89.3Z" fill="#2d2e35"/>
      </g>
      <g id="Grupo_748" data-name="Grupo 748" transform="translate(143.738 -39.717)">
        <path id="Trazado_1047" data-name="Trazado 1047" d="M0,0-5.671,25.405a112.079,112.079,0,0,1-6.21,19.35l-11.751,27.69L-25.347,87.71a5.924,5.924,0,0,1-3.993,5.071l-.441.147a5.827,5.827,0,0,1-2.964.21,5.854,5.854,0,0,1-2.692-1.252,5.92,5.92,0,0,1-1.811-6.545l3.517-9.89-4.411,2.881a1.389,1.389,0,0,1-2.053-.679l-.023-.051a1.4,1.4,0,0,1,.463-1.544l9.894-6.354,8.826-36.366L-14.3-7.322Z" fill="#f1a387"/>
      </g>
      <g id="Grupo_749" data-name="Grupo 749" transform="translate(112.078 53.929)">
        <path id="Trazado_1048" data-name="Trazado 1048" d="M0,0A6.528,6.528,0,0,1-1.159-.1a6.333,6.333,0,0,1-2.879-1.34,6.347,6.347,0,0,1-1.935-7l3.11-8.747-3.4,2.216a1.8,1.8,0,0,1-1.545.2,1.781,1.781,0,0,1-1.111-1.073l-.016-.029a1.824,1.824,0,0,1,.583-2.034L1.441-24.2,10.225-60.4l6.733-40.633a.4.4,0,0,1,.219-.3.406.406,0,0,1,.37,0l14.3,7.322a.413.413,0,0,1,.216.456l-5.675,25.4a112.351,112.351,0,0,1-6.232,19.424L8.428-21.1,6.714-5.893A6.328,6.328,0,0,1,2.454-.479l-.449.147A6.124,6.124,0,0,1,0,0M-2.071-18.606l.252.088a.41.41,0,0,1,.131.458L-5.2-8.168a5.53,5.53,0,0,0,1.689,6.1,5.449,5.449,0,0,0,2.5,1.161,5.451,5.451,0,0,0,2.761-.194l.444-.149A5.518,5.518,0,0,0,5.9-5.974L7.622-21.248l.031-.115L19.4-49.05a111.741,111.741,0,0,0,6.186-19.282l5.6-25.1-13.518-6.921L11.025-60.242,2.2-23.844a.406.406,0,0,1-.177.248l-9.893,6.351a.989.989,0,0,0-.3,1.07l.01.014a.983.983,0,0,0,.619.608.963.963,0,0,0,.837-.106L-2.3-18.538Z" fill="#2d2e35"/>
      </g>
    </g>
    <g id="Grupo_761" data-name="Grupo 761" clip-path="url(#clip-path)">
      <g id="Grupo_751" data-name="Grupo 751" transform="translate(148.552 -49.301)">
        <path id="Trazado_1050" data-name="Trazado 1050" d="M0,0A27.63,27.63,0,0,1-3.129,8.391,34.873,34.873,0,0,0-5.04,12.479L-6.318,18.2A65.116,65.116,0,0,1-7.779,24.8c-.037.146-.074.293-.11.44l-.4,1.8c1.872-3.411,5.054-7.891,8.085-8.06a1.378,1.378,0,0,0,1.1-.685C2.9,15.305.978,4.53,0,0" fill="#ba3e85"/>
      </g>
      <g id="Grupo_752" data-name="Grupo 752" transform="translate(140.663 -24.065)">
        <path id="Trazado_1051" data-name="Trazado 1051" d="M0,0C-.165.658-.331,1.317-.483,1.948L-.4,1.8ZM2.849-12.757A22.394,22.394,0,0,0,1.576-7.083c0,.016,0,.033,0,.051Z" fill="#2d2e35"/>
      </g>
      <g id="Grupo_753" data-name="Grupo 753" transform="translate(142.234 -31.098)">
        <path id="Trazado_1052" data-name="Trazado 1052" d="M0,0-1.571,7.032c.037-.147.074-.293.11-.439A64.9,64.9,0,0,0,0,0M5.794-20.225A26.011,26.011,0,0,1,2.461-10.19c-.221.424-.444.85-.663,1.286a.412.412,0,0,1,.107.376l-.626,2.8A34.712,34.712,0,0,1,3.19-9.812,27.615,27.615,0,0,0,6.318-18.2C7.3-13.674,9.223-2.9,7.211.088a1.376,1.376,0,0,1-1.1.685C3.08.942-.1,5.423-1.973,8.834L-2.8,12.55A28.339,28.339,0,0,1,.317,6.662C2.454,3.484,4.53,1.683,6.154,1.59A2.242,2.242,0,0,0,8.023.329c2-3.5.089-14.281-.921-18.82Z" fill="#ba3e85"/>
      </g>
      <g id="Grupo_754" data-name="Grupo 754" transform="translate(148.766 -51.7)">
        <path id="Trazado_1053" data-name="Trazado 1053" d="M0,0,.027.036A.307.307,0,0,0,0,0" fill="#3d4148"/>
      </g>
      <g id="Grupo_755" data-name="Grupo 755" transform="translate(148.452 -51.846)">
        <path id="Trazado_1054" data-name="Trazado 1054" d="M0,0A.364.364,0,0,0-.074.007.415.415,0,0,0-.405.363C-.411.417-.418.47-.424.523L.883,2.257A19.17,19.17,0,0,0,.365.223.35.35,0,0,0,.341.181L.313.145A.41.41,0,0,0,0,0" fill="#2d2e35"/>
      </g>
      <g id="Grupo_756" data-name="Grupo 756" transform="translate(139.84 -24.143)">
        <path id="Trazado_1055" data-name="Trazado 1055" d="M0,0C-.565,2.247-1.079,4.321-1.234,5.529ZM2.872-12.859A23.417,23.417,0,0,0,1.59-7.118Z" fill="#bd8472"/>
      </g>
      <g id="Grupo_757" data-name="Grupo 757" transform="translate(144.032 -40.002)">
        <path id="Trazado_1056" data-name="Trazado 1056" d="M0,0A27.694,27.694,0,0,0-1.32,3L-2.6,8.741l0,.029A65.149,65.149,0,0,1-4.05,15.3c-.048.189-.095.377-.142.562l-1.234,5.529,0,.026a.407.407,0,0,0,.341.456l.063.006a.409.409,0,0,0,.4-.33.845.845,0,0,1,.022-.091l.83-3.717-.081.147c.152-.631.318-1.29.483-1.948L-1.8,8.9c0-.017,0-.034,0-.05A22.381,22.381,0,0,1-.519,3.18L.107.376A.412.412,0,0,0,0,0" fill="#2d2e35"/>
      </g>
      <g id="Grupo_758" data-name="Grupo 758" transform="translate(125.778 -45.009)">
        <path id="Trazado_1057" data-name="Trazado 1057" d="M0,0C-.312,2.95-.35,4.978-.35,4.978A15.83,15.83,0,0,0,3.643,7.231,27.621,27.621,0,0,0,17.784,8.824c.745-.093,1.506-.213,2.3-.363,0,0,.711-2.391,1.388-5.835A47.09,47.09,0,0,1,0,0" fill="#dee0de"/>
      </g>
      <g id="Grupo_759" data-name="Grupo 759" transform="translate(139.422 -35.507)">
        <path id="Trazado_1058" data-name="Trazado 1058" d="M0,0A26.538,26.538,0,0,1-10.158-1.895a16.066,16.066,0,0,1-4.1-2.321.385.385,0,0,1-.141-.315c0-.022.041-2.079.352-5.015a.386.386,0,0,1,.185-.3.4.4,0,0,1,.354-.043A46.136,46.136,0,0,0,7.771-7.284a.407.407,0,0,1,.35.128.4.4,0,0,1,.1.358C7.551-3.371,6.833-.95,6.827-.927a.415.415,0,0,1-.314.287c-.745.141-1.5.263-2.322.371A33.524,33.524,0,0,1,0,0M-13.58-4.718A16.7,16.7,0,0,0-9.848-2.649,27.355,27.355,0,0,0,4.09-1.082c.707-.09,1.37-.195,2.022-.316.182-.637.69-2.508,1.2-5A46.971,46.971,0,0,1-13.293-8.95c-.208,2.12-.269,3.695-.287,4.232" fill="#2d2e35"/>
      </g>
      <g id="Grupo_760" data-name="Grupo 760" transform="translate(147.247 -42.383)">
        <path id="Trazado_1059" data-name="Trazado 1059" d="M0,0C1.672-8.5,3.142-23.457-6.729-25.024c-10.763-1.711-13.859,14.05-14.74,22.4A47.09,47.09,0,0,0,0,0" fill="#ea45a2"/>
      </g>
    </g>
    <g id="Grupo_765" data-name="Grupo 765" clip-path="url(#clip-path)">
      <g id="Grupo_762" data-name="Grupo 762" transform="translate(142.065 -41.645)">
        <path id="Trazado_1061" data-name="Trazado 1061" d="M0,0A50.024,50.024,0,0,1-16.42-2.978a.407.407,0,0,1-.273-.431c.633-6.018,2.535-16.751,8.108-21.022a8.935,8.935,0,0,1,7.1-1.736,8.307,8.307,0,0,1,5.717,3.541C7.888-17.392,6.985-7.793,5.582-.66a.414.414,0,0,1-.351.326A40.774,40.774,0,0,1,0,0M5.181-.74h0ZM-15.848-3.647A46.084,46.084,0,0,0,4.833-1.11c1.115-5.766,2.345-15.874-1.27-21.047a7.509,7.509,0,0,0-5.174-3.2,8.166,8.166,0,0,0-6.475,1.577c-5.237,4.012-7.1,14.193-7.762,20.134" fill="#2d2e35"/>
      </g>
      <g id="Grupo_763" data-name="Grupo 763" transform="translate(113.144 -125.033)">
        <path id="Trazado_1062" data-name="Trazado 1062" d="M0,0A11.225,11.225,0,0,0,2.946,2.558,8.778,8.778,0,0,0,6.625,4.021a12.765,12.765,0,0,1,.863-5.392C9.7,3.1,17.5,4.943,20.24,4.96s5.012,4.314,2.279,10.164a6.6,6.6,0,0,0,2.394,8.791c-.3-.248-2.315-2.1-.344-6.969,2.132-5.242,1.9-6.688,1.291-9.724s3.2.333,3.2.333V19.236c1.29,1.195.5,3.566-.61,4.928s-2.627,2.572-2.927,4.305c-.377,2.189,1.352,4.191,1.6,6.4.285,2.563-1.46,4.916-3.409,6.6s-4.238,3.058-5.7,5.178a5.975,5.975,0,0,0-.462,5.5c1.937,4.933,7.512,4.573,11.849,3.661l.566-.123c.6-.136,1.194-.278,1.791-.414a31,31,0,0,1,5.03-.867c2.129-.146,4.01.794,6.064,1.273,1.912.441,4.18.373,5.515-1.062a4.5,4.5,0,0,0,.393-.486c1.1-1.522.961-3.259.468-5.023-.514-1.783-1.4-3.589-1.718-5.235a4.9,4.9,0,0,1,.481-3.8,6.018,6.018,0,0,1,2.21-1.572,4.982,4.982,0,0,0,.919-.637,3.61,3.61,0,0,0,.5-5.147A15.38,15.38,0,0,1,49.761,30.2a2.9,2.9,0,0,1-.4-1.779l.014-.1c.229-1.117.99-2.01,1.122-3.21a5.435,5.435,0,0,0-1.472-4.629c-1.05-1.05-.969-2.549-1.4-3.866-.464-1.433,1.08-4.033.614-5.486-.694-2.174-2.531-2.785-2.548-4.976a29.979,29.979,0,0,0-1.177-7.393c-1.4-5.21-4.3-10.072-9.135-12.73-3.489-1.917-7.35-2.365-11.267-2.365-.88,0-1.706.037-2.484.1-7.224.578-10.182,3.569-10.182,3.569s-2.173-4.74-8.733-3.215C-4.193-14.28-3.539-4.39,0,0" fill="#2d1d1d"/>
      </g>
      <g id="Grupo_764" data-name="Grupo 764" transform="translate(137.97 -68.239)">
        <path id="Trazado_1063" data-name="Trazado 1063" d="M0,0C-2.933,0-6.231-.863-7.653-4.491a6.36,6.36,0,0,1,.505-5.884,18.186,18.186,0,0,1,4.016-3.839c.586-.458,1.192-.93,1.757-1.418,1.352-1.171,3.569-3.537,3.266-6.247a10.111,10.111,0,0,0-.8-2.579,7.185,7.185,0,0,1-.8-3.937A7.347,7.347,0,0,1,2.46-31.93c.283-.311.58-.634.842-.959.935-1.14,1.785-3.32.652-4.369a.4.4,0,0,1-.132-.3v-11.5c-1.068-.914-2.19-1.51-2.39-1.367,0,0-.122.142,0,.768.644,3.2.82,4.708-1.311,9.961-1.871,4.607,0,6.315.223,6.494a.41.41,0,0,1,.073.555.4.4,0,0,1-.545.111,6.968,6.968,0,0,1-2.553-9.313c1.464-3.131,1.6-6.171.361-8.134a2.785,2.785,0,0,0-2.272-1.446c-2.745-.02-9.914-1.717-12.658-5.773a12.1,12.1,0,0,0-.547,4.392.406.406,0,0,1-.107.31.409.409,0,0,1-.3.132,8.889,8.889,0,0,1-3.89-1.521,11.614,11.614,0,0,1-3.055-2.653A13.673,13.673,0,0,1-27.27-68.41a6.813,6.813,0,0,1,5.063-4.662c5.546-1.287,8.148,1.773,8.933,2.98,1.033-.825,4.137-2.872,10.044-3.344.823-.068,1.672-.1,2.518-.1,3.289,0,7.568.275,11.462,2.415,5.662,3.112,8.2,8.777,9.335,12.982a29.88,29.88,0,0,1,1.188,7.495,3.862,3.862,0,0,0,1.144,2.511A7.039,7.039,0,0,1,23.8-45.789a5.755,5.755,0,0,1-.3,2.981,5.261,5.261,0,0,0-.31,2.5A12.5,12.5,0,0,1,23.506-39a4.358,4.358,0,0,0,.984,2.4,5.842,5.842,0,0,1,1.592,4.966,6.154,6.154,0,0,1-.628,1.9,6.1,6.1,0,0,0-.5,1.339l-.008.042a2.537,2.537,0,0,0,.353,1.563,11.909,11.909,0,0,0,1.482,2.058c.118.141.232.276.333.4a4.024,4.024,0,0,1-.54,5.709,5.269,5.269,0,0,1-.994.693l-.442.236A4.322,4.322,0,0,0,23.5-16.474a4.419,4.419,0,0,0-.413,3.482,19.272,19.272,0,0,0,.926,2.922c.277.744.559,1.512.779,2.278a5.984,5.984,0,0,1-.527,5.377,5.176,5.176,0,0,1-.421.518C22.084,0,19.123-.435,17.935-.712c-.643-.149-1.273-.343-1.879-.532a10.946,10.946,0,0,0-4.065-.729,30.428,30.428,0,0,0-4.962.858L4.665-.577A22.579,22.579,0,0,1,0,0M4.642-37.727c1.343,1.448.42,3.975-.705,5.357-.276.34-.579.671-.874.991A6.639,6.639,0,0,0,1.1-28.255a6.455,6.455,0,0,0,.754,3.487,10.551,10.551,0,0,1,.852,2.8c.262,2.285-1,4.754-3.542,6.957-.58.5-1.2.982-1.794,1.444A17.463,17.463,0,0,0-6.476-9.91a5.528,5.528,0,0,0-.415,5.121C-5.455-1.13-1.838-.048,4.493-1.379l2.351-.536a31.509,31.509,0,0,1,5.093-.877,11.879,11.879,0,0,1,4.361.766c.594.185,1.207.374,1.821.519,1.052.241,3.654.636,5.129-.943a4.47,4.47,0,0,0,.353-.44c.858-1.186.985-2.629.407-4.679-.21-.733-.493-1.487-.76-2.219a20.424,20.424,0,0,1-.962-3.046,5.163,5.163,0,0,1,.549-4.114,5.079,5.079,0,0,1,1.918-1.468c.143-.075.287-.149.425-.225a4.435,4.435,0,0,0,.845-.587,3.256,3.256,0,0,0,.457-4.585c-.1-.122-.211-.254-.329-.392a12.641,12.641,0,0,1-1.581-2.2,3.318,3.318,0,0,1-.441-2.006l.013-.1.008-.04a6.919,6.919,0,0,1,.56-1.516,5.4,5.4,0,0,0,.556-1.655,5.042,5.042,0,0,0-1.355-4.3A5.052,5.052,0,0,1,22.7-38.845a10.666,10.666,0,0,0-.291-1.211,5.7,5.7,0,0,1,.3-2.962,5.344,5.344,0,0,0,.316-2.522,6.345,6.345,0,0,0-1.248-2.085,4.608,4.608,0,0,1-1.32-3.016,29.2,29.2,0,0,0-1.163-7.288c-1.09-4.052-3.527-9.5-8.936-12.476-3.736-2.053-7.877-2.316-11.07-2.316-.826,0-1.653.033-2.452.1-6.96.556-9.892,3.419-9.924,3.449a.409.409,0,0,1-.36.114.4.4,0,0,1-.3-.233c-.084-.178-2.135-4.409-8.272-2.986a6.058,6.058,0,0,0-4.474,4.133,12.762,12.762,0,0,0,1.986,11.094,10.781,10.781,0,0,0,2.837,2.463,10.747,10.747,0,0,0,3.035,1.361,13.241,13.241,0,0,1,.92-5.1.413.413,0,0,1,.363-.248.42.42,0,0,1,.379.227c2.1,4.244,9.717,6.088,12.389,6.1a3.584,3.584,0,0,1,2.96,1.827c1.388,2.2,1.274,5.533-.311,8.918a6.043,6.043,0,0,0,.546,6.748A8.9,8.9,0,0,1-.635-40c2.123-5.235,1.86-6.569,1.268-9.494-.06-.313-.253-1.267.391-1.637.923-.533,2.743.93,3.478,1.584a.411.411,0,0,1,.14.307Z" fill="#2d2e35"/>
      </g>
    </g>
    <g id="Grupo_792" data-name="Grupo 792" clip-path="url(#clip-path)">
      <g id="Grupo_766" data-name="Grupo 766" transform="translate(146.329 -111.905)">
        <path id="Trazado_1065" data-name="Trazado 1065" d="M0,0C0,3.239-.843,4.8-1.763,5.528a2.888,2.888,0,0,1-2.365.58V-5.572S0-7.187,0,0" fill="#f1a387"/>
      </g>
      <g id="Grupo_767" data-name="Grupo 767" transform="translate(142.746 -105.331)">
        <path id="Trazado_1066" data-name="Trazado 1066" d="M0,0A3.082,3.082,0,0,1-.651-.067a.411.411,0,0,1-.3-.4V-12.146a.406.406,0,0,1,.26-.381,3.161,3.161,0,0,1,2.768.32c1.274.87,1.92,2.764,1.92,5.634s-.646,4.84-1.92,5.85A3.312,3.312,0,0,1,0,0M-.138-.819a2.515,2.515,0,0,0,1.7-.546C2.62-2.2,3.176-4,3.176-6.573c0-2.54-.54-4.249-1.557-4.952a2.26,2.26,0,0,0-1.757-.312Z" fill="#2d2e35"/>
      </g>
      <g id="Grupo_768" data-name="Grupo 768" transform="translate(144.52 -110.911)">
        <path id="Trazado_1067" data-name="Trazado 1067" d="M0,0H-.038A.411.411,0,0,1-.41-.444c.2-2.273-.275-3.155-.706-3.494a1.252,1.252,0,0,0-1.069-.195.411.411,0,0,1-.526-.255.412.412,0,0,1,.256-.52,2.076,2.076,0,0,1,1.843.327C.247-3.9.592-2.489.407-.374A.412.412,0,0,1,0,0" fill="#2d2e35"/>
      </g>
      <g id="Grupo_769" data-name="Grupo 769" transform="translate(131.055 -131.966)">
        <path id="Trazado_1068" data-name="Trazado 1068" d="M0,0C-6.368,0-6.867-5.644-6.869-5.7A.4.4,0,0,1-6.5-6.139a.405.405,0,0,1,.439.374c.019.219.486,5.345,6.779,4.921a.416.416,0,0,1,.434.381.41.41,0,0,1-.381.436C.506-.01.25,0,0,0" fill="#2d2e35"/>
      </g>
      <g id="Grupo_770" data-name="Grupo 770" transform="translate(120.628 -125.998)">
        <path id="Trazado_1069" data-name="Trazado 1069" d="M0,0A.413.413,0,0,1-.3-.126,5.624,5.624,0,0,1-1.322-4.8a.412.412,0,0,1,.468-.341.405.405,0,0,1,.34.465A4.832,4.832,0,0,0,.3-.687a.407.407,0,0,1-.021.576A.4.4,0,0,1,0,0" fill="#2d2e35"/>
      </g>
      <g id="Grupo_771" data-name="Grupo 771" transform="translate(119.38 -128.104)">
        <path id="Trazado_1070" data-name="Trazado 1070" d="M0,0A11.735,11.735,0,0,0,.058,4.376,8.144,8.144,0,0,1,.724,1.929l.058-.158A4.953,4.953,0,0,1,0,0" fill="#2e2021"/>
      </g>
      <g id="Grupo_772" data-name="Grupo 772" transform="translate(120.162 -126.333)">
        <path id="Trazado_1071" data-name="Trazado 1071" d="M0,0C-.017.047-.037.1-.058.159L.011.014A.171.171,0,0,1,0,0" fill="#2d2e35"/>
      </g>
      <g id="Grupo_773" data-name="Grupo 773" transform="translate(119.398 -128.197)">
        <path id="Trazado_1072" data-name="Trazado 1072" d="M0,0C-.006.031-.011.061-.018.094a4.982,4.982,0,0,0,.782,1.77l.011.015L.8,1.827A5.169,5.169,0,0,1,0,0" fill="#2d2e35"/>
      </g>
      <g id="Grupo_774" data-name="Grupo 774" transform="translate(120.035 -129.869)">
        <path id="Trazado_1073" data-name="Trazado 1073" d="M0,0A4.509,4.509,0,0,0,.892,3.184L.9,3.2a.421.421,0,0,1,.057.085c.03.062.062.123.095.184a.409.409,0,0,0-.082-.247A4.982,4.982,0,0,1,0,0M-.776-.559c-.129.235-1.9,3.692-.057,8.938L-.7,8.4a13.319,13.319,0,0,1,.77-4.711A8.144,8.144,0,0,0-.6,6.141,11.735,11.735,0,0,1-.655,1.765,6.8,6.8,0,0,1-.776-.559" fill="#2e2021"/>
      </g>
      <g id="Grupo_775" data-name="Grupo 775" transform="translate(120.176 -122.617)">
        <path id="Trazado_1074" data-name="Trazado 1074" d="M0,0A9.832,9.832,0,0,0,0,1.573c0,.012,0,.024,0,.036l.015.163a.4.4,0,0,0,.033-.2A14.147,14.147,0,0,1,0,0" fill="#bd8472"/>
      </g>
      <g id="Grupo_776" data-name="Grupo 776" transform="translate(120.177 -121.008)">
        <path id="Trazado_1075" data-name="Trazado 1075" d="M0,0A.413.413,0,0,1-.108.274.41.41,0,0,1-.383.405h.024l.1-.01A.414.414,0,0,0,.015.163L0,0" fill="#2d2e35"/>
      </g>
      <g id="Grupo_777" data-name="Grupo 777" transform="translate(120.938 -126.672)">
        <path id="Trazado_1076" data-name="Trazado 1076" d="M0,0A.408.408,0,0,1-.032.564.4.4,0,0,1-.31.675a.408.408,0,0,1-.3-.127A1.953,1.953,0,0,1-.765.354Q-.8.424-.834.5a13.289,13.289,0,0,0-.771,4.71c-.043-.008-.087-.016-.131-.026.073.208.151.418.236.631a.407.407,0,0,0,.356.256A.409.409,0,0,0-.87,5.938a.409.409,0,0,0,.109-.274c0-.013,0-.024,0-.037a9.935,9.935,0,0,1,0-1.572A7.774,7.774,0,0,1,.1.466a.394.394,0,0,0,.051-.2C.119.208.088.148.057.086A.39.39,0,0,0,0,0" fill="#2d2e35"/>
      </g>
      <g id="Grupo_778" data-name="Grupo 778" transform="translate(119.618 -130.648)">
        <path id="Trazado_1077" data-name="Trazado 1077" d="M0,0A.4.4,0,0,0-.356.212l0,.008A6.8,6.8,0,0,0-.238,2.544c.006-.033.012-.063.017-.094a5.172,5.172,0,0,0,.8,1.827c-.009.017-.018.035-.026.052a2.2,2.2,0,0,0,.157.2.414.414,0,0,0,.3.126.4.4,0,0,0,.278-.111.407.407,0,0,0,.032-.564l-.011-.012A4.5,4.5,0,0,1,.417.779c0-.12,0-.242,0-.37A.407.407,0,0,0,.1.013.41.41,0,0,0,0,0" fill="#2d2e35"/>
      </g>
      <g id="Grupo_779" data-name="Grupo 779" transform="translate(165.204 -90.435)">
        <path id="Trazado_1078" data-name="Trazado 1078" d="M0,0C-.145.081-.29.162-.435.24-2.766,1.517-4.966,2.724-5.8,4.953A9.974,9.974,0,0,0-6.28,7.717a10.2,10.2,0,0,1-.587,3.124c-1.111,2.706-4.149,3.888-6.7,3.888-.16,0-.317-.005-.472-.014-2.842-.162-5.5-1.5-7.848-2.689-2.264-1.144-4.831-2.442-7.524-2.582-.133-.007-.268-.01-.4-.01A7.693,7.693,0,0,0-31,9.527a13.824,13.824,0,0,0-2.7,2.758,5.545,5.545,0,0,0-.418,5.122c.023.058.045.115.069.17,1.066,2.522,3.311,3.772,6.814,3.772a20.357,20.357,0,0,0,3.5-.337c.326-.057.661-.123,1-.195l2.352-.536a31.4,31.4,0,0,1,5.092-.876c.157-.011.313-.016.467-.016h0a13.132,13.132,0,0,1,3.9.781c.592.185,1.2.374,1.82.519a8.864,8.864,0,0,0,1.927.228,4.268,4.268,0,0,0,3.2-1.171,4.491,4.491,0,0,0,.354-.44c.858-1.186.984-2.629.407-4.679a.1.1,0,0,1,0-.018l0-.005c-.026-.09-.052-.18-.08-.271-.2-.64-.441-1.291-.673-1.925a20.417,20.417,0,0,1-.961-3.046A5.167,5.167,0,0,1-4.4,5.248,5.079,5.079,0,0,1-2.482,3.78c.143-.075.288-.149.425-.225a4.435,4.435,0,0,0,.845-.587A3.644,3.644,0,0,0,0,.032C0,.021,0,.01,0,0" fill="#2e2021"/>
      </g>
      <g id="Grupo_780" data-name="Grupo 780" transform="translate(161.218 -70.689)">
        <path id="Trazado_1079" data-name="Trazado 1079" d="M0,0A4.268,4.268,0,0,1-3.2,1.171h0A4.259,4.259,0,0,0,0,0M-10.844-.356c-.154,0-.31,0-.467.015A31.543,31.543,0,0,0-16.4.535l-2.351.536c-.343.072-.678.138-1.005.2q.492-.086,1.009-.2L-16.4.535a31.461,31.461,0,0,1,5.094-.876c.156-.011.312-.015.466-.015Zm-19.3-1.982h0c.022.056.045.113.069.169-.024-.056-.047-.113-.069-.17M.755-5.136c0,.005,0,.012.006.018C1.338-3.069,1.212-1.625.354-.44A4.644,4.644,0,0,1,0,0,4.453,4.453,0,0,0,.355-.44c.86-1.187.985-2.629.409-4.675ZM3.992-19.713a3.646,3.646,0,0,1-1.217,2.935,4.39,4.39,0,0,1-.845.587c-.137.076-.282.15-.425.225A5.079,5.079,0,0,0-.413-14.5a5.164,5.164,0,0,0-.548,4.114A20.312,20.312,0,0,0,0-7.337C.232-6.7.475-6.053.673-5.413.476-6.054.235-6.7,0-7.337a20.191,20.191,0,0,1-.96-3.047A5.156,5.156,0,0,1-.41-14.5a5.057,5.057,0,0,1,1.92-1.469c.14-.074.283-.148.424-.224a4.52,4.52,0,0,0,.845-.587,3.584,3.584,0,0,0,1.213-2.935" fill="#2d2e35"/>
      </g>
      <g id="Grupo_781" data-name="Grupo 781" transform="translate(164.965 -91.236)">
        <path id="Trazado_1080" data-name="Trazado 1080" d="M0,0C-.2.109-.393.216-.59.324c-2.358,1.294-4.8,2.632-5.733,5.141a10.681,10.681,0,0,0-.53,2.985,9.637,9.637,0,0,1-.529,2.881c-.973,2.362-3.693,3.378-5.964,3.378-.135,0-.269,0-.4-.011-2.674-.151-5.14-1.4-7.524-2.6-2.339-1.182-4.991-2.521-7.851-2.67-.148-.008-.3-.011-.445-.011h-.047l-.015.011a17.435,17.435,0,0,0-3.841,3.659,5.528,5.528,0,0,0-.416,5.121,5.539,5.539,0,0,1,.418-5.122,13.767,13.767,0,0,1,2.7-2.758,7.712,7.712,0,0,1,1.195-.093c.135,0,.269,0,.4.01,2.693.14,5.26,1.437,7.524,2.582,2.345,1.186,5.006,2.527,7.848,2.689.155.009.312.014.472.014,2.546,0,5.584-1.183,6.695-3.888A10.263,10.263,0,0,0-6.04,8.517a9.973,9.973,0,0,1,.481-2.763c.833-2.229,3.033-3.436,5.364-4.713C-.05.963.095.882.24.8c0,.01,0,.021.005.032A2.941,2.941,0,0,0,0,0" fill="#2e2021"/>
      </g>
      <g id="Grupo_782" data-name="Grupo 782" transform="translate(166.011 -90.573)">
        <path id="Trazado_1081" data-name="Trazado 1081" d="M0,0A4.361,4.361,0,0,1-1.469,3.714a4.754,4.754,0,0,1-.655.491h0a4.883,4.883,0,0,0,.66-.492A4.276,4.276,0,0,0,0,0" fill="#c5c3c4"/>
      </g>
      <g id="Grupo_783" data-name="Grupo 783" transform="translate(163.548 -86.167)">
        <path id="Trazado_1082" data-name="Trazado 1082" d="M0,0-.442.236C-.293.159-.145.08,0,0M.338-.2C.234-.135.122-.069,0,0,.122-.068.234-.135.338-.2Z" fill="#2d2e35"/>
      </g>
      <g id="Grupo_784" data-name="Grupo 784" transform="translate(162.167 -70.553)">
        <path id="Trazado_1083" data-name="Trazado 1083" d="M0,0H0Q-.151.2-.351.417A4.406,4.406,0,0,1-2.637,1.688,4.414,4.414,0,0,0-.347.417C-.214.27-.1.13,0,0" fill="#c5c3c4"/>
      </g>
      <g id="Grupo_785" data-name="Grupo 785" transform="translate(163.106 -85.931)">
        <path id="Trazado_1084" data-name="Trazado 1084" d="M0,0A4.314,4.314,0,0,0-1.634,1.218a3.22,3.22,0,0,0-.545,1.569l0,0A3.2,3.2,0,0,1-1.63,1.218,4.331,4.331,0,0,1,0,0" fill="#8e644a"/>
      </g>
      <g id="Grupo_786" data-name="Grupo 786" transform="translate(160.962 -81.824)">
        <path id="Trazado_1085" data-name="Trazado 1085" d="M0,0C.019.14.04.282.066.429.076.484.086.537.1.593a19.366,19.366,0,0,0,.925,2.921c.278.744.56,1.513.78,2.278l.009.031c.038.135.075.274.11.415a6.318,6.318,0,0,1-.064,3.873l0,0a6.756,6.756,0,0,0-.05-4.3L1.8,5.792c-.218-.765-.5-1.534-.782-2.278A20.188,20.188,0,0,1,.1.593Q.038.287,0,0H0" fill="#775746"/>
      </g>
      <g id="Grupo_787" data-name="Grupo 787" transform="translate(160.927 -83.144)">
        <path id="Trazado_1086" data-name="Trazado 1086" d="M0,0C-.015.153-.023.312-.023.477A7.191,7.191,0,0,0,.1,1.75C.075,1.6.054,1.46.035,1.321v0A6.012,6.012,0,0,1,0,0S0,0,0,0" fill="#775746"/>
      </g>
      <g id="Grupo_788" data-name="Grupo 788" transform="translate(162.823 -71.715)">
        <path id="Trazado_1087" data-name="Trazado 1087" d="M0,0A.005.005,0,0,1,0,0,4.734,4.734,0,0,1-.585,1.061l-.074.1h0c.026-.035.052-.068.076-.1A4.781,4.781,0,0,0,0,0M-.059-4.317c.041.146.081.294.12.447-.036-.142-.072-.28-.11-.415Z" fill="#2d2e35"/>
      </g>
      <g id="Grupo_789" data-name="Grupo 789" transform="translate(130.867 -78.679)">
        <path id="Trazado_1088" data-name="Trazado 1088" d="M0,0-.045.065C-.063.09-.08.116-.1.141-.08.116-.063.09-.045.065L0,0M.044-.062.018-.025.044-.062M.086-.12.069-.1.086-.12" fill="#2e2021"/>
      </g>
      <g id="Grupo_790" data-name="Grupo 790" transform="translate(150.377 -71.046)">
        <path id="Trazado_1089" data-name="Trazado 1089" d="M0,0H0A13.1,13.1,0,0,1,3.892.781c.594.185,1.207.373,1.821.519a8.875,8.875,0,0,0,1.928.227h0A8.873,8.873,0,0,1,5.716,1.3C5.1,1.154,4.488.966,3.9.781A13.132,13.132,0,0,0,0,0M-19.229-1.812c1.07,2.544,3.246,3.787,6.721,3.787a20.775,20.775,0,0,0,3.589-.352,20.438,20.438,0,0,1-3.5.337c-3.5,0-5.748-1.25-6.814-3.772M11.514-5.056c.027.091.054.18.08.27l0,.006c-.026-.092-.054-.184-.082-.276" fill="#2e2021"/>
      </g>
      <g id="Grupo_791" data-name="Grupo 791" transform="translate(142.635 -68.817)">
        <path id="Trazado_1090" data-name="Trazado 1090" d="M0,0A22.509,22.509,0,0,1-4.665.577,22.452,22.452,0,0,0,0,0M7.765-1.411c-.145,0-.292,0-.439.015a30.428,30.428,0,0,0-4.962.858A30.474,30.474,0,0,1,7.33-1.4c.143-.01.285-.015.427-.015a9.642,9.642,0,0,1,2.665.45,9.567,9.567,0,0,0-2.657-.45" fill="#ba3e85"/>
      </g>
    </g>
    <g id="Grupo_801" data-name="Grupo 801" clip-path="url(#clip-path)">
      <g id="Grupo_793" data-name="Grupo 793" transform="translate(165.474 -91.461)">
        <path id="Trazado_1092" data-name="Trazado 1092" d="M0,0A.416.416,0,0,0-.2.051L-.509.225a2.919,2.919,0,0,1,.244.833A3.581,3.581,0,0,1-1.477,3.993a4.554,4.554,0,0,1-.845.587c-.142.077-.284.15-.424.225a5.044,5.044,0,0,0-1.92,1.468,5.152,5.152,0,0,0-.549,4.114,20.312,20.312,0,0,0,.961,3.047c.233.634.474,1.283.67,1.925.029.092.056.184.083.276l.009.022c.575,2.046.451,3.487-.409,4.675a4.45,4.45,0,0,1-.355.439,4.259,4.259,0,0,1-3.2,1.171h0a8.822,8.822,0,0,1-1.929-.228c-.614-.145-1.227-.333-1.821-.518a13.062,13.062,0,0,0-3.893-.781c-.154,0-.309,0-.465.015a31.533,31.533,0,0,0-5.094.876l-2.349.536q-.516.11-1.009.2a20.8,20.8,0,0,1-3.589.353c-3.475,0-5.652-1.243-6.722-3.787-.023-.056-.046-.113-.068-.169h0a5.527,5.527,0,0,1,.415-5.121,17.463,17.463,0,0,1,3.842-3.659l.015-.012a8.553,8.553,0,0,0-1.39.122l-.189.085a15.293,15.293,0,0,0-2.819,2.813l-.017.024-.025.034-.026.037-.018.025-.045.065c-.018.025-.035.051-.052.077a6.371,6.371,0,0,0-.449,5.807c1.421,3.628,4.719,4.491,7.649,4.491a22.509,22.509,0,0,0,4.665-.577l2.364-.538a30.434,30.434,0,0,1,4.961-.858c.148-.01.294-.015.44-.015a9.568,9.568,0,0,1,2.657.45c.321.092.645.192.973.294.605.189,1.232.383,1.876.533a9.639,9.639,0,0,0,2.107.248,6.744,6.744,0,0,0,1.518-.163,4.4,4.4,0,0,0,2.285-1.271q.2-.22.347-.415c.026-.035.051-.069.074-.1a4.751,4.751,0,0,0,.582-1.058,6.318,6.318,0,0,0,.064-3.873c-.038-.152-.078-.3-.119-.446-.22-.765-.5-1.533-.78-2.278a19.366,19.366,0,0,1-.925-2.921c-.011-.056-.021-.109-.031-.164A7.182,7.182,0,0,1-4.57,8.793,3.471,3.471,0,0,1-4,6.748,4.324,4.324,0,0,1-2.368,5.53l.442-.236c.122-.069.234-.135.339-.2A4.678,4.678,0,0,0-.932,4.6,4.356,4.356,0,0,0,.537.888,3.66,3.66,0,0,0,.388.278.414.414,0,0,0,.149.026.449.449,0,0,0,0,0" fill="#2d2e35"/>
      </g>
      <g id="Grupo_794" data-name="Grupo 794" transform="translate(50.331 17.933)">
        <path id="Trazado_1093" data-name="Trazado 1093" d="M0,0A5.637,5.637,0,0,0,2.572-1.2,5.655,5.655,0,0,0,4.3-7.456L.937-16.909l4.215,2.751a1.33,1.33,0,0,0,1.961-.65l.021-.048A1.344,1.344,0,0,0,6.7-16.333L-2.768-22.4l-7.823-30.759c-2.029-.663-4.067-1.3-6.106-1.93-2.307-.715-4.639-1.4-6.934-2.178,2.116,6.2,14.909,37.484,14.909,37.484L-7.076-5.193A5.667,5.667,0,0,0-3.256-.346l.42.141A5.632,5.632,0,0,0,0,0" fill="#ffc4aa"/>
      </g>
      <g id="Grupo_795" data-name="Grupo 795" transform="translate(49.296 18.433)">
        <path id="Trazado_1094" data-name="Trazado 1094" d="M0,0A6.032,6.032,0,0,1-1.935-.316l-.418-.145A6.069,6.069,0,0,1-6.445-5.655L-8.086-20.18c-.595-1.452-12.838-31.43-14.9-37.45a.424.424,0,0,1,.1-.423.417.417,0,0,1,.422-.1c1.688.573,3.428,1.1,5.111,1.619.6.185,1.21.369,1.814.558,2.063.638,4.082,1.265,6.111,1.932a.41.41,0,0,1,.267.287l7.786,30.6,9.327,5.983a1.757,1.757,0,0,1,.6,1.949l-.029.075a1.726,1.726,0,0,1-1.07,1.021,1.741,1.741,0,0,1-1.489-.186L2.76-16.407,5.716-8.094a6.078,6.078,0,0,1-1.85,6.706A6.058,6.058,0,0,1,1.107-.1,6.024,6.024,0,0,1,0,0M1.035-.5h0ZM-21.937-57.117c2.739,7.6,14.5,36.383,14.626,36.681l.029.107,1.644,14.59A5.266,5.266,0,0,0-2.091-1.233l.42.144A5.248,5.248,0,0,0,.959-.9,5.269,5.269,0,0,0,3.348-2.016a5.258,5.258,0,0,0,1.6-5.8l-3.36-9.455a.407.407,0,0,1,.13-.454.407.407,0,0,1,.476-.02L6.408-15a.927.927,0,0,0,.788.1.918.918,0,0,0,.571-.551l.025-.061a.926.926,0,0,0-.315-1l-9.428-6.043a.411.411,0,0,1-.177-.243L-9.9-53.339c-1.953-.638-3.9-1.243-5.887-1.858q-.9-.281-1.811-.557c-1.425-.433-2.894-.884-4.343-1.363" fill="#2d2e35"/>
      </g>
      <g id="Grupo_796" data-name="Grupo 796" transform="translate(34.387 126.526)">
        <path id="Trazado_1095" data-name="Trazado 1095" d="M0,0A16.245,16.245,0,0,1-3.173-.356a.409.409,0,0,1-.324-.4.409.409,0,0,1,.324-.4A11.11,11.11,0,0,0,.7-2.875c.367-4.677,6.813-86.571,7.818-96.149.176-1.675.658-5.142,1.124-8.493.48-3.438.975-6.993,1.151-8.691a51.3,51.3,0,0,1,1.6-7.625c.21-.8.42-1.594.619-2.395a.408.408,0,0,1,.464-.306.408.408,0,0,1,.335.446c-.176,1.695-.88,12.982-1.562,23.9-.69,11.11-1.409,22.6-1.588,24.3-1.025,9.788-2,74.6-2.015,75.251a.4.4,0,0,1-.187.336C5.88-.633,4.32-.066.187,0ZM-1.282-.886A12.023,12.023,0,0,0,.173-.817c3.868-.063,5.3-.545,7.663-2.049C7.9-7.045,8.852-68.433,9.85-77.972c.18-1.684.9-13.165,1.587-24.267.472-7.564.928-14.851,1.231-19.41a39.524,39.524,0,0,0-1.059,5.528c-.178,1.71-.677,5.272-1.153,8.715-.468,3.346-.95,6.807-1.125,8.466C8.3-89.137,1.569-3.472,1.5-2.608a.4.4,0,0,1-.186.309,15.747,15.747,0,0,1-2.6,1.413" fill="#2d2e35"/>
      </g>
      <g id="Grupo_797" data-name="Grupo 797" transform="translate(48.603 -3.62)">
        <path id="Trazado_1096" data-name="Trazado 1096" d="M0,0C-.038.265-.078.531-.124.791-.308,1.872-.55,2.942-.81,4.008v.008a74.413,74.413,0,0,0-2.2,9.967c-.354,3.368-1.921,13.81-2.278,17.18-1.038,9.921-7.833,96.342-7.833,96.342a11.749,11.749,0,0,1-4.181,1.882,19.885,19.885,0,0,1-3.874.35,18.534,18.534,0,0,1-7.79-1.865L-36.5,31.185a142.778,142.778,0,0,0-3.829-15.74C-42.6,8.529-43.538,3.5-43.469,0a15.782,15.782,0,0,1,.905-5.544H1C1.216-3.642.258-1.81,0,0" fill="#41484e"/>
      </g>
      <g id="Grupo_798" data-name="Grupo 798" transform="translate(27.24 126.526)">
        <path id="Trazado_1097" data-name="Trazado 1097" d="M0,0A19.034,19.034,0,0,1-7.707-1.868c-.277-.014-.287-.147-.389-1.461l-7.449-95.578a143.129,143.129,0,0,0-3.813-15.667c-2.167-6.6-3.228-11.841-3.157-15.58a16.065,16.065,0,0,1,.941-5.7.408.408,0,0,1,.373-.24H22.36a.407.407,0,0,1,.4.361,9.521,9.521,0,0,1-.536,3.7,14.761,14.761,0,0,0-.461,1.944c-.037.27-.081.537-.127.8-.2,1.187-.47,2.336-.684,3.212l0,.028c-.2.815-.413,1.617-.625,2.42a50.457,50.457,0,0,0-1.571,7.5c-.178,1.71-.677,5.272-1.153,8.715-.468,3.346-.95,6.807-1.125,8.466-1.027,9.8-7.762,95.468-7.831,96.332a.4.4,0,0,1-.186.309A12.258,12.258,0,0,1,4.143-.359,19.924,19.924,0,0,1,.192,0ZM-7.216-2.533A18.248,18.248,0,0,0,.179-.817a19.415,19.415,0,0,0,3.792-.339,11.1,11.1,0,0,0,3.88-1.719c.367-4.677,6.813-86.571,7.818-96.149.176-1.675.658-5.142,1.124-8.493.48-3.438.975-6.993,1.151-8.691a51.3,51.3,0,0,1,1.6-7.625c.207-.787.416-1.576.609-2.366l.01-.038c.21-.864.477-2.01.676-3.186.048-.257.088-.518.123-.777l0,0a15.938,15.938,0,0,1,.482-2.051,10.083,10.083,0,0,0,.539-3.029h-42.9a17.2,17.2,0,0,0-.778,5.146c-.074,3.646.976,8.8,3.116,15.308a144.837,144.837,0,0,1,3.844,15.8l.005.041c.073.937,7.116,91.376,7.517,96.458m27.768-123.6h0Z" fill="#2d2e35"/>
      </g>
      <g id="Grupo_799" data-name="Grupo 799" transform="translate(28.741 126.482)">
        <path id="Trazado_1098" data-name="Trazado 1098" d="M0,0A.406.406,0,0,1-.405-.407v-118.85l.063-.221a61.356,61.356,0,0,0,7.42-16.266.407.407,0,0,1,.494-.3.409.409,0,0,1,.3.5,62.534,62.534,0,0,1-7.46,16.409V-.407A.407.407,0,0,1,0,0" fill="#2d2e35"/>
      </g>
      <g id="Grupo_800" data-name="Grupo 800" transform="translate(28.741 13.806)">
        <path id="Trazado_1099" data-name="Trazado 1099" d="M0,0A.4.4,0,0,1-.287-.12a.407.407,0,0,1,0-.577,51.284,51.284,0,0,0,5.636-7c2.556-3.81,5.6-9.551,5.6-15.271a.409.409,0,0,1,.409-.406.407.407,0,0,1,.407.406c0,5.93-3.125,11.832-5.747,15.737A51.528,51.528,0,0,1,.289-.12.4.4,0,0,1,0,0" fill="#2d2e35"/>
      </g>
    </g>
    <g id="Grupo_804" data-name="Grupo 804" clip-path="url(#clip-path)">
      <g id="Grupo_802" data-name="Grupo 802" transform="translate(24.89 -106.943)">
        <path id="Trazado_1101" data-name="Trazado 1101" d="M0,0-.434,13.319c0,.07.043,2.107,5.168,2.107S9.9,13.389,9.9,13.319L9.468,0Z" fill="#ffc4aa"/>
      </g>
      <g id="Grupo_803" data-name="Grupo 803" transform="translate(29.624 -91.109)">
        <path id="Trazado_1102" data-name="Trazado 1102" d="M0,0C-5.419,0-5.577-2.256-5.577-2.514l0-.015.432-13.319a.407.407,0,0,1,.409-.392H4.734a.406.406,0,0,1,.407.392L5.577-2.529C5.577-2.256,5.42,0,0,0M-4.763-2.517c.012.092.226,1.7,4.763,1.7,4.644,0,4.763-1.689,4.763-1.707L4.34-15.427H-4.34Z" fill="#2d2e35"/>
      </g>
    </g>
    <g id="Grupo_805" data-name="Grupo 805" transform="translate(44.408 -121.366)">
      <path id="Trazado_1104" data-name="Trazado 1104" d="M0,0,0,.814V0Z" fill="#2d2e35"/>
    </g>
    <g id="Grupo_852" data-name="Grupo 852" clip-path="url(#clip-path)">
      <g id="Grupo_806" data-name="Grupo 806" transform="translate(33.964 -106.536)">
        <path id="Trazado_1105" data-name="Trazado 1105" d="M0,0H-8.681l-.025.782C-7.889,2.976-5.519,7.453.251,7.668Z" fill="#ff9782"/>
      </g>
      <g id="Grupo_807" data-name="Grupo 807" transform="translate(34.358 -106.943)">
        <path id="Trazado_1106" data-name="Trazado 1106" d="M0,0H-9.468A9.462,9.462,0,0,0-9.1,1.189l.026-.782h8.68l.251,7.668c.143.005.287.008.434.008Z" fill="#2d2e35"/>
      </g>
      <g id="Grupo_808" data-name="Grupo 808" transform="translate(46.765 -142.027)">
        <path id="Trazado_1107" data-name="Trazado 1107" d="M0,0C-.048.522-.116,1.038-.2,1.544c-.128.724-.3,1.429-.472,2.077-.787,2.8-1.558,4.815-1.558,8.3v7.009a19.463,19.463,0,0,1-.115,2.136A20.38,20.38,0,0,1-3.365,25.6c-.074.206-.147.411-.225.612-.228.608-.489,1.207-.776,1.792a21.03,21.03,0,0,1-1.3,2.262,21.951,21.951,0,0,1-6.682,6.507h0a21.945,21.945,0,0,1-2.2,1.22,5.9,5.9,0,0,1-2.592.6,5.891,5.891,0,0,1-2.6-.6c-.458-.219-.9-.456-1.34-.7h0v0h-.005A22.989,22.989,0,0,1-24.7,34.733l-.012-.018c-.359-.425-6.514-5.131-6.514-10.729,0-.668.018-1.313.018-1.9A6.966,6.966,0,0,1-25,14.753a2.915,2.915,0,0,0,2.386.581V3.563c1.248.134,2-1.3,2-1.3L-17.106.12c.139-.275.279-.522.422-.754a14.534,14.534,0,0,1,2.9-3.065h0c1.961-1.806,4.7-2.783,8.819-1.736.885.223,3.671.561,4.1,0a7.84,7.84,0,0,1,.9,3.327A13.883,13.883,0,0,1,0,0" fill="#ffc4aa"/>
      </g>
      <g id="Grupo_809" data-name="Grupo 809" transform="translate(29.63 -103.027)">
        <path id="Trazado_1108" data-name="Trazado 1108" d="M0,0A6.378,6.378,0,0,1-2.777-.638c-.487-.232-.949-.484-1.34-.7l-.03-.017a23.222,23.222,0,0,1-3.681-2.6l-.06-.065c-.065-.067-.2-.185-.325-.3-4.17-3.711-6.284-7.311-6.284-10.693,0-.349,0-.69.008-1.018,0-.305.01-.6.01-.882A7.32,7.32,0,0,1-7.9-24.653a.425.425,0,0,1,.29.087,2.491,2.491,0,0,0,1.722.546V-35.438a.405.405,0,0,1,.136-.3.412.412,0,0,1,.315-.1c.956.11,1.59-1.066,1.6-1.079l.148-.157,3.413-2.089c.126-.244.251-.469.386-.683a11.844,11.844,0,0,1,2.4-2.638c.181-.162.366-.328.563-.51l.037-.029c2.383-2.173,5.38-2.763,9.162-1.8,1.154.291,3.364.422,3.677.141a.39.39,0,0,1,.35-.156.4.4,0,0,1,.325.212,8.317,8.317,0,0,1,.948,3.5,15.07,15.07,0,0,1-.029,2.168v0c-.046.531-.116,1.064-.21,1.582-.122.683-.285,1.393-.48,2.111-.12.427-.239.833-.355,1.229a22.2,22.2,0,0,0-1.188,6.965v7.008a19.842,19.842,0,0,1-.118,2.182,20.735,20.735,0,0,1-1.035,4.622c-.075.212-.148.422-.229.625-.226.608-.5,1.221-.792,1.826A21.4,21.4,0,0,1,11.81-8.507,22.264,22.264,0,0,1,5.005-1.878l-.023.013A22.409,22.409,0,0,1,2.767-.636,6.354,6.354,0,0,1,0,0M-3.736-2.057c.384.213.839.458,1.314.685a5.655,5.655,0,0,0,4.836,0,20.669,20.669,0,0,0,2.155-1.2l.039-.02a21.465,21.465,0,0,0,6.523-6.365A20.765,20.765,0,0,0,12.4-11.173c.285-.581.54-1.171.76-1.756.077-.2.15-.4.222-.6a20.072,20.072,0,0,0,.994-4.443,19.044,19.044,0,0,0,.111-2.094v-7.008a22.917,22.917,0,0,1,1.223-7.194c.117-.393.233-.8.352-1.219.188-.689.344-1.377.462-2.036.086-.494.155-1,.2-1.509a14.1,14.1,0,0,0,.027-2.046,7.942,7.942,0,0,0-.66-2.795c-1.253.423-3.994-.158-4.029-.164-3.512-.9-6.272-.357-8.44,1.642l-.04.031c-.183.169-.361.329-.533.483A11.2,11.2,0,0,0,.8-39.421c-.138.224-.269.459-.4.722l-.153.164-3.422,2.1a2.834,2.834,0,0,1-1.891,1.4v11.37a.407.407,0,0,1-.308.4,3.328,3.328,0,0,1-2.6-.552,6.5,6.5,0,0,0-5.686,6.909q0,.429-.007.89,0,.492-.005,1.01c0,3.14,2.022,6.535,6.005,10.085a4.188,4.188,0,0,1,.408.378,22.425,22.425,0,0,0,3.5,2.479ZM17.135-39h0Z" fill="#2d2e35"/>
      </g>
      <g id="Grupo_810" data-name="Grupo 810" transform="translate(41.053 -113.496)">
        <path id="Trazado_1109" data-name="Trazado 1109" d="M0,0C-3.71,0-7.177-2.432-7.925-4.427a.414.414,0,0,1,.24-.526.411.411,0,0,1,.526.238c.632,1.705,4.416,4.5,8.434,3.792A.406.406,0,0,1,1.747-.6a.409.409,0,0,1-.331.473A8.174,8.174,0,0,1,0,0" fill="#2d2e35"/>
      </g>
      <g id="Grupo_811" data-name="Grupo 811" transform="translate(24.151 -138.466)">
        <path id="Trazado_1110" data-name="Trazado 1110" d="M0,0V11.776a2.917,2.917,0,0,1-2.384-.585c-.929-.736-1.78-2.306-1.78-5.575C-4.164-1.626,0,0,0,0" fill="#ffc4aa"/>
      </g>
      <g id="Grupo_812" data-name="Grupo 812" transform="translate(23.602 -126.227)">
        <path id="Trazado_1111" data-name="Trazado 1111" d="M0,0A3.327,3.327,0,0,1-2.091-.729c-1.279-1.014-1.93-3-1.93-5.9s.651-4.794,1.93-5.671A3.182,3.182,0,0,1,.7-12.618a.406.406,0,0,1,.26.378V-.464A.409.409,0,0,1,.65-.069,2.783,2.783,0,0,1,0,0M-.4-11.989a2.158,2.158,0,0,0-1.238.372C-2.663-10.909-3.2-9.183-3.2-6.624c0,2.6.56,4.416,1.623,5.256A2.5,2.5,0,0,0,.141-.82V-11.931A2.644,2.644,0,0,0-.4-11.989" fill="#2d2e35"/>
      </g>
      <g id="Grupo_813" data-name="Grupo 813" transform="translate(21.812 -131.85)">
        <path id="Trazado_1112" data-name="Trazado 1112" d="M0,0A.413.413,0,0,1-.408-.374C-.593-2.505-.249-3.93.616-4.613a2.1,2.1,0,0,1,1.855-.325.411.411,0,0,1,.257.515.413.413,0,0,1-.518.257,1.265,1.265,0,0,0-1.1.2C.681-3.617.2-2.728.4-.445A.406.406,0,0,1,.033,0Z" fill="#2d2e35"/>
      </g>
      <g id="Grupo_814" data-name="Grupo 814" transform="translate(39.71 -130.221)">
        <path id="Trazado_1113" data-name="Trazado 1113" d="M0,0A1.019,1.019,0,0,1-1.021-1.019V-4.967A1.02,1.02,0,0,1,0-5.985,1.018,1.018,0,0,1,1.018-4.967v3.948A1.018,1.018,0,0,1,0,0" fill="#2d2e35"/>
      </g>
      <g id="Grupo_815" data-name="Grupo 815" transform="translate(44.411 -120.96)">
        <path id="Trazado_1114" data-name="Trazado 1114" d="M0,0C6.6,0,.117-9.145.117-9.145v7.007A19.446,19.446,0,0,1,0,0" fill="#ffc4aa"/>
      </g>
      <g id="Grupo_816" data-name="Grupo 816" transform="translate(44.411 -120.552)">
        <path id="Trazado_1115" data-name="Trazado 1115" d="M0,0A.407.407,0,0,1-.3-.136.4.4,0,0,1-.4-.453,19.689,19.689,0,0,0-.292-2.545V-9.552a.411.411,0,0,1,.284-.391.411.411,0,0,1,.457.155C.612-9.559,4.444-4.1,3.064-1.426,2.575-.48,1.544,0,0,0M.523-8.177v5.632C.523-1.963.5-1.39.452-.832A2.133,2.133,0,0,0,2.34-1.8C3.108-3.29,1.659-6.3.523-8.177" fill="#2d2e35"/>
      </g>
      <g id="Grupo_817" data-name="Grupo 817" transform="translate(42.672 -137.526)">
        <path id="Trazado_1116" data-name="Trazado 1116" d="M0,0-.109-.015-.69-.173C-3.108-.84-7.153-1.956-8.913-.609a.4.4,0,0,1-.57-.073.408.408,0,0,1,.074-.572C-7.326-2.85-3.2-1.713-.476-.96L.1-.8a.406.406,0,0,1,.287.5A.4.4,0,0,1,0,0" fill="#2d2e35"/>
      </g>
      <g id="Grupo_818" data-name="Grupo 818" transform="translate(30.081 -142.661)">
        <path id="Trazado_1117" data-name="Trazado 1117" d="M0,0C-.143.231-.283.479-.422.753L-.457,6.189S-5.93,7.8-5.93,4.2c0,0-4.163-1.628-4.163,5.613,0,3.271.85,4.841,1.777,5.577,0,0,.674,4.2-6.2,7.334a65.116,65.116,0,0,1-2.16-8.34q-.427-2.026-.853-4.553a12.521,12.521,0,0,1-.18-2.819S-13.067,1.966,0,0" fill="#879a9a"/>
      </g>
      <g id="Grupo_819" data-name="Grupo 819" transform="translate(15.559 -119.533)">
        <path id="Trazado_1118" data-name="Trazado 1118" d="M0,0-.16-.032A.41.41,0,0,1-.384-.268a64.652,64.652,0,0,1-2.175-8.4c-.285-1.353-.571-2.891-.853-4.567A12.939,12.939,0,0,1-3.6-16.147a.406.406,0,0,1,.107-.249c.195-.211,4.9-5.171,17.954-7.137a.412.412,0,0,1,.4.179.409.409,0,0,1,0,.441c-.122.2-.241.406-.359.637l-.037,5.339a.407.407,0,0,1-.29.389c-.138.04-3.377.973-5.038-.271a2.388,2.388,0,0,1-.946-1.8,2.29,2.29,0,0,0-1.792.311c-1.029.708-1.572,2.434-1.572,4.993,0,2.6.564,4.416,1.625,5.259a.411.411,0,0,1,.151.255c.03.183.64,4.545-6.443,7.769ZM-2.8-15.946a12.376,12.376,0,0,0,.187,2.579c.283,1.665.567,3.192.849,4.537A73.271,73.271,0,0,0,.235-.971C5.661-3.587,5.844-6.832,5.814-7.537c-1.191-1.049-1.793-2.991-1.793-5.782,0-2.885.651-4.793,1.931-5.67a3.18,3.18,0,0,1,2.788-.323.4.4,0,0,1,.26.38,1.7,1.7,0,0,0,.63,1.462c1,.746,3.032.456,4.028.218l.034-5.126.044-.18.019-.037C2.588-20.753-2.078-16.636-2.8-15.946" fill="#2d2e35"/>
      </g>
      <g id="Grupo_820" data-name="Grupo 820" transform="translate(19.936 -127.224)">
        <path id="Trazado_1119" data-name="Trazado 1119" d="M0,0A.4.4,0,0,1-.285-.122a.4.4,0,0,1,0-.576L1.539-2.523a.41.41,0,0,1,.577,0,.412.412,0,0,1,0,.577L.288-.122A.4.4,0,0,1,0,0" fill="#41484e"/>
      </g>
      <g id="Grupo_821" data-name="Grupo 821" transform="translate(46.559 -140.074)">
        <path id="Trazado_1120" data-name="Trazado 1120" d="M0,0H-.006A.407.407,0,0,1-.411-.409a.4.4,0,0,1,.405-.4.406.406,0,0,1,.409.4A.4.4,0,0,1,0,0" fill="#2d2e35"/>
      </g>
      <g id="Grupo_822" data-name="Grupo 822" transform="translate(48.299 -146.662)">
        <path id="Trazado_1121" data-name="Trazado 1121" d="M0,0A.41.41,0,0,1-.4-.34.407.407,0,0,1-.132-.816a.4.4,0,0,1,.516.255l.025.153A.409.409,0,0,1,0,0" fill="#2d2e35"/>
      </g>
      <g id="Grupo_823" data-name="Grupo 823" transform="translate(48.299 -146.665)">
        <path id="Trazado_1122" data-name="Trazado 1122" d="M0,0A.4.4,0,0,1-.405-.405v0A.406.406,0,0,1,0-.817a.408.408,0,0,1,.409.41A.41.41,0,0,1,0,0" fill="#2d2e35"/>
      </g>
      <g id="Grupo_824" data-name="Grupo 824" transform="translate(48.643 -146.605)">
        <path id="Trazado_1123" data-name="Trazado 1123" d="M0,0C.646,4-1.7,4.239-1.823,4.25c.015-.541,0-1.233-.028-1.781-.024-.431-.169-.8-.233-1.226a82.068,82.068,0,0,0-17.07,3.189c-13.262,4.037-16.9,9.543-16.9,9.543a19.163,19.163,0,0,0,.577,3.171c-3.079-.438-2.337.123-4.071-5.075a2.841,2.841,0,0,1-.081-.285,4.046,4.046,0,0,1,.582-3.116C-36.568,4.5-27.649.329-16.556-2.6c6.183-1.635,10-2.05,12.366-1.789A4.556,4.556,0,0,1-.92-2.933v.006A5.879,5.879,0,0,1,0,0" fill="#195561"/>
      </g>
      <g id="Grupo_825" data-name="Grupo 825" transform="translate(13.161 -129.053)">
        <path id="Trazado_1124" data-name="Trazado 1124" d="M0,0-.059,0-.761-.1c-2.121-.271-2.19-.488-3.027-3.165-.175-.564-.392-1.252-.671-2.089-.034-.095-.062-.2-.088-.308A4.444,4.444,0,0,1-3.92-9.091c2.411-4.05,10.913-8.331,22.744-11.452,5.71-1.51,9.8-2.1,12.511-1.8a4.974,4.974,0,0,1,3.542,1.6l.022.027a5.407,5.407,0,0,1,.929,2.72c.018.129.039.253.056.375a4.8,4.8,0,0,1-.6,3.812,2.364,2.364,0,0,1-1.6.908.4.4,0,0,1-.308-.114.405.405,0,0,1-.125-.3c.017-.508.006-1.191-.025-1.744a3.361,3.361,0,0,0-.117-.644l-.038-.169A82.225,82.225,0,0,0,16.444-12.73C4.5-9.094.439-4.248-.157-3.462A19.913,19.913,0,0,0,.4-.5.412.412,0,0,1,.3-.131.421.421,0,0,1,0,0M29.886-21.6a46.068,46.068,0,0,0-10.855,1.846C7.4-16.686-.915-12.542-3.218-8.673a3.656,3.656,0,0,0-.539,2.809l.066.245c.288.852.5,1.544.681,2.114.749,2.4.749,2.4,2.351,2.6l.128.017A16.845,16.845,0,0,1-.982-3.542.4.4,0,0,1-.915-3.8c.151-.23,3.875-5.675,17.124-9.708a83,83,0,0,1,17.152-3.2.4.4,0,0,1,.439.345c.026.166.063.319.1.474a4.274,4.274,0,0,1,.137.789c.022.395.033.843.033,1.258a1.659,1.659,0,0,0,.583-.475,4.135,4.135,0,0,0,.425-3.163v0c-.02-.127-.039-.259-.058-.388a4.666,4.666,0,0,0-.779-2.35l-.018-.022a4.243,4.243,0,0,0-2.977-1.284,11.9,11.9,0,0,0-1.361-.071" fill="#2d2e35"/>
      </g>
      <g id="Grupo_826" data-name="Grupo 826" transform="translate(47.722 -149.537)">
        <path id="Trazado_1125" data-name="Trazado 1125" d="M0,0A4.554,4.554,0,0,0-3.27-1.454c-.324-.032-.681-.057-1.065-.065-.11,0-.226,0-.333,0-.167,0-.331,0-.507,0-.193.006-.393.016-.607.027-.26.013-.533.03-.817.056-.14.019-.285.028-.433.047s-.3.027-.45.051c-1.209.144-2.6.377-4.2.721-.3.063-.607.128-.921.205-.629.139-1.285.3-1.977.474-.341.082-.7.176-1.056.271-11.093,2.926-20.011,7.1-22.5,11.268a51.737,51.737,0,0,1-.192-8.013c.166-2.158-.872-3.913.138-4.121l.109-.02c.435-.041.867-.105,1.3-.185a10.529,10.529,0,0,1,.917-1.941c1.951-3.032.472-1.4,3.63-3.874h.009c.28-.22.591-.473.949-.755,4.405-3.559,7.136-7.218,9.55-6.341s2.953,1.914,6.024,2.491a9.128,9.128,0,0,1,4.606,2.331c.57.445,1.232.942,2.1,1.511l.046.024c.439.291.858.54,1.263.776.208-.118.42-.242.623-.374,2.7-1.744,6.9,6.4,7.057,6.871Z" fill="#324063"/>
      </g>
      <g id="Grupo_827" data-name="Grupo 827" transform="translate(9.591 -137.527)">
        <path id="Trazado_1126" data-name="Trazado 1126" d="M0,0-.088-.009A.406.406,0,0,1-.405-.364,52.287,52.287,0,0,1-.6-8.455a9.407,9.407,0,0,0-.183-2.3c-.163-.977-.334-1.986.644-2.187L0-12.965q.524-.048,1.055-.142a10.255,10.255,0,0,1,.873-1.8c.451-.7.719-1.155.9-1.454A2.92,2.92,0,0,1,4-17.642c.333-.24.838-.6,1.648-1.24l.048-.033c.269-.212.565-.449.9-.72,1.21-.976,2.311-1.978,3.283-2.864,2.721-2.472,4.686-4.259,6.662-3.542a14.089,14.089,0,0,1,2.285,1.092,10.621,10.621,0,0,0,3.677,1.384,9.093,9.093,0,0,1,4.525,2.212l.253.2c.491.382,1.166.9,2.073,1.49h0l.023.014.015.011c.361.237.706.443,1.047.646.134-.077.268-.158.4-.243a1.974,1.974,0,0,1,1.827-.166c2.689.961,5.578,6.605,5.825,7.218l.041.127a.4.4,0,0,1-.247.426.41.41,0,0,1-.478-.123,4.228,4.228,0,0,0-2.995-1.3c-.338-.038-.684-.059-1.027-.064-.108,0-.219-.007-.321,0-.167,0-.329,0-.5,0-.195.005-.393.015-.6.025-.256.015-.524.032-.8.058l-.2.02-.224.025-.157.016c-.094.007-.185.016-.279.031-1.245.149-2.651.389-4.176.717-.321.067-.614.128-.911.2-.58.13-1.2.281-1.971.473-.343.085-.7.175-1.049.271C10.973-8.211,2.655-4.068.351-.2A.411.411,0,0,1,0,0M6.11-18.207c-.8.626-1.3.985-1.629,1.225a2.284,2.284,0,0,0-.953,1.04c-.183.3-.461.767-.918,1.477A10.069,10.069,0,0,0,1.733-12.6a.415.415,0,0,1-.3.259c-.459.086-.907.149-1.337.189l-.038.008c-.2.041-.18.366-.027,1.26a10.255,10.255,0,0,1,.188,2.5A47.436,47.436,0,0,0,.307-1.547C3.382-5.313,11.464-9.185,22.393-12.068c.36-.1.717-.19,1.061-.276.772-.194,1.4-.345,1.984-.477.3-.071.6-.135.9-.2,1.58-.335,3.008-.583,4.269-.732.094-.015.2-.025.3-.036l.146-.017.239-.025.2-.019c.292-.028.572-.045.836-.057q.324-.021.623-.026c.172-.008.34-.008.514-.008.1,0,.23,0,.347,0,.36.009.731.032,1.094.069a7.178,7.178,0,0,1,2.081.514C35.936-15.184,34-18.09,32.37-18.645a1.174,1.174,0,0,0-1.085.09c-.211.136-.429.264-.644.385a.411.411,0,0,1-.406,0c-.424-.246-.839-.493-1.278-.784h0l-.03-.018-.009-.006c-.936-.612-1.632-1.14-2.133-1.531l-.25-.195a8.275,8.275,0,0,0-4.178-2.058,11.227,11.227,0,0,1-3.924-1.471,13.752,13.752,0,0,0-2.167-1.04c-1.51-.546-3.324,1.1-5.833,3.382-.981.894-2.093,1.9-3.32,2.9-.357.286-.67.539-.95.757Zm23.246-1.457h0Z" fill="#2d2e35"/>
      </g>
      <g id="Grupo_828" data-name="Grupo 828" transform="translate(10.944 -149.868)">
        <path id="Trazado_1127" data-name="Trazado 1127" d="M0,0A.405.405,0,0,1-.4-.33.406.406,0,0,1-.078-.805,34.721,34.721,0,0,0,7.059-3.432l.632-.279a.409.409,0,0,1,.538.208.408.408,0,0,1-.208.54l-.632.277A35.41,35.41,0,0,1,.077,0Z" fill="#2d2e35"/>
      </g>
      <g id="Grupo_829" data-name="Grupo 829" transform="translate(30.411 -153.454)">
        <path id="Trazado_1128" data-name="Trazado 1128" d="M0,0C-.309,0-.5-.006-.539-.008A.4.4,0,0,1-.926-.432.412.412,0,0,1-.5-.824c.055,0,5.742.215,9.923-2.129a.405.405,0,0,1,.552.157.4.4,0,0,1-.154.553A21.569,21.569,0,0,1,0,0" fill="#2d2e35"/>
      </g>
      <g id="Grupo_830" data-name="Grupo 830" transform="translate(41.084 -152.841)">
        <path id="Trazado_1129" data-name="Trazado 1129" d="M0,0A2.178,2.178,0,0,0-.371.03a6.344,6.344,0,0,0-1.639.6l-.322.153a20.036,20.036,0,0,1-8.336,1.811,19.7,19.7,0,0,1-3.587-.328c-.209-.041-.425-.082-.64-.125a12.381,12.381,0,0,0-2.362-.318,3.754,3.754,0,0,0-1.527.288,6.4,6.4,0,0,0-1.409.952c-.256.207-.519.421-.8.616a8.963,8.963,0,0,1-5,1.745,11.322,11.322,0,0,0-5.3,1.678c-.036.493-.057,1-.068,1.516v0c0,.017,0,.034,0,.051v.012c0,.013,0,.027,0,.04a.235.235,0,0,1,0,.027v.021c0,.014,0,.029,0,.044v.008c-.028,1.894.088,3.8.176,4.948C-28.111,10-20.029,6.128-9.1,3.245c.359-.1.717-.189,1.061-.275.772-.194,1.4-.346,1.984-.478.3-.07.6-.134.9-.2,1.58-.335,3.007-.582,4.269-.732.094-.014.2-.024.3-.035L-.44,1.51-.2,1.485,0,1.466c.292-.029.572-.045.836-.057.2-.017.413-.023.619-.026.176-.009.344-.009.518-.009h.1c.08,0,.164,0,.245,0l.11,0,.089,0c-.14-.1-.287-.184-.4-.251A3.626,3.626,0,0,1,1.274.5,1.624,1.624,0,0,0,0,0" fill="#323e59"/>
      </g>
      <g id="Grupo_831" data-name="Grupo 831" transform="translate(9.722 -144.03)">
        <path id="Trazado_1130" data-name="Trazado 1130" d="M0,0V.008ZM0-.065v.008M0-.132C0-.118,0-.1,0-.092,0-.1,0-.118,0-.132M0-.195C0-.178,0-.16,0-.143,0-.16,0-.178,0-.195M.072-1.713h0C.036-1.221.014-.711,0-.2c.01-.513.032-1.023.068-1.515M31.359-7.345l-.2.019-.239.025-.147.017c-.1.011-.208.021-.3.036.1-.015.2-.026.313-.036l.138-.017.247-.025Zm2.32-.089.11,0-.11,0m-.294,0h0m.047,0h0" fill="#2d2e35"/>
      </g>
      <g id="Grupo_832" data-name="Grupo 832" transform="translate(40.195 -151.278)">
        <path id="Trazado_1131" data-name="Trazado 1131" d="M0,0H0C-1.261.149-2.689.4-4.269.732c-.3.063-.6.127-.9.2-.581.132-1.212.284-1.984.478-.344.086-.7.177-1.061.275C-19.14,4.566-27.222,8.438-30.3,12.2c-.089-1.152-.2-3.054-.177-4.948-.028,1.893.087,3.8.177,4.948C-27.222,8.438-19.14,4.566-8.211,1.683c.36-.1.717-.189,1.061-.275.772-.194,1.4-.346,1.984-.478.3-.071.6-.135.9-.2C-2.689.4-1.261.149,0,0M2.859-.188h0c-.174,0-.342,0-.517.008-.207,0-.415.009-.62.026-.264.013-.544.029-.836.058.292-.029.572-.045.836-.058q.324-.021.623-.026c.172-.008.34-.008.514-.008m.1,0h0m0,0h0c.08,0,.165,0,.247,0-.082,0-.166,0-.246,0M.894-2.376a3.156,3.156,0,0,0-.506.039,7.008,7.008,0,0,0-1.854.662l-.317.149A19.206,19.206,0,0,1-9.776.21,18.873,18.873,0,0,1-13.214-.1c-.212-.038-.42-.081-.631-.122a13.1,13.1,0,0,0-2.526-.337A4.543,4.543,0,0,0-18.222-.2,7.068,7.068,0,0,0-19.815.864c-.257.2-.5.4-.752.576A8.156,8.156,0,0,1-25.2,3.048a13.494,13.494,0,0,0-5.171,1.483,7.262,7.262,0,0,1-.012.831c0,.057-.009.115-.013.173,1.34-1.043,3.424-1.435,5.3-1.678a8.975,8.975,0,0,0,5-1.746c.279-.194.542-.408.8-.615A6.329,6.329,0,0,1-17.9.544,3.738,3.738,0,0,1-16.368.255a12.482,12.482,0,0,1,2.363.318l.639.125a19.71,19.71,0,0,0,3.588.328A20.034,20.034,0,0,0-1.443-.784l.323-.153a6.342,6.342,0,0,1,1.638-.6,2.3,2.3,0,0,1,.371-.029,1.625,1.625,0,0,1,1.274.5,3.626,3.626,0,0,0,.846.627c.108.068.255.157.395.251l-.089,0c.326.01.658.032.985.066.111.012.219.025.324.041a2.823,2.823,0,0,0-1.186-1.05,3.461,3.461,0,0,1-.644-.453,2.411,2.411,0,0,0-1.9-.8" fill="#323e59"/>
      </g>
      <g id="Grupo_833" data-name="Grupo 833" transform="translate(41.987 -150.622)">
        <path id="Trazado_1132" data-name="Trazado 1132" d="M0,0H-.022L-.23.013H-.251L-.017,0H0" fill="#204e58"/>
      </g>
      <g id="Grupo_834" data-name="Grupo 834" transform="translate(41.757 -150.608)">
        <path id="Trazado_1133" data-name="Trazado 1133" d="M0,0Q-.288.016-.592.045C-.4.027-.207.012-.021,0H0" fill="#2d2e35"/>
      </g>
      <g id="Grupo_835" data-name="Grupo 835" transform="translate(40.917 -150.538)">
        <path id="Trazado_1134" data-name="Trazado 1134" d="M0,0-.039,0-.18.019Z" fill="#204e58"/>
      </g>
      <g id="Grupo_836" data-name="Grupo 836" transform="translate(40.401 -150.484)">
        <path id="Trazado_1135" data-name="Trazado 1135" d="M0,0-.1.013,0,0M.764-.079l-.2.02L.478-.05c.013,0,.026,0,.039,0L.571-.06Z" fill="#2d2e35"/>
      </g>
      <g id="Grupo_837" data-name="Grupo 837" transform="translate(8.997 -145.995)">
        <path id="Trazado_1136" data-name="Trazado 1136" d="M0,0A.049.049,0,0,0,0,.012C-.068.839-.094,1.721-.094,2.587c0-.866.026-1.748.093-2.575A.049.049,0,0,1,0,0" fill="#c5c3c4"/>
      </g>
      <g id="Grupo_838" data-name="Grupo 838" transform="translate(9.722 -144.074)">
        <path id="Trazado_1137" data-name="Trazado 1137" d="M0,0C0,.014,0,.029,0,.044,0,.029,0,.014,0,0M0-.048A.235.235,0,0,1,0-.021.235.235,0,0,0,0-.048M0-.1v0M0-.154v0Z" fill="#323e59"/>
      </g>
      <g id="Grupo_839" data-name="Grupo 839" transform="translate(43.154 -151.467)">
        <path id="Trazado_1138" data-name="Trazado 1138" d="M0,0H-.1C-.274,0-.442,0-.614.01c-.2,0-.407.011-.623.025-.264.013-.544.029-.836.058l-.188.019-.247.025-.138.017c-.109.009-.217.021-.313.035-1.261.149-2.689.4-4.269.732-.295.063-.6.127-.9.2-.581.132-1.212.284-1.984.478-.344.086-.7.178-1.061.275C-22.1,4.755-30.181,8.627-33.256,12.393c-.09-1.151-.2-3.055-.177-4.948V7.437c0-.015,0-.029,0-.043V7.38c0-.016,0-.025,0-.034s0-.027,0-.04V7.3c0-.021,0-.038,0-.055v0c.011-.513.032-1.024.069-1.516,0-.058.008-.115.013-.173a7.262,7.262,0,0,0,.012-.831,5.513,5.513,0,0,0-.683.488.394.394,0,0,0-.139.265.045.045,0,0,0,0,.012c-.067.827-.093,1.709-.093,2.575,0,2.827.278,5.483.283,5.516a.406.406,0,0,0,.317.356l.088.008a.412.412,0,0,0,.351-.2c2.3-3.869,10.622-8.013,22.253-11.084.353-.1.706-.186,1.049-.271.766-.192,1.391-.343,1.971-.473.3-.072.59-.134.911-.2C-5.5,1.386-4.1,1.146-2.852,1c.033-.006.066-.01.1-.014l.191-.022.146-.012.141-.015.083-.01.2-.02c.2-.019.4-.033.592-.045l.208-.012h.022c.2-.014.384-.019.576-.024.167-.006.329-.006.5-.007H-.03c.086,0,.17,0,.256.007.343,0,.689.026,1.027.063l.043,0A.41.41,0,0,0,1.689.591.717.717,0,0,0,1.665.114C1.559.1,1.452.085,1.341.073,1.014.039.682.017.356.007L.247,0C.165,0,.08,0,0,0" fill="#2d2e35"/>
      </g>
      <g id="Grupo_840" data-name="Grupo 840" transform="translate(22.272 -156.131)">
        <path id="Trazado_1139" data-name="Trazado 1139" d="M0,0A3.161,3.161,0,0,0-.432.132,10.778,10.778,0,0,1-4.159.786a10.235,10.235,0,0,1-2.527-.3c-.1.076-.187.147-.275.214-.49.381-.854.654-1.129.862a6.31,6.31,0,0,0-.763.618,5.658,5.658,0,0,0-.3.481c-.149.247-.359.6-.677,1.1l-.029.049c-.2.311-.353.571-.478.789-.109.208-.219.439-.328.693l.024-.006q.862-.242,1.657-.5c1.393-.486,2.9-1.151,4.715-1.955l.631-.279.033-.013A12.927,12.927,0,0,0,0,0" fill="#323e59"/>
      </g>
      <g id="Grupo_841" data-name="Grupo 841" transform="translate(11.935 -151.531)">
        <path id="Trazado_1140" data-name="Trazado 1140" d="M0,0A7.82,7.82,0,0,0-.366.7L-.328.693Q-.163.31,0,0M1.485-2.421a2.518,2.518,0,0,0-.337.513c-.138.236-.323.566-.635,1.06l-.006.01c.319-.5.529-.854.677-1.1a5.272,5.272,0,0,1,.3-.482M3.651-4.114,3.377-3.9l.275-.214Z" fill="#2d2e35"/>
      </g>
      <g id="Grupo_842" data-name="Grupo 842" transform="translate(11.156 -150.714)">
        <path id="Trazado_1141" data-name="Trazado 1141" d="M0,0H-.006L.1.4ZM.475-.129.451-.123a.262.262,0,0,0-.038.009s0,0,0,0L.475-.129M7.511-2.877a.175.175,0,0,0-.032.012l-.632.279c-1.819.8-3.322,1.47-4.715,1.955A33.931,33.931,0,0,0,7.511-2.877" fill="#2d2e35"/>
      </g>
      <g id="Grupo_843" data-name="Grupo 843" transform="translate(11.252 -151.979)">
        <path id="Trazado_1142" data-name="Trazado 1142" d="M0,0A5.014,5.014,0,0,0-.6,1.321,12.215,12.215,0,0,1,0,0M.491-.807.473-.779l-.065.1.083-.13m1.053-1.7a3.537,3.537,0,0,0-.423.64C1-1.647.828-1.35.557-.912c.282-.449.47-.767.608-.995a6.269,6.269,0,0,1,.379-.6M3.99-4.43h0l-.341.266L3.99-4.43" fill="#c5c3c4"/>
      </g>
      <g id="Grupo_844" data-name="Grupo 844" transform="translate(11.74 -150.031)">
        <path id="Trazado_1143" data-name="Trazado 1143" d="M0,0Q-.291.072-.584.132h.013L-.376.1C-.249.069-.124.035,0,0M1.549-1.314q-.795.259-1.658.5c.544-.136,1.091-.3,1.658-.5M.7-2.337c-.074.116-.154.242-.241.376S.284-1.669.195-1.5c.125-.218.282-.479.479-.79Zm6.45-.43-.559.244C4.817-1.738,3.336-1.084,1.957-.594A34.708,34.708,0,0,0,7.152-2.767M3.572-5.4c-.576.443-.965.723-1.239.921a2.657,2.657,0,0,0-.654.558,6.32,6.32,0,0,1,.763-.617c.275-.209.639-.482,1.13-.862M10.79-6.955a2.977,2.977,0,0,0-.975.224,9.939,9.939,0,0,1-3.431.6,10.418,10.418,0,0,1-1.7-.138c-.243.2-.465.374-.669.533L3.961-5.7l-.114.09a10.267,10.267,0,0,0,2.526.3A10.778,10.778,0,0,0,10.1-5.968a3.2,3.2,0,0,1,.432-.132,12.851,12.851,0,0,1-3.6,2.539.44.44,0,0,1,.133-.021.4.4,0,0,1,.373.242.407.407,0,0,1-.118.486c2.554-1.362,4.006-2.667,4.161-3.324a.6.6,0,0,0-.174-.608.735.735,0,0,0-.512-.169" fill="#323e59"/>
      </g>
      <g id="Grupo_845" data-name="Grupo 845" transform="translate(15.432 -156.49)">
        <path id="Trazado_1144" data-name="Trazado 1144" d="M0,0-.19.081C-.311.176-.424.265-.532.348c-.53.412-.918.7-1.21.92a6.354,6.354,0,0,0-.9.739,6.468,6.468,0,0,0-.378.6c-.138.229-.327.547-.608,1-.016.026-.033.051-.05.079L-3.69,3.7l-.082.13c-.156.25-.292.474-.408.676a12.111,12.111,0,0,0-.6,1.321A1.107,1.107,0,0,0-4.8,5.95a.4.4,0,0,1,.231-.133q.353-.069.7-.155c.072-.161.186-.387.366-.7q.135-.255.267-.462c.087-.134.167-.26.241-.376l.006-.01c.311-.494.5-.825.634-1.061a2.578,2.578,0,0,1,.337-.512,2.626,2.626,0,0,1,.653-.558c.274-.2.664-.478,1.239-.921L.154.846h0C.192.816.23.787.268.756L.322.72C.526.561.748.383.992.187A7.143,7.143,0,0,1,.19.013Z" fill="#2d2e35"/>
      </g>
      <g id="Grupo_846" data-name="Grupo 846" transform="translate(11.261 -150.32)">
        <path id="Trazado_1145" data-name="Trazado 1145" d="M0,0-.111-.4H-.1ZM7.538-3.293a.428.428,0,0,0-.132.021A33.924,33.924,0,0,1,2.027-1.025c-.566.2-1.113.366-1.657.5L.307-.506s0,0,0,0C.073-.451-.161-.4-.4-.354a.4.4,0,0,0-.23.133.572.572,0,0,0,.1.429A.517.517,0,0,0-.1.42Q.188.36.479.289,1.5.007,2.435-.305C3.815-.8,5.3-1.45,7.072-2.234l.559-.245c.055-.029.109-.057.163-.087a.407.407,0,0,0,.118-.485.4.4,0,0,0-.374-.242" fill="#2d2e35"/>
      </g>
      <g id="Grupo_847" data-name="Grupo 847" transform="translate(36.581 -157.882)">
        <path id="Trazado_1146" data-name="Trazado 1146" d="M0,0A23.724,23.724,0,0,1-4,1.567c.461.084.9.148,1.041.154A17.681,17.681,0,0,0,1.295.947L1.178.866C.711.54.322.249,0,0" fill="#323e59"/>
      </g>
      <g id="Grupo_848" data-name="Grupo 848" transform="translate(36.581 -157.882)">
        <path id="Trazado_1147" data-name="Trazado 1147" d="M0,0H0C.321.249.711.54,1.177.866.712.54.321.248,0,0" fill="#2d2e35"/>
      </g>
      <g id="Grupo_849" data-name="Grupo 849" transform="translate(38.949 -157.194)">
        <path id="Trazado_1148" data-name="Trazado 1148" d="M0,0H0L.023.013.038.025.063.041.023.013ZM-2.1-1.509l.024.018C-1.581-1.108-.906-.592,0,0-.906-.592-1.581-1.108-2.07-1.491L-2.1-1.509" fill="#c5c3c4"/>
      </g>
      <g id="Grupo_850" data-name="Grupo 850" transform="translate(35.859 -158.441)">
        <path id="Trazado_1149" data-name="Trazado 1149" d="M0,0A17.377,17.377,0,0,1-4.321,1.5c-.331.038-.941.108-.9.608.029.373.367.538,1.56.773a13.334,13.334,0,0,0,1.435.21h.017A17.843,17.843,0,0,0,2.866,2.072c-.058-.037-.118-.077-.177-.116h0L2.66,1.938l-.01-.007c-.27-.176-.519-.346-.75-.506l.117.081a17.681,17.681,0,0,1-4.252.774c-.14-.006-.58-.07-1.041-.154a23.638,23.638,0,0,0,4-1.567C.651.5.582.451.517.4L.267.206C.176.135.087.066,0,0" fill="#323e59"/>
      </g>
      <g id="Grupo_851" data-name="Grupo 851" transform="translate(36.631 -158.769)">
        <path id="Trazado_1150" data-name="Trazado 1150" d="M0,0A.392.392,0,0,0-.187.046C-.2.05-.417.161-.772.329-.685.4-.6.463-.5.534l.251.195.2.159h0c.32.247.712.54,1.177.865q.346.242.75.507l.01.007.029.017h0c.06.039.119.078.178.115.074-.028.142-.056.2-.083a.406.406,0,0,0,.082-.7A.167.167,0,0,0,2.357,1.6l-.016-.012-.023-.013h0C1.412.983.738.467.246.085L.223.067A.407.407,0,0,0,0,0" fill="#2d2e35"/>
      </g>
    </g>
    <g id="Grupo_856" data-name="Grupo 856" clip-path="url(#clip-path)">
      <g id="Grupo_853" data-name="Grupo 853" transform="translate(42.257 -134.779)">
        <path id="Trazado_1152" data-name="Trazado 1152" d="M0,0-.2-.054A4.676,4.676,0,0,0-5.072-.073a.41.41,0,0,1-.568-.1.41.41,0,0,1,.1-.566A5.494,5.494,0,0,1,.2-.762a.406.406,0,0,1,.153.556A.408.408,0,0,1,0,0" fill="#2d2e35"/>
      </g>
      <g id="Grupo_854" data-name="Grupo 854" transform="translate(50.422 -49.279)">
        <path id="Trazado_1153" data-name="Trazado 1153" d="M0,0C-.472,16.2,4.089,40.046,4.092,40.115c.188,6.808-15.236,5.435-19.3,7-4.239,1.634-8.414,5.925-9.042,10.049-.81,5.3-5.113,5.967-9.425,7.619-1.152.441-9.458,4.853-15.119,6.514,1.13-13.661,3.119-26.511,3.5-36.359-.323-24.1-.486-42.461,2.991-57.722,2.551-11.193,6.21-16.107,10.2-18.742,0,0,13.688-.511,23.793,4.541l0-.013a26.773,26.773,0,0,1,3.35,4.109A34.741,34.741,0,0,1,.591-8.339,78.1,78.1,0,0,0,0,0" fill="#dee0de"/>
      </g>
      <g id="Grupo_855" data-name="Grupo 855" transform="translate(1.625 22.43)">
        <path id="Trazado_1154" data-name="Trazado 1154" d="M0,0A.4.4,0,0,1-.258-.092.4.4,0,0,1-.407-.441C.078-6.307.715-11.951,1.33-17.41,2.125-24.49,2.876-31.174,3.1-36.785c-.3-22.593-.568-42.125,3-57.8,2.226-9.755,5.523-15.789,10.376-18.989l.21-.068c.142,0,13.835-.456,23.908,4.544l.185.1a27.023,27.023,0,0,1,3.4,4.174,35.254,35.254,0,0,1,5.613,24.828,79.633,79.633,0,0,0-.585,8.294c-.413,14.2,3,34.07,4.05,39.823.031.171.04.262.04.262.146,5.193-7.6,5.93-13.831,6.523a27.142,27.142,0,0,0-5.732.877c-4.347,1.675-8.209,5.951-8.784,9.73-.732,4.782-4.192,6-7.855,7.279-.6.211-1.217.426-1.827.66-.269.1-1.034.475-2,.949A97.552,97.552,0,0,1,.115-.016ZM16.826-112.825c-4.618,3.094-7.778,8.957-9.934,18.425C3.347-78.823,3.608-59.337,3.912-36.774,3.69-31.115,2.938-24.413,2.137-17.32,1.544-12.053.933-6.612.457-.973A102.928,102.928,0,0,0,12.906-6.328c1.061-.516,1.766-.856,2.065-.975.625-.238,1.249-.455,1.852-.669,3.574-1.252,6.662-2.333,7.32-6.634.615-4.039,4.7-8.592,9.3-10.366a27.554,27.554,0,0,1,5.948-.927c5.875-.558,13.186-1.255,13.095-5.656l-.03-.169c-1.058-5.771-4.476-25.717-4.064-40a78.334,78.334,0,0,1,.6-8.387A34.469,34.469,0,0,0,43.5-104.368a26.475,26.475,0,0,0-3.231-3.978c-9.409-4.682-22.11-4.513-23.442-4.479" fill="#2d2e35"/>
      </g>
    </g>
    <g id="Grupo_875" data-name="Grupo 875" clip-path="url(#clip-path)">
      <g id="Grupo_857" data-name="Grupo 857" transform="translate(18.323 -90.801)">
        <path id="Trazado_1156" data-name="Trazado 1156" d="M0,0S13.688-.511,23.793,4.541l-.006-.014-1.131-1.9a13.5,13.5,0,0,0-7.8-6.046L7.633-5.542c-1.407-.412-4.107-.214-4.873,1.2L0,0Z" fill="#dee0de"/>
      </g>
      <g id="Grupo_858" data-name="Grupo 858" transform="translate(42.11 -85.854)">
        <path id="Trazado_1157" data-name="Trazado 1157" d="M0,0-.176-.041c-9.9-4.949-23.46-4.5-23.594-4.5a.408.408,0,0,1-.385-.233.409.409,0,0,1,.041-.419L-21.371-9.5c.906-1.678,3.908-1.79,5.334-1.376l7.224,2.124A13.869,13.869,0,0,1-.782-2.528l1.13,1.9A.417.417,0,0,1,.3-.136.41.41,0,0,1,0,0M-22.807-5.366c3.194,0,13.457.31,21.783,4.02l-.457-.766A13.061,13.061,0,0,0-9.042-7.973L-16.266-10.1c-1.342-.391-3.783-.141-4.4,1l-2.364,3.727Z" fill="#2d2e35"/>
      </g>
      <g id="Grupo_859" data-name="Grupo 859" transform="translate(13.837 -60.647)">
        <path id="Trazado_1158" data-name="Trazado 1158" d="M0,0C-.712,4.033-1.83,12.45,0,15.106a1.568,1.568,0,0,0,1.237.763c2.565.14,4.446,3.4,5.637,6.4-.233-1.582-.449-3.111-.57-4.27A24.631,24.631,0,0,0,3.1,8.223,28.782,28.782,0,0,1,0,0" fill="#aeaeaf"/>
      </g>
      <g id="Grupo_860" data-name="Grupo 860" transform="translate(20.706 -38.377)">
        <path id="Trazado_1159" data-name="Trazado 1159" d="M0,0C-1.191-3-3.071-6.26-5.636-6.4a1.565,1.565,0,0,1-1.237-.762C-8.7-9.82-7.582-18.237-6.87-22.27a28.8,28.8,0,0,0,3.1,8.223A24.658,24.658,0,0,1-.57-4.27C-.448-3.111-.232-1.582,0,0M-6.816-24.98a.4.4,0,0,0-.356.22c-.228.435-2.948,13.578-.542,17.793A2.449,2.449,0,0,0-5.68-5.588C-2.114-5.39.334,3.063.747,5.141a.41.41,0,0,0,.4.328l.065,0a.408.408,0,0,0,.338-.454c-.136-1.056-.337-2.375-.545-3.776C.706-.789.393-2.882.243-4.352A25.618,25.618,0,0,0-3.042-14.418a26.856,26.856,0,0,1-3.368-10.2.4.4,0,0,0-.33-.353.4.4,0,0,0-.076-.008" fill="#aeaeaf"/>
      </g>
      <g id="Grupo_861" data-name="Grupo 861" transform="translate(88.727 -38.708)">
        <path id="Trazado_1160" data-name="Trazado 1160" d="M0,0-.191.409A5.752,5.752,0,0,1-5.539,3.69l-14.923-.063s-34.826,9.7-40.063,10.715S-67.182,3.533-67.182,3.533L-69.9-16.853a25.485,25.485,0,0,0,15.329-2.241h0c.167,7.043.051,20.679.051,20.679L-22.4-2.695l7.246-8.836a1.362,1.362,0,0,1,1.542-.267l.044.025a1.35,1.35,0,0,1,.424,2.058l-3.275,3.932,9.94-2.278A5.754,5.754,0,0,1-.366-5.579a5.728,5.728,0,0,1,.9,2.741A5.666,5.666,0,0,1,0,0" fill="#ffc4aa"/>
      </g>
      <g id="Grupo_862" data-name="Grupo 862" transform="translate(27.569 -23.896)">
        <path id="Trazado_1161" data-name="Trazado 1161" d="M0,0A3.532,3.532,0,0,1-2.11-.72C-5.416-3.128-6.393-10.9-6.431-11.23L-9.142-31.614a.393.393,0,0,1,.115-.341.406.406,0,0,1,.342-.113A25.124,25.124,0,0,0,6.4-34.271l.2-.044a.413.413,0,0,1,.395.4c.147,6.235.075,17.761.057,20.223l31.49-4.193L45.688-26.6a1.776,1.776,0,0,1,2.032-.377l.07.037a1.754,1.754,0,0,1,.9,1.2,1.76,1.76,0,0,1-.361,1.472l-2.506,3,8.763-2.006a6.174,6.174,0,0,1,6.545,2.658,6.161,6.161,0,0,1,.972,2.936,6.16,6.16,0,0,1-.579,3.041l-.193.4a6.175,6.175,0,0,1-5.724,3.515l-14.86-.063C39.18-10.341,5.8-1.059.712-.071A3.619,3.619,0,0,1,0,0M-8.266-31.191l2.643,19.858c.01.082.971,7.757,4,9.956a2.664,2.664,0,0,0,2.184.5c5.161-1,39.681-10.609,40.032-10.706l.111-.014,14.925.063A5.348,5.348,0,0,0,60.6-14.577l.2-.409a5.3,5.3,0,0,0,.5-2.638,5.32,5.32,0,0,0-.842-2.546,5.36,5.36,0,0,0-5.678-2.306L44.829-20.2a.412.412,0,0,1-.439-.184.407.407,0,0,1,.036-.474L47.7-24.785a.941.941,0,0,0,.192-.79.937.937,0,0,0-.49-.647l-.056-.033a.949.949,0,0,0-1.055.2l-7.217,8.8a.413.413,0,0,1-.264.147L6.7-12.824a.4.4,0,0,1-.324-.1.405.405,0,0,1-.138-.306c0-.133.108-12.921-.041-20.034A25.974,25.974,0,0,1-8.266-31.191M61.157-14.812h0Z" fill="#2d2e35"/>
      </g>
      <g id="Grupo_863" data-name="Grupo 863" transform="translate(29.761 -32.515)">
        <path id="Trazado_1162" data-name="Trazado 1162" d="M0,0-.182-.043A.407.407,0,0,1-.364-.59a8.8,8.8,0,0,1,4.689-4.4.4.4,0,0,1,.513.261.407.407,0,0,1-.26.514A8.133,8.133,0,0,0,.364-.227.409.409,0,0,1,0,0" fill="#2d2e35"/>
      </g>
      <g id="Grupo_864" data-name="Grupo 864" transform="translate(37.811 -57.802)">
        <path id="Trazado_1163" data-name="Trazado 1163" d="M0,0A17.282,17.282,0,0,1-4.345,2.987,25.487,25.487,0,0,1-19.673,5.232c-.8-.119-1.628-.267-2.481-.456,0,0-8.23-25.614,6.815-28.649C.456-27.058,0,0,0,0" fill="#dee0de"/>
      </g>
      <g id="Grupo_865" data-name="Grupo 865" transform="translate(22.329 -51.862)">
        <path id="Trazado_1164" data-name="Trazado 1164" d="M0,0A30.119,30.119,0,0,1-4.251-.308c-.879-.13-1.7-.278-2.509-.456a.411.411,0,0,1-.3-.276A56.035,56.035,0,0,1-8.958-9.9c-.858-6.617-.24-11.758,1.827-15.285A10.347,10.347,0,0,1,.062-30.212a10.087,10.087,0,0,1,8.85,1.976c3.02,2.517,5.114,7.043,6.219,13.453a53.724,53.724,0,0,1,.759,8.849.407.407,0,0,1-.115.274A17.582,17.582,0,0,1,11.32-2.587,24.971,24.971,0,0,1,0,0M-6.353-1.512c.715.156,1.446.284,2.222.4a25.116,25.116,0,0,0,15.082-2.2,17.757,17.757,0,0,0,4.125-2.8c0-1.707-.2-16.092-6.686-21.492A9.3,9.3,0,0,0,.224-29.413a9.552,9.552,0,0,0-6.65,4.637c-4.413,7.525-.5,21.342.073,23.264M15.482-5.94h.005Z" fill="#2d2e35"/>
      </g>
      <g id="Grupo_866" data-name="Grupo 866" transform="translate(14.577 -57.206)">
        <path id="Trazado_1165" data-name="Trazado 1165" d="M0,0S12.81,2.068,23.074-4.551c0,0,1.846-1.192,1.694,3.955C24.687,2.127,8.195,6.889.535,4.94-1.166,4.376-1.451-1.634,0,0" fill="#ececec"/>
      </g>
      <g id="Grupo_867" data-name="Grupo 867" transform="translate(19.391 -51.411)">
        <path id="Trazado_1166" data-name="Trazado 1166" d="M0,0A18.253,18.253,0,0,1-4.381-.461c-1.23-.407-1.731-2.617-1.771-4-.035-1.124.185-1.788.65-1.973a.8.8,0,0,1,.883.26c1.378.189,13.2,1.588,22.661-4.511a1.215,1.215,0,0,1,1.217-.034c.813.456,1.173,1.879,1.1,4.343A2.188,2.188,0,0,1,19.29-4.842C16.289-2.581,6.953,0,0,0M-5.215-5.619A5.35,5.35,0,0,0-5.134-2.98c.23.948.606,1.612.985,1.739C2.253.386,15.21-2.789,18.8-5.494c.668-.5.746-.8.749-.91.089-2.942-.5-3.507-.687-3.61a.393.393,0,0,0-.373.011C8.2-3.376-4.749-5.372-4.878-5.393a.409.409,0,0,1-.238-.131Z" fill="#2d2e35"/>
      </g>
      <g id="Grupo_868" data-name="Grupo 868" transform="translate(28.517 -37.743)">
        <path id="Trazado_1167" data-name="Trazado 1167" d="M0,0-.184-.044-4.018-1.989a.409.409,0,0,1-.18-.546.409.409,0,0,1,.549-.181l3.49,1.77,2.521-4.36a.4.4,0,0,1,.556-.149.411.411,0,0,1,.149.557L.354-.2A.412.412,0,0,1,0,0" fill="#2d2e35"/>
      </g>
      <g id="Grupo_869" data-name="Grupo 869" transform="translate(20.477 -45.908)">
        <path id="Trazado_1168" data-name="Trazado 1168" d="M0,0-.382-.148l-.354-.2.048-.089A3.7,3.7,0,0,1,1.476-2.294a3.729,3.729,0,0,1,2.868.219l.915.461.5-.864A3.722,3.722,0,0,1,8.041-4.226a3.728,3.728,0,0,1,2.847.38A3.76,3.76,0,0,1,12.759-.631a.405.405,0,0,1-.4.411h0a.412.412,0,0,1-.411-.4A2.932,2.932,0,0,0,10.481-3.14a2.919,2.919,0,0,0-2.232-.3A2.92,2.92,0,0,0,6.466-2.07l-.7,1.2a.41.41,0,0,1-.536.16L3.976-1.348A2.937,2.937,0,0,0,1.73-1.52,2.9,2.9,0,0,0,.031-.055ZM-.382-.148h.007Z" fill="#2d2e35"/>
      </g>
      <g id="Grupo_870" data-name="Grupo 870" transform="translate(22.017 -38.141)">
        <path id="Trazado_1169" data-name="Trazado 1169" d="M0,0A.911.911,0,0,1-.38-.081.972.972,0,0,1-.935-.788,1.379,1.379,0,0,1-.61-1.968a2.22,2.22,0,0,1,.732-.5c-.258-.848-.51-1.7-.762-2.552a3.5,3.5,0,0,1-.769.379A.409.409,0,0,1-1.927-4.9a.411.411,0,0,1,.255-.519,2.565,2.565,0,0,0,.781-.43L-.9-5.882a1.884,1.884,0,0,1-.079-1.1A1.018,1.018,0,0,1-.4-7.62.788.788,0,0,1,.3-7.585a.9.9,0,0,1,.417.939,1.546,1.546,0,0,1-.369.72c-.1.123-.2.232-.3.338l.091.3c.249.837.5,1.675.748,2.508a5.365,5.365,0,0,0,1.242-.771A2.7,2.7,0,0,1,1.63-5.955a1.235,1.235,0,0,1,1.283-.972A1.366,1.366,0,0,1,4.088-5.478a2.292,2.292,0,0,1-.04.444,5.785,5.785,0,0,0,.4-2.066,5.865,5.865,0,0,1,.032-.689.406.406,0,0,1,.43-.361.4.4,0,0,1,.38.414c0,.216-.013.429-.026.648a5.008,5.008,0,0,0,.376,1.775,1.725,1.725,0,0,0,.136.264,3.557,3.557,0,0,0,.4-1.005c.09-.315.157-.587.22-.85.084-.36.164-.7.3-1.128a.4.4,0,0,1,.487-.277.406.406,0,0,1,.3.472,2.119,2.119,0,0,0-.045.915.472.472,0,0,0,.306.376h.213A1.592,1.592,0,0,1,7.9-6.907a3.182,3.182,0,0,1,.145-.857c.128-.438.323-.687.581-.741a.521.521,0,0,1,.513.192c.508.61-.106,1.837-.106,1.837l-.038.068.147.037c.786-.064,1.3-.89,1.268-2.009A.4.4,0,0,1,10.8-8.8a.4.4,0,0,1,.421.395c.053,1.574-.772,2.749-2.011,2.845a1.094,1.094,0,0,1-.818-.283,1.228,1.228,0,0,1-.867.081,1.153,1.153,0,0,1-.5-.288l-.061.217a2.794,2.794,0,0,1-.88,1.625.6.6,0,0,1-.657-.022A1.753,1.753,0,0,1,4.9-4.967a3.68,3.68,0,0,1-.467.9,1.967,1.967,0,0,1-1.48.869A6.208,6.208,0,0,1,1.118-1.99h0A2.17,2.17,0,0,1,1.13-.907,1.324,1.324,0,0,1,.445-.1,1.053,1.053,0,0,1,0,0M.344-1.671a1.158,1.158,0,0,0-.354.257.569.569,0,0,0-.13.457c.025.1.073.123.086.131L.1-.84a.5.5,0,0,0,.247-.291,1.2,1.2,0,0,0,0-.54M2.812-6.115c-.111,0-.291.039-.4.395a1.874,1.874,0,0,0,.287,1.6,2.152,2.152,0,0,0,.573-1.352c0-.25-.132-.621-.415-.639Zm-2.92-.762L-.2-6.75l-.013.217a.563.563,0,0,0,.122-.243Z" fill="#2d2e35"/>
      </g>
      <g id="Grupo_871" data-name="Grupo 871" transform="translate(62.207 -40.854)">
        <path id="Trazado_1170" data-name="Trazado 1170" d="M0,0S-.346,4.369,1.827,6.947l-3.9,1.078S-4.516,5.833-3.668.489Z" fill="#566267"/>
      </g>
      <g id="Grupo_872" data-name="Grupo 872" transform="translate(60.131 -32.422)">
        <path id="Trazado_1171" data-name="Trazado 1171" d="M0,0A.4.4,0,0,1-.273-.1c-.1-.1-2.6-2.406-1.718-7.905a.4.4,0,0,1,.346-.339l3.667-.488a.406.406,0,0,1,.335.107.419.419,0,0,1,.128.329c0,.041-.308,4.233,1.727,6.652a.4.4,0,0,1,.081.384.411.411,0,0,1-.281.271L.107-.013ZM-1.234-7.58C-1.8-3.511-.348-1.424.13-.864l3.087-.853A11.33,11.33,0,0,1,1.65-7.964Z" fill="#2d2e35"/>
      </g>
      <g id="Grupo_873" data-name="Grupo 873" transform="translate(58.998 -35.067)">
        <path id="Trazado_1172" data-name="Trazado 1172" d="M0,0,3.647-1.1A1.217,1.217,0,0,1,5.118-.4L5.661.888a1.221,1.221,0,0,1-.753,1.634L1.357,3.653A1.218,1.218,0,0,1-.111,3.021L-.749,1.692A1.217,1.217,0,0,1,0,0" fill="#41484e"/>
      </g>
      <g id="Grupo_874" data-name="Grupo 874" transform="translate(59.991 -30.951)">
        <path id="Trazado_1173" data-name="Trazado 1173" d="M0,0A1.634,1.634,0,0,1-1.471-.918l-.637-1.326A1.626,1.626,0,0,1-2.13-3.605a1.617,1.617,0,0,1,1.019-.9L2.537-5.6A1.625,1.625,0,0,1,4.5-4.676l.545,1.29a1.639,1.639,0,0,1-.025,1.313,1.637,1.637,0,0,1-.981.867L.488-.074A1.58,1.58,0,0,1,0,0M3-4.854l-.232.035L-.873-3.726a.794.794,0,0,0-.51.45.792.792,0,0,0,.01.679l.636,1.324a.819.819,0,0,0,.978.422l3.55-1.132a.787.787,0,0,0,.489-.433.8.8,0,0,0,.014-.652L3.751-4.357A.813.813,0,0,0,3-4.854m-4,.738h0Z" fill="#2d2e35"/>
      </g>
    </g>
  </g>
</svg>
