<svg xmlns="http://www.w3.org/2000/svg" xmlns:xlink="http://www.w3.org/1999/xlink" width="287.352" height="249.997" viewBox="0 0 287.352 249.997">
  <defs>
    <clipPath id="clip-path">
      <path id="Trazado_992" data-name="Trazado 992" d="M5.48,0H292.832V-250H5.48Z" fill="none"/>
    </clipPath>
    <clipPath id="clip-path-2">
      <rect id="Rectángulo_1" data-name="Rectángulo 1" width="239.553" height="239.553" transform="translate(46.454 -246.756)" fill="none"/>
    </clipPath>
    <clipPath id="clip-path-3">
      <path id="Trazado_991" data-name="Trazado 991" d="M46.454-7.2H286.006V-246.755H46.454Z" fill="none"/>
    </clipPath>
    <clipPath id="clip-path-5">
      <rect id="Rectángulo_2" data-name="Rectángulo 2" width="230.961" height="164.397" transform="translate(45.424 -215.056)" fill="none"/>
    </clipPath>
    <clipPath id="clip-path-7">
      <rect id="Rectángulo_3" data-name="Rectángulo 3" width="100.326" height="118.365" transform="translate(44.83 -162.403)" fill="none"/>
    </clipPath>
    <clipPath id="clip-path-8">
      <rect id="Rectángulo_4" data-name="Rectángulo 4" width="7.119" height="71.51" transform="translate(44.497 -162.988)" fill="none"/>
    </clipPath>
    <clipPath id="clip-path-9">
      <path id="Trazado_1003" data-name="Trazado 1003" d="M65.683-183.247h28.9V-209.9h-28.9Z" fill="none"/>
    </clipPath>
    <clipPath id="clip-path-10">
      <path id="Trazado_1006" data-name="Trazado 1006" d="M65.683-168.371h28.9v-26.647h-28.9Z" fill="none"/>
    </clipPath>
    <clipPath id="clip-path-11">
      <path id="Trazado_1009" data-name="Trazado 1009" d="M65.683-141.015h28.9v-26.647h-28.9Z" fill="none"/>
    </clipPath>
    <clipPath id="clip-path-12">
      <path id="Trazado_1012" data-name="Trazado 1012" d="M65.683-112.481h28.9v-26.647h-28.9Z" fill="none"/>
    </clipPath>
    <clipPath id="clip-path-13">
      <path id="Trazado_1015" data-name="Trazado 1015" d="M65.683-81.206h28.9v-26.648h-28.9Z" fill="none"/>
    </clipPath>
  </defs>
  <g id="Grupo_732" data-name="Grupo 732" transform="translate(-817 -415.092)">
    <g id="Grupo_731" data-name="Grupo 731">
      <g id="Grupo_730" data-name="Grupo 730">
        <g id="Grupo_729" data-name="Grupo 729" transform="translate(811.52 665.089)">
          <g id="Grupo_696" data-name="Grupo 696" clip-path="url(#clip-path)">
            <g id="Grupo_695" data-name="Grupo 695" opacity="0.38">
              <g id="Grupo_694" data-name="Grupo 694">
                <g id="Grupo_693" data-name="Grupo 693" clip-path="url(#clip-path-2)">
                  <g id="Grupo_692" data-name="Grupo 692" clip-path="url(#clip-path-3)">
                    <g id="Grupo_691" data-name="Grupo 691" transform="translate(286.006 -126.979)">
                      <path id="Trazado_990" data-name="Trazado 990" d="M0,0A119.775,119.775,0,0,1-119.776,119.776,119.775,119.775,0,0,1-239.552,0,119.776,119.776,0,0,1-119.776-119.776,119.776,119.776,0,0,1,0,0" fill="#cef1fc"/>
                    </g>
                  </g>
                </g>
              </g>
            </g>
          </g>
          <g id="Grupo_697" data-name="Grupo 697" transform="translate(281.835 -220.09)">
            <path id="Trazado_993" data-name="Trazado 993" d="M0,0,1.05,183.026l-244.243,1.4L-244.243,1.4Z" fill="#3f8ea6"/>
          </g>
          <g id="Grupo_702" data-name="Grupo 702" clip-path="url(#clip-path)">
            <g id="Grupo_701" data-name="Grupo 701" opacity="0.26">
              <g id="Grupo_700" data-name="Grupo 700">
                <g id="Grupo_699" data-name="Grupo 699" clip-path="url(#clip-path-5)">
                  <g id="Grupo_698" data-name="Grupo 698" transform="translate(276.347 -215.056)">
                    <path id="Trazado_994" data-name="Trazado 994" d="M0,0-230.923,5.553l2.2,7.5L-4.033,164.4l-.016-2.74L.037,0Z" fill="#020407"/>
                  </g>
                </g>
              </g>
            </g>
          </g>
          <g id="Grupo_703" data-name="Grupo 703" transform="translate(271.395 -210.799)">
            <path id="Trazado_996" data-name="Trazado 996" d="M0,0,.944,164.565l-225.972,1.3L-225.972,1.3Z" fill="#fffcef"/>
          </g>
          <g id="Grupo_713" data-name="Grupo 713" clip-path="url(#clip-path)">
            <g id="Grupo_707" data-name="Grupo 707" opacity="0.05">
              <g id="Grupo_706" data-name="Grupo 706">
                <g id="Grupo_705" data-name="Grupo 705" clip-path="url(#clip-path-7)">
                  <g id="Grupo_704" data-name="Grupo 704" transform="translate(45.509 -44.038)">
                    <path id="Trazado_997" data-name="Trazado 997" d="M0,0,99.646-.376-.679-118.365Z" fill="#020407"/>
                  </g>
                </g>
              </g>
            </g>
            <g id="Grupo_711" data-name="Grupo 711" opacity="0.12">
              <g id="Grupo_710" data-name="Grupo 710">
                <g id="Grupo_709" data-name="Grupo 709" clip-path="url(#clip-path-8)">
                  <g id="Grupo_708" data-name="Grupo 708" transform="translate(51.206 -162.987)">
                    <path id="Trazado_998" data-name="Trazado 998" d="M0,0-6.709.038V.195l.41,71.314L.41,71.471Z" fill="#020407"/>
                  </g>
                </g>
              </g>
            </g>
            <g id="Grupo_712" data-name="Grupo 712" transform="translate(24.647 -136.514)">
              <path id="Trazado_999" data-name="Trazado 999" d="M0,0,.108,18.831A3.509,3.509,0,0,1-3.371,22.35a3.51,3.51,0,0,1-3.52-3.479L-7,.04a3.512,3.512,0,0,1,3.48-3.52A3.511,3.511,0,0,1,0,0M-.361-11.669l.007,1.109-.747,0c-7.045.04-12.717,6.631-12.671,14.722l.062,10.657c.046,8.09,5.793,14.616,12.837,14.576l.748,0L-.119,30.5c.047,8.09,5.8,14.616,12.839,14.576L26.969,45l-.41-71.47-14.249.081C5.266-26.352-.407-19.76-.361-11.669" fill="#aed5d2"/>
            </g>
          </g>
          <g id="Grupo">
            <text id="Criterio_1._Diagnósticos" data-name="Criterio 1. Diagnósticos" transform="translate(99.59 -190.407)" fill="#2b2e34" font-size="12" font-family="MyriadPro-Regular, Myriad Pro"><tspan x="0" y="0">Criterio 1. Diagnósticos</tspan></text>
            <text id="Criterio_2._Exámenes_clínicos_y_" data-name="Criterio 2. Exámenes clínicos y " transform="translate(99.59 -176.007)" fill="#2b2e34" font-size="12" font-family="MyriadPro-Regular, Myriad Pro"><tspan x="0" y="0">Criterio 2. Exámenes clínicos y </tspan></text>
            <text id="paraclínicos" transform="translate(99.59 -161.607)" fill="#2b2e34" font-size="12" font-family="MyriadPro-Regular, Myriad Pro"><tspan x="0" y="0">paraclínicos</tspan></text>
            <text id="Criterio_3._Causas_de_la_deficien" data-name="Criterio 3. Causas de la deficien" transform="translate(99.59 -147.207)" fill="#2b2e34" font-size="12" font-family="MyriadPro-Regular, Myriad Pro"><tspan x="0" y="0">Criterio 3. Causas de la deficien</tspan></text>
            <text id="_-" data-name="-" transform="translate(253.803 -147.207)" fill="#2b2e34" font-size="12" font-family="MyriadPro-Regular, Myriad Pro"><tspan x="0" y="0">-</tspan></text>
            <text id="cia" transform="translate(99.59 -132.807)" fill="#2b2e34" font-size="12" font-family="MyriadPro-Regular, Myriad Pro"><tspan x="0" y="0">cia</tspan></text>
            <text id="Criterio_4.1_F" data-name="Criterio 4.1 F" transform="translate(99.59 -118.407)" fill="#2b2e34" font-size="12" font-family="MyriadPro-Regular, Myriad Pro"><tspan x="0" y="0">Criterio 4.1 F</tspan></text>
            <text id="unciones_corporales" data-name="unciones corporales" transform="translate(161.881 -118.407)" fill="#2b2e34" font-size="12" font-family="MyriadPro-Regular, Myriad Pro"><tspan x="0" y="0">unciones corporales</tspan></text>
            <text id="Criterio_4.2_Estructuras_corpora" data-name="Criterio 4.2 Estructuras corpora" transform="translate(99.59 -104.007)" fill="#2b2e34" font-size="12" font-family="MyriadPro-Regular, Myriad Pro"><tspan x="0" y="0">Criterio 4.2 Estructuras corpora</tspan></text>
            <text id="_--2" data-name="-" transform="translate(253.589 -104.007)" fill="#2b2e34" font-size="12" font-family="MyriadPro-Regular, Myriad Pro"><tspan x="0" y="0">-</tspan></text>
            <text id="les" transform="translate(99.59 -89.607)" fill="#2b2e34" font-size="12" font-family="MyriadPro-Regular, Myriad Pro"><tspan x="0" y="0">les</tspan></text>
          </g>
          <g id="Grupo_716" data-name="Grupo 716" clip-path="url(#clip-path-9)">
            <g id="Grupo_714" data-name="Grupo 714" transform="translate(82.362 -189.554)">
              <path id="Trazado_1001" data-name="Trazado 1001" d="M0,0-9.819.056l-.057-9.819,9.819-.056L0,0M.508-10.964l-10.961.062a.58.58,0,0,0-.568.575L-10.958.634a.579.579,0,0,0,.574.567L.577,1.139A.529.529,0,0,0,.962.984L.982.965.992.954a.529.529,0,0,0,.153-.39L1.082-10.4a.578.578,0,0,0-.574-.567" fill="#779396"/>
            </g>
            <g id="Grupo_715" data-name="Grupo 715" transform="translate(75.625 -196.329)">
              <path id="Trazado_1002" data-name="Trazado 1002" d="M0,0,2.514-.854,3.928,1.657,15.915-7.089l1.4.272L3.386,4.739Z" fill="#40bc97"/>
            </g>
          </g>
          <g id="Grupo_719" data-name="Grupo 719" clip-path="url(#clip-path-10)">
            <g id="Grupo_717" data-name="Grupo 717" transform="translate(82.362 -174.677)">
              <path id="Trazado_1004" data-name="Trazado 1004" d="M0,0-9.819.056l-.057-9.819,9.819-.056L0,0M.508-10.964l-10.961.062a.58.58,0,0,0-.568.575L-10.958.634a.579.579,0,0,0,.574.567L.577,1.139A.529.529,0,0,0,.962.984L.982.965.992.954a.529.529,0,0,0,.153-.39L1.082-10.4a.578.578,0,0,0-.574-.567" fill="#779396"/>
            </g>
            <g id="Grupo_718" data-name="Grupo 718" transform="translate(75.625 -181.453)">
              <path id="Trazado_1005" data-name="Trazado 1005" d="M0,0,2.514-.854,3.928,1.657,15.915-7.089l1.4.272L3.386,4.739Z" fill="#40bc97"/>
            </g>
          </g>
          <g id="Grupo_722" data-name="Grupo 722" clip-path="url(#clip-path-11)">
            <g id="Grupo_720" data-name="Grupo 720" transform="translate(82.362 -147.321)">
              <path id="Trazado_1007" data-name="Trazado 1007" d="M0,0-9.819.056l-.057-9.819,9.819-.056L0,0M.508-10.964l-10.961.062a.58.58,0,0,0-.568.575L-10.958.634a.579.579,0,0,0,.574.567L.577,1.139A.529.529,0,0,0,.962.984L.982.965.992.954a.529.529,0,0,0,.153-.39L1.082-10.4a.578.578,0,0,0-.574-.567" fill="#779396"/>
            </g>
            <g id="Grupo_721" data-name="Grupo 721" transform="translate(75.625 -154.096)">
              <path id="Trazado_1008" data-name="Trazado 1008" d="M0,0,2.514-.854,3.928,1.657,15.915-7.089l1.4.272L3.386,4.739Z" fill="#40bc97"/>
            </g>
          </g>
          <g id="Grupo_725" data-name="Grupo 725" clip-path="url(#clip-path-12)">
            <g id="Grupo_723" data-name="Grupo 723" transform="translate(82.362 -118.787)">
              <path id="Trazado_1010" data-name="Trazado 1010" d="M0,0-9.819.056l-.057-9.819,9.819-.056L0,0M.508-10.964l-10.961.062a.58.58,0,0,0-.568.575L-10.958.634a.579.579,0,0,0,.574.567L.577,1.139A.529.529,0,0,0,.962.984L.982.965.992.954a.529.529,0,0,0,.153-.39L1.082-10.4a.578.578,0,0,0-.574-.567" fill="#779396"/>
            </g>
            <g id="Grupo_724" data-name="Grupo 724" transform="translate(75.625 -125.563)">
              <path id="Trazado_1011" data-name="Trazado 1011" d="M0,0,2.514-.854,3.928,1.657,15.915-7.089l1.4.272L3.386,4.739Z" fill="#40bc97"/>
            </g>
          </g>
          <g id="Grupo_728" data-name="Grupo 728" clip-path="url(#clip-path-13)">
            <g id="Grupo_726" data-name="Grupo 726" transform="translate(82.362 -87.513)">
              <path id="Trazado_1013" data-name="Trazado 1013" d="M0,0-9.819.056l-.057-9.819,9.819-.056L0,0M.508-10.964l-10.961.062a.58.58,0,0,0-.568.575L-10.958.634a.579.579,0,0,0,.574.567L.577,1.139A.529.529,0,0,0,.962.984L.982.965.992.954a.529.529,0,0,0,.153-.39L1.082-10.4a.578.578,0,0,0-.574-.567" fill="#779396"/>
            </g>
            <g id="Grupo_727" data-name="Grupo 727" transform="translate(75.625 -94.288)">
              <path id="Trazado_1014" data-name="Trazado 1014" d="M0,0,2.514-.854,3.928,1.657,15.915-7.089l1.4.272L3.386,4.739Z" fill="#40bc97"/>
            </g>
          </g>
        </g>
      </g>
    </g>
  </g>
</svg>
