<svg xmlns="http://www.w3.org/2000/svg" xmlns:xlink="http://www.w3.org/1999/xlink" width="129.572" height="212.173" viewBox="0 0 129.572 212.173">
  <defs>
    <clipPath id="clip-path">
      <path id="Trazado_1034" data-name="Trazado 1034" d="M0,0H129.572V-212.173H0Z" fill="none"/>
    </clipPath>
    <clipPath id="clip-path-2">
      <rect id="Rect치ngulo_1" data-name="Rect치ngulo 1" width="126.709" height="30.236" transform="translate(2.863 201.522)" fill="none"/>
    </clipPath>
    <clipPath id="clip-path-3">
      <path id="Trazado_991" data-name="Trazado 991" d="M2.863,231.758H129.572V201.522H2.863Z" fill="none"/>
    </clipPath>
    <clipPath id="clip-path-4">
      <rect id="Rect치ngulo_2" data-name="Rect치ngulo 2" width="22.531" height="30.421" transform="translate(52.873 -137.824)" fill="none"/>
    </clipPath>
    <clipPath id="clip-path-5">
      <path id="Trazado_1007" data-name="Trazado 1007" d="M52.873-107.4H75.4v-30.421H52.873Z" fill="none"/>
    </clipPath>
  </defs>
  <g id="Grupo_742" data-name="Grupo 742" transform="translate(0 212.173)">
    <g id="Grupo_741" data-name="Grupo 741" clip-path="url(#clip-path)">
      <g id="Grupo_695" data-name="Grupo 695" opacity="0.18" style="mix-blend-mode: darken;isolation: isolate">
        <g id="Grupo_694" data-name="Grupo 694">
          <g id="Grupo_693" data-name="Grupo 693" clip-path="url(#clip-path-2)">
            <g id="Grupo_692" data-name="Grupo 692" clip-path="url(#clip-path-3)">
              <g id="Grupo_691" data-name="Grupo 691" transform="translate(129.572 216.639)">
                <path id="Trazado_990" data-name="Trazado 990" d="M0,0C0,8.35-28.364,15.119-63.355,15.119S-126.709,8.35-126.709,0s28.365-15.116,63.354-15.116S0-8.348,0,0" fill="#9a9b9f"/>
              </g>
            </g>
          </g>
        </g>
      </g>
      <g id="Grupo_696" data-name="Grupo 696" transform="translate(13.167 22.092)">
        <path id="Trazado_992" data-name="Trazado 992" d="M0,0C-1.334,4.862-2.955,7.626-.858,9.342S.8,18.393.613,22.013s-11.288.765-11.288.765A188.153,188.153,0,0,1-8.863-.476C-6.479-.476,0,0,0,0" fill="#ffa57a"/>
      </g>
      <g id="Grupo_697" data-name="Grupo 697" transform="translate(2.915 34.895)">
        <path id="Trazado_993" data-name="Trazado 993" d="M0,0C.063,5.845-1.335,13.914-.065,16.073S7.178,27.828,8.2,27.575s.381-2.542.381-2.542c2.035,2.16,4.573,3.432,3.939-2.415-1.651-4.064-2.8-5.717-2.8-6.735,3.178,4.7,3.431,7.117,4.7,6.989s-1.143-6.1-2.795-8.64,0-11.309-.889-14.106S0,0,0,0" fill="#ffa57a"/>
      </g>
      <g id="Grupo_698" data-name="Grupo 698" transform="translate(6.401 40.105)">
        <path id="Trazado_994" data-name="Trazado 994" d="M0,0C.12-.08.964,1.03,1.608,3.163c.36,1.039.621,2.353,1.155,3.622A10.035,10.035,0,0,0,3.8,8.694a4.386,4.386,0,0,0,.7.807,1.116,1.116,0,0,0,.18.137c.042.03.029.017.036.021s.012,0,.012-.009a3.778,3.778,0,0,0,.086-.838,13.632,13.632,0,0,0-.077-1.445A29.034,29.034,0,0,0,4.266,4.42c-.1-.474-.208-.938-.324-1.39S3.7,2.165,3.59,1.651A16.3,16.3,0,0,1,3.7-3.331a6.18,6.18,0,0,0-.272-3.025c-.275-.671-.555-1.01-.464-1.091.045-.05.465.153.942.836a5.721,5.721,0,0,1,.778,3.327,18.773,18.773,0,0,0,.153,4.65,30.691,30.691,0,0,1,1.285,5.86A13.11,13.11,0,0,1,6.2,8.84a6.246,6.246,0,0,1-.072.844A2.3,2.3,0,0,1,5.6,10.806a1.277,1.277,0,0,1-1.137.2,2.206,2.206,0,0,1-.844-.508,5.449,5.449,0,0,1-.893-1.079A10.439,10.439,0,0,1,1.651,7.215a29.768,29.768,0,0,1-.9-3.826C.36,1.272-.171.094,0,0" fill="#db7f56"/>
      </g>
      <g id="Grupo_699" data-name="Grupo 699" transform="translate(87.798 88.141)">
        <path id="Trazado_995" data-name="Trazado 995" d="M0,0C.663,21.2.018,104.35,1.673,111.969s12.922,22.193,10.6,25.506S-4.951,125.549-7.934,116.607-20.52,7.62-20.52,7.62Z" fill="#ffa57a"/>
      </g>
      <g id="Grupo_700" data-name="Grupo 700" transform="translate(78.872 200.441)">
        <path id="Trazado_996" data-name="Trazado 996" d="M0,0C12.589,20.372,20.952,24.1,17.308,13.5c0,0,8.2,12.835,4.223,13.167-2.769.23-10.849-5.209-16.759-14.133l.2,3.45L2.65,13.995S1.6,9.086.968,5.355C.194,3.187-.262.848,0,0" fill="#151227"/>
      </g>
      <g id="Grupo_701" data-name="Grupo 701" transform="translate(47.879 91.122)">
        <path id="Trazado_997" data-name="Trazado 997" d="M0,0C0,12.919-.994,103.6-1.74,105.841s-13.666,16.232-28.573,15.238c-3.975-.993,13.913-13.251,17.641-18.717,1.242-18.634-7.7-92.921-8.7-105.591S0,0,0,0" fill="#ffa57a"/>
      </g>
      <g id="Grupo_702" data-name="Grupo 702" transform="translate(46.719 191.828)">
        <path id="Trazado_998" data-name="Trazado 998" d="M0,0C.827,3.478.7,6.875-2.443,18.8a5.407,5.407,0,0,1-2.486.5c-.064-2.93.622-4.844.746-8.695C-13.126,17.308-14.494,21.905-26,22.029c-4.829.053-10.931.829,0-6.957C-26.834,20.869-14.246,16.564,0,0" fill="#151227"/>
      </g>
      <g id="Grupo_703" data-name="Grupo 703" transform="translate(22.68 -118.845)">
        <path id="Trazado_999" data-name="Trazado 999" d="M0,0C5.962-5.466,14.411-7.287,26-3.478s19.214.828,25.839.5S68.24-1.822,72.215-1.16c11.6-7.453,1.324-53.334.663-57.143S31.8-86.13,24.845-84.141s-13.747,0-16.232,2.981.661,34.286-6.294,43.726S-10.6-11.1,0,0" fill="#301712"/>
      </g>
      <g id="Grupo_704" data-name="Grupo 704" transform="translate(85.082 -149.592)">
        <path id="Trazado_1000" data-name="Trazado 1000" d="M0,0C-.663,9.938-15.86,33.561-1.283,43.168c.993-5.962,3.975-11.759,10.932-8.944s14.905-.331,17.224-4.141C37.144,12.194,30.351-.394,24.058-8.675s-8.447-21.7-8.447-21.7L2.36-14.969" fill="#612715"/>
      </g>
      <g id="Grupo_705" data-name="Grupo 705" transform="translate(49.181 -196.197)">
        <path id="Trazado_1001" data-name="Trazado 1001" d="M0,0C-7.453-12.919-30.641-5.63-29.149,5.8s10.268,21.7.659,32.629-16.4,26.832-8.447,36.6,5.964,10.271,4.474,12.092c10.766-3.975,10.931-9.11,4.638-22.691s11.918-27.788,11.758-42.9C-16.233,5.632-10.765.829,0,0" fill="#612715"/>
      </g>
      <g id="Grupo_706" data-name="Grupo 706" transform="translate(30.465 -185.1)">
        <path id="Trazado_1002" data-name="Trazado 1002" d="M0,0C1.58,7.223,2.08,13.985.721,19.813a25.561,25.561,0,0,0,1.928-9.378C2.511-2.9,6.339-8.433,13.933-10.356,5.832-12.157-2.172-9.931,0,0" fill="#321b12"/>
      </g>
      <g id="Grupo_707" data-name="Grupo 707" transform="translate(93.503 166.321)">
        <path id="Trazado_1003" data-name="Trazado 1003" d="M0,0C-5.3,2.816-17.059,1.823-20.7.332-23.519-15.4-39.917-132.507-39.917-132.507S-44.225-5.469-44.39-2.818c-6.957,3.977-16.4.5-18.053-1.489-1.824-13.583-5.3-85.962-6.294-100.7s2.484-48.7,3.312-60.293,5.963-30.807,5.963-30.807a131.733,131.733,0,0,0,38.757-.165C-9.939-180.541.165-9.939,0,0" fill="#b9c0b7"/>
      </g>
      <g id="Grupo_708" data-name="Grupo 708" transform="translate(80.498 -104.035)">
        <path id="Trazado_1004" data-name="Trazado 1004" d="M0,0C-4.348-3.107-21.492-5.715-33.914,0-44.472,7.949-40.622,9.068-40,9.192S1.864,13.665,1.864,13.665" fill="#f3a5ae"/>
      </g>
      <g id="Grupo_709" data-name="Grupo 709" transform="translate(75.404 -137.824)">
        <path id="Trazado_1005" data-name="Trazado 1005" d="M0,0C-1.159,13.25-4.307,32.836,8.946,40.621,3.976,60-27.207,64.142-27.207,64.142s-6.457-22.361-3.643-26.833c10.6-2.319,10.1-13,10.6-27.743C-17.763,4.1,0,0,0,0" fill="#ffa57a"/>
      </g>
      <g id="Grupo_714" data-name="Grupo 714" opacity="0.5">
        <g id="Grupo_713" data-name="Grupo 713">
          <g id="Grupo_712" data-name="Grupo 712" clip-path="url(#clip-path-4)">
            <g id="Grupo_711" data-name="Grupo 711" clip-path="url(#clip-path-5)">
              <g id="Grupo_710" data-name="Grupo 710" transform="translate(52.873 -107.403)">
                <path id="Trazado_1006" data-name="Trazado 1006" d="M0,0C2.038-4.984,1.991-12.221,2.284-20.855c2.484-5.466,20.247-9.566,20.247-9.566C22-24.394,21.07-17.056,21.45-10.113A46.673,46.673,0,0,1,0,0" fill="#db7f56"/>
              </g>
            </g>
          </g>
        </g>
      </g>
      <g id="Grupo_715" data-name="Grupo 715" transform="translate(81.518 -96.264)">
        <path id="Trazado_1008" data-name="Trazado 1008" d="M0,0C-5.467,8.447-18.157,61.13-15.008,68.417c-21.036.827-32.024,0-32.024,0C-52.664,47.878-56.507,8.544-34.809-5.534c-1.656,8.944.495,18.177,2.981,19.668C-24.539,12.312-2.32-1.988,0,0" fill="#151227"/>
      </g>
      <g id="Grupo_716" data-name="Grupo 716" transform="translate(32.796 -181.427)">
        <path id="Trazado_1009" data-name="Trazado 1009" d="M0,0C1.242,15.652.994,25.093-1.74,37.268c-1.242,5.465-.5,13.415,18.634,24.6C19.751,63.231,48.82,56.4,52.671,32.546,56.64,7.966,48.7-11.677,33.789-14.659S1.242-15.9,0,0" fill="#ffa57a"/>
      </g>
      <g id="Grupo_717" data-name="Grupo 717" transform="translate(86.459 -158.653)">
        <path id="Trazado_1010" data-name="Trazado 1010" d="M0,0C4.225-6.5,12.423-1.655,9.773,5.3,7.031,12.5.252,13.375-3.352,9.648A26.945,26.945,0,0,1,0,0" fill="#ffa57a"/>
      </g>
      <g id="Grupo_718" data-name="Grupo 718" transform="translate(62.484 -153.477)">
        <path id="Trazado_1011" data-name="Trazado 1011" d="M0,0C-.207-.036-.325-1.255.289-3.175A7.061,7.061,0,0,1,2.274-6.2,7.5,7.5,0,0,1,6.4-7.937a22.516,22.516,0,0,1,4.186-.011,20.767,20.767,0,0,0,3.161.055c1.721-.127,2.419-1.081,2.654-.927.051.034.057.125.013.275a1.581,1.581,0,0,1-.316.6,3.9,3.9,0,0,1-2.11,1.289c-2.017.579-4.716.182-7.363.487a6.614,6.614,0,0,0-3.3,1.229A7,7,0,0,0,1.44-2.667C.615-1.091.269.057,0,0" fill="#010306"/>
      </g>
      <g id="Grupo_719" data-name="Grupo 719" transform="translate(72.914 -160.735)">
        <path id="Trazado_1012" data-name="Trazado 1012" d="M0,0A5.6,5.6,0,0,1,1.5,3.9C1.5,6.717-.337,9-2.6,9S-6.7,6.717-6.7,3.9A5.642,5.642,0,0,1-5.308.108C-3.54.031-1.77,0,0,0" fill="#010306"/>
      </g>
      <g id="Grupo_720" data-name="Grupo 720" transform="translate(52.755 -143.081)">
        <path id="Trazado_1013" data-name="Trazado 1013" d="M0,0C-.058.153-1.247.018-3.07-.789A5.615,5.615,0,0,1-4.5-1.74a2.379,2.379,0,0,1-.623-.94A1.942,1.942,0,0,1-5.086-4,4.951,4.951,0,0,1-3.653-5.763,3.652,3.652,0,0,0-2.437-7.1a7.955,7.955,0,0,0,.43-3.665c-.067-1.218-.215-2.332-.326-3.27-.235-1.877-.345-3.063-.153-3.106s.632,1.062,1.12,2.924A25.066,25.066,0,0,1-.73-10.874a8.245,8.245,0,0,1-.455,4.381,4.125,4.125,0,0,1-.741,1.058c-.332.317-.6.513-.851.716A4.254,4.254,0,0,0-3.9-3.516c-.362.589.575,1.407,1.314,1.869C-1.028-.691.079-.2,0,0" fill="#db7f56"/>
      </g>
      <g id="Grupo_721" data-name="Grupo 721" transform="translate(45.385 -153.572)">
        <path id="Trazado_1014" data-name="Trazado 1014" d="M0,0A3.091,3.091,0,0,1-2.583,2.085C-4.357,2.085-5.8-.2-5.8-3.009A6.337,6.337,0,0,1-4.453-7.136C-1.767-5.6-.6-2.925,0,0" fill="#010306"/>
      </g>
      <g id="Grupo_722" data-name="Grupo 722" transform="translate(43.603 -169.751)">
        <path id="Trazado_1015" data-name="Trazado 1015" d="M0,0C.144-.092-.1-.785-1-1.465A6.456,6.456,0,0,0-5.051-2.657,5.578,5.578,0,0,0-8.985-1.009c-.752.852-.849,1.564-.7,1.63C-9.5.727-9.1.239-8.337-.267A6.386,6.386,0,0,1-5-1.265,8.326,8.326,0,0,1-1.5-.619C-.643-.262-.167.128,0,0" fill="#301712"/>
      </g>
      <g id="Grupo_723" data-name="Grupo 723" transform="translate(63.935 -137.948)">
        <path id="Trazado_1016" data-name="Trazado 1016" d="M0,0C-4.719,7.951-18.223,21.454-17.973,3.395-16.9,2.9,0,0,0,0" fill="#ff4a30"/>
      </g>
      <g id="Grupo_724" data-name="Grupo 724" transform="translate(64.182 -138.528)">
        <path id="Trazado_1017" data-name="Trazado 1017" d="M0,0C-6.376,1.822-15.651.165-21.117.165c4.14,3.23,5.3,10.767,6.542,10.932C-10.6,11.1-4.224,5.466,0,0" fill="#fff"/>
      </g>
      <g id="Grupo_725" data-name="Grupo 725" transform="translate(63.769 -138.61)">
        <path id="Trazado_1018" data-name="Trazado 1018" d="M0,0C-4.389,1.16-17.309-2.733-22.857-.249-18.964.745-4.638,2.815,0,0" fill="#ff4a30"/>
      </g>
      <g id="Grupo_726" data-name="Grupo 726" transform="translate(62.112 -139.19)">
        <path id="Trazado_1019" data-name="Trazado 1019" d="M0,0C.109-.354,1.275-.3,2.439.371A4.285,4.285,0,0,1,3.78,1.451c.288.349.4.635.278.785-.262.317-1.221-.06-2.288-.644C.708.974-.124.379,0,0" fill="#db7f56"/>
      </g>
      <g id="Grupo_727" data-name="Grupo 727" transform="translate(45.404 -153.663)">
        <path id="Trazado_1020" data-name="Trazado 1020" d="M0,0C-.258.036-.555-.868-1.051-2.227-1.55-3.538-2.316-5.52-4-6.1c-1.732-.585-3.945.1-5.666-.492a2.549,2.549,0,0,1-1.575-1.362c-.187-.445-.151-.718-.051-.763.252-.145.732.8,1.925.9a11.783,11.783,0,0,0,2.413-.164,7.944,7.944,0,0,1,3.542.2A4.968,4.968,0,0,1-.65-5.238a8.7,8.7,0,0,1,.819,2.7C.379-.983.227-.029,0,0" fill="#010306"/>
      </g>
      <g id="Grupo_728" data-name="Grupo 728" transform="translate(72.672 85.658)">
        <path id="Trazado_1021" data-name="Trazado 1021" d="M0,0C10.186-.249,34.411-1.119,39.751-13.79,33.168-40,25.59-81.369,8.448-111.928c-2.114-6.337,10.062-22.113,14.533-35.529,4.349-14.782,7.373-29.938,7.041-30.434-1.823-1.739-18.469-5.343-18.469-5.343s-19.5,12.423-21.741,30.312.251,51.3,2.858,74.784S-5.466-8.448,0,0" fill="#ff9027"/>
      </g>
      <g id="Grupo_729" data-name="Grupo 729" transform="translate(80.332 -104.159)">
        <path id="Trazado_1022" data-name="Trazado 1022" d="M0,0C4.8,3.81,9.837,5.627,9.794,6.149,9.09,14.8.994,23.189,0,24.018A121.972,121.972,0,0,0-12.091,27.5c7.287,4.388,5.8,4.8,5.8,4.8C-13.25,38.261-19.047,56.48-18.219,72.878-22.526,45.384-26.583,36.687-1.326,5.632A6.641,6.641,0,0,0,0,0" fill="#e2791f"/>
      </g>
      <g id="Grupo_730" data-name="Grupo 730" transform="translate(28.655 -90.413)">
        <path id="Trazado_1023" data-name="Trazado 1023" d="M0,0C-9.028,7-6.959,38.1-14.578,56.316s-14.078,52.5-14.078,56.151c6.627,5.632,14.909,3.976,17.227,1.324C-4.472,94.577,2.319,59.3,4.307,47.7,1.406,30.726,0,0,0,0" fill="#f27b21"/>
      </g>
      <g id="Grupo_731" data-name="Grupo 731" transform="translate(34.906 -40.929)">
        <path id="Trazado_1024" data-name="Trazado 1024" d="M0,0C5.439,18.159-4.1,98.759,3.605,124.1c-6.213,1-15.282-6.459-16.524-8.944S-7.948,20.746-5.464,5.591s-9.565-24.97-2.61-51.305c5.466-4.473,5.094-1.368,5.094-1.368S-6.955-23.23,0,0" fill="#ff9027"/>
      </g>
      <g id="Grupo_732" data-name="Grupo 732" transform="translate(49.567 -105.154)">
        <path id="Trazado_1025" data-name="Trazado 1025" d="M0,0C-9.275,9.111-23.064,22.195-14.451,65.1-23.563,49.359-25.88,27-25.88,27s4.47-4.8,5.133-4.8c-3.311-2.485-5.3-3.478-4.8-4.637S-8.137-.869,0,0" fill="#e2791f"/>
      </g>
      <g id="Grupo_733" data-name="Grupo 733" transform="translate(82.486 14.103)">
        <path id="Trazado_1026" data-name="Trazado 1026" d="M0,0A98.5,98.5,0,0,1-7.2-7.826C-10.932,0-13.664,14.783-13.167,18.385c2.484,8.2,13.54,12.8,17.266,9.939C7.454,22.237,7.578,7.081,7.578,7.081S2.485,2.486,0,0" fill="#f27b21"/>
      </g>
      <g id="Grupo_734" data-name="Grupo 734" transform="translate(100.209 12.778)">
        <path id="Trazado_1027" data-name="Trazado 1027" d="M0,0C-3.562.911-13-6.213-11.429-10.271-8.281-12.175,1.907-9.36,0,0" fill="#f27b21"/>
      </g>
      <g id="Grupo_735" data-name="Grupo 735" transform="translate(95.404 0.603)">
        <path id="Trazado_1028" data-name="Trazado 1028" d="M0,0C-4.223,5.094-4.846,9.029-9.44,7.62-13.6,6.346-16.023,14-21.614,14.867c-1.863.869-.081,3.436,1.077,3.189s7.37-3.065,7.37-3.065a14.612,14.612,0,0,0,7.827,5.59C.871,15.489,6.213,6.42,6.213,6.42Z" fill="#ffa57a"/>
      </g>
      <g id="Grupo_736" data-name="Grupo 736" transform="translate(102.695 -92.233)">
        <path id="Trazado_1029" data-name="Trazado 1029" d="M0,0C.661,1.491,24.678,58.964,24.016,68.24S4.638,99.545-2.486,105.012c-1.658-8.365-11.428-10.271-11.428-10.271C-7.951,85.632,3.81,69.234,4.638,64.1S-8.827,33.156-9.773,31.139C-18.552,12.422-.663-1.491,0,0" fill="#e2791f"/>
      </g>
      <g id="Grupo_737" data-name="Grupo 737" transform="translate(32.464 8.14)">
        <path id="Trazado_1030" data-name="Trazado 1030" d="M0,0C-.167,4.969.331,21.533-.663,23.686s-6.293,6.956-7.122,6.625S-8.28,7.784-8.28,7.784Z" fill="#f27b21"/>
      </g>
      <g id="Grupo_738" data-name="Grupo 738" transform="translate(77.019 -17.7)">
        <path id="Trazado_1031" data-name="Trazado 1031" d="M0,0C-.095-.016-.108-.372-.05-1.01c.029-.32.076-.71.14-1.163s.2-.944.325-1.5A63.386,63.386,0,0,1,3.146-12.1c2.5-6.445,5.344-11.312,5.675-11.133s-1.9,5.258-4.378,11.641C3.2-8.4,2.088-5.509,1.359-3.4c-.19.525-.364,1-.517,1.419C.712-1.557.589-1.194.48-.9.262-.308.1.016,0,0" fill="#f27b21"/>
      </g>
      <g id="Grupo_739" data-name="Grupo 739" transform="translate(45.537 -195.036)">
        <path id="Trazado_1032" data-name="Trazado 1032" d="M0,0C2.153,11.263,3.81,22.525,15.736,26.169S39.422,26,38.925,28.654s-2.59,12.028.061,12.691c3.479-4.141,3.525-5.208,5.238-7.058,2.837-3.065,12.587-2.651,12.422-11.1S53.169-2.32,46.377-3.644,31.8-5.8,25.344-12.754.5-19.38-4.97-4.473C-2.65-5.8-.166-1.658,0,0" fill="#612715"/>
      </g>
      <g id="Grupo_740" data-name="Grupo 740" transform="translate(60.538 -170.245)">
        <path id="Trazado_1033" data-name="Trazado 1033" d="M0,0C.14.171.878-.3,2.146-.692a13.921,13.921,0,0,1,5.163-.475c4.136.328,7.349,1.7,7.516,1.332.2-.305-2.913-2.352-7.413-2.718A10.661,10.661,0,0,0,1.771-1.6C.437-.9-.111-.115,0,0" fill="#301712"/>
      </g>
    </g>
  </g>
</svg>
