<svg xmlns="http://www.w3.org/2000/svg" xmlns:xlink="http://www.w3.org/1999/xlink" width="128.066" height="127.564" viewBox="0 0 128.066 127.564">
  <defs>
    <clipPath id="clip-path">
      <path id="Trazado_997" data-name="Trazado 997" d="M53.345-183.154H181.411V-310.717H53.345Z" fill="none"/>
    </clipPath>
  </defs>
  <g id="Grupo_746" data-name="Grupo 746" transform="translate(-1124.345 -698.818)">
    <g id="Grupo_691" data-name="Grupo 691" transform="translate(1190.362 808.895)">
      <path id="Trazado_990" data-name="Trazado 990" d="M0,0Q.847-.095,1.684-.2" fill="none" stroke="#131015" stroke-width="2.337"/>
    </g>
    <g id="Grupo_692" data-name="Grupo 692" transform="translate(1194.738 807.856)">
      <path id="Trazado_991" data-name="Trazado 991" d="M0,0C24.29-6.8,40.9-24.6,39.184-42.021" fill="none" stroke="#131015" stroke-width="2.337" stroke-dasharray="3.649 3.649"/>
    </g>
    <g id="Grupo_693" data-name="Grupo 693" transform="translate(1233.728 764.485)">
      <path id="Trazado_992" data-name="Trazado 992" d="M0,0Q-.063-.839-.151-1.673" fill="none" stroke="#131015" stroke-width="2.337"/>
    </g>
    <g id="Grupo_698" data-name="Grupo 698" transform="translate(1071 1009.536)" clip-path="url(#clip-path)">
      <g id="Grupo_695" data-name="Grupo 695" transform="translate(64.161 -194.107)">
        <path id="Trazado_994" data-name="Trazado 994" d="M0,0C0-4.984,23.54-9.023,52.573-9.023S105.142-4.984,105.142,0,81.607,9.022,52.573,9.022,0,4.982,0,0" fill="#dee1e1"/>
      </g>
      <g id="Grupo_696" data-name="Grupo 696" transform="translate(95.691 -323.392)">
        <path id="Trazado_995" data-name="Trazado 995" d="M0,0-1.742,7.257l-7.575,5.009a1.078,1.078,0,0,0-.335,1.2l.015.038a1.075,1.075,0,0,0,1.593.5l3.371-2.27L-7.28,19.407A4.567,4.567,0,0,0-5.818,24.44a4.593,4.593,0,0,0,2.094.942,4.556,4.556,0,0,0,2.29-.195l.336-.121a4.574,4.574,0,0,0,3.032-3.957L3.1,9.306S4.189,6.527,5.71,2.629A16.16,16.16,0,0,0,0,0" fill="#ffc4aa"/>
      </g>
      <g id="Grupo_697" data-name="Grupo 697" transform="translate(92.739 -297.626)">
        <path id="Trazado_996" data-name="Trazado 996" d="M0,0A4.99,4.99,0,0,1-.824-.069,4.906,4.906,0,0,1-3.062-1.077,4.9,4.9,0,0,1-4.631-6.461l2.307-6.779L-4.914-11.5a1.4,1.4,0,0,1-1.192.168,1.386,1.386,0,0,1-.875-.818l-.014-.028a1.4,1.4,0,0,1,.431-1.57L.93-18.7,2.643-25.84a.32.32,0,0,1,.376-.238A16.37,16.37,0,0,1,8.842-23.4a.324.324,0,0,1,.117.378C7.547-19.4,6.5-16.743,6.363-16.385L5.2-4.625A4.9,4.9,0,0,1,1.963-.4l-.34.122A4.84,4.84,0,0,1,0,0M-1.72-14.351a.326.326,0,0,1,.2.065.318.318,0,0,1,.108.357L-4.026-6.256a4.266,4.266,0,0,0,1.36,4.683A4.261,4.261,0,0,0-.718-.7a4.24,4.24,0,0,0,2.129-.18L1.746-1A4.258,4.258,0,0,0,4.568-4.682l1.165-11.81a.354.354,0,0,1,.022-.085S6.8-19.242,8.274-23.016a15.85,15.85,0,0,0-5.085-2.37L1.52-18.434a.309.309,0,0,1-.133.193l-7.574,5.007a.751.751,0,0,0-.213.825l.008.017a.753.753,0,0,0,.475.453.754.754,0,0,0,.648-.09L-1.9-14.3a.31.31,0,0,1,.176-.055m2.93-4.157h0Z" fill="#2d2e35"/>
      </g>
    </g>
    <g id="Grupo_699" data-name="Grupo 699" transform="translate(1168.008 703.294)">
      <path id="Trazado_998" data-name="Trazado 998" d="M0,0A.19.19,0,0,1-.028,0c-3.706-.333-5.1-2.537-5.152-2.631a.305.305,0,0,1,.1-.421.308.308,0,0,1,.422.1A6.174,6.174,0,0,0,.028-.609.306.306,0,0,1,.306-.28.308.308,0,0,1,0,0" fill="#2d2e35"/>
    </g>
    <g id="Grupo_700" data-name="Grupo 700" transform="translate(1210.373 787.065)">
      <path id="Trazado_999" data-name="Trazado 999" d="M0,0A3.344,3.344,0,0,1-.092.927a4.447,4.447,0,0,1-2.08,2.218,16.793,16.793,0,0,1-1.792.867A6.586,6.586,0,0,0-7.223,6.351L-12,.534l7.973-6.552Z" fill="#ffc4aa"/>
    </g>
    <g id="Grupo_701" data-name="Grupo 701" transform="translate(1203.15 793.722)">
      <path id="Trazado_1000" data-name="Trazado 1000" d="M0,0A.294.294,0,0,1-.234-.112L-5.012-5.928a.3.3,0,0,1,.043-.432L3-12.909a.305.305,0,0,1,.239-.067.3.3,0,0,1,.21.132L7.477-6.828a.3.3,0,0,1,.051.176l0,.119a3.311,3.311,0,0,1-.1.888,4.884,4.884,0,0,1-2.22,2.4,16.76,16.76,0,0,1-1.7.826l-.126.056A6.366,6.366,0,0,0,.262-.147.3.3,0,0,1,.022,0H0M-4.347-6.083-.023-.815a7.5,7.5,0,0,1,3.157-2.11L3.26-2.98A15.948,15.948,0,0,0,4.9-3.774,4.431,4.431,0,0,0,6.839-5.81a2.756,2.756,0,0,0,.075-.733v-.023L3.13-12.224Z" fill="#2d2e35"/>
    </g>
    <g id="Grupo_702" data-name="Grupo 702" transform="translate(1222.613 794.702)">
      <path id="Trazado_1001" data-name="Trazado 1001" d="M0,0-4.545,5.926s-1.173-.738-2.317.748c-.967,1.263-.675,3.153-1.613,4.377-.391.512-1.059,1.379-1.882,2.454l-.419.551-1.488,1.932a2.113,2.113,0,0,1-1.678.824h-15.3a12.635,12.635,0,0,1,.28-2.756h14.7l.239-.316.676-.876.683-.9.05-.062L-6.391,3.8-3.42-.077l1.232-1.6Z" fill="#c7ac95"/>
    </g>
    <g id="Grupo_703" data-name="Grupo 703" transform="translate(1208.671 811.82)">
      <path id="Trazado_1002" data-name="Trazado 1002" d="M0,0H-15.3a.305.305,0,0,1-.3-.307,12.858,12.858,0,0,1,.288-2.824.3.3,0,0,1,.3-.238H-.469L1.092-5.4,11.51-18.985a.312.312,0,0,1,.2-.117.308.308,0,0,1,.224.06l2.19,1.682a.305.305,0,0,1,.057.426L9.64-11.006a.3.3,0,0,1-.4.073c-.1-.058-.981-.54-1.915.675a5.051,5.051,0,0,0-.763,2.1,5.5,5.5,0,0,1-.85,2.281c-.2.257-.464.605-.782,1.022l-3,3.912A2.438,2.438,0,0,1,0,0M-14.988-.611H0a1.827,1.827,0,0,0,1.437-.707l3-3.912c.322-.418.587-.765.784-1.022a4.9,4.9,0,0,0,.734-2.035,5.635,5.635,0,0,1,.877-2.343A2.117,2.117,0,0,1,9.3-11.568l4.211-5.494-1.7-1.307L-.077-2.879a.3.3,0,0,1-.242.121h-14.45a12.141,12.141,0,0,0-.219,2.147" fill="#2d2e35"/>
    </g>
    <g id="Grupo_704" data-name="Grupo 704" transform="translate(1190.638 785.102)">
      <path id="Trazado_1003" data-name="Trazado 1003" d="M0,0-1.141,11.567c-1.881.441-.737,1.1-3.2,1.1a8.828,8.828,0,0,1-3.316-.918c-.659-.3-1.278-.622-1.795-.9a4.538,4.538,0,0,0-1.211-.486v-6.9Z" fill="#ffc4aa"/>
    </g>
    <g id="Grupo_705" data-name="Grupo 705" transform="translate(1186.299 798.077)">
      <path id="Trazado_1004" data-name="Trazado 1004" d="M0,0A8.785,8.785,0,0,1-3.439-.947c-.654-.295-1.259-.608-1.815-.9A4.271,4.271,0,0,0-6.38-2.305a.3.3,0,0,1-.248-.3V-9.51a.307.307,0,0,1,.212-.29l10.66-3.466a.307.307,0,0,1,.284.051.312.312,0,0,1,.114.269L3.5-1.377a.311.311,0,0,1-.235.267,2.086,2.086,0,0,0-1.139.548C1.75-.213,1.418,0,0,0M-6.015-2.844a5.557,5.557,0,0,1,1.048.455c.545.288,1.142.6,1.777.885A8.37,8.37,0,0,0,0-.612c1.28,0,1.471-.176,1.713-.4a2.515,2.515,0,0,1,1.2-.64L3.989-12.54l-10,3.254Z" fill="#2d2e35"/>
    </g>
    <g id="Grupo_706" data-name="Grupo 706" transform="translate(1189.882 808.754)">
      <path id="Trazado_1005" data-name="Trazado 1005" d="M0,0V2.76H-7.468s-.131-1.378-2-1.378c-1.589,0-2.915,1.378-4.456,1.378H-32.947V0Z" fill="#c7ac95"/>
    </g>
    <g id="Grupo_707" data-name="Grupo 707" transform="translate(1189.882 811.82)">
      <path id="Trazado_1006" data-name="Trazado 1006" d="M0,0H-7.468a.3.3,0,0,1-.3-.276c-.013-.11-.171-1.1-1.7-1.1A5.073,5.073,0,0,0-11.6-.712,5.484,5.484,0,0,1-13.928,0H-32.947a.3.3,0,0,1-.3-.307V-3.066a.305.305,0,0,1,.3-.307H0a.306.306,0,0,1,.306.307V-.307A.306.306,0,0,1,0,0M-7.228-.611H-.307v-2.15H-32.64v2.15h18.712a4.966,4.966,0,0,0,2.062-.652A5.6,5.6,0,0,1-9.472-1.99,2.108,2.108,0,0,1-7.228-.611" fill="#2d2e35"/>
    </g>
    <g id="Grupo_708" data-name="Grupo 708" transform="translate(1189.885 808.754)">
      <path id="Trazado_1007" data-name="Trazado 1007" d="M0,0H-2.27L-9.019-9.706c.108-.1.211-.2.31-.3A24.158,24.158,0,0,0-6.9-11.9a8.818,8.818,0,0,0,3.316.918c2.461,0,1.316-.66,3.2-1.1v0C-.312-11.89,2.441-4.691,0,0" fill="#879a9a"/>
    </g>
    <g id="Grupo_709" data-name="Grupo 709" transform="translate(1189.885 809.06)">
      <path id="Trazado_1008" data-name="Trazado 1008" d="M0,0H-2.27a.309.309,0,0,1-.248-.131L-9.271-9.838a.307.307,0,0,1,.042-.4c.107-.1.206-.2.3-.293A25.34,25.34,0,0,0-7.139-12.4a.3.3,0,0,1,.362-.086,8.378,8.378,0,0,0,3.191.892c1.28,0,1.471-.176,1.713-.4a2.662,2.662,0,0,1,1.412-.692.308.308,0,0,1,.262.057.3.3,0,0,1,.105.154c.2.535,2.814,7.605.365,12.312A.3.3,0,0,1,0,0M-2.107-.612h1.92C1.822-4.73-.112-10.71-.58-12.026a1.869,1.869,0,0,0-.877.481c-.379.349-.711.562-2.129.562a8.446,8.446,0,0,1-3.231-.854c-.237.274-.764.854-1.679,1.741-.039.041-.081.081-.123.124Z" fill="#2d2e35"/>
    </g>
    <g id="Grupo_710" data-name="Grupo 710" transform="translate(1182.983 796.852)">
      <path id="Trazado_1009" data-name="Trazado 1009" d="M0,0A24.158,24.158,0,0,1-1.807,1.893c-.1.1-.2.2-.31.3-.877.842-2.06,1.913-3.614,3.22-.145.128-.3.253-.455.382-6.726,5.595-7.045-1.7-11.908-1.283,2.879-.45,6.015.009,8.72-1.216C-7.343,2.378-6.095.38-4.428-1.022A1.592,1.592,0,0,1-3.007-1.38a4.507,4.507,0,0,1,1.212.485C-1.278-.622-.66-.3,0,0" fill="#ececec"/>
    </g>
    <g id="Grupo_711" data-name="Grupo 711" transform="translate(1172.414 805.074)">
      <path id="Trazado_1010" data-name="Trazado 1010" d="M0,0A5.494,5.494,0,0,1-3.481-1.686C-4.646-2.647-5.739-3.552-7.5-3.4a.306.306,0,0,1-.33-.269.3.3,0,0,1,.257-.337,28.153,28.153,0,0,1,3.13-.255A14.838,14.838,0,0,0,1.069-5.2,10.467,10.467,0,0,0,4.257-7.821,21.127,21.127,0,0,1,5.944-9.479,1.911,1.911,0,0,1,7.622-9.9a4.79,4.79,0,0,1,1.295.516c.546.288,1.142.6,1.777.885a.3.3,0,0,1,.172.208.311.311,0,0,1-.059.264,24.845,24.845,0,0,1-1.832,1.92c-.1.1-.2.2-.314.305C7.653-4.839,6.436-3.75,5.037-2.571c-.1.086-.2.174-.313.262l-.141.12C2.638-.572,1.181,0,0,0M-5.226-3.613A9.56,9.56,0,0,1-3.093-2.158C-1.293-.673.259.609,4.19-2.658l.144-.119c.1-.087.206-.172.3-.259,1.394-1.173,2.6-2.253,3.6-3.211.109-.1.208-.2.3-.3C9.31-7.287,9.8-7.815,10.072-8.115c-.511-.245-.99-.494-1.441-.731A4.264,4.264,0,0,0,7.505-9.3a1.294,1.294,0,0,0-1.168.292A19.8,19.8,0,0,0,4.7-7.4,11.217,11.217,0,0,1,1.323-4.645a15.272,15.272,0,0,1-5.739.994c-.267.012-.536.024-.81.038" fill="#2d2e35"/>
    </g>
    <g id="Grupo_712" data-name="Grupo 712" transform="translate(1181.871 808.754)">
      <path id="Trazado_1011" data-name="Trazado 1011" d="M0,0H-24.93s-.834-5.485,6.9-7.191l.02-.005c.262-.057.524-.106.8-.157.075-.012.15-.025.228-.034h0C-12.118-7.809-11.8-.51-5.074-6.1c.158-.13.31-.254.455-.382Z" fill="#879a9a"/>
    </g>
    <g id="Grupo_713" data-name="Grupo 713" transform="translate(1181.871 809.06)">
      <path id="Trazado_1012" data-name="Trazado 1012" d="M0,0H-24.93a.306.306,0,0,1-.3-.26c-.011-.058-.784-5.788,7.136-7.535a.141.141,0,0,1,.031-.006h0c.257-.056.521-.106.8-.156.084-.015.161-.028.245-.038l.037,0c1.981-.173,3.286.905,4.436,1.854,1.8,1.486,3.352,2.768,7.283-.5l.143-.118c.1-.087.207-.172.305-.259a.305.305,0,0,1,.237-.073.311.311,0,0,1,.212.126L.25-.484a.3.3,0,0,1,.023.317A.3.3,0,0,1,0,0M-24.648-.612H-.592L-4.674-6.343c-.018.015-.038.033-.058.048l-.141.12c-4.322,3.592-6.224,2.022-8.064.5-1.165-.961-2.258-1.866-4.02-1.716-.065.008-.136.019-.2.033-.268.047-.525.094-.776.15l-.008,0a.136.136,0,0,1-.02,0c-3.066.676-5.19,2.083-6.139,4.068a5.451,5.451,0,0,0-.544,2.518" fill="#2d2e35"/>
    </g>
    <g id="Grupo_714" data-name="Grupo 714" transform="translate(1208.237 782.451)">
      <path id="Trazado_1013" data-name="Trazado 1013" d="M0,0A19.084,19.084,0,0,1-9.491,8.99Q-12.91,3.632-16.326-1.724l-13.061-20.47q-2.694-4.219-5.382-8.436c-2.445-3.833-4.9-7.387-4.769-12.167.1-3.733,3.321-18.928,4.012-22.719q.236-1.275.464-2.548Z" fill="#59a9bb"/>
    </g>
    <g id="Grupo_721" data-name="Grupo 721" transform="translate(1071 1009.536)" clip-path="url(#clip-path)">
      <g id="Grupo_716" data-name="Grupo 716" transform="translate(128.184 -216.558)">
        <path id="Trazado_1015" data-name="Trazado 1015" d="M0,0A.316.316,0,0,1-.268-.147L-27.022-42.079c-2.439-3.81-4.747-7.408-4.613-12.226.085-2.986,2.02-12.736,3.3-19.187.4-2.009.714-3.594.884-4.536l.484-2.657a.319.319,0,0,1,.267-.257.313.313,0,0,1,.328.168L10.177-9.832a.3.3,0,0,1,.006.269A20.4,20.4,0,0,1,.128-.026.34.34,0,0,1,0,0M-26.506-79.65l-.315,1.736c-.173.946-.489,2.535-.886,4.544-1.2,6.041-3.207,16.15-3.292,19.084-.128,4.621,2.128,8.137,4.513,11.864l6.018,9.429L.121-.721a19.841,19.841,0,0,0,9.417-8.96Z" fill="#2d2e35"/>
      </g>
      <g id="Grupo_717" data-name="Grupo 717" transform="translate(129.46 -308.766)">
        <path id="Trazado_1016" data-name="Trazado 1016" d="M0,0A114.1,114.1,0,0,0-3.04,12.489l-5.977,79.1c-1.4.747-4.084.779-6.179.744-3.16-.054-4.343-.448-6.4-1.774,0,0-5.389-70.219-6.213-78.09-.5-4.8-.83-9.793-1.365-14.659-.527-4.756-1.866-9.661-1.312-14.465H1.77a12.465,12.465,0,0,1,.721,4.4C2.545-9.476,1.8-5.487,0,0" fill="#72b6c9"/>
      </g>
      <g id="Grupo_718" data-name="Grupo 718" transform="translate(115.224 -216.104)">
        <path id="Trazado_1017" data-name="Trazado 1017" d="M0,0C-.324,0-.648,0-.968-.008-4.25-.063-5.487-.513-7.531-1.833a.322.322,0,0,1-.143-.242c-.053-.7-5.4-70.3-6.213-78.082-.233-2.233-.432-4.547-.627-6.787-.223-2.59-.454-5.269-.741-7.871-.155-1.4-.386-2.845-.609-4.242a38.206,38.206,0,0,1-.7-10.293.319.319,0,0,1,.318-.283H16.006a.318.318,0,0,1,.292.189,12.694,12.694,0,0,1,.745,4.522c.058,2.967-.783,7.126-2.5,12.36a112.464,112.464,0,0,0-3.026,12.431L8.526-40.6C5.53-.954,5.53-.954,5.473-.879a.289.289,0,0,1-.105.091C4.138-.136,2.052,0,0,0M-7.049-2.282C-5.171-1.082-4.036-.7-.956-.646c2.165.037,4.541-.011,5.873-.627.312-4.14,5.9-78.155,5.962-78.924a.286.286,0,0,1,.005-.031,114.45,114.45,0,0,1,3.049-12.534c1.7-5.166,2.53-9.253,2.474-12.147A13.72,13.72,0,0,0,15.788-109h-31.75a38.823,38.823,0,0,0,.729,9.835c.226,1.406.455,2.861.61,4.277.29,2.609.52,5.291.743,7.883.2,2.237.393,4.55.627,6.777.8,7.607,5.913,74.208,6.2,77.941m21.284-90.38h.006Z" fill="#2d2e35"/>
      </g>
      <g id="Grupo_719" data-name="Grupo 719" transform="translate(116.114 -312.274)">
        <path id="Trazado_1018" data-name="Trazado 1018" d="M0,0A.323.323,0,0,1-.16-.045C-5-2.92-6.9-6.33-7.632-8.686a9.927,9.927,0,0,1-.433-4.52.317.317,0,0,1,.372-.25.318.318,0,0,1,.254.373c-.014.072-1.286,7.214,7.6,12.49a.316.316,0,0,1,.113.436A.32.32,0,0,1,0,0" fill="#2d2e35"/>
      </g>
      <g id="Grupo_720" data-name="Grupo 720" transform="translate(114.263 -216.112)">
        <path id="Trazado_1019" data-name="Trazado 1019" d="M0,0H-.014a.314.314,0,0,1-.3-.33c.227-5.85.164-17.007.1-28.821C-.317-47.457-.435-68.209.467-76.2c1.47-13.007,1.056-32.9,1.049-33.1a.318.318,0,0,1,.311-.325.325.325,0,0,1,.326.312c0,.2.42,20.131-1.053,33.18C.2-68.175.317-47.444.418-29.153.486-17.335.547-6.169.317-.307A.317.317,0,0,1,0,0" fill="#2d2e35"/>
      </g>
    </g>
    <g id="Grupo_722" data-name="Grupo 722" transform="translate(1163.868 801.862)">
      <path id="Trazado_1021" data-name="Trazado 1021" d="M0,0A.307.307,0,0,1-.293-.221.306.306,0,0,1-.083-.6,5.8,5.8,0,0,1,.99-.8a.3.3,0,0,1,.33.278.3.3,0,0,1-.278.331,5.174,5.174,0,0,0-.957.179A.32.32,0,0,1,0,0" fill="#2d2e35"/>
    </g>
    <g id="Grupo_723" data-name="Grupo 723" transform="translate(1187.615 808.754)">
      <path id="Trazado_1022" data-name="Trazado 1022" d="M0,0H-5.745l-4.619-6.486c1.555-1.307,2.738-2.378,3.615-3.22Z" fill="#ba3130"/>
    </g>
    <g id="Grupo_724" data-name="Grupo 724" transform="translate(1187.615 809.06)">
      <path id="Trazado_1023" data-name="Trazado 1023" d="M0,0H-5.745a.308.308,0,0,1-.249-.128L-10.61-6.615a.307.307,0,0,1,.049-.411c1.392-1.169,2.6-2.249,3.6-3.207a.306.306,0,0,1,.241-.084.316.316,0,0,1,.223.13L.254-.481a.309.309,0,0,1,.02.317A.307.307,0,0,1,0,0M-5.585-.612h5L-6.8-9.546c-.9.854-1.959,1.8-3.153,2.807Z" fill="#2d2e35"/>
    </g>
    <g id="Grupo_725" data-name="Grupo 725" transform="translate(1220.424 793.023)">
      <path id="Trazado_1024" data-name="Trazado 1024" d="M0,0-1.231,1.6-12.661.731l-.787-.058a13.288,13.288,0,0,0-.567-2.619,16.793,16.793,0,0,0,1.792-.867,4.443,4.443,0,0,0,2.08-2.218,3.344,3.344,0,0,0,.092-.927,2.446,2.446,0,0,1,.179-.991.821.821,0,0,0,.047-.105S-2.262-4.864,0,0" fill="#879a9a"/>
    </g>
    <g id="Grupo_726" data-name="Grupo 726" transform="translate(1219.193 794.93)">
      <path id="Trazado_1025" data-name="Trazado 1025" d="M0,0H-.022L-12.24-.93a.305.305,0,0,1-.281-.26,13.024,13.024,0,0,0-.537-2.528.313.313,0,0,1-.013-.24.323.323,0,0,1,.162-.175l.127-.055a15.948,15.948,0,0,0,1.636-.794A4.431,4.431,0,0,0-9.2-7.018a2.8,2.8,0,0,0,.075-.733l0-.12a2.762,2.762,0,0,1,.2-1.108.567.567,0,0,0,.04-.08.306.306,0,0,1,.375-.2A23.726,23.726,0,0,1-4.385-7.529c2.024,1.075,4.69,2.9,5.892,5.492a.3.3,0,0,1-.034.314L.245-.12A.306.306,0,0,1,0,0M-11.952-1.52l11.812.9L.872-1.945C-1.149-6.015-7.1-8.155-8.419-8.587a2.412,2.412,0,0,0-.1.727l0,.119a3.357,3.357,0,0,1-.1.888,4.886,4.886,0,0,1-2.221,2.4,15.992,15.992,0,0,1-1.56.766,17.7,17.7,0,0,1,.444,2.169" fill="#2d2e35"/>
    </g>
    <g id="Grupo_727" data-name="Grupo 727" transform="translate(1206.409 803.269)">
      <path id="Trazado_1026" data-name="Trazado 1026" d="M0,0C-1.917,1.658-5.069,0-5.069,0c2.216-.613,2.756-3.238,2.527-5.333a6.021,6.021,0,0,0-.445-1.828c-.366-.819-.838-1.67-.355-2.549.027-.051.054-.1.083-.143A6.578,6.578,0,0,1,0-12.193,13.314,13.314,0,0,1,.566-9.574c.019.146.044.3.066.448a38.132,38.132,0,0,1,.33,3.808C1.042-2.954.839-.727,0,0" fill="#ececec"/>
    </g>
    <g id="Grupo_728" data-name="Grupo 728" transform="translate(1204.239 804.315)">
      <path id="Trazado_1027" data-name="Trazado 1027" d="M0,0A7.329,7.329,0,0,1-3.044-.776a.308.308,0,0,1-.163-.3.3.3,0,0,1,.223-.261C-.94-1.9-.464-4.39-.673-6.347A5.759,5.759,0,0,0-1.1-8.08l-.1-.219a2.753,2.753,0,0,1-.246-2.6c.031-.057.06-.106.087-.155a6.87,6.87,0,0,1,3.4-2.462.305.305,0,0,1,.4.147,12.888,12.888,0,0,1,.6,2.707l.065.449c.125.912.283,2.319.335,3.843C3.54-3.388,3.18-1.517,2.37-.815A3.515,3.515,0,0,1,0,0M-2.105-1.036c.978.361,2.836.828,4.075-.241.645-.56.951-2.362.857-5.076A37.775,37.775,0,0,0,2.5-10.13l-.063-.444a20.156,20.156,0,0,0-.44-2.251A5.857,5.857,0,0,0-.827-10.74c-.025.044-.052.087-.079.134-.362.664-.057,1.34.268,2.054l.1.224A6.306,6.306,0,0,1-.067-6.412c.213,1.959-.226,4.4-2.038,5.376M2.17-1.045h0Z" fill="#2d2e35"/>
    </g>
    <g id="Grupo_729" data-name="Grupo 729" transform="translate(1216.222 798.501)">
      <path id="Trazado_1028" data-name="Trazado 1028" d="M0,0-6.223,8.107l-.049.062-.684.9-.675.877-.239.315h-14.7s-.537-4.861,6.948-5.366a3.52,3.52,0,0,0,.74-.122s3.153,1.657,5.069,0c.839-.727,1.043-2.954.963-5.318Z" fill="#879a9a"/>
    </g>
    <g id="Grupo_730" data-name="Grupo 730" transform="translate(1208.352 809.062)">
      <path id="Trazado_1029" data-name="Trazado 1029" d="M0,0H-14.7A.3.3,0,0,1-15-.271,4.6,4.6,0,0,1-13.9-3.5c1.212-1.449,3.272-2.282,6.126-2.474A3.223,3.223,0,0,0-7.1-6.088a.315.315,0,0,1,.227.024c.03.015,3,1.541,4.73.039.645-.56.95-2.361.857-5.076a.3.3,0,0,1,.093-.229.294.294,0,0,1,.231-.085l8.849.549a.305.305,0,0,1,.26.178.3.3,0,0,1-.036.313L.242-.12A.3.3,0,0,1,0,0M-14.4-.611H-.15L1.411-2.646l5.867-7.646-7.943-.493C-.6-8-.963-6.238-1.742-5.563c-1.868,1.614-4.7.383-5.307.094a3.744,3.744,0,0,1-.68.1c-2.683.181-4.6.94-5.7,2.256a4.121,4.121,0,0,0-.971,2.5" fill="#2d2e35"/>
    </g>
    <g id="Grupo_731" data-name="Grupo 731" transform="translate(1219.193 794.625)">
      <path id="Trazado_1030" data-name="Trazado 1030" d="M0,0-2.971,3.876l-8.85-.549c-.043-1.308-.173-2.653-.33-3.808-.023-.153-.047-.3-.066-.448l.788.058Z" fill="#ba3130"/>
    </g>
    <g id="Grupo_732" data-name="Grupo 732" transform="translate(1216.222 798.806)">
      <path id="Trazado_1031" data-name="Trazado 1031" d="M0,0H-.012L-8.868-.55a.306.306,0,0,1-.288-.294,37.477,37.477,0,0,0-.331-3.777l-.063-.445a.308.308,0,0,1,.079-.252.318.318,0,0,1,.248-.1L3-4.485a.3.3,0,0,1,.255.179A.311.311,0,0,1,3.216-4L.242-.118A.306.306,0,0,1,0,0M-8.556-1.143-.144-.62l2.529-3.3L-8.891-4.777l.013.07c.116.857.264,2.149.322,3.564" fill="#2d2e35"/>
    </g>
    <g id="Grupo_733" data-name="Grupo 733" transform="translate(1216.283 704.602)">
      <path id="Trazado_1032" data-name="Trazado 1032" d="M0,0V7.619a3.992,3.992,0,0,1-3.443,3.958l-13.53,1.875-13.54,1.877A4,4,0,0,1-34.9,12.464l-2.113-7.426,6.743-.92,3.6-.487,16.123-2.2,3.605-.49Z" fill="#41484e"/>
    </g>
    <g id="Grupo_736" data-name="Grupo 736" transform="translate(1071 1009.536)" clip-path="url(#clip-path)">
      <g id="Grupo_735" data-name="Grupo 735" transform="translate(114.094 -291.05)">
        <path id="Trazado_1034" data-name="Trazado 1034" d="M0,0A4.51,4.51,0,0,1-4.315-3.255L-6.517-11a.32.32,0,0,1,.039-.261.318.318,0,0,1,.225-.141l38.576-5.25a.317.317,0,0,1,.253.076.307.307,0,0,1,.111.239v7.94a4.5,4.5,0,0,1-3.866,4.441L.609-.041A4.317,4.317,0,0,1,0,0M-5.8-10.817-3.7-3.43A3.867,3.867,0,0,0,.519-.672L28.734-4.584a3.858,3.858,0,0,0,3.315-3.809v-7.575Z" fill="#2d2e35"/>
      </g>
    </g>
    <g id="Grupo_737" data-name="Grupo 737" transform="translate(1209.678 698.818)">
      <path id="Trazado_1036" data-name="Trazado 1036" d="M0,0,.545,4.319l7.238-.985V0ZM-20.961,0l.945,7.119,16.8-2.29L-3.854,0ZM-33.237,0l2.443,8.584,7.028-.958L-24.841,0Z" fill="#566267"/>
    </g>
    <g id="Grupo_739" data-name="Grupo 739" transform="translate(1071 1009.536)" clip-path="url(#clip-path)">
      <g id="Grupo_738" data-name="Grupo 738" transform="translate(107.883 -301.815)">
        <path id="Trazado_1037" data-name="Trazado 1037" d="M0,0A.321.321,0,0,1-.306-.232L-10.028-34.4a.314.314,0,0,1,.042-.261.311.311,0,0,1,.22-.141l24.193-3.35L38.533-41.5a.311.311,0,0,1,.254.075.312.312,0,0,1,.111.241V-5.569a.32.32,0,0,1-.276.315l-7.24.985a.327.327,0,0,1-.236-.063.316.316,0,0,1-.122-.214l-3.53-28-3.312.455L27.9-4.116a.322.322,0,0,1-.275.359l-16.8,2.288a.321.321,0,0,1-.237-.064.3.3,0,0,1-.123-.209L6.754-29.667l-3.34.462L7.343-1.321a.323.323,0,0,1-.06.236.331.331,0,0,1-.21.125L.044,0,0,0M-9.315-34.221.231-.671,6.669-1.55,2.737-29.431a.315.315,0,0,1,.063-.236.307.307,0,0,1,.21-.124l3.976-.552a.323.323,0,0,1,.237.063.322.322,0,0,1,.12.211L11.051-2.145l16.172-2.2L23.508-32.315a.32.32,0,0,1,.272-.359l3.948-.542a.317.317,0,0,1,.236.061.313.313,0,0,1,.12.213l3.533,28,6.643-.9V-40.817L14.514-37.523Z" fill="#2d2e35"/>
      </g>
    </g>
    <g id="Grupo_740" data-name="Grupo 740" transform="translate(1184.838 698.818)">
      <path id="Trazado_1039" data-name="Trazado 1039" d="M0,0,1.074,7.626l3.751-.507L3.879,0Z" fill="#bac8dc"/>
    </g>
    <g id="Grupo_742" data-name="Grupo 742" transform="translate(1071 1009.536)" clip-path="url(#clip-path)">
      <g id="Grupo_741" data-name="Grupo 741" transform="translate(114.912 -302.772)">
        <path id="Trazado_1040" data-name="Trazado 1040" d="M0,0A.32.32,0,0,1-.315-.275l-3.977-28.2a.315.315,0,0,1,.064-.236.307.307,0,0,1,.21-.124l3.976-.552a.32.32,0,0,1,.237.063.327.327,0,0,1,.12.211L4.066-.869a.319.319,0,0,1-.273.358L.042,0,0,0M-3.614-28.247.271-.677,3.391-1.1-.274-28.709Z" fill="#2d2e35"/>
      </g>
    </g>
    <g id="Grupo_743" data-name="Grupo 743" transform="translate(1205.824 698.818)">
      <path id="Trazado_1042" data-name="Trazado 1042" d="M0,0,.642,4.829,4.4,4.319,3.854,0Z" fill="#bac8dc"/>
    </g>
    <g id="Grupo_745" data-name="Grupo 745" transform="translate(1071 1009.536)" clip-path="url(#clip-path)">
      <g id="Grupo_744" data-name="Grupo 744" transform="translate(135.467 -305.569)">
        <path id="Trazado_1043" data-name="Trazado 1043" d="M0,0A.326.326,0,0,1-.194-.065.316.316,0,0,1-.318-.277L-4.075-28.56a.321.321,0,0,1,.272-.36l3.948-.542a.317.317,0,0,1,.236.061.313.313,0,0,1,.12.214L4.074-.869A.321.321,0,0,1,3.8-.515L.041,0C.029,0,.014,0,0,0M-3.4-28.331.273-.678,3.4-1.1-.089-28.787Z" fill="#2d2e35"/>
      </g>
    </g>
  </g>
</svg>
