<svg xmlns="http://www.w3.org/2000/svg" xmlns:xlink="http://www.w3.org/1999/xlink" width="187.469" height="150.03" viewBox="0 0 187.469 150.03">
  <defs>
    <clipPath id="clip-path">
      <path id="Trazado_1025" data-name="Trazado 1025" d="M0-.752l160.629.644h26.84V-149.386L0-150.138Z" fill="none"/>
    </clipPath>
  </defs>
  <g id="Grupo_877" data-name="Grupo 877" transform="translate(0 150.138)">
    <g id="Grupo_726" data-name="Grupo 726" clip-path="url(#clip-path)">
      <g id="Grupo_691" data-name="Grupo 691" transform="translate(168.189 -69.78)">
        <path id="Trazado_990" data-name="Trazado 990" d="M0,0,.107.37A4.912,4.912,0,0,1-1.4,5.523l-9.519,8.529s-16.562,26.155-19.3,29.808-10.438-3.043-10.438-3.043l-8.946-7.593a63.057,63.057,0,0,1,8.6-8.933l7.28,8.011,17.948-21.155-.469-9.774A1.164,1.164,0,0,1-15.424.319l.04-.011a1.154,1.154,0,0,1,1.45,1.065l.179,4.378L-8.747-1.4A4.927,4.927,0,0,1-3.436-3.334,4.91,4.91,0,0,1-1.288-2.113,4.9,4.9,0,0,1,0,0" fill="#ffc4aa"/>
      </g>
      <g id="Grupo_692" data-name="Grupo 692" transform="translate(135.646 -24.475)">
        <path id="Trazado_991" data-name="Trazado 991" d="M0,0C-3.46,0-8.147-4.043-8.351-4.221l-8.943-7.588a.357.357,0,0,1-.053-.486,63.688,63.688,0,0,1,8.652-8.991.359.359,0,0,1,.493.034L-1.2-13.539,16.4-34.279l-.465-9.636a1.529,1.529,0,0,1,1.083-1.409l.064-.018a1.5,1.5,0,0,1,1.269.246,1.515,1.515,0,0,1,.618,1.147l.132,3.328,4.4-6.29A5.3,5.3,0,0,1,29.2-48.982a5.306,5.306,0,0,1,2.306,1.31A5.266,5.266,0,0,1,32.882-45.4l.109.369a5.283,5.283,0,0,1-1.618,5.523L21.9-31.021C21.142-29.833,5.27-4.784,2.6-1.23A2.992,2.992,0,0,1,.433-.021,4.13,4.13,0,0,1,0,0M-16.575-12.131-7.889-4.76C-7.836-4.714-2.826-.391.359-.729a2.283,2.283,0,0,0,1.675-.928c2.7-3.6,19.124-29.525,19.288-29.787l.061-.073L30.9-40.045a4.592,4.592,0,0,0,1.411-4.788L32.2-45.2a4.532,4.532,0,0,0-1.2-1.96,4.543,4.543,0,0,0-1.993-1.132A4.57,4.57,0,0,0,24.09-46.5l-5.012,7.152a.355.355,0,0,1-.391.139.353.353,0,0,1-.255-.327l-.175-4.379a.8.8,0,0,0-.328-.6.8.8,0,0,0-.677-.129l-.054.012a.8.8,0,0,0-.552.727l.47,9.739a.376.376,0,0,1-.084.247L-.916-12.771a.355.355,0,0,1-.264.125.378.378,0,0,1-.271-.116L-8.5-20.521a63.535,63.535,0,0,0-8.075,8.39" fill="#2d2e35"/>
      </g>
      <g id="Grupo_693" data-name="Grupo 693" transform="translate(134.04 -31.895)">
        <path id="Trazado_992" data-name="Trazado 992" d="M0,0A.354.354,0,0,1-.341-.26a7.519,7.519,0,0,1,.454-5.5A.355.355,0,0,1,.6-5.888.351.351,0,0,1,.725-5.4,6.976,6.976,0,0,0,.344-.452.353.353,0,0,1,.1-.015Z" fill="#2d2e35"/>
      </g>
      <g id="Grupo_694" data-name="Grupo 694" transform="translate(156.436 -60.046)">
        <path id="Trazado_993" data-name="Trazado 993" d="M0,0-.067-.008A.357.357,0,0,1-.35-.422a3.011,3.011,0,0,0-1.8-3.235.355.355,0,0,1-.181-.468.356.356,0,0,1,.466-.184C-1.835-4.3.887-3.081.35-.29A.358.358,0,0,1,0,0" fill="#2d2e35"/>
      </g>
      <g id="Grupo_695" data-name="Grupo 695" transform="translate(64.644 -34.863)">
        <path id="Trazado_994" data-name="Trazado 994" d="M0,0-3.378,9.125s-4.79,14.018-9.851,12.1C-17.5,19.6-43.645,2.886-43.645,2.886L-55.94-.607A4.927,4.927,0,0,1-59.556-4.58l-.062-.379a4.955,4.955,0,0,1,.228-2.464,4.932,4.932,0,0,1,1.4-2.039,4.92,4.92,0,0,1,5.617-.592l7.638,4.238L-46.5-9.829a1.158,1.158,0,0,1,.839-1.591l.043-.01a1.163,1.163,0,0,1,1.206.584l3.862,8.993L-15.144,9.3S-12.863.5-11.406-3.9C-7.026-2.384-6.5-2.2,0,0" fill="#ffc4aa"/>
      </g>
      <g id="Grupo_696" data-name="Grupo 696" transform="translate(52.383 -13.105)">
        <path id="Trazado_995" data-name="Trazado 995" d="M0,0A3.057,3.057,0,0,1-1.1-.2C-5.3-1.8-29.957-17.539-31.531-18.543l-12.243-3.481a5.29,5.29,0,0,1-3.871-4.256l-.066-.38a5.291,5.291,0,0,1,.25-2.642,5.212,5.212,0,0,1,1.5-2.186,5.287,5.287,0,0,1,6.02-.634l6.719,3.724-1.339-3.047a1.509,1.509,0,0,1,.052-1.307,1.511,1.511,0,0,1,1.04-.777l.033-.005a1.515,1.515,0,0,1,1.594.757l3.826,8.9L-3.122-12.954c.467-1.779,2.374-9,3.642-12.814A.345.345,0,0,1,.7-25.974a.342.342,0,0,1,.273-.018c4.386,1.516,4.919,1.7,11.4,3.9a.357.357,0,0,1,.208.182.372.372,0,0,1,.011.278L9.214-12.51C9.076-12.1,5.7-2.333,1.489-.355A3.511,3.511,0,0,1,0,0M-42.49-32.072a4.578,4.578,0,0,0-3,1.121,4.549,4.549,0,0,0-1.3,1.89,4.557,4.557,0,0,0-.214,2.286l.062.38a4.584,4.584,0,0,0,3.36,3.686l12.3,3.5.1.042C-30.932-19-5.031-2.461-.844-.869A2.494,2.494,0,0,0,1.187-1C5.123-2.848,8.511-12.651,8.544-12.748L11.8-21.539C5.806-23.571,5.085-23.818,1.082-25.2c-1.443,4.434-3.6,12.746-3.621,12.832a.369.369,0,0,1-.189.23.347.347,0,0,1-.3.005L-28.43-23.286a.352.352,0,0,1-.182-.186l-3.865-8.994a.8.8,0,0,0-.822-.373l-.018.006a.794.794,0,0,0-.561.412.8.8,0,0,0-.03.694l1.759,4.008a.354.354,0,0,1-.085.405.354.354,0,0,1-.412.049L-40.281-31.5a4.559,4.559,0,0,0-2.209-.57" fill="#2d2e35"/>
      </g>
      <g id="Grupo_697" data-name="Grupo 697" transform="translate(51.471 -20.92)">
        <path id="Trazado_996" data-name="Trazado 996" d="M0,0H-.013A.356.356,0,0,1-.356-.368a5.474,5.474,0,0,0-1.842-4,.359.359,0,0,1-.046-.5.354.354,0,0,1,.5-.045A6.143,6.143,0,0,1,.355-.343.356.356,0,0,1,0,0" fill="#2d2e35"/>
      </g>
      <g id="Grupo_698" data-name="Grupo 698" transform="translate(86.819 -62.228)">
        <path id="Trazado_997" data-name="Trazado 997" d="M0,0C8.923,0,8.57-6.75,8.555-6.948A41.328,41.328,0,0,0,4.44-7.574l-.312-8.568H-3.937L-4.245-7.6c-1.442.144-2.886.36-4.313.648C-8.576-6.738-8.916,0,0,0" fill="#ffc4aa"/>
      </g>
      <g id="Grupo_699" data-name="Grupo 699" transform="translate(86.819 -61.873)">
        <path id="Trazado_998" data-name="Trazado 998" d="M0,0C-3.2,0-5.615-.852-7.157-2.529a6.9,6.9,0,0,1-1.753-4.8.351.351,0,0,1,.281-.318c1.337-.27,2.694-.479,4.043-.62l.294-8.239a.354.354,0,0,1,.355-.342H4.128a.355.355,0,0,1,.356.342l.3,8.26c1.278.138,2.569.341,3.844.6a.353.353,0,0,1,.282.323A6.908,6.908,0,0,1,7.126-2.5C5.583-.839,3.187,0,0,0M-8.2-7.011A6.256,6.256,0,0,0-6.627-3C-5.227-1.483-2.995-.71,0-.71s5.2-.764,6.605-2.269A6.253,6.253,0,0,0,8.2-7.011c-1.265-.249-2.538-.437-3.8-.564a.354.354,0,0,1-.321-.34l-.3-8.226H-3.6l-.291,8.205a.355.355,0,0,1-.319.34c-1.33.13-2.676.326-4,.585" fill="#2d2e35"/>
      </g>
      <g id="Grupo_700" data-name="Grupo 700" transform="translate(83.242 -76.263)">
        <path id="Trazado_999" data-name="Trazado 999" d="M0,0C.47,1.961,1.5,4.585,3.671,4.585S6.874,1.964,7.344,0Q6.707.374,6.042.7a5.449,5.449,0,0,1-2.367.543A5.445,5.445,0,0,1,1.308.7Q.639.371,0,0" fill="#ff9782"/>
      </g>
      <g id="Grupo_701" data-name="Grupo 701" transform="translate(74.22 -109.859)">
        <path id="Trazado_1000" data-name="Trazado 1000" d="M0,0V17.729a16.928,16.928,0,0,0,.213,2.69A18.328,18.328,0,0,0,10.485,33.973a5.1,5.1,0,0,0,4.425,0,19.444,19.444,0,0,0,3.871-2.482h0a18.208,18.208,0,0,0,5.641-8.046v-.006c.166-.464.307-.942.427-1.42a17.083,17.083,0,0,0,.542-4.29V0a5.438,5.438,0,0,0-5.581-5.281H5.575A5.551,5.551,0,0,0,.235-1.518,4.99,4.99,0,0,0,0,0" fill="#ffc4aa"/>
      </g>
      <g id="Grupo_702" data-name="Grupo 702" transform="translate(86.917 -75.024)">
        <path id="Trazado_1001" data-name="Trazado 1001" d="M0,0A5.459,5.459,0,0,1-2.367-.542a18.708,18.708,0,0,1-10.465-13.82,16.7,16.7,0,0,1-.222-2.743V-34.834a5.362,5.362,0,0,1,.253-1.627,5.944,5.944,0,0,1,5.679-4.01H7.114a5.8,5.8,0,0,1,5.937,5.637V-17.1a17.637,17.637,0,0,1-.552,4.379c-.13.511-.276,1-.436,1.452l-.014.036A18.6,18.6,0,0,1,6.311-3.07l-.035.026a19.876,19.876,0,0,1-3.909,2.5A5.462,5.462,0,0,1,0,0M-7.122-39.76a5.224,5.224,0,0,0-5,3.515,4.657,4.657,0,0,0-.219,1.411V-17.1a16.067,16.067,0,0,0,.213,2.633A17.989,17.989,0,0,0-2.06-1.182a4.831,4.831,0,0,0,4.117,0,19.177,19.177,0,0,0,3.8-2.436l.032-.025a17.8,17.8,0,0,0,5.5-7.864l.012-.026c.151-.431.291-.888.411-1.368a16.865,16.865,0,0,0,.528-4.2V-34.834A5.088,5.088,0,0,0,7.114-39.76Z" fill="#2d2e35"/>
      </g>
      <g id="Grupo_703" data-name="Grupo 703" transform="translate(86.913 -89.957)">
        <path id="Trazado_1002" data-name="Trazado 1002" d="M0,0A.351.351,0,0,1-.349-.355.351.351,0,0,1,0-.71c1.033,0,1.693-.275,1.975-.824.8-1.573-1.36-5.153-2.262-6.4a.362.362,0,0,1,.082-.5.356.356,0,0,1,.495.083c.143.2,3.48,4.861,2.318,7.14A2.658,2.658,0,0,1,0,0" fill="#2d2e35"/>
      </g>
      <g id="Grupo_704" data-name="Grupo 704" transform="translate(92.775 -98.18)">
        <path id="Trazado_1003" data-name="Trazado 1003" d="M0,0A.886.886,0,0,1-.887-.888V-3.973A.887.887,0,0,1,0-4.862a.89.89,0,0,1,.89.889V-.888A.89.89,0,0,1,0,0" fill="#2d2e35"/>
      </g>
      <g id="Grupo_705" data-name="Grupo 705" transform="translate(81.056 -98.18)">
        <path id="Trazado_1004" data-name="Trazado 1004" d="M0,0A.885.885,0,0,1-.885-.888V-3.973A.885.885,0,0,1,0-4.862a.888.888,0,0,1,.889.889V-.888A.887.887,0,0,1,0,0" fill="#2d2e35"/>
      </g>
      <g id="Grupo_706" data-name="Grupo 706" transform="translate(80.508 -86.898)">
        <path id="Trazado_1005" data-name="Trazado 1005" d="M0,0A4.66,4.66,0,0,1,.975,1.911a3.156,3.156,0,0,0,2.4,2.3,15.36,15.36,0,0,0,3.027.258,15.425,15.425,0,0,0,3.034-.258,3.157,3.157,0,0,0,2.4-2.3A4.579,4.579,0,0,1,12.816,0,4.8,4.8,0,0,1,10.79.453H2.024A4.79,4.79,0,0,1,0,0" fill="#e9eae9"/>
      </g>
      <g id="Grupo_707" data-name="Grupo 707" transform="translate(86.913 -82.077)">
        <path id="Trazado_1006" data-name="Trazado 1006" d="M0,0A15.932,15.932,0,0,1-3.1-.265,3.49,3.49,0,0,1-5.773-2.817a4.264,4.264,0,0,0-.885-1.754A.356.356,0,0,1-6.7-5.025a.354.354,0,0,1,.44-.116,4.416,4.416,0,0,0,1.874.417H4.386A4.419,4.419,0,0,0,6.26-5.141a.354.354,0,0,1,.441.117.354.354,0,0,1-.041.456,4.3,4.3,0,0,0-.88,1.751A3.5,3.5,0,0,1,3.1-.265,16,16,0,0,1,0,0M-5.527-4.144A5.793,5.793,0,0,1-5.086-3,2.787,2.787,0,0,0-2.958-.961,15.319,15.319,0,0,0,0-.709,15.319,15.319,0,0,0,2.962-.961,2.79,2.79,0,0,0,5.091-3a5.856,5.856,0,0,1,.441-1.141,5.059,5.059,0,0,1-1.146.129H-4.381a5.047,5.047,0,0,1-1.146-.129" fill="#2d2e35"/>
      </g>
      <g id="Grupo_708" data-name="Grupo 708" transform="translate(99.613 -105.222)">
        <path id="Trazado_1007" data-name="Trazado 1007" d="M0,0V10.029a2.5,2.5,0,0,0,1.774-.311c.89-.541,1.773-1.854,1.773-4.935,0-1.533-.07-3.665-1.515-4.588L1.917.124A1.94,1.94,0,0,0,1-.135,2.624,2.624,0,0,0,0,0" fill="#ffc4aa"/>
      </g>
      <g id="Grupo_709" data-name="Grupo 709" transform="translate(100.083 -94.79)">
        <path id="Trazado_1008" data-name="Trazado 1008" d="M0,0A2.53,2.53,0,0,1-.559-.057.357.357,0,0,1-.826-.4V-10.431a.36.36,0,0,1,.208-.326,3,3,0,0,1,1.144-.164,2.264,2.264,0,0,1,1.093.3l.14.085C3.433-9.461,3.433-6.981,3.433-5.648c0,2.69-.654,4.453-1.945,5.237A2.846,2.846,0,0,1,0,0M-.115-.714a2.164,2.164,0,0,0,1.233-.3c1.05-.637,1.6-2.239,1.6-4.63,0-1.2,0-3.425-1.348-4.289L1.27-10a1.562,1.562,0,0,0-.744-.21,3.631,3.631,0,0,0-.641.051Z" fill="#2d2e35"/>
      </g>
      <g id="Grupo_710" data-name="Grupo 710" transform="translate(101.607 -99.578)">
        <path id="Trazado_1009" data-name="Trazado 1009" d="M0,0H-.021A.359.359,0,0,1-.356-.389c.169-1.94-.232-2.7-.6-2.991a1.062,1.062,0,0,0-.931-.168.36.36,0,0,1-.447-.229.355.355,0,0,1,.223-.446,1.784,1.784,0,0,1,1.586.281c.741.581,1.035,1.8.876,3.615A.355.355,0,0,1,0,0" fill="#2d2e35"/>
      </g>
      <g id="Grupo_711" data-name="Grupo 711" transform="translate(70.67 -100.438)">
        <path id="Trazado_1010" data-name="Trazado 1010" d="M0,0C0,3.081.885,4.393,1.776,4.935a2.49,2.49,0,0,0,1.774.311V-4.783a2.624,2.624,0,0,0-1-.135,1.925,1.925,0,0,0-.923.259l-.113.07C.072-3.663,0-1.533,0,0" fill="#ffc4aa"/>
      </g>
      <g id="Grupo_712" data-name="Grupo 712" transform="translate(73.75 -94.79)">
        <path id="Trazado_1011" data-name="Trazado 1011" d="M0,0A2.847,2.847,0,0,1-1.489-.411C-2.781-1.2-3.433-2.958-3.433-5.648c0-1.333,0-3.813,1.677-4.888l.111-.068a2.3,2.3,0,0,1,1.118-.317,2.827,2.827,0,0,1,1.144.168.351.351,0,0,1,.205.322V-.4a.353.353,0,0,1-.267.345A2.462,2.462,0,0,1,0,0M-.527-10.211a1.564,1.564,0,0,0-.751.216l-.088.053c-1.358.869-1.358,3.1-1.358,4.294,0,2.391.554,3.993,1.6,4.63A2.2,2.2,0,0,0,.113-.711V-10.16a3.608,3.608,0,0,0-.64-.051" fill="#2d2e35"/>
      </g>
      <g id="Grupo_713" data-name="Grupo 713" transform="translate(72.226 -99.578)">
        <path id="Trazado_1012" data-name="Trazado 1012" d="M0,0A.356.356,0,0,1-.353-.327c-.158-1.818.135-3.034.874-3.615a1.786,1.786,0,0,1,1.587-.281.354.354,0,0,1,.221.452.357.357,0,0,1-.449.223,1.047,1.047,0,0,0-.927.168C.587-3.087.185-2.329.354-.389A.353.353,0,0,1,.033,0Z" fill="#2d2e35"/>
      </g>
      <g id="Grupo_714" data-name="Grupo 714" transform="translate(80.091 -113.695)">
        <path id="Trazado_1013" data-name="Trazado 1013" d="M0,0A22.66,22.66,0,0,1,4.99-.846l.036,0A29.7,29.7,0,0,1,8.309-.869l.027.006a21.669,21.669,0,0,1,5.346.889c.358-.4.654-.869,1.1-1.319a1.961,1.961,0,0,1,1.283-.634,2.2,2.2,0,0,1,1.1.306,3.757,3.757,0,0,1,1.782,4.135A10.318,10.318,0,0,1,18.237,4.8V14.858c0,1.632,1.285,1.848,1.285,3.644V8.473a2.624,2.624,0,0,1,1-.135,1.94,1.94,0,0,1,.922.259l.115.07c.015-.155.032-.317.049-.477.166-1.476.424-3.132.621-4.832a21.973,21.973,0,0,0-.179-7.864,9.127,9.127,0,0,0-.764-1.962,9.968,9.968,0,0,0-4.63-4.142,17.317,17.317,0,0,0-6.119-1.422c-.688-.047-2.518-.069-4.223-.067H6.3c-.614.007-1.213.011-1.733.02H4.556c-.631.012-1.148.027-1.447.047C-3.769-10.959-1.134-2.823,0,0" fill="#938374"/>
      </g>
      <g id="Grupo_715" data-name="Grupo 715" transform="translate(99.613 -94.838)">
        <path id="Trazado_1014" data-name="Trazado 1014" d="M0,0A.355.355,0,0,1-.356-.355a2.783,2.783,0,0,0-.6-1.721A3.184,3.184,0,0,1-1.639-4V-14.053l.026-.132A10.274,10.274,0,0,0-.926-16.4a3.47,3.47,0,0,0-1.607-3.769,1.751,1.751,0,0,0-.91-.261,1.632,1.632,0,0,0-1.043.528,7.708,7.708,0,0,0-.634.751c-.153.195-.3.379-.46.559a.349.349,0,0,1-.368.1,21.222,21.222,0,0,0-5.256-.878l-.045,0a29.349,29.349,0,0,0-3.221.018l-.066.007a22.5,22.5,0,0,0-4.885.83.351.351,0,0,1-.429-.207c-.8-1.972-2.452-6.892-.7-9.969a5.339,5.339,0,0,1,4.084-2.546c.317-.022.806-.038,1.485-.052h.026c.529-.009,1.124-.014,1.734-.018,1.525-.009,3.5.016,4.255.066A17.584,17.584,0,0,1-2.72-29.79a10.351,10.351,0,0,1,4.79,4.3,9.33,9.33,0,0,1,.794,2.04,22.27,22.27,0,0,1,.19,8c-.1.846-.213,1.681-.321,2.487-.11.825-.213,1.605-.3,2.346-.022.142-.033.282-.048.416l-.005.057a.357.357,0,0,1-.2.286.353.353,0,0,1-.347-.027l-.094-.06A1.572,1.572,0,0,0,1-10.163a3.627,3.627,0,0,0-.64.051V-.355A.354.354,0,0,1,0,0M-.929-13.985V-4A2.492,2.492,0,0,0-.37-2.47l.012.015,0-7.929a.359.359,0,0,1,.208-.325A3,3,0,0,1,1-10.873a2.071,2.071,0,0,1,.736.139c.082-.74.189-1.513.3-2.334.107-.8.22-1.633.317-2.47a21.778,21.778,0,0,0-.169-7.734,8.7,8.7,0,0,0-.736-1.883,9.616,9.616,0,0,0-4.465-3.99,16.844,16.844,0,0,0-5.994-1.389c-.632-.043-2.36-.072-4.2-.067-.618,0-1.213.013-1.733.022h-.017c-.658.01-1.154.028-1.426.045a4.642,4.642,0,0,0-3.541,2.19c-1.519,2.672-.164,7.019.62,9.055a23.846,23.846,0,0,1,4.757-.769v0l.022-.006a30.447,30.447,0,0,1,3.335-.019l.045,0a22.417,22.417,0,0,1,5.192.838c.092-.109.183-.226.277-.347a8.475,8.475,0,0,1,.688-.812,2.28,2.28,0,0,1,1.521-.74,2.422,2.422,0,0,1,1.281.347,4.078,4.078,0,0,1,1.969,4.5,10.463,10.463,0,0,1-.706,2.305" fill="#2d2e35"/>
      </g>
      <g id="Grupo_716" data-name="Grupo 716" transform="translate(72.176 -105.027)">
        <path id="Trazado_1015" data-name="Trazado 1015" d="M0,0,.117-.071a1.928,1.928,0,0,1,.924-.258,2.7,2.7,0,0,1,1,.134V9.834c0-1.9,1.283-2.012,1.283-3.644V-2.682c4.712,0,5.006-5.027,5.006-5.027s-.173-.359-.417-.958C6.781-11.49,4.146-19.627,11.024-20.7A17.371,17.371,0,0,0,4.9-19.277,9.954,9.954,0,0,0,.278-15.135C-1.99-10.954-.447-4.514,0,0" fill="#938374"/>
      </g>
      <g id="Grupo_717" data-name="Grupo 717" transform="translate(74.22 -94.838)">
        <path id="Trazado_1016" data-name="Trazado 1016" d="M0,0A.355.355,0,0,1-.356-.355v-9.757A3.67,3.67,0,0,0-1-10.163a1.555,1.555,0,0,0-.751.215l-.091.054a.352.352,0,0,1-.347.027.364.364,0,0,1-.2-.286c-.084-.861-.21-1.788-.343-2.77-.575-4.261-1.228-9.09.662-12.571a10.341,10.341,0,0,1,4.788-4.3,17.577,17.577,0,0,1,6.243-1.453.362.362,0,0,1,.382.315.361.361,0,0,1-.3.39,4.662,4.662,0,0,0-3.571,2.194c-1.6,2.81-.014,7.478.738,9.354.237.579.4.935.408.938l.032.175c0,.052-.352,5.106-5,5.353V-4a3.034,3.034,0,0,1-.666,1.87A2.748,2.748,0,0,0,.355-.355.354.354,0,0,1,0,0M-1-10.873a3,3,0,0,1,1.145.164.354.354,0,0,1,.212.325v7.9l.028-.046A2.306,2.306,0,0,0,.929-4v-8.872a.354.354,0,0,1,.354-.356c4.051,0,4.583-3.947,4.642-4.605-.064-.143-.205-.454-.382-.892-.8-1.972-2.452-6.892-.7-9.969a4.684,4.684,0,0,1,1.292-1.461,14.271,14.271,0,0,0-3.124,1.009,9.622,9.622,0,0,0-4.465,3.991c-1.777,3.275-1.141,7.983-.579,12.136.106.8.213,1.561.29,2.284A2.118,2.118,0,0,1-1-10.873" fill="#2d2e35"/>
      </g>
      <g id="Grupo_718" data-name="Grupo 718" transform="translate(75.503 -107.354)">
        <path id="Trazado_1017" data-name="Trazado 1017" d="M0,0C-2.63,0-2.63-3.034-2.63-4.329a.356.356,0,0,1,.353-.356.356.356,0,0,1,.357.356C-1.92-1.723-1.38-.71,0-.71a.355.355,0,0,1,.356.355A.355.355,0,0,1,0,0" fill="#2d2e35"/>
      </g>
      <g id="Grupo_719" data-name="Grupo 719" transform="translate(72.892 -110.731)">
        <path id="Trazado_1018" data-name="Trazado 1018" d="M0,0A7.414,7.414,0,0,0-.87,1.641c.054.416.11.828.165,1.234.106.8.213,1.559.29,2.281A2.1,2.1,0,0,1,.308,5.02H.326a3,3,0,0,1,1.145.164.356.356,0,0,1,.212.326v7.877l.015-.024a2.338,2.338,0,0,0,.543-1.469V3.367A2.353,2.353,0,0,1,.191,1.306,6.975,6.975,0,0,1,.006.058L0,0" fill="#7a6d64"/>
      </g>
      <g id="Grupo_720" data-name="Grupo 720" transform="translate(73.218 -105.711)">
        <path id="Trazado_1019" data-name="Trazado 1019" d="M0,0H0A2.98,2.98,0,0,1,1.13.164.359.359,0,0,1,1.344.49v7.9l.013-.022V.49A.356.356,0,0,0,1.145.164,3,3,0,0,0,0,0M-1.2-3.379a.233.233,0,0,1-.011.028q.089.678.176,1.336c.1.752.2,1.472.279,2.155l.011,0c-.077-.722-.184-1.484-.29-2.281-.055-.406-.111-.818-.165-1.234" fill="#2d2e35"/>
      </g>
      <g id="Grupo_721" data-name="Grupo 721" transform="translate(72.897 -110.674)">
        <path id="Trazado_1020" data-name="Trazado 1020" d="M0,0A6.889,6.889,0,0,0,.186,1.248c0-.018-.008-.036-.011-.055C.086.7.034.311,0,0" fill="#2d2e35"/>
      </g>
      <g id="Grupo_722" data-name="Grupo 722" transform="translate(73.375 -112.006)">
        <path id="Trazado_1021" data-name="Trazado 1021" d="M0,0A.355.355,0,0,1,.207.323V.35A.359.359,0,0,0,.025.011L0,0" fill="#7a6d64"/>
      </g>
      <g id="Grupo_723" data-name="Grupo 723" transform="translate(71.301 -109.119)">
        <path id="Trazado_1022" data-name="Trazado 1022" d="M0,0-.006.053c.06.485.126.965.19,1.434C.3,2.349.41,3.167.491,3.935L.5,3.925C.421,3.122.3,2.263.181,1.358Q.089.688,0,0" fill="#c5c3c4"/>
      </g>
      <g id="Grupo_724" data-name="Grupo 724" transform="translate(71.804 -105.194)">
        <path id="Trazado_1023" data-name="Trazado 1023" d="M0,0-.012.01C-.006.075,0,.139.007.2a.353.353,0,0,0,.2.286.345.345,0,0,0,.15.033H.365A.351.351,0,0,1,.224.489.365.365,0,0,1,.021.2L0,0" fill="#2d2e35"/>
      </g>
      <g id="Grupo_725" data-name="Grupo 725" transform="translate(73.221 -105.001)">
        <path id="Trazado_1024" data-name="Trazado 1024" d="M0,0H0A3.627,3.627,0,0,1,.629.051V1.125H.642V.051A3.625,3.625,0,0,0,0,0" fill="#c99b8b"/>
      </g>
    </g>
    <g id="Grupo_727" data-name="Grupo 727" transform="translate(73.218 -105.001)">
      <path id="Trazado_1026" data-name="Trazado 1026" d="M0,0H0Z" fill="#2d2e35"/>
    </g>
    <g id="Grupo_748" data-name="Grupo 748" clip-path="url(#clip-path)">
      <g id="Grupo_728" data-name="Grupo 728" transform="translate(73.85 -103.168)">
        <path id="Trazado_1027" data-name="Trazado 1027" d="M0,0V7.667H.013V0H0" fill="#c99b8b"/>
      </g>
      <g id="Grupo_729" data-name="Grupo 729" transform="translate(73.863 -103.167)">
        <path id="Trazado_1028" data-name="Trazado 1028" d="M0,0V7.665H-.013v.308a.354.354,0,0,0,.354.355H.348A.354.354,0,0,1,0,7.974Z" fill="#2d2e35"/>
      </g>
      <g id="Grupo_730" data-name="Grupo 730" transform="translate(73.85 -103.876)">
        <path id="Trazado_1029" data-name="Trazado 1029" d="M0,0V.708H.013V0H0" fill="#2d2e35"/>
      </g>
      <g id="Grupo_731" data-name="Grupo 731" transform="translate(73.2 -105.711)">
        <path id="Trazado_1030" data-name="Trazado 1030" d="M0,0A2.1,2.1,0,0,0-.723.136v0A2.172,2.172,0,0,1,.015,0H0M-.117-3.714a2.353,2.353,0,0,0,2.05,2.061V6.874A2.338,2.338,0,0,1,1.39,8.343l-.015.024v.022L1.4,8.343a2.311,2.311,0,0,0,.546-1.469V-1.662A2.408,2.408,0,0,1-.117-3.714M-.249-6.2A6.858,6.858,0,0,0-1.341-4.709q.076.669.163,1.33A7.414,7.414,0,0,1-.308-5.02l.006.058c-.025-.385-.025-.736-.025-1.01A.361.361,0,0,1-.249-6.2" fill="#7a6d64"/>
      </g>
      <g id="Grupo_732" data-name="Grupo 732" transform="translate(71.858 -110.421)">
        <path id="Trazado_1031" data-name="Trazado 1031" d="M0,0A11.583,11.583,0,0,0-.541,1.176L-.558,1.3c.059.457.12.911.181,1.357.122.906.24,1.765.323,2.568.007.068.014.136.02.2a.365.365,0,0,0,.2.286.347.347,0,0,0,.141.033A.353.353,0,0,0,.5,5.688l.088-.053a1.551,1.551,0,0,1,.748-.215h.021a3.535,3.535,0,0,1,.643.051v9.757a.349.349,0,1,0,.7,0,2.744,2.744,0,0,1,.613-1.774,3.021,3.021,0,0,0,.67-1.87V2.813a.356.356,0,0,1-.342.254,3.082,3.082,0,0,1-.354-.02v8.537a2.3,2.3,0,0,1-.546,1.468l-.028.046v-.021L2.7,13.1V5.2a.357.357,0,0,0-.214-.325,2.979,2.979,0,0,0-1.133-.165,2.155,2.155,0,0,0-.738.14v0l-.011,0C.528,4.167.431,3.446.328,2.695Q.241,2.037.152,1.358c0-.009.008-.018.011-.027Q.077.669,0,0" fill="#2d2e35"/>
      </g>
      <g id="Grupo_733" data-name="Grupo 733" transform="translate(73.627 -110.538)">
        <path id="Trazado_1032" data-name="Trazado 1032" d="M0,0A6.263,6.263,0,0,0,.158,1L.146.934C.079.562.032.254,0,0" fill="#7a6d64"/>
      </g>
      <g id="Grupo_734" data-name="Grupo 734" transform="translate(73.228 -112.037)">
        <path id="Trazado_1033" data-name="Trazado 1033" d="M0,0A.351.351,0,0,0-.256.11C-.263.117-.27.125-.277.131A.361.361,0,0,0-.355.354c0,.273,0,.625.025,1.01.033.311.086.7.175,1.193,0,.019.006.037.01.055A2.408,2.408,0,0,0,1.921,4.664a3.088,3.088,0,0,0,.354.019.356.356,0,0,0,.342-.254v-.1a.353.353,0,0,0-.355-.354H2.231c-.006,0-.028,0-.062,0A1.622,1.622,0,0,1,.558,2.5,6.144,6.144,0,0,1,.4,1.5,4.118,4.118,0,0,1,.348.43.413.413,0,0,0,.355.381V.354A.355.355,0,0,0,.148.031.371.371,0,0,0,0,0" fill="#2d2e35"/>
      </g>
      <g id="Grupo_735" data-name="Grupo 735" transform="translate(109.579 -43.264)">
        <path id="Trazado_1034" data-name="Trazado 1034" d="M0,0C0,7.927-1.651,15.8-1.491,23.771c.145,7.257.3,14.685,2.55,21.578,4.036,12.368-24.215,11.37-30.452,11.115-5.606-.231-13.156-.636-16.237-6.3a8.345,8.345,0,0,1-.488-6.145c3.968-11.43,1.842-22.588,1.181-35.617a237.912,237.912,0,0,0-2.9-26.525,2.42,2.42,0,0,1,.324-1.679,2.394,2.394,0,0,1,.926-.852A65.339,65.339,0,0,1-33.964-25.3q1.317-.351,2.646-.618c-.018.21-.358,6.951,8.558,6.951s8.564-6.752,8.552-6.951c.89.178,1.768.384,2.647.618,1.268.337,2.585.718,3.91,1.144,1.559.493,3.13,1.047,4.666,1.665,1.392.557,2.752,1.168,4.044,1.832a2.345,2.345,0,0,1,1.08,1.148,2.435,2.435,0,0,1,.169,1.383C1.8-15.132.744-8.4,0,0" fill="#ffcb95"/>
      </g>
      <g id="Grupo_736" data-name="Grupo 736" transform="translate(86.053 13.68)">
        <path id="Trazado_1035" data-name="Trazado 1035" d="M0,0C-2.006,0-3.985-.046-5.882-.125c-5.3-.218-13.3-.547-16.532-6.486a8.745,8.745,0,0,1-.514-6.431c3.12-8.98,2.428-18,1.7-27.557-.2-2.561-.4-5.209-.536-7.927a235.892,235.892,0,0,0-2.894-26.481,2.779,2.779,0,0,1,.378-1.926,2.7,2.7,0,0,1,1.059-.981,64.587,64.587,0,0,1,12.693-4.668c.883-.237,1.78-.446,2.666-.625a.354.354,0,0,1,.3.085.347.347,0,0,1,.119.294,6.291,6.291,0,0,0,1.573,4.271c1.405,1.522,3.634,2.294,6.632,2.294,2.98,0,5.2-.764,6.6-2.271a6.256,6.256,0,0,0,1.6-4.3.364.364,0,0,1,.115-.291.371.371,0,0,1,.308-.083c.887.179,1.784.388,2.666.625,1.365.362,2.685.747,3.93,1.146,1.658.527,3.235,1.09,4.69,1.675s2.818,1.2,4.073,1.847A2.723,2.723,0,0,1,25.99-76.6a2.765,2.765,0,0,1,.193,1.589c-.436,2.559-1.535,9.441-2.3,18.08,0,3.787-.383,7.619-.753,11.324a105.982,105.982,0,0,0-.741,12.424c.148,7.181.3,14.61,2.535,21.474a6.108,6.108,0,0,1-.766,5.881C20.65-1.2,10.032,0,0,0M-8.147-82.423c-.735.156-1.473.332-2.2.527A64.066,64.066,0,0,0-22.9-77.283a1.986,1.986,0,0,0-.782.723,2.1,2.1,0,0,0-.282,1.434,235.592,235.592,0,0,1,2.9,26.563c.137,2.709.34,5.353.535,7.91.737,9.63,1.431,18.724-1.736,27.845a7.955,7.955,0,0,0,.467,5.856c3.038,5.586,10.8,5.906,15.938,6.118C10-.186,20.453-2.108,23.59-6.253a5.364,5.364,0,0,0,.657-5.231c-2.273-6.965-2.421-14.447-2.567-21.682a105.028,105.028,0,0,1,.744-12.508c.368-3.692.745-7.511.745-11.269l0-.031c.769-8.674,1.874-15.583,2.312-18.152a2.081,2.081,0,0,0-.144-1.181,2.024,2.024,0,0,0-.917-.976c-1.237-.633-2.59-1.247-4.014-1.818s-3-1.136-4.639-1.656c-1.237-.4-2.546-.781-3.9-1.139-.73-.195-1.467-.371-2.2-.527A6.915,6.915,0,0,1,7.891-78.05c-1.542,1.657-3.939,2.5-7.125,2.5-3.2,0-5.615-.85-7.157-2.528a6.908,6.908,0,0,1-1.756-4.341" fill="#2d2e35"/>
      </g>
      <g id="Grupo_737" data-name="Grupo 737" transform="translate(64.642 -34.863)">
        <path id="Trazado_1036" data-name="Trazado 1036" d="M0,0-.885,2.4-2.558,6.912l-.427,1.153L-17.162,1.209l2.269-5.636c1.6-4.261,4.1-10.98,5.446-14.889a18.806,18.806,0,0,1,2.569-4.923A21.714,21.714,0,0,1-2.572-28.2a2.423,2.423,0,0,0-.324,1.68A237.662,237.662,0,0,1,0,0" fill="#ffd2a8"/>
      </g>
      <g id="Grupo_738" data-name="Grupo 738" transform="translate(61.657 -26.443)">
        <path id="Trazado_1037" data-name="Trazado 1037" d="M0,0-.156-.035-14.33-6.891a.355.355,0,0,1-.174-.452l2.268-5.637C-9.6-20.031-7.819-24.9-6.8-27.851a19.207,19.207,0,0,1,2.623-5.018A21.587,21.587,0,0,1,.167-36.884L.2-36.9a.35.35,0,0,1,.453.018.353.353,0,0,1,.064.45A2.1,2.1,0,0,0,.435-35,235.375,235.375,0,0,1,3.339-8.44l-.02.141L.331-.232a.346.346,0,0,1-.2.207ZM-13.724-7.387-.2-.844,2.625-8.478A235.9,235.9,0,0,0-.263-34.885a2.929,2.929,0,0,1-.024-.747A17.151,17.151,0,0,0-3.6-32.451a18.469,18.469,0,0,0-2.524,4.832c-1.024,2.958-2.8,7.831-5.444,14.9Z" fill="#2d2e35"/>
      </g>
      <g id="Grupo_739" data-name="Grupo 739" transform="translate(132.056 -41.112)">
        <path id="Trazado_1038" data-name="Trazado 1038" d="M0,0C-4.206,2.485-10.42,9.531-10.42,9.531l-4.759-4.655-7.3-6.993v-.035c.744-8.4,1.8-15.132,2.308-18.125a2.435,2.435,0,0,0-.169-1.383L-4.465-4.768h0l.626.668L-1.3-1.392Z" fill="#ffd2a8"/>
      </g>
      <g id="Grupo_740" data-name="Grupo 740" transform="translate(121.636 -31.225)">
        <path id="Trazado_1039" data-name="Trazado 1039" d="M0,0A.361.361,0,0,1-.25-.1L-5.008-4.755-12.3-11.746A.361.361,0,0,1-12.413-12v-.037c.772-8.7,1.877-15.614,2.315-18.183a2.079,2.079,0,0,0-.144-1.18.355.355,0,0,1,.127-.441.354.354,0,0,1,.453.052L6.184-14.927l.035.029,4.46,4.768a.343.343,0,0,1,.088.293.34.34,0,0,1-.169.256C6.488-7.153.325-.191.265-.121A.361.361,0,0,1,.011,0ZM-11.692-12.145l7.178,6.879,4.5,4.4C1.158-2.176,6.119-7.588,9.861-9.962L5.725-14.384,5.7-14.412-9.362-30.436A2.34,2.34,0,0,1-9.4-30.1c-.436,2.546-1.524,9.377-2.293,17.958" fill="#2d2e35"/>
      </g>
      <g id="Grupo_741" data-name="Grupo 741" transform="translate(110.559 -49.294)">
        <path id="Trazado_1040" data-name="Trazado 1040" d="M0,0-.61,5.93,6.562,12.8l4.5,4.4c.474-.526,1.562-1.719,2.936-3.11Z" fill="#caa588"/>
      </g>
      <g id="Grupo_742" data-name="Grupo 742" transform="translate(109.949 -43.364)">
        <path id="Trazado_1041" data-name="Trazado 1041" d="M0,0H0L11.666,11.273c1.022-1.137,2.389-2.546,2.942-3.111l0,0c-1.375,1.391-2.463,2.584-2.937,3.11l-4.5-4.4Z" fill="#2d2e35"/>
      </g>
      <g id="Grupo_743" data-name="Grupo 743" transform="translate(110.655 -50.207)">
        <path id="Trazado_1042" data-name="Trazado 1042" d="M0,0C-.248,2.1-.493,4.4-.711,6.837l.005.006L-.095.913,13.9,15c.164-.165.33-.333.5-.5Z" fill="#caa588"/>
      </g>
      <g id="Grupo_744" data-name="Grupo 744" transform="translate(109.283 -43.032)">
        <path id="Trazado_1043" data-name="Trazado 1043" d="M0,0A.325.325,0,0,0,.044.054.384.384,0,0,1,0,0M0,0H0" fill="#2d2e35"/>
      </g>
      <g id="Grupo_745" data-name="Grupo 745" transform="translate(109.928 -42.402)">
        <path id="Trazado_1044" data-name="Trazado 1044" d="M0,0V0L11.462,11.079a.36.36,0,0,0,.246.1l.015,0a.366.366,0,0,0,.254-.118c.3-.338.638-.713.987-1.089l0,0c-.607.656-.975,1.071-.99,1.089a.356.356,0,0,1-.253.12h-.011a.36.36,0,0,1-.25-.1L6.7,6.422Z" fill="#c5c3c4"/>
      </g>
      <g id="Grupo_746" data-name="Grupo 746" transform="translate(125.238 -34.88)">
        <path id="Trazado_1045" data-name="Trazado 1045" d="M0,0C-.7.708-1.34,1.371-1.863,1.927l0,0C-1.023,1.042-.235.238,0,0" fill="#c99b8b"/>
      </g>
      <g id="Grupo_747" data-name="Grupo 747" transform="translate(123.375 -32.954)">
        <path id="Trazado_1046" data-name="Trazado 1046" d="M0,0-.485.52l0,0C-.322.347-.158.173,0,0Z" fill="#2d2e35"/>
      </g>
    </g>
    <g id="Grupo_749" data-name="Grupo 749" transform="translate(109.928 -42.398)">
      <path id="Trazado_1048" data-name="Trazado 1048" d="M0,0V0L-.586-.566Z" fill="#2d2e35"/>
    </g>
    <g id="Grupo_751" data-name="Grupo 751" clip-path="url(#clip-path)">
      <g id="Grupo_750" data-name="Grupo 750" transform="translate(110.284 -50.43)">
        <path id="Trazado_1049" data-name="Trazado 1049" d="M0,0A.364.364,0,0,0-.117.02a.354.354,0,0,0-.236.3l-.7,6.846A.357.357,0,0,0-1,7.394v0l0,0a.461.461,0,0,0,.044.055s0,0,0,.005l.009.008.586.562,6.7,6.422L11.1,19.1a.359.359,0,0,0,.249.1h.012a.357.357,0,0,0,.253-.121c.014-.017.382-.433.989-1.088.149-.16.311-.334.486-.52.523-.556,1.159-1.219,1.862-1.927.044-.045.069-.07.071-.071a.351.351,0,0,0,0-.5l-.254-.255c-.171.17-.337.337-.5.5l0,0c-.553.565-1.92,1.973-2.942,3.11L-.334,7.067-.34,7.061C-.122,4.621.123,2.323.371.223L.252.1A.356.356,0,0,0,0,0" fill="#2d2e35"/>
      </g>
    </g>
    <g id="Grupo_752" data-name="Grupo 752" transform="translate(56.218 -29.822)">
      <path id="Trazado_1051" data-name="Trazado 1051" d="M0,0,5.242,2.535,8.063-5.1,7.33-14.741Z" fill="#caa588"/>
    </g>
    <g id="Grupo_753" data-name="Grupo 753" transform="translate(61.46 -27.287)">
      <path id="Trazado_1052" data-name="Trazado 1052" d="M0,0-5.242-2.535h0L0,0,2.822-7.627v-.006Z" fill="#2d2e35"/>
    </g>
    <g id="Grupo_758" data-name="Grupo 758" clip-path="url(#clip-path)">
      <g id="Grupo_754" data-name="Grupo 754" transform="translate(64.383 -33.142)">
        <path id="Trazado_1053" data-name="Trazado 1053" d="M0,0-2.408,6.506a.206.206,0,0,0,.016-.037L0,0Z" fill="#c5c3c4"/>
      </g>
      <g id="Grupo_755" data-name="Grupo 755" transform="translate(55.569 -29.347)">
        <path id="Trazado_1054" data-name="Trazado 1054" d="M0,0,.016.008,5.641,2.731v0Z" fill="#c99b8b"/>
      </g>
      <g id="Grupo_756" data-name="Grupo 756" transform="translate(64.383 -33.144)">
        <path id="Trazado_1055" data-name="Trazado 1055" d="M0,0-2.4,6.469a.345.345,0,0,1-.2.208l-.133.024-.156-.035-.289-.141v0l.29.14.156.036.133-.027a.352.352,0,0,0,.186-.168L0,0Z" fill="#2d2e35"/>
      </g>
      <g id="Grupo_757" data-name="Grupo 757" transform="translate(64.995 -34.904)">
        <path id="Trazado_1056" data-name="Trazado 1056" d="M0,0S0,.011,0,.016v0Z" fill="#cba07b"/>
      </g>
    </g>
    <g id="Grupo_759" data-name="Grupo 759" transform="translate(64.976 -34.743)">
      <path id="Trazado_1058" data-name="Trazado 1058" d="M0,0-.592,1.6v0L0,0,.006-.04Z" fill="#2d2e35"/>
    </g>
    <g id="Grupo_803" data-name="Grupo 803" clip-path="url(#clip-path)">
      <g id="Grupo_760" data-name="Grupo 760" transform="translate(63.442 -45.947)">
        <path id="Trazado_1059" data-name="Trazado 1059" d="M0,0-7.864,15.814l.639.31L.1,1.383l.734,9.644h0C.641,7.11.339,3.383,0,0" fill="#caa588"/>
      </g>
      <g id="Grupo_761" data-name="Grupo 761" transform="translate(63.801 -46.232)">
        <path id="Trazado_1060" data-name="Trazado 1060" d="M0,0A.354.354,0,0,0-.315.2L-.359.286C-.02,3.669.282,7.4.48,11.312h0v.005l-2.822,7.628-5.243-2.534v0l-.639-.31-.157.316a.362.362,0,0,0-.018.274.355.355,0,0,0,.166.195l5.642,2.729.289.14.157.036.133-.025a.348.348,0,0,0,.2-.208L.582,13.088l.592-1.6.006-.039.014-.106v-.011L.353.328A.348.348,0,0,0,.07.007.339.339,0,0,0,0,0" fill="#2d2e35"/>
      </g>
      <g id="Grupo_762" data-name="Grupo 762" transform="translate(86.819 -83.927)">
        <path id="Trazado_1061" data-name="Trazado 1061" d="M0,0A16.7,16.7,0,0,1-5.462-.729a.353.353,0,0,1-.2-.457.357.357,0,0,1,.458-.207A16.356,16.356,0,0,0,0-.71,18.486,18.486,0,0,0,5.416-1.4a.354.354,0,0,1,.449.22.357.357,0,0,1-.221.453A18.9,18.9,0,0,1,0,0" fill="#2d2e35"/>
      </g>
      <g id="Grupo_763" data-name="Grupo 763" transform="translate(84.079 -105.259)">
        <path id="Trazado_1062" data-name="Trazado 1062" d="M0,0-.128-.024A10.984,10.984,0,0,0-6.035-.517.354.354,0,0,1-6.451-.8a.353.353,0,0,1,.278-.416,11.7,11.7,0,0,1,6.3.526.352.352,0,0,1,.207.459A.356.356,0,0,1,0,0" fill="#2d2e35"/>
      </g>
      <g id="Grupo_764" data-name="Grupo 764" transform="translate(89.752 -105.259)">
        <path id="Trazado_1063" data-name="Trazado 1063" d="M0,0A.353.353,0,0,1-.332-.228a.356.356,0,0,1,.2-.459,11.707,11.707,0,0,1,6.306-.526A.354.354,0,0,1,6.452-.8a.36.36,0,0,1-.419.28,10.974,10.974,0,0,0-5.9.493Z" fill="#2d2e35"/>
      </g>
      <g id="Grupo_765" data-name="Grupo 765" transform="translate(101.647 -119.595)">
        <path id="Trazado_1064" data-name="Trazado 1064" d="M0,0S-18.259,1.535-30.318,7.336c0,0-3.885-1.788-4.949-4.009-.966-2.012,5.094-12.16,13.453-15.13a14.058,14.058,0,0,1,2.615-.67l.07-.012C-7.061-14.317,9.631-8.461,0,0" fill="#82d9d8"/>
      </g>
      <g id="Grupo_766" data-name="Grupo 766" transform="translate(71.329 -111.903)">
        <path id="Trazado_1065" data-name="Trazado 1065" d="M0,0-.149-.033C-.31-.109-4.161-1.9-5.27-4.21c-.273-.569-.137-1.519.4-2.825,1.623-3.934,6.811-10.5,13.256-12.8a14.758,14.758,0,0,1,2.678-.687l.049-.006c8.3-1.26,19.71,1.132,22.021,6.1.714,1.531.843,3.99-2.583,7l-.2.088c-.181.015-18.334,1.6-30.195,7.3ZM15.971-20.172a31.3,31.3,0,0,0-4.729.348l-.074.009a13.722,13.722,0,0,0-2.543.654C2.383-16.942-2.641-10.577-4.217-6.765c-.639,1.555-.475,2.113-.412,2.248C-3.745-2.676-.707-1.1,0-.748c6.244-2.971,14.1-4.794,19.618-5.8,5.485-1,9.794-1.419,10.552-1.486,2.417-2.157,3.2-4.2,2.32-6.09-1.65-3.542-8.984-6.049-16.519-6.049M30.318-7.692h0Z" fill="#2d2e35"/>
      </g>
      <g id="Grupo_767" data-name="Grupo 767" transform="translate(83.335 -117.825)">
        <path id="Trazado_1066" data-name="Trazado 1066" d="M0,0A37.544,37.544,0,0,0-15.239,3.088a16.577,16.577,0,0,0,3.227,2.083A72.916,72.916,0,0,1,3.686.153Q1.818,0,0,0" fill="#6cabab"/>
      </g>
      <g id="Grupo_768" data-name="Grupo 768" transform="translate(68.096 -114.737)">
        <path id="Trazado_1067" data-name="Trazado 1067" d="M0,0,0,0A16.558,16.558,0,0,0,3.221,2.085l.006,0A16.547,16.547,0,0,1,0,0" fill="#2d2e35"/>
      </g>
      <g id="Grupo_769" data-name="Grupo 769" transform="translate(67.161 -114.636)">
        <path id="Trazado_1068" data-name="Trazado 1068" d="M0,0A.334.334,0,0,0,.044.054a15.938,15.938,0,0,0,3.782,2.56.056.056,0,0,1,0-.007A15.7,15.7,0,0,1,0,0" fill="#c5c3c4"/>
      </g>
      <g id="Grupo_770" data-name="Grupo 770" transform="translate(70.986 -112.029)">
        <path id="Trazado_1069" data-name="Trazado 1069" d="M0,0V0C.1.057.167.086.182.093L.328.126l.007,0L.193.093,0,0" fill="#2d2e35"/>
      </g>
      <g id="Grupo_771" data-name="Grupo 771" transform="translate(83.326 -118.535)">
        <path id="Trazado_1070" data-name="Trazado 1070" d="M0,0A38.172,38.172,0,0,0-15.79,3.27c.175.182.364.359.56.529A37.545,37.545,0,0,1,.009.71q1.817,0,3.686.153A72.913,72.913,0,0,0-12,5.882l.006,0A79.812,79.812,0,0,1,6,.393,47.092,47.092,0,0,0,0,0" fill="#6cabab"/>
      </g>
      <g id="Grupo_772" data-name="Grupo 772" transform="translate(89.323 -118.143)">
        <path id="Trazado_1071" data-name="Trazado 1071" d="M0,0A79.863,79.863,0,0,0-17.994,5.491l-.006,0-.006,0a16.558,16.558,0,0,1-3.226-2.082l.005,0c-.2-.17-.385-.346-.56-.529l-.23.1a.364.364,0,0,0-.2.263.351.351,0,0,0,.056.263,15.7,15.7,0,0,0,3.824,2.607c.107.053.175.084.193.093l.143.031.147-.034A75.977,75.977,0,0,1,.072.707a.359.359,0,0,0,.29-.36A.36.36,0,0,0,.05.007L0,0" fill="#2d2e35"/>
      </g>
      <g id="Grupo_773" data-name="Grupo 773" transform="translate(93.773 -113.668)">
        <path id="Trazado_1072" data-name="Trazado 1072" d="M0,0C2.677.845,4.556,2.279,4.556,4.343v.434a10.351,10.351,0,0,0,.708-2.289A3.759,3.759,0,0,0,3.482-1.647a2.189,2.189,0,0,0-1.1-.307A1.968,1.968,0,0,0,1.1-1.32C.655-.869.359-.4,0,0" fill="#705e55"/>
      </g>
      <g id="Grupo_774" data-name="Grupo 774" transform="translate(98.328 -108.537)">
        <path id="Trazado_1073" data-name="Trazado 1073" d="M0,0-.067-.006A.35.35,0,0,1-.355-.354V-.788c0-2.184-2.344-3.382-4.308-4A.361.361,0,0,1-4.9-5.036a.348.348,0,0,1,.081-.33c.142-.16.277-.333.422-.518A8.6,8.6,0,0,1-3.709-6.7a2.285,2.285,0,0,1,1.521-.74,2.409,2.409,0,0,1,1.28.348,4.074,4.074,0,0,1,1.969,4.5A10.61,10.61,0,0,1,.328-.223.347.347,0,0,1,0,0M-3.954-5.3C-1.693-4.5-.289-3.339.182-1.9A6.628,6.628,0,0,0,.358-2.7,3.467,3.467,0,0,0-1.248-6.466a1.763,1.763,0,0,0-.91-.261A1.628,1.628,0,0,0-3.2-6.2a7.374,7.374,0,0,0-.635.75Z" fill="#2d2e35"/>
      </g>
      <g id="Grupo_775" data-name="Grupo 775" transform="translate(92.045 -117.75)">
        <path id="Trazado_1074" data-name="Trazado 1074" d="M0,0A3.694,3.694,0,0,1-1.125-2.64c.985.847,2.506,1.131,4.876-.043a6.339,6.339,0,0,1,1.464-.532c2.29-.484,3.947.908,4.876,2.764a8.565,8.565,0,0,1,.594,1.584,9.434,9.434,0,0,1,.1,4.728c-.12.459-.284.907-.447,1.352-.88-1.439-.627-3.764-1.466-5.437C6.746-1.776,2.485,2.487,0,0" fill="#705e55"/>
      </g>
      <g id="Grupo_776" data-name="Grupo 776" transform="translate(102.387 -110.182)">
        <path id="Trazado_1075" data-name="Trazado 1075" d="M0,0A.352.352,0,0,1-.3-.171a7.807,7.807,0,0,1-.814-2.857,9.11,9.11,0,0,0-.667-2.606C-2.781-7.3-4.3-7-6.06-6.662c-1.593.311-3.237.632-4.522-.645a4.085,4.085,0,0,1-1.239-2.871.356.356,0,0,1,.19-.346.355.355,0,0,1,.4.045c1.043.9,2.553.867,4.483-.09a6.622,6.622,0,0,1,1.55-.562c2.178-.463,4.1.616,5.265,2.953A8.731,8.731,0,0,1,.685-6.525,9.789,9.789,0,0,1,.79-1.619c-.126.479-.3.95-.458,1.387A.353.353,0,0,1,.036,0ZM-4.106-7.632A3.169,3.169,0,0,1-1.16-5.974,9.426,9.426,0,0,1-.414-3.137,12.584,12.584,0,0,0-.038-1.315c.049-.159.1-.323.142-.485A9.124,9.124,0,0,0,0-6.344,7.949,7.949,0,0,0-.568-7.861c-.483-.959-1.876-3.128-4.481-2.576a5.948,5.948,0,0,0-1.386.5C-8.267-9.024-9.8-8.868-11-9.472a2.781,2.781,0,0,0,.89,1.635l.021.018c1.02,1.019,2.417.749,3.9.46a11.113,11.113,0,0,1,2.088-.273" fill="#2d2e35"/>
      </g>
      <g id="Grupo_777" data-name="Grupo 777" transform="translate(83.31 -125.766)">
        <path id="Trazado_1076" data-name="Trazado 1076" d="M0,0A4.724,4.724,0,0,1,3.085-.028h0A5.044,5.044,0,0,1,6.254,3.164,4.963,4.963,0,0,0,7.61,5.376a3.7,3.7,0,0,0,1.125,2.64c2.486,2.487,6.747-1.776,8.876,1.776.839,1.674.586,4,1.467,5.437l-.073.2a15.967,15.967,0,0,0-.879,2.755A3.2,3.2,0,0,0,18.232,20a1.612,1.612,0,0,0,.152.259c.5.729,1.943,2.078,2.633,1.616-1.3.87-3.173,1.888-4.714,1.106l-.169-.091a3.594,3.594,0,0,1-1.115-1.1c-.05-.078-.1-.158-.15-.24-1.03-1.749-.452-3.165.15-4.677a10.4,10.4,0,0,0,.708-2.289,3.761,3.761,0,0,0-1.783-4.136,2.2,2.2,0,0,0-1.1-.306,1.968,1.968,0,0,0-1.282.634c-.446.451-.741.92-1.1,1.322a2.765,2.765,0,0,1-1.57.926,3.284,3.284,0,0,1-1.079.051,3.172,3.172,0,0,1-2.7-1.869l-.086-.185a6.454,6.454,0,0,1-.41-1.431c-.567-3.141.685-9.121-3.269-9.6H1.337A5.378,5.378,0,0,0-.11.039Z" fill="#d09368"/>
      </g>
      <g id="Grupo_778" data-name="Grupo 778" transform="translate(100.834 -102.144)">
        <path id="Trazado_1077" data-name="Trazado 1077" d="M0,0A3.03,3.03,0,0,1-1.383-.323l-.2-.108A3.871,3.871,0,0,1-2.8-1.633c-.064-.1-.115-.175-.165-.26-1.109-1.882-.488-3.44.115-4.95l.015-.034a10.245,10.245,0,0,0,.686-2.216,3.469,3.469,0,0,0-1.606-3.769,1.793,1.793,0,0,0-.91-.261,1.654,1.654,0,0,0-1.046.529,8.674,8.674,0,0,0-.635.751c-.149.2-.294.378-.456.559a3.09,3.09,0,0,1-1.753,1.033,3.6,3.6,0,0,1-1.194.06,3.535,3.535,0,0,1-2.979-2.071l-.09-.188a6.9,6.9,0,0,1-.436-1.517,19.809,19.809,0,0,1-.2-2.949c-.07-2.964-.145-6.03-2.74-6.357l-.036,0a5.044,5.044,0,0,0-1.349.045.359.359,0,0,1-.4-.269.359.359,0,0,1,.237-.419l.1-.037a5.053,5.053,0,0,1,3.294-.036l.026.008a5.409,5.409,0,0,1,3.386,3.414A4.551,4.551,0,0,0-9.68-18.516a.364.364,0,0,1,.119.237,3.3,3.3,0,0,0,1,2.4c1.041,1.037,2.438.767,3.918.478,1.765-.344,3.766-.733,5.034,1.385a9.456,9.456,0,0,1,.746,2.837,7.238,7.238,0,0,0,.717,2.6.349.349,0,0,1,.029.307l-.2.521A13.545,13.545,0,0,0,.953-5.377a2.793,2.793,0,0,0,.085,1.618,1.119,1.119,0,0,0,.117.2c.562.818,1.782,1.761,2.139,1.525h0a.355.355,0,0,1,.494.1.354.354,0,0,1-.1.494A7.141,7.141,0,0,1,0,0M-4.614-13.833a2.5,2.5,0,0,1,1.2.349,4.077,4.077,0,0,1,1.969,4.5,10.636,10.636,0,0,1-.733,2.368l-.013.036c-.588,1.473-1.093,2.745-.159,4.331.044.077.09.145.133.215a3.29,3.29,0,0,0,1.014,1l.123.067c.9.456,2.043.28,3.5-.534A5.807,5.807,0,0,1,.57-3.16a2.134,2.134,0,0,1-.185-.314A3.509,3.509,0,0,1,.253-5.5,14.382,14.382,0,0,1,1.028-8l.137-.358a8.407,8.407,0,0,1-.726-2.7,9.118,9.118,0,0,0-.667-2.606c-1-1.665-2.518-1.369-4.278-1.028-1.6.312-3.245.632-4.531-.655a3.942,3.942,0,0,1-1.216-2.72,5.4,5.4,0,0,1-1.355-2.27,4.7,4.7,0,0,0-2.775-2.908c1.516,1.3,1.583,4.026,1.635,6.32a19.774,19.774,0,0,0,.195,2.842,6.172,6.172,0,0,0,.388,1.351l.079.172A2.823,2.823,0,0,0-9.668-10.9a2.934,2.934,0,0,0,.961-.045,2.414,2.414,0,0,0,1.383-.817c.142-.161.277-.334.418-.519a8.676,8.676,0,0,1,.692-.813,2.285,2.285,0,0,1,1.524-.74Z" fill="#2d2e35"/>
      </g>
      <g id="Grupo_779" data-name="Grupo 779" transform="translate(80.091 -113.695)">
        <path id="Trazado_1078" data-name="Trazado 1078" d="M0,0C.244.6.417.958.417.958A8.129,8.129,0,0,1,4.99-.846l.036,0A15.934,15.934,0,0,1,8.309-.869l.027.006L8.25-1.049a6.5,6.5,0,0,1-.411-1.43c-.566-3.144.69-9.138-3.283-9.6a5.381,5.381,0,0,0-1.447.047C-3.769-10.959-1.134-2.823,0,0" fill="#705e55"/>
      </g>
      <g id="Grupo_780" data-name="Grupo 780" transform="translate(80.508 -112.381)">
        <path id="Trazado_1079" data-name="Trazado 1079" d="M0,0-.068,0A.355.355,0,0,1-.321-.2C-.328-.215-.5-.578-.746-1.18h0c-.8-1.972-2.451-6.892-.7-9.969A5.34,5.34,0,0,1,2.637-13.7a5.571,5.571,0,0,1,1.543-.048c3.242.375,3.329,4.076,3.4,7.05a19.23,19.23,0,0,0,.19,2.84A6.155,6.155,0,0,0,8.16-2.5l.079.173a.359.359,0,0,1-.02.341.361.361,0,0,1-.3.164l-.07-.006a15.382,15.382,0,0,0-3.2.021l-.025,0H4.614A7.619,7.619,0,0,0,.239-.094.353.353,0,0,1,0,0M-.088-1.447c.081.2.155.374.217.517a8.745,8.745,0,0,1,4.4-1.582l.022,0h.01a16.461,16.461,0,0,1,2.8-.068A7.553,7.553,0,0,1,7.073-3.73a20.469,20.469,0,0,1-.2-2.948C6.8-9.654,6.725-12.734,4.1-13.039a5.012,5.012,0,0,0-1.351.044A4.659,4.659,0,0,0-.825-10.8c-1.6,2.81-.019,7.478.737,9.354" fill="#2d2e35"/>
      </g>
      <g id="Grupo_781" data-name="Grupo 781" transform="translate(83.534 -113.904)">
        <path id="Trazado_1080" data-name="Trazado 1080" d="M0,0A.357.357,0,0,1-.318-.193,18.583,18.583,0,0,1-2.14-6.447,5.931,5.931,0,0,1,.237-12.189.355.355,0,0,1,.73-12.1a.353.353,0,0,1-.09.493A5.258,5.258,0,0,0-1.433-6.514a17.842,17.842,0,0,0,1.746,6A.354.354,0,0,1,.16-.038Z" fill="#2d2e35"/>
      </g>
      <g id="Grupo_782" data-name="Grupo 782" transform="translate(85.965 -114.259)">
        <path id="Trazado_1081" data-name="Trazado 1081" d="M0,0A.355.355,0,0,1-.331-.228c-1.21-3.167-1.333-5.418-.364-6.693A2.774,2.774,0,0,1,1.647-7.947a.353.353,0,0,1,.322.388.352.352,0,0,1-.385.32,2.049,2.049,0,0,0-1.719.755c-.555.733-.921,2.371.468,6a.352.352,0,0,1-.2.458Z" fill="#2d2e35"/>
      </g>
      <g id="Grupo_783" data-name="Grupo 783" transform="translate(75.455 -107.708)">
        <path id="Trazado_1082" data-name="Trazado 1082" d="M0,0C4.713,0,5-5.028,5-5.028s-.17-.358-.412-.959A21.889,21.889,0,0,1,3.3-10.525c-.045.245-2.057,11.761-5.57,6.552a6.632,6.632,0,0,0,.195,2.138A1.991,1.991,0,0,0-.013,0Z" fill="#d09368"/>
      </g>
      <g id="Grupo_784" data-name="Grupo 784" transform="translate(75.305 -107.347)">
        <path id="Trazado_1083" data-name="Trazado 1083" d="M0,0A2.351,2.351,0,0,1-2.277-2.133a6.484,6.484,0,0,1-.187-2.286.342.342,0,0,1,.28-.262.349.349,0,0,1,.357.148c.6.888,1.151,1.285,1.65,1.179C1.311-3.672,2.6-8.069,3.1-10.945a.338.338,0,0,1,.353-.3.354.354,0,0,1,.346.3A21.19,21.19,0,0,0,5.071-6.48c.235.582.4.938.4.938l.036.174C5.505-5.313,5.14-.007.15-.007H.136ZM-1.738-3.3c.03.274.082.617.158,1.044A1.628,1.628,0,0,0,.11-.714H.15A4.164,4.164,0,0,0,4.105-3.041,6.527,6.527,0,0,0,4.79-5.326c-.063-.141-.2-.451-.376-.889A23.857,23.857,0,0,1,3.45-9.129C2.9-6.777,1.766-3.043-.026-2.661A1.855,1.855,0,0,1-1.738-3.3" fill="#2d2e35"/>
      </g>
      <g id="Grupo_785" data-name="Grupo 785" transform="translate(72.46 -118.406)">
        <path id="Trazado_1084" data-name="Trazado 1084" d="M0,0A1.546,1.546,0,0,1-1.242-.553a1.756,1.756,0,0,1-.276-1.5A4.053,4.053,0,0,1-.92-3.29,25.232,25.232,0,0,1,4.773-9.5a.353.353,0,0,1,.5.062.355.355,0,0,1-.06.5A24.426,24.426,0,0,0-.324-2.9a3.366,3.366,0,0,0-.5,1.014A1.039,1.039,0,0,0-.688-1a1.115,1.115,0,0,0,1.327.13,3.955,3.955,0,0,0,1.22-1.264.355.355,0,0,1,.5-.082.361.361,0,0,1,.083.5A4.515,4.515,0,0,1,.972-.238,2.151,2.151,0,0,1,0,0" fill="#2d2e35"/>
      </g>
      <g id="Grupo_786" data-name="Grupo 786" transform="translate(97.005 -126.624)">
        <path id="Trazado_1085" data-name="Trazado 1085" d="M0,0A.359.359,0,0,1-.274-.127C-2.157-2.4-8.016-4.113-12.328-3.651a.354.354,0,0,1-.391-.314.355.355,0,0,1,.314-.392C-7.817-4.85-1.772-3.049.273-.581a.356.356,0,0,1-.047.5A.361.361,0,0,1,0,0" fill="#2d2e35"/>
      </g>
      <g id="Grupo_787" data-name="Grupo 787" transform="translate(113.873 41.218)">
        <path id="Trazado_1086" data-name="Trazado 1086" d="M0,0S-1.24,4.638-26.841,4.638-53.679,0-53.679,0s2.012-50.956,4.448-56.637a46.075,46.075,0,0,0,3.067-9.411V-95.535a2.3,2.3,0,0,1,2.3-2.294h33.819a2.294,2.294,0,0,1,2.294,2.294v29.487a62.606,62.606,0,0,0,3.3,9.411C-2.019-50.956,0,0,0,0" fill="#82d9d8"/>
      </g>
      <g id="Grupo_788" data-name="Grupo 788" transform="translate(87.032 46.21)">
        <path id="Trazado_1087" data-name="Trazado 1087" d="M0,0C-10.654,0-18.438-.786-23.131-2.338c-3.586-1.184-4.015-2.427-4.05-2.564l-.014-.106c.082-2.082,2.046-51.086,4.477-56.763a47.067,47.067,0,0,0,3.041-9.3v-29.456a2.651,2.651,0,0,1,2.65-2.65H16.792a2.654,2.654,0,0,1,2.65,2.65v29.447a63.952,63.952,0,0,0,3.272,9.31c2.433,5.677,4.4,54.681,4.483,56.763l-.013.106c-.038.137-.464,1.38-4.053,2.564C18.435-.786,10.653,0,0,0M-26.482-5.054c.1.181.76,1.168,3.921,2.153C-19.354-1.9-12.834-.71,0-.71S19.352-1.9,22.565-2.9c3.124-.972,3.806-1.951,3.918-2.16-.094-2.3-2.083-50.976-4.422-56.43a63.938,63.938,0,0,1-3.322-9.469l-.008-.08v-29.488a1.942,1.942,0,0,0-1.939-1.94H-17.027a1.942,1.942,0,0,0-1.94,1.94V-71.04l-.005.058a46.163,46.163,0,0,1-3.09,9.491c-2.342,5.457-4.33,54.2-4.42,56.437" fill="#2d2e35"/>
      </g>
      <g id="Grupo_789" data-name="Grupo 789" transform="translate(96.841 -51.703)">
        <path id="Trazado_1088" data-name="Trazado 1088" d="M0,0A3.787,3.787,0,0,1,3.787-3.791,3.789,3.789,0,0,1,7.577,0a3.789,3.789,0,0,1-3.79,3.789A3.787,3.787,0,0,1,0,0" fill="#ececec"/>
      </g>
      <g id="Grupo_790" data-name="Grupo 790" transform="translate(100.628 -47.559)">
        <path id="Trazado_1089" data-name="Trazado 1089" d="M0,0A4.15,4.15,0,0,1-4.144-4.144,4.15,4.15,0,0,1,0-8.29,4.148,4.148,0,0,1,4.144-4.144,4.148,4.148,0,0,1,0,0M0-7.581A3.438,3.438,0,0,0-3.433-4.144,3.437,3.437,0,0,0,0-.71,3.437,3.437,0,0,0,3.435-4.144,3.439,3.439,0,0,0,0-7.581" fill="#2d2e35"/>
      </g>
      <g id="Grupo_791" data-name="Grupo 791" transform="translate(98.143 -51.703)">
        <path id="Trazado_1090" data-name="Trazado 1090" d="M0,0A2.485,2.485,0,0,1,2.485-2.486,2.487,2.487,0,0,1,4.971,0,2.487,2.487,0,0,1,2.485,2.484,2.485,2.485,0,0,1,0,0" fill="#ffcb95"/>
      </g>
      <g id="Grupo_792" data-name="Grupo 792" transform="translate(100.628 -48.864)">
        <path id="Trazado_1091" data-name="Trazado 1091" d="M0,0A2.845,2.845,0,0,1-2.842-2.839,2.845,2.845,0,0,1,0-5.681,2.843,2.843,0,0,1,2.841-2.839,2.843,2.843,0,0,1,0,0M0-4.971A2.133,2.133,0,0,0-2.129-2.839,2.131,2.131,0,0,0,0-.71,2.133,2.133,0,0,0,2.13-2.839,2.134,2.134,0,0,0,0-4.971" fill="#2d2e35"/>
      </g>
      <g id="Grupo_793" data-name="Grupo 793" transform="translate(101.927 -67.417)">
        <path id="Trazado_1092" data-name="Trazado 1092" d="M0,0-3.426,14.428c.859,1.479,2.987,1.794,4.612,1.285L4.217,1.5C2.682.887,1.56.493,0,0" fill="#82d9d8"/>
      </g>
      <g id="Grupo_794" data-name="Grupo 794" transform="translate(101.619 -51.127)">
        <path id="Trazado_1093" data-name="Trazado 1093" d="M0,0A3.822,3.822,0,0,1-3.422-1.684a.324.324,0,0,1-.039-.259L-.034-16.37a.361.361,0,0,1,.171-.23.367.367,0,0,1,.281-.029c1.669.53,2.779.926,4.24,1.516a.348.348,0,0,1,.212.4L1.841-.5A.358.358,0,0,1,1.6-.239,5.417,5.417,0,0,1,0,0M-2.736-1.921C-1.954-.743-.195-.5,1.192-.861L4.119-14.567c-1.211-.479-2.2-.834-3.55-1.269Z" fill="#2d2e35"/>
      </g>
      <g id="Grupo_795" data-name="Grupo 795" transform="translate(76.992 -51.703)">
        <path id="Trazado_1094" data-name="Trazado 1094" d="M0,0A3.79,3.79,0,0,0-3.789-3.791,3.79,3.79,0,0,0-7.581,0,3.79,3.79,0,0,0-3.789,3.789,3.79,3.79,0,0,0,0,0" fill="#ececec"/>
      </g>
      <g id="Grupo_796" data-name="Grupo 796" transform="translate(73.204 -47.559)">
        <path id="Trazado_1095" data-name="Trazado 1095" d="M0,0A4.148,4.148,0,0,1-4.145-4.144,4.149,4.149,0,0,1,0-8.29,4.151,4.151,0,0,1,4.145-4.144,4.15,4.15,0,0,1,0,0M0-7.581A3.44,3.44,0,0,0-3.436-4.144,3.439,3.439,0,0,0,0-.71,3.439,3.439,0,0,0,3.434-4.144,3.44,3.44,0,0,0,0-7.581" fill="#2d2e35"/>
      </g>
      <g id="Grupo_797" data-name="Grupo 797" transform="translate(75.688 -51.703)">
        <path id="Trazado_1096" data-name="Trazado 1096" d="M0,0A2.485,2.485,0,0,0-2.484-2.486,2.486,2.486,0,0,0-4.974,0a2.486,2.486,0,0,0,2.49,2.484A2.485,2.485,0,0,0,0,0" fill="#ffcb95"/>
      </g>
      <g id="Grupo_798" data-name="Grupo 798" transform="translate(73.204 -48.864)">
        <path id="Trazado_1097" data-name="Trazado 1097" d="M0,0A2.843,2.843,0,0,1-2.843-2.839,2.843,2.843,0,0,1,0-5.681,2.843,2.843,0,0,1,2.839-2.839,2.843,2.843,0,0,1,0,0M0-4.971A2.135,2.135,0,0,0-2.133-2.839,2.134,2.134,0,0,0,0-.71,2.133,2.133,0,0,0,2.13-2.839,2.134,2.134,0,0,0,0-4.971" fill="#2d2e35"/>
      </g>
      <g id="Grupo_799" data-name="Grupo 799" transform="translate(71.9 -67.417)">
        <path id="Trazado_1098" data-name="Trazado 1098" d="M0,0,3.426,14.428c-.854,1.479-2.983,1.794-4.612,1.285L-4.213,1.5C-2.682.887-1.556.493,0,0" fill="#82d9d8"/>
      </g>
      <g id="Grupo_800" data-name="Grupo 800" transform="translate(72.211 -51.127)">
        <path id="Trazado_1099" data-name="Trazado 1099" d="M0,0A5.462,5.462,0,0,1-1.6-.239.364.364,0,0,1-1.842-.5L-4.875-14.71a.359.359,0,0,1,.219-.4c1.459-.59,2.57-.986,4.239-1.516a.366.366,0,0,1,.281.029.361.361,0,0,1,.171.23L3.463-1.943a.345.345,0,0,1-.04.259A3.824,3.824,0,0,1,0,0M-1.193-.861C.2-.5,1.956-.743,2.738-1.921l-3.3-13.915c-1.352.435-2.344.79-3.548,1.269Z" fill="#2d2e35"/>
      </g>
      <g id="Grupo_801" data-name="Grupo 801" transform="translate(106.118 -45.522)">
        <path id="Trazado_1100" data-name="Trazado 1100" d="M0,0H-38.41a.356.356,0,0,1-.353-.356.355.355,0,0,1,.353-.353H0a.356.356,0,0,1,.356.353A.357.357,0,0,1,0,0" fill="#2d2e35"/>
      </g>
      <g id="Grupo_802" data-name="Grupo 802" transform="translate(16.844 -37.526)">
        <path id="Trazado_1101" data-name="Trazado 1101" d="M0,0-.131-.023a.352.352,0,0,1-.2-.461A4.621,4.621,0,0,1,3.012-3.507a.359.359,0,0,1,.4.3.349.349,0,0,1-.3.4A3.928,3.928,0,0,0,.331-.224.36.36,0,0,1,0,0" fill="#2d2e35"/>
      </g>
    </g>
    <g id="Grupo_804" data-name="Grupo 804" transform="translate(115.806 -82.469)">
      <path id="Trazado_1103" data-name="Trazado 1103" d="M0,0,7.019,7.313l.838-.8L.836-.805Z" fill="#175839"/>
    </g>
    <g id="Grupo_805" data-name="Grupo 805" transform="translate(115.657 -82.472)">
      <path id="Trazado_1104" data-name="Trazado 1104" d="M0,0,7.165,7.465l.989-.947-.073-.076L.987-.95ZM.3.006.982-.653,7.858,6.513l-.687.655Zm7.708,6.51L7.934,6.44l.072.076.075-.074Z" fill="#232229"/>
    </g>
    <g id="Grupo_806" data-name="Grupo 806" transform="translate(115.082 -82.483)">
      <path id="Trazado_1105" data-name="Trazado 1105" d="M0,0,7.73,8.05,9.3,6.539,1.577-1.514ZM1.445.03l.1-.1L7.858,6.51l-.1.1Z" fill="#175839"/>
    </g>
    <g id="Grupo_807" data-name="Grupo 807" transform="translate(114.933 -82.486)">
      <path id="Trazado_1106" data-name="Trazado 1106" d="M0,0,7.876,8.2,9.6,6.545l-.073-.076L1.729-1.66ZM.3.006,1.723-1.362l7.58,7.9L7.882,7.905ZM9.452,6.542l-.073-.076.073.076.075-.073ZM1.522-.044,1.445.029,7.9,6.757l.075-.073.1-.1.077-.072L1.7-.212Zm6.461,6.58-.076.073.076-.073Z" fill="#232229"/>
    </g>
    <g id="Grupo_808" data-name="Grupo 808" transform="translate(117.703 -84.289)">
      <path id="Trazado_1107" data-name="Trazado 1107" d="M0,0,7.021,7.312l.836-.8L.838-.805Z" fill="#175839"/>
    </g>
    <g id="Grupo_809" data-name="Grupo 809" transform="translate(117.553 -84.292)">
      <path id="Trazado_1108" data-name="Trazado 1108" d="M0,0,7.167,7.465l.988-.95-.073-.076L.991-.95ZM.3,0,.985-.653,7.858,6.51l-.685.658ZM8.006,6.513l-.072-.076.072.076.076-.074Z" fill="#232229"/>
    </g>
    <g id="Grupo_810" data-name="Grupo 810" transform="translate(116.98 -84.306)">
      <path id="Trazado_1109" data-name="Trazado 1109" d="M0,0,7.729,8.052,9.3,6.541,1.576-1.512ZM1.447.029l.1-.095,6.31,6.577-.1.094Z" fill="#175839"/>
    </g>
    <g id="Grupo_811" data-name="Grupo 811" transform="translate(116.832 -84.308)">
      <path id="Trazado_1110" data-name="Trazado 1110" d="M0,0,7.874,8.2,9.6,6.547l-.072-.076-7.8-8.129ZM.3,0,1.721-1.361,9.3,6.54,7.88,7.906ZM9.451,6.544l-.073-.077.073.077.076-.073ZM1.523-.044,1.447.029,7.9,6.755l.076-.071.1-.093.078-.072L1.7-.212ZM7.98,6.535m-.075.073.075-.073Z" fill="#232229"/>
    </g>
    <g id="Grupo_812" data-name="Grupo 812" transform="translate(119.599 -86.112)">
      <path id="Trazado_1111" data-name="Trazado 1111" d="M0,0,7.022,7.315l.84-.806L.842-.805Z" fill="#175839"/>
    </g>
    <g id="Grupo_813" data-name="Grupo 813" transform="translate(119.45 -86.117)">
      <path id="Trazado_1112" data-name="Trazado 1112" d="M0,0,7.168,7.468l.991-.953L8.087,6.44,1-.95ZM.3.007.987-.652,7.863,6.51l-.688.661ZM8.011,6.513l-.073-.075.073.075.076-.073Z" fill="#232229"/>
    </g>
    <g id="Grupo_814" data-name="Grupo 814" transform="translate(118.877 -86.127)">
      <path id="Trazado_1113" data-name="Trazado 1113" d="M0,0,7.729,8.053,9.306,6.54,1.578-1.513ZM1.446.03l.1-.1L7.861,6.509l-.1.1Z" fill="#175839"/>
    </g>
    <g id="Grupo_815" data-name="Grupo 815" transform="translate(118.729 -86.13)">
      <path id="Trazado_1114" data-name="Trazado 1114" d="M0,0,7.874,8.2,9.6,6.546,9.53,6.47l-7.8-8.129ZM.3,0,1.723-1.361l7.583,7.9L7.88,7.907ZM9.454,6.543l-.072-.076.072.076L9.53,6.47ZM1.522-.044,1.446.029,7.905,6.757l.076-.073.1-.1.077-.073L1.7-.213Zm6.461,6.58-.076.073.076-.073Z" fill="#232229"/>
    </g>
    <g id="Grupo_816" data-name="Grupo 816" transform="translate(121.501 -87.934)">
      <path id="Trazado_1115" data-name="Trazado 1115" d="M0,0,7.021,7.314l.836-.8L.838-.8Z" fill="#175839"/>
    </g>
    <g id="Grupo_817" data-name="Grupo 817" transform="translate(121.352 -87.937)">
      <path id="Trazado_1116" data-name="Trazado 1116" d="M0,0,7.166,7.466l.988-.949-.073-.076L.99-.949ZM.3,0,.983-.652,7.857,6.512l-.685.657ZM8.005,6.514l-.072-.075.072.075.076-.073Z" fill="#232229"/>
    </g>
    <g id="Grupo_818" data-name="Grupo 818" transform="translate(120.776 -87.949)">
      <path id="Trazado_1117" data-name="Trazado 1117" d="M0,0,7.729,8.052,9.3,6.539,1.577-1.511ZM1.447.029l.1-.095L7.859,6.511l-.1.1Z" fill="#175839"/>
    </g>
    <g id="Grupo_819" data-name="Grupo 819" transform="translate(120.628 -87.952)">
      <path id="Trazado_1118" data-name="Trazado 1118" d="M0,0,7.874,8.2,9.6,6.545l-.073-.076-7.8-8.126ZM.3.006,1.723-1.36,9.3,6.539,7.88,7.906ZM9.453,6.542,9.38,6.466l.073.076.075-.073ZM1.524-.045,1.446.028l6.46,6.73.075-.073.1-.095.076-.073L1.7-.212Zm6.46,6.582-.076.073.076-.073Z" fill="#232229"/>
    </g>
    <g id="Grupo_820" data-name="Grupo 820" transform="translate(123.398 -89.756)">
      <path id="Trazado_1119" data-name="Trazado 1119" d="M0,0,7.021,7.313l.836-.8L.838-.8Z" fill="#175839"/>
    </g>
    <g id="Grupo_821" data-name="Grupo 821" transform="translate(123.25 -89.76)">
      <path id="Trazado_1120" data-name="Trazado 1120" d="M0,0,7.166,7.465l.988-.949L8.081,6.44.99-.947ZM.3.006.983-.651,7.857,6.511l-.685.658ZM8.005,6.514l-.072-.076.072.076.076-.074Z" fill="#232229"/>
    </g>
    <g id="Grupo_822" data-name="Grupo 822" transform="translate(122.674 -89.771)">
      <path id="Trazado_1121" data-name="Trazado 1121" d="M0,0,7.73,8.051,9.3,6.541,1.578-1.51ZM1.447.03l.1-.1L7.86,6.511l-.1.1Z" fill="#175839"/>
    </g>
    <g id="Grupo_823" data-name="Grupo 823" transform="translate(122.525 -89.774)">
      <path id="Trazado_1122" data-name="Trazado 1122" d="M0,0,7.876,8.2,9.6,6.547l-.073-.076-7.8-8.127ZM.3.006,1.723-1.359,9.3,6.54,7.882,7.906ZM9.452,6.544l-.073-.076.073.076.075-.073ZM1.524-.044,1.446.029l6.46,6.733.075-.075.1-.1.074-.073L1.7-.211ZM7.983,6.539m-.076.073.076-.073Z" fill="#232229"/>
    </g>
    <g id="Grupo_824" data-name="Grupo 824" transform="translate(125.295 -91.577)">
      <path id="Trazado_1123" data-name="Trazado 1123" d="M0,0,7.021,7.313l.838-.8L.84-.805Z" fill="#175839"/>
    </g>
    <g id="Grupo_825" data-name="Grupo 825" transform="translate(125.147 -91.579)">
      <path id="Trazado_1124" data-name="Trazado 1124" d="M0,0,7.166,7.465l.99-.95-.073-.076L.992-.95ZM.3.006l.688-.66L7.859,6.509l-.686.659Zm7.71,6.506-.073-.075.073.075.076-.073Z" fill="#232229"/>
    </g>
    <g id="Grupo_826" data-name="Grupo 826" transform="translate(124.574 -91.591)">
      <path id="Trazado_1125" data-name="Trazado 1125" d="M0,0,7.726,8.051,9.3,6.539,1.575-1.513ZM1.444.029l.1-.1L7.858,6.51l-.1.095Z" fill="#175839"/>
    </g>
    <g id="Grupo_827" data-name="Grupo 827" transform="translate(124.426 -91.595)">
      <path id="Trazado_1126" data-name="Trazado 1126" d="M0,0,7.872,8.2,9.6,6.546,9.526,6.47l-7.8-8.128ZM.3.007,1.721-1.361,9.3,6.539,7.879,7.906ZM9.451,6.543l-.073-.076.073.076.075-.073ZM1.52-.044,1.443.028,7.9,6.755l.076-.069.1-.095.079-.073L1.7-.212Zm6.458,6.58M7.9,6.609l.075-.073Z" fill="#232229"/>
    </g>
    <g id="Grupo_828" data-name="Grupo 828" transform="translate(127.196 -93.4)">
      <path id="Trazado_1127" data-name="Trazado 1127" d="M0,0,7.021,7.314l.834-.8L.837-.8Z" fill="#175839"/>
    </g>
    <g id="Grupo_829" data-name="Grupo 829" transform="translate(127.048 -93.403)">
      <path id="Trazado_1128" data-name="Trazado 1128" d="M0,0,7.166,7.465l.986-.949L8.079,6.44.988-.949ZM.3.006.982-.652,7.855,6.511l-.683.658ZM8,6.513l-.073-.075L8,6.513l.075-.073Z" fill="#232229"/>
    </g>
    <g id="Grupo_830" data-name="Grupo 830" transform="translate(126.474 -93.414)">
      <path id="Trazado_1129" data-name="Trazado 1129" d="M0,0,7.726,8.051,9.3,6.541,1.573-1.512ZM1.446.029l.1-.1L7.855,6.51l-.1.1Z" fill="#175839"/>
    </g>
    <g id="Grupo_831" data-name="Grupo 831" transform="translate(126.326 -93.417)">
      <path id="Trazado_1130" data-name="Trazado 1130" d="M0,0,7.871,8.2,9.6,6.547l-.074-.076-7.8-8.128ZM.3.006,1.719-1.36,9.3,6.541,7.878,7.906ZM9.451,6.545l-.073-.077.073.077.075-.074ZM1.521-.042,1.447.03,7.9,6.759l.076-.075.1-.1.074-.073L1.693-.214Zm6.46,6.579-.075.073.075-.073Z" fill="#232229"/>
    </g>
    <g id="Grupo_832" data-name="Grupo 832" transform="translate(129.093 -95.221)">
      <path id="Trazado_1131" data-name="Trazado 1131" d="M0,0,7.021,7.314l.838-.805L.838-.805Z" fill="#175839"/>
    </g>
    <g id="Grupo_833" data-name="Grupo 833" transform="translate(128.945 -95.224)">
      <path id="Trazado_1132" data-name="Trazado 1132" d="M0,0,7.166,7.465l.99-.951-.074-.075L.989-.951ZM.3,0,.983-.654,7.858,6.508l-.687.661Zm7.71,6.507-.073-.076.073.076.075-.073Z" fill="#232229"/>
    </g>
    <g id="Grupo_834" data-name="Grupo 834" transform="translate(128.371 -95.236)">
      <path id="Trazado_1133" data-name="Trazado 1133" d="M0,0,7.728,8.052,9.3,6.539,1.575-1.513ZM1.446.03l.1-.1L7.858,6.51l-.1.1Z" fill="#175839"/>
    </g>
    <g id="Grupo_835" data-name="Grupo 835" transform="translate(128.222 -95.24)">
      <path id="Trazado_1134" data-name="Trazado 1134" d="M0,0,7.874,8.2,9.6,6.546,9.527,6.47l-7.8-8.128ZM.3.007,1.721-1.361,9.3,6.539,7.88,7.907ZM9.452,6.543l-.074-.076.074.076.075-.073ZM1.522-.042,1.447.03,7.9,6.759l.076-.073.1-.1.076-.073L1.7-.213Zm6.46,6.579-.075.074.075-.074Z" fill="#232229"/>
    </g>
    <g id="Grupo_836" data-name="Grupo 836" transform="translate(130.991 -97.043)">
      <path id="Trazado_1135" data-name="Trazado 1135" d="M0,0,7.021,7.315l.838-.8L.839-.8Z" fill="#175839"/>
    </g>
    <g id="Grupo_837" data-name="Grupo 837" transform="translate(130.843 -97.046)">
      <path id="Trazado_1136" data-name="Trazado 1136" d="M0,0,7.167,7.466l.989-.951-.073-.076L.99-.95ZM.3.006.984-.653,7.859,6.509l-.687.659Zm7.71,6.506-.073-.075.073.075.076-.073Z" fill="#232229"/>
    </g>
    <g id="Grupo_838" data-name="Grupo 838" transform="translate(130.268 -97.059)">
      <path id="Trazado_1137" data-name="Trazado 1137" d="M0,0,7.727,8.053,9.3,6.542,1.579-1.511ZM1.445.03l.1-.1L7.858,6.512l-.1.1Z" fill="#175839"/>
    </g>
    <g id="Grupo_839" data-name="Grupo 839" transform="translate(130.119 -97.062)">
      <path id="Trazado_1138" data-name="Trazado 1138" d="M0,0,7.872,8.2,9.6,6.548l-.074-.076-7.8-8.128ZM.3.006,1.723-1.359l7.582,7.9L7.879,7.908Zm9.156,6.54L9.38,6.47l.073.076.075-.074ZM1.523-.044,1.445.028,7.9,6.76l.076-.073.1-.1.076-.073L1.7-.211Zm6.46,6.582-.076.073.076-.073Z" fill="#232229"/>
    </g>
    <g id="Grupo_840" data-name="Grupo 840" transform="translate(132.891 -98.866)">
      <path id="Trazado_1139" data-name="Trazado 1139" d="M0,0,7.02,7.313l.836-.8L.838-.8Z" fill="#175839"/>
    </g>
    <g id="Grupo_841" data-name="Grupo 841" transform="translate(132.743 -98.869)">
      <path id="Trazado_1140" data-name="Trazado 1140" d="M0,0,7.166,7.465l.988-.947L8.08,6.442.989-.949ZM.3,0,.983-.652,7.857,6.512l-.685.656Zm7.708,6.51-.073-.076.073.076.075-.073Z" fill="#232229"/>
    </g>
    <g id="Grupo_842" data-name="Grupo 842" transform="translate(132.169 -98.88)">
      <path id="Trazado_1141" data-name="Trazado 1141" d="M0,0,7.727,8.05,9.3,6.541,1.574-1.511ZM1.445.029l.1-.1,6.31,6.578-.1.1Z" fill="#175839"/>
    </g>
    <g id="Grupo_843" data-name="Grupo 843" transform="translate(132.021 -98.884)">
      <path id="Trazado_1142" data-name="Trazado 1142" d="M0,0,7.871,8.2,9.6,6.547l-.073-.076-7.8-8.127ZM.3.006,1.719-1.359,9.3,6.541,7.879,7.906ZM9.449,6.545l-.073-.077.073.077.076-.074ZM1.521-.044,1.445.028,7.9,6.76l.076-.074.1-.1.075-.073L1.7-.211Zm6.46,6.582-.075.073.075-.073Z" fill="#232229"/>
    </g>
    <g id="Grupo_844" data-name="Grupo 844" transform="translate(134.788 -100.688)">
      <path id="Trazado_1143" data-name="Trazado 1143" d="M0,0,7.021,7.315l.838-.8L.84-.805Z" fill="#175839"/>
    </g>
    <g id="Grupo_845" data-name="Grupo 845" transform="translate(134.639 -100.691)">
      <path id="Trazado_1144" data-name="Trazado 1144" d="M0,0,7.167,7.467l.989-.949-.073-.076L.992-.95ZM.3.007.986-.652,7.858,6.512l-.685.657Zm7.71,6.508-.073-.076.073.076.076-.073Z" fill="#232229"/>
    </g>
    <g id="Grupo_846" data-name="Grupo 846" transform="translate(134.067 -100.701)">
      <path id="Trazado_1145" data-name="Trazado 1145" d="M0,0,7.727,8.051,9.3,6.539,1.572-1.512ZM1.444.029l.1-.1L7.857,6.51l-.1.095Z" fill="#175839"/>
    </g>
    <g id="Grupo_847" data-name="Grupo 847" transform="translate(133.918 -100.705)">
      <path id="Trazado_1146" data-name="Trazado 1146" d="M0,0,7.872,8.2,9.6,6.545l-.073-.076-7.8-8.127ZM.3.006,1.718-1.36,9.3,6.54,7.88,7.906ZM9.45,6.543l-.073-.076.073.076.076-.074ZM1.519-.043,1.445.03,7.9,6.758l.076-.073.1-.1.077-.073L1.694-.214ZM7.981,6.536m-.075.073.075-.073Z" fill="#232229"/>
    </g>
    <g id="Grupo_848" data-name="Grupo 848" transform="translate(136.688 -102.508)">
      <path id="Trazado_1147" data-name="Trazado 1147" d="M0,0,7.019,7.315l.837-.8L.836-.8Z" fill="#175839"/>
    </g>
    <g id="Grupo_849" data-name="Grupo 849" transform="translate(136.538 -102.512)">
      <path id="Trazado_1148" data-name="Trazado 1148" d="M0,0,7.166,7.467l.988-.951L8.081,6.44.988-.949ZM.3.006.982-.651,7.858,6.51l-.687.66ZM8.005,6.513l-.072-.075.072.075.076-.073Z" fill="#232229"/>
    </g>
    <g id="Grupo_850" data-name="Grupo 850" transform="translate(135.963 -102.523)">
      <path id="Trazado_1149" data-name="Trazado 1149" d="M0,0,7.728,8.051,9.3,6.54,1.575-1.511ZM1.446.03l.1-.1L7.858,6.511l-.1.095Z" fill="#175839"/>
    </g>
    <g id="Grupo_851" data-name="Grupo 851" transform="translate(135.814 -102.527)">
      <path id="Trazado_1150" data-name="Trazado 1150" d="M0,0,7.873,8.2,9.6,6.547l-.073-.076-7.8-8.127ZM.3.006,1.72-1.359,9.3,6.541,7.88,7.906ZM9.45,6.544l-.073-.077.073.077.076-.073ZM1.521-.041,1.446.031,7.9,6.758l.076-.073.1-.094.077-.074L1.7-.211ZM7.983,6.537m-.076.073.076-.073Z" fill="#232229"/>
    </g>
    <g id="Grupo_852" data-name="Grupo 852" transform="translate(138.583 -104.331)">
      <path id="Trazado_1151" data-name="Trazado 1151" d="M0,0,7.022,7.314l.836-.8L.839-.8Z" fill="#175839"/>
    </g>
    <g id="Grupo_853" data-name="Grupo 853" transform="translate(138.434 -104.334)">
      <path id="Trazado_1152" data-name="Trazado 1152" d="M0,0,7.168,7.467l.987-.951L8.082,6.44.991-.949ZM.3.006.985-.652,7.858,6.51l-.685.659ZM8.006,6.513l-.073-.075.073.075.076-.073Z" fill="#232229"/>
    </g>
    <g id="Grupo_854" data-name="Grupo 854" transform="translate(137.862 -104.342)">
      <path id="Trazado_1153" data-name="Trazado 1153" d="M0,0,7.73,8.05,9.3,6.537,1.575-1.515ZM1.445.027l.1-.1L7.858,6.507l-.1.1Z" fill="#175839"/>
    </g>
    <g id="Grupo_855" data-name="Grupo 855" transform="translate(137.713 -104.345)">
      <path id="Trazado_1154" data-name="Trazado 1154" d="M0,0,7.876,8.2,9.6,6.542l-.074-.075L1.728-1.66ZM.3,0,1.721-1.363,9.3,6.536,7.882,7.9ZM9.451,6.539l-.073-.075.073.075.075-.072ZM1.521-.046,1.445.027,7.9,6.755l.076-.073.1-.1.076-.072L1.7-.216ZM7.983,6.533m-.076.073.076-.073Z" fill="#232229"/>
    </g>
    <g id="Grupo_856" data-name="Grupo 856" transform="translate(140.483 -106.151)">
      <path id="Trazado_1155" data-name="Trazado 1155" d="M0,0,7.019,7.313l.842-.8L.839-.806Z" fill="#175839"/>
    </g>
    <g id="Grupo_857" data-name="Grupo 857" transform="translate(140.333 -106.155)">
      <path id="Trazado_1156" data-name="Trazado 1156" d="M0,0,7.166,7.466l.993-.949L8.086,6.44.991-.951ZM.3.007l.688-.66L7.862,6.51l-.69.659ZM8.01,6.513l-.072-.076.072.076.076-.073Z" fill="#232229"/>
    </g>
    <g id="Grupo_858" data-name="Grupo 858" transform="translate(139.759 -106.168)">
      <path id="Trazado_1157" data-name="Trazado 1157" d="M0,0,7.728,8.052,9.305,6.541,1.578-1.512ZM1.447.031l.1-.1L7.855,6.512l-.1.1Z" fill="#175839"/>
    </g>
    <g id="Grupo_859" data-name="Grupo 859" transform="translate(139.61 -106.17)">
      <path id="Trazado_1158" data-name="Trazado 1158" d="M0,0,7.874,8.2,9.6,6.547,9.53,6.471l-7.8-8.129ZM.3,0,1.723-1.361l7.582,7.9L7.881,7.906ZM9.454,6.544l-.072-.077.072.077.076-.073ZM1.523-.043,1.448.031,7.9,6.759l.077-.073.1-.1.076-.073L1.7-.212ZM7.981,6.538m-.075.073.075-.073Z" fill="#232229"/>
    </g>
    <g id="Grupo_860" data-name="Grupo 860" transform="translate(142.382 -107.974)">
      <path id="Trazado_1159" data-name="Trazado 1159" d="M0,0,7.019,7.313l.839-.8L.838-.8Z" fill="#175839"/>
    </g>
    <g id="Grupo_861" data-name="Grupo 861" transform="translate(142.233 -107.978)">
      <path id="Trazado_1160" data-name="Trazado 1160" d="M0,0,7.165,7.465l.99-.946-.073-.077L.99-.949ZM.3.006.983-.652,7.858,6.512l-.687.657Zm7.708,6.51-.072-.077.072.077.076-.074Z" fill="#232229"/>
    </g>
    <g id="Grupo_862" data-name="Grupo 862" transform="translate(141.659 -107.989)">
      <path id="Trazado_1161" data-name="Trazado 1161" d="M0,0,7.729,8.051,9.3,6.541,1.574-1.511ZM1.444.029l.1-.094L7.855,6.511l-.1.095Z" fill="#175839"/>
    </g>
    <g id="Grupo_863" data-name="Grupo 863" transform="translate(141.511 -107.992)">
      <path id="Trazado_1162" data-name="Trazado 1162" d="M0,0,7.874,8.2,9.6,6.547l-.073-.076-7.8-8.129ZM.3,0,1.719-1.361,9.3,6.54,7.88,7.906ZM9.452,6.544l-.073-.077.073.077.075-.073ZM1.52-.046,1.443.027l6.462,6.73.075-.073.1-.095.074-.072L1.7-.21ZM7.982,6.536m-.075.073.075-.073Z" fill="#232229"/>
    </g>
    <g id="Grupo_864" data-name="Grupo 864" transform="translate(144.279 -109.794)">
      <path id="Trazado_1163" data-name="Trazado 1163" d="M0,0,7.019,7.313l.838-.8L.836-.807Z" fill="#175839"/>
    </g>
    <g id="Grupo_865" data-name="Grupo 865" transform="translate(144.13 -109.797)">
      <path id="Trazado_1164" data-name="Trazado 1164" d="M0,0,7.165,7.465l.989-.949-.073-.077L.987-.952ZM.3,0,.982-.654,7.857,6.509l-.686.66ZM8.006,6.512l-.073-.075.073.075.075-.073Z" fill="#232229"/>
    </g>
    <g id="Grupo_866" data-name="Grupo 866" transform="translate(143.556 -109.811)">
      <path id="Trazado_1165" data-name="Trazado 1165" d="M0,0,7.727,8.053,9.3,6.54,1.575-1.512ZM1.445.03l.1-.1L7.858,6.511l-.1.095Z" fill="#175839"/>
    </g>
    <g id="Grupo_867" data-name="Grupo 867" transform="translate(143.408 -109.813)">
      <path id="Trazado_1166" data-name="Trazado 1166" d="M0,0,7.872,8.2,9.6,6.546,9.528,6.47l-7.8-8.129ZM.3,0,1.72-1.361,9.3,6.54,7.88,7.907ZM9.453,6.543,9.38,6.467l.073.076.075-.073ZM1.521-.044,1.445.03,7.9,6.756l.076-.071.1-.095.077-.073L1.7-.212Zm6.461,6.58-.075.073.075-.073Z" fill="#232229"/>
    </g>
    <g id="Grupo_868" data-name="Grupo 868" transform="translate(146.176 -111.617)">
      <path id="Trazado_1167" data-name="Trazado 1167" d="M0,0,7.021,7.313l.838-.8L.838-.805Z" fill="#175839"/>
    </g>
    <g id="Grupo_869" data-name="Grupo 869" transform="translate(146.028 -111.621)">
      <path id="Trazado_1168" data-name="Trazado 1168" d="M0,0,7.167,7.465l.989-.95L8.083,6.44.99-.95ZM.3,0,.984-.652,7.858,6.51l-.685.658ZM8.007,6.513l-.073-.076.073.076.076-.073Z" fill="#232229"/>
    </g>
    <g id="Grupo_870" data-name="Grupo 870" transform="translate(145.455 -111.632)">
      <path id="Trazado_1169" data-name="Trazado 1169" d="M0,0,7.727,8.051,9.3,6.538,1.576-1.513ZM1.445.03l.1-.1L7.855,6.508l-.1.1Z" fill="#175839"/>
    </g>
    <g id="Grupo_871" data-name="Grupo 871" transform="translate(145.307 -111.634)">
      <path id="Trazado_1170" data-name="Trazado 1170" d="M0,0,7.871,8.2,9.6,6.543l-.072-.076-7.8-8.126ZM.3.006,1.721-1.362,9.3,6.537,7.878,7.906ZM9.451,6.54l-.073-.075.073.075.076-.073ZM1.518-.043,1.445.029,7.9,6.757l.076-.074.1-.1.074-.074L1.7-.215ZM7.979,6.536,7.9,6.609l.075-.073Z" fill="#232229"/>
    </g>
    <g id="Grupo_876" data-name="Grupo 876" clip-path="url(#clip-path)">
      <g id="Grupo_872" data-name="Grupo 872" transform="translate(156.518 -106.634)">
        <path id="Trazado_1171" data-name="Trazado 1171" d="M0,0A2.83,2.83,0,0,1-.172,4l-30.4,29.179a2.833,2.833,0,0,1-4,.007,2.835,2.835,0,0,1,.171-4L-4,.008A2.831,2.831,0,0,1,0,0" fill="#de6451"/>
      </g>
      <g id="Grupo_873" data-name="Grupo 873" transform="translate(156.518 -106.634)">
        <path id="Trazado_1172" data-name="Trazado 1172" d="M0,0-.3.291A2.273,2.273,0,0,1,.326,1.876,2.524,2.524,0,0,1-.464,3.7l-30.4,29.18a2.533,2.533,0,0,1-1.751.713,2.278,2.278,0,0,1-1.658-.694,2.276,2.276,0,0,1-.627-1.586,2.525,2.525,0,0,1,.786-1.819L-3.712.311A2.536,2.536,0,0,1-1.961-.4,2.277,2.277,0,0,1-.3.291L0,0,.3-.292a3.121,3.121,0,0,0-2.264-.953A3.376,3.376,0,0,0-4.294-.3L-34.7,28.884a3.367,3.367,0,0,0-1.044,2.425,3.114,3.114,0,0,0,.861,2.168,3.127,3.127,0,0,0,2.265.954,3.371,3.371,0,0,0,2.333-.949L.119,4.3A3.372,3.372,0,0,0,1.167,1.876,3.116,3.116,0,0,0,.3-.292Z" fill="#232229"/>
      </g>
      <g id="Grupo_874" data-name="Grupo 874" transform="translate(179.832 -53.013)">
        <path id="Trazado_1173" data-name="Trazado 1173" d="M0,0A3.114,3.114,0,0,1-.088,4.4a3.115,3.115,0,0,1-4.4-.091L-40.729-33.455a3.109,3.109,0,0,1,.092-4.4,3.109,3.109,0,0,1,4.4.092Z" fill="#de6451"/>
      </g>
      <g id="Grupo_875" data-name="Grupo 875" transform="translate(179.832 -53.013)">
        <path id="Trazado_1174" data-name="Trazado 1174" d="M0,0-.3.292A2.676,2.676,0,0,1,.445,2.153,2.7,2.7,0,0,1-.38,4.1v0a2.686,2.686,0,0,1-1.864.749,2.686,2.686,0,0,1-1.944-.828L-40.426-33.746a2.675,2.675,0,0,1-.748-1.86,2.675,2.675,0,0,1,.828-1.942,2.672,2.672,0,0,1,1.861-.749,2.674,2.674,0,0,1,1.941.828L-.3.292,0,0,.3-.292l-36.24-37.76a3.529,3.529,0,0,0-2.548-1.087,3.524,3.524,0,0,0-2.443.983,3.518,3.518,0,0,0-1.087,2.55,3.517,3.517,0,0,0,.982,2.442L-4.793,4.6a3.531,3.531,0,0,0,2.55,1.085A3.531,3.531,0,0,0,.2,4.7v0A3.535,3.535,0,0,0,1.286,2.153,3.526,3.526,0,0,0,.3-.292Z" fill="#232229"/>
      </g>
    </g>
  </g>
</svg>
