<?xml version="1.0" encoding="utf-8"?>
<!-- Generator: Adobe Illustrator 16.0.0, SVG Export Plug-In . SVG Version: 6.00 Build 0)  -->
<!DOCTYPE svg PUBLIC "-//W3C//DTD SVG 1.1//EN" "http://www.w3.org/Graphics/SVG/1.1/DTD/svg11.dtd">
<svg version="1.1" id="Capa_1" xmlns="http://www.w3.org/2000/svg" xmlns:xlink="http://www.w3.org/1999/xlink" x="0px" y="0px"
	 width="352.766px" height="405.993px" viewBox="0 0 352.766 405.993" enable-background="new 0 0 352.766 405.993"
	 xml:space="preserve">
<g>
	<g opacity="0.9069">
		<path fill="#A7A7A7" d="M0,391.188c0,8.178,28.865,14.805,64.475,14.805c35.61,0,64.476-6.627,64.476-14.805
			c0-8.18-28.866-14.811-64.476-14.811C28.865,376.378,0,383.009,0,391.188z"/>
	</g>
	<g>
		<path fill-rule="evenodd" clip-rule="evenodd" fill="#A3BD31" d="M105.189,283.173c-3.294-2.256-6.388-5.248-4.099-10.172
			c9.116-19.629,5.841-37.588-5.525-55.643c-27.681-43.99-30.682-103.199,4.363-152.707
			c46.813-66.131,135.745-78.908,199.765-29.127c54.822,42.627,72.436,123.986,27.662,188.271
			c-27.252,39.131-65.943,58.4-113.654,59.508c-18.088,0.42-32.191,8.447-42.431,23.201c-4.69,6.764-6.212,7.852-13.908,4.783
			c-9.371-3.738-18.429-8.248-27.736-12.475C121.49,293.649,113.184,288.642,105.189,283.173z M311.738,200.093
			c29.859-54.777,9.522-123.879-45.172-153.518c-54.525-29.533-123.504-9.068-153.001,45.393
			c-29.683,54.811-9.487,123.18,45.163,152.889C213.543,274.646,282.027,254.622,311.738,200.093z"/>
		<path fill-rule="evenodd" clip-rule="evenodd" fill="#A3BD31" d="M111.622,332.302c7.994,4.334,15.978,8.668,23.973,12.996
			c4.065,2.197,8.365,3.414,11-1.574c2.445-4.633-0.702-7.609-4.549-9.693c-16.134-8.805-32.298-17.568-48.472-26.295
			c-3.855-2.09-8.052-3.096-10.61,1.482c-2.743,4.93,0.63,7.873,4.685,10.074C95.639,323.634,103.628,327.968,111.622,332.302z"/>
		<path fill-rule="evenodd" clip-rule="evenodd" fill="#A3BD31" d="M125.96,305.296c-8.159-4.422-16.32-8.834-24.47-13.285
			c-3.689-2.016-7.526-3.086-9.956,1.365c-2.489,4.568,0.224,7.555,4.216,9.711c16.32,8.84,32.641,17.688,48.941,26.557
			c3.973,2.152,8,2.904,10.474-1.686c2.606-4.83-0.908-7.34-4.725-9.404C142.267,314.157,134.121,309.716,125.96,305.296z"/>
		<path fill-rule="evenodd" clip-rule="evenodd" fill="#A3BD31" d="M103.267,348.169c2.664,1.449,5.221,3.771,8.013,4.084
			c2.704,0.299,7.018-0.674,8.091-2.541c1.036-1.816-0.234-6.707-2.089-8.088c-4.988-3.68-10.629-6.744-16.437-8.932
			c-2.196-0.83-6.959,0.641-7.984,2.49c-1.025,1.865,0.371,6.145,2.098,8.168c1.962,2.291,5.476,3.262,8.316,4.795
			C103.276,348.149,103.267,348.159,103.267,348.169z"/>
		<circle fill-rule="evenodd" clip-rule="evenodd" fill="#A3BD31" cx="213.494" cy="143.524" r="126.453"/>
	</g>
	<g>
		<path fill="#E0AC7F" d="M106.464,214.401c1.22,4.449,2.704,6.979,0.786,8.549c-1.92,1.568-1.519,8.283-1.346,11.596
			c0.175,3.316,10.329,0.701,10.329,0.701s0-9.334-1.658-21.281C112.395,213.966,106.464,214.401,106.464,214.401z"/>
		<path fill="#E0AC7F" d="M115.848,226.116c-0.059,5.35,1.221,12.734,0.058,14.711c-1.164,1.979-6.627,10.758-7.559,10.525
			s-0.35-2.326-0.35-2.326c-1.862,1.977-4.186,3.141-3.604-2.209c1.511-3.723,2.559-5.232,2.559-6.162
			c-2.909,4.301-3.14,6.512-4.304,6.396c-1.164-0.119,1.048-5.584,2.56-7.91c1.511-2.326-0.001-10.35,0.813-12.908
			C106.836,223.675,115.848,226.116,115.848,226.116z"/>
		<g>
			<g>
				<path fill="#C0885C" d="M112.657,230.886c-0.109-0.072-0.882,0.943-1.471,2.895c-0.329,0.951-0.567,2.152-1.057,3.316
					c-0.251,0.586-0.556,1.193-0.952,1.746c-0.189,0.279-0.417,0.539-0.643,0.738c-0.058,0.055-0.112,0.094-0.166,0.125
					c-0.038,0.027-0.025,0.018-0.032,0.02c-0.006,0-0.01-0.002-0.011-0.008c0.027,0.139-0.092-0.357-0.079-0.768
					c-0.001-0.422,0.023-0.869,0.07-1.322c0.093-0.922,0.256-1.828,0.435-2.697c0.092-0.434,0.191-0.857,0.297-1.271
					c0.103-0.418,0.223-0.791,0.323-1.262c0.359-1.812-0.014-3.352-0.106-4.559c-0.137-1.221-0.011-2.154,0.249-2.77
					c0.253-0.613,0.509-0.926,0.426-1c-0.042-0.045-0.426,0.141-0.863,0.766c-0.447,0.615-0.746,1.75-0.711,3.047
					c-0.008,1.291,0.227,2.783-0.139,4.254c-0.47,1.531-0.979,3.406-1.176,5.363c-0.052,0.488-0.078,0.979-0.07,1.477
					c0.005,0.25,0.028,0.508,0.067,0.773c0.028,0.223,0.19,0.725,0.481,1.025c0.298,0.221,0.678,0.299,1.04,0.189
					c0.17-0.072,0.369-0.139,0.483-0.236c0.111-0.072,0.21-0.15,0.291-0.23c0.343-0.316,0.6-0.648,0.817-0.988
					c0.443-0.67,0.744-1.355,0.986-2.018c0.476-1.357,0.603-2.539,0.824-3.504C112.328,232.05,112.814,230.972,112.657,230.886z"/>
			</g>
		</g>
		<path fill="#E0AC7F" d="M38.163,274.849c-0.607,19.402-0.017,95.5-1.532,102.473c-1.518,6.975-11.824,20.312-9.702,23.346
			c2.124,3.031,15.766-10.916,18.494-19.102c2.728-8.186,11.52-99.744,11.52-99.744L38.163,274.849z"/>
		<path fill="#040026" d="M46.332,377.624c-11.521,18.646-19.176,22.057-15.84,12.357c0,0-7.504,11.746-3.865,12.049
			c2.534,0.211,9.929-4.768,15.338-12.934l-0.18,3.156l2.122-1.818c0,0,0.961-4.494,1.539-7.908
			C46.154,380.542,46.572,378.401,46.332,377.624z"/>
		<path fill="#E0AC7F" d="M74.698,277.577c0,11.824,0.909,94.818,1.591,96.865c0.682,2.045,12.508,14.855,26.15,13.945
			c3.638-0.908-12.734-12.127-16.145-17.131c-1.138-17.053,7.048-85.039,7.959-96.635C95.162,263.026,74.698,277.577,74.698,277.577
			z"/>
		<path fill="#040026" d="M75.759,369.741c-0.757,3.184-0.644,6.293,2.236,17.205c1.024,0.533,2.275,0.455,2.275,0.455
			c0.059-2.68-0.569-4.434-0.683-7.957c8.186,6.139,9.437,10.346,19.972,10.459c4.419,0.049,10.004,0.758,0-6.367
			C100.317,388.841,88.797,384.901,75.759,369.741z"/>
		<path fill="#362310" d="M97.759,85.415c-5.457-5.004-13.189-6.67-23.799-3.184c-10.61,3.486-17.585,0.756-23.649,0.455
			c-6.062-0.303-15.006,1.061-18.643,1.666c-10.612-6.82-1.213-48.811-0.607-52.297c0.607-3.486,37.594-25.467,43.96-23.646
			c6.368,1.818,12.582,0,14.856,2.727c2.273,2.73-0.605,31.381,5.761,40.02C102.003,59.798,107.461,75.259,97.759,85.415z"/>
		<path fill="#5A3413" d="M40.648,57.274c0.607,9.098,14.515,30.717,1.175,39.51c-0.91-5.457-3.639-10.764-10.005-8.186
			c-6.367,2.576-13.641-0.305-15.764-3.791C6.655,68.437,12.87,56.915,18.63,49.335c5.759-7.578,7.731-19.855,7.731-19.855
			l12.127,14.096"/>
		<path fill="#5A3413" d="M73.505,14.622c6.82-11.822,28.043-5.152,26.678,5.307c-1.364,10.461-9.396,19.859-0.604,29.861
			c8.791,10.008,15.006,24.559,7.732,33.502c-7.278,8.945-5.459,9.398-4.095,11.066c-9.854-3.639-10.004-8.338-4.246-20.768
			c5.761-12.43-10.906-25.432-10.761-39.262C88.361,19.776,83.356,15.382,73.505,14.622z"/>
		<path fill="#37270F" d="M90.634,24.778c-1.447,6.611-1.903,12.799-0.66,18.133c-1.083-2.826-1.795-5.686-1.765-8.582
			c0.126-12.209-3.377-17.268-10.327-19.027C85.297,13.653,92.622,15.688,90.634,24.778z"/>
		<path fill="#C3C2BB" d="M32.942,346.399c4.85,2.576,15.612,1.666,18.948,0.303c2.576-14.402,17.583-121.576,17.583-121.576
			s3.943,116.268,4.095,118.693c6.367,3.641,15.006,0.455,16.522-1.363c1.668-12.432,4.851-78.672,5.76-92.166
			c0.909-13.49-2.273-44.566-3.032-55.178c-0.757-10.609-5.457-28.195-5.457-28.195s-16.75,2.881-35.471-0.15
			C42.038,181.167,32.791,337.304,32.942,346.399z"/>
		<path fill="#DBABB0" d="M44.844,98.97c3.979-2.844,19.668-5.23,31.037,0c9.664,7.275,6.139,8.299,5.57,8.412
			c-0.567,0.113-38.313,4.094-38.313,4.094"/>
		<path fill="#E0AC7F" d="M49.505,68.046c1.061,12.125,3.943,30.051-8.187,37.176c4.548,17.736,33.086,21.525,33.086,21.525
			s5.911-20.463,3.334-24.559c-9.702-2.119-9.247-11.898-9.703-25.389C65.762,71.796,49.505,68.046,49.505,68.046z"/>
		<path fill="#C0885C" fill-opacity="0.5" d="M70.126,95.886C68.259,91.325,68.304,84.7,68.035,76.8
			c-2.273-5.004-18.53-8.754-18.53-8.754c0.482,5.514,1.339,12.23,0.99,18.584C57.305,92.45,65.68,95.222,70.126,95.886z"/>
		<path fill="#040026" d="M43.911,106.081c5.002,7.73,16.617,55.945,13.735,62.615c19.251,0.758,29.308,0,29.308,0
			c5.153-18.797,8.67-54.795-11.187-67.68c1.516,8.184-0.454,16.635-2.729,18C66.369,117.349,46.032,104.263,43.911,106.081z"/>
		<path fill="#E0AC7F" d="M88.5,28.14c-1.137,14.324-0.91,22.965,1.592,34.107c1.138,5.002,0.455,12.277-17.054,22.512
			c-2.614,1.25-29.217-5.004-32.741-26.832c-3.634-22.496,3.637-40.473,17.279-43.203C71.22,11.995,87.363,13.587,88.5,28.14z"/>
		<path fill="#E0AC7F" d="M39.387,48.981c-3.867-5.949-11.369-1.514-8.944,4.852c2.511,6.594,8.715,7.391,12.013,3.98
			C41.849,52.962,39.387,48.981,39.387,48.981z"/>
		<g>
			<g>
				<g>
					<path d="M61.328,53.72c-0.38,0.079-0.827-0.952-1.643-2.298c-0.422-0.657-0.959-1.365-1.689-1.867
						c-0.711-0.525-1.647-0.835-2.792-0.983c-2.299-0.273-4.812,0.036-6.742-0.596c-0.965-0.295-1.7-0.881-1.997-1.385
						c-0.314-0.501-0.281-0.857-0.146-0.942c0.166-0.111,0.433,0.037,0.837,0.184c0.402,0.154,0.922,0.294,1.662,0.313
						c0.741,0.021,1.686-0.063,2.812-0.164c1.124-0.093,2.435-0.202,3.906-0.025c1.459,0.173,2.983,0.75,4.007,1.727
						c1.051,0.948,1.572,2.079,1.847,2.987C61.893,52.524,61.653,53.66,61.328,53.72z"/>
				</g>
			</g>
		</g>
		<path d="M51.785,47.075c-0.831,0.855-1.372,2.133-1.372,3.576c0,2.572,1.682,4.66,3.753,4.66s3.751-2.088,3.751-4.66
			c0-1.389-0.498-2.623-1.274-3.477C55.024,47.106,53.405,47.081,51.785,47.075z"/>
		<g>
			<g>
				<path fill="#C0885C" d="M70.233,63.235c0.053,0.141,1.142,0.016,2.81-0.723c0.41-0.209,0.864-0.447,1.305-0.871
					c0.218-0.211,0.443-0.484,0.571-0.857c0.154-0.377,0.101-0.838-0.03-1.213c-0.31-0.723-0.824-1.176-1.312-1.609
					c-0.555-0.459-0.873-0.705-1.114-1.229c-0.468-0.99-0.446-2.256-0.393-3.352c0.062-1.117,0.197-2.135,0.298-2.994
					c0.214-1.719,0.315-2.803,0.139-2.842c-0.167-0.037-0.578,0.973-1.025,2.676c-0.216,0.854-0.448,1.877-0.582,3.061
					c-0.104,1.17-0.239,2.553,0.417,4.01c0.172,0.355,0.406,0.684,0.679,0.969c0.304,0.291,0.552,0.471,0.778,0.654
					c0.458,0.371,0.866,0.766,1.027,1.102c0.333,0.539-0.525,1.287-1.202,1.711C71.175,62.603,70.162,63.05,70.233,63.235z"/>
			</g>
		</g>
		<path d="M76.979,53.632c0.536,1.152,1.393,1.908,2.365,1.908c1.623,0,2.941-2.088,2.941-4.662c0-1.559-0.487-2.93-1.231-3.777
			C78.596,48.511,77.528,50.956,76.979,53.632z"/>
		<g>
			<path fill="#362310" d="M78.609,38.825c-0.13-0.082,0.094-0.717,0.912-1.342c0.796-0.623,2.163-1.139,3.712-1.09
				c1.554,0.027,2.921,0.74,3.6,1.508c0.688,0.781,0.778,1.432,0.644,1.492c-0.176,0.098-0.544-0.35-1.236-0.812
				c-0.692-0.459-1.766-0.885-3.051-0.914c-1.276-0.041-2.439,0.252-3.208,0.592C79.198,38.587,78.763,38.942,78.609,38.825z"/>
		</g>
		<path fill="#C85435" d="M60.002,67.931c4.319,7.279,16.678,19.637,16.449,3.107C75.465,70.585,60.002,67.931,60.002,67.931z"/>
		<path fill="#FFFFFF" d="M59.776,67.401c5.835,1.668,14.323,0.15,19.326,0.15c-3.789,2.957-4.85,9.854-5.987,10.006
			C69.478,77.558,63.642,72.403,59.776,67.401z"/>
		<path fill="#C85435" d="M60.154,67.325c4.017,1.062,15.841-2.502,20.918-0.227C77.512,68.009,64.398,69.901,60.154,67.325z"/>
		<g>
			<g>
				<path fill="#C0885C" d="M61.67,66.794c-0.1-0.324-1.166-0.275-2.231,0.34c-0.552,0.268-0.96,0.68-1.227,0.99
					c-0.265,0.318-0.364,0.58-0.256,0.717c0.241,0.291,1.119-0.055,2.095-0.588C61.023,67.687,61.784,67.142,61.67,66.794z"/>
			</g>
		</g>
		<g>
			<g>
				<g>
					<path d="M76.96,53.548c-0.344-0.045-0.61-0.932-0.498-2.408c0.053-0.736,0.233-1.629,0.689-2.612
						c0.426-0.961,1.391-2.104,2.766-2.573c1.362-0.455,2.54-0.283,3.441-0.169c0.916,0.141,1.604,0.268,2.09,0.268
						c0.906,0.073,1.493-0.644,1.845-0.479c0.154,0.07,0.251,0.347,0.113,0.814c-0.112,0.453-0.638,1.154-1.516,1.477
						c-1.718,0.64-3.798,0.094-5.103,0.578c-1.22,0.376-1.989,1.979-2.52,3.154C77.735,52.785,77.336,53.599,76.96,53.548z"/>
				</g>
			</g>
		</g>
		<path fill="#DB9600" d="M52.006,272.575c-9.322-0.229-31.493-1.023-36.381-12.621c6.025-23.986,12.961-61.848,28.65-89.816
			c1.934-5.797-9.209-20.236-13.301-32.514c-3.979-13.529-6.747-27.398-6.444-27.854c1.669-1.592,16.904-4.891,16.904-4.891
			s17.85,11.369,19.896,27.742c2.046,16.371-0.229,46.953-2.614,68.441C56.327,222.55,57.008,264.845,52.006,272.575z"/>
		<path fill="#BF8107" d="M44.995,98.856c-4.397,3.486-9.002,5.148-8.962,5.627c0.644,7.922,8.052,15.594,8.962,16.354
			c5.457,1.211,11.065,3.182,11.065,3.182c-6.668,4.018-5.306,4.395-5.306,4.395c6.368,5.459,11.673,22.135,10.915,37.141
			c3.941-25.162,7.655-33.123-15.46-61.545C44.228,101.575,44.995,98.856,44.995,98.856z"/>
		<path fill="#C98400" d="M92.29,111.437c8.261,6.404,6.368,34.865,13.341,51.539c6.972,16.676,12.884,48.055,12.884,51.389
			c-6.064,5.154-13.645,3.639-15.766,1.213c-6.367-17.584-12.582-49.873-14.4-60.484C91.003,139.556,92.29,111.437,92.29,111.437z"
			/>
		<path fill="#DB9600" d="M86.568,156.724c-4.978,16.619,3.752,90.385-3.297,113.576c5.685,0.91,13.984-5.91,15.122-8.186
			c1.136-2.273-4.549-86.404-6.822-100.273c-2.274-13.871,8.753-22.854,2.388-46.955c-5.003-4.094-4.662-1.252-4.662-1.252
			S92.934,135.464,86.568,156.724z"/>
		<path fill="#BF8107" d="M73.152,97.946c8.489,8.338,21.107,20.311,13.225,59.572c8.339-14.4,10.459-34.865,10.459-34.865
			s-4.09-4.396-4.698-4.396c3.032-2.273,4.85-3.182,4.396-4.242S80.599,97.149,73.152,97.946z"/>
		<path fill="#C98400" d="M43.023,207.089c2.843-2.615,6.595-7.162,6.595-7.162c3.411,7.162,5.911,20.689,5.457,23.986
			c-2.273,7.506-12.391,11.711-15.802,9.096c-3.071-5.57-3.184-19.439-3.184-19.439S40.751,209.364,43.023,207.089z"/>
		<path fill="#C98400" d="M26.804,205.876c3.261,0.834,11.897-5.686,10.459-9.398C34.384,194.735,25.059,197.31,26.804,205.876z"/>
		<path fill="#E0AC7F" d="M31.202,194.735c3.864,4.66,4.435,8.262,8.641,6.973c3.806-1.166,6.024,5.838,11.14,6.631
			c1.706,0.797,0.075,3.145-0.985,2.92c-1.062-0.229-6.745-2.805-6.745-2.805c-2.844,4.092-7.163,5.115-7.163,5.115
			c-5.685-4.662-10.574-12.961-10.574-12.961L31.202,194.735z"/>
		<path fill="#BF8107" d="M24.529,109.771c-0.605,1.363-22.585,53.963-21.98,62.455c0.607,8.486,17.735,28.646,24.255,33.65
			c1.517-7.654,10.459-9.398,10.459-9.398c-5.457-8.338-16.221-23.346-16.979-28.045c-0.758-4.699,12.323-28.318,13.189-30.166
			C41.509,121.138,25.135,108.405,24.529,109.771z"/>
		<path fill="#C98400" d="M88.804,201.632c0.153,4.547-0.302,19.707,0.608,21.678c0.91,1.969,5.759,6.365,6.517,6.062
			c0.759-0.305,0.454-20.617,0.454-20.617L88.804,201.632z"/>
		<g>
			<path fill="#C98400" d="M48.027,177.983c0.087-0.014,0.1-0.34,0.046-0.924c-0.027-0.295-0.069-0.65-0.129-1.064
				c-0.07-0.408-0.182-0.865-0.298-1.373c-0.455-2.037-1.354-4.762-2.499-7.709c-2.29-5.9-4.891-10.354-5.193-10.189
				c-0.317,0.168,1.738,4.812,4.007,10.654c1.134,2.918,2.155,5.564,2.822,7.496c0.175,0.48,0.333,0.916,0.473,1.299
				c0.119,0.387,0.232,0.717,0.332,0.988C47.788,177.702,47.94,177.999,48.027,177.983z"/>
		</g>
		<path fill="#5A3413" d="M76.84,15.687C74.869,25.993,73.353,36.3,62.438,39.634c-10.915,3.338-21.677-0.15-21.221,2.275
			c0.455,2.426,2.369,11.008-0.058,11.615c-3.183-3.789-3.225-4.768-4.793-6.461c-2.596-2.805-11.52-2.426-11.37-10.156
			c0.152-7.732,3.184-23.346,9.399-24.557c6.215-1.215,13.34-1.971,19.251-8.34c5.913-6.363,22.739-6.062,27.742,7.58
			C79.266,10.378,76.992,14.167,76.84,15.687z"/>
		<g>
			<path fill="#362310" d="M63.111,38.372c-0.128,0.156-0.804-0.27-1.964-0.633c-1.161-0.365-2.841-0.59-4.726-0.434
				c-3.784,0.299-6.725,1.555-6.879,1.219c-0.181-0.279,2.667-2.154,6.785-2.488c2.041-0.174,3.953,0.229,5.162,0.873
				C62.71,37.55,63.212,38.267,63.111,38.372z"/>
		</g>
	</g>
	<g>
		<g>
			<g>
				<path fill="#2B1C48" d="M157.978,79.719h3.934l0.691,30.756h-5.316L157.978,79.719z M157.359,70.434h5.172v4.398h-5.172V70.434z
					"/>
				<path fill="#2B1C48" d="M171.781,70.434h7.064c3.643,0,6.105,0.381,7.393,1.141s1.931,2.127,1.931,4.1v9.066
					c0,1.666-0.425,2.842-1.274,3.529s-2.355,1.104-4.516,1.248c2.307,0.109,3.908,0.508,4.807,1.195s1.348,1.883,1.348,3.582
					v10.941c0,1.973-0.644,3.338-1.93,4.098c-1.287,0.762-3.752,1.141-7.393,1.141h-7.43V70.434z M176.406,73.393v14.633h1.639
					c2.112,0,3.52-0.275,4.225-0.828c0.703-0.553,1.057-1.779,1.057-3.68v-5.564c0-1.918-0.354-3.158-1.057-3.719
					c-0.705-0.561-2.112-0.842-4.225-0.842H176.406z M176.406,91.012v16.504h1.711c2.234,0,3.709-0.275,4.426-0.828
					c0.715-0.551,1.074-1.768,1.074-3.65v-7.52c0-1.883-0.359-3.104-1.074-3.666c-0.717-0.561-2.191-0.84-4.426-0.84H176.406z"/>
				<path fill="#2B1C48" d="M195.853,82.568h4.479v21.391c0,1.648,0.236,2.783,0.711,3.408c0.473,0.623,1.279,0.936,2.422,0.936
					c1.115,0,1.904-0.32,2.366-0.963c0.461-0.643,0.692-1.77,0.692-3.381V82.568h4.552v27.906h-4.188l-0.363-1.709
					c-0.607,0.777-1.36,1.361-2.258,1.75c-0.898,0.389-1.955,0.584-3.168,0.584c-1.919,0-3.272-0.471-4.061-1.412
					c-0.79-0.941-1.184-2.588-1.184-4.939V82.568z"/>
				<path fill="#2B1C48" d="M232.998,89.844v8.279H222.4v5.891c0,1.666,0.219,2.797,0.656,3.395c0.438,0.596,1.214,0.895,2.33,0.895
					c1.068,0,1.821-0.307,2.258-0.922c0.438-0.615,0.656-1.738,0.656-3.367v-3.094h4.697v2.279c0,3.078-0.559,5.172-1.675,6.285
					s-3.095,1.67-5.937,1.67c-2.816,0-4.788-0.566-5.917-1.697c-1.13-1.131-1.694-3.234-1.694-6.312V89.844
					c0-3.096,0.553-5.193,1.658-6.299c1.104-1.104,3.089-1.656,5.953-1.656c2.816,0,4.789,0.566,5.918,1.697
					S232.998,86.803,232.998,89.844z M228.3,89.002c0-1.646-0.219-2.77-0.656-3.365c-0.437-0.598-1.189-0.896-2.258-0.896
					c-1.092,0-1.863,0.316-2.312,0.949c-0.449,0.635-0.674,1.738-0.674,3.312v6.299h5.9V89.002z"/>
				<path fill="#2B1C48" d="M254.921,88.297v22.178h-4.479V89.002c0-1.592-0.237-2.701-0.71-3.326
					c-0.474-0.623-1.281-0.936-2.422-0.936c-1.117,0-1.918,0.32-2.404,0.963c-0.485,0.643-0.729,1.742-0.729,3.299v21.473h-4.479
					V82.568h4.188l0.291,1.711c0.607-0.779,1.379-1.371,2.312-1.779c0.936-0.406,2.01-0.611,3.224-0.611
					c1.894,0,3.235,0.477,4.024,1.426C254.527,84.266,254.921,85.926,254.921,88.297z"/>
				<path fill="#2B1C48" d="M143.667,141.764v7.52h3.423v2.824h-3.423v20.74c0,0.777,0.2,1.316,0.601,1.615
					c0.4,0.299,1.123,0.447,2.167,0.447h0.656v2.904c-0.268,0.02-0.541,0.033-0.819,0.041c-0.28,0.01-0.674,0.014-1.184,0.014
					c-2.283,0-3.836-0.412-4.662-1.234c-0.826-0.824-1.238-2.656-1.238-5.498v-19.029h-2.44v-2.824h2.44v-6.162L143.667,141.764z"/>
				<path fill="#2B1C48" d="M162.093,148.66v3.393h-0.764c-1.918,0-3.278,0.357-4.079,1.072c-0.802,0.715-1.202,1.951-1.202,3.705
					v20.361h-4.479v-27.908h4.188l0.291,1.711c0.631-0.76,1.402-1.348,2.312-1.764s1.899-0.625,2.969-0.625
					c0.072,0,0.193,0.01,0.363,0.027S161.997,148.66,162.093,148.66z"/>
				<path fill="#2B1C48" d="M179.939,155.799v21.393h-4.188l-0.292-1.711c-0.606,0.779-1.377,1.371-2.312,1.777
					c-0.934,0.408-2.009,0.611-3.223,0.611c-1.894,0-3.234-0.475-4.023-1.424c-0.789-0.951-1.184-2.611-1.184-4.982v-5.564
					c0-2.189,0.795-3.746,2.385-4.67s4.376-1.439,8.357-1.547v-3.963c0-1.684-0.212-2.814-0.637-3.395
					c-0.425-0.578-1.184-0.869-2.275-0.869c-1.045,0-1.791,0.268-2.24,0.801c-0.449,0.535-0.674,1.453-0.674,2.756v1.547h-4.479
					v-0.76c0-2.787,0.546-4.682,1.64-5.688c1.092-1.004,3.034-1.506,5.826-1.506c2.719,0,4.619,0.506,5.699,1.52
					S179.939,153.031,179.939,155.799z M175.423,162.396c-2.332,0.072-3.916,0.379-4.753,0.922
					c-0.838,0.543-1.257,1.521-1.257,2.932v4.48c0,1.664,0.219,2.795,0.656,3.393c0.437,0.598,1.213,0.896,2.33,0.896
					c1.093,0,1.875-0.322,2.35-0.965c0.473-0.641,0.709-1.75,0.709-3.324L175.423,162.396z"/>
				<path fill="#2B1C48" d="M186.785,137.15h4.479v13.844c0.606-0.777,1.378-1.371,2.312-1.777c0.935-0.408,2.009-0.611,3.224-0.611
					c1.893,0,3.234,0.475,4.023,1.426c0.789,0.949,1.184,2.609,1.184,4.98v16.451c0,2.371-0.395,4.031-1.184,4.982
					c-0.789,0.949-2.131,1.424-4.023,1.424c-1.215,0-2.289-0.203-3.224-0.611c-0.935-0.406-1.706-0.998-2.312-1.777l-0.291,1.711
					h-4.188V137.15z M197.31,155.719c0-1.648-0.219-2.77-0.656-3.367c-0.437-0.598-1.214-0.896-2.33-0.896
					c-1.093,0-1.876,0.322-2.35,0.965c-0.473,0.643-0.71,1.742-0.71,3.299v15.012c0,1.592,0.23,2.705,0.692,3.338
					c0.461,0.635,1.25,0.951,2.367,0.951c1.116,0,1.894-0.299,2.33-0.896c0.438-0.598,0.656-1.729,0.656-3.393V155.719z"/>
				<path fill="#2B1C48" d="M223.348,155.799v21.393h-4.188l-0.291-1.711c-0.607,0.779-1.378,1.371-2.312,1.777
					c-0.935,0.408-2.01,0.611-3.223,0.611c-1.895,0-3.235-0.475-4.024-1.424c-0.789-0.951-1.184-2.611-1.184-4.982v-5.564
					c0-2.189,0.795-3.746,2.386-4.67c1.59-0.924,4.375-1.439,8.357-1.547v-3.963c0-1.684-0.213-2.814-0.637-3.395
					c-0.426-0.578-1.184-0.869-2.276-0.869c-1.044,0-1.791,0.268-2.239,0.801c-0.45,0.535-0.674,1.453-0.674,2.756v1.547h-4.48
					v-0.76c0-2.787,0.547-4.682,1.64-5.688c1.093-1.004,3.034-1.506,5.827-1.506c2.719,0,4.618,0.506,5.699,1.52
					C222.808,151.139,223.348,153.031,223.348,155.799z M218.833,162.396c-2.331,0.072-3.915,0.379-4.753,0.922
					s-1.256,1.521-1.256,2.932v4.48c0,1.664,0.219,2.795,0.655,3.393s1.214,0.896,2.331,0.896c1.092,0,1.875-0.322,2.349-0.965
					c0.474-0.641,0.71-1.75,0.71-3.324L218.833,162.396z"/>
				<path fill="#2B1C48" d="M230.195,149.283h4.479v32.143c0,2.824-0.418,4.66-1.256,5.512c-0.838,0.85-2.41,1.275-4.716,1.275
					c-0.51,0-0.905-0.01-1.184-0.027c-0.279-0.018-0.528-0.037-0.747-0.055v-2.877h0.656c1.043,0,1.766-0.154,2.166-0.461
					c0.401-0.309,0.602-0.861,0.602-1.656V149.283z M229.976,137.15h4.989v4.234h-4.989V137.15z"/>
				<path fill="#2B1C48" d="M256.669,156.559v13.357c0,3.076-0.559,5.172-1.675,6.283c-1.116,1.113-3.095,1.67-5.937,1.67
					c-2.816,0-4.788-0.564-5.917-1.695c-1.13-1.131-1.694-3.236-1.694-6.312v-13.303c0-3.094,0.553-5.193,1.658-6.297
					c1.104-1.104,3.089-1.656,5.953-1.656c2.816,0,4.789,0.566,5.918,1.697S256.669,153.52,256.669,156.559z M251.972,155.719
					c0-1.648-0.219-2.77-0.656-3.367c-0.437-0.598-1.189-0.896-2.258-0.896c-1.092,0-1.863,0.318-2.312,0.951
					s-0.674,1.736-0.674,3.312v15.012c0,1.664,0.219,2.795,0.656,3.393s1.214,0.896,2.33,0.896c1.068,0,1.821-0.309,2.258-0.924
					c0.438-0.615,0.656-1.736,0.656-3.365V155.719z"/>
				<path fill="#2B1C48" d="M264.864,137.15h5.317l-0.692,30.756h-3.933L264.864,137.15z M264.937,172.793h5.171v4.398h-5.171
					V172.793z"/>
			</g>
		</g>
	</g>
	<polygon fill="#6EA63B" points="143.041,201.022 151.419,229.997 260.96,224.054 267.675,201.022 	"/>
	<g>
		<g>
			<path fill="#2B1C48" d="M173.469,206.441h5.495v1.107h-1.93v12.846h-1.637v-12.846h-1.929V206.441z"/>
			<path fill="#2B1C48" d="M180.652,206.441h4.466v1.107h-2.854v5.023h2.728v1.096h-2.728v5.619h2.931v1.107h-4.542V206.441z"/>
			<path fill="#2B1C48" d="M187.517,206.441h2.461c1.27,0,2.127,0.133,2.576,0.398c0.448,0.264,0.672,0.74,0.672,1.428v3.16
				c0,0.58-0.147,0.988-0.443,1.229c-0.297,0.24-0.82,0.385-1.574,0.436c0.805,0.037,1.362,0.176,1.676,0.416
				c0.312,0.24,0.469,0.656,0.469,1.248v5.639h-1.713v-5.213c0-0.656-0.125-1.08-0.374-1.277c-0.249-0.195-0.764-0.293-1.542-0.293
				h-0.596v6.783h-1.611V206.441z M189.128,207.473v5.1h0.57c0.736,0,1.227-0.098,1.473-0.289c0.244-0.193,0.367-0.619,0.367-1.281
				v-1.939c0-0.668-0.123-1.102-0.367-1.297c-0.246-0.195-0.736-0.293-1.473-0.293H189.128z"/>
			<path fill="#2B1C48" d="M196.17,206.441h2.804l1.814,12.846h0.127l1.777-12.846h2.729v13.953h-1.409v-12.902h-0.254
				l-1.827,12.902h-2.259l-1.891-12.902h-0.216v12.902h-1.396V206.441z"/>
			<path fill="#2B1C48" d="M208.328,206.441h1.713v13.953h-1.713V206.441z"/>
			<path fill="#2B1C48" d="M212.895,206.441h2.208l2.678,13.121h0.025l-0.242-13.121h1.46v13.953h-2.233l-2.652-12.941h-0.051
				l0.229,12.941h-1.421V206.441z"/>
			<path fill="#2B1C48" d="M223.503,206.441h2.36l2.702,13.953h-1.738l-0.646-3.879h-3.071l-0.698,3.879h-1.699L223.503,206.441z
				 M224.621,207.473l-1.358,8.021h2.703l-1.269-8.021H224.621z"/>
			<path fill="#2B1C48" d="M230.28,206.441h2.462c1.269,0,2.127,0.133,2.576,0.398c0.447,0.264,0.672,0.74,0.672,1.428v3.16
				c0,0.58-0.148,0.988-0.443,1.229c-0.297,0.24-0.821,0.385-1.574,0.436c0.804,0.037,1.361,0.176,1.675,0.416
				s0.47,0.656,0.47,1.248v5.639h-1.713v-5.213c0-0.656-0.125-1.08-0.375-1.277c-0.249-0.195-0.764-0.293-1.541-0.293h-0.597v6.783
				h-1.611V206.441z M231.891,207.473v5.1h0.571c0.736,0,1.227-0.098,1.472-0.289c0.245-0.193,0.368-0.619,0.368-1.281v-1.939
				c0-0.668-0.123-1.102-0.368-1.297s-0.735-0.293-1.472-0.293H231.891z"/>
		</g>
	</g>
</g>
</svg>
