<?xml version="1.0" encoding="utf-8"?>
<!-- Generator: Adobe Illustrator 16.0.0, SVG Export Plug-In . SVG Version: 6.00 Build 0)  -->
<!DOCTYPE svg PUBLIC "-//W3C//DTD SVG 1.1//EN" "http://www.w3.org/Graphics/SVG/1.1/DTD/svg11.dtd">
<svg version="1.1" id="Capa_1" xmlns="http://www.w3.org/2000/svg" xmlns:xlink="http://www.w3.org/1999/xlink" x="0px" y="0px"
	 width="48.68px" height="206.119px" viewBox="0 0 48.68 206.119" enable-background="new 0 0 48.68 206.119" xml:space="preserve">
<g>
	<polygon fill="#F2961C" points="48.68,0 48.68,140.779 3.891,167.199 0,13.85 4.77,12.488 	"/>
	<polygon fill="#2C5A67" points="48.68,140.779 48.68,197.559 4.77,206.119 3.891,167.199 	"/>
	<g>
		<g>
			<path fill="#FFFFFF" d="M14.653,137.435v-2.575h20.974v2.575H14.653z"/>
			<path fill="#FFFFFF" d="M24.01,122.994h11.617v2.347H24.379c-0.834,0-1.414,0.124-1.741,0.371
				c-0.327,0.248-0.491,0.671-0.491,1.269c0,0.586,0.169,1.005,0.505,1.26c0.337,0.254,0.913,0.381,1.728,0.381h11.248v2.347H21.01
				v-2.193l0.896-0.153c-0.407-0.317-0.718-0.722-0.932-1.211c-0.213-0.489-0.319-1.052-0.319-1.688
				c0-0.992,0.248-1.694,0.746-2.107S22.768,122.994,24.01,122.994z"/>
			<path fill="#FFFFFF" d="M24.379,112.77h0.825v2.347h-0.825c-0.9,0-1.497,0.086-1.791,0.258c-0.294,0.171-0.441,0.486-0.441,0.943
				c0,0.407,0.136,0.696,0.405,0.868c0.271,0.172,0.728,0.258,1.372,0.258h0.583c0.313,0,0.621-0.079,0.925-0.238
				s0.626-0.417,0.967-0.772l2.815-2.843c0.322-0.317,0.654-0.562,0.995-0.734c0.342-0.172,0.664-0.258,0.967-0.258h1.394
				c1.262,0,2.146,0.277,2.652,0.83c0.507,0.554,0.761,1.491,0.761,2.813c0,1.374-0.266,2.327-0.796,2.861
				c-0.531,0.534-1.513,0.802-2.943,0.802h-1.252v-2.327h1.252c0.929,0,1.535-0.093,1.819-0.277
				c0.285-0.184,0.427-0.512,0.427-0.982c0-0.482-0.142-0.826-0.427-1.029c-0.284-0.203-0.782-0.306-1.493-0.306h-0.554
				c-0.797,0-1.564,0.389-2.304,1.164c-0.028,0.025-0.048,0.044-0.058,0.057l-2.786,2.767c-0.294,0.292-0.586,0.502-0.875,0.629
				c-0.289,0.128-0.609,0.191-0.96,0.191h-1.052c-1.204,0-2.06-0.271-2.566-0.812c-0.508-0.54-0.761-1.439-0.761-2.699
				c0-1.31,0.265-2.222,0.796-2.737C21.981,113.027,22.957,112.77,24.379,112.77z"/>
			<path fill="#FFFFFF" d="M17.07,107.104h3.939v-1.793h1.479v1.793h10.863c0.408,0,0.689-0.104,0.847-0.314
				c0.156-0.21,0.234-0.588,0.234-1.135v-0.344h1.521c0.009,0.14,0.017,0.283,0.021,0.429c0.005,0.146,0.007,0.354,0.007,0.62
				c0,1.195-0.216,2.01-0.646,2.442c-0.432,0.432-1.392,0.648-2.88,0.648h-9.968v1.277H21.01v-1.277h-3.229L17.07,107.104z"/>
			<path fill="#FFFFFF" d="M20.683,97.452h1.777v0.4c0,1.005,0.188,1.717,0.562,2.137c0.374,0.419,1.021,0.629,1.94,0.629h10.665
				v2.347H21.01v-2.193l0.896-0.153c-0.398-0.33-0.706-0.734-0.925-1.211c-0.218-0.477-0.326-0.995-0.326-1.555
				c0-0.038,0.005-0.102,0.014-0.19C20.678,97.573,20.683,97.503,20.683,97.452z"/>
			<path fill="#FFFFFF" d="M21.01,95.773v-2.347h11.204c0.863,0,1.458-0.124,1.785-0.372s0.49-0.67,0.49-1.269
				c0-0.584-0.168-0.998-0.505-1.239c-0.336-0.241-0.926-0.362-1.771-0.362H21.01V87.8h14.617v2.193l-0.896,0.191
				c0.407,0.317,0.713,0.712,0.917,1.183c0.203,0.471,0.306,1.023,0.306,1.659c0,1.005-0.247,1.714-0.739,2.127
				c-0.493,0.413-1.355,0.62-2.588,0.62H21.01z"/>
			<path fill="#FFFFFF" d="M24.82,76.984h0.938v2.461h-1.38c-0.957,0-1.568,0.085-1.834,0.257s-0.398,0.486-0.398,0.944
				s0.149,0.776,0.448,0.954s0.894,0.267,1.784,0.267h7.864c0.909,0,1.512-0.092,1.806-0.276s0.44-0.512,0.44-0.982
				c0-0.445-0.135-0.75-0.405-0.916c-0.27-0.165-0.884-0.247-1.841-0.247h-1.564v-2.461h1.138c1.611,0,2.709,0.271,3.292,0.811
				c0.583,0.541,0.874,1.491,0.874,2.852c0,1.349-0.299,2.293-0.896,2.833c-0.598,0.54-1.697,0.811-3.299,0.811H24.82
				c-1.621,0-2.721-0.267-3.299-0.801s-0.867-1.481-0.867-2.843c0-1.348,0.296-2.295,0.889-2.842
				C22.135,77.258,23.228,76.984,24.82,76.984z"/>
			<path fill="#FFFFFF" d="M24.82,66.665h0.938v2.461h-1.38c-0.957,0-1.568,0.085-1.834,0.257s-0.398,0.486-0.398,0.944
				s0.149,0.776,0.448,0.954s0.894,0.267,1.784,0.267h7.864c0.909,0,1.512-0.092,1.806-0.276s0.44-0.512,0.44-0.982
				c0-0.445-0.135-0.75-0.405-0.916c-0.27-0.165-0.884-0.247-1.841-0.247h-1.564v-2.461h1.138c1.611,0,2.709,0.271,3.292,0.811
				c0.583,0.541,0.874,1.491,0.874,2.852c0,1.349-0.299,2.293-0.896,2.833c-0.598,0.54-1.697,0.811-3.299,0.811H24.82
				c-1.621,0-2.721-0.267-3.299-0.801s-0.867-1.481-0.867-2.843c0-1.348,0.296-2.295,0.889-2.842
				C22.135,66.938,23.228,66.665,24.82,66.665z"/>
			<path fill="#FFFFFF" d="M14.653,63.688v-2.613h2.218v2.613H14.653z M21.01,63.574v-2.347h14.617v2.347H21.01z"/>
			<path fill="#FFFFFF" d="M24.82,49.706h6.996c1.611,0,2.709,0.293,3.292,0.878s0.874,1.621,0.874,3.109
				c0,1.475-0.296,2.508-0.889,3.1c-0.593,0.591-1.694,0.887-3.306,0.887H24.82c-1.621,0-2.721-0.289-3.299-0.868
				c-0.578-0.578-0.867-1.618-0.867-3.118c0-1.476,0.296-2.509,0.889-3.101C22.135,50.002,23.228,49.706,24.82,49.706z
				 M24.379,52.167c-0.862,0-1.45,0.114-1.763,0.343c-0.312,0.229-0.47,0.624-0.47,1.184c0,0.572,0.166,0.976,0.498,1.211
				s0.91,0.353,1.734,0.353h7.864c0.872,0,1.464-0.114,1.777-0.343c0.312-0.229,0.469-0.636,0.469-1.221
				c0-0.56-0.161-0.954-0.483-1.184c-0.322-0.229-0.91-0.343-1.763-0.343H24.379z"/>
			<path fill="#FFFFFF" d="M24.01,38.223h11.617v2.347H24.379c-0.834,0-1.414,0.124-1.741,0.371
				c-0.327,0.248-0.491,0.671-0.491,1.269c0,0.586,0.169,1.005,0.505,1.26c0.337,0.254,0.913,0.381,1.728,0.381h11.248v2.347H21.01
				v-2.193l0.896-0.153c-0.407-0.317-0.718-0.722-0.932-1.211c-0.213-0.489-0.319-1.052-0.319-1.688
				c0-0.992,0.248-1.694,0.746-2.107S22.768,38.223,24.01,38.223z"/>
			<path fill="#FFFFFF" d="M24.82,26.739h4.337v5.551h3.086c0.872,0,1.464-0.114,1.777-0.343c0.312-0.229,0.469-0.636,0.469-1.221
				c0-0.56-0.161-0.954-0.483-1.184c-0.322-0.229-0.91-0.343-1.763-0.343h-1.621v-2.461h1.194c1.611,0,2.709,0.293,3.292,0.878
				s0.874,1.621,0.874,3.109c0,1.475-0.296,2.508-0.889,3.1c-0.593,0.591-1.694,0.887-3.306,0.887H24.82
				c-1.621,0-2.721-0.289-3.299-0.868c-0.578-0.578-0.867-1.618-0.867-3.118c0-1.476,0.296-2.509,0.889-3.101
				C22.135,27.035,23.228,26.739,24.82,26.739z M24.379,29.2c-0.862,0-1.45,0.114-1.763,0.343c-0.312,0.229-0.47,0.624-0.47,1.184
				c0,0.572,0.166,0.976,0.498,1.211s0.91,0.353,1.734,0.353h3.3V29.2H24.379z"/>
			<path fill="#FFFFFF" d="M24.379,16.591h0.825v2.347h-0.825c-0.9,0-1.497,0.086-1.791,0.258c-0.294,0.171-0.441,0.486-0.441,0.943
				c0,0.407,0.136,0.696,0.405,0.868c0.271,0.172,0.728,0.258,1.372,0.258h0.583c0.313,0,0.621-0.079,0.925-0.238
				s0.626-0.417,0.967-0.772l2.815-2.843c0.322-0.317,0.654-0.562,0.995-0.734c0.342-0.172,0.664-0.258,0.967-0.258h1.394
				c1.262,0,2.146,0.277,2.652,0.83c0.507,0.554,0.761,1.491,0.761,2.813c0,1.374-0.266,2.327-0.796,2.861
				c-0.531,0.534-1.513,0.802-2.943,0.802h-1.252v-2.327h1.252c0.929,0,1.535-0.093,1.819-0.277
				c0.285-0.184,0.427-0.512,0.427-0.982c0-0.482-0.142-0.826-0.427-1.029c-0.284-0.203-0.782-0.306-1.493-0.306h-0.554
				c-0.797,0-1.564,0.389-2.304,1.164c-0.028,0.025-0.048,0.044-0.058,0.057l-2.786,2.767c-0.294,0.292-0.586,0.502-0.875,0.629
				c-0.289,0.128-0.609,0.191-0.96,0.191h-1.052c-1.204,0-2.06-0.271-2.566-0.812c-0.508-0.54-0.761-1.439-0.761-2.699
				c0-1.31,0.265-2.222,0.796-2.737C21.981,16.849,22.957,16.591,24.379,16.591z"/>
		</g>
	</g>
	<g>
		<path fill-rule="evenodd" clip-rule="evenodd" fill="#FFFFFF" d="M11.749,188.374c0.051-0.221,0.084-0.448,0.156-0.662
			c0.392-1.175,1.264-1.833,2.402-2.194c0.093-0.029,0.189-0.051,0.304-0.081c0-1.046,0-2.088,0-3.13
			c0-0.209-0.006-0.418,0.002-0.626c0.017-0.528,0.424-0.968,0.953-1.001c0.364-0.021,0.73-0.004,1.089-0.004
			c0.113-0.682,0.277-0.885,0.704-0.897c0.46-0.016,0.641,0.183,0.783,0.87c0.318,0,0.64,0,0.979,0
			c-0.112-0.513-0.068-0.991,0.356-1.312c0.224-0.168,0.534-0.308,0.806-0.31c4.948-0.018,9.895-0.016,14.842-0.012
			c0.77,0.001,1.333,0.685,1.2,1.438c-0.01,0.058-0.009,0.115-0.016,0.212c0.121,0,0.228,0,0.335,0c0.982,0,1.965-0.003,2.949,0
			c0.798,0.002,1.217,0.408,1.22,1.209c0.008,1.897,0.007,3.795,0,5.691c-0.003,0.807-0.416,1.21-1.218,1.212
			c-7.929,0-15.856,0-23.784-0.002c-0.802,0-1.199-0.408-1.201-1.216c0-0.179,0-0.357,0-0.537c-0.613,0.067-1.217,0.767-1.255,1.44
			c-0.052,0.921,0.522,1.666,1.517,1.937c0.76,0.206,1.534,0.284,2.325,0.27c1.052-0.016,2.112-0.073,3.152,0.048
			c2.155,0.249,3.905,1.307,5.284,2.972c0.375,0.45,0.241,0.894-0.353,1.303c-0.119,0-0.238,0-0.358,0
			c-0.139-0.124-0.277-0.248-0.418-0.371c-0.526-0.465-1.012-0.989-1.588-1.38c-1.363-0.926-2.918-1.146-4.537-1.129
			c-1.077,0.011-2.165,0.007-3.23-0.123c-1.299-0.157-2.328-0.847-2.961-2.009c-0.232-0.429-0.299-0.948-0.44-1.428
			C11.749,188.492,11.749,188.434,11.749,188.374z"/>
		<path fill-rule="evenodd" clip-rule="evenodd" fill="#FFFFFF" d="M25.819,161.129c0.286,0.067,0.584,0.107,0.859,0.207
			c1.652,0.605,2.705,1.758,2.993,3.503c0.291,1.761-0.34,3.196-1.753,4.277c-0.167,0.128-0.221,0.24-0.179,0.443
			c0.419,1.976,0.829,3.952,1.243,5.929c0.016,0.078,0.041,0.151,0.072,0.261c0.103,0,0.21,0,0.316,0
			c0.785,0,1.569-0.008,2.355,0.003c0.626,0.009,1.016,0.521,0.817,1.05c-0.057,0.152-0.14,0.235-0.326,0.235
			c-3-0.006-6.001-0.008-9,0c-0.272,0.001-0.344-0.154-0.376-0.36c-0.085-0.531,0.271-0.918,0.861-0.925
			c0.655-0.01,1.31-0.003,1.966-0.003c0.107,0,0.217,0,0.371,0c-0.118-0.566-0.227-1.104-0.338-1.644
			c-0.271-1.297-0.552-2.594-0.811-3.896c-0.04-0.205-0.123-0.269-0.314-0.299c-1.823-0.306-3.215-1.658-3.596-3.477
			c-0.521-2.485,1.172-4.892,3.688-5.251c0.046-0.006,0.089-0.035,0.135-0.055C25.143,161.129,25.48,161.129,25.819,161.129z
			 M28.075,165.365c-0.046-1.048-0.399-1.788-1.201-2.27c-0.393-0.234-0.742-0.154-0.951,0.191c-0.202,0.333-0.111,0.577,0.31,0.841
			c0.521,0.324,0.744,0.896,0.586,1.49c-0.026,0.096-0.061,0.19-0.071,0.288c-0.033,0.299,0.203,0.63,0.485,0.701
			c0.278,0.069,0.551-0.087,0.652-0.42C27.98,165.879,28.032,165.555,28.075,165.365z"/>
		<path fill-rule="evenodd" clip-rule="evenodd" fill="#FFFFFF" d="M27.703,178.651c-2.246,0-4.49,0-6.735,0
			c-0.301,0-0.356-0.063-0.328-0.367c0.045-0.479,0.41-0.844,0.891-0.887c0.099-0.01,0.197-0.012,0.296-0.012
			c3.926,0,7.849,0.002,11.771-0.003c0.408,0,0.773,0.066,1.009,0.438c0.063,0.1,0.117,0.211,0.144,0.324
			c0.095,0.421,0.021,0.506-0.402,0.506C32.133,178.651,29.918,178.651,27.703,178.651z"/>
	</g>
</g>
</svg>
