<?xml version="1.0" encoding="utf-8"?>
<!-- Generator: Adobe Illustrator 16.0.0, SVG Export Plug-In . SVG Version: 6.00 Build 0)  -->
<!DOCTYPE svg PUBLIC "-//W3C//DTD SVG 1.1//EN" "http://www.w3.org/Graphics/SVG/1.1/DTD/svg11.dtd">
<svg version="1.1" id="Capa_1" xmlns="http://www.w3.org/2000/svg" xmlns:xlink="http://www.w3.org/1999/xlink" x="0px" y="0px"
	 width="93.333px" height="72.354px" viewBox="0 0 93.333 72.354" enable-background="new 0 0 93.333 72.354" xml:space="preserve">
<g>
	<g opacity="0.5">
		<polygon fill="#FFFFFF" points="91.333,70.354 2,70.354 2,17.02 91.333,2.354 		"/>
		<g>
			<polyline fill="none" stroke="#DFA130" stroke-width="4" stroke-miterlimit="10" points="91.333,68.369 91.333,70.354 
				89.349,70.354 			"/>
			
				<line fill="none" stroke="#DFA130" stroke-width="4" stroke-miterlimit="10" stroke-dasharray="4.0652,4.0648" x1="85.284" y1="70.354" x2="6.017" y2="70.354"/>
			<polyline fill="none" stroke="#DFA130" stroke-width="4" stroke-miterlimit="10" points="3.984,70.354 2,70.354 2,68.369 			"/>
			
				<line fill="none" stroke="#DFA130" stroke-width="4" stroke-miterlimit="10" stroke-dasharray="3.7975,3.7971" x1="2" y1="64.572" x2="2" y2="20.902"/>
			<polyline fill="none" stroke="#DFA130" stroke-width="4" stroke-miterlimit="10" points="2,19.004 2,17.02 3.958,16.699 			"/>
			
				<line fill="none" stroke="#DFA130" stroke-width="4" stroke-miterlimit="10" stroke-dasharray="4.1222,4.1217" x1="8.025" y1="16.031" x2="87.342" y2="3.008"/>
			<polyline fill="none" stroke="#DFA130" stroke-width="4" stroke-miterlimit="10" points="89.375,2.674 91.333,2.354 
				91.333,4.338 			"/>
			
				<line fill="none" stroke="#DFA130" stroke-width="4" stroke-miterlimit="10" stroke-dasharray="3.7668,3.7664" x1="91.333" y1="8.104" x2="91.333" y2="66.486"/>
		</g>
	</g>
	<g>
		<path d="M32.389,26.346l-2.431-7.415h1.045l1.155,3.652c0.308,1.001,0.583,1.903,0.792,2.772h0.022
			c0.209-0.858,0.506-1.793,0.847-2.762l1.254-3.663h1.023l-2.651,7.415H32.389z"/>
		<path d="M37.042,23.859c0.022,1.31,0.847,1.849,1.826,1.849c0.693,0,1.122-0.121,1.474-0.275l0.176,0.693
			c-0.341,0.153-0.935,0.341-1.782,0.341c-1.64,0-2.619-1.089-2.619-2.695s0.946-2.86,2.498-2.86c1.749,0,2.2,1.518,2.2,2.497
			c0,0.198-0.011,0.341-0.033,0.451H37.042z M39.88,23.166c0.011-0.604-0.253-1.562-1.342-1.562c-0.99,0-1.408,0.891-1.485,1.562
			H39.88z"/>
		<path d="M42.014,22.683c0-0.628-0.011-1.167-0.044-1.662h0.847l0.044,1.057h0.033c0.242-0.715,0.836-1.166,1.485-1.166
			c0.099,0,0.176,0.011,0.264,0.021v0.913c-0.099-0.021-0.198-0.021-0.33-0.021c-0.682,0-1.167,0.506-1.298,1.232
			c-0.022,0.132-0.033,0.297-0.033,0.45v2.839h-0.968V22.683z"/>
		<path d="M46.733,19.524c0,0.33-0.231,0.595-0.616,0.595c-0.352,0-0.583-0.265-0.583-0.595s0.242-0.604,0.605-0.604
			C46.491,18.92,46.733,19.184,46.733,19.524z M45.655,26.346v-5.325h0.968v5.325H45.655z"/>
		<path d="M48.328,26.346v-4.588h-0.737v-0.737h0.737v-0.297c0-1.396,0.825-2.311,2.321-2.311c0.495,0,1.078,0.154,1.353,0.353
			l-0.275,0.737c-0.242-0.165-0.649-0.309-1.122-0.309c-1.023,0-1.32,0.716-1.32,1.562v0.264h3.091v5.325h-0.968v-4.588h-2.123
			v4.588H48.328z"/>
		<path d="M57.777,26.158c-0.253,0.121-0.814,0.309-1.529,0.309c-1.606,0-2.651-1.089-2.651-2.718c0-1.639,1.122-2.838,2.86-2.838
			c0.572,0,1.078,0.143,1.342,0.286l-0.22,0.736c-0.231-0.12-0.594-0.253-1.123-0.253c-1.221,0-1.881,0.913-1.881,2.014
			c0,1.232,0.792,1.991,1.849,1.991c0.55,0,0.913-0.132,1.188-0.253L57.777,26.158z"/>
		<path d="M62.65,25.069c0,0.462,0.022,0.913,0.077,1.276h-0.869l-0.077-0.671h-0.033c-0.297,0.418-0.869,0.792-1.628,0.792
			c-1.078,0-1.628-0.759-1.628-1.529c0-1.287,1.144-1.991,3.201-1.98v-0.109c0-0.43-0.121-1.232-1.21-1.222
			c-0.506,0-1.023,0.143-1.397,0.396l-0.22-0.649c0.44-0.275,1.089-0.462,1.76-0.462c1.628,0,2.024,1.111,2.024,2.167V25.069z
			 M61.715,23.628c-1.056-0.021-2.255,0.165-2.255,1.199c0,0.639,0.418,0.925,0.902,0.925c0.704,0,1.155-0.44,1.309-0.892
			c0.033-0.11,0.044-0.22,0.044-0.308V23.628z"/>
		<path d="M18.728,38.158c-0.253,0.121-0.814,0.309-1.529,0.309c-1.606,0-2.651-1.089-2.651-2.718c0-1.639,1.122-2.838,2.86-2.838
			c0.572,0,1.078,0.143,1.342,0.286l-0.22,0.736c-0.231-0.12-0.594-0.253-1.123-0.253c-1.221,0-1.881,0.913-1.881,2.014
			c0,1.232,0.792,1.991,1.849,1.991c0.55,0,0.913-0.132,1.188-0.253L18.728,38.158z"/>
		<path d="M23.601,37.069c0,0.462,0.022,0.913,0.077,1.276h-0.869l-0.077-0.671h-0.033c-0.297,0.418-0.869,0.792-1.628,0.792
			c-1.078,0-1.628-0.759-1.628-1.529c0-1.287,1.144-1.991,3.201-1.98v-0.109c0-0.43-0.121-1.232-1.21-1.222
			c-0.506,0-1.023,0.143-1.397,0.396l-0.22-0.649c0.44-0.275,1.089-0.462,1.76-0.462c1.628,0,2.024,1.111,2.024,2.167V37.069z
			 M22.666,35.628c-1.056-0.021-2.255,0.165-2.255,1.199c0,0.639,0.418,0.925,0.902,0.925c0.704,0,1.155-0.44,1.309-0.892
			c0.033-0.11,0.044-0.22,0.044-0.308V35.628z"/>
		<path d="M25.162,30.534h0.968v7.812h-0.968V30.534z"/>
		<path d="M28.836,31.524c0,0.33-0.231,0.595-0.616,0.595c-0.352,0-0.583-0.265-0.583-0.595s0.242-0.604,0.605-0.604
			C28.594,30.92,28.836,31.184,28.836,31.524z M27.758,38.346v-5.325h0.968v5.325H27.758z"/>
		<path d="M30.431,38.346v-4.588h-0.737v-0.737h0.737v-0.297c0-1.396,0.825-2.311,2.321-2.311c0.495,0,1.078,0.154,1.353,0.353
			l-0.275,0.737c-0.242-0.165-0.649-0.309-1.122-0.309c-1.023,0-1.32,0.716-1.32,1.562v0.264h3.091v5.325h-0.968v-4.588h-2.123
			v4.588H30.431z"/>
		<path d="M39.88,38.158c-0.253,0.121-0.814,0.309-1.529,0.309c-1.606,0-2.651-1.089-2.651-2.718c0-1.639,1.122-2.838,2.86-2.838
			c0.572,0,1.078,0.143,1.342,0.286l-0.22,0.736c-0.231-0.12-0.594-0.253-1.122-0.253c-1.221,0-1.881,0.913-1.881,2.014
			c0,1.232,0.792,1.991,1.849,1.991c0.55,0,0.913-0.132,1.188-0.253L39.88,38.158z"/>
		<path d="M44.753,37.069c0,0.462,0.022,0.913,0.077,1.276h-0.869l-0.077-0.671h-0.033c-0.297,0.418-0.869,0.792-1.628,0.792
			c-1.078,0-1.628-0.759-1.628-1.529c0-1.287,1.144-1.991,3.201-1.98v-0.109c0-0.43-0.121-1.232-1.21-1.222
			c-0.506,0-1.023,0.143-1.397,0.396l-0.22-0.649c0.44-0.275,1.089-0.462,1.76-0.462c1.628,0,2.024,1.111,2.024,2.167V37.069z
			 M43.818,35.628c-1.056-0.021-2.255,0.165-2.255,1.199c0,0.639,0.418,0.925,0.902,0.925c0.704,0,1.155-0.44,1.309-0.892
			c0.033-0.11,0.044-0.22,0.044-0.308V35.628z"/>
		<path d="M50.11,38.158c-0.253,0.121-0.814,0.309-1.529,0.309c-1.606,0-2.651-1.089-2.651-2.718c0-1.639,1.122-2.838,2.86-2.838
			c0.572,0,1.078,0.143,1.342,0.286l-0.22,0.736c-0.231-0.12-0.594-0.253-1.123-0.253c-1.221,0-1.881,0.913-1.881,2.014
			c0,1.232,0.792,1.991,1.849,1.991c0.55,0,0.913-0.132,1.188-0.253L50.11,38.158z"/>
		<path d="M52.321,31.524c0,0.33-0.231,0.595-0.616,0.595c-0.352,0-0.583-0.265-0.583-0.595s0.242-0.604,0.605-0.604
			C52.079,30.92,52.321,31.184,52.321,31.524z M51.243,38.346v-5.325h0.968v5.325H51.243z"/>
		<path d="M58.635,35.64c0,1.969-1.375,2.827-2.651,2.827c-1.43,0-2.552-1.057-2.552-2.739c0-1.771,1.177-2.816,2.641-2.816
			C57.602,32.911,58.635,34.022,58.635,35.64z M54.422,35.694c0,1.166,0.66,2.046,1.606,2.046c0.924,0,1.617-0.869,1.617-2.068
			c0-0.901-0.451-2.035-1.595-2.035C54.917,33.637,54.422,34.693,54.422,35.694z M57.48,30.722l-1.342,1.573h-0.682l0.957-1.573
			H57.48z"/>
		<path d="M59.855,34.462c0-0.561-0.011-1.001-0.044-1.441h0.858l0.055,0.881h0.022c0.264-0.495,0.88-0.99,1.76-0.99
			c0.737,0,1.881,0.439,1.881,2.266v3.169H63.42v-3.069c0-0.858-0.319-1.573-1.232-1.573c-0.627,0-1.122,0.451-1.298,0.99
			c-0.044,0.121-0.066,0.286-0.066,0.451v3.201h-0.968V34.462z"/>
		<path d="M72.88,30.534v6.437c0,0.473,0.022,1.012,0.044,1.375h-0.858l-0.044-0.924h-0.033c-0.286,0.594-0.924,1.045-1.793,1.045
			c-1.287,0-2.289-1.089-2.289-2.706c-0.011-1.771,1.1-2.85,2.387-2.85c0.825,0,1.364,0.385,1.606,0.803h0.022v-3.18H72.88z
			 M71.923,35.188c0-0.121-0.011-0.286-0.044-0.407c-0.143-0.605-0.671-1.111-1.397-1.111c-1.001,0-1.596,0.88-1.596,2.047
			c0,1.078,0.539,1.969,1.573,1.969c0.649,0,1.243-0.44,1.419-1.155c0.033-0.132,0.044-0.264,0.044-0.418V35.188z"/>
		<path d="M75.036,35.859c0.022,1.31,0.847,1.849,1.826,1.849c0.693,0,1.122-0.121,1.474-0.275l0.176,0.693
			c-0.341,0.153-0.935,0.341-1.782,0.341c-1.64,0-2.619-1.089-2.619-2.695s0.946-2.86,2.498-2.86c1.749,0,2.2,1.518,2.2,2.497
			c0,0.198-0.011,0.341-0.033,0.451H75.036z M77.874,35.166c0.011-0.604-0.253-1.562-1.342-1.562c-0.99,0-1.408,0.891-1.485,1.562
			H77.874z"/>
		<path d="M28.297,46.462c0-0.561-0.011-1.001-0.044-1.441h0.858l0.055,0.881h0.022c0.264-0.495,0.88-0.99,1.76-0.99
			c0.737,0,1.881,0.439,1.881,2.266v3.169h-0.968v-3.069c0-0.858-0.319-1.573-1.232-1.573c-0.627,0-1.122,0.451-1.298,0.99
			c-0.044,0.121-0.066,0.286-0.066,0.451v3.201h-0.968V46.462z"/>
		<path d="M35.48,43.524c0,0.33-0.231,0.595-0.616,0.595c-0.352,0-0.583-0.265-0.583-0.595s0.242-0.604,0.605-0.604
			C35.238,42.92,35.48,43.184,35.48,43.524z M34.402,50.346v-5.325h0.968v5.325H34.402z"/>
		<path d="M37.35,45.021l1.045,2.981c0.176,0.495,0.319,0.936,0.429,1.376h0.033c0.121-0.44,0.275-0.881,0.451-1.376l1.034-2.981
			h1.012l-2.09,5.325H38.34l-2.024-5.325H37.35z"/>
		<path d="M42.696,47.859c0.022,1.31,0.847,1.849,1.826,1.849c0.693,0,1.122-0.121,1.474-0.275l0.176,0.693
			c-0.341,0.153-0.935,0.341-1.782,0.341c-1.64,0-2.619-1.089-2.619-2.695s0.946-2.86,2.498-2.86c1.749,0,2.2,1.518,2.2,2.497
			c0,0.198-0.011,0.341-0.033,0.451H42.696z M45.534,47.166c0.011-0.604-0.253-1.562-1.342-1.562c-0.99,0-1.408,0.891-1.485,1.562
			H45.534z"/>
		<path d="M47.667,42.534h0.968v7.812h-0.968V42.534z"/>
		<path d="M57.183,42.534v6.437c0,0.473,0.022,1.012,0.044,1.375h-0.858l-0.044-0.924h-0.033c-0.286,0.594-0.924,1.045-1.793,1.045
			c-1.287,0-2.289-1.089-2.289-2.706c-0.011-1.771,1.1-2.85,2.387-2.85c0.825,0,1.364,0.385,1.606,0.803h0.022v-3.18H57.183z
			 M56.226,47.188c0-0.121-0.011-0.286-0.044-0.407c-0.143-0.605-0.671-1.111-1.397-1.111c-1.001,0-1.596,0.88-1.596,2.047
			c0,1.078,0.539,1.969,1.573,1.969c0.649,0,1.243-0.44,1.419-1.155c0.033-0.132,0.044-0.264,0.044-0.418V47.188z"/>
		<path d="M59.338,47.859c0.022,1.31,0.847,1.849,1.826,1.849c0.693,0,1.122-0.121,1.474-0.275l0.176,0.693
			c-0.341,0.153-0.935,0.341-1.782,0.341c-1.64,0-2.619-1.089-2.619-2.695s0.946-2.86,2.498-2.86c1.749,0,2.2,1.518,2.2,2.497
			c0,0.198-0.011,0.341-0.033,0.451H59.338z M62.177,47.166c0.011-0.604-0.253-1.562-1.342-1.562c-0.99,0-1.408,0.891-1.485,1.562
			H62.177z"/>
		<path d="M30.426,54.534v6.437c0,0.473,0.022,1.012,0.044,1.375h-0.858l-0.044-0.924h-0.033c-0.286,0.594-0.924,1.045-1.793,1.045
			c-1.287,0-2.289-1.089-2.289-2.706c-0.011-1.771,1.1-2.85,2.387-2.85c0.825,0,1.364,0.385,1.606,0.803h0.022v-3.18H30.426z
			 M29.469,59.188c0-0.121-0.011-0.286-0.044-0.407c-0.143-0.605-0.671-1.111-1.397-1.111c-1.001,0-1.596,0.88-1.596,2.047
			c0,1.078,0.539,1.969,1.573,1.969c0.649,0,1.243-0.44,1.419-1.155c0.033-0.132,0.044-0.264,0.044-0.418V59.188z"/>
		<path d="M33.121,55.524c0,0.33-0.231,0.595-0.616,0.595c-0.352,0-0.583-0.265-0.583-0.595s0.242-0.604,0.605-0.604
			C32.878,54.92,33.121,55.184,33.121,55.524z M32.042,62.346v-5.325h0.968v5.325H32.042z"/>
		<path d="M34.715,62.346v-4.588h-0.737v-0.737h0.737v-0.297c0-1.396,0.825-2.311,2.321-2.311c0.495,0,1.078,0.154,1.353,0.353
			l-0.275,0.737c-0.242-0.165-0.649-0.309-1.122-0.309c-1.023,0-1.32,0.716-1.32,1.562v0.264h3.091v5.325h-0.968v-4.588h-2.123
			v4.588H34.715z"/>
		<path d="M44.165,62.158c-0.253,0.121-0.814,0.309-1.529,0.309c-1.606,0-2.651-1.089-2.651-2.718c0-1.639,1.122-2.838,2.86-2.838
			c0.572,0,1.078,0.143,1.342,0.286l-0.22,0.736c-0.231-0.12-0.594-0.253-1.122-0.253c-1.221,0-1.881,0.913-1.881,2.014
			c0,1.232,0.792,1.991,1.849,1.991c0.55,0,0.913-0.132,1.188-0.253L44.165,62.158z"/>
		<path d="M49.753,60.883c0,0.561,0.011,1.045,0.044,1.463h-0.858l-0.055-0.869h-0.022c-0.242,0.429-0.814,0.99-1.76,0.99
			c-0.836,0-1.837-0.474-1.837-2.332v-3.114h0.968v2.938c0,1.013,0.319,1.706,1.188,1.706c0.649,0,1.1-0.451,1.276-0.892
			c0.055-0.132,0.088-0.308,0.088-0.495v-3.257h0.968V60.883z"/>
		<path d="M51.358,54.534h0.968v7.812h-0.968V54.534z"/>
		<path d="M55.12,55.745v1.275h1.386v0.737H55.12v2.872c0,0.66,0.187,1.034,0.726,1.034c0.264,0,0.418-0.022,0.561-0.066
			l0.044,0.737c-0.187,0.065-0.484,0.132-0.858,0.132c-0.451,0-0.814-0.154-1.045-0.407c-0.264-0.297-0.374-0.77-0.374-1.397v-2.904
			h-0.825v-0.737h0.825v-0.989L55.12,55.745z"/>
		<path d="M61.335,61.069c0,0.462,0.022,0.913,0.077,1.276h-0.869l-0.077-0.671h-0.033c-0.297,0.418-0.869,0.792-1.628,0.792
			c-1.078,0-1.628-0.759-1.628-1.529c0-1.287,1.144-1.991,3.201-1.98v-0.109c0-0.43-0.121-1.232-1.21-1.222
			c-0.506,0-1.023,0.143-1.397,0.396l-0.22-0.649c0.44-0.275,1.089-0.462,1.76-0.462c1.628,0,2.024,1.111,2.024,2.167V61.069z
			 M60.4,59.628c-1.056-0.021-2.255,0.165-2.255,1.199c0,0.639,0.418,0.925,0.902,0.925c0.704,0,1.155-0.44,1.309-0.892
			c0.033-0.11,0.044-0.22,0.044-0.308V59.628z"/>
		<path d="M67.484,54.534v6.437c0,0.473,0.022,1.012,0.044,1.375H66.67l-0.044-0.924h-0.033c-0.286,0.594-0.924,1.045-1.793,1.045
			c-1.287,0-2.289-1.089-2.289-2.706c-0.011-1.771,1.1-2.85,2.387-2.85c0.825,0,1.364,0.385,1.606,0.803h0.022v-3.18H67.484z
			 M66.527,59.188c0-0.121-0.011-0.286-0.044-0.407c-0.143-0.605-0.671-1.111-1.397-1.111c-1.001,0-1.596,0.88-1.596,2.047
			c0,1.078,0.539,1.969,1.573,1.969c0.649,0,1.243-0.44,1.419-1.155c0.033-0.132,0.044-0.264,0.044-0.418V59.188z"/>
	</g>
</g>
</svg>
