<?xml version="1.0" encoding="utf-8"?>
<!-- Generator: Adobe Illustrator 16.0.0, SVG Export Plug-In . SVG Version: 6.00 Build 0)  -->
<!DOCTYPE svg PUBLIC "-//W3C//DTD SVG 1.1//EN" "http://www.w3.org/Graphics/SVG/1.1/DTD/svg11.dtd">
<svg version="1.1" id="Capa_1" xmlns="http://www.w3.org/2000/svg" xmlns:xlink="http://www.w3.org/1999/xlink" x="0px" y="0px"
	 width="93.333px" height="74.668px" viewBox="0 0 93.333 74.668" enable-background="new 0 0 93.333 74.668" xml:space="preserve">
<g>
	<g opacity="0.5">
		<rect x="2" y="2" fill="#FFFFFF" width="89.333" height="70.668"/>
		<g>
			<polyline fill="none" stroke="#DFA130" stroke-width="4" stroke-miterlimit="10" points="91.333,70.684 91.333,72.668 
				89.349,72.668 			"/>
			
				<line fill="none" stroke="#DFA130" stroke-width="4" stroke-miterlimit="10" stroke-dasharray="4.0652,4.0648" x1="85.284" y1="72.668" x2="6.017" y2="72.668"/>
			<polyline fill="none" stroke="#DFA130" stroke-width="4" stroke-miterlimit="10" points="3.984,72.668 2,72.668 2,70.684 			"/>
			
				<line fill="none" stroke="#DFA130" stroke-width="4" stroke-miterlimit="10" stroke-dasharray="3.9237,3.9233" x1="2" y1="66.76" x2="2" y2="5.945"/>
			<polyline fill="none" stroke="#DFA130" stroke-width="4" stroke-miterlimit="10" points="2,3.984 2,2 3.984,2 			"/>
			
				<line fill="none" stroke="#DFA130" stroke-width="4" stroke-miterlimit="10" stroke-dasharray="4.0652,4.0648" x1="8.049" y1="2" x2="87.316" y2="2"/>
			<polyline fill="none" stroke="#DFA130" stroke-width="4" stroke-miterlimit="10" points="89.349,2 91.333,2 91.333,3.984 			"/>
			
				<line fill="none" stroke="#DFA130" stroke-width="4" stroke-miterlimit="10" stroke-dasharray="3.9237,3.9233" x1="91.333" y1="7.908" x2="91.333" y2="68.723"/>
		</g>
	</g>
	<g>
		<path d="M16.928,25.25v3.104h3.586V25.25h0.968v7.416h-0.968v-3.477h-3.586v3.477H15.96V25.25H16.928z"/>
		<path d="M26.85,31.389c0,0.463,0.022,0.914,0.077,1.277h-0.869l-0.077-0.672h-0.033c-0.297,0.418-0.869,0.793-1.628,0.793
			c-1.078,0-1.628-0.76-1.628-1.529c0-1.287,1.144-1.992,3.201-1.98v-0.109c0-0.43-0.121-1.232-1.21-1.223
			c-0.506,0-1.023,0.143-1.397,0.396l-0.22-0.648c0.44-0.275,1.089-0.463,1.76-0.463c1.628,0,2.024,1.111,2.024,2.168V31.389z
			 M25.915,29.947c-1.056-0.021-2.255,0.166-2.255,1.199c0,0.639,0.418,0.926,0.902,0.926c0.704,0,1.155-0.441,1.309-0.893
			c0.033-0.109,0.044-0.219,0.044-0.307V29.947z"/>
		<path d="M32.207,32.479c-0.253,0.121-0.814,0.309-1.529,0.309c-1.606,0-2.651-1.09-2.651-2.719c0-1.639,1.122-2.838,2.86-2.838
			c0.572,0,1.078,0.143,1.342,0.287l-0.22,0.736C31.778,28.133,31.415,28,30.887,28c-1.221,0-1.881,0.914-1.881,2.014
			c0,1.232,0.792,1.992,1.849,1.992c0.55,0,0.913-0.133,1.188-0.254L32.207,32.479z"/>
		<path d="M33.813,30.18c0.022,1.309,0.847,1.848,1.826,1.848c0.693,0,1.122-0.121,1.474-0.275l0.176,0.693
			c-0.341,0.154-0.935,0.342-1.782,0.342c-1.64,0-2.619-1.09-2.619-2.695c0-1.607,0.946-2.861,2.498-2.861
			c1.749,0,2.2,1.518,2.2,2.498c0,0.197-0.011,0.34-0.033,0.451H33.813z M36.651,29.486c0.011-0.605-0.253-1.562-1.342-1.562
			c-0.99,0-1.408,0.891-1.485,1.562H36.651z"/>
		<path d="M41.656,30.18c0.022,1.309,0.847,1.848,1.826,1.848c0.693,0,1.122-0.121,1.474-0.275l0.176,0.693
			c-0.341,0.154-0.935,0.342-1.782,0.342c-1.64,0-2.619-1.09-2.619-2.695c0-1.607,0.946-2.861,2.498-2.861
			c1.749,0,2.2,1.518,2.2,2.498c0,0.197-0.011,0.34-0.033,0.451H41.656z M44.494,29.486c0.011-0.605-0.253-1.562-1.342-1.562
			c-0.99,0-1.408,0.891-1.485,1.562H44.494z"/>
		<path d="M46.627,28.781c0-0.561-0.011-1-0.044-1.441h0.858l0.055,0.881h0.022c0.264-0.494,0.88-0.99,1.76-0.99
			c0.737,0,1.881,0.439,1.881,2.266v3.17h-0.968v-3.07c0-0.857-0.319-1.572-1.232-1.572c-0.627,0-1.122,0.451-1.298,0.99
			c-0.044,0.121-0.066,0.285-0.066,0.451v3.201h-0.968V28.781z"/>
		<path d="M53.854,26.064v1.275h1.386v0.738h-1.386v2.871c0,0.66,0.187,1.035,0.726,1.035c0.264,0,0.418-0.023,0.561-0.066
			l0.044,0.736c-0.187,0.066-0.484,0.133-0.858,0.133c-0.451,0-0.814-0.154-1.045-0.408c-0.264-0.297-0.374-0.77-0.374-1.396v-2.904
			h-0.825V27.34h0.825v-0.988L53.854,26.064z"/>
		<path d="M56.33,29.002c0-0.627-0.011-1.166-0.044-1.662h0.847l0.044,1.057h0.033c0.242-0.715,0.836-1.166,1.485-1.166
			c0.099,0,0.176,0.012,0.264,0.021v0.914c-0.099-0.021-0.198-0.021-0.33-0.021c-0.682,0-1.166,0.506-1.298,1.232
			c-0.022,0.131-0.033,0.297-0.033,0.449v2.84H56.33V29.002z"/>
		<path d="M63.612,31.389c0,0.463,0.022,0.914,0.077,1.277H62.82l-0.077-0.672H62.71c-0.297,0.418-0.869,0.793-1.628,0.793
			c-1.078,0-1.628-0.76-1.628-1.529c0-1.287,1.144-1.992,3.201-1.98v-0.109c0-0.43-0.121-1.232-1.21-1.223
			c-0.506,0-1.023,0.143-1.397,0.396l-0.22-0.648c0.44-0.275,1.089-0.463,1.76-0.463c1.628,0,2.024,1.111,2.024,2.168V31.389z
			 M62.677,29.947c-1.056-0.021-2.255,0.166-2.255,1.199c0,0.639,0.418,0.926,0.902,0.926c0.704,0,1.155-0.441,1.309-0.893
			c0.033-0.109,0.044-0.219,0.044-0.307V29.947z"/>
		<path d="M65.173,29.002c0-0.627-0.011-1.166-0.044-1.662h0.847l0.044,1.057h0.033c0.242-0.715,0.836-1.166,1.485-1.166
			c0.099,0,0.176,0.012,0.264,0.021v0.914c-0.099-0.021-0.198-0.021-0.33-0.021c-0.682,0-1.166,0.506-1.298,1.232
			c-0.022,0.131-0.033,0.297-0.033,0.449v2.84h-0.968V29.002z"/>
		<path d="M74.843,31.389c0,0.463,0.022,0.914,0.077,1.277h-0.869l-0.077-0.672h-0.033c-0.297,0.418-0.869,0.793-1.628,0.793
			c-1.078,0-1.628-0.76-1.628-1.529c0-1.287,1.144-1.992,3.201-1.98v-0.109c0-0.43-0.121-1.232-1.21-1.223
			c-0.506,0-1.023,0.143-1.397,0.396l-0.22-0.648c0.44-0.275,1.089-0.463,1.76-0.463c1.628,0,2.024,1.111,2.024,2.168V31.389z
			 M73.908,29.947c-1.056-0.021-2.255,0.166-2.255,1.199c0,0.639,0.418,0.926,0.902,0.926c0.704,0,1.155-0.441,1.309-0.893
			c0.033-0.109,0.044-0.219,0.044-0.307V29.947z"/>
		<path d="M76.404,24.854h0.968v7.812h-0.968V24.854z"/>
		<path d="M23.759,44.887c0.297,0.176,0.803,0.373,1.288,0.373c0.693,0,1.023-0.34,1.023-0.791c0-0.463-0.275-0.705-0.979-0.969
			c-0.968-0.352-1.419-0.869-1.419-1.508c0-0.857,0.704-1.561,1.837-1.561c0.539,0,1.012,0.143,1.298,0.33l-0.231,0.703
			c-0.209-0.131-0.594-0.318-1.089-0.318c-0.572,0-0.88,0.33-0.88,0.727c0,0.439,0.308,0.637,1.001,0.912
			c0.913,0.342,1.397,0.803,1.397,1.596c0,0.945-0.737,1.605-1.98,1.605c-0.583,0-1.123-0.154-1.497-0.373L23.759,44.887z"/>
		<path d="M33.065,43.16c0,1.969-1.375,2.826-2.651,2.826c-1.43,0-2.552-1.057-2.552-2.738c0-1.771,1.177-2.816,2.641-2.816
			C32.032,40.432,33.065,41.543,33.065,43.16z M28.852,43.215c0,1.166,0.66,2.045,1.606,2.045c0.924,0,1.617-0.869,1.617-2.068
			c0-0.9-0.451-2.035-1.595-2.035C29.347,41.156,28.852,42.213,28.852,43.215z"/>
		<path d="M34.286,38.055h0.968v7.811h-0.968V38.055z"/>
		<path d="M37.96,39.045c0,0.33-0.231,0.594-0.616,0.594c-0.352,0-0.583-0.264-0.583-0.594s0.242-0.605,0.605-0.605
			C37.718,38.439,37.96,38.703,37.96,39.045z M36.882,45.865v-5.324h0.968v5.324H36.882z"/>
		<path d="M43.251,45.678c-0.253,0.121-0.814,0.309-1.529,0.309c-1.606,0-2.651-1.088-2.651-2.717c0-1.639,1.122-2.838,2.86-2.838
			c0.572,0,1.078,0.143,1.342,0.285l-0.22,0.736c-0.231-0.119-0.594-0.252-1.123-0.252c-1.221,0-1.881,0.912-1.881,2.014
			c0,1.232,0.792,1.99,1.849,1.99c0.55,0,0.913-0.131,1.188-0.252L43.251,45.678z"/>
		<path d="M45.462,39.045c0,0.33-0.231,0.594-0.616,0.594c-0.352,0-0.583-0.264-0.583-0.594s0.242-0.605,0.605-0.605
			C45.22,38.439,45.462,38.703,45.462,39.045z M44.384,45.865v-5.324h0.968v5.324H44.384z"/>
		<path d="M48.124,39.266v1.275h1.386v0.736h-1.386v2.873c0,0.658,0.187,1.033,0.726,1.033c0.264,0,0.418-0.021,0.561-0.066
			l0.044,0.738c-0.187,0.064-0.484,0.131-0.858,0.131c-0.451,0-0.814-0.154-1.045-0.406c-0.264-0.297-0.374-0.771-0.374-1.398
			v-2.904h-0.825v-0.736h0.825v-0.99L48.124,39.266z"/>
		<path d="M54.339,44.59c0,0.461,0.022,0.912,0.077,1.275h-0.869l-0.077-0.67h-0.033c-0.297,0.418-0.869,0.791-1.628,0.791
			c-1.078,0-1.628-0.758-1.628-1.529c0-1.287,1.144-1.99,3.201-1.98v-0.109c0-0.43-0.121-1.232-1.21-1.221
			c-0.506,0-1.023,0.143-1.397,0.396l-0.22-0.65c0.44-0.275,1.089-0.461,1.76-0.461c1.628,0,2.024,1.111,2.024,2.166V44.59z
			 M53.404,43.148c-1.056-0.021-2.255,0.164-2.255,1.199c0,0.639,0.418,0.924,0.902,0.924c0.704,0,1.155-0.439,1.309-0.891
			c0.033-0.111,0.044-0.221,0.044-0.309V43.148z"/>
		<path d="M55.901,41.982c0-0.561-0.011-1.002-0.044-1.441h0.858l0.055,0.881h0.022c0.264-0.496,0.88-0.99,1.76-0.99
			c0.737,0,1.881,0.439,1.881,2.266v3.168h-0.968v-3.068c0-0.859-0.319-1.574-1.232-1.574c-0.627,0-1.122,0.451-1.298,0.99
			c-0.044,0.121-0.066,0.287-0.066,0.451v3.201h-0.968V41.982z"/>
		<path d="M63.127,39.266v1.275h1.386v0.736h-1.386v2.873c0,0.658,0.187,1.033,0.726,1.033c0.264,0,0.418-0.021,0.561-0.066
			l0.044,0.738c-0.187,0.064-0.484,0.131-0.858,0.131c-0.451,0-0.814-0.154-1.045-0.406c-0.264-0.297-0.374-0.771-0.374-1.398
			v-2.904h-0.825v-0.736h0.825v-0.99L63.127,39.266z"/>
		<path d="M66.076,43.379c0.022,1.311,0.847,1.85,1.826,1.85c0.693,0,1.122-0.121,1.474-0.275l0.176,0.693
			c-0.341,0.152-0.935,0.34-1.782,0.34c-1.64,0-2.619-1.088-2.619-2.695c0-1.605,0.946-2.859,2.498-2.859
			c1.749,0,2.2,1.518,2.2,2.496c0,0.199-0.011,0.342-0.033,0.451H66.076z M68.914,42.686c0.011-0.604-0.253-1.561-1.342-1.561
			c-0.99,0-1.408,0.891-1.485,1.561H68.914z"/>
	</g>
</g>
</svg>
