<?xml version="1.0" encoding="utf-8"?>
<!-- Generator: Adobe Illustrator 16.0.0, SVG Export Plug-In . SVG Version: 6.00 Build 0)  -->
<!DOCTYPE svg PUBLIC "-//W3C//DTD SVG 1.1//EN" "http://www.w3.org/Graphics/SVG/1.1/DTD/svg11.dtd">
<svg version="1.1" id="Capa_1" xmlns="http://www.w3.org/2000/svg" xmlns:xlink="http://www.w3.org/1999/xlink" x="0px" y="0px"
	 width="93.333px" height="72.354px" viewBox="0 0 93.333 72.354" enable-background="new 0 0 93.333 72.354" xml:space="preserve">
<g>
	<g opacity="0.5">
		<polygon fill="#FFFFFF" points="91.333,70.354 2,70.354 2,17.02 91.333,2.354 		"/>
		<g>
			<polyline fill="none" stroke="#DFA130" stroke-width="4" stroke-miterlimit="10" points="91.333,68.369 91.333,70.354 
				89.35,70.354 			"/>
			
				<line fill="none" stroke="#DFA130" stroke-width="4" stroke-miterlimit="10" stroke-dasharray="4.0652,4.0648" x1="85.285" y1="70.354" x2="6.017" y2="70.354"/>
			<polyline fill="none" stroke="#DFA130" stroke-width="4" stroke-miterlimit="10" points="3.984,70.354 2,70.354 2,68.369 			"/>
			
				<line fill="none" stroke="#DFA130" stroke-width="4" stroke-miterlimit="10" stroke-dasharray="3.7975,3.7971" x1="2" y1="64.572" x2="2" y2="20.902"/>
			<polyline fill="none" stroke="#DFA130" stroke-width="4" stroke-miterlimit="10" points="2,19.004 2,17.02 3.958,16.699 			"/>
			
				<line fill="none" stroke="#DFA130" stroke-width="4" stroke-miterlimit="10" stroke-dasharray="4.1222,4.1218" x1="8.025" y1="16.031" x2="87.342" y2="3.008"/>
			<polyline fill="none" stroke="#DFA130" stroke-width="4" stroke-miterlimit="10" points="89.375,2.674 91.333,2.354 
				91.333,4.338 			"/>
			
				<line fill="none" stroke="#DFA130" stroke-width="4" stroke-miterlimit="10" stroke-dasharray="3.7668,3.7664" x1="91.333" y1="8.104" x2="91.333" y2="66.486"/>
		</g>
	</g>
	<g>
		<path d="M12.546,26.812v7.415h-0.968v-7.415H12.546z"/>
		<path d="M14.295,30.344c0-0.561-0.011-1.001-0.044-1.441h0.858l0.055,0.881h0.022c0.264-0.495,0.88-0.99,1.76-0.99
			c0.737,0,1.881,0.439,1.881,2.266v3.169h-0.968v-3.069c0-0.858-0.319-1.573-1.232-1.573c-0.627,0-1.122,0.451-1.298,0.99
			c-0.044,0.121-0.066,0.286-0.066,0.451v3.201h-0.968V30.344z"/>
		<path d="M24.955,33.446c0,1.232-0.253,1.97-0.759,2.442c-0.528,0.474-1.276,0.639-1.947,0.639c-0.638,0-1.342-0.154-1.771-0.44
			l0.242-0.748c0.352,0.23,0.902,0.429,1.562,0.429c0.99,0,1.716-0.517,1.716-1.87v-0.583h-0.022
			c-0.286,0.495-0.869,0.891-1.694,0.891c-1.32,0-2.267-1.122-2.267-2.596c0-1.805,1.177-2.816,2.41-2.816
			c0.924,0,1.419,0.473,1.661,0.913h0.022l0.033-0.804h0.858c-0.033,0.374-0.044,0.814-0.044,1.453V33.446z M23.986,31.004
			c0-0.165-0.011-0.308-0.055-0.429c-0.176-0.572-0.638-1.034-1.353-1.034c-0.924,0-1.584,0.781-1.584,2.013
			c0,1.046,0.54,1.915,1.573,1.915c0.605,0,1.145-0.374,1.342-0.99c0.055-0.165,0.077-0.353,0.077-0.518V31.004z"/>
		<path d="M26.483,30.564c0-0.628-0.011-1.167-0.044-1.662h0.847l0.044,1.057h0.033c0.242-0.715,0.836-1.166,1.485-1.166
			c0.099,0,0.176,0.011,0.264,0.021v0.913c-0.099-0.021-0.198-0.021-0.33-0.021c-0.682,0-1.166,0.506-1.298,1.232
			c-0.022,0.132-0.033,0.297-0.033,0.45v2.839h-0.968V30.564z"/>
		<path d="M30.509,31.741c0.022,1.31,0.847,1.849,1.826,1.849c0.693,0,1.122-0.121,1.474-0.275l0.176,0.693
			c-0.341,0.153-0.935,0.341-1.782,0.341c-1.64,0-2.619-1.089-2.619-2.695s0.946-2.86,2.498-2.86c1.749,0,2.2,1.518,2.2,2.497
			c0,0.198-0.011,0.341-0.033,0.451H30.509z M33.347,31.048c0.011-0.604-0.253-1.562-1.342-1.562c-0.99,0-1.408,0.891-1.485,1.562
			H33.347z"/>
		<path d="M35.349,33.248c0.297,0.177,0.803,0.374,1.288,0.374c0.693,0,1.023-0.341,1.023-0.792c0-0.462-0.275-0.704-0.979-0.968
			c-0.968-0.353-1.419-0.869-1.419-1.507c0-0.858,0.704-1.562,1.837-1.562c0.539,0,1.012,0.143,1.298,0.33l-0.231,0.704
			c-0.209-0.132-0.594-0.319-1.089-0.319c-0.572,0-0.88,0.33-0.88,0.727c0,0.439,0.308,0.638,1.001,0.913
			c0.913,0.341,1.397,0.803,1.397,1.595c0,0.946-0.737,1.606-1.98,1.606c-0.583,0-1.123-0.154-1.497-0.374L35.349,33.248z"/>
		<path d="M43.577,32.951c0,0.462,0.022,0.913,0.077,1.276h-0.869l-0.077-0.671h-0.033c-0.297,0.418-0.869,0.792-1.628,0.792
			c-1.078,0-1.628-0.759-1.628-1.529c0-1.287,1.144-1.991,3.201-1.98v-0.109c0-0.43-0.121-1.232-1.21-1.222
			c-0.506,0-1.023,0.143-1.397,0.396l-0.22-0.649c0.44-0.275,1.089-0.462,1.76-0.462c1.628,0,2.024,1.111,2.024,2.167V32.951z
			 M42.642,31.51c-1.056-0.021-2.255,0.165-2.255,1.199c0,0.639,0.418,0.925,0.902,0.925c0.704,0,1.155-0.44,1.309-0.892
			c0.033-0.11,0.044-0.22,0.044-0.308V31.51z"/>
		<path d="M51.101,33.413h-0.022c-0.297,0.518-0.88,0.936-1.738,0.936c-1.243,0-2.255-1.067-2.255-2.685
			c0-2.002,1.287-2.871,2.41-2.871c0.825,0,1.375,0.407,1.639,0.913h0.022l0.033-0.804h0.913c-0.022,0.44-0.044,0.913-0.044,1.464
			v6.04h-0.957V33.413z M51.101,31.059c0-0.132-0.011-0.274-0.044-0.396c-0.154-0.594-0.66-1.101-1.386-1.101
			c-1.001,0-1.606,0.848-1.606,2.036c0,1.066,0.506,1.979,1.573,1.979c0.627,0,1.167-0.385,1.386-1.045
			c0.044-0.143,0.077-0.33,0.077-0.473V31.059z"/>
		<path d="M58.119,32.765c0,0.561,0.011,1.045,0.044,1.463h-0.858l-0.055-0.869h-0.022c-0.242,0.429-0.814,0.99-1.76,0.99
			c-0.836,0-1.837-0.474-1.837-2.332v-3.114h0.968v2.938c0,1.013,0.319,1.706,1.188,1.706c0.649,0,1.1-0.451,1.276-0.892
			c0.055-0.132,0.088-0.308,0.088-0.495v-3.257h0.968V32.765z"/>
		<path d="M60.264,31.741c0.022,1.31,0.847,1.849,1.826,1.849c0.693,0,1.122-0.121,1.474-0.275l0.176,0.693
			c-0.341,0.153-0.935,0.341-1.782,0.341c-1.64,0-2.619-1.089-2.619-2.695s0.946-2.86,2.498-2.86c1.749,0,2.2,1.518,2.2,2.497
			c0,0.198-0.011,0.341-0.033,0.451H60.264z M63.102,31.048c0.011-0.604-0.253-1.562-1.342-1.562c-0.99,0-1.408,0.891-1.485,1.562
			H63.102z"/>
		<path d="M67.6,34.228v-7.415h1.056l2.366,3.752c0.539,0.869,0.979,1.649,1.32,2.409l0.033-0.012
			c-0.088-0.989-0.11-1.892-0.11-3.047v-3.103h0.902v7.415h-0.968l-2.354-3.763c-0.517-0.825-1.012-1.672-1.375-2.476l-0.033,0.012
			c0.055,0.935,0.066,1.826,0.066,3.058v3.169H67.6z"/>
		<path d="M81.175,30.443c0,2.541-1.551,3.905-3.443,3.905c-1.969,0-3.333-1.529-3.333-3.773c0-2.354,1.452-3.895,3.433-3.895
			C79.866,26.681,81.175,28.231,81.175,30.443z M75.41,30.553c0,1.596,0.858,3.015,2.376,3.015c1.518,0,2.376-1.397,2.376-3.08
			c0-1.485-0.771-3.025-2.366-3.025S75.41,28.936,75.41,30.553z"/>
		<path d="M12.926,43.741c0.022,1.31,0.847,1.849,1.826,1.849c0.693,0,1.122-0.121,1.474-0.275l0.176,0.693
			c-0.341,0.153-0.935,0.341-1.782,0.341c-1.64,0-2.619-1.089-2.619-2.695s0.946-2.86,2.498-2.86c1.749,0,2.2,1.518,2.2,2.497
			c0,0.198-0.011,0.341-0.033,0.451H12.926z M15.764,43.048c0.011-0.604-0.253-1.562-1.342-1.562c-0.99,0-1.408,0.891-1.485,1.562
			H15.764z"/>
		<path d="M17.765,45.248c0.297,0.177,0.803,0.374,1.288,0.374c0.693,0,1.023-0.341,1.023-0.792c0-0.462-0.275-0.704-0.979-0.968
			c-0.968-0.353-1.419-0.869-1.419-1.507c0-0.858,0.704-1.562,1.837-1.562c0.539,0,1.012,0.143,1.298,0.33l-0.231,0.704
			c-0.209-0.132-0.594-0.319-1.089-0.319c-0.572,0-0.88,0.33-0.88,0.727c0,0.439,0.308,0.638,1.001,0.913
			c0.913,0.341,1.397,0.803,1.397,1.595c0,0.946-0.737,1.606-1.98,1.606c-0.583,0-1.122-0.154-1.496-0.374L17.765,45.248z"/>
		<path d="M29.041,44.765c0,0.561,0.011,1.045,0.044,1.463h-0.858l-0.055-0.869H28.15c-0.242,0.429-0.814,0.99-1.76,0.99
			c-0.836,0-1.837-0.474-1.837-2.332v-3.114h0.968v2.938c0,1.013,0.319,1.706,1.188,1.706c0.649,0,1.1-0.451,1.276-0.892
			c0.055-0.132,0.088-0.308,0.088-0.495v-3.257h0.968V44.765z"/>
		<path d="M30.646,42.344c0-0.561-0.011-1.001-0.044-1.441h0.858l0.055,0.881h0.022c0.264-0.495,0.88-0.99,1.76-0.99
			c0.737,0,1.881,0.439,1.881,2.266v3.169h-0.968v-3.069c0-0.858-0.319-1.573-1.232-1.573c-0.627,0-1.122,0.451-1.298,0.99
			c-0.044,0.121-0.066,0.286-0.066,0.451v3.201h-0.968V42.344z"/>
		<path d="M40.492,44.951c0,0.462,0.022,0.913,0.077,1.276H39.7l-0.077-0.671H39.59c-0.297,0.418-0.869,0.792-1.628,0.792
			c-1.078,0-1.628-0.759-1.628-1.529c0-1.287,1.144-1.991,3.201-1.98v-0.109c0-0.43-0.121-1.232-1.21-1.222
			c-0.506,0-1.023,0.143-1.397,0.396l-0.22-0.649c0.44-0.275,1.089-0.462,1.76-0.462c1.628,0,2.024,1.111,2.024,2.167V44.951z
			 M39.557,43.51c-1.056-0.021-2.255,0.165-2.255,1.199c0,0.639,0.418,0.925,0.902,0.925c0.704,0,1.155-0.44,1.309-0.892
			c0.033-0.11,0.044-0.22,0.044-0.308V43.51z"/>
		<path d="M44.385,42.641c0-0.682-0.022-1.231-0.044-1.738h0.858l0.055,0.913h0.022c0.385-0.648,1.023-1.022,1.892-1.022
			c1.298,0,2.267,1.089,2.267,2.695c0,1.914-1.177,2.86-2.432,2.86c-0.704,0-1.32-0.309-1.639-0.836h-0.022v2.894h-0.957V42.641z
			 M45.342,44.061c0,0.143,0.011,0.274,0.044,0.396c0.176,0.671,0.759,1.134,1.452,1.134c1.023,0,1.617-0.837,1.617-2.058
			c0-1.057-0.561-1.97-1.584-1.97c-0.66,0-1.287,0.463-1.463,1.188c-0.033,0.121-0.066,0.264-0.066,0.385V44.061z"/>
		<path d="M51.183,43.741c0.022,1.31,0.847,1.849,1.826,1.849c0.693,0,1.122-0.121,1.474-0.275l0.176,0.693
			c-0.341,0.153-0.935,0.341-1.782,0.341c-1.64,0-2.619-1.089-2.619-2.695s0.946-2.86,2.498-2.86c1.749,0,2.2,1.518,2.2,2.497
			c0,0.198-0.011,0.341-0.033,0.451H51.183z M54.021,43.048c0.011-0.604-0.253-1.562-1.342-1.562c-0.99,0-1.408,0.891-1.485,1.562
			H54.021z"/>
		<path d="M56.155,42.564c0-0.628-0.011-1.167-0.044-1.662h0.847l0.044,1.057h0.033c0.242-0.715,0.836-1.166,1.485-1.166
			c0.099,0,0.176,0.011,0.264,0.021v0.913c-0.099-0.021-0.198-0.021-0.33-0.021c-0.682,0-1.166,0.506-1.298,1.232
			c-0.022,0.132-0.033,0.297-0.033,0.45v2.839h-0.968V42.564z"/>
		<path d="M59.62,45.248c0.297,0.177,0.803,0.374,1.288,0.374c0.693,0,1.023-0.341,1.023-0.792c0-0.462-0.275-0.704-0.979-0.968
			c-0.968-0.353-1.419-0.869-1.419-1.507c0-0.858,0.704-1.562,1.837-1.562c0.539,0,1.012,0.143,1.298,0.33l-0.231,0.704
			c-0.209-0.132-0.594-0.319-1.089-0.319c-0.572,0-0.88,0.33-0.88,0.727c0,0.439,0.308,0.638,1.001,0.913
			c0.913,0.341,1.397,0.803,1.397,1.595c0,0.946-0.737,1.606-1.98,1.606c-0.583,0-1.122-0.154-1.496-0.374L59.62,45.248z"/>
		<path d="M68.926,43.521c0,1.969-1.375,2.827-2.651,2.827c-1.43,0-2.552-1.057-2.552-2.739c0-1.771,1.177-2.816,2.641-2.816
			C67.893,40.793,68.926,41.904,68.926,43.521z M64.713,43.576c0,1.166,0.66,2.046,1.606,2.046c0.924,0,1.617-0.869,1.617-2.068
			c0-0.901-0.451-2.035-1.595-2.035C65.208,41.519,64.713,42.575,64.713,43.576z"/>
		<path d="M70.147,42.344c0-0.561-0.011-1.001-0.044-1.441h0.858l0.055,0.881h0.022c0.264-0.495,0.88-0.99,1.76-0.99
			c0.737,0,1.881,0.439,1.881,2.266v3.169h-0.968v-3.069c0-0.858-0.319-1.573-1.232-1.573c-0.627,0-1.122,0.451-1.298,0.99
			c-0.044,0.121-0.066,0.286-0.066,0.451v3.201h-0.968V42.344z"/>
		<path d="M79.992,44.951c0,0.462,0.022,0.913,0.077,1.276H79.2l-0.077-0.671H79.09c-0.297,0.418-0.869,0.792-1.628,0.792
			c-1.078,0-1.628-0.759-1.628-1.529c0-1.287,1.144-1.991,3.201-1.98v-0.109c0-0.43-0.121-1.232-1.21-1.222
			c-0.506,0-1.023,0.143-1.397,0.396l-0.22-0.649c0.44-0.275,1.089-0.462,1.76-0.462c1.628,0,2.024,1.111,2.024,2.167V44.951z
			 M79.057,43.51c-1.056-0.021-2.255,0.165-2.255,1.199c0,0.639,0.418,0.925,0.902,0.925c0.704,0,1.155-0.44,1.309-0.892
			c0.033-0.11,0.044-0.22,0.044-0.308V43.51z"/>
		<path d="M11.029,58.04c-0.253,0.121-0.814,0.309-1.529,0.309c-1.606,0-2.651-1.089-2.651-2.718c0-1.639,1.122-2.838,2.86-2.838
			c0.572,0,1.078,0.143,1.342,0.286l-0.22,0.736c-0.231-0.12-0.594-0.253-1.123-0.253c-1.221,0-1.881,0.913-1.881,2.014
			c0,1.232,0.792,1.991,1.849,1.991c0.55,0,0.913-0.132,1.188-0.253L11.029,58.04z"/>
		<path d="M16.914,55.521c0,1.969-1.375,2.827-2.651,2.827c-1.43,0-2.552-1.057-2.552-2.739c0-1.771,1.177-2.816,2.641-2.816
			C15.88,52.793,16.914,53.904,16.914,55.521z M12.7,55.576c0,1.166,0.66,2.046,1.606,2.046c0.924,0,1.617-0.869,1.617-2.068
			c0-0.901-0.451-2.035-1.595-2.035C13.195,53.519,12.7,54.575,12.7,55.576z"/>
		<path d="M18.134,54.344c0-0.561-0.011-1.001-0.044-1.441h0.858l0.055,0.881h0.022c0.264-0.495,0.88-0.99,1.76-0.99
			c0.737,0,1.881,0.439,1.881,2.266v3.169h-0.968v-3.069c0-0.858-0.319-1.573-1.232-1.573c-0.627,0-1.122,0.451-1.298,0.99
			c-0.044,0.121-0.066,0.286-0.066,0.451v3.201h-0.968V54.344z"/>
		<path d="M31.159,50.416v6.437c0,0.473,0.022,1.012,0.044,1.375h-0.858l-0.044-0.924h-0.033c-0.286,0.594-0.924,1.045-1.793,1.045
			c-1.287,0-2.289-1.089-2.289-2.706c-0.011-1.771,1.1-2.85,2.387-2.85c0.825,0,1.364,0.385,1.606,0.803h0.022v-3.18H31.159z
			 M30.202,55.07c0-0.121-0.011-0.286-0.044-0.407c-0.143-0.605-0.671-1.111-1.397-1.111c-1.001,0-1.596,0.88-1.596,2.047
			c0,1.078,0.539,1.969,1.573,1.969c0.649,0,1.243-0.44,1.419-1.155c0.033-0.132,0.044-0.264,0.044-0.418V55.07z"/>
		<path d="M33.853,51.406c0,0.33-0.231,0.595-0.616,0.595c-0.352,0-0.583-0.265-0.583-0.595s0.242-0.604,0.605-0.604
			C33.611,50.802,33.853,51.065,33.853,51.406z M32.775,58.228v-5.325h0.968v5.325H32.775z"/>
		<path d="M35.217,57.248c0.297,0.177,0.803,0.374,1.288,0.374c0.693,0,1.023-0.341,1.023-0.792c0-0.462-0.275-0.704-0.979-0.968
			c-0.968-0.353-1.419-0.869-1.419-1.507c0-0.858,0.704-1.562,1.837-1.562c0.539,0,1.012,0.143,1.298,0.33l-0.231,0.704
			c-0.209-0.132-0.594-0.319-1.089-0.319c-0.572,0-0.88,0.33-0.88,0.727c0,0.439,0.308,0.638,1.001,0.913
			c0.913,0.341,1.397,0.803,1.397,1.595c0,0.946-0.737,1.606-1.98,1.606c-0.583,0-1.123-0.154-1.497-0.374L35.217,57.248z"/>
		<path d="M43.5,58.04c-0.253,0.121-0.814,0.309-1.529,0.309c-1.606,0-2.651-1.089-2.651-2.718c0-1.639,1.122-2.838,2.86-2.838
			c0.572,0,1.078,0.143,1.342,0.286l-0.22,0.736c-0.231-0.12-0.594-0.253-1.123-0.253c-1.221,0-1.881,0.913-1.881,2.014
			c0,1.232,0.792,1.991,1.849,1.991c0.55,0,0.913-0.132,1.188-0.253L43.5,58.04z"/>
		<path d="M48.373,56.951c0,0.462,0.022,0.913,0.077,1.276h-0.869l-0.077-0.671h-0.033c-0.297,0.418-0.869,0.792-1.628,0.792
			c-1.078,0-1.628-0.759-1.628-1.529c0-1.287,1.144-1.991,3.201-1.98v-0.109c0-0.43-0.121-1.232-1.21-1.222
			c-0.506,0-1.023,0.143-1.397,0.396l-0.22-0.649c0.44-0.275,1.089-0.462,1.76-0.462c1.628,0,2.024,1.111,2.024,2.167V56.951z
			 M47.438,55.51c-1.056-0.021-2.255,0.165-2.255,1.199c0,0.639,0.418,0.925,0.902,0.925c0.704,0,1.155-0.44,1.309-0.892
			c0.033-0.11,0.044-0.22,0.044-0.308V55.51z"/>
		<path d="M49.935,54.641c0-0.682-0.022-1.231-0.044-1.738h0.858l0.055,0.913h0.022c0.385-0.648,1.023-1.022,1.892-1.022
			c1.298,0,2.267,1.089,2.267,2.695c0,1.914-1.177,2.86-2.432,2.86c-0.704,0-1.32-0.309-1.639-0.836h-0.022v2.894h-0.957V54.641z
			 M50.892,56.061c0,0.143,0.011,0.274,0.044,0.396c0.176,0.671,0.759,1.134,1.452,1.134c1.023,0,1.617-0.837,1.617-2.058
			c0-1.057-0.561-1.97-1.584-1.97c-0.66,0-1.287,0.463-1.463,1.188c-0.033,0.121-0.066,0.264-0.066,0.385V56.061z"/>
		<path d="M59.934,56.951c0,0.462,0.022,0.913,0.077,1.276h-0.869l-0.077-0.671h-0.033c-0.297,0.418-0.869,0.792-1.628,0.792
			c-1.078,0-1.628-0.759-1.628-1.529c0-1.287,1.144-1.991,3.201-1.98v-0.109c0-0.43-0.121-1.232-1.21-1.222
			c-0.506,0-1.023,0.143-1.397,0.396l-0.22-0.649c0.44-0.275,1.089-0.462,1.76-0.462c1.628,0,2.024,1.111,2.024,2.167V56.951z
			 M58.999,55.51c-1.056-0.021-2.255,0.165-2.255,1.199c0,0.639,0.418,0.925,0.902,0.925c0.704,0,1.155-0.44,1.309-0.892
			c0.033-0.11,0.044-0.22,0.044-0.308V55.51z"/>
		<path d="M65.291,58.04c-0.253,0.121-0.814,0.309-1.529,0.309c-1.606,0-2.651-1.089-2.651-2.718c0-1.639,1.122-2.838,2.86-2.838
			c0.572,0,1.078,0.143,1.342,0.286l-0.22,0.736c-0.231-0.12-0.594-0.253-1.122-0.253c-1.221,0-1.881,0.913-1.881,2.014
			c0,1.232,0.792,1.991,1.849,1.991c0.55,0,0.913-0.132,1.188-0.253L65.291,58.04z"/>
		<path d="M67.502,51.406c0,0.33-0.231,0.595-0.616,0.595c-0.352,0-0.583-0.265-0.583-0.595s0.242-0.604,0.605-0.604
			C67.26,50.802,67.502,51.065,67.502,51.406z M66.424,58.228v-5.325h0.968v5.325H66.424z"/>
		<path d="M73.585,50.416v6.437c0,0.473,0.022,1.012,0.044,1.375h-0.858l-0.044-0.924h-0.033c-0.286,0.594-0.924,1.045-1.793,1.045
			c-1.287,0-2.289-1.089-2.289-2.706c-0.011-1.771,1.1-2.85,2.387-2.85c0.825,0,1.364,0.385,1.606,0.803h0.022v-3.18H73.585z
			 M72.628,55.07c0-0.121-0.011-0.286-0.044-0.407c-0.143-0.605-0.671-1.111-1.397-1.111c-1.001,0-1.595,0.88-1.595,2.047
			c0,1.078,0.54,1.969,1.573,1.969c0.649,0,1.243-0.44,1.419-1.155c0.033-0.132,0.044-0.264,0.044-0.418V55.07z"/>
		<path d="M78.942,56.951c0,0.462,0.022,0.913,0.077,1.276H78.15l-0.077-0.671H78.04c-0.297,0.418-0.869,0.792-1.628,0.792
			c-1.078,0-1.628-0.759-1.628-1.529c0-1.287,1.144-1.991,3.201-1.98v-0.109c0-0.43-0.121-1.232-1.21-1.222
			c-0.506,0-1.023,0.143-1.397,0.396l-0.22-0.649c0.44-0.275,1.089-0.462,1.76-0.462c1.628,0,2.024,1.111,2.024,2.167V56.951z
			 M78.007,55.51c-1.056-0.021-2.255,0.165-2.255,1.199c0,0.639,0.418,0.925,0.902,0.925c0.704,0,1.155-0.44,1.309-0.892
			c0.033-0.11,0.044-0.22,0.044-0.308V55.51z"/>
		<path d="M85.091,50.416v6.437c0,0.473,0.022,1.012,0.044,1.375h-0.858l-0.044-0.924H84.2c-0.286,0.594-0.924,1.045-1.793,1.045
			c-1.287,0-2.289-1.089-2.289-2.706c-0.011-1.771,1.1-2.85,2.387-2.85c0.825,0,1.364,0.385,1.606,0.803h0.022v-3.18H85.091z
			 M84.134,55.07c0-0.121-0.011-0.286-0.044-0.407c-0.143-0.605-0.671-1.111-1.397-1.111c-1.001,0-1.595,0.88-1.595,2.047
			c0,1.078,0.54,1.969,1.573,1.969c0.649,0,1.243-0.44,1.419-1.155c0.033-0.132,0.044-0.264,0.044-0.418V55.07z"/>
	</g>
</g>
</svg>
