<?xml version="1.0" encoding="utf-8"?>
<!-- Generator: Adobe Illustrator 16.0.0, SVG Export Plug-In . SVG Version: 6.00 Build 0)  -->
<!DOCTYPE svg PUBLIC "-//W3C//DTD SVG 1.1//EN" "http://www.w3.org/Graphics/SVG/1.1/DTD/svg11.dtd">
<svg version="1.1" id="Capa_1" xmlns="http://www.w3.org/2000/svg" xmlns:xlink="http://www.w3.org/1999/xlink" x="0px" y="0px"
	 width="93.333px" height="57.334px" viewBox="0 0 93.333 57.334" enable-background="new 0 0 93.333 57.334" xml:space="preserve">
<g>
	<g opacity="0.5">
		<rect x="2" y="2" fill="#FFFFFF" width="89.333" height="53.334"/>
		<g>
			<polyline fill="none" stroke="#DFA130" stroke-width="4" stroke-miterlimit="10" points="91.333,53.35 91.333,55.334 
				89.349,55.334 			"/>
			
				<line fill="none" stroke="#DFA130" stroke-width="4" stroke-miterlimit="10" stroke-dasharray="4.0652,4.0648" x1="85.284" y1="55.334" x2="6.017" y2="55.334"/>
			<polyline fill="none" stroke="#DFA130" stroke-width="4" stroke-miterlimit="10" points="3.984,55.334 2,55.334 2,53.35 			"/>
			
				<line fill="none" stroke="#DFA130" stroke-width="4" stroke-miterlimit="10" stroke-dasharray="3.7975,3.7971" x1="2" y1="49.553" x2="2" y2="5.883"/>
			<polyline fill="none" stroke="#DFA130" stroke-width="4" stroke-miterlimit="10" points="2,3.984 2,2 3.984,2 			"/>
			
				<line fill="none" stroke="#DFA130" stroke-width="4" stroke-miterlimit="10" stroke-dasharray="4.0652,4.0648" x1="8.049" y1="2" x2="87.316" y2="2"/>
			<polyline fill="none" stroke="#DFA130" stroke-width="4" stroke-miterlimit="10" points="89.349,2 91.333,2 91.333,3.984 			"/>
			
				<line fill="none" stroke="#DFA130" stroke-width="4" stroke-miterlimit="10" stroke-dasharray="3.7975,3.7971" x1="91.333" y1="7.781" x2="91.333" y2="51.451"/>
		</g>
	</g>
	<g>
		<path d="M13.421,9.572c0.416-0.07,0.961-0.129,1.654-0.129c0.852,0,1.476,0.197,1.872,0.555c0.357,0.316,0.584,0.803,0.584,1.396
			c0,0.604-0.178,1.08-0.515,1.426c-0.465,0.484-1.198,0.732-2.04,0.732c-0.258,0-0.496-0.01-0.693-0.059v2.674h-0.862V9.572z
			 M14.283,12.791c0.188,0.049,0.426,0.068,0.713,0.068c1.04,0,1.674-0.514,1.674-1.416c0-0.891-0.634-1.316-1.575-1.316
			c-0.376,0-0.664,0.029-0.812,0.068V12.791z"/>
		<path d="M19.476,10.027c0,0.297-0.208,0.535-0.555,0.535c-0.317,0-0.525-0.238-0.525-0.535s0.218-0.545,0.545-0.545
			C19.258,9.482,19.476,9.721,19.476,10.027z M18.505,16.168v-4.793h0.871v4.793H18.505z"/>
		<path d="M24.953,9.137v5.793c0,0.426,0.02,0.91,0.04,1.238H24.22l-0.04-0.832h-0.03c-0.257,0.535-0.832,0.941-1.614,0.941
			c-1.159,0-2.06-0.98-2.06-2.438c-0.01-1.594,0.99-2.564,2.149-2.564c0.743,0,1.228,0.346,1.446,0.723h0.02V9.137H24.953z
			 M24.091,13.326c0-0.109-0.01-0.258-0.04-0.367c-0.128-0.545-0.604-1-1.258-1c-0.901,0-1.436,0.791-1.436,1.842
			c0,0.971,0.485,1.773,1.416,1.773c0.584,0,1.119-0.396,1.277-1.041c0.03-0.119,0.04-0.238,0.04-0.377V13.326z"/>
		<path d="M26.898,13.93c0.02,1.178,0.763,1.664,1.644,1.664c0.624,0,1.01-0.109,1.327-0.248l0.158,0.623
			c-0.307,0.139-0.842,0.309-1.604,0.309c-1.476,0-2.357-0.98-2.357-2.428c0-1.445,0.852-2.574,2.248-2.574
			c1.574,0,1.98,1.367,1.98,2.248c0,0.178-0.01,0.307-0.03,0.406H26.898z M29.453,13.305c0.01-0.543-0.228-1.406-1.208-1.406
			c-0.892,0-1.268,0.803-1.337,1.406H29.453z"/>
		<path d="M36.845,15.02c0,0.416,0.02,0.82,0.069,1.148h-0.782l-0.069-0.605h-0.03c-0.268,0.377-0.782,0.715-1.466,0.715
			c-0.97,0-1.465-0.684-1.465-1.377c0-1.158,1.03-1.793,2.882-1.783v-0.1c0-0.385-0.109-1.107-1.089-1.098
			c-0.456,0-0.921,0.127-1.258,0.355l-0.198-0.584c0.396-0.248,0.98-0.416,1.584-0.416c1.466,0,1.822,1,1.822,1.951V15.02z
			 M36.003,13.721c-0.951-0.02-2.03,0.148-2.03,1.08c0,0.574,0.376,0.832,0.812,0.832c0.634,0,1.04-0.396,1.178-0.803
			c0.03-0.098,0.04-0.197,0.04-0.277V13.721z"/>
		<path d="M40.356,9.137h0.871v7.031h-0.871V9.137z"/>
		<path d="M46.061,15.02c0,0.416,0.02,0.82,0.069,1.148h-0.782l-0.069-0.605h-0.03c-0.268,0.377-0.782,0.715-1.466,0.715
			c-0.97,0-1.465-0.684-1.465-1.377c0-1.158,1.03-1.793,2.882-1.783v-0.1c0-0.385-0.109-1.107-1.089-1.098
			c-0.456,0-0.921,0.127-1.258,0.355l-0.198-0.584c0.396-0.248,0.98-0.416,1.584-0.416c1.466,0,1.822,1,1.822,1.951V15.02z
			 M45.219,13.721c-0.951-0.02-2.03,0.148-2.03,1.08c0,0.574,0.376,0.832,0.812,0.832c0.634,0,1.04-0.396,1.178-0.803
			c0.03-0.098,0.04-0.197,0.04-0.277V13.721z"/>
		<path d="M49.572,12.939c0-0.615-0.02-1.109-0.04-1.564h0.772l0.05,0.822h0.02c0.347-0.586,0.921-0.922,1.704-0.922
			c1.168,0,2.04,0.98,2.04,2.426c0,1.723-1.06,2.576-2.189,2.576c-0.634,0-1.188-0.277-1.475-0.754h-0.02v2.605h-0.861V12.939z
			 M50.433,14.217c0,0.129,0.01,0.248,0.04,0.355c0.159,0.605,0.684,1.021,1.307,1.021c0.921,0,1.456-0.754,1.456-1.852
			c0-0.951-0.505-1.773-1.426-1.773c-0.594,0-1.159,0.416-1.317,1.07c-0.03,0.107-0.06,0.236-0.06,0.346V14.217z"/>
		<path d="M55.695,13.93c0.02,1.178,0.763,1.664,1.644,1.664c0.624,0,1.01-0.109,1.327-0.248l0.158,0.623
			c-0.307,0.139-0.842,0.309-1.604,0.309c-1.476,0-2.357-0.98-2.357-2.428c0-1.445,0.852-2.574,2.248-2.574
			c1.574,0,1.98,1.367,1.98,2.248c0,0.178-0.01,0.307-0.03,0.406H55.695z M58.25,13.305c0.01-0.543-0.228-1.406-1.208-1.406
			c-0.892,0-1.268,0.803-1.337,1.406H58.25z"/>
		<path d="M60.175,12.869c0-0.564-0.01-1.049-0.04-1.494h0.763l0.04,0.949h0.03c0.218-0.643,0.752-1.049,1.337-1.049
			c0.089,0,0.158,0.01,0.238,0.02v0.822c-0.089-0.02-0.178-0.02-0.297-0.02c-0.614,0-1.05,0.455-1.168,1.109
			c-0.02,0.119-0.03,0.268-0.03,0.406v2.555h-0.871V12.869z"/>
		<path d="M63.296,15.285c0.268,0.16,0.723,0.338,1.159,0.338c0.624,0,0.921-0.307,0.921-0.713c0-0.416-0.248-0.635-0.881-0.871
			c-0.872-0.318-1.277-0.783-1.277-1.357c0-0.771,0.634-1.406,1.654-1.406c0.485,0,0.911,0.129,1.168,0.297l-0.208,0.635
			c-0.188-0.119-0.535-0.287-0.98-0.287c-0.515,0-0.792,0.297-0.792,0.652c0,0.396,0.277,0.574,0.901,0.822
			c0.822,0.307,1.258,0.723,1.258,1.436c0,0.852-0.664,1.447-1.782,1.447c-0.525,0-1.01-0.139-1.347-0.338L63.296,15.285z"/>
		<path d="M71.677,13.73c0,1.773-1.238,2.547-2.387,2.547c-1.288,0-2.297-0.951-2.297-2.467c0-1.594,1.06-2.535,2.376-2.535
			C70.746,11.275,71.677,12.275,71.677,13.73z M67.884,13.781c0,1.049,0.594,1.842,1.446,1.842c0.832,0,1.456-0.783,1.456-1.861
			c0-0.812-0.406-1.832-1.436-1.832C68.33,11.93,67.884,12.879,67.884,13.781z"/>
		<path d="M72.78,12.672c0-0.506-0.01-0.9-0.04-1.297h0.772l0.05,0.791h0.02c0.238-0.445,0.792-0.891,1.584-0.891
			c0.664,0,1.693,0.396,1.693,2.039v2.854h-0.871v-2.764c0-0.771-0.287-1.416-1.109-1.416c-0.564,0-1.01,0.406-1.168,0.891
			c-0.04,0.109-0.06,0.258-0.06,0.406v2.883H72.78V12.672z"/>
		<path d="M81.646,15.02c0,0.416,0.02,0.82,0.069,1.148h-0.782l-0.069-0.605h-0.03c-0.267,0.377-0.782,0.715-1.466,0.715
			c-0.97,0-1.465-0.684-1.465-1.377c0-1.158,1.03-1.793,2.882-1.783v-0.1c0-0.385-0.109-1.107-1.089-1.098
			c-0.456,0-0.921,0.127-1.258,0.355l-0.198-0.584c0.396-0.248,0.98-0.416,1.584-0.416c1.466,0,1.822,1,1.822,1.951V15.02z
			 M80.805,13.721c-0.951-0.02-2.03,0.148-2.03,1.08c0,0.574,0.376,0.832,0.812,0.832c0.634,0,1.04-0.396,1.178-0.803
			c0.03-0.098,0.04-0.197,0.04-0.277V13.721z"/>
		<path d="M17.051,26.246h-0.02c-0.268,0.465-0.792,0.842-1.565,0.842c-1.119,0-2.03-0.961-2.03-2.418
			c0-1.801,1.159-2.584,2.168-2.584c0.743,0,1.238,0.367,1.476,0.822h0.02l0.03-0.723h0.822c-0.02,0.396-0.04,0.822-0.04,1.316
			v5.438h-0.862V26.246z M17.051,24.125c0-0.117-0.01-0.246-0.04-0.355c-0.139-0.535-0.594-0.99-1.248-0.99
			c-0.901,0-1.446,0.762-1.446,1.832c0,0.961,0.456,1.783,1.416,1.783c0.564,0,1.05-0.348,1.248-0.941
			c0.04-0.129,0.069-0.297,0.069-0.426V24.125z"/>
		<path d="M23.373,25.66c0,0.506,0.01,0.941,0.04,1.318H22.64l-0.05-0.783h-0.02c-0.218,0.387-0.733,0.893-1.584,0.893
			c-0.753,0-1.654-0.428-1.654-2.1v-2.803h0.871v2.643c0,0.912,0.288,1.535,1.07,1.535c0.584,0,0.99-0.404,1.148-0.801
			c0.05-0.119,0.08-0.277,0.08-0.445v-2.932h0.871V25.66z"/>
		<path d="M25.308,24.74c0.02,1.178,0.763,1.664,1.644,1.664c0.624,0,1.01-0.109,1.327-0.248l0.158,0.623
			c-0.307,0.139-0.842,0.309-1.604,0.309c-1.476,0-2.357-0.98-2.357-2.428c0-1.445,0.852-2.574,2.248-2.574
			c1.574,0,1.98,1.367,1.98,2.248c0,0.178-0.01,0.307-0.03,0.406H25.308z M27.863,24.115c0.01-0.543-0.228-1.406-1.208-1.406
			c-0.892,0-1.268,0.803-1.337,1.406H27.863z"/>
		<path d="M32.858,20.838c0,0.297-0.208,0.535-0.555,0.535c-0.317,0-0.525-0.238-0.525-0.535s0.218-0.545,0.545-0.545
			C32.641,20.293,32.858,20.531,32.858,20.838z M31.888,26.979v-4.793h0.871v4.793H31.888z"/>
		<path d="M34.207,23.482c0-0.506-0.01-0.9-0.04-1.297h0.772l0.05,0.791h0.02c0.238-0.445,0.792-0.891,1.584-0.891
			c0.664,0,1.693,0.396,1.693,2.039v2.854h-0.871v-2.764c0-0.771-0.288-1.416-1.109-1.416c-0.564,0-1.01,0.406-1.168,0.891
			c-0.04,0.109-0.06,0.258-0.06,0.406v2.883h-0.871V23.482z"/>
		<path d="M43.806,26.275c0,1.109-0.228,1.771-0.683,2.197c-0.476,0.426-1.149,0.574-1.753,0.574c-0.575,0-1.208-0.139-1.595-0.395
			l0.218-0.674c0.317,0.207,0.812,0.387,1.406,0.387c0.891,0,1.544-0.467,1.544-1.684v-0.525h-0.02
			c-0.257,0.445-0.782,0.803-1.525,0.803c-1.188,0-2.04-1.012-2.04-2.338c0-1.625,1.06-2.535,2.168-2.535
			c0.832,0,1.278,0.426,1.496,0.822h0.02l0.03-0.723h0.772c-0.03,0.336-0.04,0.732-0.04,1.307V26.275z M42.935,24.076
			c0-0.148-0.01-0.277-0.049-0.387c-0.159-0.514-0.575-0.93-1.218-0.93c-0.832,0-1.426,0.703-1.426,1.812
			c0,0.939,0.485,1.723,1.416,1.723c0.544,0,1.03-0.336,1.208-0.891c0.05-0.148,0.069-0.318,0.069-0.467V24.076z"/>
		<path d="M45.187,23.68c0-0.564-0.01-1.049-0.04-1.494h0.763l0.04,0.949h0.03c0.218-0.643,0.752-1.049,1.337-1.049
			c0.089,0,0.159,0.01,0.238,0.02v0.822c-0.089-0.02-0.178-0.02-0.297-0.02c-0.614,0-1.049,0.455-1.168,1.109
			c-0.02,0.119-0.03,0.268-0.03,0.406v2.555h-0.871V23.68z"/>
		<path d="M48.813,24.74c0.02,1.178,0.763,1.664,1.644,1.664c0.624,0,1.01-0.109,1.327-0.248l0.158,0.623
			c-0.307,0.139-0.842,0.309-1.604,0.309c-1.476,0-2.357-0.98-2.357-2.428c0-1.445,0.852-2.574,2.248-2.574
			c1.574,0,1.98,1.367,1.98,2.248c0,0.178-0.01,0.307-0.03,0.406H48.813z M51.368,24.115c0.01-0.543-0.228-1.406-1.208-1.406
			c-0.892,0-1.268,0.803-1.337,1.406H51.368z"/>
		<path d="M53.174,26.096c0.268,0.16,0.723,0.338,1.159,0.338c0.624,0,0.921-0.307,0.921-0.713c0-0.416-0.248-0.635-0.881-0.871
			c-0.872-0.318-1.277-0.783-1.277-1.357c0-0.771,0.634-1.406,1.654-1.406c0.485,0,0.911,0.129,1.168,0.297l-0.208,0.635
			c-0.188-0.119-0.535-0.287-0.98-0.287c-0.515,0-0.792,0.297-0.792,0.652c0,0.396,0.277,0.574,0.901,0.822
			c0.822,0.307,1.258,0.723,1.258,1.436c0,0.852-0.664,1.447-1.783,1.447c-0.524,0-1.01-0.139-1.347-0.338L53.174,26.096z"/>
		<path d="M57.702,24.74c0.02,1.178,0.763,1.664,1.644,1.664c0.624,0,1.01-0.109,1.327-0.248l0.158,0.623
			c-0.307,0.139-0.842,0.309-1.604,0.309c-1.476,0-2.357-0.98-2.357-2.428c0-1.445,0.852-2.574,2.248-2.574
			c1.574,0,1.98,1.367,1.98,2.248c0,0.178-0.01,0.307-0.03,0.406H57.702z M60.257,24.115c0.01-0.543-0.228-1.406-1.208-1.406
			c-0.892,0-1.268,0.803-1.337,1.406H60.257z"/>
		<path d="M64.283,23.75c0-0.615-0.02-1.109-0.04-1.564h0.772l0.05,0.822h0.02c0.347-0.586,0.921-0.922,1.704-0.922
			c1.168,0,2.04,0.98,2.04,2.426c0,1.723-1.06,2.576-2.189,2.576c-0.634,0-1.188-0.277-1.475-0.754h-0.02v2.605h-0.861V23.75z
			 M65.144,25.027c0,0.129,0.01,0.248,0.04,0.355c0.159,0.605,0.684,1.021,1.307,1.021c0.921,0,1.456-0.754,1.456-1.852
			c0-0.951-0.505-1.773-1.426-1.773c-0.594,0-1.159,0.416-1.317,1.07c-0.03,0.107-0.06,0.236-0.06,0.346V25.027z"/>
		<path d="M73.288,25.83c0,0.416,0.02,0.82,0.069,1.148h-0.782l-0.069-0.605h-0.03c-0.267,0.377-0.782,0.715-1.466,0.715
			c-0.97,0-1.465-0.684-1.465-1.377c0-1.158,1.03-1.793,2.882-1.783v-0.1c0-0.385-0.109-1.107-1.089-1.098
			c-0.456,0-0.921,0.127-1.258,0.355l-0.198-0.584c0.396-0.248,0.98-0.416,1.584-0.416c1.466,0,1.822,1,1.822,1.951V25.83z
			 M72.446,24.531c-0.951-0.02-2.03,0.148-2.03,1.08c0,0.574,0.376,0.832,0.812,0.832c0.634,0,1.04-0.396,1.178-0.803
			c0.03-0.098,0.04-0.197,0.04-0.277V24.531z"/>
		<path d="M74.698,23.68c0-0.564-0.01-1.049-0.04-1.494h0.763l0.04,0.949h0.03c0.218-0.643,0.752-1.049,1.337-1.049
			c0.089,0,0.159,0.01,0.238,0.02v0.822c-0.089-0.02-0.178-0.02-0.297-0.02c-0.614,0-1.049,0.455-1.168,1.109
			c-0.02,0.119-0.03,0.268-0.03,0.406v2.555h-0.871V23.68z"/>
		<path d="M81.255,25.83c0,0.416,0.02,0.82,0.069,1.148h-0.782l-0.069-0.605h-0.03c-0.268,0.377-0.782,0.715-1.466,0.715
			c-0.97,0-1.465-0.684-1.465-1.377c0-1.158,1.03-1.793,2.882-1.783v-0.1c0-0.385-0.109-1.107-1.089-1.098
			c-0.456,0-0.921,0.127-1.258,0.355l-0.198-0.584c0.396-0.248,0.98-0.416,1.584-0.416c1.466,0,1.822,1,1.822,1.951V25.83z
			 M80.414,24.531c-0.951-0.02-2.03,0.148-2.03,1.08c0,0.574,0.376,0.832,0.812,0.832c0.634,0,1.04-0.396,1.178-0.803
			c0.03-0.098,0.04-0.197,0.04-0.277V24.531z"/>
		<path d="M28.68,37.621c-0.228,0.107-0.733,0.277-1.377,0.277c-1.446,0-2.386-0.98-2.386-2.447c0-1.475,1.01-2.555,2.575-2.555
			c0.515,0,0.97,0.129,1.208,0.258l-0.198,0.664c-0.208-0.109-0.535-0.229-1.01-0.229c-1.099,0-1.693,0.822-1.693,1.812
			c0,1.109,0.713,1.793,1.664,1.793c0.495,0,0.822-0.119,1.069-0.229L28.68,37.621z"/>
		<path d="M33.981,35.352c0,1.773-1.238,2.547-2.387,2.547c-1.288,0-2.297-0.951-2.297-2.467c0-1.594,1.06-2.535,2.376-2.535
			C33.05,32.896,33.981,33.896,33.981,35.352z M30.188,35.402c0,1.049,0.594,1.842,1.446,1.842c0.832,0,1.456-0.783,1.456-1.861
			c0-0.812-0.406-1.832-1.436-1.832C30.634,33.551,30.188,34.5,30.188,35.402z"/>
		<path d="M35.084,34.293c0-0.506-0.02-0.9-0.04-1.297h0.763l0.04,0.781h0.03c0.268-0.455,0.713-0.881,1.515-0.881
			c0.644,0,1.139,0.396,1.347,0.961h0.02c0.148-0.277,0.347-0.477,0.544-0.625c0.288-0.217,0.594-0.336,1.05-0.336
			c0.644,0,1.584,0.416,1.584,2.08v2.812h-0.852v-2.703c0-0.932-0.347-1.477-1.04-1.477c-0.505,0-0.881,0.367-1.04,0.783
			c-0.04,0.129-0.069,0.277-0.069,0.436v2.961h-0.852v-2.873c0-0.762-0.337-1.307-1-1.307c-0.535,0-0.94,0.436-1.079,0.871
			c-0.05,0.119-0.069,0.277-0.069,0.426v2.883h-0.852V34.293z"/>
		<path d="M47.359,36.471c0,0.506,0.01,0.941,0.04,1.318h-0.772l-0.05-0.783h-0.02c-0.218,0.387-0.733,0.893-1.584,0.893
			c-0.753,0-1.654-0.428-1.654-2.1v-2.803h0.871v2.643c0,0.912,0.288,1.535,1.07,1.535c0.584,0,0.99-0.404,1.148-0.801
			c0.05-0.119,0.08-0.277,0.08-0.445v-2.932h0.871V36.471z"/>
		<path d="M48.809,34.293c0-0.506-0.01-0.9-0.04-1.297h0.772l0.05,0.791h0.02c0.238-0.445,0.792-0.891,1.584-0.891
			c0.664,0,1.693,0.396,1.693,2.039v2.854h-0.871v-2.764c0-0.771-0.288-1.416-1.109-1.416c-0.564,0-1.01,0.406-1.168,0.891
			c-0.04,0.109-0.06,0.258-0.06,0.406v2.883h-0.871V34.293z"/>
		<path d="M55.279,31.648c0,0.297-0.208,0.535-0.555,0.535c-0.317,0-0.525-0.238-0.525-0.535s0.218-0.545,0.545-0.545
			C55.061,31.104,55.279,31.342,55.279,31.648z M54.309,37.789v-4.793h0.871v4.793H54.309z"/>
		<path d="M60.044,37.621c-0.228,0.107-0.733,0.277-1.377,0.277c-1.446,0-2.386-0.98-2.386-2.447c0-1.475,1.01-2.555,2.575-2.555
			c0.515,0,0.97,0.129,1.208,0.258l-0.198,0.664c-0.208-0.109-0.535-0.229-1.01-0.229c-1.099,0-1.693,0.822-1.693,1.812
			c0,1.109,0.713,1.793,1.664,1.793c0.495,0,0.822-0.119,1.069-0.229L60.044,37.621z"/>
		<path d="M64.434,36.641c0,0.416,0.02,0.82,0.069,1.148h-0.782l-0.069-0.605h-0.03c-0.267,0.377-0.782,0.715-1.466,0.715
			c-0.97,0-1.465-0.684-1.465-1.377c0-1.158,1.03-1.793,2.882-1.783v-0.1c0-0.385-0.109-1.107-1.089-1.098
			c-0.456,0-0.921,0.127-1.258,0.355l-0.198-0.584c0.396-0.248,0.98-0.416,1.584-0.416c1.466,0,1.822,1,1.822,1.951V36.641z
			 M63.592,35.342c-0.951-0.02-2.03,0.148-2.03,1.08c0,0.574,0.376,0.832,0.812,0.832c0.634,0,1.04-0.396,1.178-0.803
			c0.03-0.098,0.04-0.197,0.04-0.277V35.342z"/>
		<path d="M65.843,34.49c0-0.564-0.01-1.049-0.04-1.494h0.763l0.04,0.949h0.03c0.218-0.643,0.752-1.049,1.337-1.049
			c0.089,0,0.159,0.01,0.238,0.02v0.822c-0.089-0.02-0.178-0.02-0.297-0.02c-0.614,0-1.049,0.455-1.168,1.109
			c-0.02,0.119-0.03,0.268-0.03,0.406v2.555h-0.871V34.49z"/>
		<path d="M28.767,45.301c0-0.564-0.01-1.049-0.04-1.494h0.763l0.04,0.949h0.03c0.218-0.643,0.752-1.049,1.337-1.049
			c0.089,0,0.158,0.01,0.238,0.02v0.822c-0.089-0.02-0.178-0.02-0.297-0.02c-0.614,0-1.05,0.455-1.168,1.109
			c-0.02,0.119-0.03,0.268-0.03,0.406V48.6h-0.871V45.301z"/>
		<path d="M32.393,46.361c0.02,1.178,0.763,1.664,1.644,1.664c0.624,0,1.01-0.109,1.327-0.248l0.158,0.623
			c-0.307,0.139-0.842,0.309-1.604,0.309c-1.476,0-2.357-0.98-2.357-2.428c0-1.445,0.852-2.574,2.248-2.574
			c1.574,0,1.98,1.367,1.98,2.248c0,0.178-0.01,0.307-0.03,0.406H32.393z M34.948,45.736c0.01-0.543-0.228-1.406-1.208-1.406
			c-0.892,0-1.268,0.803-1.337,1.406H34.948z"/>
		<path d="M36.753,47.717c0.268,0.16,0.723,0.338,1.159,0.338c0.624,0,0.921-0.307,0.921-0.713c0-0.416-0.248-0.635-0.881-0.871
			c-0.872-0.318-1.277-0.783-1.277-1.357c0-0.771,0.634-1.406,1.654-1.406c0.485,0,0.911,0.129,1.168,0.297l-0.208,0.635
			c-0.188-0.119-0.535-0.287-0.98-0.287c-0.515,0-0.792,0.297-0.792,0.652c0,0.396,0.277,0.574,0.901,0.822
			c0.822,0.307,1.258,0.723,1.258,1.436c0,0.852-0.664,1.447-1.782,1.447c-0.525,0-1.01-0.139-1.347-0.338L36.753,47.717z"/>
		<path d="M44.807,47.281c0,0.506,0.01,0.941,0.04,1.318h-0.772l-0.05-0.783h-0.02c-0.218,0.387-0.733,0.893-1.584,0.893
			c-0.753,0-1.654-0.428-1.654-2.1v-2.803h0.871v2.643c0,0.912,0.288,1.535,1.07,1.535c0.584,0,0.99-0.404,1.148-0.801
			c0.05-0.119,0.08-0.277,0.08-0.445v-2.932h0.871V47.281z"/>
		<path d="M46.257,41.568h0.871V48.6h-0.871V41.568z"/>
		<path d="M49.645,42.658v1.148h1.248v0.662h-1.248v2.586c0,0.594,0.168,0.93,0.654,0.93c0.238,0,0.376-0.02,0.505-0.059l0.04,0.664
			c-0.168,0.059-0.436,0.119-0.772,0.119c-0.406,0-0.732-0.139-0.94-0.367c-0.238-0.268-0.337-0.693-0.337-1.258v-2.615h-0.743
			v-0.662h0.743v-0.893L49.645,42.658z"/>
		<path d="M55.243,47.451c0,0.416,0.02,0.82,0.069,1.148H54.53l-0.069-0.605h-0.03c-0.268,0.377-0.782,0.715-1.466,0.715
			c-0.97,0-1.465-0.684-1.465-1.377c0-1.158,1.03-1.793,2.882-1.783v-0.1c0-0.385-0.109-1.107-1.089-1.098
			c-0.456,0-0.921,0.127-1.258,0.355l-0.198-0.584c0.396-0.248,0.98-0.416,1.584-0.416c1.466,0,1.822,1,1.822,1.951V47.451z
			 M54.401,46.152c-0.951-0.02-2.03,0.148-2.03,1.08c0,0.574,0.376,0.832,0.812,0.832c0.634,0,1.04-0.396,1.178-0.803
			c0.03-0.098,0.04-0.197,0.04-0.277V46.152z"/>
		<path d="M60.782,41.568v5.793c0,0.426,0.02,0.91,0.04,1.238h-0.772l-0.04-0.832h-0.03c-0.257,0.535-0.832,0.941-1.614,0.941
			c-1.159,0-2.06-0.98-2.06-2.438c-0.01-1.594,0.99-2.564,2.149-2.564c0.743,0,1.228,0.346,1.446,0.723h0.02v-2.861H60.782z
			 M59.92,45.758c0-0.109-0.01-0.258-0.04-0.367c-0.128-0.545-0.604-1-1.257-1c-0.901,0-1.436,0.791-1.436,1.842
			c0,0.971,0.485,1.773,1.416,1.773c0.584,0,1.119-0.396,1.277-1.041c0.03-0.119,0.04-0.238,0.04-0.377V45.758z"/>
		<path d="M66.579,46.162c0,1.773-1.238,2.547-2.387,2.547c-1.288,0-2.297-0.951-2.297-2.467c0-1.594,1.06-2.535,2.376-2.535
			C65.648,43.707,66.579,44.707,66.579,46.162z M62.786,46.213c0,1.049,0.594,1.842,1.446,1.842c0.832,0,1.456-0.783,1.456-1.861
			c0-0.812-0.406-1.832-1.436-1.832C63.232,44.361,62.786,45.311,62.786,46.213z"/>
	</g>
</g>
</svg>
