<?xml version="1.0" encoding="utf-8"?>
<!-- Generator: Adobe Illustrator 16.0.0, SVG Export Plug-In . SVG Version: 6.00 Build 0)  -->
<!DOCTYPE svg PUBLIC "-//W3C//DTD SVG 1.1//EN" "http://www.w3.org/Graphics/SVG/1.1/DTD/svg11.dtd">
<svg version="1.1" id="Capa_1" xmlns="http://www.w3.org/2000/svg" xmlns:xlink="http://www.w3.org/1999/xlink" x="0px" y="0px"
	 width="93.333px" height="72.354px" viewBox="0 0 93.333 72.354" enable-background="new 0 0 93.333 72.354" xml:space="preserve">
<g>
	<g opacity="0.5">
		<polygon fill="#FFFFFF" points="91.333,70.354 2,70.354 2,17.02 91.333,2.354 		"/>
		<g>
			<polyline fill="none" stroke="#DFA130" stroke-width="4" stroke-miterlimit="10" points="91.333,68.369 91.333,70.354 
				89.35,70.354 			"/>
			
				<line fill="none" stroke="#DFA130" stroke-width="4" stroke-miterlimit="10" stroke-dasharray="4.0652,4.0648" x1="85.285" y1="70.354" x2="6.017" y2="70.354"/>
			<polyline fill="none" stroke="#DFA130" stroke-width="4" stroke-miterlimit="10" points="3.984,70.354 2,70.354 2,68.369 			"/>
			
				<line fill="none" stroke="#DFA130" stroke-width="4" stroke-miterlimit="10" stroke-dasharray="3.7975,3.7971" x1="2" y1="64.572" x2="2" y2="20.902"/>
			<polyline fill="none" stroke="#DFA130" stroke-width="4" stroke-miterlimit="10" points="2,19.004 2,17.02 3.958,16.699 			"/>
			
				<line fill="none" stroke="#DFA130" stroke-width="4" stroke-miterlimit="10" stroke-dasharray="4.1222,4.1218" x1="8.025" y1="16.031" x2="87.342" y2="3.008"/>
			<polyline fill="none" stroke="#DFA130" stroke-width="4" stroke-miterlimit="10" points="89.375,2.674 91.333,2.354 
				91.333,4.338 			"/>
			
				<line fill="none" stroke="#DFA130" stroke-width="4" stroke-miterlimit="10" stroke-dasharray="3.7668,3.7664" x1="91.333" y1="8.104" x2="91.333" y2="66.486"/>
		</g>
	</g>
	<g>
		<path d="M32.055,18.899v7.292h-0.952v-7.292H32.055z"/>
		<path d="M33.774,22.372c0-0.552-0.011-0.984-0.043-1.417h0.844l0.054,0.865h0.021c0.26-0.486,0.866-0.974,1.731-0.974
			c0.725,0,1.85,0.434,1.85,2.229v3.115H37.28v-3.019c0-0.844-0.314-1.547-1.211-1.547c-0.617,0-1.104,0.443-1.277,0.974
			c-0.043,0.119-0.065,0.281-0.065,0.443v3.148h-0.952V22.372z"/>
		<path d="M44.256,25.423c0,1.212-0.249,1.937-0.747,2.402c-0.519,0.465-1.255,0.627-1.915,0.627c-0.627,0-1.32-0.151-1.742-0.433
			l0.238-0.735c0.346,0.228,0.887,0.422,1.536,0.422c0.974,0,1.688-0.509,1.688-1.839v-0.573h-0.022
			c-0.281,0.486-0.854,0.876-1.666,0.876c-1.298,0-2.229-1.104-2.229-2.554c0-1.773,1.158-2.77,2.369-2.77
			c0.909,0,1.396,0.466,1.634,0.898h0.021l0.033-0.79H44.3c-0.033,0.368-0.043,0.801-0.043,1.428V25.423z M43.304,23.021
			c0-0.162-0.011-0.303-0.054-0.422c-0.173-0.562-0.627-1.017-1.331-1.017c-0.909,0-1.558,0.768-1.558,1.979
			c0,1.027,0.53,1.883,1.547,1.883c0.595,0,1.125-0.368,1.32-0.974c0.054-0.163,0.076-0.347,0.076-0.509V23.021z"/>
		<path d="M45.759,22.589c0-0.616-0.011-1.146-0.043-1.634h0.833l0.043,1.039h0.033c0.238-0.703,0.822-1.147,1.46-1.147
			c0.097,0,0.173,0.011,0.26,0.022v0.897c-0.098-0.021-0.195-0.021-0.325-0.021c-0.671,0-1.147,0.497-1.276,1.212
			c-0.022,0.13-0.033,0.292-0.033,0.443v2.791h-0.952V22.589z"/>
		<path d="M49.718,23.746c0.021,1.288,0.833,1.817,1.796,1.817c0.682,0,1.104-0.118,1.45-0.27l0.173,0.681
			c-0.335,0.152-0.919,0.336-1.752,0.336c-1.612,0-2.575-1.071-2.575-2.65c0-1.58,0.93-2.813,2.456-2.813
			c1.72,0,2.164,1.493,2.164,2.456c0,0.195-0.011,0.336-0.033,0.443H49.718z M52.509,23.064c0.011-0.595-0.249-1.536-1.32-1.536
			c-0.974,0-1.385,0.877-1.46,1.536H52.509z"/>
		<path d="M54.478,25.229c0.292,0.173,0.79,0.368,1.266,0.368c0.682,0,1.006-0.336,1.006-0.779c0-0.454-0.271-0.692-0.963-0.952
			c-0.952-0.346-1.396-0.854-1.396-1.482c0-0.844,0.692-1.536,1.807-1.536c0.53,0,0.996,0.141,1.277,0.325l-0.227,0.692
			c-0.206-0.13-0.584-0.314-1.071-0.314c-0.562,0-0.865,0.325-0.865,0.715c0,0.433,0.303,0.627,0.984,0.897
			c0.898,0.336,1.374,0.79,1.374,1.568c0,0.931-0.725,1.58-1.947,1.58c-0.574,0-1.104-0.151-1.472-0.368L54.478,25.229z"/>
		<path d="M62.569,24.937c0,0.454,0.021,0.897,0.076,1.255H61.79l-0.076-0.66h-0.032c-0.292,0.411-0.855,0.779-1.601,0.779
			c-1.061,0-1.602-0.747-1.602-1.504c0-1.266,1.125-1.958,3.148-1.947v-0.108c0-0.422-0.119-1.212-1.19-1.201
			c-0.498,0-1.006,0.142-1.374,0.39l-0.216-0.638c0.433-0.271,1.071-0.455,1.731-0.455c1.601,0,1.991,1.093,1.991,2.132V24.937z
			 M61.649,23.52c-1.039-0.021-2.218,0.162-2.218,1.179c0,0.628,0.411,0.909,0.887,0.909c0.692,0,1.136-0.433,1.288-0.877
			c0.032-0.107,0.043-0.216,0.043-0.303V23.52z"/>
		<path d="M7.583,31.284c0,0.324-0.228,0.584-0.606,0.584c-0.346,0-0.573-0.26-0.573-0.584c0-0.325,0.238-0.596,0.595-0.596
			C7.345,30.688,7.583,30.948,7.583,31.284z M6.522,37.991v-5.236h0.952v5.236H6.522z"/>
		<path d="M9.053,34.172c0-0.552-0.011-0.984-0.043-1.417h0.844l0.054,0.865H9.93c0.26-0.486,0.866-0.974,1.731-0.974
			c0.725,0,1.85,0.434,1.85,2.229v3.116h-0.952v-3.019c0-0.844-0.313-1.547-1.211-1.547c-0.617,0-1.104,0.443-1.277,0.974
			c-0.043,0.119-0.065,0.281-0.065,0.443v3.148H9.053V34.172z"/>
		<path d="M15.154,37.991v-4.512h-0.725v-0.725h0.725v-0.249c0-0.735,0.173-1.406,0.606-1.828c0.357-0.346,0.833-0.486,1.276-0.486
			c0.346,0,0.627,0.075,0.812,0.151l-0.13,0.735c-0.141-0.064-0.325-0.119-0.606-0.119c-0.812,0-1.017,0.703-1.017,1.515v0.281
			h1.266v0.725h-1.266v4.512H15.154z"/>
		<path d="M22.813,35.33c0,1.937-1.353,2.78-2.607,2.78c-1.406,0-2.51-1.039-2.51-2.694c0-1.741,1.158-2.77,2.596-2.77
			C21.796,32.646,22.813,33.739,22.813,35.33z M18.669,35.384c0,1.146,0.649,2.013,1.58,2.013c0.909,0,1.59-0.854,1.59-2.034
			c0-0.887-0.444-2.001-1.569-2.001C19.156,33.361,18.669,34.399,18.669,35.384z"/>
		<path d="M24.013,34.389c0-0.616-0.011-1.146-0.043-1.634h0.833l0.043,1.039h0.033c0.238-0.703,0.822-1.147,1.46-1.147
			c0.097,0,0.173,0.011,0.26,0.022v0.897c-0.098-0.021-0.195-0.021-0.325-0.021c-0.671,0-1.147,0.497-1.276,1.212
			c-0.022,0.13-0.033,0.292-0.033,0.443v2.791h-0.952V34.389z"/>
		<path d="M27.593,34.172c0-0.552-0.021-0.984-0.043-1.417h0.833l0.043,0.854h0.033c0.292-0.497,0.779-0.963,1.655-0.963
			c0.703,0,1.244,0.434,1.471,1.05h0.021c0.163-0.303,0.379-0.52,0.595-0.682c0.314-0.238,0.649-0.368,1.147-0.368
			c0.703,0,1.731,0.455,1.731,2.272v3.072h-0.931v-2.953c0-1.018-0.378-1.612-1.136-1.612c-0.552,0-0.963,0.4-1.136,0.854
			c-0.043,0.141-0.076,0.303-0.076,0.477v3.234h-0.93v-3.138c0-0.833-0.368-1.428-1.093-1.428c-0.584,0-1.028,0.476-1.179,0.952
			c-0.054,0.13-0.076,0.303-0.076,0.465v3.148h-0.931V34.172z"/>
		<path d="M40.292,36.736c0,0.454,0.021,0.897,0.076,1.255h-0.855l-0.076-0.66h-0.032c-0.292,0.411-0.855,0.779-1.601,0.779
			c-1.061,0-1.602-0.747-1.602-1.504c0-1.266,1.125-1.958,3.148-1.947v-0.108c0-0.422-0.119-1.212-1.19-1.201
			c-0.498,0-1.006,0.141-1.374,0.39l-0.216-0.638c0.433-0.271,1.071-0.455,1.731-0.455c1.601,0,1.991,1.093,1.991,2.132V36.736z
			 M39.373,35.319c-1.039-0.021-2.218,0.162-2.218,1.179c0,0.628,0.411,0.909,0.887,0.909c0.692,0,1.136-0.433,1.288-0.877
			c0.032-0.107,0.043-0.216,0.043-0.303V35.319z"/>
		<path d="M45.56,37.808c-0.249,0.119-0.8,0.303-1.503,0.303c-1.58,0-2.607-1.071-2.607-2.672c0-1.612,1.104-2.792,2.813-2.792
			c0.562,0,1.06,0.141,1.32,0.281l-0.216,0.726c-0.228-0.119-0.584-0.249-1.104-0.249c-1.201,0-1.85,0.897-1.85,1.979
			c0,1.212,0.779,1.958,1.817,1.958c0.541,0,0.898-0.13,1.168-0.248L45.56,37.808z"/>
		<path d="M47.734,31.284c0,0.324-0.228,0.584-0.606,0.584c-0.346,0-0.573-0.26-0.573-0.584c0-0.325,0.238-0.596,0.595-0.596
			C47.496,30.688,47.734,30.948,47.734,31.284z M46.673,37.991v-5.236h0.952v5.236H46.673z"/>
		<path d="M53.943,35.33c0,1.937-1.353,2.78-2.607,2.78c-1.406,0-2.51-1.039-2.51-2.694c0-1.741,1.158-2.77,2.596-2.77
			C52.926,32.646,53.943,33.739,53.943,35.33z M49.799,35.384c0,1.146,0.649,2.013,1.58,2.013c0.909,0,1.59-0.854,1.59-2.034
			c0-0.887-0.444-2.001-1.569-2.001C50.286,33.361,49.799,34.399,49.799,35.384z M52.807,30.494l-1.32,1.547h-0.67l0.941-1.547
			H52.807z"/>
		<path d="M55.143,34.172c0-0.552-0.011-0.984-0.043-1.417h0.844l0.054,0.865h0.021c0.26-0.486,0.866-0.974,1.731-0.974
			c0.725,0,1.85,0.434,1.85,2.229v3.116h-0.952v-3.019c0-0.844-0.314-1.547-1.211-1.547c-0.617,0-1.104,0.443-1.277,0.974
			c-0.043,0.119-0.065,0.281-0.065,0.443v3.148h-0.952V34.172z"/>
		<path d="M63.309,37.028c0.292,0.173,0.79,0.368,1.266,0.368c0.682,0,1.006-0.336,1.006-0.779c0-0.454-0.271-0.692-0.963-0.952
			c-0.952-0.346-1.396-0.854-1.396-1.481c0-0.845,0.692-1.537,1.807-1.537c0.53,0,0.996,0.141,1.277,0.325l-0.227,0.692
			c-0.206-0.13-0.584-0.314-1.071-0.314c-0.562,0-0.865,0.325-0.865,0.715c0,0.433,0.303,0.627,0.984,0.897
			c0.898,0.336,1.374,0.79,1.374,1.568c0,0.931-0.725,1.58-1.948,1.58c-0.573,0-1.103-0.151-1.471-0.368L63.309,37.028z"/>
		<path d="M72.46,35.33c0,1.937-1.353,2.78-2.607,2.78c-1.406,0-2.51-1.039-2.51-2.694c0-1.741,1.158-2.77,2.596-2.77
			C71.443,32.646,72.46,33.739,72.46,35.33z M68.317,35.384c0,1.146,0.649,2.013,1.58,2.013c0.909,0,1.59-0.854,1.59-2.034
			c0-0.887-0.444-2.001-1.569-2.001C68.804,33.361,68.317,34.399,68.317,35.384z"/>
		<path d="M73.66,30.311h0.941v3.288h0.021c0.335-0.584,0.941-0.952,1.785-0.952c1.309,0,2.218,1.082,2.218,2.662
			c0,1.871-1.19,2.802-2.358,2.802c-0.757,0-1.363-0.292-1.763-0.974h-0.022l-0.054,0.854h-0.812
			c0.021-0.357,0.043-0.887,0.043-1.353V30.311z M74.602,35.893c0,0.119,0.011,0.238,0.043,0.346
			c0.173,0.66,0.735,1.114,1.428,1.114c1.006,0,1.59-0.811,1.59-2.012c0-1.05-0.541-1.947-1.568-1.947
			c-0.639,0-1.244,0.454-1.439,1.168c-0.033,0.119-0.054,0.249-0.054,0.4V35.893z"/>
		<path d="M79.814,34.389c0-0.616-0.011-1.146-0.043-1.634h0.833l0.043,1.039h0.033c0.238-0.703,0.822-1.147,1.46-1.147
			c0.097,0,0.173,0.011,0.26,0.022v0.897c-0.098-0.021-0.195-0.021-0.325-0.021c-0.671,0-1.147,0.497-1.276,1.212
			c-0.022,0.13-0.033,0.292-0.033,0.443v2.791h-0.952V34.389z"/>
		<path d="M83.773,35.546c0.021,1.288,0.833,1.817,1.796,1.817c0.682,0,1.104-0.118,1.45-0.27l0.173,0.681
			c-0.335,0.152-0.919,0.336-1.752,0.336c-1.612,0-2.575-1.071-2.575-2.65c0-1.58,0.93-2.813,2.456-2.813
			c1.72,0,2.164,1.493,2.164,2.456c0,0.195-0.011,0.336-0.033,0.443H83.773z M86.564,34.864c0.011-0.595-0.249-1.536-1.32-1.536
			c-0.974,0-1.385,0.877-1.46,1.536H86.564z"/>
		<path d="M16.674,42.11h0.952v7.681h-0.952V42.11z"/>
		<path d="M20.287,43.084c0,0.324-0.228,0.584-0.606,0.584c-0.346,0-0.573-0.26-0.573-0.584c0-0.325,0.238-0.596,0.595-0.596
			C20.049,42.488,20.287,42.748,20.287,43.084z M19.227,49.791v-5.236h0.952v5.236H19.227z"/>
		<path d="M21.757,45.972c0-0.552-0.021-0.984-0.043-1.417h0.833l0.043,0.854h0.033c0.292-0.497,0.779-0.963,1.655-0.963
			c0.703,0,1.244,0.434,1.471,1.05h0.021c0.163-0.303,0.379-0.52,0.595-0.682c0.313-0.238,0.649-0.368,1.147-0.368
			c0.703,0,1.731,0.455,1.731,2.272v3.072h-0.931v-2.953c0-1.018-0.378-1.612-1.136-1.612c-0.552,0-0.963,0.4-1.136,0.854
			c-0.043,0.141-0.076,0.303-0.076,0.477v3.234h-0.93v-3.138c0-0.833-0.368-1.428-1.093-1.428c-0.584,0-1.028,0.476-1.179,0.952
			c-0.054,0.13-0.076,0.303-0.076,0.465v3.148h-0.931V45.972z"/>
		<path d="M31.839,43.084c0,0.324-0.228,0.584-0.606,0.584c-0.346,0-0.573-0.26-0.573-0.584c0-0.325,0.238-0.596,0.595-0.596
			C31.601,42.488,31.839,42.748,31.839,43.084z M30.778,49.791v-5.236h0.952v5.236H30.778z"/>
		<path d="M34.457,43.3v1.255h1.363v0.725h-1.363v2.824c0,0.648,0.184,1.017,0.714,1.017c0.26,0,0.411-0.021,0.552-0.064
			l0.043,0.725c-0.184,0.064-0.476,0.13-0.844,0.13c-0.444,0-0.801-0.151-1.028-0.4c-0.26-0.292-0.368-0.758-0.368-1.374v-2.856
			h-0.812v-0.725h0.812v-0.974L34.457,43.3z"/>
		<path d="M40.568,48.536c0,0.454,0.021,0.897,0.076,1.255h-0.855l-0.076-0.66h-0.032c-0.292,0.411-0.855,0.779-1.601,0.779
			c-1.061,0-1.602-0.747-1.602-1.504c0-1.266,1.125-1.958,3.148-1.947v-0.108c0-0.422-0.119-1.212-1.19-1.201
			c-0.498,0-1.006,0.142-1.374,0.39l-0.216-0.638c0.433-0.271,1.071-0.455,1.731-0.455c1.601,0,1.991,1.093,1.991,2.132V48.536z
			 M39.648,47.119c-1.039-0.021-2.218,0.162-2.218,1.179c0,0.628,0.411,0.909,0.887,0.909c0.692,0,1.136-0.433,1.288-0.877
			c0.032-0.107,0.043-0.216,0.043-0.303V47.119z"/>
		<path d="M45.835,49.607c-0.249,0.119-0.8,0.303-1.503,0.303c-1.58,0-2.607-1.071-2.607-2.672c0-1.612,1.104-2.792,2.813-2.792
			c0.562,0,1.06,0.141,1.32,0.281l-0.217,0.726c-0.227-0.119-0.584-0.249-1.103-0.249c-1.201,0-1.85,0.897-1.85,1.979
			c0,1.212,0.779,1.958,1.817,1.958c0.541,0,0.898-0.13,1.168-0.248L45.835,49.607z"/>
		<path d="M48.009,43.084c0,0.324-0.228,0.584-0.606,0.584c-0.346,0-0.573-0.26-0.573-0.584c0-0.325,0.238-0.596,0.595-0.596
			C47.771,42.488,48.009,42.748,48.009,43.084z M46.949,49.791v-5.236h0.952v5.236H46.949z"/>
		<path d="M54.219,47.13c0,1.937-1.353,2.78-2.607,2.78c-1.406,0-2.51-1.039-2.51-2.694c0-1.741,1.158-2.77,2.596-2.77
			C53.202,44.446,54.219,45.539,54.219,47.13z M50.075,47.184c0,1.146,0.649,2.013,1.58,2.013c0.909,0,1.59-0.854,1.59-2.034
			c0-0.887-0.444-2.001-1.569-2.001C50.562,45.161,50.075,46.199,50.075,47.184z"/>
		<path d="M55.418,45.972c0-0.552-0.011-0.984-0.043-1.417h0.844l0.054,0.865h0.021c0.26-0.486,0.866-0.974,1.731-0.974
			c0.725,0,1.85,0.434,1.85,2.229v3.115h-0.952v-3.019c0-0.844-0.314-1.547-1.211-1.547c-0.617,0-1.104,0.443-1.277,0.974
			c-0.043,0.119-0.065,0.281-0.065,0.443v3.148h-0.952V45.972z"/>
		<path d="M61.952,47.346c0.021,1.288,0.833,1.817,1.796,1.817c0.682,0,1.104-0.118,1.45-0.27l0.173,0.681
			c-0.335,0.152-0.919,0.336-1.752,0.336c-1.612,0-2.575-1.071-2.575-2.65c0-1.58,0.93-2.813,2.456-2.813
			c1.72,0,2.164,1.493,2.164,2.456c0,0.195-0.011,0.336-0.033,0.443H61.952z M64.743,46.664c0.011-0.595-0.249-1.536-1.32-1.536
			c-0.974,0-1.385,0.877-1.46,1.536H64.743z"/>
		<path d="M66.711,48.828c0.292,0.173,0.79,0.368,1.266,0.368c0.682,0,1.006-0.336,1.006-0.779c0-0.454-0.271-0.692-0.963-0.952
			c-0.952-0.346-1.396-0.854-1.396-1.482c0-0.844,0.692-1.536,1.807-1.536c0.53,0,0.996,0.141,1.277,0.325l-0.227,0.692
			c-0.206-0.13-0.584-0.314-1.071-0.314c-0.562,0-0.865,0.325-0.865,0.715c0,0.433,0.303,0.627,0.984,0.897
			c0.898,0.336,1.374,0.79,1.374,1.568c0,0.931-0.725,1.58-1.947,1.58c-0.574,0-1.104-0.151-1.472-0.368L66.711,48.828z"/>
		<path d="M73.763,44.555l1.136,3.095c0.13,0.346,0.26,0.757,0.346,1.07h0.021c0.098-0.313,0.206-0.714,0.335-1.093l1.039-3.072
			h1.006l-1.428,3.732c-0.682,1.796-1.147,2.705-1.796,3.278c-0.476,0.4-0.931,0.562-1.168,0.605l-0.238-0.79
			c0.238-0.075,0.552-0.227,0.833-0.465c0.259-0.205,0.573-0.573,0.8-1.061c0.043-0.097,0.076-0.173,0.076-0.227
			c0-0.055-0.021-0.13-0.076-0.249l-1.926-4.825H73.763z"/>
		<path d="M19.28,57.988c0-0.616-0.011-1.146-0.043-1.634h0.833l0.043,1.039h0.033c0.238-0.703,0.822-1.147,1.46-1.147
			c0.097,0,0.173,0.011,0.26,0.022v0.897c-0.098-0.021-0.195-0.021-0.325-0.021c-0.671,0-1.147,0.497-1.276,1.212
			c-0.022,0.13-0.033,0.292-0.033,0.443v2.791H19.28V57.988z"/>
		<path d="M23.239,59.146c0.021,1.288,0.833,1.817,1.796,1.817c0.682,0,1.104-0.118,1.45-0.27l0.173,0.681
			c-0.335,0.152-0.919,0.336-1.752,0.336c-1.612,0-2.575-1.071-2.575-2.65c0-1.58,0.93-2.813,2.456-2.813
			c1.72,0,2.164,1.493,2.164,2.456c0,0.195-0.011,0.336-0.033,0.443H23.239z M26.03,58.464c0.011-0.595-0.249-1.536-1.32-1.536
			c-0.974,0-1.385,0.877-1.46,1.536H26.03z"/>
		<path d="M27.999,60.628c0.292,0.173,0.79,0.368,1.266,0.368c0.682,0,1.006-0.336,1.006-0.779c0-0.454-0.271-0.692-0.963-0.952
			c-0.952-0.346-1.396-0.854-1.396-1.481c0-0.845,0.692-1.537,1.807-1.537c0.53,0,0.996,0.141,1.277,0.325l-0.227,0.692
			c-0.206-0.13-0.584-0.314-1.071-0.314c-0.562,0-0.865,0.325-0.865,0.715c0,0.433,0.303,0.627,0.984,0.897
			c0.898,0.336,1.374,0.79,1.374,1.568c0,0.931-0.725,1.58-1.948,1.58c-0.573,0-1.103-0.151-1.471-0.368L27.999,60.628z"/>
		<path d="M33.559,55.1v1.255h1.363v0.725h-1.363v2.824c0,0.649,0.184,1.017,0.714,1.017c0.26,0,0.411-0.021,0.552-0.064
			l0.043,0.725c-0.184,0.064-0.476,0.13-0.844,0.13c-0.444,0-0.801-0.151-1.028-0.4c-0.26-0.292-0.368-0.757-0.368-1.374v-2.856
			h-0.812v-0.725h0.812v-0.974L33.559,55.1z"/>
		<path d="M35.992,57.988c0-0.616-0.011-1.146-0.043-1.634h0.833l0.043,1.039h0.033c0.238-0.703,0.822-1.147,1.46-1.147
			c0.097,0,0.173,0.011,0.26,0.022v0.897c-0.098-0.021-0.195-0.021-0.325-0.021c-0.671,0-1.146,0.497-1.276,1.212
			c-0.022,0.13-0.033,0.292-0.033,0.443v2.791h-0.952V57.988z"/>
		<path d="M40.632,54.884c0,0.324-0.228,0.584-0.606,0.584c-0.346,0-0.573-0.26-0.573-0.584c0-0.325,0.238-0.596,0.595-0.596
			C40.394,54.288,40.632,54.548,40.632,54.884z M39.572,61.591v-5.236h0.952v5.236H39.572z"/>
		<path d="M45.835,61.407c-0.249,0.119-0.8,0.303-1.503,0.303c-1.58,0-2.607-1.071-2.607-2.672c0-1.612,1.104-2.792,2.813-2.792
			c0.562,0,1.06,0.141,1.32,0.281l-0.217,0.726c-0.227-0.119-0.584-0.249-1.103-0.249c-1.201,0-1.85,0.897-1.85,1.979
			c0,1.212,0.779,1.958,1.817,1.958c0.541,0,0.898-0.13,1.168-0.248L45.835,61.407z"/>
		<path d="M50.616,61.407c-0.249,0.119-0.8,0.303-1.503,0.303c-1.58,0-2.607-1.071-2.607-2.672c0-1.612,1.104-2.792,2.813-2.792
			c0.562,0,1.06,0.141,1.32,0.281l-0.216,0.726c-0.228-0.119-0.584-0.249-1.104-0.249c-1.201,0-1.85,0.897-1.85,1.979
			c0,1.212,0.779,1.958,1.817,1.958c0.541,0,0.898-0.13,1.168-0.248L50.616,61.407z"/>
		<path d="M52.79,54.884c0,0.324-0.228,0.584-0.606,0.584c-0.346,0-0.573-0.26-0.573-0.584c0-0.325,0.238-0.596,0.595-0.596
			C52.552,54.288,52.79,54.548,52.79,54.884z M51.729,61.591v-5.236h0.952v5.236H51.729z"/>
		<path d="M58.999,58.93c0,1.937-1.353,2.78-2.607,2.78c-1.406,0-2.51-1.039-2.51-2.694c0-1.741,1.158-2.77,2.596-2.77
			C57.982,56.246,58.999,57.339,58.999,58.93z M54.855,58.983c0,1.146,0.649,2.013,1.58,2.013c0.909,0,1.59-0.854,1.59-2.034
			c0-0.887-0.444-2.001-1.569-2.001C55.342,56.961,54.855,57.999,54.855,58.983z"/>
		<path d="M60.199,57.771c0-0.552-0.011-0.984-0.043-1.417H61l0.054,0.865h0.021c0.26-0.486,0.866-0.974,1.731-0.974
			c0.725,0,1.85,0.434,1.85,2.229v3.116h-0.952v-3.019c0-0.844-0.313-1.547-1.211-1.547c-0.617,0-1.104,0.443-1.277,0.974
			c-0.043,0.119-0.065,0.281-0.065,0.443v3.148h-0.952V57.771z"/>
		<path d="M66.732,59.146c0.021,1.288,0.833,1.817,1.796,1.817c0.682,0,1.104-0.118,1.45-0.27l0.173,0.681
			c-0.335,0.152-0.919,0.336-1.752,0.336c-1.612,0-2.575-1.071-2.575-2.65c0-1.58,0.93-2.813,2.456-2.813
			c1.72,0,2.164,1.493,2.164,2.456c0,0.195-0.011,0.336-0.033,0.443H66.732z M69.523,58.464c0.011-0.595-0.249-1.536-1.32-1.536
			c-0.974,0-1.385,0.877-1.46,1.536H69.523z"/>
		<path d="M71.491,60.628c0.292,0.173,0.79,0.368,1.266,0.368c0.682,0,1.006-0.336,1.006-0.779c0-0.454-0.271-0.692-0.963-0.952
			c-0.952-0.346-1.396-0.854-1.396-1.481c0-0.845,0.692-1.537,1.807-1.537c0.53,0,0.996,0.141,1.277,0.325l-0.227,0.692
			c-0.206-0.13-0.584-0.314-1.071-0.314c-0.562,0-0.865,0.325-0.865,0.715c0,0.433,0.303,0.627,0.984,0.897
			c0.898,0.336,1.374,0.79,1.374,1.568c0,0.931-0.725,1.58-1.947,1.58c-0.574,0-1.104-0.151-1.472-0.368L71.491,60.628z"/>
	</g>
</g>
</svg>
