<?xml version="1.0" encoding="utf-8"?>
<!-- Generator: Adobe Illustrator 16.0.0, SVG Export Plug-In . SVG Version: 6.00 Build 0)  -->
<!DOCTYPE svg PUBLIC "-//W3C//DTD SVG 1.1//EN" "http://www.w3.org/Graphics/SVG/1.1/DTD/svg11.dtd">
<svg version="1.1" id="Capa_1" xmlns="http://www.w3.org/2000/svg" xmlns:xlink="http://www.w3.org/1999/xlink" x="0px" y="0px"
	 width="348.055px" height="405.992px" viewBox="0 0 348.055 405.992" enable-background="new 0 0 348.055 405.992"
	 xml:space="preserve">
<g>
	<g opacity="0.9069">
		<ellipse fill="#A7A7A7" cx="64.476" cy="391.188" rx="64.476" ry="14.805"/>
	</g>
	<g>
		<path fill-rule="evenodd" clip-rule="evenodd" fill="#CA612B" d="M100.478,283.17c-3.294-2.252-6.389-5.246-4.1-10.17
			c9.117-19.629,5.841-37.588-5.525-55.641C63.172,173.367,60.171,114.158,95.217,64.65C142.03-1.479,230.961-14.256,294.983,35.525
			c54.82,42.625,72.434,123.986,27.661,188.271c-27.252,39.131-65.944,58.398-113.655,59.506
			c-18.087,0.42-32.191,8.449-42.431,23.201c-4.689,6.764-6.212,7.854-13.908,4.783c-9.371-3.738-18.43-8.246-27.735-12.475
			C116.778,293.648,108.472,288.643,100.478,283.17z M307.026,200.092c29.858-54.777,9.521-123.879-45.172-153.518
			C207.33,17.043,138.35,37.508,108.853,91.967c-29.683,54.812-9.488,123.182,45.163,152.889
			C208.833,274.645,277.315,254.621,307.026,200.092z"/>
		<path fill-rule="evenodd" clip-rule="evenodd" fill="#CA612B" d="M106.911,332.303c7.994,4.334,15.979,8.668,23.972,12.996
			c4.065,2.195,8.366,3.412,11-1.576c2.446-4.633-0.702-7.609-4.548-9.691c-16.135-8.807-32.298-17.572-48.473-26.297
			c-3.855-2.088-8.052-3.096-10.608,1.484c-2.743,4.93,0.629,7.871,4.684,10.072C90.927,323.635,98.916,327.969,106.911,332.303z"/>
		<path fill-rule="evenodd" clip-rule="evenodd" fill="#CA612B" d="M121.249,305.295c-8.159-4.422-16.32-8.834-24.471-13.285
			c-3.689-2.016-7.525-3.084-9.956,1.365c-2.489,4.568,0.224,7.557,4.217,9.713c16.32,8.838,32.64,17.688,48.94,26.555
			c3.973,2.152,8,2.904,10.474-1.684c2.606-4.832-0.908-7.34-4.724-9.404C137.555,314.158,129.41,309.715,121.249,305.295z"/>
		<path fill-rule="evenodd" clip-rule="evenodd" fill="#CA612B" d="M98.556,348.17c2.665,1.447,5.221,3.771,8.014,4.084
			c2.704,0.297,7.017-0.674,8.09-2.543c1.036-1.814-0.234-6.705-2.088-8.086c-4.988-3.682-10.629-6.746-16.437-8.932
			c-2.197-0.83-6.959,0.639-7.984,2.488c-1.025,1.863,0.371,6.145,2.099,8.17c1.962,2.289,5.476,3.26,8.315,4.793
			C98.564,348.145,98.556,348.16,98.556,348.17z"/>
		<circle fill-rule="evenodd" clip-rule="evenodd" fill="#CA612B" cx="208.782" cy="143.523" r="126.453"/>
	</g>
	<g>
		<path fill="#E0AC7F" d="M104.932,214.4c1.22,4.449,2.704,6.979,0.786,8.549c-1.919,1.568-1.519,8.285-1.346,11.598
			c0.176,3.316,10.33,0.701,10.33,0.701s0-9.336-1.658-21.285C110.862,213.963,104.932,214.4,104.932,214.4z"/>
		<path fill="#E0AC7F" d="M114.315,226.117c-0.059,5.35,1.221,12.732,0.059,14.711c-1.164,1.977-6.628,10.756-7.559,10.525
			c-0.932-0.232-0.35-2.328-0.35-2.328c-1.862,1.979-4.186,3.141-3.604-2.209c1.511-3.721,2.559-5.232,2.559-6.162
			c-2.909,4.303-3.14,6.512-4.304,6.395c-1.164-0.115,1.047-5.582,2.56-7.906c1.511-2.328-0.001-10.352,0.813-12.91
			C105.303,223.676,114.315,226.117,114.315,226.117z"/>
		<g>
			<g>
				<path fill="#C0885C" d="M111.125,230.885c-0.11-0.072-0.882,0.943-1.471,2.896c-0.329,0.951-0.567,2.152-1.057,3.314
					c-0.25,0.586-0.555,1.195-0.951,1.746c-0.189,0.279-0.417,0.539-0.643,0.74c-0.057,0.053-0.112,0.094-0.166,0.125
					c-0.038,0.027-0.025,0.016-0.032,0.018c-0.006,0-0.01-0.002-0.011-0.008c0.028,0.139-0.091-0.355-0.078-0.768
					c-0.002-0.422,0.022-0.867,0.069-1.32c0.094-0.922,0.256-1.83,0.436-2.699c0.092-0.432,0.19-0.857,0.296-1.27
					c0.103-0.418,0.223-0.793,0.323-1.262c0.359-1.814-0.014-3.352-0.105-4.561c-0.137-1.221-0.011-2.156,0.249-2.77
					c0.252-0.613,0.509-0.924,0.425-0.998c-0.041-0.047-0.426,0.141-0.862,0.766c-0.446,0.613-0.746,1.748-0.711,3.045
					c-0.008,1.291,0.226,2.785-0.139,4.256c-0.471,1.529-0.979,3.406-1.176,5.363c-0.052,0.488-0.078,0.977-0.07,1.475
					c0.004,0.25,0.027,0.508,0.067,0.775c0.027,0.221,0.19,0.725,0.48,1.023c0.298,0.221,0.678,0.301,1.04,0.189
					c0.17-0.072,0.369-0.137,0.483-0.234c0.111-0.074,0.21-0.152,0.291-0.23c0.343-0.32,0.6-0.648,0.817-0.988
					c0.443-0.67,0.744-1.357,0.987-2.02c0.476-1.355,0.603-2.539,0.824-3.502C110.796,232.051,111.282,230.973,111.125,230.885z"/>
			</g>
		</g>
		<path fill="#E0AC7F" d="M36.63,274.85c-0.606,19.4-0.017,95.5-1.532,102.471c-1.517,6.975-11.824,20.312-9.702,23.346
			c2.123,3.033,15.765-10.914,18.494-19.102c2.728-8.186,11.519-99.742,11.519-99.742L36.63,274.85z"/>
		<path fill="#040026" d="M44.8,377.625c-11.521,18.645-19.176,22.057-15.84,12.355c0,0-7.504,11.746-3.865,12.051
			c2.534,0.209,9.928-4.768,15.338-12.936l-0.181,3.156l2.122-1.82c0,0,0.961-4.49,1.54-7.906
			C44.622,380.543,45.04,378.4,44.8,377.625z"/>
		<path fill="#E0AC7F" d="M73.165,277.576c0,11.824,0.91,94.818,1.592,96.865c0.682,2.047,12.507,14.857,26.15,13.947
			c3.638-0.91-12.734-12.129-16.145-17.131c-1.138-17.055,7.049-85.041,7.958-96.637C93.63,263.025,73.165,277.576,73.165,277.576z"
			/>
		<path fill="#040026" d="M74.227,369.742c-0.757,3.182-0.644,6.291,2.235,17.203c1.025,0.533,2.275,0.455,2.275,0.455
			c0.059-2.68-0.57-4.434-0.683-7.957c8.185,6.141,9.436,10.346,19.971,10.459c4.419,0.049,10.004,0.758,0-6.365
			C98.785,388.842,87.264,384.9,74.227,369.742z"/>
		<path fill="#362310" d="M96.227,85.416c-5.457-5.004-13.189-6.67-23.799-3.186c-10.61,3.486-17.585,0.758-23.648,0.457
			c-6.062-0.305-15.006,1.059-18.643,1.666c-10.612-6.822-1.213-48.811-0.607-52.297c0.607-3.488,37.593-25.467,43.96-23.648
			c6.368,1.818,12.581,0,14.855,2.729c2.274,2.73-0.605,31.379,5.761,40.02S105.929,75.258,96.227,85.416z"/>
		<path fill="#5A3413" d="M39.116,57.275c0.607,9.094,14.516,30.715,1.175,39.508c-0.91-5.457-3.639-10.764-10.006-8.186
			c-6.367,2.576-13.64-0.305-15.764-3.791c-9.398-16.371-3.183-27.893,2.576-35.471c5.76-7.58,7.731-19.857,7.731-19.857
			l12.127,14.096"/>
		<path fill="#5A3413" d="M71.973,14.621c6.821-11.822,28.043-5.15,26.678,5.307c-1.364,10.461-9.397,19.859-0.604,29.863
			c8.791,10.006,15.007,24.559,7.731,33.5c-7.278,8.945-5.458,9.4-4.094,11.066c-9.854-3.639-10.004-8.338-4.245-20.766
			c5.761-12.432-10.906-25.432-10.761-39.264C86.829,19.777,81.824,15.383,71.973,14.621z"/>
		<path fill="#37270F" d="M89.101,24.779c-1.447,6.609-1.903,12.799-0.659,18.133c-1.083-2.826-1.795-5.688-1.765-8.584
			c0.127-12.209-3.377-17.268-10.327-19.025C83.765,13.652,91.089,15.689,89.101,24.779z"/>
		<path fill="#C3C2BB" d="M31.409,346.398c4.85,2.576,15.612,1.668,18.949,0.305c2.576-14.402,17.583-121.576,17.583-121.576
			s3.942,116.266,4.094,118.693c6.367,3.639,15.006,0.455,16.522-1.365c1.669-12.43,4.851-78.672,5.761-92.164
			c0.909-13.492-2.274-44.568-3.032-55.18c-0.757-10.609-5.457-28.195-5.457-28.195s-16.75,2.883-35.47-0.15
			C40.505,181.166,31.258,337.303,31.409,346.398z"/>
		<path fill="#DBABB0" d="M43.312,98.969c3.979-2.842,19.667-5.23,31.037,0c9.663,7.275,6.14,8.301,5.57,8.414
			c-0.567,0.113-38.314,4.094-38.314,4.094"/>
		<path fill="#E0AC7F" d="M47.973,68.047c1.061,12.125,3.943,30.051-8.187,37.176c4.548,17.734,33.086,21.525,33.086,21.525
			s5.911-20.465,3.334-24.559c-9.702-2.123-9.248-11.898-9.704-25.391C64.229,71.797,47.973,68.047,47.973,68.047z"/>
		<path fill="#C0885C" fill-opacity="0.5" d="M68.593,95.887c-1.866-4.561-1.822-11.186-2.09-19.088
			c-2.273-5.002-18.53-8.752-18.53-8.752c0.482,5.514,1.338,12.229,0.99,18.582C55.773,92.451,64.148,95.221,68.593,95.887z"/>
		<path fill="#040026" d="M42.378,106.08c5.002,7.73,16.617,55.945,13.735,62.615c19.251,0.76,29.308,0,29.308,0
			c5.154-18.797,8.671-54.795-11.186-67.682c1.515,8.186-0.454,16.637-2.73,18.002C64.836,117.35,44.5,104.262,42.378,106.08z"/>
		<path fill="#E0AC7F" d="M86.968,28.141c-1.136,14.324-0.91,22.963,1.592,34.105c1.138,5.004,0.454,12.277-17.055,22.512
			c-2.613,1.25-29.217-5.002-32.741-26.832c-3.634-22.496,3.637-40.473,17.28-43.203C69.687,11.994,85.832,13.588,86.968,28.141z"/>
		<path fill="#E0AC7F" d="M37.855,48.982c-3.867-5.949-11.368-1.516-8.945,4.85c2.511,6.592,8.715,7.391,12.013,3.98
			C40.317,52.961,37.855,48.982,37.855,48.982z"/>
		<g>
			<g>
				<g>
					<path d="M59.796,53.719c-0.38,0.079-0.827-0.952-1.643-2.298c-0.422-0.657-0.959-1.365-1.689-1.867
						c-0.712-0.525-1.647-0.835-2.792-0.983c-2.299-0.273-4.812,0.036-6.742-0.596c-0.965-0.295-1.7-0.881-1.997-1.385
						c-0.314-0.501-0.281-0.857-0.146-0.943c0.166-0.111,0.433,0.038,0.837,0.185c0.402,0.154,0.922,0.294,1.662,0.313
						c0.741,0.021,1.686-0.062,2.812-0.164c1.125-0.093,2.435-0.202,3.906-0.025c1.459,0.173,2.983,0.75,4.007,1.727
						c1.05,0.948,1.572,2.079,1.847,2.987C60.361,52.523,60.121,53.659,59.796,53.719z"/>
				</g>
			</g>
		</g>
		<path d="M50.252,47.076c-0.831,0.855-1.371,2.131-1.371,3.574c0,2.574,1.681,4.66,3.752,4.66s3.751-2.086,3.751-4.66
			c0-1.389-0.498-2.621-1.274-3.475C53.493,47.105,51.873,47.078,50.252,47.076z"/>
		<g>
			<g>
				<path fill="#C0885C" d="M68.701,63.232c0.053,0.143,1.142,0.02,2.809-0.721c0.412-0.209,0.865-0.445,1.307-0.871
					c0.218-0.209,0.443-0.484,0.57-0.857c0.154-0.375,0.101-0.838-0.03-1.211c-0.31-0.725-0.824-1.178-1.312-1.611
					c-0.555-0.459-0.873-0.705-1.113-1.227c-0.468-0.992-0.446-2.258-0.394-3.355c0.062-1.113,0.198-2.133,0.299-2.992
					c0.214-1.719,0.315-2.803,0.139-2.842c-0.167-0.037-0.578,0.973-1.024,2.676c-0.216,0.855-0.448,1.879-0.582,3.062
					c-0.105,1.17-0.239,2.553,0.417,4.008c0.171,0.357,0.405,0.686,0.678,0.969c0.303,0.291,0.552,0.471,0.778,0.656
					c0.459,0.371,0.866,0.764,1.028,1.1c0.332,0.539-0.526,1.289-1.202,1.711C69.643,62.602,68.63,63.049,68.701,63.232z"/>
			</g>
		</g>
		<path d="M75.447,53.631c0.536,1.152,1.392,1.908,2.364,1.908c1.624,0,2.942-2.088,2.942-4.662c0-1.559-0.487-2.928-1.231-3.777
			C77.063,48.512,75.996,50.955,75.447,53.631z"/>
		<g>
			<path fill="#362310" d="M77.077,38.826c-0.131-0.084,0.094-0.719,0.912-1.342c0.796-0.623,2.163-1.139,3.711-1.09
				c1.555,0.027,2.921,0.736,3.601,1.508c0.688,0.779,0.777,1.432,0.644,1.492c-0.176,0.096-0.544-0.35-1.237-0.814
				c-0.692-0.459-1.766-0.885-3.05-0.914c-1.276-0.041-2.439,0.254-3.208,0.594C77.666,38.586,77.23,38.943,77.077,38.826z"/>
		</g>
		<path fill="#C85435" d="M58.471,67.932c4.319,7.277,16.678,19.635,16.449,3.107C73.933,70.586,58.471,67.932,58.471,67.932z"/>
		<path fill="#FFFFFF" d="M58.244,67.4c5.835,1.668,14.324,0.15,19.326,0.15c-3.789,2.957-4.85,9.854-5.987,10.006
			C67.945,77.557,62.109,72.404,58.244,67.4z"/>
		<path fill="#C85435" d="M58.622,67.324c4.017,1.062,15.841-2.502,20.918-0.227C75.979,68.008,62.866,69.9,58.622,67.324z"/>
		<g>
			<g>
				<path fill="#C0885C" d="M60.138,66.795c-0.099-0.324-1.166-0.275-2.231,0.34c-0.552,0.266-0.96,0.68-1.227,0.988
					c-0.265,0.318-0.364,0.58-0.255,0.719c0.24,0.289,1.118-0.057,2.095-0.59C59.491,67.688,60.251,67.143,60.138,66.795z"/>
			</g>
		</g>
		<g>
			<g>
				<g>
					<path d="M75.428,53.549c-0.344-0.045-0.61-0.932-0.499-2.408c0.054-0.736,0.233-1.63,0.69-2.612
						c0.426-0.961,1.391-2.104,2.766-2.573c1.362-0.456,2.54-0.283,3.44-0.169c0.916,0.14,1.604,0.267,2.09,0.267
						c0.906,0.073,1.493-0.645,1.845-0.48c0.154,0.07,0.251,0.347,0.113,0.813c-0.111,0.454-0.637,1.155-1.515,1.479
						c-1.718,0.641-3.798,0.095-5.103,0.579c-1.22,0.376-1.989,1.979-2.52,3.154C76.203,52.786,75.804,53.6,75.428,53.549z"/>
				</g>
			</g>
		</g>
		<path fill="#DB9600" d="M50.473,272.574c-9.321-0.227-31.493-1.021-36.381-12.619c6.026-23.99,12.961-61.85,28.65-89.816
			c1.933-5.797-9.21-20.236-13.301-32.516c-3.979-13.529-6.748-27.398-6.444-27.854c1.668-1.59,16.904-4.889,16.904-4.889
			s17.849,11.369,19.896,27.74c2.046,16.371-0.229,46.953-2.615,68.443C54.794,222.551,55.475,264.844,50.473,272.574z"/>
		<path fill="#BF8107" d="M43.462,98.855c-4.397,3.486-9.001,5.15-8.962,5.627c0.645,7.922,8.052,15.596,8.962,16.354
			c5.457,1.213,11.065,3.184,11.065,3.184c-6.668,4.016-5.306,4.395-5.306,4.395c6.368,5.457,11.673,22.133,10.915,37.139
			c3.941-25.162,7.655-33.121-15.461-61.543C42.695,101.574,43.462,98.855,43.462,98.855z"/>
		<path fill="#C98400" d="M90.758,111.436c8.261,6.406,6.368,34.867,13.34,51.541s12.885,48.055,12.885,51.389
			c-6.065,5.152-13.645,3.639-15.766,1.213c-6.367-17.586-12.582-49.873-14.401-60.484
			C89.472,139.555,90.758,111.436,90.758,111.436z"/>
		<path fill="#DB9600" d="M85.036,156.723c-4.979,16.621,3.751,90.385-3.297,113.578c5.684,0.91,13.984-5.912,15.12-8.186
			c1.137-2.275-4.548-86.406-6.822-100.275c-2.273-13.869,8.754-22.852,2.389-46.955c-5.003-4.092-4.662-1.25-4.662-1.25
			S91.402,135.463,85.036,156.723z"/>
		<path fill="#BF8107" d="M71.62,97.945c8.489,8.338,21.107,20.312,13.225,59.574c8.338-14.4,10.459-34.865,10.459-34.865
			s-4.09-4.396-4.698-4.396c3.032-2.273,4.85-3.184,4.395-4.244C94.548,112.953,79.067,97.15,71.62,97.945z"/>
		<path fill="#C98400" d="M41.492,207.088c2.842-2.615,6.594-7.162,6.594-7.162c3.412,7.162,5.911,20.691,5.457,23.988
			c-2.272,7.504-12.391,11.711-15.802,9.096c-3.071-5.57-3.184-19.441-3.184-19.441S39.219,209.363,41.492,207.088z"/>
		<path fill="#C98400" d="M25.272,205.877c3.261,0.832,11.897-5.686,10.458-9.4C32.852,194.734,23.527,197.309,25.272,205.877z"/>
		<path fill="#E0AC7F" d="M29.669,194.734c3.865,4.662,4.435,8.262,8.641,6.973c3.806-1.166,6.024,5.838,11.14,6.633
			c1.706,0.795,0.075,3.145-0.985,2.918c-1.062-0.227-6.745-2.805-6.745-2.805c-2.844,4.092-7.163,5.115-7.163,5.115
			c-5.685-4.66-10.574-12.961-10.574-12.961L29.669,194.734z"/>
		<path fill="#BF8107" d="M22.997,109.77c-0.605,1.365-22.585,53.963-21.979,62.455c0.606,8.488,17.734,28.648,24.254,33.652
			c1.517-7.656,10.458-9.4,10.458-9.4c-5.457-8.338-16.22-23.346-16.979-28.043c-0.757-4.699,12.324-28.318,13.189-30.166
			C39.976,121.139,23.604,108.404,22.997,109.77z"/>
		<path fill="#C98400" d="M87.271,201.631c0.154,4.549-0.302,19.707,0.608,21.678s5.759,6.365,6.516,6.064
			c0.759-0.305,0.455-20.617,0.455-20.617L87.271,201.631z"/>
		<g>
			<path fill="#C98400" d="M46.496,177.984c0.087-0.016,0.099-0.342,0.046-0.926c-0.027-0.293-0.07-0.648-0.128-1.064
				c-0.07-0.408-0.182-0.863-0.298-1.373c-0.455-2.037-1.354-4.762-2.5-7.709c-2.29-5.898-4.89-10.352-5.192-10.189
				c-0.318,0.168,1.738,4.812,4.006,10.654c1.135,2.918,2.156,5.564,2.823,7.496c0.174,0.482,0.332,0.916,0.472,1.301
				c0.12,0.385,0.232,0.717,0.332,0.986C46.256,177.701,46.409,177.998,46.496,177.984z"/>
		</g>
		<path fill="#5A3413" d="M75.308,15.686c-1.971,10.307-3.487,20.613-14.401,23.949c-10.915,3.336-21.677-0.152-21.221,2.273
			c0.454,2.426,2.369,11.008-0.058,11.615c-3.183-3.789-3.225-4.768-4.793-6.461c-2.596-2.805-11.52-2.424-11.37-10.156
			c0.151-7.73,3.185-23.346,9.399-24.557c6.214-1.213,13.34-1.971,19.251-8.338c5.912-6.365,22.739-6.064,27.742,7.578
			C77.733,10.377,75.459,14.168,75.308,15.686z"/>
		<g>
			<path fill="#362310" d="M61.579,38.373c-0.128,0.156-0.804-0.271-1.964-0.635c-1.161-0.365-2.841-0.59-4.726-0.432
				c-3.784,0.299-6.725,1.553-6.879,1.217c-0.18-0.277,2.667-2.154,6.786-2.488c2.041-0.174,3.953,0.229,5.162,0.871
				C61.177,37.551,61.68,38.268,61.579,38.373z"/>
		</g>
	</g>
	<g>
		<g>
			<g>
				<path fill="#FFFFFF" d="M135.788,79.72h3.933l0.692,30.756h-5.317L135.788,79.72z M135.168,70.435h5.171v4.398h-5.171V70.435z"
					/>
				<path fill="#FFFFFF" d="M149.59,70.435h4.917v40.041h-4.917V70.435z"/>
				<path fill="#FFFFFF" d="M177.158,88.298v22.178h-4.479V89.003c0-1.592-0.237-2.701-0.71-3.326
					c-0.473-0.623-1.281-0.936-2.421-0.936c-1.117,0-1.918,0.32-2.404,0.963c-0.486,0.643-0.729,1.742-0.729,3.299v21.473h-4.479
					V82.569h4.188l0.291,1.711c0.607-0.779,1.378-1.371,2.312-1.779c0.935-0.406,2.009-0.611,3.223-0.611
					c1.894,0,3.235,0.477,4.024,1.426C176.763,84.267,177.158,85.927,177.158,88.298z"/>
				<path fill="#FFFFFF" d="M188.702,75.05v7.52h3.423v2.822h-3.423v20.74c0,0.779,0.2,1.316,0.601,1.615
					c0.4,0.299,1.123,0.449,2.167,0.449h0.656v2.904c-0.268,0.018-0.541,0.031-0.819,0.041c-0.28,0.008-0.674,0.014-1.184,0.014
					c-2.283,0-3.836-0.412-4.662-1.236c-0.826-0.822-1.238-2.654-1.238-5.496V85.392h-2.44v-2.822h2.44v-6.162L188.702,75.05z"/>
				<path fill="#FFFFFF" d="M211.682,89.845v8.279h-10.598v5.891c0,1.666,0.219,2.797,0.656,3.395
					c0.437,0.596,1.214,0.895,2.331,0.895c1.068,0,1.821-0.307,2.258-0.922s0.656-1.738,0.656-3.367v-3.094h4.698v2.279
					c0,3.078-0.559,5.172-1.675,6.285s-3.095,1.67-5.936,1.67c-2.816,0-4.789-0.566-5.917-1.697
					c-1.129-1.131-1.694-3.234-1.694-6.312V89.845c0-3.096,0.552-5.193,1.657-6.299c1.104-1.104,3.089-1.656,5.954-1.656
					c2.816,0,4.789,0.566,5.918,1.697S211.682,86.804,211.682,89.845z M206.984,89.003c0-1.646-0.219-2.77-0.656-3.365
					c-0.437-0.598-1.189-0.896-2.258-0.896c-1.092,0-1.863,0.316-2.312,0.949c-0.449,0.635-0.674,1.738-0.674,3.312v6.299h5.9
					V89.003z"/>
				<path fill="#FFFFFF" d="M233.604,88.298v22.178h-4.479V89.003c0-1.592-0.237-2.701-0.711-3.326
					c-0.473-0.623-1.281-0.936-2.421-0.936c-1.117,0-1.918,0.32-2.404,0.963c-0.486,0.643-0.729,1.742-0.729,3.299v21.473h-4.479
					V82.569h4.188l0.291,1.711c0.607-0.779,1.378-1.371,2.312-1.779c0.935-0.406,2.009-0.611,3.224-0.611
					c1.893,0,3.234,0.477,4.023,1.426C233.21,84.267,233.604,85.927,233.604,88.298z"/>
				<path fill="#FFFFFF" d="M245.149,75.05v7.52h3.423v2.822h-3.423v20.74c0,0.779,0.199,1.316,0.601,1.615
					c0.4,0.299,1.122,0.449,2.167,0.449h0.655v2.904c-0.268,0.018-0.54,0.031-0.819,0.041c-0.279,0.008-0.674,0.014-1.184,0.014
					c-2.283,0-3.836-0.412-4.662-1.236c-0.825-0.822-1.238-2.654-1.238-5.496V85.392h-2.439v-2.822h2.439v-6.162L245.149,75.05z"/>
				<path fill="#FFFFFF" d="M267.691,89.085v21.391h-4.188l-0.291-1.709c-0.607,0.777-1.378,1.371-2.312,1.777
					s-2.01,0.611-3.223,0.611c-1.895,0-3.235-0.477-4.024-1.426s-1.184-2.609-1.184-4.98v-5.566c0-2.189,0.795-3.746,2.386-4.668
					c1.59-0.924,4.375-1.439,8.357-1.549v-3.963c0-1.684-0.213-2.814-0.637-3.393c-0.426-0.58-1.184-0.869-2.276-0.869
					c-1.044,0-1.791,0.268-2.239,0.801c-0.45,0.533-0.674,1.453-0.674,2.756v1.547h-4.48v-0.76c0-2.787,0.547-4.684,1.64-5.688
					s3.034-1.508,5.827-1.508c2.719,0,4.618,0.508,5.699,1.521C267.151,84.425,267.691,86.315,267.691,89.085z M263.176,95.681
					c-2.331,0.072-3.915,0.381-4.753,0.924s-1.256,1.52-1.256,2.932v4.479c0,1.666,0.219,2.797,0.655,3.395
					c0.437,0.596,1.214,0.895,2.331,0.895c1.092,0,1.875-0.32,2.349-0.963s0.71-1.752,0.71-3.326L263.176,95.681z"/>
				<path fill="#FFFFFF" d="M126.865,137.151h4.552v40.041h-4.188l-0.364-1.711c-0.607,0.797-1.366,1.395-2.276,1.791
					c-0.911,0.398-1.973,0.598-3.187,0.598c-1.87,0-3.205-0.475-4.006-1.424c-0.801-0.951-1.202-2.611-1.202-4.982v-16.451
					c0-2.371,0.401-4.031,1.202-4.98c0.801-0.951,2.136-1.426,4.006-1.426c1.213,0,2.282,0.203,3.205,0.611
					c0.922,0.406,1.675,1,2.258,1.777V137.151z M126.865,155.72c0-1.576-0.225-2.68-0.674-3.312s-1.22-0.951-2.312-0.951
					c-1.117,0-1.906,0.309-2.367,0.924c-0.462,0.615-0.692,1.729-0.692,3.34v15.012c0,1.629,0.23,2.75,0.692,3.365
					c0.46,0.615,1.25,0.924,2.367,0.924c1.093,0,1.863-0.316,2.312-0.951c0.449-0.633,0.674-1.746,0.674-3.338V155.72z"/>
				<path fill="#FFFFFF" d="M153.341,156.56v8.281h-10.598v5.891c0,1.664,0.219,2.795,0.656,3.393s1.214,0.896,2.331,0.896
					c1.068,0,1.821-0.309,2.258-0.924s0.656-1.736,0.656-3.365v-3.096h4.698v2.281c0,3.076-0.559,5.172-1.675,6.283
					c-1.117,1.113-3.095,1.67-5.936,1.67c-2.816,0-4.789-0.564-5.917-1.695c-1.129-1.131-1.694-3.236-1.694-6.312V156.56
					c0-3.094,0.552-5.193,1.657-6.297c1.104-1.104,3.089-1.656,5.954-1.656c2.816,0,4.789,0.566,5.918,1.697
					S153.341,153.521,153.341,156.56z M148.643,155.72c0-1.648-0.219-2.77-0.656-3.367s-1.189-0.896-2.258-0.896
					c-1.092,0-1.863,0.318-2.312,0.951s-0.674,1.736-0.674,3.312v6.297h5.9V155.72z"/>
				<path fill="#FFFFFF" d="M186.662,155.013v22.18h-4.479V155.72c0-1.594-0.237-2.701-0.71-3.326
					c-0.473-0.625-1.281-0.938-2.421-0.938c-1.117,0-1.918,0.322-2.404,0.965c-0.486,0.643-0.729,1.742-0.729,3.299v21.473h-4.479
					v-27.908h4.188l0.291,1.711c0.607-0.777,1.378-1.371,2.312-1.777c0.935-0.408,2.009-0.611,3.223-0.611
					c1.894,0,3.235,0.475,4.024,1.426C186.268,150.981,186.662,152.642,186.662,155.013z"/>
				<path fill="#FFFFFF" d="M193.509,149.284h4.479v21.393c0,1.646,0.237,2.783,0.71,3.406c0.473,0.625,1.28,0.938,2.422,0.938
					c1.116,0,1.905-0.322,2.367-0.965c0.461-0.641,0.692-1.768,0.692-3.379v-21.393h4.552v27.908h-4.188l-0.364-1.711
					c-0.607,0.779-1.36,1.361-2.258,1.752c-0.898,0.389-1.955,0.582-3.168,0.582c-1.918,0-3.272-0.471-4.061-1.41
					c-0.79-0.941-1.184-2.588-1.184-4.941V149.284z"/>
				<path fill="#FFFFFF" d="M230.654,156.56v8.281h-10.598v5.891c0,1.664,0.219,2.795,0.656,3.393s1.214,0.896,2.331,0.896
					c1.068,0,1.821-0.309,2.258-0.924s0.656-1.736,0.656-3.365v-3.096h4.698v2.281c0,3.076-0.559,5.172-1.675,6.283
					c-1.117,1.113-3.096,1.67-5.937,1.67c-2.816,0-4.789-0.564-5.917-1.695c-1.129-1.131-1.694-3.236-1.694-6.312V156.56
					c0-3.094,0.552-5.193,1.657-6.297c1.104-1.104,3.089-1.656,5.954-1.656c2.816,0,4.789,0.566,5.918,1.697
					S230.654,153.521,230.654,156.56z M225.957,155.72c0-1.648-0.219-2.77-0.656-3.367s-1.189-0.896-2.258-0.896
					c-1.092,0-1.863,0.318-2.312,0.951s-0.674,1.736-0.674,3.312v6.297h5.9V155.72z"/>
				<path fill="#FFFFFF" d="M234.915,149.284h4.37l3.132,25.029h0.4l3.351-25.029h4.115l-4.552,27.908h-6.191L234.915,149.284z"/>
				<path fill="#FFFFFF" d="M269.876,156.56v13.357c0,3.076-0.559,5.172-1.676,6.283c-1.117,1.113-3.096,1.67-5.936,1.67
					c-2.816,0-4.789-0.564-5.918-1.695s-1.693-3.236-1.693-6.312V156.56c0-3.094,0.552-5.193,1.656-6.297
					c1.105-1.104,3.09-1.656,5.955-1.656c2.816,0,4.789,0.566,5.918,1.697S269.876,153.521,269.876,156.56z M265.178,155.72
					c0-1.648-0.219-2.77-0.655-3.367c-0.438-0.598-1.189-0.896-2.258-0.896c-1.093,0-1.863,0.318-2.312,0.951
					s-0.674,1.736-0.674,3.312v15.012c0,1.664,0.219,2.795,0.655,3.393s1.214,0.896,2.331,0.896c1.068,0,1.82-0.309,2.258-0.924
					c0.437-0.615,0.655-1.736,0.655-3.365V155.72z"/>
				<path fill="#FFFFFF" d="M278.069,137.151h5.316l-0.691,30.756h-3.934L278.069,137.151z M278.142,172.794h5.172v4.398h-5.172
					V172.794z"/>
			</g>
		</g>
	</g>
	<polygon fill="#522800" points="138.33,201.021 146.708,229.998 256.249,224.053 262.965,201.021 	"/>
	<g>
		<g>
			<path fill="#FFFFFF" d="M170.744,206.442h2.461c1.269,0,2.127,0.133,2.576,0.398c0.448,0.264,0.672,0.74,0.672,1.428v3.16
				c0,0.58-0.148,0.988-0.444,1.229c-0.296,0.24-0.821,0.385-1.574,0.436c0.804,0.037,1.362,0.176,1.675,0.416
				s0.47,0.656,0.47,1.248v5.639h-1.713v-5.213c0-0.656-0.125-1.08-0.375-1.277c-0.25-0.195-0.764-0.293-1.542-0.293h-0.596v6.783
				h-1.611V206.442z M172.355,207.474v5.1h0.571c0.736,0,1.226-0.098,1.472-0.289c0.245-0.193,0.368-0.619,0.368-1.281v-1.939
				c0-0.668-0.123-1.102-0.368-1.297c-0.246-0.195-0.736-0.293-1.472-0.293H172.355z"/>
			<path fill="#FFFFFF" d="M179.398,206.442h4.466v1.107h-2.855v5.023h2.728v1.096h-2.728v5.619h2.931v1.107h-4.542V206.442z"/>
			<path fill="#FFFFFF" d="M186.263,206.442h1.713v13.953h-1.713V206.442z"/>
			<path fill="#FFFFFF" d="M190.832,206.442h2.208l2.678,13.121h0.025l-0.241-13.121h1.459v13.953h-2.233l-2.652-12.941h-0.051
				l0.229,12.941h-1.421V206.442z"/>
			<path fill="#FFFFFF" d="M199.854,206.442h1.713v13.953h-1.713V206.442z"/>
			<path fill="#FFFFFF" d="M209.776,208.657v1.332h-1.7v-1.295c0-0.543-0.078-0.918-0.235-1.125
				c-0.156-0.209-0.434-0.312-0.831-0.312c-0.364,0-0.618,0.117-0.761,0.354c-0.144,0.236-0.216,0.734-0.216,1.49v8.637
				c0,0.775,0.076,1.279,0.229,1.514c0.152,0.232,0.431,0.35,0.837,0.35c0.347,0,0.596-0.111,0.749-0.332s0.229-0.596,0.229-1.125
				v-1.504h1.7v1.551c0,0.953-0.199,1.598-0.596,1.936c-0.398,0.336-1.108,0.506-2.132,0.506c-1.007,0-1.709-0.219-2.106-0.652
				c-0.397-0.436-0.596-1.246-0.596-2.432v-8.258c0-1.18,0.199-1.982,0.596-2.412s1.1-0.643,2.106-0.643
				c1.032,0,1.745,0.166,2.138,0.5C209.58,207.071,209.776,207.71,209.776,208.657z"/>
			<path fill="#FFFFFF" d="M211.883,206.442h1.713v13.953h-1.713V206.442z"/>
			<path fill="#FFFFFF" d="M218.037,206.442h2.36l2.703,13.953h-1.738l-0.647-3.879h-3.071l-0.698,3.879h-1.7L218.037,206.442z
				 M219.154,207.474l-1.358,8.021h2.703l-1.269-8.021H219.154z"/>
			<path fill="#FFFFFF" d="M224.813,206.442h2.461c1.269,0,2.127,0.133,2.576,0.398c0.449,0.264,0.673,0.74,0.673,1.428v3.16
				c0,0.58-0.147,0.988-0.444,1.229c-0.296,0.24-0.82,0.385-1.573,0.436c0.804,0.037,1.362,0.176,1.675,0.416s0.47,0.656,0.47,1.248
				v5.639h-1.713v-5.213c0-0.656-0.125-1.08-0.374-1.277c-0.25-0.195-0.764-0.293-1.542-0.293h-0.596v6.783h-1.611V206.442z
				 M226.425,207.474v5.1h0.571c0.735,0,1.226-0.098,1.472-0.289c0.245-0.193,0.368-0.619,0.368-1.281v-1.939
				c0-0.668-0.123-1.102-0.368-1.297c-0.246-0.195-0.736-0.293-1.472-0.293H226.425z"/>
		</g>
	</g>
</g>
</svg>
