<?xml version="1.0" encoding="utf-8"?>
<!-- Generator: Adobe Illustrator 16.0.0, SVG Export Plug-In . SVG Version: 6.00 Build 0)  -->
<!DOCTYPE svg PUBLIC "-//W3C//DTD SVG 1.1//EN" "http://www.w3.org/Graphics/SVG/1.1/DTD/svg11.dtd">
<svg version="1.1" id="Capa_1" xmlns="http://www.w3.org/2000/svg" xmlns:xlink="http://www.w3.org/1999/xlink" x="0px" y="0px"
	 width="181.79px" height="108.309px" viewBox="0 0 181.79 108.309" enable-background="new 0 0 181.79 108.309"
	 xml:space="preserve">
<g>
	<g>
		<g>
			<path fill="#CB6120" d="M54.151,106.309C25.395,106.309,2,82.911,2,54.152C2,25.396,25.395,2,54.151,2
				s52.151,23.396,52.151,52.152C106.303,82.911,82.908,106.309,54.151,106.309z"/>
			<path fill="#FFFFFF" d="M54.151,4c27.698,0,50.151,22.457,50.151,50.152c0,27.699-22.453,50.156-50.151,50.156S4,81.852,4,54.152
				C4,26.457,26.453,4,54.151,4 M54.151,0C24.292,0,0,24.293,0,54.152c0,29.862,24.292,54.156,54.151,54.156
				s54.151-24.294,54.151-54.156C108.303,24.293,84.011,0,54.151,0L54.151,0z"/>
		</g>
		<g>
			<g>
				<path fill="#FFFFFF" d="M27.192,25.578h8.797L46.657,77.85h0.102l-0.961-52.271h5.814v55.588h-8.898L32.147,29.611h-0.203
					l0.91,51.555h-5.662V25.578z"/>
				<path fill="#FFFFFF" d="M86.294,36.922v32.9c0,4.773-0.859,8.016-2.578,9.725c-1.719,1.707-4.787,2.562-9.201,2.562
					c-4.348,0-7.383-0.867-9.102-2.602c-1.719-1.732-2.578-4.961-2.578-9.686v-32.9c0-4.672,0.867-7.869,2.604-9.592
					c1.736-1.721,4.795-2.58,9.176-2.58c4.383,0,7.424,0.854,9.127,2.562C85.442,29.021,86.294,32.225,86.294,36.922z
					 M79.569,36.168c0-2.812-0.371-4.742-1.111-5.785c-0.742-1.041-2.057-1.562-3.943-1.562c-1.855,0-3.145,0.508-3.869,1.525
					s-1.086,2.959-1.086,5.822v34.408c0,2.891,0.371,4.838,1.111,5.842c0.742,1.006,2.057,1.508,3.943,1.508
					c1.854,0,3.143-0.502,3.869-1.508c0.725-1.004,1.086-2.951,1.086-5.842V36.168z"/>
			</g>
		</g>
	</g>
	<path fill-rule="evenodd" clip-rule="evenodd" fill="#FFFFFF" d="M171.934,83.09c-3.854-0.1-6.22-1.99-7.955-5.031
		c-1.652-2.896-3.409-5.746-5.309-8.488c-1.901-2.746-3.59-2.691-5.705-0.045c-3.147,3.941-7.436,6.121-12.077,7.693
		c-0.952,0.316-2.148,0.518-3.057,0.23c-1.229-0.4-2.69-1.094-3.274-2.111c-0.368-0.631,0.491-2.246,1.158-3.154
		c3.13-4.254,6.441-8.385,9.572-12.643c1.465-1.986,1.361-4.146-0.252-6.057c-2.007-2.375-4.099-4.674-6.17-6.992
		c-2.221-2.496-4.545-4.914-6.672-7.488c-2.148-2.6-2.189-5.6,0.383-7.697c2.359-1.918,5.238-3.258,8.014-4.582
		c1.816-0.869,3.43,0.236,4.588,1.576c1.806,2.09,3.409,4.352,5.102,6.539c0.778,1.002,1.517,2.037,2.35,2.994
		c1.229,1.41,2.495,1.57,3.695-0.076c0.61-0.838,1.324-1.621,1.814-2.525c2.717-4.996,7.221-7.605,12.354-9.398
		c0.654-0.229,1.317-0.455,2-0.553c3.12-0.449,4.886,1.551,3.483,4.342c-1.643,3.275-3.836,6.275-5.755,9.422
		c-1.555,2.557-3.112,5.113-4.56,7.734c-1.103,2-0.863,3.896,0.537,5.803c4.37,5.953,8.688,11.939,12.899,18.002
		c1.311,1.883,3.586,3.574,2.322,6.43c-1.425,3.211-4.062,4.928-7.334,5.799C173.315,83.02,172.488,83.023,171.934,83.09z"/>
</g>
</svg>
