<svg xmlns="http://www.w3.org/2000/svg" xmlns:xlink="http://www.w3.org/1999/xlink" width="81.735" height="104.126" viewBox="0 0 81.735 104.126">
  <defs>
    <clipPath id="clip-path">
      <path id="Trazado_999" data-name="Trazado 999" d="M0,0H81.735V-104.126H0Z" fill="none"/>
    </clipPath>
  </defs>
  <g id="Grupo_701" data-name="Grupo 701" transform="translate(0 104.126)">
    <g id="Grupo_700" data-name="Grupo 700" clip-path="url(#clip-path)">
      <g id="Grupo_691" data-name="Grupo 691" transform="translate(20.048 -16.057)">
        <path id="Trazado_990" data-name="Trazado 990" d="M0,0C-2.652-1.4-5.327-2.7-7.876-4.212-9.973-5.453-9.991-6-9.259-8.306a14.916,14.916,0,0,0-2.217-14.033c-8.3-11.295-10.763-23.753-6.551-37.113A40.453,40.453,0,0,1,30.73-86.8C53.8-80.839,66.782-57.862,59.8-35.106A39.95,39.95,0,0,1,25.059-6.692c-6.238.594-11,3.057-13.934,8.7-.735,1.415-1.986,1.232-3.1.871C5.318,2,2.661.968,0,0M7.332-16.45A33.128,33.128,0,0,0,51-33.376,33.287,33.287,0,0,0,34.1-77.11,33.286,33.286,0,0,0-9.712-60.072,33.136,33.136,0,0,0,7.332-16.45" fill="#245965"/>
      </g>
      <g id="Grupo_692" data-name="Grupo 692" transform="translate(15.489 -5.861)">
        <path id="Trazado_991" data-name="Trazado 991" d="M0,0Q-3.658-1.623-7.323-3.243C-8.564-3.8-9.616-4.577-8.932-6.084c.639-1.4,1.9-1.2,3.075-.682Q1.553-3.505,8.955-.209c1.178.522,2.164,1.319,1.558,2.734-.654,1.523-1.945,1.266-3.183.718Q3.661,1.623,0,0" fill="#245965"/>
      </g>
      <g id="Grupo_693" data-name="Grupo 693" transform="translate(19.2 -14.04)">
        <path id="Trazado_992" data-name="Trazado 992" d="M0,0Q3.741,1.655,7.48,3.308c1.132.5,2.069,1.2,1.47,2.56-.617,1.4-1.8,1.3-3.017.763Q-1.543,3.316-9.023.012c-1.215-.538-2.113-1.341-1.489-2.739.657-1.473,1.871-1.106,3.035-.587Q-3.745-1.649,0,0" fill="#245965"/>
      </g>
      <g id="Grupo_694" data-name="Grupo 694" transform="translate(13.299 -1.069)">
        <path id="Trazado_993" data-name="Trazado 993" d="M0,0A7.5,7.5,0,0,1-2.388-1.132c-.554-.576-1.1-1.753-.862-2.337A2.515,2.515,0,0,1-.992-4.436,20.226,20.226,0,0,1,4.033-2.215a2.521,2.521,0,0,1,.856,2.3,2.787,2.787,0,0,1-2.279.977A8.28,8.28,0,0,1,0-.007S0,0,0,0" fill="#245965"/>
      </g>
      <g id="Grupo_695" data-name="Grupo 695" transform="translate(32.448 -85.21)">
        <path id="Trazado_994" data-name="Trazado 994" d="M0,0A11.44,11.44,0,0,1,5.032,1.055a.713.713,0,0,0,.908-.1,12.635,12.635,0,0,1,17.132.1,1.731,1.731,0,0,0,1.059.433A11.379,11.379,0,0,1,35.5,13.09a1.758,1.758,0,0,0,.31.986,11.391,11.391,0,0,1-6.985,17.9,11.672,11.672,0,0,1-4.952-.107,1.318,1.318,0,0,0-.839.163c-1.151.627-2.269,1.32-3.432,1.926a.935.935,0,0,0-.61.707A11.914,11.914,0,0,1,6.358,44.385a1.358,1.358,0,0,0-.8.25,9.755,9.755,0,0,1-11.045.4,1.356,1.356,0,0,0-.748-.207,10.222,10.222,0,0,1-11.026-7.965,10.883,10.883,0,0,1,0-4.475,1.178,1.178,0,0,0-.215-.883,14.241,14.241,0,0,1-3.4-12.528A13.833,13.833,0,0,1-13.4,8.937a8.2,8.2,0,0,0,1.018-.545,2.057,2.057,0,0,0,.7-.745A12.623,12.623,0,0,1-6.835,1.973,12.047,12.047,0,0,1,0,0M7.327,41.677c.788-.116,1.421-.171,2.035-.309A9.188,9.188,0,0,0,7.8,23.251a9.505,9.505,0,0,0-5.111,1.208,1.062,1.062,0,0,1-1.548-.313,1.008,1.008,0,0,1,.567-1.409,8.911,8.911,0,0,1,1.8-.815c1.259-.339,2.548-.57,3.853-.852-.025-.065-.061-.192-.117-.31a8.7,8.7,0,0,0-9.787-4.613c-.8.178-1.333-.1-1.444-.71s.269-1.088,1.081-1.211c1.063-.163,2.142-.25,3.24-.372-.046-.166-.1-.337-.14-.513a5.5,5.5,0,0,1,.4-3.854,1.011,1.011,0,0,1,1.4-.582c.561.279.7.779.4,1.449-.038.083-.079.164-.117.247a3.2,3.2,0,0,0,1.58,4.3,10.551,10.551,0,0,1,5.7,6.22c.056.158.159.366.294.418,1.007.391,2.027.748,3.049,1.119.007-.016.042-.051.045-.089.011-.136.014-.273.014-.41a7.422,7.422,0,0,1,1.889-4.925c.638-.735,1.321-.9,1.8-.45s.39.971-.305,1.754a5.545,5.545,0,0,0-.265,7.043,10.259,10.259,0,0,1,1.952,3.869c.168.629.29,1.27.445,1.952a7.024,7.024,0,0,0,5.055-5.771c.127-.765.524-1.149,1.139-1.077s.987.614.81,1.394c-.246,1.068-.576,2.116-.872,3.183a8.083,8.083,0,0,0,6.842-1.234,8.606,8.606,0,0,0,1.619-12.829,1.885,1.885,0,0,1-.379-1.22A8.72,8.72,0,0,0,30.467,7.1,8.286,8.286,0,0,0,24.75,4.325c.311.737.6,1.394.867,2.065a.962.962,0,0,1-.345,1.266c-.554.368-1.139.12-1.5-.532a21.711,21.711,0,0,0-1.929-3.265A9.821,9.821,0,0,0,11.563.874,10.228,10.228,0,0,0,5.633,5.8c-.361.64-.861.857-1.383.6A1.034,1.034,0,0,1,3.9,4.875c.168-.335.355-.662.532-.99-5.2-2.8-11.4.062-13.158,4.291.241-.031.461-.072.684-.087A1,1,0,0,1-6.881,8.9a1,1,0,0,1-.906,1.143c-.313.06-.634.072-.947.135A11.872,11.872,0,0,0-18.086,24.4a11.73,11.73,0,0,0,2.767,5.3c.424-.523.779-1.027,1.2-1.466a.947.947,0,0,1,1.406-.027.992.992,0,0,1,.032,1.368c-.123.163-.266.312-.392.472a7.4,7.4,0,0,0,1.908,10.941A6.383,6.383,0,0,0-7.457,42.03c-.255-.448-.491-.806-.668-1.191a.929.929,0,0,1,.4-1.333.976.976,0,0,1,1.334.433c.134.212.251.435.386.646a6.906,6.906,0,0,0,11.071.691c.361-.436.641-.938.984-1.391a.942.942,0,0,1,1.313-.335.943.943,0,0,1,.4,1.341c-.1.2-.218.391-.439.786" fill="#245965"/>
      </g>
      <g id="Grupo_696" data-name="Grupo 696" transform="translate(28.838 -53.378)">
        <path id="Trazado_995" data-name="Trazado 995" d="M0,0Q-.73-2.436-1.4-4.645A18.385,18.385,0,0,1-4.454-5.8a5.511,5.511,0,0,1-2.753-4.957A1,1,0,0,1-5.915-11.83c.59.168.687.653.714,1.184A3.765,3.765,0,0,0-2.42-7.012c.087.027.172.063.261.082,1.009.213,1.03.195,1.289-.786a7.294,7.294,0,0,1,.3-.9,1.012,1.012,0,0,1,1.336-.7c.575.222.762.729.511,1.41A7.771,7.771,0,0,0,.99-3.227,7.558,7.558,0,0,0,12.04,1.415c.235-.139.452-.311.694-.436a.968.968,0,0,1,1.339.244.967.967,0,0,1-.22,1.393A9.542,9.542,0,0,1,7.541,4.369,12.14,12.14,0,0,1,2.287,2.433a3.125,3.125,0,0,0-3.855.356,4.494,4.494,0,0,0-.705,1.069,1.016,1.016,0,0,1-1.3.547A.97.97,0,0,1-4.087,3.1,4.687,4.687,0,0,1-.367.047C-.234.021-.1,0,.034-.024.056-.029.071-.046,0,0" fill="#245965"/>
      </g>
      <g id="Grupo_697" data-name="Grupo 697" transform="translate(45.221 -76.044)">
        <path id="Trazado_996" data-name="Trazado 996" d="M0,0A4.557,4.557,0,0,1,.024-3.912a4.97,4.97,0,0,1,.552-.857,1.05,1.05,0,0,1,1.5-.255,1.019,1.019,0,0,1,.073,1.463A2.319,2.319,0,0,0,1.973-.673,2.092,2.092,0,0,0,3,.039,9.5,9.5,0,0,1,9.065,4.221a5.671,5.671,0,0,1,3.767-.633,9.473,9.473,0,0,1,2.43.984A.945.945,0,0,1,15.6,5.988.983.983,0,0,1,14.1,6.15a3.673,3.673,0,0,0-4.15-.1,9.228,9.228,0,0,1,.227,5.182,1.778,1.778,0,0,1-.542.961,1.155,1.155,0,0,1-.99.071,1.137,1.137,0,0,1-.49-.8A3.276,3.276,0,0,1,8.314,10.4,7.1,7.1,0,0,0-2.823,3.29,10.886,10.886,0,0,0-4.067,4.447C-4.6,5-5.154,5.1-5.612,4.689a1.037,1.037,0,0,1,.038-1.575A9.1,9.1,0,0,1-.553.143C-.379.1-.21.055,0,0" fill="#245965"/>
      </g>
      <g id="Grupo_698" data-name="Grupo 698" transform="translate(17.002 -65.92)">
        <path id="Trazado_997" data-name="Trazado 997" d="M0,0A5.527,5.527,0,0,1,4.066-5.037c1.033-.244,1.813.3,1.533,1.122a1.315,1.315,0,0,1-.76.74A3.408,3.408,0,0,0,2.035.471,1.027,1.027,0,0,1,.7,1.609C.043,1.367.029.759,0,0" fill="#245965"/>
      </g>
      <g id="Grupo_699" data-name="Grupo 699" transform="translate(64.983 -64.94)">
        <path id="Trazado_998" data-name="Trazado 998" d="M0,0A4.71,4.71,0,0,1-3.468,4.722a1.183,1.183,0,0,1-1.379-.277.988.988,0,0,1,.585-1.6c1.761-.5,2.36-1.369,2.214-3.21-.058-.733.236-1.211.8-1.295.617-.092,1.045.268,1.187,1.028A5.7,5.7,0,0,1,0,0" fill="#245965"/>
      </g>
    </g>
  </g>
</svg>
