<?xml version="1.0" encoding="utf-8"?>
<!-- Generator: Adobe Illustrator 24.3.0, SVG Export Plug-In . SVG Version: 6.00 Build 0)  -->
<svg version="1.1" id="Layer_1" xmlns="http://www.w3.org/2000/svg" xmlns:xlink="http://www.w3.org/1999/xlink" x="0px" y="0px"
	 viewBox="0 0 287.4 250" style="enable-background:new 0 0 287.4 250;" xml:space="preserve">
<style type="text/css">
	.st0{opacity:0.38;}
	.st1{clip-path:url(#SVGID_2_);}
	.st2{clip-path:url(#SVGID_4_);}
	.st3{fill:#CEF1FC;}
	.st4{fill:none;}
	.st5{fill:#3F8EA6;}
	.st6{opacity:0.26;}
	.st7{clip-path:url(#SVGID_6_);}
	.st8{fill:#020407;}
	.st9{fill:#FFFCEF;}
	.st10{opacity:5.000000e-02;}
	.st11{clip-path:url(#SVGID_8_);}
	.st12{opacity:0.12;}
	.st13{clip-path:url(#SVGID_10_);}
	.st14{fill:#AED5D2;}
	.st15{fill:#2B2E34;}
	.st16{fill:#779396;}
	.st17{fill:#40BC97;}
</style>
<g id="Grupo_695" transform="translate(848.52 847.089)" class="st0">
	<g id="Grupo_694">
		<g>
			<defs>
				<rect id="SVGID_1_" x="-807.5" y="-843.8" width="239.6" height="239.6"/>
			</defs>
			<clipPath id="SVGID_2_">
				<use xlink:href="#SVGID_1_"  style="overflow:visible;"/>
			</clipPath>
			<g id="Grupo_693" class="st1">
				<g>
					<defs>
						<rect id="SVGID_3_" x="-807.5" y="-843.8" width="239.6" height="239.6"/>
					</defs>
					<clipPath id="SVGID_4_">
						<use xlink:href="#SVGID_3_"  style="overflow:visible;"/>
					</clipPath>
					<g id="Grupo_692" class="st2">
						<g id="Grupo_691" transform="translate(286.006 -126.979)">
							<path id="Trazado_990" class="st3" d="M-854-597.1c0,66.1-53.6,119.8-119.8,119.8c0,0,0,0,0,0
								c-66.1,0-119.8-53.6-119.8-119.8c0,0,0,0,0,0c0-66.2,53.6-119.8,119.8-119.8l0,0C-907.6-716.9-854-663.2-854-597.1
								C-854-597.1-854-597.1-854-597.1"/>
						</g>
					</g>
				</g>
			</g>
		</g>
	</g>
</g>
<path id="Trazado_992" class="st4" d="M0,250h287.4V0H0V250z"/>
<path id="Trazado_993" class="st5" d="M276.4,29.9l1,183l-244.2,1.4l-1.1-183L276.4,29.9z"/>
<g id="Grupo_701" transform="translate(848.52 847.089)" class="st6">
	<g id="Grupo_700">
		<g>
			<defs>
				<rect id="SVGID_5_" x="-808.6" y="-812.1" width="231" height="164.4"/>
			</defs>
			<clipPath id="SVGID_6_">
				<use xlink:href="#SVGID_5_"  style="overflow:visible;"/>
			</clipPath>
			<g id="Grupo_699" class="st7">
				<g id="Grupo_698" transform="translate(276.347 -215.056)">
					<path id="Trazado_994" class="st8" d="M-854-597.1l-230.9,5.6l2.2,7.5L-858-432.7l0-2.7L-854-597.1L-854-597.1z"/>
				</g>
			</g>
		</g>
	</g>
</g>
<path id="Trazado_995" class="st4" d="M0,250h287.4V0H0V250z"/>
<path id="Trazado_996" class="st9" d="M265.9,39.2l0.9,164.6l-226,1.3L39.9,40.5L265.9,39.2z"/>
<g id="Grupo_707" transform="translate(848.52 847.089)" class="st10">
	<g id="Grupo_706">
		<g>
			<defs>
				<rect id="SVGID_7_" x="-809.2" y="-759.5" width="100.3" height="118.4"/>
			</defs>
			<clipPath id="SVGID_8_">
				<use xlink:href="#SVGID_7_"  style="overflow:visible;"/>
			</clipPath>
			<g id="Grupo_705" class="st11">
				<g id="Grupo_704" transform="translate(45.509 -44.038)">
					<path id="Trazado_997" class="st8" d="M-854-597.1l99.6-0.4l-100.3-118L-854-597.1z"/>
				</g>
			</g>
		</g>
	</g>
</g>
<g id="Grupo_711" transform="translate(848.52 847.089)" class="st12">
	<g id="Grupo_710">
		<g>
			<defs>
				<rect id="SVGID_9_" x="-809.5" y="-760.1" width="7.1" height="71.5"/>
			</defs>
			<clipPath id="SVGID_10_">
				<use xlink:href="#SVGID_9_"  style="overflow:visible;"/>
			</clipPath>
			<g id="Grupo_709" class="st13">
				<g id="Grupo_708" transform="translate(51.206 -162.987)">
					<path id="Trazado_998" class="st8" d="M-854-597.1l-6.7,0l0.4,71.5l6.7,0L-854-597.1z"/>
				</g>
			</g>
		</g>
	</g>
</g>
<g id="Grupo_712" transform="translate(873.167 710.575)">
	<path id="Trazado_999" class="st14" d="M-854-597.1l0.1,18.8c0,1.9-1.5,3.5-3.5,3.5c-1.9,0-3.5-1.5-3.5-3.5l-0.1-18.8
		c0-1.9,1.5-3.5,3.5-3.5C-855.6-600.6-854-599-854-597.1 M-854.4-608.8l0,1.1h-0.7c-7,0-12.7,6.6-12.7,14.7l0.1,10.7
		c0,8.1,5.8,14.6,12.8,14.6h0.7l0,1.1c0,8.1,5.8,14.6,12.8,14.6l14.2-0.1l-0.4-71.5l-14.2,0.1C-848.7-623.4-854.4-616.9-854.4-608.8
		"/>
</g>
<path id="Trazado_1000" class="st4" d="M0,250h287.4V0H0V250z"/>
<path id="Trazado_1013" class="st4" d="M74.7,59.6"/>
<g>
	<path id="Trazado_1014" class="st15" d="M93.6,58.9h1v-3.5h1c0.9,0,1.4,0.5,1.6,1.6c0.1,0.7,0.3,1.3,0.5,1.9h1.1
		c-0.3-0.7-0.5-1.5-0.6-2.2c-0.1-0.7-0.5-1.3-1.2-1.6v0c0.9-0.3,1.5-1.1,1.5-2.1c0-0.6-0.2-1.1-0.6-1.5c-0.7-0.5-1.5-0.7-2.3-0.7
		c-0.7,0-1.3,0.1-2,0.2L93.6,58.9z M94.6,51.6c0.3-0.1,0.7-0.1,1-0.1c1.1,0,1.9,0.5,1.9,1.5c0,0.9-0.7,1.5-1.8,1.5h-1.1V51.6z
		 M104.7,56.2c0-0.2,0-0.3,0-0.5c0.2-1.4-0.8-2.6-2.2-2.7c-0.1,0-0.2,0-0.2,0c-1.7,0-2.7,1.4-2.7,3.1c-0.1,1.5,1,2.8,2.5,2.9
		c0.1,0,0.3,0,0.4,0c0.7,0,1.3-0.1,1.9-0.4l-0.2-0.8c-0.5,0.2-1.1,0.3-1.6,0.3c-1,0.1-1.9-0.7-2-1.7c0-0.1,0-0.2,0-0.3H104.7z
		 M100.6,55.4c0-0.9,0.7-1.6,1.6-1.7c0.8,0,1.5,0.7,1.5,1.5c0,0.1,0,0.1,0,0.2H100.6z M110.2,58.9c-0.1-0.5-0.1-0.9-0.1-1.4v-2.2
		c0-1.2-0.4-2.4-2.2-2.4c-0.7,0-1.3,0.2-1.9,0.5l0.2,0.7c0.5-0.3,1-0.4,1.5-0.4c0.7-0.1,1.3,0.4,1.3,1.1c0,0.1,0,0.2,0,0.3v0.1
		c-2.2,0-3.5,0.8-3.5,2.2c0,0.9,0.7,1.7,1.6,1.7c0,0,0.1,0,0.1,0c0.7,0,1.4-0.3,1.8-0.9h0l0.1,0.7H110.2z M109.1,56.9
		c0,0.1,0,0.2-0.1,0.3c-0.2,0.6-0.8,1-1.4,1c-0.5,0-1-0.3-1-0.9c0,0,0-0.1,0-0.1c0-1.1,1.3-1.3,2.5-1.3V56.9z M111.8,58.9h1.1v-8.5
		h-1.1V58.9z M115.7,58.9v-5.8h-1.1v5.8H115.7z M115.2,50.8c-0.4,0-0.7,0.3-0.7,0.6c0,0,0,0,0,0c0,0.3,0.3,0.6,0.6,0.6c0,0,0,0,0,0
		c0.3,0,0.6-0.2,0.7-0.6c0,0,0,0,0-0.1C115.9,51.1,115.6,50.8,115.2,50.8C115.2,50.8,115.2,50.8,115.2,50.8z M116.8,58.9h4.7V58
		h-3.4v0c0.3-0.3,0.5-0.6,0.7-0.9l2.6-3.4l0-0.7h-4.4v0.9h3.1v0c-0.3,0.3-0.5,0.6-0.8,0.9l-2.6,3.4V58.9z M126.8,58.9
		c-0.1-0.5-0.1-0.9-0.1-1.4v-2.2c0-1.2-0.4-2.4-2.2-2.4c-0.7,0-1.3,0.2-1.9,0.5l0.2,0.7c0.5-0.3,1-0.4,1.5-0.4
		c0.7-0.1,1.3,0.4,1.3,1.1c0,0.1,0,0.2,0,0.3v0.1c-2.2,0-3.5,0.8-3.5,2.2c0,0.9,0.7,1.7,1.6,1.7c0,0,0.1,0,0.1,0
		c0.7,0,1.4-0.3,1.8-0.9h0l0.1,0.7H126.8z M125.7,56.9c0,0.1,0,0.2-0.1,0.3c-0.2,0.6-0.8,1-1.4,1c-0.5,0-1-0.3-1-0.9
		c0,0,0-0.1,0-0.1c0-1.1,1.3-1.3,2.5-1.3V56.9z M128.4,58.9h1.1v-3.5c0-0.2,0-0.3,0.1-0.5c0.2-0.6,0.8-1.1,1.4-1.1
		c1,0,1.3,0.8,1.3,1.7v3.3h1.1v-3.5c0-2-1.2-2.5-2.1-2.5c-0.8,0-1.5,0.4-1.9,1.1h0l-0.1-1h-0.9c0,0.5,0,1,0,1.6V58.9z M139,50.3v3.5
		h0c-0.4-0.6-1.1-0.9-1.8-0.9c-1.4,0-2.6,1.2-2.6,3.1c0,1.8,1.1,3,2.5,3c0.8,0,1.6-0.4,2-1.1h0l0,1h0.9c0-0.4,0-1,0-1.5v-7H139z
		 M139,56.4c0,0.2,0,0.3,0,0.5c-0.2,0.7-0.8,1.3-1.5,1.3c-1.1,0-1.7-1-1.7-2.1c0-1.3,0.6-2.2,1.7-2.2c0.7,0,1.4,0.5,1.5,1.2
		c0,0.1,0,0.3,0,0.4V56.4z M144.3,52.9c-1.6,0-2.9,1.2-2.9,2.8c0,0.1,0,0.2,0,0.3c-0.1,1.5,1,2.9,2.5,3c0.1,0,0.2,0,0.3,0
		c1.6,0,2.9-1.2,2.9-2.8c0-0.1,0-0.2,0-0.3c0.1-1.5-1-2.8-2.5-3C144.5,52.9,144.4,52.9,144.3,52.9L144.3,52.9z M144.3,53.7
		c1.2,0,1.7,1.2,1.7,2.2c0,1.3-0.8,2.3-1.8,2.3c-1,0-1.8-1-1.8-2.2C142.5,54.9,143,53.7,144.3,53.7L144.3,53.7z M155.6,56.2
		c0-0.2,0-0.3,0-0.5c0.2-1.4-0.8-2.6-2.2-2.7c-0.1,0-0.2,0-0.2,0c-1.7,0-2.7,1.4-2.7,3.1c-0.1,1.5,1,2.8,2.5,2.9c0.1,0,0.3,0,0.4,0
		c0.7,0,1.3-0.1,1.9-0.4l-0.2-0.8c-0.5,0.2-1.1,0.3-1.6,0.3c-1,0.1-1.9-0.7-2-1.7c0-0.1,0-0.2,0-0.3L155.6,56.2z M151.6,55.4
		c0-0.9,0.7-1.6,1.6-1.7c0.8,0,1.5,0.7,1.5,1.5c0,0.1,0,0.1,0,0.2H151.6z M157,58.9h1.1v-8.5H157V58.9z M162.3,61.2h1v-3.2h0
		c0.4,0.6,1.1,0.9,1.8,0.9c1.4,0,2.6-1,2.6-3.1c0-1.8-1.1-3-2.5-3c-0.8,0-1.6,0.4-2.1,1.1h0l0-1h-0.9c0,0.6,0,1.2,0,1.9V61.2z
		 M163.4,55.5c0-0.1,0-0.3,0.1-0.4c0.2-0.8,0.8-1.3,1.6-1.3c1.1,0,1.7,1,1.7,2.2c0,1.3-0.6,2.2-1.8,2.2c-0.7,0-1.4-0.5-1.6-1.2
		c0-0.1,0-0.3,0-0.4L163.4,55.5z M169.2,58.9h1v-3.1c0-0.2,0-0.3,0-0.5c0.1-0.7,0.7-1.3,1.4-1.4c0.1,0,0.2,0,0.4,0v-1
		c-0.1,0-0.2,0-0.3,0c-0.8,0-1.4,0.5-1.6,1.3h0l0-1.1h-0.9c0,0.5,0,1.1,0,1.8V58.9z M175.4,52.9c-1.6,0-2.9,1.2-2.9,2.8
		c0,0.1,0,0.2,0,0.3c-0.1,1.5,1,2.9,2.5,3c0.1,0,0.2,0,0.3,0c1.6,0,2.9-1.2,2.9-2.8c0-0.1,0-0.2,0-0.3c0.1-1.5-1-2.8-2.5-3
		C175.6,52.9,175.5,52.9,175.4,52.9z M175.4,53.7c1.2,0,1.7,1.2,1.7,2.2c0,1.3-0.8,2.3-1.8,2.3c-1,0-1.8-1-1.8-2.2
		C173.6,54.9,174.2,53.7,175.4,53.7z M183.5,57.9c-0.4,0.2-0.9,0.3-1.3,0.3c-1.1,0-2-0.9-2-2c0-0.1,0-0.1,0-0.2
		c-0.1-1.1,0.7-2.1,1.8-2.2c0.1,0,0.2,0,0.2,0c0.4,0,0.8,0.1,1.2,0.3l0.2-0.8c-0.5-0.2-1-0.3-1.5-0.3c-1.6-0.1-3,1.1-3.1,2.8
		c0,0.1,0,0.2,0,0.3c-0.1,1.5,1,2.8,2.5,3c0.1,0,0.2,0,0.4,0c0.6,0,1.1-0.1,1.7-0.3L183.5,57.9z M189.5,56.2c0-0.2,0-0.3,0-0.5
		c0.2-1.4-0.8-2.6-2.2-2.7c-0.1,0-0.2,0-0.2,0c-1.7,0-2.7,1.4-2.7,3.1c-0.1,1.5,1,2.8,2.5,2.9c0.1,0,0.3,0,0.4,0
		c0.7,0,1.3-0.1,1.9-0.4l-0.2-0.8c-0.5,0.2-1.1,0.3-1.6,0.3c-1,0.1-1.9-0.7-2-1.7c0-0.1,0-0.2,0-0.3L189.5,56.2z M185.5,55.4
		c0-0.9,0.7-1.6,1.6-1.7c0.8,0,1.5,0.7,1.5,1.5c0,0.1,0,0.1,0,0.2H185.5z M190.5,58.6c0.5,0.3,1.1,0.4,1.6,0.4
		c1.4,0,2.2-0.7,2.2-1.7c0-0.9-0.5-1.4-1.5-1.8c-0.8-0.3-1.1-0.5-1.1-1c0-0.4,0.3-0.8,1-0.8c0.4,0,0.8,0.1,1.2,0.3l0.3-0.8
		c-0.4-0.2-0.9-0.4-1.4-0.4c-1-0.1-1.9,0.6-2,1.6c0,0,0,0.1,0,0.1c0,0.7,0.5,1.3,1.5,1.6c0.8,0.3,1.1,0.6,1.1,1.1
		c0,0.5-0.4,0.9-1.1,0.9c-0.5,0-1-0.2-1.4-0.4L190.5,58.6z M198.1,52.9c-1.6,0-2.9,1.2-2.9,2.8c0,0.1,0,0.2,0,0.3
		c-0.1,1.5,1,2.9,2.5,3c0.1,0,0.2,0,0.3,0c1.6,0,2.9-1.2,2.9-2.8c0-0.1,0-0.2,0-0.3c0.1-1.5-1-2.8-2.5-3
		C198.3,52.9,198.2,52.9,198.1,52.9L198.1,52.9z M198.1,53.7c1.2,0,1.7,1.2,1.7,2.2c0,1.3-0.8,2.3-1.8,2.3c-1,0-1.8-1-1.8-2.2
		C196.3,54.9,196.8,53.7,198.1,53.7L198.1,53.7z M208.7,50.3v3.5h0c-0.4-0.6-1.1-0.9-1.8-0.9c-1.4,0-2.6,1.2-2.6,3.1
		c0,1.8,1.1,3,2.5,3c0.8,0,1.6-0.4,2-1.1h0l0,1h0.9c0-0.4,0-1,0-1.5v-7H208.7z M208.7,56.4c0,0.2,0,0.3,0,0.5
		c-0.2,0.7-0.8,1.3-1.5,1.3c-1.1,0-1.7-1-1.7-2.1c0-1.3,0.6-2.2,1.7-2.2c0.7,0,1.4,0.5,1.5,1.2c0,0.1,0,0.3,0,0.4V56.4z M216.2,56.2
		c0-0.2,0-0.3,0-0.5c0.2-1.4-0.8-2.6-2.2-2.7c-0.1,0-0.2,0-0.2,0c-1.7,0-2.7,1.4-2.7,3.1c-0.1,1.5,1,2.8,2.5,2.9c0.1,0,0.3,0,0.4,0
		c0.7,0,1.3-0.1,1.9-0.4l-0.2-0.8c-0.5,0.2-1.1,0.3-1.6,0.3c-1,0.1-1.9-0.7-2-1.7c0-0.1,0-0.2,0-0.3L216.2,56.2z M212.1,55.4
		c0-0.9,0.7-1.6,1.6-1.7c0.8,0,1.5,0.7,1.5,1.5c0,0.1,0,0.1,0,0.2H212.1z M221.1,58.9v-5.8h-1.1v5.8H221.1z M220.6,50.8
		c-0.4,0-0.7,0.3-0.7,0.6c0,0,0,0,0,0c0,0.3,0.3,0.6,0.6,0.6c0,0,0,0,0,0c0.3,0,0.6-0.2,0.7-0.6c0,0,0,0,0-0.1
		C221.3,51.1,221,50.8,220.6,50.8C220.6,50.8,220.6,50.8,220.6,50.8z M222.9,58.9h1.1v-3.5c0-0.2,0-0.3,0.1-0.5
		c0.2-0.6,0.8-1.1,1.4-1.1c1,0,1.3,0.8,1.3,1.7v3.3h1.1v-3.5c0-2-1.2-2.5-2.1-2.5c-0.8,0-1.5,0.4-1.9,1.1h0l-0.1-1h-0.9
		c0,0.5,0,1,0,1.6V58.9z M229.1,58.6c0.5,0.3,1.1,0.4,1.6,0.4c1.4,0,2.2-0.7,2.2-1.7c0-0.9-0.5-1.4-1.5-1.8c-0.8-0.3-1.1-0.5-1.1-1
		c0-0.4,0.3-0.8,1-0.8c0.4,0,0.8,0.1,1.2,0.3l0.3-0.8c-0.4-0.2-0.9-0.4-1.4-0.4c-1-0.1-1.9,0.6-2,1.6c0,0,0,0.1,0,0.1
		c0,0.7,0.5,1.3,1.5,1.6c0.8,0.3,1.1,0.6,1.1,1.1c0,0.5-0.4,0.9-1.1,0.9c-0.5,0-1-0.2-1.4-0.4L229.1,58.6z M238.3,57.9
		c-0.4,0.2-0.9,0.3-1.3,0.3c-1.1,0-2-0.9-2-2c0-0.1,0-0.1,0-0.2c-0.1-1.1,0.7-2.1,1.8-2.2c0.1,0,0.2,0,0.2,0c0.4,0,0.8,0.1,1.2,0.3
		l0.2-0.8c-0.5-0.2-1-0.3-1.5-0.3c-1.6-0.1-3,1.1-3.1,2.8c0,0.1,0,0.2,0,0.3c-0.1,1.5,1,2.8,2.5,3c0.1,0,0.2,0,0.3,0
		c0.6,0,1.1-0.1,1.7-0.3L238.3,57.9z M239.7,58.9h1v-3.1c0-0.2,0-0.3,0-0.5c0.1-0.7,0.7-1.3,1.4-1.4c0.1,0,0.2,0,0.4,0v-1
		c-0.1,0-0.2,0-0.3,0c-0.8,0-1.4,0.5-1.6,1.3h0l0-1.1h-0.9c0,0.5,0,1.1,0,1.8L239.7,58.9z M244.7,58.9v-5.8h-1.1v5.8H244.7z
		 M244.2,50.8c-0.4,0-0.7,0.3-0.7,0.6c0,0,0,0,0,0c0,0.3,0.3,0.6,0.6,0.6c0,0,0,0,0,0c0.3,0,0.6-0.2,0.7-0.6c0,0,0,0,0-0.1
		C244.8,51.1,244.6,50.8,244.2,50.8C244.2,50.8,244.2,50.8,244.2,50.8z M246.5,61.2h1v-3.2h0c0.4,0.6,1.1,0.9,1.8,0.9
		c1.4,0,2.6-1,2.6-3.1c0-1.8-1.1-3-2.5-3c-0.8,0-1.6,0.4-2.1,1.1h0l0-1h-0.9c0,0.6,0,1.2,0,1.9V61.2z M247.5,55.5
		c0-0.1,0-0.3,0.1-0.4c0.2-0.8,0.8-1.3,1.6-1.3c1.1,0,1.7,1,1.7,2.2c0,1.3-0.6,2.2-1.8,2.2c-0.7,0-1.4-0.5-1.6-1.2
		c0-0.1,0-0.3,0-0.4L247.5,55.5z"/>
	<path id="Trazado_1015" class="st15" d="M254.2,55.2V56h3v-0.8H254.2z"/>
	<path id="Trazado_1017" class="st15" d="M97.5,72.3c-0.4,0.2-0.9,0.3-1.3,0.3c-1.1,0-2-0.9-2-2c0-0.1,0-0.1,0-0.2
		c-0.1-1.1,0.7-2.1,1.8-2.2c0.1,0,0.2,0,0.2,0c0.4,0,0.8,0.1,1.2,0.3l0.2-0.8c-0.5-0.2-1-0.3-1.5-0.3c-1.6-0.1-3,1.1-3.1,2.8
		c0,0.1,0,0.2,0,0.3c-0.1,1.5,1,2.8,2.5,3c0.1,0,0.2,0,0.3,0c0.6,0,1.1-0.1,1.7-0.3L97.5,72.3z M100,73.3v-5.8h-1.1v5.8H100z
		 M99.4,65.2c-0.4,0-0.7,0.3-0.7,0.6c0,0,0,0,0,0c0,0.3,0.3,0.6,0.6,0.6c0,0,0,0,0,0c0.3,0,0.6-0.2,0.7-0.6c0,0,0,0,0-0.1
		C100.1,65.5,99.8,65.2,99.4,65.2C99.5,65.2,99.5,65.2,99.4,65.2z M104.2,67.3c-1.6,0-2.9,1.2-2.9,2.8c0,0.1,0,0.2,0,0.3
		c-0.1,1.5,1,2.9,2.5,3c0.1,0,0.2,0,0.3,0c1.6,0,2.9-1.2,2.9-2.8c0-0.1,0-0.2,0-0.3c0.1-1.5-1-2.8-2.5-3
		C104.4,67.3,104.3,67.3,104.2,67.3z M104.1,68.1c1.2,0,1.7,1.2,1.7,2.2c0,1.3-0.8,2.3-1.8,2.3c-1,0-1.8-1-1.8-2.2
		C102.4,69.3,102.9,68.1,104.1,68.1L104.1,68.1z M104.5,64.9l-1.1,1.7h0.8l1.5-1.7L104.5,64.9z M108.3,73.3h1.1v-3.5
		c0-0.2,0-0.3,0.1-0.5c0.2-0.6,0.8-1.1,1.4-1.1c1,0,1.3,0.8,1.3,1.7v3.3h1.1v-3.5c0-2-1.2-2.5-2.1-2.5c-0.8,0-1.5,0.4-1.9,1.1h0
		l-0.1-1h-0.9c0,0.5,0,1,0,1.6V73.3z M122.2,70.6c0-0.2,0-0.3,0-0.5c0.2-1.4-0.8-2.6-2.2-2.7c-0.1,0-0.2,0-0.2,0
		c-1.7,0-2.7,1.4-2.7,3.1c-0.1,1.5,1,2.8,2.5,2.9c0.1,0,0.3,0,0.4,0c0.7,0,1.3-0.1,1.9-0.4l-0.2-0.8c-0.5,0.2-1.1,0.3-1.6,0.3
		c-1,0.1-1.9-0.7-2-1.7c0-0.1,0-0.2,0-0.3H122.2z M118.1,69.8c0-0.9,0.7-1.6,1.6-1.7c0.8,0,1.5,0.7,1.5,1.5c0,0.1,0,0.1,0,0.2H118.1
		z M123.1,73c0.5,0.3,1.1,0.4,1.6,0.4c1.4,0,2.2-0.7,2.2-1.7c0-0.9-0.5-1.4-1.5-1.8c-0.8-0.3-1.1-0.5-1.1-1c0-0.4,0.3-0.8,1-0.8
		c0.4,0,0.8,0.1,1.2,0.3l0.3-0.8c-0.4-0.2-0.9-0.4-1.4-0.4c-1-0.1-1.9,0.6-2,1.6c0,0,0,0.1,0,0.1c0,0.7,0.5,1.3,1.5,1.6
		c0.8,0.3,1.1,0.6,1.1,1.1c0,0.5-0.4,0.9-1.1,0.9c-0.5,0-1-0.2-1.4-0.4L123.1,73z M128.5,66.1v1.4h-0.9v0.8h0.9v3.2
		c-0.1,0.5,0.1,1.1,0.4,1.5c0.3,0.3,0.7,0.5,1.1,0.4c0.3,0,0.6,0,0.9-0.1l0-0.8c-0.2,0.1-0.4,0.1-0.6,0.1c-0.6,0-0.8-0.4-0.8-1.1
		v-3.1h1.5v-0.8h-1.5v-1.7L128.5,66.1z M133.3,73.3v-5.8h-1.1v5.8H133.3z M132.8,65.2c-0.4,0-0.7,0.3-0.7,0.6c0,0,0,0,0,0
		c0,0.3,0.3,0.6,0.6,0.6c0,0,0,0,0,0c0.3,0,0.6-0.2,0.7-0.6c0,0,0,0,0-0.1C133.4,65.5,133.2,65.2,132.8,65.2
		C132.8,65.2,132.8,65.2,132.8,65.2z M135.1,75.6h1v-3.2h0c0.4,0.6,1.1,0.9,1.8,0.9c1.4,0,2.6-1,2.6-3.1c0-1.8-1.1-3-2.5-3
		c-0.8,0-1.6,0.4-2.1,1.1h0l0-1H135c0,0.6,0,1.2,0,1.9L135.1,75.6z M136.1,69.9c0-0.1,0-0.3,0.1-0.4c0.2-0.8,0.8-1.3,1.6-1.3
		c1.1,0,1.7,1,1.7,2.2c0,1.3-0.6,2.2-1.8,2.2c-0.7,0-1.4-0.5-1.6-1.2c0-0.1,0-0.3,0-0.4L136.1,69.9z M146.7,67.5h-1.1V71
		c0,0.2,0,0.4-0.1,0.5c-0.2,0.6-0.8,0.9-1.4,1c-1,0-1.3-0.7-1.3-1.8v-3.2h-1v3.4c0,2,1.1,2.5,2,2.5c0.8,0,1.5-0.4,1.9-1.1h0l0.1,0.9
		h0.9c0-0.5,0-1,0-1.6L146.7,67.5z M148.5,73.3h1.1v-8.5h-1.1V73.3z M155.5,73.3c-0.1-0.5-0.1-0.9-0.1-1.4v-2.2
		c0-1.2-0.4-2.4-2.2-2.4c-0.7,0-1.3,0.2-1.9,0.5l0.2,0.7c0.5-0.3,1-0.4,1.5-0.4c0.7-0.1,1.3,0.4,1.3,1.1c0,0.1,0,0.2,0,0.3v0.1
		c-2.2,0-3.5,0.8-3.5,2.2c0,0.9,0.7,1.7,1.6,1.7c0,0,0.1,0,0.1,0c0.7,0,1.4-0.3,1.8-0.9h0l0.1,0.7H155.5z M154.4,71.3
		c0,0.1,0,0.2-0.1,0.3c-0.2,0.6-0.8,1-1.4,1c-0.5,0-1-0.3-1-0.9c0,0,0-0.1,0-0.1c0-1.1,1.3-1.3,2.5-1.3V71.3z M161.1,64.7v3.5h0
		c-0.4-0.6-1.1-0.9-1.8-0.9c-1.4,0-2.6,1.2-2.6,3.1c0,1.8,1.1,3,2.5,3c0.8,0,1.6-0.4,2-1.1h0l0,1h0.9c0-0.4,0-1,0-1.5v-7H161.1z
		 M161.1,70.8c0,0.2,0,0.3,0,0.5c-0.2,0.7-0.8,1.3-1.5,1.3c-1.1,0-1.7-1-1.7-2.1c0-1.3,0.6-2.2,1.7-2.2c0.7,0,1.4,0.5,1.5,1.2
		c0,0.1,0,0.3,0,0.4L161.1,70.8z M166.3,67.3c-1.6,0-2.9,1.2-2.9,2.8c0,0.1,0,0.2,0,0.3c-0.1,1.5,1,2.9,2.5,3c0.1,0,0.2,0,0.3,0
		c1.6,0,2.9-1.2,2.9-2.8c0-0.1,0-0.2,0-0.3c0.1-1.5-1-2.8-2.5-3C166.5,67.3,166.4,67.3,166.3,67.3L166.3,67.3z M166.3,68.1
		c1.2,0,1.7,1.2,1.7,2.2c0,1.3-0.8,2.3-1.8,2.3c-1,0-1.8-1-1.8-2.2C164.5,69.3,165.1,68.1,166.3,68.1L166.3,68.1z M173,75.6h1v-3.2
		h0c0.4,0.6,1.1,0.9,1.8,0.9c1.4,0,2.6-1,2.6-3.1c0-1.8-1.1-3-2.5-3c-0.8,0-1.6,0.4-2.1,1.1h0l0-1h-1c0,0.6,0,1.2,0,1.9L173,75.6z
		 M174.1,69.9c0-0.1,0-0.3,0.1-0.4c0.2-0.8,0.8-1.3,1.6-1.3c1.1,0,1.7,1,1.7,2.2c0,1.3-0.6,2.2-1.8,2.2c-0.7,0-1.4-0.5-1.6-1.2
		c0-0.1,0-0.3,0-0.4L174.1,69.9z M182.3,67.3c-1.6,0-2.9,1.2-2.9,2.8c0,0.1,0,0.2,0,0.3c-0.1,1.5,1,2.9,2.5,3c0.1,0,0.2,0,0.3,0
		c1.6,0,2.9-1.2,2.9-2.8c0-0.1,0-0.2,0-0.3c0.1-1.5-1-2.8-2.5-3C182.5,67.3,182.4,67.3,182.3,67.3z M182.3,68.1
		c1.2,0,1.7,1.2,1.7,2.2c0,1.3-0.8,2.3-1.8,2.3c-1,0-1.8-1-1.8-2.2C180.5,69.3,181,68.1,182.3,68.1z M186.4,73.3h1v-3.1
		c0-0.2,0-0.3,0-0.5c0.1-0.7,0.7-1.3,1.4-1.4c0.1,0,0.2,0,0.4,0v-1c-0.1,0-0.2,0-0.3,0c-0.8,0-1.4,0.5-1.6,1.3h0l0-1.1h-0.9
		c0,0.5,0,1.1,0,1.8V73.3z M197.6,70.6c0-0.2,0-0.3,0-0.5c0.2-1.4-0.8-2.6-2.2-2.7c-0.1,0-0.2,0-0.2,0c-1.7,0-2.7,1.4-2.7,3.1
		c-0.1,1.5,1,2.8,2.5,2.9c0.1,0,0.3,0,0.4,0c0.7,0,1.3-0.1,1.9-0.4l-0.2-0.8c-0.5,0.2-1.1,0.3-1.6,0.3c-1,0.1-1.9-0.7-2-1.7
		c0-0.1,0-0.2,0-0.3L197.6,70.6z M193.5,69.8c0-0.9,0.7-1.6,1.6-1.7c0.8,0,1.5,0.7,1.5,1.5c0,0.1,0,0.1,0,0.2H193.5z M198.9,73.3
		h1.1v-8.5h-1.1L198.9,73.3z M203.9,72.9c0.6,0.3,1.3,0.5,2.1,0.5c1.9,0,2.8-1.1,2.8-2.3c0-1.2-0.7-1.8-2.1-2.4
		c-1.1-0.4-1.6-0.8-1.6-1.6c0-0.6,0.4-1.2,1.5-1.2c0.5,0,1.1,0.1,1.5,0.4l0.3-0.9c-0.6-0.3-1.2-0.4-1.8-0.4c-1.3-0.2-2.4,0.7-2.6,2
		c0,0.1,0,0.1,0,0.2c0,1.1,0.8,1.8,2.1,2.3c1.1,0.4,1.5,0.9,1.5,1.6c0,0.8-0.6,1.4-1.7,1.4c-0.7,0-1.3-0.2-1.9-0.5L203.9,72.9z
		 M214.4,68.6h-3.1v-2.6h3.3v-0.9h-4.4v8.1h4.5v-0.9h-3.5v-2.9h3.1L214.4,68.6z M217.1,73.3v-3.5c0-1.3,0-2.3-0.1-3.3l0,0
		c0.4,0.9,1,1.8,1.5,2.7l2.6,4.1h1.1v-8.1h-1v3.4c0,1.3,0,2.2,0.1,3.3l0,0c-0.4-0.9-0.9-1.8-1.5-2.6l-2.6-4.1h-1.1v8.1H217.1z
		 M228.2,70.7l0.9,2.5h1.1l-2.8-8.1h-1.3l-2.7,8.1h1.1l0.8-2.5H228.2z M225.6,69.9l0.8-2.3c0.2-0.5,0.3-1,0.4-1.5h0
		c0.1,0.5,0.2,0.9,0.4,1.5l0.8,2.3H225.6z M231.8,73.4c0.4,0,0.7-0.3,0.7-0.7c0,0,0-0.1,0-0.1c0-0.4-0.3-0.7-0.6-0.8c0,0,0,0-0.1,0
		c-0.4,0-0.7,0.3-0.7,0.7c0,0,0,0,0,0.1C231.1,73,231.4,73.4,231.8,73.4C231.8,73.4,231.8,73.4,231.8,73.4z M74.7,87.7"/>
</g>
<g>
	<path id="Trazado_1018" class="st15" d="M99,93.6c-0.5,0.2-1.1,0.3-1.7,0.3c-1.6,0.1-3-1.1-3.1-2.7c0-0.2,0-0.3,0-0.5
		c-0.2-1.7,1-3.1,2.7-3.3c0.2,0,0.3,0,0.5,0c0.6,0,1.1,0.1,1.6,0.3l0.3-0.9c-0.6-0.3-1.3-0.4-1.9-0.4c-2.2-0.1-4.1,1.6-4.2,3.8
		c0,0.1,0,0.3,0,0.4c-0.2,2.1,1.4,3.9,3.4,4.1c0.2,0,0.4,0,0.6,0c0.7,0,1.5-0.1,2.1-0.4L99,93.6z M105.2,88.9h-1v3.6
		c0,0.2,0,0.4-0.1,0.5c-0.2,0.6-0.8,0.9-1.4,1c-1,0-1.3-0.7-1.3-1.8v-3.2h-1.1v3.4c0,2,1.1,2.5,2,2.5c0.8,0,1.5-0.4,1.9-1.1h0
		l0.1,0.9h0.9c0-0.5,0-1,0-1.6L105.2,88.9z M107,94.7h1v-3.5c0-0.2,0-0.4,0.1-0.5c0.2-0.6,0.7-1,1.3-1.1c0.8,0,1.2,0.7,1.2,1.6v3.5
		h1v-3.6c0-0.2,0-0.4,0.1-0.5c0.2-0.6,0.7-0.9,1.2-1c0.9,0,1.3,0.7,1.3,1.8v3.3h1v-3.4c0-2-1.1-2.5-1.9-2.5c-0.5,0-0.9,0.1-1.3,0.4
		c-0.3,0.2-0.5,0.5-0.6,0.8h0c-0.2-0.7-0.9-1.2-1.6-1.2c-0.8,0-1.5,0.4-1.8,1.1h0l0-0.9h-0.9c0,0.5,0,1,0,1.6L107,94.7z M117,97.1h1
		v-3.2h0c0.4,0.6,1.1,0.9,1.8,0.9c1.4,0,2.6-1,2.6-3.1c0-1.8-1.1-3-2.5-3c-0.8,0-1.6,0.4-2.1,1.1h0l0-1h-0.9c0,0.6,0,1.2,0,1.9V97.1
		z M118,91.3c0-0.1,0-0.3,0.1-0.4c0.2-0.8,0.8-1.3,1.6-1.3c1.1,0,1.7,1,1.7,2.2c0,1.3-0.7,2.2-1.8,2.2c-0.7,0-1.4-0.5-1.6-1.2
		c0-0.1,0-0.3,0-0.4L118,91.3z M123.8,94.7h1.1v-8.5h-1.1V94.7z M127.7,94.7v-5.8h-1.1v5.8H127.7z M127.2,86.6
		c-0.4,0-0.7,0.3-0.7,0.6c0,0,0,0,0,0c0,0.3,0.3,0.6,0.6,0.6c0,0,0,0,0,0c0.3,0,0.6-0.2,0.7-0.6c0,0,0,0,0-0.1
		C127.8,86.9,127.6,86.6,127.2,86.6C127.2,86.6,127.2,86.6,127.2,86.6z M134.1,92c0-0.2,0-0.3,0-0.5c0.2-1.4-0.8-2.6-2.2-2.7
		c-0.1,0-0.2,0-0.2,0c-1.7,0-2.7,1.4-2.7,3.1c-0.1,1.5,1,2.8,2.5,2.9c0.1,0,0.3,0,0.4,0c0.7,0,1.3-0.1,1.9-0.4l-0.2-0.8
		c-0.5,0.2-1.1,0.3-1.6,0.3c-1,0.1-1.9-0.7-2-1.7c0-0.1,0-0.2,0-0.3L134.1,92z M130,91.2c0-0.9,0.7-1.6,1.6-1.7
		c0.8,0,1.5,0.7,1.5,1.5c0,0.1,0,0.1,0,0.2H130z M135.4,94.7h1.1v-3.5c0-0.2,0-0.3,0.1-0.5c0.2-0.6,0.8-1.1,1.4-1.1
		c1,0,1.3,0.8,1.3,1.7v3.3h1.1v-3.5c0-2-1.2-2.5-2.1-2.5c-0.8,0-1.5,0.4-1.9,1.1h0l-0.1-1h-0.9c0,0.5,0,1,0,1.6V94.7z M146.1,86.2
		v3.5h0c-0.4-0.6-1.1-0.9-1.8-0.9c-1.4,0-2.6,1.2-2.6,3.1c0,1.8,1.1,3,2.5,3c0.8,0,1.6-0.4,2-1.1h0l0,1h0.9c0-0.4,0-1,0-1.5v-7
		H146.1z M146.1,92.2c0,0.2,0,0.3,0,0.5c-0.2,0.7-0.8,1.3-1.5,1.3c-1.1,0-1.7-1-1.7-2.1c0-1.3,0.6-2.2,1.7-2.2
		c0.7,0,1.4,0.5,1.5,1.2c0,0.1,0,0.3,0,0.4V92.2z M151.3,88.7c-1.6,0-2.9,1.2-2.9,2.8c0,0.1,0,0.2,0,0.3c-0.1,1.5,1,2.9,2.5,3
		c0.1,0,0.2,0,0.3,0c1.6,0,2.9-1.2,2.9-2.8c0-0.1,0-0.2,0-0.3c0.1-1.5-1-2.8-2.5-3C151.5,88.7,151.4,88.7,151.3,88.7L151.3,88.7z
		 M151.3,89.5c1.2,0,1.7,1.2,1.7,2.2c0,1.3-0.8,2.3-1.8,2.3c-1,0-1.8-1-1.8-2.2C149.5,90.7,150.1,89.5,151.3,89.5L151.3,89.5z
		 M162,93.7c-0.4,0.2-0.9,0.3-1.3,0.3c-1.1,0-2-0.9-2-2c0-0.1,0-0.1,0-0.2c-0.1-1.1,0.7-2.1,1.8-2.2c0.1,0,0.2,0,0.2,0
		c0.4,0,0.8,0.1,1.2,0.3l0.2-0.8c-0.5-0.2-1-0.3-1.5-0.3c-1.6-0.1-3,1.1-3.1,2.8c0,0.1,0,0.2,0,0.3c-0.1,1.5,1,2.8,2.5,3
		c0.1,0,0.2,0,0.4,0c0.6,0,1.1-0.1,1.7-0.3L162,93.7z M165.8,88.7c-1.6,0-2.9,1.2-2.9,2.8c0,0.1,0,0.2,0,0.3c-0.1,1.5,1,2.9,2.5,3
		c0.1,0,0.2,0,0.3,0c1.6,0,2.9-1.2,2.9-2.8c0-0.1,0-0.2,0-0.3c0.1-1.5-1-2.8-2.5-3C166,88.7,165.9,88.7,165.8,88.7L165.8,88.7z
		 M165.7,89.5c1.2,0,1.7,1.2,1.7,2.2c0,1.3-0.8,2.3-1.8,2.3c-1,0-1.8-1-1.8-2.2C164,90.7,164.5,89.5,165.7,89.5L165.7,89.5z
		 M169.9,94.7h1.1v-3.5c0-0.2,0-0.3,0.1-0.5c0.2-0.6,0.8-1.1,1.4-1.1c1,0,1.3,0.8,1.3,1.7v3.3h1.1v-3.5c0-2-1.2-2.5-2.1-2.5
		c-0.8,0-1.5,0.4-1.9,1.1h0l-0.1-1h-0.9c0,0.5,0,1,0,1.6L169.9,94.7z M179.1,94.7h1.1v-8.5h-1.1L179.1,94.7z M186.1,94.7
		c-0.1-0.5-0.1-0.9-0.1-1.4v-2.2c0-1.2-0.4-2.4-2.2-2.4c-0.7,0-1.3,0.2-1.9,0.5l0.2,0.7c0.5-0.3,1-0.4,1.5-0.4
		c0.7-0.1,1.3,0.4,1.3,1.1c0,0.1,0,0.2,0,0.3V91c-2.2,0-3.5,0.8-3.5,2.2c0,0.9,0.7,1.7,1.6,1.7c0,0,0.1,0,0.1,0
		c0.7,0,1.4-0.3,1.8-0.9h0l0.1,0.7H186.1z M185,92.7c0,0.1,0,0.2-0.1,0.3c-0.2,0.6-0.8,1-1.4,1c-0.5,0-1-0.3-1-0.9c0,0,0-0.1,0-0.1
		c0-1.1,1.3-1.3,2.5-1.3V92.7z M194.9,92c0-0.2,0-0.3,0-0.5c0.2-1.4-0.8-2.6-2.2-2.7c-0.1,0-0.2,0-0.2,0c-1.7,0-2.7,1.4-2.7,3.1
		c-0.1,1.5,1,2.8,2.5,2.9c0.1,0,0.3,0,0.4,0c0.7,0,1.3-0.1,1.9-0.4l-0.2-0.8c-0.5,0.2-1.1,0.3-1.6,0.3c-1,0.1-1.9-0.7-2-1.7
		c0-0.1,0-0.2,0-0.3H194.9z M190.9,91.2c0-0.9,0.7-1.6,1.6-1.7c0.8,0,1.5,0.7,1.5,1.5c0,0.1,0,0.1,0,0.2H190.9z M196.3,94.7h1.1
		v-3.5c0-0.2,0-0.3,0.1-0.5c0.2-0.6,0.8-1.1,1.4-1.1c1,0,1.3,0.8,1.3,1.7v3.3h1.1v-3.5c0-2-1.2-2.5-2.1-2.5c-0.8,0-1.5,0.4-1.9,1.1
		h0l-0.1-1h-0.9c0,0.5,0,1,0,1.6V94.7z M203.1,87.5v1.4h-0.9v0.8h0.9v3.2c-0.1,0.5,0.1,1.1,0.4,1.5c0.3,0.3,0.7,0.5,1.1,0.4
		c0.3,0,0.6,0,0.9-0.1l0-0.8c-0.2,0.1-0.4,0.1-0.6,0.1c-0.6,0-0.8-0.4-0.8-1.1v-3.1h1.5v-0.8h-1.5v-1.7L203.1,87.5z M206.9,94.7h1
		v-3.1c0-0.2,0-0.3,0-0.5c0.1-0.7,0.7-1.3,1.4-1.4c0.1,0,0.2,0,0.4,0v-1c-0.1,0-0.2,0-0.3,0c-0.8,0-1.4,0.5-1.6,1.3h0l0-1.1h-0.9
		c0,0.5,0,1.1,0,1.8L206.9,94.7z M215.3,92c0-0.2,0-0.3,0-0.5c0.2-1.4-0.8-2.6-2.2-2.7c-0.1,0-0.2,0-0.2,0c-1.7,0-2.7,1.4-2.7,3.1
		c-0.1,1.5,1,2.8,2.5,2.9c0.1,0,0.3,0,0.4,0c0.7,0,1.3-0.1,1.9-0.4l-0.2-0.8c-0.5,0.2-1.1,0.3-1.6,0.3c-1,0.1-1.9-0.7-2-1.7
		c0-0.1,0-0.2,0-0.3H215.3z M211.3,91.2c0-0.9,0.7-1.6,1.6-1.7c0.8,0,1.5,0.7,1.5,1.5c0,0.1,0,0.1,0,0.2H211.3z M220.7,88.9l0,0.9h0
		c-0.4-0.7-1.1-1.1-1.8-1c-1.5,0.1-2.7,1.4-2.6,2.9c0,0,0,0.1,0,0.1c-0.1,1.4,0.9,2.7,2.4,2.8c0,0,0.1,0,0.1,0c0.7,0,1.5-0.3,1.8-1
		h0v0.6c0,1.5-0.8,2-1.9,2c-0.6,0-1.2-0.2-1.7-0.5l-0.3,0.8c0.6,0.3,1.3,0.5,1.9,0.5c0.8,0,1.5-0.2,2.1-0.7c0.6-0.7,1-1.7,0.8-2.7
		v-3.4c0-0.7,0-1.2,0-1.6L220.7,88.9z M220.6,92.2c0,0.2,0,0.4-0.1,0.6c-0.2,0.6-0.8,1.1-1.5,1.1c-1.1,0-1.7-0.9-1.7-2.1
		c0-1.3,0.7-2.2,1.7-2.2c0.7,0,1.3,0.5,1.5,1.1c0,0.2,0.1,0.3,0.1,0.5L220.6,92.2z M227.6,94.7c-0.1-0.5-0.1-0.9-0.1-1.4v-2.2
		c0-1.2-0.4-2.4-2.2-2.4c-0.7,0-1.3,0.2-1.9,0.5l0.2,0.7c0.5-0.3,1-0.4,1.5-0.4c0.7-0.1,1.3,0.4,1.3,1.1c0,0.1,0,0.2,0,0.3V91
		c-2.2,0-3.5,0.8-3.5,2.2c0,0.9,0.7,1.7,1.6,1.7c0,0,0.1,0,0.1,0c0.7,0,1.4-0.3,1.8-0.9h0l0.1,0.7H227.6z M226.4,92.7
		c0,0.1,0,0.2-0.1,0.3c-0.2,0.6-0.8,1-1.4,1c-0.5,0-1-0.3-1-0.9c0,0,0-0.1,0-0.1c0-1.1,1.3-1.3,2.5-1.3L226.4,92.7z M235.7,86.2v3.5
		h0c-0.4-0.6-1.1-0.9-1.8-0.9c-1.4,0-2.6,1.2-2.6,3.1c0,1.8,1.1,3,2.5,3c0.8,0,1.6-0.4,2-1.1h0l0,1h0.9c0-0.4,0-1,0-1.5v-7H235.7z
		 M235.7,92.2c0,0.2,0,0.3,0,0.5c-0.2,0.7-0.8,1.3-1.5,1.3c-1.1,0-1.7-1-1.7-2.1c0-1.3,0.6-2.2,1.7-2.2c0.7,0,1.4,0.5,1.5,1.2
		c0,0.1,0,0.3,0,0.4L235.7,92.2z M243.1,92c0-0.2,0-0.3,0-0.5c0.2-1.4-0.8-2.6-2.2-2.7c-0.1,0-0.2,0-0.2,0c-1.7,0-2.7,1.4-2.7,3.1
		c-0.1,1.5,1,2.8,2.5,2.9c0.1,0,0.3,0,0.4,0c0.7,0,1.3-0.1,1.9-0.4l-0.2-0.8c-0.5,0.2-1.1,0.3-1.6,0.3c-1,0.1-1.9-0.7-2-1.7
		c0-0.1,0-0.2,0-0.3L243.1,92z M239.1,91.2c0-0.9,0.7-1.6,1.6-1.7c0.8,0,1.5,0.7,1.5,1.5c0,0.1,0,0.1,0,0.2H239.1z"/>
	<path id="Trazado_1019" class="st15" d="M98.2,106.4c0-0.2,0-0.3,0-0.5c0.2-1.4-0.8-2.6-2.2-2.7c-0.1,0-0.2,0-0.2,0
		c-1.7,0-2.7,1.4-2.7,3.1c-0.1,1.5,1,2.8,2.5,2.9c0.1,0,0.3,0,0.4,0c0.7,0,1.3-0.1,1.9-0.4l-0.2-0.8c-0.5,0.2-1.1,0.3-1.6,0.3
		c-1,0.1-1.9-0.7-2-1.7c0-0.1,0-0.2,0-0.3H98.2z M94.1,105.6c0-0.9,0.7-1.7,1.6-1.7c0.8,0,1.5,0.7,1.5,1.5c0,0.1,0,0.1,0,0.2H94.1z
		 M98.8,103.3l2.2,5.8h1l2.3-5.8h-1.1l-1.1,3.3c-0.2,0.5-0.4,1-0.5,1.5h0c-0.1-0.5-0.3-1-0.5-1.5l-1.1-3.3H98.8z M106.4,109.1v-5.8
		h-1.1v5.8H106.4z M105.8,101c-0.4,0-0.7,0.3-0.7,0.6c0,0,0,0,0,0c0,0.3,0.3,0.6,0.6,0.6c0,0,0,0,0,0c0.3,0,0.6-0.2,0.7-0.6
		c0,0,0,0,0-0.1C106.5,101.3,106.2,101,105.8,101C105.9,101,105.9,101,105.8,101z M112.1,100.6v3.5h0c-0.4-0.6-1.1-0.9-1.8-0.9
		c-1.4,0-2.6,1.2-2.6,3.1c0,1.8,1.1,3,2.5,3c0.8,0,1.6-0.4,2-1.1h0l0,1h0.9c0-0.4,0-1,0-1.5v-7H112.1z M112.1,106.6
		c0,0.2,0,0.3,0,0.5c-0.2,0.7-0.8,1.3-1.5,1.3c-1.1,0-1.7-1-1.7-2.1c0-1.3,0.6-2.2,1.7-2.2c0.7,0,1.4,0.5,1.5,1.2c0,0.1,0,0.3,0,0.4
		V106.6z M119.6,106.4c0-0.2,0-0.3,0-0.5c0.2-1.4-0.8-2.6-2.2-2.7c-0.1,0-0.2,0-0.2,0c-1.7,0-2.7,1.4-2.7,3.1
		c-0.1,1.5,1,2.8,2.5,2.9c0.1,0,0.3,0,0.4,0c0.7,0,1.3-0.1,1.9-0.4l-0.2-0.8c-0.5,0.2-1.1,0.3-1.6,0.3c-1,0.1-1.9-0.7-2-1.7
		c0-0.1,0-0.2,0-0.3L119.6,106.4z M115.5,105.6c0-0.9,0.7-1.6,1.6-1.7c0.8,0,1.5,0.7,1.5,1.5c0,0.1,0,0.1,0,0.2H115.5z M120.9,109.1
		h1.1v-3.5c0-0.2,0-0.3,0.1-0.5c0.2-0.6,0.8-1.1,1.4-1.1c1,0,1.3,0.8,1.3,1.7v3.3h1.1v-3.5c0-2-1.2-2.5-2.1-2.5
		c-0.8,0-1.5,0.4-1.9,1.1h0l-0.1-1h-0.9c0,0.5,0,1,0,1.6V109.1z M131.5,108.1c-0.4,0.2-0.9,0.3-1.3,0.3c-1.1,0-2-0.9-2-2
		c0-0.1,0-0.1,0-0.2c-0.1-1.1,0.7-2.1,1.8-2.2c0.1,0,0.2,0,0.2,0c0.4,0,0.8,0.1,1.2,0.3l0.2-0.8c-0.5-0.2-1-0.3-1.5-0.3
		c-1.6-0.1-3,1.1-3.1,2.8c0,0.1,0,0.2,0,0.3c-0.1,1.5,1,2.8,2.5,3c0.1,0,0.2,0,0.4,0c0.6,0,1.1-0.1,1.7-0.3L131.5,108.1z M134,109.1
		v-5.8h-1.1v5.8H134z M133.5,101c-0.4,0-0.7,0.3-0.7,0.6c0,0,0,0,0,0c0,0.3,0.3,0.6,0.6,0.6c0,0,0,0,0,0c0.3,0,0.6-0.2,0.7-0.6
		c0,0,0,0,0-0.1C134.1,101.3,133.9,101,133.5,101C133.5,101,133.5,101,133.5,101z M139.9,109.1c-0.1-0.5-0.1-0.9-0.1-1.4v-2.2
		c0-1.2-0.4-2.4-2.2-2.4c-0.7,0-1.3,0.2-1.9,0.5l0.2,0.7c0.5-0.3,1-0.4,1.5-0.4c0.7-0.1,1.3,0.4,1.3,1.1c0,0.1,0,0.2,0,0.3v0.1
		c-2.2,0-3.5,0.8-3.5,2.2c0,0.9,0.7,1.7,1.6,1.7c0,0,0.1,0,0.1,0c0.7,0,1.4-0.3,1.8-0.9h0l0.1,0.7H139.9z M138.8,107.1
		c0,0.1,0,0.2-0.1,0.3c-0.2,0.6-0.8,1-1.4,1c-0.5,0-1-0.3-1-0.9c0,0,0-0.1,0-0.1c0-1.1,1.3-1.3,2.5-1.3L138.8,107.1z M141.1,108.8
		c0.5,0.3,1.1,0.4,1.6,0.4c1.4,0,2.2-0.7,2.2-1.7c0-0.9-0.5-1.4-1.5-1.8c-0.8-0.3-1.1-0.5-1.1-1c0-0.4,0.3-0.8,1-0.8
		c0.4,0,0.8,0.1,1.2,0.3l0.3-0.8c-0.4-0.2-0.9-0.4-1.4-0.4c-1-0.1-1.9,0.6-2,1.6c0,0,0,0.1,0,0.1c0,0.7,0.5,1.3,1.5,1.6
		c0.8,0.3,1.1,0.6,1.1,1.1c0,0.5-0.4,0.9-1.1,0.9c-0.5,0-1-0.2-1.4-0.4L141.1,108.8z M153.5,106.4c0-0.2,0-0.3,0-0.5
		c0.2-1.4-0.8-2.6-2.2-2.7c-0.1,0-0.2,0-0.2,0c-1.7,0-2.7,1.4-2.7,3.1c-0.1,1.5,1,2.8,2.5,2.9c0.1,0,0.3,0,0.4,0
		c0.7,0,1.3-0.1,1.9-0.4l-0.2-0.8c-0.5,0.2-1.1,0.3-1.6,0.3c-1,0.1-1.9-0.7-2-1.7c0-0.1,0-0.2,0-0.3H153.5z M149.4,105.6
		c0-0.9,0.7-1.6,1.6-1.7c0.8,0,1.5,0.7,1.5,1.5c0,0.1,0,0.1,0,0.2H149.4z M154.1,103.3l2,2.8l-2.1,3h1.2l0.8-1.3
		c0.2-0.3,0.4-0.7,0.6-1h0c0.2,0.3,0.4,0.7,0.6,1l0.9,1.3h1.2l-2-3l2-2.8h-1.1l-0.8,1.2c-0.2,0.3-0.4,0.6-0.6,1h0
		c-0.2-0.3-0.4-0.6-0.6-0.9l-0.8-1.2H154.1z M161.4,109.1v-5.8h-1.1v5.8H161.4z M160.9,101c-0.4,0-0.7,0.3-0.7,0.6c0,0,0,0,0,0
		c0,0.3,0.3,0.6,0.6,0.6c0,0,0,0,0,0c0.3,0,0.6-0.2,0.7-0.6c0,0,0,0,0-0.1C161.6,101.3,161.3,101,160.9,101
		C160.9,101,160.9,101,160.9,101z M167.2,103.3l0,0.9h0c-0.4-0.7-1.1-1.1-1.8-1c-1.5,0.1-2.7,1.4-2.6,2.9c0,0,0,0.1,0,0.1
		c-0.1,1.4,0.9,2.7,2.4,2.8c0,0,0.1,0,0.1,0c0.7,0,1.5-0.3,1.8-1h0v0.6c0,1.5-0.8,2-1.9,2c-0.6,0-1.2-0.2-1.7-0.5l-0.3,0.8
		c0.6,0.3,1.3,0.5,1.9,0.5c0.8,0,1.5-0.2,2.1-0.7c0.6-0.7,0.9-1.7,0.8-2.6v-3.4c0-0.7,0-1.2,0-1.6L167.2,103.3z M167.1,106.6
		c0,0.2,0,0.4-0.1,0.6c-0.2,0.6-0.8,1.1-1.5,1.1c-1.1,0-1.7-0.9-1.7-2.1c0-1.3,0.7-2.2,1.7-2.2c0.7,0,1.3,0.5,1.5,1.1
		c0,0.2,0.1,0.3,0.1,0.5L167.1,106.6z M170.9,109.1v-5.8h-1.1v5.8H170.9z M170.3,101c-0.4,0-0.7,0.3-0.7,0.6c0,0,0,0,0,0
		c0,0.3,0.3,0.6,0.6,0.6c0,0,0,0,0,0c0.3,0,0.6-0.2,0.7-0.6c0,0,0,0,0-0.1C171,101.3,170.7,101,170.3,101
		C170.4,101,170.3,101,170.3,101L170.3,101z M176.6,100.6v3.5h0c-0.4-0.6-1-0.9-1.7-0.9c-1.4,0-2.6,1.2-2.6,3.1c0,1.8,1.1,3,2.5,3
		c0.8,0,1.6-0.4,2-1.1h0l0,1h0.9c0-0.4,0-1,0-1.5v-7H176.6z M176.6,106.6c0,0.2,0,0.3,0,0.5c-0.2,0.7-0.8,1.3-1.5,1.3
		c-1.1,0-1.7-1-1.7-2.1c0-1.3,0.6-2.2,1.7-2.2c0.7,0,1.4,0.5,1.5,1.2c0,0.1,0,0.3,0,0.4L176.6,106.6z M181.8,103.1
		c-1.6,0-2.9,1.2-2.9,2.8c0,0.1,0,0.2,0,0.3c-0.1,1.5,1,2.9,2.5,3c0.1,0,0.2,0,0.3,0c1.6,0,2.9-1.2,2.9-2.8c0-0.1,0-0.2,0-0.3
		c0.1-1.5-1-2.8-2.5-3C182,103.1,181.9,103.1,181.8,103.1L181.8,103.1z M181.8,103.9c1.2,0,1.7,1.2,1.7,2.2c0,1.3-0.8,2.3-1.8,2.3
		c-1,0-1.8-1-1.8-2.2C180,105.1,180.6,103.9,181.8,103.9L181.8,103.9z M185.6,108.8c0.5,0.3,1.1,0.4,1.6,0.4c1.4,0,2.2-0.7,2.2-1.7
		c0-0.9-0.5-1.4-1.5-1.8c-0.8-0.3-1.1-0.5-1.1-1c0-0.4,0.3-0.8,1-0.8c0.4,0,0.8,0.1,1.2,0.3l0.3-0.8c-0.4-0.2-0.9-0.4-1.4-0.4
		c-1-0.1-1.9,0.6-2,1.6c0,0,0,0.1,0,0.1c0,0.7,0.5,1.3,1.5,1.6c0.8,0.3,1.1,0.6,1.1,1.1c0,0.5-0.4,0.9-1.1,0.9c-0.5,0-1-0.2-1.4-0.4
		L185.6,108.8z M193.3,111.5h1v-3.2h0c0.4,0.6,1.1,0.9,1.8,0.9c1.4,0,2.6-1,2.6-3.1c0-1.8-1.1-3-2.5-3c-0.8,0-1.6,0.4-2.1,1.1h0l0-1
		h-0.9c0,0.6,0,1.2,0,1.9V111.5z M194.3,105.7c0-0.1,0-0.3,0.1-0.4c0.2-0.8,0.8-1.3,1.6-1.3c1.1,0,1.7,1,1.7,2.2
		c0,1.3-0.6,2.2-1.8,2.2c-0.7,0-1.4-0.5-1.6-1.2c0-0.1,0-0.3,0-0.4L194.3,105.7z M202.6,103.1c-1.6,0-2.9,1.2-2.9,2.8
		c0,0.1,0,0.2,0,0.3c-0.1,1.5,1,2.9,2.5,3c0.1,0,0.2,0,0.3,0c1.6,0,2.9-1.2,2.9-2.8c0-0.1,0-0.2,0-0.3c0.1-1.5-1-2.8-2.5-3
		C202.7,103.1,202.7,103.1,202.6,103.1z M202.5,103.9c1.2,0,1.7,1.2,1.7,2.2c0,1.3-0.8,2.3-1.8,2.3c-1,0-1.8-1-1.8-2.2
		C200.7,105.1,201.3,103.9,202.5,103.9L202.5,103.9z M206.7,109.1h1V106c0-0.2,0-0.3,0-0.5c0.1-0.7,0.7-1.3,1.4-1.4
		c0.1,0,0.2,0,0.4,0v-1c-0.1,0-0.2,0-0.3,0c-0.8,0-1.4,0.5-1.6,1.3h0l0-1.1h-0.9c0,0.5,0,1.1,0,1.8L206.7,109.1z M217.8,106.4
		c0-0.2,0-0.3,0-0.5c0.2-1.4-0.8-2.6-2.2-2.7c-0.1,0-0.2,0-0.2,0c-1.7,0-2.7,1.4-2.7,3.1c-0.1,1.5,1,2.8,2.5,2.9c0.1,0,0.3,0,0.4,0
		c0.7,0,1.3-0.1,1.9-0.4l-0.2-0.8c-0.5,0.2-1.1,0.3-1.6,0.3c-1,0.1-1.9-0.7-2-1.7c0-0.1,0-0.2,0-0.3L217.8,106.4z M213.7,105.6
		c0-0.9,0.7-1.6,1.6-1.7c0.8,0,1.5,0.7,1.5,1.5c0,0.1,0,0.1,0,0.2H213.7z M219.2,109.1h1.1v-8.5h-1.1V109.1z M224.2,108.7
		c0.6,0.3,1.3,0.5,2.1,0.5c1.9,0,2.8-1.1,2.8-2.3c0-1.2-0.7-1.8-2.1-2.4c-1.1-0.4-1.6-0.8-1.6-1.6c0-0.6,0.4-1.2,1.5-1.2
		c0.5,0,1.1,0.1,1.5,0.4l0.3-0.9c-0.6-0.3-1.2-0.4-1.8-0.4c-1.3-0.2-2.4,0.7-2.6,2c0,0.1,0,0.1,0,0.2c0,1.1,0.8,1.8,2.1,2.3
		c1.1,0.4,1.5,0.9,1.5,1.6c0,0.8-0.6,1.4-1.7,1.4c-0.7,0-1.3-0.2-1.9-0.5L224.2,108.7z M234.7,104.4h-3.1v-2.6h3.3V101h-4.4v8.1h4.5
		v-0.9h-3.5v-2.9h3.1L234.7,104.4z M237.4,109.1v-3.5c0-1.3,0-2.3-0.1-3.3l0,0c0.4,0.9,1,1.8,1.5,2.7l2.6,4.1h1.1V101h-1v3.4
		c0,1.3,0,2.2,0.1,3.3l0,0c-0.4-0.9-0.9-1.8-1.5-2.6l-2.6-4.1h-1.1v8.1H237.4z M248.5,106.5l0.9,2.5h1.1l-2.8-8.1h-1.3l-2.7,8.1h1.1
		l0.8-2.5H248.5z M245.8,105.7l0.8-2.3c0.2-0.5,0.3-1,0.4-1.5h0c0.1,0.5,0.2,0.9,0.4,1.5l0.8,2.3L245.8,105.7z"/>
	<path id="Trazado_1020" class="st15" d="M93.5,125.9h1v-3.2h0c0.4,0.6,1.1,0.9,1.8,0.9c1.4,0,2.6-1,2.6-3.1c0-1.8-1.1-3-2.5-3
		c-0.8,0-1.6,0.4-2.1,1.1h0l0-1h-0.9c0,0.6,0,1.2,0,1.9V125.9z M94.6,120.1c0-0.1,0-0.3,0.1-0.4c0.2-0.7,0.8-1.3,1.6-1.3
		c1.1,0,1.7,1,1.7,2.2c0,1.3-0.6,2.2-1.8,2.2c-0.7,0-1.4-0.5-1.6-1.2c0-0.1,0-0.3,0-0.4V120.1z M104.5,123.5
		c-0.1-0.5-0.1-0.9-0.1-1.4v-2.2c0-1.2-0.4-2.4-2.2-2.4c-0.7,0-1.3,0.2-1.9,0.5l0.2,0.7c0.5-0.3,1-0.4,1.5-0.4
		c0.7-0.1,1.3,0.4,1.3,1.1c0,0.1,0,0.2,0,0.3v0.1c-2.2,0-3.5,0.8-3.5,2.2c0,0.9,0.7,1.7,1.6,1.7c0,0,0.1,0,0.1,0
		c0.7,0,1.4-0.3,1.8-0.9h0l0.1,0.7H104.5z M103.4,121.5c0,0.1,0,0.2-0.1,0.3c-0.2,0.6-0.8,1-1.4,1c-0.5,0-1-0.3-1-0.9
		c0,0,0-0.1,0-0.1c0-1.1,1.3-1.3,2.5-1.3V121.5z M106.1,123.5h1v-3.1c0-0.2,0-0.3,0-0.5c0.1-0.7,0.7-1.3,1.4-1.4c0.1,0,0.2,0,0.4,0
		v-1c-0.1,0-0.2,0-0.3,0c-0.8,0-1.4,0.5-1.6,1.3h-0.1l0-1.1h-0.9c0,0.5,0,1.1,0,1.8V123.5z M114.2,123.5c-0.1-0.5-0.1-0.9-0.1-1.4
		v-2.2c0-1.2-0.4-2.4-2.2-2.4c-0.7,0-1.3,0.2-1.9,0.5l0.2,0.7c0.5-0.3,1-0.4,1.5-0.4c0.7-0.1,1.3,0.4,1.3,1.1c0,0.1,0,0.2,0,0.3v0.1
		c-2.2,0-3.5,0.8-3.5,2.2c0,0.9,0.7,1.7,1.6,1.7c0,0,0.1,0,0.1,0c0.7,0,1.4-0.3,1.8-0.9h0l0.1,0.7H114.2z M113.1,121.5
		c0,0.1,0,0.2-0.1,0.3c-0.2,0.6-0.8,1-1.4,1c-0.5,0-1-0.3-1-0.9c0,0,0-0.1,0-0.1c0-1.1,1.3-1.3,2.5-1.3V121.5z M122.3,122.5
		c-0.4,0.2-0.9,0.3-1.3,0.3c-1.1,0-2-0.9-2-2c0-0.1,0-0.1,0-0.2c-0.1-1.1,0.7-2.1,1.8-2.2c0.1,0,0.2,0,0.2,0c0.4,0,0.8,0.1,1.2,0.3
		l0.2-0.8c-0.5-0.2-1-0.3-1.5-0.3c-1.6-0.1-3,1.1-3.1,2.8c0,0.1,0,0.2,0,0.3c-0.1,1.5,1,2.8,2.5,3c0.1,0,0.2,0,0.4,0
		c0.6,0,1.1-0.1,1.7-0.3L122.3,122.5z M127.9,123.5c-0.1-0.5-0.1-0.9-0.1-1.4v-2.2c0-1.2-0.4-2.4-2.2-2.4c-0.7,0-1.3,0.2-1.9,0.5
		l0.2,0.7c0.5-0.3,1-0.4,1.5-0.4c0.7-0.1,1.3,0.4,1.3,1.1c0,0.1,0,0.2,0,0.3v0.1c-2.2,0-3.5,0.8-3.5,2.2c0,0.9,0.7,1.7,1.6,1.7
		c0,0,0.1,0,0.1,0c0.7,0,1.4-0.3,1.8-0.9h0l0.1,0.7H127.9z M126.8,121.5c0,0.1,0,0.2-0.1,0.3c-0.2,0.6-0.8,1-1.4,1
		c-0.5,0-1-0.3-1-0.9c0,0,0-0.1,0-0.1c0-1.1,1.3-1.3,2.5-1.3V121.5z M133.5,115v3.5h0c-0.4-0.6-1.1-0.9-1.8-0.9
		c-1.4,0-2.6,1.2-2.6,3.1c0,1.8,1.1,3,2.5,3c0.8,0,1.6-0.4,2-1.1h0l0.1,1h0.9c0-0.4,0-1,0-1.5v-7H133.5z M133.5,121
		c0,0.2,0,0.3,0,0.5c-0.2,0.7-0.8,1.3-1.6,1.3c-1.1,0-1.7-1-1.7-2.1c0-1.3,0.6-2.2,1.7-2.2c0.7,0,1.4,0.5,1.5,1.2c0,0.1,0,0.3,0,0.4
		L133.5,121z M140.4,123.5c-0.1-0.5-0.1-0.9-0.1-1.4v-2.2c0-1.2-0.4-2.4-2.2-2.4c-0.7,0-1.3,0.2-1.9,0.5l0.2,0.7
		c0.5-0.3,1-0.4,1.5-0.4c0.7-0.1,1.3,0.4,1.3,1.1c0,0.1,0,0.2,0,0.3v0.1c-2.2,0-3.5,0.8-3.5,2.2c0,0.9,0.7,1.7,1.6,1.7
		c0,0,0.1,0,0.1,0c0.7,0,1.4-0.3,1.8-0.9h0l0.1,0.7H140.4z M139.3,121.5c0,0.1,0,0.2-0.1,0.3c-0.2,0.6-0.8,1-1.4,1
		c-0.5,0-1-0.3-1-0.9c0,0,0-0.1,0-0.1c0-1.1,1.3-1.3,2.5-1.3V121.5z M149.5,117.7h-1.1v3.6c0,0.2,0,0.4-0.1,0.5
		c-0.2,0.6-0.8,0.9-1.4,1c-1,0-1.3-0.7-1.3-1.8v-3.2h-1v3.4c0,2,1.1,2.5,2,2.5c0.8,0,1.5-0.4,1.9-1.1h0l0.1,0.9h0.9c0-0.5,0-1,0-1.6
		L149.5,117.7z M151.2,123.5h1.1V120c0-0.2,0-0.3,0.1-0.5c0.2-0.6,0.8-1.1,1.4-1.1c1,0,1.3,0.8,1.3,1.7v3.3h1.1V120
		c0-2-1.2-2.5-2.1-2.5c-0.8,0-1.5,0.4-1.9,1.1h0l-0.1-1h-0.9c0,0.5,0,1,0,1.6V123.5z M160.3,117.5c-1.6,0-2.9,1.2-2.9,2.8
		c0,0.1,0,0.2,0,0.3c-0.1,1.5,1,2.9,2.5,3c0.1,0,0.2,0,0.3,0c1.6,0,2.9-1.2,2.9-2.8c0-0.1,0-0.2,0-0.3c0.1-1.5-1-2.8-2.5-3
		C160.5,117.5,160.4,117.5,160.3,117.5z M160.3,118.3c1.2,0,1.7,1.2,1.7,2.2c0,1.3-0.8,2.3-1.8,2.3c-1,0-1.8-1-1.8-2.2
		C158.5,119.5,159.1,118.3,160.3,118.3z M171,115v3.5h0c-0.4-0.6-1.1-0.9-1.8-0.9c-1.4,0-2.6,1.2-2.6,3.1c0,1.8,1.1,3,2.5,3
		c0.8,0,1.6-0.4,2-1.1h0l0.1,1h0.9c0-0.4,0-1,0-1.5v-7H171z M171,121c0,0.2,0,0.3,0,0.5c-0.2,0.7-0.8,1.3-1.6,1.3
		c-1.1,0-1.7-1-1.7-2.1c0-1.3,0.6-2.2,1.7-2.2c0.7,0,1.4,0.5,1.5,1.2c0,0.1,0,0.3,0,0.4L171,121z M178.4,120.8c0-0.2,0-0.3,0-0.5
		c0.2-1.4-0.8-2.6-2.2-2.7c-0.1,0-0.2,0-0.2,0c-1.7,0-2.7,1.4-2.7,3.1c-0.1,1.5,1,2.8,2.5,2.9c0.1,0,0.3,0,0.4,0
		c0.7,0,1.3-0.1,1.9-0.4l-0.2-0.8c-0.5,0.2-1.1,0.3-1.6,0.3c-1,0.1-1.9-0.7-2-1.7c0-0.1,0-0.2,0-0.3H178.4z M174.4,120
		c0-0.9,0.7-1.6,1.6-1.7c0.8,0,1.5,0.7,1.5,1.5c0,0.1,0,0.1,0,0.2H174.4z M182.3,123.5h1.1V115h-1.1V123.5z M187.6,117.5
		c-1.6,0-2.9,1.2-2.9,2.8c0,0.1,0,0.2,0,0.3c-0.1,1.5,1,2.9,2.5,3c0.1,0,0.2,0,0.3,0c1.6,0,2.9-1.2,2.9-2.8c0-0.1,0-0.2,0-0.3
		c0.1-1.5-1-2.8-2.5-3C187.8,117.5,187.7,117.5,187.6,117.5z M187.6,118.3c1.2,0,1.7,1.2,1.7,2.2c0,1.3-0.8,2.3-1.8,2.3
		c-1,0-1.8-1-1.8-2.2C185.8,119.5,186.3,118.3,187.6,118.3z M191.3,123.2c0.5,0.3,1.1,0.4,1.6,0.4c1.4,0,2.2-0.7,2.2-1.7
		c0-0.9-0.5-1.4-1.5-1.8c-0.8-0.3-1.1-0.5-1.1-1c0-0.4,0.3-0.8,1-0.8c0.4,0,0.8,0.1,1.2,0.3l0.3-0.8c-0.4-0.2-0.9-0.4-1.4-0.4
		c-1-0.1-1.9,0.6-2,1.6c0,0,0,0.1,0,0.1c0,0.7,0.5,1.3,1.5,1.6c0.8,0.3,1.1,0.6,1.1,1.1c0,0.5-0.4,0.9-1.1,0.9c-0.5,0-1-0.2-1.4-0.4
		L191.3,123.2z M199,123.5h1V120c0-0.2,0-0.4,0.1-0.5c0.2-0.6,0.7-1,1.3-1.1c0.8,0,1.2,0.7,1.2,1.6v3.5h1v-3.6c0-0.2,0-0.4,0.1-0.5
		c0.2-0.6,0.7-0.9,1.2-1c0.9,0,1.3,0.7,1.3,1.8v3.3h1v-3.4c0-2-1.1-2.5-1.9-2.5c-0.5,0-0.9,0.1-1.3,0.4c-0.3,0.2-0.5,0.5-0.6,0.8h0
		c-0.2-0.7-0.9-1.2-1.6-1.2c-0.8,0-1.5,0.4-1.8,1.1h0l0-0.9H199c0,0.5,0,1,0,1.6V123.5z M211.5,117.5c-1.6,0-2.9,1.2-2.9,2.8
		c0,0.1,0,0.2,0,0.3c-0.1,1.5,1,2.9,2.5,3c0.1,0,0.2,0,0.3,0c1.6,0,2.9-1.2,2.9-2.8c0-0.1,0-0.2,0-0.3c0.1-1.5-1-2.8-2.5-3
		C211.7,117.5,211.6,117.5,211.5,117.5L211.5,117.5z M211.5,118.3c1.2,0,1.7,1.2,1.7,2.2c0,1.3-0.8,2.3-1.8,2.3c-1,0-1.8-1-1.8-2.2
		C209.7,119.5,210.2,118.3,211.5,118.3L211.5,118.3z M211.9,115.2l-1.1,1.7h0.8l1.5-1.7H211.9z M219.6,115v3.5h0
		c-0.4-0.6-1.1-0.9-1.8-0.9c-1.4,0-2.6,1.2-2.6,3.1c0,1.8,1.1,3,2.5,3c0.8,0,1.6-0.4,2-1.1h0l0,1h0.9c0-0.4,0-1,0-1.5v-7L219.6,115z
		 M219.6,121c0,0.2,0,0.3,0,0.5c-0.2,0.7-0.8,1.3-1.5,1.3c-1.1,0-1.7-1-1.7-2.1c0-1.3,0.6-2.2,1.7-2.2c0.7,0,1.4,0.5,1.5,1.2
		c0,0.1,0,0.3,0,0.4L219.6,121z M227.3,117.7h-1.1v3.6c0,0.2,0,0.4-0.1,0.5c-0.2,0.6-0.8,0.9-1.4,1c-1,0-1.3-0.7-1.3-1.8v-3.2h-1.1
		v3.4c0,2,1.1,2.5,2,2.5c0.8,0,1.5-0.4,1.9-1.1h0l0.1,0.9h0.9c0-0.5,0-1,0-1.6L227.3,117.7z M229,123.5h1.1V115H229V123.5z
		 M234.3,117.5c-1.6,0-2.9,1.2-2.9,2.8c0,0.1,0,0.2,0,0.3c-0.1,1.5,1,2.9,2.5,3c0.1,0,0.2,0,0.3,0c1.6,0,2.9-1.2,2.9-2.8
		c0-0.1,0-0.2,0-0.3c0.1-1.5-1-2.8-2.5-3C234.5,117.5,234.4,117.5,234.3,117.5L234.3,117.5z M234.3,118.3c1.2,0,1.7,1.2,1.7,2.2
		c0,1.3-0.8,2.3-1.8,2.3c-1,0-1.8-1-1.8-2.2C232.5,119.5,233,118.3,234.3,118.3L234.3,118.3z M238,123.2c0.5,0.3,1.1,0.4,1.6,0.4
		c1.4,0,2.2-0.7,2.2-1.7c0-0.9-0.5-1.4-1.5-1.8c-0.8-0.3-1.1-0.5-1.1-1c0-0.4,0.3-0.8,1-0.8c0.4,0,0.8,0.1,1.2,0.3l0.3-0.8
		c-0.4-0.2-0.9-0.4-1.4-0.4c-1-0.1-1.9,0.6-2,1.6c0,0,0,0.1,0,0.1c0,0.7,0.5,1.3,1.5,1.6c0.8,0.3,1.1,0.6,1.1,1.1
		c0,0.5-0.4,0.9-1.1,0.9c-0.5,0-1-0.2-1.4-0.4L238,123.2z M249.7,115v3.5h0c-0.4-0.6-1.1-0.9-1.8-0.9c-1.4,0-2.6,1.2-2.6,3.1
		c0,1.8,1.1,3,2.5,3c0.8,0,1.6-0.4,2-1.1h0l0,1h0.9c0-0.4,0-1,0-1.5v-7H249.7z M249.7,121c0,0.2,0,0.3,0,0.5
		c-0.2,0.7-0.8,1.3-1.5,1.3c-1.1,0-1.7-1-1.7-2.1c0-1.3,0.6-2.2,1.7-2.2c0.7,0,1.4,0.5,1.5,1.2c0,0.1,0,0.3,0,0.4V121z M257.2,120.8
		c0-0.2,0-0.3,0-0.5c0.2-1.4-0.8-2.6-2.2-2.7c-0.1,0-0.2,0-0.2,0c-1.7,0-2.7,1.4-2.7,3.1c-0.1,1.5,1,2.8,2.5,2.9c0.1,0,0.3,0,0.4,0
		c0.7,0,1.3-0.1,1.9-0.4l-0.2-0.8c-0.5,0.2-1.1,0.3-1.6,0.3c-1,0.1-1.9-0.7-2-1.7c0-0.1,0-0.2,0-0.3L257.2,120.8z M253.1,120
		c0-0.9,0.7-1.6,1.6-1.7c0.8,0,1.5,0.7,1.5,1.5c0,0.1,0,0.1,0,0.2H253.1z M258.5,123.5h1.1V115h-1.1V123.5z"/>
	<path id="Trazado_1021" class="st15" d="M97.5,136.9c-0.4,0.2-0.9,0.3-1.3,0.3c-1.1,0-2-0.9-2-2c0-0.1,0-0.1,0-0.2
		c-0.1-1.1,0.7-2.1,1.8-2.2c0.1,0,0.2,0,0.2,0c0.4,0,0.8,0.1,1.2,0.3l0.2-0.8c-0.5-0.2-1-0.3-1.5-0.3c-1.6-0.1-3,1.1-3.1,2.8
		c0,0.1,0,0.2,0,0.3c-0.1,1.5,1,2.8,2.5,3c0.1,0,0.2,0,0.3,0c0.6,0,1.1-0.1,1.7-0.3L97.5,136.9z M103.8,132.1h-1.1v3.6
		c0,0.2,0,0.4-0.1,0.5c-0.2,0.6-0.8,0.9-1.4,1c-1,0-1.3-0.7-1.3-1.8v-3.2h-1v3.4c0,2,1.1,2.5,2,2.5c0.8,0,1.5-0.4,1.9-1.1h0l0.1,0.9
		h0.9c0-0.5,0-1,0-1.6L103.8,132.1z M105.5,137.9h1v-3.1c0-0.2,0-0.3,0-0.5c0.1-0.7,0.7-1.3,1.4-1.4c0.1,0,0.2,0,0.4,0v-1
		c-0.1,0-0.2,0-0.3,0c-0.8,0-1.4,0.5-1.6,1.3h0l0-1.1h-0.9c0,0.5,0,1.1,0,1.8V137.9z M109,137.6c0.5,0.3,1.1,0.4,1.6,0.4
		c1.4,0,2.2-0.7,2.2-1.7c0-0.9-0.5-1.4-1.5-1.8c-0.8-0.3-1.1-0.5-1.1-1c0-0.4,0.3-0.8,1-0.8c0.4,0,0.8,0.1,1.2,0.3l0.3-0.8
		c-0.4-0.2-0.9-0.4-1.4-0.4c-1-0.1-1.9,0.6-2,1.6c0,0,0,0.1,0,0.1c0,0.7,0.5,1.3,1.5,1.6c0.8,0.3,1.1,0.6,1.1,1.1
		c0,0.5-0.4,0.9-1.1,0.9c-0.5,0-1-0.2-1.4-0.4L109,137.6z M116.7,131.9c-1.6,0-2.9,1.2-2.9,2.8c0,0.1,0,0.2,0,0.3
		c-0.1,1.5,1,2.9,2.5,3c0.1,0,0.2,0,0.3,0c1.6,0,2.9-1.2,2.9-2.8c0-0.1,0-0.2,0-0.3c0.1-1.5-1-2.8-2.5-3
		C116.9,131.9,116.8,131.9,116.7,131.9z M116.6,132.7c1.2,0,1.7,1.2,1.7,2.2c0,1.3-0.8,2.3-1.8,2.3c-1,0-1.8-1-1.8-2.2
		C114.8,133.9,115.4,132.7,116.6,132.7z"/>
	<path id="Trazado_1022" class="st15" d="M120.9,138c0.4,0,0.7-0.3,0.7-0.7c0,0,0-0.1,0-0.1c0-0.4-0.3-0.7-0.6-0.8c0,0,0,0-0.1,0
		c-0.4,0-0.7,0.3-0.7,0.7c0,0,0,0,0,0.1C120.2,137.6,120.5,138,120.9,138C120.9,138,120.9,138,120.9,138z"/>
</g>
<path id="Trazado_1023" class="st15" d="M74.7,146"/>
<g>
	<path id="Trazado_1024" class="st15" d="M97.7,154.6l0.9,2.5h1.1l-2.8-8.1h-1.3l-2.7,8.1H94l0.8-2.5H97.7z M95.1,153.8l0.8-2.3
		c0.2-0.5,0.3-1,0.4-1.5h0c0.1,0.5,0.2,0.9,0.4,1.5l0.8,2.3H95.1z M100.8,159.5h1v-3.2h0c0.4,0.6,1.1,0.9,1.8,0.9
		c1.4,0,2.6-1,2.6-3.1c0-1.8-1.1-3-2.5-3c-0.8,0-1.6,0.4-2.1,1.1h0l0-1h-0.9c0,0.6,0,1.2,0,1.9V159.5z M101.9,153.8
		c0-0.1,0-0.3,0.1-0.4c0.2-0.8,0.8-1.3,1.6-1.3c1.1,0,1.7,1,1.7,2.2c0,1.3-0.6,2.2-1.8,2.2c-0.8,0-1.4-0.5-1.6-1.2
		c0-0.1,0-0.3,0-0.4V153.8z M107.7,157.2h1v-3.1c0-0.2,0-0.3,0-0.5c0.1-0.7,0.7-1.3,1.4-1.4c0.1,0,0.2,0,0.4,0v-1
		c-0.1,0-0.2,0-0.3,0c-0.8,0-1.4,0.5-1.6,1.3h0l0-1.1h-0.9c0,0.5,0,1.1,0,1.8V157.2z M113.9,151.2c-1.6,0-2.9,1.2-2.9,2.8
		c0,0.1,0,0.2,0,0.3c-0.1,1.5,1,2.9,2.5,3c0.1,0,0.2,0,0.3,0c1.6,0,2.9-1.2,2.9-2.8c0-0.1,0-0.2,0-0.3c0.1-1.5-1-2.8-2.5-3
		C114.1,151.2,114,151.2,113.9,151.2z M113.9,152c1.2,0,1.7,1.2,1.7,2.2c0,1.3-0.8,2.3-1.8,2.3c-1,0-1.8-1-1.8-2.2
		C112.1,153.2,112.7,152,113.9,152z M118.9,157.2l0-1h0c0.4,0.7,1.1,1.1,1.9,1.1c1.3,0,2.6-1,2.6-3.1c0-1.8-1-3-2.4-3
		c-0.8,0-1.6,0.4-2,1.1h0v-3.6h-1v7c0,0.5,0,1.1,0,1.5H118.9z M119.1,153.8c0-0.1,0-0.3,0.1-0.4c0.2-0.8,0.8-1.3,1.6-1.3
		c1.1,0,1.7,1,1.7,2.2c0,1.3-0.7,2.2-1.8,2.2c-0.7,0-1.4-0.5-1.6-1.2c0-0.1,0-0.3,0-0.4L119.1,153.8z M129.1,157.2
		c-0.1-0.5-0.1-0.9-0.1-1.4v-2.2c0-1.2-0.4-2.4-2.2-2.4c-0.7,0-1.3,0.2-1.9,0.5l0.2,0.7c0.5-0.3,1-0.4,1.5-0.4
		c0.7-0.1,1.3,0.4,1.3,1.1c0,0.1,0,0.2,0,0.3v0.1c-2.2,0-3.5,0.8-3.5,2.2c0,0.9,0.7,1.7,1.6,1.7c0,0,0.1,0,0.1,0
		c0.7,0,1.4-0.3,1.8-0.9h0l0.1,0.7H129.1z M127.9,155.2c0,0.1,0,0.2-0.1,0.3c-0.2,0.6-0.8,1-1.4,1c-0.5,0-1-0.3-1-0.9
		c0,0,0-0.1,0-0.1c0-1.1,1.3-1.3,2.5-1.3L127.9,155.2z M130.7,157.2h1.1v-3.5c0-0.2,0-0.3,0.1-0.5c0.2-0.6,0.8-1.1,1.4-1.1
		c1,0,1.3,0.8,1.3,1.7v3.3h1.1v-3.5c0-2-1.2-2.5-2.1-2.5c-0.8,0-1.5,0.4-1.9,1.1h0l-0.1-1h-0.9c0,0.5,0,1,0,1.6V157.2z M141.3,148.6
		v3.5h0c-0.4-0.6-1.1-0.9-1.8-0.9c-1.4,0-2.6,1.2-2.6,3.1c0,1.8,1.1,3,2.5,3c0.8,0,1.6-0.4,2-1.1h0l0,1h0.9c0-0.4,0-1,0-1.5v-7
		H141.3z M141.3,154.7c0,0.2,0,0.3,0,0.5c-0.2,0.7-0.8,1.3-1.5,1.3c-1.1,0-1.7-1-1.7-2.1c0-1.3,0.6-2.2,1.7-2.2
		c0.7,0,1.4,0.5,1.5,1.2c0,0.1,0,0.3,0,0.4V154.7z M146.6,151.2c-1.6,0-2.9,1.2-2.9,2.8c0,0.1,0,0.2,0,0.3c-0.1,1.5,1,2.9,2.5,3
		c0.1,0,0.2,0,0.3,0c1.6,0,2.9-1.2,2.9-2.8c0-0.1,0-0.2,0-0.3c0.1-1.5-1-2.8-2.5-3C146.8,151.2,146.7,151.2,146.6,151.2z M146.5,152
		c1.2,0,1.7,1.2,1.7,2.2c0,1.3-0.8,2.3-1.8,2.3c-1,0-1.8-1-1.8-2.2C144.7,153.2,145.3,152,146.5,152L146.5,152z M157.9,154.5
		c0-0.2,0-0.3,0-0.5c0.2-1.4-0.8-2.6-2.2-2.7c-0.1,0-0.2,0-0.2,0c-1.7,0-2.7,1.4-2.7,3.1c-0.1,1.5,1,2.8,2.5,2.9c0.1,0,0.3,0,0.4,0
		c0.7,0,1.3-0.1,1.9-0.4l-0.2-0.8c-0.5,0.2-1.1,0.3-1.6,0.3c-1,0.1-1.9-0.7-2-1.7c0-0.1,0-0.2,0-0.3L157.9,154.5z M153.8,153.7
		c0-0.9,0.7-1.7,1.6-1.7c0.8,0,1.5,0.7,1.5,1.5c0,0.1,0,0.1,0,0.2H153.8z M159.2,157.2h1.1v-8.5h-1.1V157.2z M168.6,156.2
		c-0.4,0.2-0.9,0.3-1.3,0.3c-1.1,0-2-0.9-2-2c0-0.1,0-0.1,0-0.2c-0.1-1.1,0.7-2.1,1.8-2.2c0.1,0,0.2,0,0.2,0c0.4,0,0.8,0.1,1.2,0.3
		l0.2-0.8c-0.5-0.2-1-0.3-1.5-0.3c-1.6-0.1-3,1.1-3.1,2.8c0,0.1,0,0.2,0,0.3c-0.1,1.5,1,2.8,2.5,3c0.1,0,0.2,0,0.4,0
		c0.6,0,1.1-0.1,1.7-0.3L168.6,156.2z M174.9,151.4h-1.1v3.6c0,0.2,0,0.4-0.1,0.5c-0.2,0.6-0.8,0.9-1.4,1c-1,0-1.3-0.7-1.3-1.8v-3.2
		H170v3.4c0,2,1.1,2.5,2,2.5c0.8,0,1.5-0.4,1.9-1.1h0l0.1,0.9h0.9c0-0.5,0-1,0-1.6L174.9,151.4z M176.6,157.2h1v-3.1
		c0-0.2,0-0.3,0-0.5c0.1-0.7,0.7-1.3,1.4-1.4c0.1,0,0.2,0,0.4,0v-1c-0.1,0-0.2,0-0.3,0c-0.8,0-1.4,0.5-1.6,1.3h0l0-1.1h-0.9
		c0,0.5,0,1.1,0,1.8L176.6,157.2z M180.1,156.9c0.5,0.3,1.1,0.4,1.6,0.4c1.4,0,2.2-0.7,2.2-1.7c0-0.9-0.5-1.4-1.5-1.8
		c-0.8-0.3-1.1-0.5-1.1-1c0-0.4,0.3-0.8,1-0.8c0.4,0,0.8,0.1,1.2,0.3l0.3-0.8c-0.4-0.2-0.9-0.4-1.4-0.4c-1-0.1-1.9,0.6-2,1.6
		c0,0,0,0.1,0,0.1c0,0.7,0.5,1.3,1.5,1.6c0.8,0.3,1.1,0.6,1.1,1.1c0,0.5-0.4,0.9-1.1,0.9c-0.5,0-1-0.2-1.4-0.4L180.1,156.9z
		 M187.7,151.2c-1.6,0-2.9,1.2-2.9,2.8c0,0.1,0,0.2,0,0.3c-0.1,1.5,1,2.9,2.5,3c0.1,0,0.2,0,0.3,0c1.6,0,2.9-1.2,2.9-2.8
		c0-0.1,0-0.2,0-0.3c0.1-1.5-1-2.8-2.5-3C187.9,151.2,187.8,151.2,187.7,151.2z M187.7,152c1.2,0,1.7,1.2,1.7,2.2
		c0,1.3-0.8,2.3-1.8,2.3c-1,0-1.8-1-1.8-2.2C185.9,153.2,186.5,152,187.7,152z"/>
	<path id="Trazado_1025" class="st15" d="M192,157.3c0.4,0,0.7-0.3,0.7-0.7c0,0,0-0.1,0-0.1c0-0.4-0.3-0.7-0.6-0.8c0,0,0,0-0.1,0
		c-0.4,0-0.7,0.3-0.7,0.7c0,0,0,0,0,0.1C191.3,156.9,191.6,157.3,192,157.3C192,157.3,192,157.3,192,157.3z"/>
</g>
<path id="Trazado_1026" class="st15" d="M74.7,160.4"/>
<g>
	<path id="Trazado_1027" class="st15" d="M93.6,179.2c0.6,0.1,1.3,0.1,1.9,0.1c1.3,0.1,2.6-0.3,3.6-1.2c0.8-0.8,1.2-2,1.2-3.1
		c0.1-1.1-0.4-2.1-1.1-2.9c-0.9-0.7-2.1-1.1-3.3-1c-0.7,0-1.5,0.1-2.2,0.2V179.2z M94.6,172.1c0.4-0.1,0.8-0.1,1.2-0.1
		c2.2,0,3.3,1.2,3.3,3.1c0.2,1.7-1,3.2-2.7,3.4c-0.2,0-0.5,0-0.7,0c-0.4,0-0.7,0-1.1-0.1V172.1z M106.2,176.6c0-0.2,0-0.3,0-0.5
		c0.2-1.4-0.8-2.6-2.2-2.7c-0.1,0-0.2,0-0.2,0c-1.7,0-2.7,1.4-2.7,3.1c-0.1,1.5,1,2.8,2.5,2.9c0.1,0,0.3,0,0.4,0
		c0.7,0,1.3-0.1,1.9-0.4l-0.2-0.8c-0.5,0.2-1.1,0.3-1.6,0.3c-1,0.1-1.9-0.7-2-1.7c0-0.1,0-0.2,0-0.3H106.2z M102.2,175.8
		c0-0.9,0.7-1.6,1.6-1.7c0.8,0,1.5,0.7,1.5,1.5c0,0.1,0,0.1,0,0.2H102.2z M107.2,179c0.5,0.3,1.1,0.4,1.6,0.4c1.4,0,2.2-0.7,2.2-1.7
		c0-0.9-0.5-1.4-1.5-1.8c-0.8-0.3-1.1-0.5-1.1-1c0-0.4,0.3-0.8,1-0.8c0.4,0,0.8,0.1,1.2,0.3l0.3-0.8c-0.4-0.2-0.9-0.4-1.4-0.4
		c-1-0.1-1.9,0.6-2,1.6c0,0,0,0.1,0,0.1c0,0.7,0.5,1.3,1.5,1.6c0.8,0.3,1.1,0.6,1.1,1.1c0,0.5-0.4,0.9-1.1,0.9c-0.5,0-1-0.2-1.4-0.4
		L107.2,179z M116.3,178.3c-0.4,0.2-0.9,0.3-1.3,0.3c-1.1,0-2-0.9-2-2c0-0.1,0-0.1,0-0.2c-0.1-1.1,0.7-2.1,1.8-2.2
		c0.1,0,0.2,0,0.2,0c0.4,0,0.8,0.1,1.2,0.3l0.2-0.8c-0.5-0.2-1-0.3-1.5-0.3c-1.6-0.1-3,1.1-3.1,2.8c0,0.1,0,0.2,0,0.3
		c-0.1,1.5,1,2.8,2.5,3c0.1,0,0.2,0,0.4,0c0.6,0,1.1-0.1,1.7-0.3L116.3,178.3z M121.9,179.3c-0.1-0.5-0.1-0.9-0.1-1.4v-2.2
		c0-1.2-0.4-2.4-2.2-2.4c-0.7,0-1.3,0.2-1.9,0.5l0.2,0.7c0.5-0.3,1-0.4,1.5-0.4c0.7-0.1,1.3,0.4,1.3,1.1c0,0.1,0,0.2,0,0.3v0.1
		c-2.2,0-3.5,0.8-3.5,2.2c0,0.9,0.7,1.7,1.6,1.7c0,0,0.1,0,0.1,0c0.7,0,1.4-0.3,1.8-0.9h0l0.1,0.7H121.9z M120.8,177.3
		c0,0.1,0,0.2-0.1,0.3c-0.2,0.6-0.8,1-1.4,1c-0.5,0-1-0.3-1-0.9c0,0,0-0.1,0-0.1c0-1.1,1.3-1.3,2.5-1.3V177.3z M123.5,179.3h1v-3.1
		c0-0.2,0-0.3,0-0.5c0.1-0.7,0.7-1.3,1.4-1.4c0.1,0,0.2,0,0.4,0v-1c-0.1,0-0.2,0-0.3,0c-0.8,0-1.4,0.5-1.6,1.3h0l0-1.1h-0.9
		c0,0.5,0,1.1,0,1.8V179.3z M131.4,173.5l0,0.9h0c-0.4-0.7-1.1-1.1-1.8-1c-1.5,0.1-2.7,1.4-2.6,2.9c0,0,0,0.1,0,0.1
		c-0.1,1.4,0.9,2.7,2.4,2.8c0,0,0.1,0,0.1,0c0.7,0,1.5-0.3,1.8-1h0v0.6c0,1.5-0.8,2-1.9,2c-0.6,0-1.2-0.2-1.7-0.5l-0.3,0.8
		c0.6,0.3,1.3,0.5,1.9,0.5c0.8,0,1.5-0.2,2.1-0.7c0.6-0.7,0.9-1.7,0.8-2.6v-3.4c0-0.7,0-1.2,0-1.6L131.4,173.5z M131.2,176.8
		c0,0.2,0,0.4-0.1,0.6c-0.2,0.6-0.8,1.1-1.5,1.1c-1.1,0-1.7-0.9-1.7-2.1c0-1.3,0.7-2.2,1.7-2.2c0.7,0,1.3,0.5,1.5,1.1
		c0,0.2,0.1,0.3,0.1,0.5V176.8z M138.2,179.3c-0.1-0.5-0.1-0.9-0.1-1.4v-2.2c0-1.2-0.4-2.4-2.2-2.4c-0.7,0-1.3,0.2-1.9,0.5l0.2,0.7
		c0.5-0.3,1-0.4,1.5-0.4c0.7-0.1,1.3,0.4,1.3,1.1c0,0.1,0,0.2,0,0.3v0.1c-2.2,0-3.5,0.8-3.5,2.2c0,0.9,0.7,1.7,1.6,1.7
		c0,0,0.1,0,0.1,0c0.7,0,1.4-0.3,1.8-0.9h0l0.1,0.7H138.2z M137.1,177.3c0,0.1,0,0.2-0.1,0.3c-0.2,0.6-0.8,1-1.4,1
		c-0.5,0-1-0.3-1-0.9c0,0,0-0.1,0-0.1c0-1.1,1.3-1.3,2.5-1.3V177.3z M139.8,179.3h1.1v-3.5c0-0.2,0-0.3,0.1-0.5
		c0.2-0.6,0.8-1.1,1.4-1.1c1,0,1.3,0.8,1.3,1.7v3.3h1.1v-3.5c0-2-1.2-2.5-2.1-2.5c-0.8,0-1.5,0.4-1.9,1.1h0l-0.1-1h-0.9
		c0,0.5,0,1,0,1.6L139.8,179.3z M150.4,170.7v3.5h0c-0.4-0.6-1.1-0.9-1.8-0.9c-1.4,0-2.6,1.2-2.6,3.1c0,1.8,1.1,3,2.5,3
		c0.8,0,1.6-0.4,2-1.1h0l0,1h0.9c0-0.4,0-1,0-1.5v-7H150.4z M150.4,176.8c0,0.2,0,0.3,0,0.5c-0.2,0.7-0.8,1.3-1.5,1.3
		c-1.1,0-1.7-1-1.7-2.1c0-1.3,0.6-2.2,1.7-2.2c0.7,0,1.4,0.5,1.5,1.2c0,0.1,0,0.3,0,0.4V176.8z M155.7,173.3c-1.6,0-2.9,1.2-2.9,2.8
		c0,0.1,0,0.2,0,0.3c-0.1,1.5,1,2.9,2.5,3c0.1,0,0.2,0,0.3,0c1.6,0,2.9-1.2,2.9-2.8c0-0.1,0-0.2,0-0.3c0.1-1.5-1-2.8-2.5-3
		C155.9,173.3,155.8,173.3,155.7,173.3L155.7,173.3z M155.7,174.1c1.2,0,1.7,1.2,1.7,2.2c0,1.3-0.8,2.3-1.8,2.3c-1,0-1.8-1-1.8-2.2
		C153.9,175.3,154.4,174.1,155.7,174.1L155.7,174.1z M167,176.6c0-0.2,0-0.3,0-0.5c0.2-1.4-0.8-2.6-2.2-2.7c-0.1,0-0.2,0-0.2,0
		c-1.7,0-2.7,1.4-2.7,3.1c-0.1,1.5,1,2.8,2.5,2.9c0.1,0,0.3,0,0.4,0c0.7,0,1.3-0.1,1.9-0.4l-0.2-0.8c-0.5,0.2-1.1,0.3-1.6,0.3
		c-1,0.1-1.9-0.7-2-1.7c0-0.1,0-0.2,0-0.3L167,176.6z M163,175.8c0-0.9,0.7-1.6,1.6-1.7c0.8,0,1.5,0.7,1.5,1.5c0,0.1,0,0.1,0,0.2
		H163z M168.4,179.3h1.1v-8.5h-1.1V179.3z M177.7,178.3c-0.4,0.2-0.9,0.3-1.3,0.3c-1.1,0-2-0.9-2-2c0-0.1,0-0.1,0-0.2
		c-0.1-1.1,0.7-2.1,1.8-2.2c0.1,0,0.2,0,0.2,0c0.4,0,0.8,0.1,1.2,0.3l0.2-0.8c-0.5-0.2-1-0.3-1.5-0.3c-1.6-0.1-3,1.1-3.1,2.8
		c0,0.1,0,0.2,0,0.3c-0.1,1.5,1,2.8,2.5,3c0.1,0,0.2,0,0.4,0c0.6,0,1.1-0.1,1.7-0.3L177.7,178.3z M183.7,176.6c0-0.2,0-0.3,0-0.5
		c0.2-1.4-0.8-2.6-2.2-2.7c-0.1,0-0.2,0-0.2,0c-1.7,0-2.7,1.4-2.7,3.1c-0.1,1.5,1,2.8,2.5,2.9c0.1,0,0.3,0,0.4,0
		c0.7,0,1.3-0.1,1.9-0.4l-0.2-0.8c-0.5,0.2-1.1,0.3-1.6,0.3c-1,0.1-1.9-0.7-2-1.7c0-0.1,0-0.2,0-0.3L183.7,176.6z M179.7,175.8
		c0-0.9,0.7-1.6,1.6-1.7c0.8,0,1.5,0.7,1.5,1.5c0,0.1,0,0.1,0,0.2L179.7,175.8z M185.1,179.3h1v-3.1c0-0.2,0-0.3,0-0.5
		c0.1-0.7,0.7-1.3,1.4-1.4c0.1,0,0.2,0,0.4,0v-1c-0.1,0-0.2,0-0.3,0c-0.8,0-1.4,0.5-1.6,1.3h0l0-1.1H185c0,0.5,0,1.1,0,1.8
		L185.1,179.3z"/>
	<path id="Trazado_1028" class="st15" d="M189.5,172.1v1.4h-0.9v0.8h0.9v3.2c-0.1,0.5,0.1,1.1,0.4,1.5c0.3,0.3,0.7,0.5,1.1,0.4
		c0.3,0,0.6,0,0.9-0.1l0-0.8c-0.2,0.1-0.4,0.1-0.6,0.1c-0.6,0-0.8-0.4-0.8-1.1v-3.1h1.5v-0.8h-1.5v-1.7L189.5,172.1z M194.3,179.3
		v-5.8h-1.1v5.8H194.3z M193.8,171.2c-0.4,0-0.7,0.3-0.7,0.6c0,0,0,0,0,0c0,0.3,0.3,0.6,0.6,0.6c0,0,0,0,0,0c0.3,0,0.6-0.2,0.7-0.6
		c0,0,0,0,0-0.1C194.5,171.5,194.2,171.2,193.8,171.2C193.8,171.2,193.8,171.2,193.8,171.2z M197.2,179.3v-5h2.3v5h1v-5.8h-3.4v-0.3
		c0-0.9,0.3-1.7,1.4-1.7c0.4,0,0.9,0.1,1.2,0.3l0.3-0.8c-0.4-0.3-1-0.4-1.5-0.4c-1.3-0.1-2.4,0.8-2.5,2.1c0,0.1,0,0.3,0,0.4v0.3
		h-0.8v0.8h0.8v5H197.2z M206.3,178.3c-0.4,0.2-0.9,0.3-1.3,0.3c-1.1,0-2-0.9-2-2c0-0.1,0-0.1,0-0.2c-0.1-1.1,0.7-2.1,1.8-2.2
		c0.1,0,0.2,0,0.2,0c0.4,0,0.8,0.1,1.2,0.3l0.2-0.8c-0.5-0.2-1-0.3-1.5-0.3c-1.6-0.1-3,1.1-3.1,2.8c0,0.1,0,0.2,0,0.3
		c-0.1,1.5,1,2.8,2.5,3c0.1,0,0.2,0,0.3,0c0.6,0,1.1-0.1,1.7-0.3L206.3,178.3z M211.9,179.3c-0.1-0.5-0.1-0.9-0.1-1.4v-2.2
		c0-1.2-0.4-2.4-2.2-2.4c-0.7,0-1.3,0.2-1.9,0.5l0.2,0.7c0.5-0.3,1-0.4,1.5-0.4c0.7-0.1,1.3,0.4,1.3,1.1c0,0.1,0,0.2,0,0.3v0.1
		c-2.2,0-3.5,0.8-3.5,2.2c0,0.9,0.7,1.7,1.6,1.7c0,0,0.1,0,0.1,0c0.7,0,1.4-0.3,1.8-0.9h0l0.1,0.7H211.9z M210.8,177.3
		c0,0.1,0,0.2-0.1,0.3c-0.2,0.6-0.8,1-1.4,1c-0.5,0-1-0.3-1-0.9c0,0,0-0.1,0-0.1c0-1.1,1.3-1.3,2.5-1.3V177.3z M217.5,170.7v3.5h0
		c-0.4-0.6-1.1-0.9-1.8-0.9c-1.4,0-2.6,1.2-2.6,3.1c0,1.8,1.1,3,2.5,3c0.8,0,1.6-0.4,2-1.1h0l0,1h0.9c0-0.4,0-1,0-1.5v-7H217.5z
		 M217.5,176.8c0,0.2,0,0.3-0.1,0.5c-0.2,0.7-0.8,1.3-1.5,1.3c-1.1,0-1.7-1-1.7-2.1c0-1.3,0.6-2.2,1.7-2.2c0.7,0,1.4,0.5,1.5,1.2
		c0,0.1,0,0.3,0,0.4L217.5,176.8z M222.7,173.3c-1.6,0-2.9,1.2-2.9,2.8c0,0.1,0,0.2,0,0.3c-0.1,1.5,1,2.9,2.5,3c0.1,0,0.2,0,0.3,0
		c1.6,0,2.9-1.2,2.9-2.8c0-0.1,0-0.2,0-0.3c0.1-1.5-1-2.8-2.5-3C222.9,173.3,222.8,173.3,222.7,173.3L222.7,173.3z M222.7,174.1
		c1.2,0,1.7,1.2,1.7,2.2c0,1.3-0.8,2.3-1.8,2.3c-1,0-1.8-1-1.8-2.2C220.9,175.3,221.5,174.1,222.7,174.1L222.7,174.1z M233.4,170.7
		v3.5h0c-0.4-0.6-1.1-0.9-1.8-0.9c-1.4,0-2.6,1.2-2.6,3.1c0,1.8,1.1,3,2.5,3c0.8,0,1.6-0.4,2-1.1h0l0,1h0.9c0-0.4,0-1,0-1.5v-7
		H233.4z M233.4,176.8c0,0.2,0,0.3,0,0.5c-0.2,0.7-0.8,1.3-1.5,1.3c-1.1,0-1.7-1-1.7-2.1c0-1.3,0.6-2.2,1.7-2.2
		c0.7,0,1.4,0.5,1.5,1.2c0,0.1,0,0.3,0,0.4L233.4,176.8z M240.8,176.6c0-0.2,0-0.3,0-0.5c0.2-1.4-0.8-2.6-2.2-2.7
		c-0.1,0-0.2,0-0.2,0c-1.7,0-2.7,1.4-2.7,3.1c-0.1,1.5,1,2.8,2.5,2.9c0.1,0,0.3,0,0.4,0c0.7,0,1.3-0.1,1.9-0.4l-0.2-0.8
		c-0.5,0.2-1.1,0.3-1.6,0.3c-1,0.1-1.9-0.7-2-1.7c0-0.1,0-0.2,0-0.3L240.8,176.6z M236.8,175.8c0-0.9,0.7-1.6,1.6-1.7
		c0.8,0,1.5,0.7,1.5,1.5c0,0.1,0,0.1,0,0.2H236.8z"/>
	<path id="Trazado_1029" class="st15" d="M97.7,193.7c-0.1-0.5-0.1-0.9-0.1-1.4v-2.2c0-1.2-0.4-2.4-2.2-2.4c-0.7,0-1.3,0.2-1.9,0.5
		l0.2,0.7c0.5-0.3,1-0.4,1.5-0.4c0.7-0.1,1.3,0.4,1.3,1.1c0,0.1,0,0.2,0,0.3v0.1c-2.2,0-3.5,0.8-3.5,2.2c0,0.9,0.7,1.7,1.6,1.7
		c0,0,0.1,0,0.1,0c0.7,0,1.4-0.3,1.8-0.9h0l0.1,0.7H97.7z M96.6,191.7c0,0.1,0,0.2-0.1,0.3c-0.2,0.6-0.8,1-1.4,1c-0.5,0-1-0.3-1-0.9
		c0,0,0-0.1,0-0.1c0-1.1,1.3-1.3,2.5-1.3V191.7z M99.3,196h1v-3.2h0c0.4,0.6,1.1,0.9,1.8,0.9c1.4,0,2.6-1,2.6-3.1c0-1.8-1.1-3-2.5-3
		c-0.8,0-1.6,0.4-2.1,1.1h0l0-1h-0.9c0,0.6,0,1.2,0,1.9V196z M100.4,190.3c0-0.1,0-0.3,0.1-0.4c0.2-0.8,0.8-1.3,1.6-1.3
		c1.1,0,1.7,1,1.7,2.2c0,1.3-0.6,2.2-1.8,2.2c-0.7,0-1.4-0.5-1.6-1.2c0-0.1,0-0.3-0.1-0.4V190.3z M106.1,193.7h1v-3.1
		c0-0.2,0-0.3,0-0.5c0.1-0.7,0.7-1.3,1.4-1.4c0.1,0,0.2,0,0.4,0v-1c-0.1,0-0.2,0-0.3,0c-0.8,0-1.4,0.5-1.6,1.3h-0.1l0-1.1h-0.9
		c0,0.5,0,1.1,0,1.8V193.7z M112.4,187.7c-1.6,0-2.9,1.2-2.9,2.8c0,0.1,0,0.2,0,0.3c-0.1,1.5,1,2.9,2.5,3c0.1,0,0.2,0,0.3,0
		c1.6,0,2.9-1.2,2.9-2.8c0-0.1,0-0.2,0-0.3c0.1-1.5-1-2.8-2.5-3C112.6,187.7,112.5,187.7,112.4,187.7z M112.4,188.5
		c1.2,0,1.7,1.2,1.7,2.2c0,1.3-0.8,2.3-1.8,2.3c-1,0-1.8-1-1.8-2.2C110.6,189.7,111.1,188.5,112.4,188.5z M117.4,193.7l0-1h0
		c0.4,0.7,1.1,1.1,1.9,1.1c1.3,0,2.6-1,2.6-3.1c0-1.8-1-3-2.4-3c-0.8,0-1.6,0.4-2,1.1h0v-3.6h-1v7c0,0.5,0,1.1,0,1.5H117.4z
		 M117.6,190.3c0-0.1,0-0.3,0.1-0.4c0.2-0.8,0.8-1.3,1.6-1.3c1.1,0,1.7,1,1.7,2.2c0,1.3-0.7,2.2-1.8,2.2c-0.7,0-1.4-0.5-1.6-1.2
		c0-0.1,0-0.3,0-0.4V190.3z M127.5,193.7c-0.1-0.5-0.1-0.9-0.1-1.4v-2.2c0-1.2-0.4-2.4-2.2-2.4c-0.7,0-1.3,0.2-1.9,0.5l0.2,0.7
		c0.5-0.3,1-0.4,1.5-0.4c0.7-0.1,1.3,0.4,1.3,1.1c0,0.1,0,0.2,0,0.3v0.1c-2.2,0-3.5,0.8-3.5,2.2c0,0.9,0.7,1.7,1.6,1.7
		c0,0,0.1,0,0.1,0c0.7,0,1.4-0.3,1.8-0.9h0l0.1,0.7H127.5z M126.4,191.7c0,0.1,0,0.2-0.1,0.3c-0.2,0.6-0.8,1-1.4,1
		c-0.5,0-1-0.3-1-0.9c0,0,0-0.1,0-0.1c0-1.1,1.3-1.3,2.5-1.3L126.4,191.7z M133.1,185.1v3.5h0c-0.4-0.6-1.1-0.9-1.8-0.9
		c-1.4,0-2.6,1.2-2.6,3.1c0,1.8,1.1,3,2.5,3c0.8,0,1.6-0.4,2-1.1h0l0,1h0.9c0-0.4,0-1,0-1.5v-7H133.1z M133.1,191.2
		c0,0.2,0,0.3,0,0.5c-0.2,0.7-0.8,1.3-1.5,1.3c-1.1,0-1.7-1-1.7-2.1c0-1.3,0.6-2.2,1.7-2.2c0.7,0,1.4,0.5,1.5,1.2c0,0.1,0,0.3,0,0.4
		L133.1,191.2z M138.4,187.7c-1.6,0-2.9,1.2-2.9,2.8c0,0.1,0,0.2,0,0.3c-0.1,1.5,1,2.9,2.5,3c0.1,0,0.2,0,0.3,0
		c1.6,0,2.9-1.2,2.9-2.8c0-0.1,0-0.2,0-0.3c0.1-1.5-1-2.8-2.5-3C138.6,187.7,138.5,187.7,138.4,187.7L138.4,187.7z M138.3,188.5
		c1.2,0,1.7,1.2,1.7,2.2c0,1.3-0.8,2.3-1.8,2.3c-1,0-1.8-1-1.8-2.2C136.6,189.7,137.1,188.5,138.3,188.5L138.3,188.5z M149,185.1
		v3.5h0c-0.4-0.6-1.1-0.9-1.8-0.9c-1.4,0-2.6,1.2-2.6,3.1c0,1.8,1.1,3,2.5,3c0.8,0,1.6-0.4,2-1.1h0l0,1h0.9c0-0.4,0-1,0-1.5v-7H149z
		 M149,191.2c0,0.2,0,0.3,0,0.5c-0.2,0.7-0.8,1.3-1.5,1.3c-1.1,0-1.7-1-1.7-2.1c0-1.3,0.6-2.2,1.7-2.2c0.7,0,1.4,0.5,1.5,1.2
		c0,0.1,0,0.3,0,0.4L149,191.2z M156.5,191c0-0.2,0-0.3,0-0.5c0.2-1.4-0.8-2.6-2.2-2.7c-0.1,0-0.2,0-0.2,0c-1.7,0-2.7,1.4-2.7,3.1
		c-0.1,1.5,1,2.8,2.5,2.9c0.1,0,0.3,0,0.4,0c0.7,0,1.3-0.1,1.9-0.4l-0.2-0.8c-0.5,0.2-1.1,0.3-1.6,0.3c-1,0.1-1.9-0.7-2-1.7
		c0-0.1,0-0.2,0-0.3L156.5,191z M152.4,190.2c0-0.9,0.7-1.6,1.6-1.7c0.8,0,1.5,0.7,1.5,1.5c0,0.1,0,0.1,0,0.2H152.4z M157.8,193.7
		h1.1v-8.5h-1.1V193.7z M167.2,192.7c-0.4,0.2-0.9,0.3-1.3,0.3c-1.1,0-2-0.9-2-2c0-0.1,0-0.1,0-0.2c-0.1-1.1,0.7-2.1,1.8-2.2
		c0.1,0,0.2,0,0.2,0c0.4,0,0.8,0.1,1.2,0.3l0.2-0.8c-0.5-0.2-1-0.3-1.5-0.3c-1.6-0.1-3,1.1-3.1,2.8c0,0.1,0,0.2,0,0.3
		c-0.1,1.5,1,2.8,2.5,3c0.1,0,0.2,0,0.3,0c0.6,0,1.1-0.1,1.7-0.3L167.2,192.7z M173.4,187.9h-1.1v3.6c0,0.2,0,0.4-0.1,0.5
		c-0.2,0.6-0.8,0.9-1.4,1c-1,0-1.3-0.7-1.3-1.8v-3.2h-1v3.4c0,2,1.1,2.5,2,2.5c0.8,0,1.5-0.4,1.9-1.1h0l0.1,0.9h0.9c0-0.5,0-1,0-1.6
		L173.4,187.9z M175.2,193.7h1v-3.1c0-0.2,0-0.3,0-0.5c0.1-0.7,0.7-1.3,1.4-1.4c0.1,0,0.2,0,0.4,0v-1c-0.1,0-0.2,0-0.3,0
		c-0.8,0-1.4,0.6-1.6,1.3h0l0-1.1h-0.9c0,0.5,0,1.1,0,1.8L175.2,193.7z M178.7,193.4c0.5,0.3,1.1,0.4,1.6,0.4c1.4,0,2.2-0.7,2.2-1.7
		c0-0.9-0.5-1.4-1.5-1.8c-0.8-0.3-1.1-0.5-1.1-1c0-0.4,0.3-0.8,1-0.8c0.4,0,0.8,0.1,1.2,0.3l0.3-0.8c-0.4-0.2-0.9-0.4-1.4-0.4
		c-1-0.1-1.9,0.6-2,1.6c0,0,0,0.1,0,0.1c0,0.7,0.5,1.3,1.5,1.6c0.8,0.3,1.1,0.6,1.1,1.1c0,0.5-0.4,0.9-1.1,0.9c-0.5,0-1-0.2-1.4-0.4
		L178.7,193.4z M186.3,187.7c-1.6,0-2.9,1.2-2.9,2.8c0,0.1,0,0.2,0,0.3c-0.1,1.5,1,2.9,2.5,3c0.1,0,0.2,0,0.3,0
		c1.6,0,2.9-1.2,2.9-2.8c0-0.1,0-0.2,0-0.3c0.1-1.5-1-2.8-2.5-3C186.5,187.7,186.4,187.7,186.3,187.7z M186.3,188.5
		c1.2,0,1.7,1.2,1.7,2.2c0,1.3-0.8,2.3-1.8,2.3c-1,0-1.8-1-1.8-2.2C184.5,189.7,185.1,188.5,186.3,188.5z"/>
	<path id="Trazado_1030" class="st15" d="M190.6,193.8c0.4,0,0.7-0.3,0.7-0.7c0,0,0-0.1,0-0.1c0-0.4-0.3-0.7-0.6-0.8c0,0,0,0-0.1,0
		c-0.4,0-0.7,0.3-0.7,0.7c0,0,0,0,0,0.1C189.9,193.4,190.2,193.8,190.6,193.8C190.6,193.8,190.6,193.8,190.6,193.8z"/>
</g>
<g>
	<g id="Grupo_714" transform="translate(930.882 657.535)">
		<path id="Trazado_1001" class="st16" d="M-854-594.9l-9.8,0.1l-0.1-9.8l9.8-0.1L-854-594.9 M-853.5-605.9l-11,0.1
			c-0.3,0-0.6,0.3-0.6,0.6l0.1,11c0,0.3,0.3,0.6,0.6,0.6l11-0.1c0.1,0,0.3-0.1,0.4-0.2l0,0l0,0c0.1-0.1,0.2-0.2,0.2-0.4l-0.1-11
			C-852.9-605.6-853.2-605.9-853.5-605.9"/>
	</g>
	<g id="Grupo_715" transform="translate(924.145 650.76)">
		<path id="Trazado_1002" class="st17" d="M-854-594.9l2.5-0.9l1.4,2.5l12-8.7l1.4,0.3l-13.9,11.6L-854-594.9z"/>
	</g>
</g>
<path id="Trazado_1003" class="st4" d="M60.2,66.8h28.9V40.1H60.2V66.8z"/>
<g>
	<g id="Grupo_717" transform="translate(930.882 703.457)">
		<path id="Trazado_1004" class="st16" d="M-854-603.4l-9.8,0.1l-0.1-9.8l9.8-0.1L-854-603.4 M-853.5-614.4l-11,0.1
			c-0.3,0-0.6,0.3-0.6,0.6l0.1,11c0,0.3,0.3,0.6,0.6,0.6l11-0.1c0.1,0,0.3-0.1,0.4-0.2l0,0l0,0c0.1-0.1,0.2-0.2,0.2-0.4l-0.1-11
			C-852.9-614.1-853.2-614.4-853.5-614.4"/>
	</g>
	<g id="Grupo_718" transform="translate(924.145 696.681)">
		<path id="Trazado_1005" class="st17" d="M-854-603.4l2.5-0.9l1.4,2.5l12-8.7l1.4,0.3l-13.9,11.6L-854-603.4z"/>
	</g>
</g>
<path id="Trazado_1006" class="st4" d="M60.2,112.7h28.9V86H60.2V112.7z"/>
<g>
	<g id="Grupo_720" transform="translate(930.882 760.856)">
		<path id="Trazado_1007" class="st16" d="M-854-600.4l-9.8,0.1l-0.1-9.8l9.8-0.1L-854-600.4 M-853.5-611.4l-11,0.1
			c-0.3,0-0.6,0.3-0.6,0.6l0.1,11c0,0.3,0.3,0.6,0.6,0.6l11-0.1c0.1,0,0.3-0.1,0.4-0.2l0,0l0,0c0.1-0.1,0.2-0.2,0.2-0.4l-0.1-11
			C-852.9-611.1-853.2-611.4-853.5-611.4"/>
	</g>
	<g id="Grupo_721" transform="translate(924.145 754.081)">
		<path id="Trazado_1008" class="st17" d="M-854-600.4l2.5-0.9l1.4,2.5l12-8.7l1.4,0.3l-13.9,11.6L-854-600.4z"/>
	</g>
</g>
<path id="Trazado_1009" class="st4" d="M60.2,170.1h28.9v-26.6H60.2V170.1z"/>
<g>
	<g id="Grupo_723" transform="translate(930.882 776.591)">
		<path id="Trazado_1010" class="st16" d="M-854-590.2l-9.8,0.1l-0.1-9.8l9.8-0.1L-854-590.2 M-853.5-601.2l-11,0.1
			c-0.3,0-0.6,0.3-0.6,0.6l0.1,11c0,0.3,0.3,0.6,0.6,0.6l11-0.1c0.1,0,0.3-0.1,0.4-0.2l0,0l0,0c0.1-0.1,0.2-0.2,0.2-0.4l-0.1-11
			C-852.9-600.9-853.2-601.2-853.5-601.2"/>
	</g>
	<g id="Grupo_724" transform="translate(924.145 769.815)">
		<path id="Trazado_1011" class="st17" d="M-854-590.2l2.5-0.9l1.4,2.5l12-8.7l1.4,0.3l-13.9,11.6L-854-590.2z"/>
	</g>
</g>
<path id="Trazado_1012" class="st4" d="M60.2,185.8h28.9v-26.6H60.2V185.8z"/>
</svg>
