<svg xmlns="http://www.w3.org/2000/svg" width="925.7" height="575.125" viewBox="0 0 925.7 575.125">
  <g id="Grupo_751" data-name="Grupo 751" transform="translate(-380.309 -263.887)">
    <path id="Trazado_990" data-name="Trazado 990" d="M457,611.03c-27.109.1-54.218.907-81.279,4.635-10.2,1.406-20.192,4.5-30.419,5.744-20.427,2.491-40.489,7.138-60.988,9.282-16.508,1.726-33.085,2.744-49.546,4.934a141.23,141.23,0,0,1-47.83-1.812c-11.336-2.512-22.725-3.925-33.871-7.959-12.469-4.512-26.015-7.738-39.006-7.622-18.526.166-36.567.185-54.3,8.152-6.223,2.8-13.842,7.394-18.568,13.263-10.818,13.436-12.283,46.961-1.481,60.9C57.908,724,96.74,733.2,122.243,733.633c27.945.476,55.094-2.093,83.08-3.6,26.006-1.4,51.947-3.4,78-3.331,53.2.144,106.41,0,159.516-4.4,49.894-4.136,99.914-2.716,149.917-2.716,51.277,0,102.207.5,153.113,8.939,22.181,3.678,44.778,4.965,67.07,7.542,19.964,2.307,39.149-.046,59.034-2.178A120.324,120.324,0,0,0,920.423,717.8c12.008-7.107,33.414-29.186,37.1-46.151,10.323-47.559-145.485-46.416-169.408-46.309-26.762.12-53.736,1.21-80.477-.053-11.248-.532-22.331-3.255-33.309-6.239-10.935-2.972-21.953-2.216-33.042-3.465-46.243-5.208-92.59-4.447-138.98-4.447C487.207,611.138,472.1,610.975,457,611.03Z" transform="translate(348 102)" fill="#f7f7f7"/>
    <g id="Grupo_750" data-name="Grupo 750" transform="translate(348 102)">
      <g id="Grupo_695" data-name="Grupo 695">
        <g id="Grupo_691" data-name="Grupo 691">
          <path id="Trazado_991" data-name="Trazado 991" d="M881.157,462.859l2.726,63.227-7.991,107.507-11.958.85L849.406,536.8l-20.1-82.624Z" fill="#587bc9"/>
          <path id="Trazado_992" data-name="Trazado 992" d="M864.362,639.48l13.39,5.547,6.006-6.925-6.925-6.006-12.931.919Z" fill="#556362"/>
        </g>
        <g id="Grupo_692" data-name="Grupo 692">
          <path id="Trazado_993" data-name="Trazado 993" d="M796.511,440.486l-2.624,47.792,7.786,142.1,11.973.6,17.944-93.2,15.827-102.208Z" fill="#587bc9"/>
          <path id="Trazado_994" data-name="Trazado 994" d="M813.325,636.025l-13.271,5.827-6.15-6.8,6.8-6.15,12.947.647Z" fill="#556362"/>
        </g>
        <g id="Grupo_693" data-name="Grupo 693">
          <path id="Trazado_995" data-name="Trazado 995" d="M884.29,303.692l-36.169-10.184s-20.864-1.28-43.009,45.034c-12.32,25.766-21.9,68.027-27.971,100.454.084,4.786,1.7,25.964,23.654,26.135,37.7.295,58.241-2.318,73.723,3.348,13.113,5.265,15.136-13.675,16.062-28.233l2.069-45.181Z" fill="#3b455a"/>
        </g>
        <g id="Grupo_694" data-name="Grupo 694">
          <path id="Trazado_996" data-name="Trazado 996" d="M884.94,256.634c-8.939-3.619-18.184-7.07-27.791-6.8-2.1.058-4.409.4-5.81,1.967a8.233,8.233,0,0,0-1.243,2.1c-3.822,8.322-8.986,20.742-4.606,29.747A14.564,14.564,0,0,0,849,288.078a20.713,20.713,0,0,0,6.411,3.858,37.327,37.327,0,0,1-3.151,5.98c1.582,3.564,11.433,5.627,13.787,2.865q.828-3.961,1.658-7.924a19.944,19.944,0,0,0,3.773-1.214,22.732,22.732,0,0,0,10.644-10.3c2.639-4.86,5.954-9.344,8.458-14.33.912-1.816,1.746-3.924,1.031-5.827-.76-2.025-2.97-3.045-4.974-3.861Q885.791,256.98,884.94,256.634Z" fill="#a0675c"/>
          <path id="Trazado_997" data-name="Trazado 997" d="M853.192,256.387a29.352,29.352,0,0,1,16.451-1.236c12.885,3.154,16.043,13.544,14.708,25.656,4.368-3.959,12.085-8.563,13.488-14.372,1.148-4.754,1.593-11.428-.4-16.039-1.864-4.315-7.951-7.542-11.405-10.445l-9.767-8.207a5.564,5.564,0,0,0-5.316-1.619L844.2,232.41c-1.713.146-3.688.45-4.561,1.931a5.458,5.458,0,0,0-.447,3.059c.219,4.6,1.314,9.449,1.014,14.02.08,2.7-.629,16.343,4.255,15.582,1.733-1.99,2.4-4.689,3.859-6.887A10.767,10.767,0,0,1,853.192,256.387Z" fill="#3b455a"/>
        </g>
        <path id="Trazado_998" data-name="Trazado 998" d="M848.121,293.508,833.8,295.347l-58.545,43.674-5.867,16.666,17.126,43.274,8.855-13.3-5.152-30.71,17.887-8.541,29.429-44.341Z" fill="#3b455a"/>
        <path id="Trazado_999" data-name="Trazado 999" d="M875.943,305.52,905.9,282.452l6.588-75.149,11.954-3,2.4,77.769-7.805,17.96-35.018,34.355Z" fill="#3b455a"/>
        <path id="Trazado_1000" data-name="Trazado 1000" d="M921.879,204.943l1.149-6.787-6.067-11.667-6.16,3.869,1.949,9.783L910,202.931l2.486,4.372Z" fill="#a0675c"/>
      </g>
      <g id="Grupo_698" data-name="Grupo 698">
        <rect id="Rectángulo_2" data-name="Rectángulo 2" width="704.258" height="444.267" transform="translate(121.001 196.516)" fill="#e3e3e3"/>
        <rect id="Rectángulo_3" data-name="Rectángulo 3" width="704.258" height="26.656" transform="translate(121.001 161.887)" fill="#3b455a"/>
        <rect id="Rectángulo_4" data-name="Rectángulo 4" width="704.258" height="34.991" transform="translate(121.001 188.543)" fill="#7db5db"/>
        <rect id="Rectángulo_5" data-name="Rectángulo 5" width="598.928" height="14.938" transform="translate(193.921 201.384)" fill="#fff"/>
        <g id="Grupo_696" data-name="Grupo 696">
          <path id="Trazado_1001" data-name="Trazado 1001" d="M150.48,174.11a4.458,4.458,0,1,1-4.457-4.385A4.422,4.422,0,0,1,150.48,174.11Z" fill="#f7f7f7"/>
          <path id="Trazado_1002" data-name="Trazado 1002" d="M163.533,174.11a4.458,4.458,0,1,1-4.457-4.385A4.422,4.422,0,0,1,163.533,174.11Z" fill="#d7e8f4"/>
          <path id="Trazado_1003" data-name="Trazado 1003" d="M176.587,174.11a4.458,4.458,0,1,1-4.458-4.385A4.422,4.422,0,0,1,176.587,174.11Z" fill="#7db5db"/>
        </g>
        <g id="Grupo_697" data-name="Grupo 697" opacity="0.36">
          <path id="Trazado_1004" data-name="Trazado 1004" d="M169.592,201.686V216.02l5.186-7.167Z" fill="#fff"/>
          <path id="Trazado_1005" data-name="Trazado 1005" d="M148.561,216.02V201.686l-5.186,7.167Z" fill="#fff"/>
        </g>
      </g>
      <g id="Grupo_712" data-name="Grupo 712">
        <g id="Grupo_710" data-name="Grupo 710">
          <path id="Trazado_1006" data-name="Trazado 1006" d="M105.238,685.156l-.807,7.462,14.117,9.077,8.269-6.655-6.655-8.269-14.117-9.077Z" fill="#3b455a"/>
          <path id="Trazado_1007" data-name="Trazado 1007" d="M139.11,683.344l-.807,7.462,14.117,9.076,8.269-6.655-6.655-8.269-14.117-9.077Z" fill="#3b455a"/>
          <g id="Grupo_708" data-name="Grupo 708">
            <g id="Grupo_699" data-name="Grupo 699">
              <path id="Trazado_1008" data-name="Trazado 1008" d="M78.706,540.841l15.048,66.844,9.249,78.7,17.276-1.615L127.3,493.705l-46.255.84Z" fill="#40495f"/>
            </g>
            <g id="Grupo_701" data-name="Grupo 701">
              <g id="Grupo_700" data-name="Grupo 700">
                <path id="Trazado_1009" data-name="Trazado 1009" d="M167.271,536.754l1.942,64.887-12.9,83.133L138.3,682.892l-2.473-85.923-12.843-58.891-4.311-38.548,38.512-4.543Z" fill="#40495f"/>
              </g>
            </g>
            <g id="Grupo_702" data-name="Grupo 702">
              <path id="Trazado_1010" data-name="Trazado 1010" d="M136.8,362.2,95.314,361.2,71.258,405.944l8.55,41.9L81.331,498l59.185.807,19.474-3.162-5.171-53.582,2.965-71.576Z" fill="#bcbec0"/>
            </g>
            <g id="Grupo_703" data-name="Grupo 703">
              <path id="Trazado_1011" data-name="Trazado 1011" d="M91.314,468.808l-.225,7,12.352,4.5,7.119-5.394,0-8.147-6.873-.383-.215-1.792-2.251-1.448Z" fill="#eac2a7"/>
            </g>
            <g id="Grupo_704" data-name="Grupo 704">
              <path id="Trazado_1012" data-name="Trazado 1012" d="M93.938,364.29,47.988,417.151l-2.245,23.154,45.324,35.78L99.2,464.319l-29.313-31.3,28.4-27.8Z" fill="#bcbec0"/>
            </g>
            <g id="Grupo_705" data-name="Grupo 705">
              <path id="Trazado_1013" data-name="Trazado 1013" d="M138.3,389.3l21.612,43.2,23.3,4.631L229.873,430l-5.724-14.594H181.365l-24.159-44.926Z" fill="#bcbec0"/>
            </g>
            <g id="Grupo_707" data-name="Grupo 707">
              <g id="Grupo_706" data-name="Grupo 706">
                <path id="Trazado_1014" data-name="Trazado 1014" d="M134.207,327.432c-6.255-18.184-30.262-11.37-35.211,4.822-3.228,10.563,4.929,24.269,15.873,27.3a10.9,10.9,0,0,1,.086,1.133,35.315,35.315,0,0,0,.468,5.061c.093.632,9.671-1.209,10.739-1.419a1.454,1.454,0,0,0,.992-.488c.386-.6-.242-2.373-.312-3.041q-.125-1.184-.248-2.367c5.4-2.635,8.805-8.247,9.756-13.96C137.3,338.735,136.087,332.9,134.207,327.432Z" fill="#eac2a7"/>
              </g>
            </g>
          </g>
          <g id="Grupo_709" data-name="Grupo 709">
            <path id="Trazado_1015" data-name="Trazado 1015" d="M107.588,361.957l12.871,18.192,6.051-.5L136.6,361.2Z" fill="#fff"/>
          </g>
          <path id="Trazado_1016" data-name="Trazado 1016" d="M162.561,314.507a31.793,31.793,0,0,1,2.366-3.547c1.89-2.427,4.236-4.523,5.742-7.206s1.982-6.288.062-8.692a9.541,9.541,0,0,0-5.13-2.822,36.867,36.867,0,0,0-19.392.032c-6.007,1.659-11.359,4.312-17.482,2.165-5.753-2.018-9.86-1.066-15.786,1.184-6.412,2.434-15.071,3.152-20.852,6.523a17.254,17.254,0,0,0-5.79,5.945,25.991,25.991,0,0,0,.482,27.482,37.167,37.167,0,0,0,4.146,5.016c3.113,3.243,6.84,7.251,11.056,8.391.025-3.752-3.629-15.506-.811-18.637,4.472-4.969,14.838-3.476,20.531-2.389,6.21,1.185,11.81,5.454,17.96,6.266,4.425.584,10.011-1.692,13.717-4.048C157.952,327.261,159.942,319.009,162.561,314.507Z" fill="#3b455a"/>
        </g>
        <g id="Grupo_711" data-name="Grupo 711">
          <path id="Trazado_1017" data-name="Trazado 1017" d="M127.211,489.488,93.652,458.369l94.723-30.113,36.566,31.417Z" fill="#3b455a"/>
          <path id="Trazado_1018" data-name="Trazado 1018" d="M127.211,489.488l97.731-29.815V381.914l-97.731,29.815Z" fill="#d7e8f4"/>
        </g>
      </g>
      <g id="Grupo_719" data-name="Grupo 719">
        <path id="Trazado_1019" data-name="Trazado 1019" d="M363.684,363.558l25.817,32.2,34.006-19.668,13.041,10.572-26.841,34.055-21.754,17.554-31.23-40.23Z" fill="#40495f"/>
        <g id="Grupo_718" data-name="Grupo 718">
          <g id="Grupo_715" data-name="Grupo 715">
            <g id="Grupo_713" data-name="Grupo 713">
              <path id="Trazado_1020" data-name="Trazado 1020" d="M390.811,467.755l1.114,96.325-10.266,124H367.7L351,573.678l-19.1-114.6Z" fill="#5a5751"/>
              <path id="Trazado_1021" data-name="Trazado 1021" d="M367.783,693.965l15.093,7.547,7.547-7.547-7.547-7.547H367.783Z" fill="#3b455a"/>
            </g>
            <g id="Grupo_714" data-name="Grupo 714">
              <path id="Trazado_1022" data-name="Trazado 1022" d="M295.117,467.755l-.274,55.727,9.413,164.6h13.957l23.349-109.226,12.465-119.772Z" fill="#5a5751"/>
              <path id="Trazado_1023" data-name="Trazado 1023" d="M318.133,693.965l-15.093,7.547-7.547-7.547,7.547-7.547h15.093Z" fill="#3b455a"/>
            </g>
          </g>
          <path id="Trazado_1024" data-name="Trazado 1024" d="M280.6,501.309c-.3,8.842-.108,20.669,3.615,21.111a3.679,3.679,0,0,0,1.983-.524c6.473-3.145,11.087-7.59,17.469-10.629,6.688-3.184,14.289-4.85,21.717-6a225.936,225.936,0,0,1,33.492-2.931c9.583-.085,19.549,4.287,28.609,6.691,3.488.925,6.324,3.467,9.221,5.46,4.279,2.944,6.156,4.11,5.572-1.905-.952-9.815-1.941-19.628-3.148-29.416-2.409-19.521-5.687-39-11.234-57.9-2.119-7.219-4.564-14.338-7.008-21.454l-8.927-26c-3.7-10.77-9.941-18.357-20.87-22.125-9.446-3.256-21.179-4.146-30.366.411-10.213,5.067-15.07,22.327-20.032,31.55-4.348,8.083-9.828,30.128-11.456,38.842-1.958,10.488-3.768,20.927-5.192,31.338a321.216,321.216,0,0,0-3.012,34.457C281,493.555,280.744,497.088,280.6,501.309Z" fill="#40495f"/>
          <path id="Trazado_1025" data-name="Trazado 1025" d="M331.052,357.627l18.862.18s20.239,70.732,20.983,82.922c.73,11.968,5.846,60.493,5.846,60.493s-20.889.492-44.957,3.424c-23.529,5.036-25.507,2.058-25.507,2.058s12.7-51,13.12-65.655c.431-14.988,2.349-64.488,2.349-64.488Z" fill="#fff"/>
          <g id="Grupo_717" data-name="Grupo 717">
            <path id="Trazado_1026" data-name="Trazado 1026" d="M342.49,357.995a2.234,2.234,0,0,1-.771.44,4.262,4.262,0,0,1-1.835.05L332.4,357.6c.823-7.641-3.644-9.369-8-14.283-4.412-4.982-3.054-11.7-2.806-17.8a13,13,0,0,1,.871-4.987c1.26-2.7,4.194-4.2,7.041-5.081,7.267-2.258,15.579-1.7,21.978,2.418a11.614,11.614,0,0,1,4.215,4.276c1.423,2.78,1.061,6.1.665,9.2a31.017,31.017,0,0,1-4.711,13.45c-2.508,3.738-7.29,5.528-7.839,10.015A5.081,5.081,0,0,1,342.49,357.995Z" fill="#eac2a7"/>
            <g id="Grupo_716" data-name="Grupo 716">
              <path id="Trazado_1027" data-name="Trazado 1027" d="M356.157,325.808c-.425,1.921-1.32,3.863-.853,5.773,3.05-1.035,5.042-4.155,6.122-7.325a11.2,11.2,0,0,0,.722-4.481,5.313,5.313,0,0,0-1.984-3.907c-1.675-1.2-4.68-.729-5.16,1.445C354.521,319.5,356.8,322.92,356.157,325.808Z" fill="#3b455a"/>
              <path id="Trazado_1028" data-name="Trazado 1028" d="M372.348,308.943a6.832,6.832,0,0,0-3.005-5.745c-1.772-1.2-3.815-2.19-4.892-4.093-.836-1.477-.958-3.305-1.786-4.786-1.5-2.683-4.755-3.472-7.586-4.381-7.083-2.275-10.9-4.9-18.4-1.989-5.334,2.07-12.225,2.348-17.176,5.368a17.341,17.341,0,0,0-5.27,5.544c-5,7.819-6.2,18.813-2.944,26.968a33.279,33.279,0,0,0,2.646,5.112c1.98,3.214,4.1,7.168,7.608,8.742.22-1.515,1.348-2.35,1.7-3.839a11.72,11.72,0,0,0,.113-3.3c-.215-4.288-1.53-11.068,2.752-13.194,5.415-2.689,15.572-.264,20.788,2.013,4.614,2.014,12.4,4.634,17.322,2.476C368.789,321.841,372.5,313.857,372.348,308.943Z" fill="#3b455a"/>
            </g>
          </g>
        </g>
      </g>
      <g id="Grupo_721" data-name="Grupo 721">
        <g id="Grupo_720" data-name="Grupo 720">
          <circle id="Elipse_1" data-name="Elipse 1" cx="162.431" cy="162.431" r="162.431" transform="translate(266.658 382.738)" fill="#587bc9"/>
          <path id="Trazado_1029" data-name="Trazado 1029" d="M546.994,495.359a128.371,128.371,0,1,0,10.058,49.811A127.531,127.531,0,0,0,546.994,495.359Zm-180.1,45.866a126.87,126.87,0,0,1,3.4-29.339h52.355v60.866H370.709A132.443,132.443,0,0,1,366.894,541.225Zm94.329-84.133a135.3,135.3,0,0,1,21.868,34.982c.971,2.287,1.862,4.6,2.692,6.934H435.528V433.363A148.233,148.233,0,0,1,461.223,457.092Zm-38.572-22.468v64.384H374.1q1.2-3.364,2.582-6.669a135.1,135.1,0,0,1,21.678-34.894A149.512,149.512,0,0,1,422.651,434.624Zm0,151.005v69.1a179.484,179.484,0,0,1-23.8-25.187,159.187,159.187,0,0,1-22.018-37.827q-1.223-3.027-2.3-6.083Zm12.877,70.541V585.629h49.814q-1.032,2.937-2.2,5.845a158.926,158.926,0,0,1-21.856,37.732A178.95,178.95,0,0,1,435.528,656.17Zm0-83.418V511.886h54.059a126.87,126.87,0,0,1,3.4,29.339,132.5,132.5,0,0,1-3.813,31.527Zm67.259-60.866H539.31a116.384,116.384,0,0,1,1.551,60.866H502.4a145.172,145.172,0,0,0,3.465-31.527A140.111,140.111,0,0,0,502.787,511.886Zm7.68-48.093a115,115,0,0,1,24.105,35.215h-35.2q-1.932-6.069-4.426-11.968a148.118,148.118,0,0,0-23.935-38.319A163.655,163.655,0,0,0,455.826,433.2,114.342,114.342,0,0,1,510.467,463.793Zm-162.754,0a114.3,114.3,0,0,1,56.921-31.112,163.818,163.818,0,0,0-15.761,16.04,148.145,148.145,0,0,0-23.935,38.319q-2.5,5.893-4.426,11.968h-36.9A114.989,114.989,0,0,1,347.713,463.793Zm-28.844,48.093H357.1a140.178,140.178,0,0,0-3.079,29.339,145.172,145.172,0,0,0,3.465,31.527H317.318a116.385,116.385,0,0,1,1.551-60.866Zm28.844,114.661A114.727,114.727,0,0,1,321.3,585.629h39.67q1.75,5.5,3.93,10.91a172.047,172.047,0,0,0,23.786,40.9,194.244,194.244,0,0,0,18.694,20.776A114.26,114.26,0,0,1,347.713,626.547Zm162.754,0a114.292,114.292,0,0,1-57.51,31.236A194.317,194.317,0,0,0,471.2,637.438a172.046,172.046,0,0,0,23.786-40.9q2.187-5.41,3.931-10.91h37.967A114.756,114.756,0,0,1,510.467,626.547Z" fill="#fff"/>
        </g>
      </g>
      <path id="Trazado_1030" data-name="Trazado 1030" d="M426.5,372.368l16.886-2.48,11.671,12.924-7.093,6.329-11.543-5.361-5.59,2.651-9.6-5.394Z" fill="#eac2a7"/>
      <g id="Grupo_746" data-name="Grupo 746">
        <g id="Grupo_741" data-name="Grupo 741">
          <g id="Grupo_739" data-name="Grupo 739">
            <g id="Grupo_724" data-name="Grupo 724">
              <g id="Grupo_722" data-name="Grupo 722">
                <path id="Trazado_1031" data-name="Trazado 1031" d="M712.481,678.432a4.973,4.973,0,0,1,4.5-1.928,5.087,5.087,0,0,1,3.779,2.847,9.694,9.694,0,0,1,.648,3.239c.471,5.7.428,19.248-7.17,21.2-3.194.818-5.836-1.45-6.688-4.318C706.264,695.151,708.165,683.183,712.481,678.432Z" fill="#323643"/>
              </g>
              <g id="Grupo_723" data-name="Grupo 723">
                <path id="Trazado_1032" data-name="Trazado 1032" d="M709.778,592.375l.4,34.795c-.463,15.455,1.95,31,1.488,46.452-.107,3.554-1.033,7.3-.137,10.826.875,3.446,3.675,4.055,6.549,2.31,3.851-2.338,3.23-7.8,3.872-11.78,1.761-10.945,3.828-21.838,5.668-32.77.9-5.359-.958-12.87-.553-18.293l5.621-29.161Z" fill="#eac2a7"/>
              </g>
            </g>
            <g id="Grupo_725" data-name="Grupo 725">
              <path id="Trazado_1033" data-name="Trazado 1033" d="M749.533,536.154l-15.144,67.27-3.217,63.527-24.013-.539L700.63,488.717l46.55.845Z" fill="#40495f"/>
            </g>
            <g id="Grupo_730" data-name="Grupo 730">
              <g id="Grupo_728" data-name="Grupo 728">
                <g id="Grupo_726" data-name="Grupo 726">
                  <path id="Trazado_1034" data-name="Trazado 1034" d="M678.134,677.168A4.879,4.879,0,0,1,682.7,675.5a5.2,5.2,0,0,1,3.645,3.072,9.8,9.8,0,0,1,.507,3.28c.226,5.737-.4,19.289-8.053,20.793-3.217.631-5.753-1.795-6.48-4.715C671.223,693.533,673.63,681.668,678.134,677.168Z" fill="#323643"/>
                </g>
                <g id="Grupo_727" data-name="Grupo 727">
                  <path id="Trazado_1035" data-name="Trazado 1035" d="M690.791,597.259,688.753,632c-.166,9.654-1.452,19.233-2.452,28.822-.928,8.907.517,18.184-4.138,26.285-1.46,2.54-4.411,4.232-6.472,1.145-1.589-2.378-.645-6.346-.95-9.044-1.244-11.014-2.8-21.992-4.117-33-.649-5.4,1.562-12.812,1.414-18.248l-4.24-29.39Z" fill="#eac2a7"/>
                </g>
              </g>
              <g id="Grupo_729" data-name="Grupo 729">
                <path id="Trazado_1036" data-name="Trazado 1036" d="M660.4,532.04l-1.954,65.3L668.7,663.375l24.426.731-1.078-71.466,12.925-59.266,4.339-38.794-38.758-4.572Z" fill="#40495f"/>
              </g>
            </g>
            <g id="Grupo_731" data-name="Grupo 731">
              <path id="Trazado_1037" data-name="Trazado 1037" d="M691.064,356.368l41.755-1L757.029,400.4l-8.6,42.172-1.532,50.468-59.562.813-19.6-3.182,5.2-53.924-2.984-72.033Z" fill="#7db5db"/>
            </g>
            <g id="Grupo_732" data-name="Grupo 732">
              <path id="Trazado_1038" data-name="Trazado 1038" d="M734.2,358.476,768.1,410.1l-5.094,28.76-52.5,36.365-9.879-8.637,35.1-44.365-1.362-28.037Z" fill="#7db5db"/>
            </g>
            <g id="Grupo_733" data-name="Grupo 733">
              <path id="Trazado_1039" data-name="Trazado 1039" d="M688.976,383.65l-21.75,43.48-23.451,4.66-58.43-25.512,10.078-11.432L648.71,404.6l21.242-39.888Z" fill="#7db5db"/>
            </g>
            <g id="Grupo_738" data-name="Grupo 738">
              <g id="Grupo_734" data-name="Grupo 734">
                <path id="Trazado_1040" data-name="Trazado 1040" d="M693.678,321.383c6.3-18.3,30.455-11.442,35.436,4.853,3.249,10.63-4.96,24.423-15.974,27.476a10.835,10.835,0,0,0-.087,1.141,35.638,35.638,0,0,1-.47,5.094c-.1.635-9.734-1.217-10.809-1.429a1.463,1.463,0,0,1-1-.491c-.388-.606.244-2.388.315-3.06l.249-2.382c-5.433-2.652-8.861-8.3-9.818-14.05C690.56,332.758,691.787,326.883,693.678,321.383Z" fill="#eac2a7"/>
              </g>
              <g id="Grupo_737" data-name="Grupo 737">
                <g id="Grupo_735" data-name="Grupo 735">
                  <path id="Trazado_1041" data-name="Trazado 1041" d="M709.44,304.846a9.6,9.6,0,0,1,2.179,4.911,7.673,7.673,0,0,1,.19,3.183c-.9,4.154-5.018,3.937-8.205,5.276a21.255,21.255,0,0,0-9.519,8.193c-3.445,5.483-1.9,12.538-.5,18.586.493,2.131,1.484,5.3-.169,7.2-1.68,1.932-5.562,1.634-7.574.64-1.837-.908-3.347-2.588-5.366-2.926-2.136-.358-5.023.582-6.017-1.378a13.221,13.221,0,0,0-.651-1.711c-1.18-1.688-4.116.288-5.779-.9-1.024-.732-1.016-2.292-.67-3.526s.928-2.485.687-3.74a12.326,12.326,0,0,0-1.466-2.913,5.741,5.741,0,0,1,.793-6.1c2.63-3.044,7.72-2.466,10.539-5.329,1.468-1.492,2.037-3.644,2.584-5.68s1.205-4.183,2.774-5.563c1.939-1.7,4.739-1.414,6.652-3.436,1.124-1.188,1.873-2.734,3.135-3.767,1.662-1.363,4.913-2.411,6.981-3.105A9.075,9.075,0,0,1,709.44,304.846Z" fill="#3b455a"/>
                </g>
                <g id="Grupo_736" data-name="Grupo 736">
                  <path id="Trazado_1042" data-name="Trazado 1042" d="M724.723,334.051c.112,6.024-2.88,12.535-.105,17.838,2.8,5.35,9.78,6.315,15.73,6.594.978.046,13.535,1.13,13.588.892.94-4.2,1.912-8.474,4.105-12.158s5.859-6.737,10.058-7c-1.212-.21-1.822-1.693-1.682-2.944a19.822,19.822,0,0,1,1.162-3.579,8.436,8.436,0,0,0-2.2-8.472c-4.442-4.14-12.494-2.42-16.3-7.175-2.36-2.948-2.079-7.224-3.317-10.824-2.392-6.96-10.012-8.416-15.707-11.559-6.012-3.318-11.674-5.137-18.613-3.98-8.6,1.433-15,10.191-11.678,18.432,4.255,10.57,21.266,9.658,24.451,20.391A13.233,13.233,0,0,1,724.723,334.051Z" fill="#3b455a"/>
                </g>
              </g>
            </g>
          </g>
          <g id="Grupo_740" data-name="Grupo 740">
            <path id="Trazado_1043" data-name="Trazado 1043" d="M720.467,356.129l-12.953,18.308-6.09-.5-10.149-18.568Z" fill="#f7f7f7"/>
          </g>
        </g>
        <g id="Grupo_744" data-name="Grupo 744">
          <g id="Grupo_743" data-name="Grupo 743">
            <path id="Trazado_1044" data-name="Trazado 1044" d="M654.775,494.285a4.082,4.082,0,0,1-2.952-1.225l-29.166-29.9-18.029,23.079a3.671,3.671,0,0,1-2.942,1.456,4.648,4.648,0,0,1-4.206-2.969L554.035,367.767a3.8,3.8,0,0,1,.905-4.189,3.628,3.628,0,0,1,2.867-1.409,4.155,4.155,0,0,1,1.543.31L675.2,408.8a4.38,4.38,0,0,1,2.821,3.482,4.33,4.33,0,0,1-1.82,4.04l-23.1,17.142L682.2,463.3a4.335,4.335,0,0,1,1.212,2.933,4.093,4.093,0,0,1-1.228,3.027l-24.4,23.809a4.331,4.331,0,0,1-3.007,1.214Zm-32.54-41.717a4.351,4.351,0,0,1,3.072,1.237l29.579,30.321L673.255,466.2l-29.52-30.262a4.1,4.1,0,0,1-1.2-3.223,4.565,4.565,0,0,1,1.883-3.271l20.932-15.535L565.292,373.9l37.525,101.024,16.364-20.948A3.819,3.819,0,0,1,622.235,452.568Z" fill="#fff"/>
            <g id="Grupo_742" data-name="Grupo 742">
              <path id="Trazado_1045" data-name="Trazado 1045" d="M683.526,462.011l-10.654-10.922-16.972-17.4,21.4-15.882a6.094,6.094,0,0,0-1.416-10.722L636.5,391.34,601.93,377.515l-27.655-11.059-7.12-2.846-7.118-2.847a6,6,0,0,0-2.23-.442,5.447,5.447,0,0,0-4.231,2,5.606,5.606,0,0,0-1.274,6.087L566.338,406.2l.732,1.972,1.022,2.75L590.407,471l2.67,7.188,2.67,7.187a6.554,6.554,0,0,0,5.939,4.175,5.557,5.557,0,0,0,4.4-2.167l9.666-12.373,7.06-9.038,6.374,6.533,17.324,17.759,2,2.045,1.995,2.046a5.917,5.917,0,0,0,4.276,1.783,6.2,6.2,0,0,0,4.3-1.739l7.046-6.875,17.358-16.935a5.994,5.994,0,0,0,1.785-4.379A6.119,6.119,0,0,0,683.526,462.011Zm-2.631,5.927-24.4,23.81a2.465,2.465,0,0,1-1.716.689,2.254,2.254,0,0,1-1.629-.668l-3.991-4.091L622.5,460.357,603.171,485.1a1.831,1.831,0,0,1-1.485.746,2.827,2.827,0,0,1-2.473-1.765l-5.34-14.375Q582.2,438.3,570.537,406.883l-14.769-39.759a1.938,1.938,0,0,1,.541-2.291,1.8,1.8,0,0,1,1.5-.815,2.288,2.288,0,0,1,.857.178l14.238,5.693,62.226,24.884,39.38,15.748a2.4,2.4,0,0,1,.586,4.32l-24.8,18.4,2.08,2.132,28.5,29.217A2.4,2.4,0,0,1,680.9,467.938Z" fill="#fff"/>
              <path id="Trazado_1046" data-name="Trazado 1046" d="M645.058,434.652a2.407,2.407,0,0,1,.461-3.718l23.59-17.508L659.034,409.4l-62.226-24.885-34.7-13.876q1.777,4.788,3.557,9.576Q577.332,411.626,589,443.039q6.62,17.817,13.236,35.633l18.4-23.556a1.983,1.983,0,0,1,1.6-.7,2.494,2.494,0,0,1,1.748.678l3.991,4.091,26.88,27.555,21.016-20.5q-1.155-1.184-2.311-2.368Zm9.861,46.86-10.875-11.148L630.62,456.6l-1.995-2.045-1.995-2.045a6.148,6.148,0,0,0-4.4-1.794,5.653,5.653,0,0,0-4.511,2.12l-7.351,9.41-6.975,8.93-4.314-11.612-6.617-17.817-1.089-2.929-22.248-59.9-.654-1.759,19.026,7.608,7.933,3.173,31.113,12.441,31.114,12.443,3.928,1.571-6.48,4.809-11.794,8.754a6.413,6.413,0,0,0-2.624,4.608,5.933,5.933,0,0,0,1.719,4.661l13.408,13.744,14.823,15.2Z" fill="#fff"/>
            </g>
          </g>
          <path id="Trazado_1047" data-name="Trazado 1047" d="M558.046,366.481l43.445,116.96,20.828-26.662,32.492,33.307,12.2-11.9,12.2-11.9-32.492-33.307,27.168-20.163Z" fill="#3b455a"/>
        </g>
        <g id="Grupo_745" data-name="Grupo 745">
          <path id="Trazado_1048" data-name="Trazado 1048" d="M689.046,471.133l.227,7.043L676.841,482.7l-7.164-5.428-.005-8.2,6.917-.386.217-1.8,2.265-1.457Z" fill="#eac2a7"/>
        </g>
      </g>
      <g id="Grupo_749" data-name="Grupo 749">
        <g id="Grupo_747" data-name="Grupo 747">
          <path id="Trazado_1049" data-name="Trazado 1049" d="M322.357,474.423l-4.367,5.531,7.311,11.025,8.988-.11,4.875-6.592-5.335-4.42.9-1.579-.956-2.517Z" fill="#eac2a7"/>
        </g>
        <g id="Grupo_748" data-name="Grupo 748">
          <path id="Trazado_1050" data-name="Trazado 1050" d="M315.539,360.079l-35.034,21.363-19.4,36.418,5.094,28.76,52.5,36.365,9.879-8.637-35.1-44.365,1.362-28.037Z" fill="#40495f"/>
        </g>
      </g>
    </g>
  </g>
</svg>
