<svg xmlns="http://www.w3.org/2000/svg" xmlns:xlink="http://www.w3.org/1999/xlink" width="513.205" height="273" viewBox="0 0 513.205 273">
  <defs>
    <clipPath id="clip-path">
      <rect id="Rectángulo_1" data-name="Rectángulo 1" width="241" height="273" transform="translate(788 563)" fill="#fff"/>
    </clipPath>
  </defs>
  <g id="Grupo_694" data-name="Grupo 694" transform="translate(-788 -563)">
    <g id="Grupo_693" data-name="Grupo 693">
      <g id="Grupo_691" data-name="Grupo 691" transform="translate(457 186)">
        <path id="Trazado_990" data-name="Trazado 990" d="M0-188.645H262.2V-379.558H0Z" transform="translate(582 790.118)" fill="#fff7c4"/>
        <path id="Trazado_1037" data-name="Trazado 1037" d="M8.925-8.148h-5.5v-4.473H9.24v-1.533H1.6V0H9.555V-1.533H3.423v-5.1h5.5ZM11.865,0h1.848V-6.111a2.657,2.657,0,0,1,.126-.861,2.626,2.626,0,0,1,2.478-1.89c1.743,0,2.352,1.365,2.352,3V0h1.848V-6.069c0-3.486-2.184-4.326-3.591-4.326a3.738,3.738,0,0,0-3.36,1.911h-.042l-.105-1.68H11.781c.063.84.084,1.7.084,2.751ZM36.141-4.746a6.97,6.97,0,0,0,.063-.861c0-1.869-.882-4.788-4.2-4.788-2.961,0-4.767,2.415-4.767,5.481S29.106.21,32.235.21a8.232,8.232,0,0,0,3.381-.63L35.3-1.743a6.683,6.683,0,0,1-2.814.525A3.256,3.256,0,0,1,29-4.746ZM29.022-6.069c.147-1.281.966-3,2.835-3,2.079,0,2.583,1.827,2.562,3ZM37.779-.483A5.8,5.8,0,0,0,40.635.21c2.415,0,3.8-1.26,3.8-3.045,0-1.512-.9-2.394-2.667-3.066-1.323-.5-1.932-.882-1.932-1.722,0-.756.609-1.386,1.7-1.386a3.956,3.956,0,0,1,2.079.588l.462-1.344a5.073,5.073,0,0,0-2.5-.63c-2.184,0-3.507,1.344-3.507,2.982,0,1.218.861,2.226,2.688,2.877,1.365.5,1.89.987,1.89,1.869,0,.84-.63,1.512-1.974,1.512a4.843,4.843,0,0,1-2.436-.735ZM47.229-12.6v2.436H45.654v1.407h1.575v5.544a3.765,3.765,0,0,0,.714,2.646A2.561,2.561,0,0,0,49.938.21a4.524,4.524,0,0,0,1.638-.252l-.084-1.386a4.111,4.111,0,0,1-1.071.126c-1.029,0-1.386-.714-1.386-1.974V-8.757h2.646v-1.407H49.035v-2.919ZM61.068,0A14.311,14.311,0,0,1,60.9-2.436v-3.8c0-2.037-.756-4.158-3.864-4.158a6.308,6.308,0,0,0-3.339.9l.42,1.218a5.064,5.064,0,0,1,2.646-.756,2.1,2.1,0,0,1,2.31,2.352v.21c-3.927-.021-6.111,1.323-6.111,3.78A2.9,2.9,0,0,0,56.07.231a3.786,3.786,0,0,0,3.108-1.512h.063L59.388,0ZM59.115-3.423a1.929,1.929,0,0,1-.1.588,2.529,2.529,0,0,1-2.457,1.7A1.635,1.635,0,0,1,54.81-2.9c0-1.974,2.289-2.331,4.305-2.289ZM67.62-.483A5.8,5.8,0,0,0,70.476.21c2.415,0,3.8-1.26,3.8-3.045,0-1.512-.9-2.394-2.667-3.066-1.323-.5-1.932-.882-1.932-1.722,0-.756.609-1.386,1.7-1.386a3.956,3.956,0,0,1,2.079.588l.462-1.344a5.073,5.073,0,0,0-2.5-.63c-2.184,0-3.507,1.344-3.507,2.982,0,1.218.861,2.226,2.688,2.877,1.365.5,1.89.987,1.89,1.869,0,.84-.63,1.512-1.974,1.512a4.843,4.843,0,0,1-2.436-.735Zm17.2-4.263a6.971,6.971,0,0,0,.063-.861c0-1.869-.882-4.788-4.2-4.788-2.961,0-4.767,2.415-4.767,5.481S77.784.21,80.913.21a8.232,8.232,0,0,0,3.381-.63l-.315-1.323a6.683,6.683,0,0,1-2.814.525,3.256,3.256,0,0,1-3.486-3.528ZM77.7-6.069c.147-1.281.966-3,2.835-3,2.079,0,2.583,1.827,2.562,3Zm16.611-4.1-.084,1.533h-.042A3.381,3.381,0,0,0,91.014-10.4c-2.331,0-4.578,1.953-4.578,5.4,0,2.814,1.806,4.956,4.326,4.956A3.628,3.628,0,0,0,94-1.743h.042V-.609c0,2.562-1.386,3.549-3.276,3.549a5.731,5.731,0,0,1-2.982-.8l-.462,1.407a6.56,6.56,0,0,0,3.381.84,5.388,5.388,0,0,0,3.7-1.218c.987-.882,1.449-2.31,1.449-4.641v-5.9c0-1.239.042-2.058.084-2.793Zm-.294,5.838a3.215,3.215,0,0,1-.147.987,2.7,2.7,0,0,1-2.562,1.89c-1.995,0-3-1.659-3-3.654,0-2.352,1.26-3.843,3.024-3.843a2.662,2.662,0,0,1,2.583,1.953,2.632,2.632,0,0,1,.1.84Zm13.4-5.838h-1.848v6.237a2.7,2.7,0,0,1-.168.945,2.672,2.672,0,0,1-2.436,1.68c-1.68,0-2.268-1.3-2.268-3.234v-5.628H98.847v5.943c0,3.57,1.911,4.452,3.507,4.452a3.824,3.824,0,0,0,3.36-1.89h.042L105.861,0H107.5c-.063-.8-.084-1.722-.084-2.772ZM110.481,0h1.848V-6.111a2.657,2.657,0,0,1,.126-.861,2.626,2.626,0,0,1,2.478-1.89c1.743,0,2.352,1.365,2.352,3V0h1.848V-6.069c0-3.486-2.184-4.326-3.591-4.326a3.738,3.738,0,0,0-3.36,1.911h-.042l-.105-1.68H110.4c.063.84.084,1.7.084,2.751Zm18.585-14.91v6.069h-.042a3.4,3.4,0,0,0-3.066-1.554c-2.478,0-4.578,2.079-4.557,5.46,0,3.087,1.89,5.166,4.347,5.166a3.76,3.76,0,0,0,3.465-2h.042L129.339,0H131c-.063-.693-.084-1.722-.084-2.625V-14.91Zm0,10.647a3.21,3.21,0,0,1-.084.8,2.778,2.778,0,0,1-2.709,2.205c-1.995,0-3-1.7-3-3.759,0-2.247,1.134-3.927,3.045-3.927A2.718,2.718,0,0,1,128.982-6.8a3.262,3.262,0,0,1,.084.777ZM141.288,0a14.31,14.31,0,0,1-.168-2.436v-3.8c0-2.037-.756-4.158-3.864-4.158a6.308,6.308,0,0,0-3.339.9l.42,1.218a5.064,5.064,0,0,1,2.646-.756,2.1,2.1,0,0,1,2.31,2.352v.21c-3.927-.021-6.111,1.323-6.111,3.78A2.9,2.9,0,0,0,136.29.231,3.786,3.786,0,0,0,139.4-1.281h.063L139.608,0Zm-1.953-3.423a1.929,1.929,0,0,1-.1.588,2.529,2.529,0,0,1-2.457,1.7A1.635,1.635,0,0,1,135.03-2.9c0-1.974,2.289-2.331,4.3-2.289Zm9.219,7.581h1.827V-1.365h.042a3.564,3.564,0,0,0,3.129,1.6c2.394,0,4.62-1.806,4.62-5.46,0-3.087-1.848-5.166-4.305-5.166a4,4,0,0,0-3.612,1.974h-.042l-.084-1.743H148.47c.042.966.084,2.016.084,3.318ZM150.381-5.88a3,3,0,0,1,.126-.756A2.949,2.949,0,0,1,153.3-8.925c1.953,0,3.024,1.743,3.024,3.78,0,2.331-1.134,3.927-3.087,3.927a2.851,2.851,0,0,1-2.772-2.163,4.161,4.161,0,0,1-.084-.756ZM167.811,0a14.31,14.31,0,0,1-.168-2.436v-3.8c0-2.037-.756-4.158-3.864-4.158a6.308,6.308,0,0,0-3.339.9l.42,1.218a5.064,5.064,0,0,1,2.646-.756,2.1,2.1,0,0,1,2.31,2.352v.21c-3.927-.021-6.111,1.323-6.111,3.78A2.9,2.9,0,0,0,162.813.231a3.786,3.786,0,0,0,3.108-1.512h.063L166.131,0Zm-1.953-3.423a1.929,1.929,0,0,1-.1.588,2.529,2.529,0,0,1-2.457,1.7A1.635,1.635,0,0,1,161.553-2.9c0-1.974,2.289-2.331,4.305-2.289ZM170.625,0h1.827V-5.418a5.2,5.2,0,0,1,.084-.861,2.592,2.592,0,0,1,2.478-2.373,2.776,2.776,0,0,1,.63.063v-1.743a2,2,0,0,0-.525-.063A3.05,3.05,0,0,0,172.3-8.169h-.084l-.063-1.995h-1.617c.063.945.084,1.974.084,3.171Z" transform="translate(607.795 476.907)" fill="#ff9435"/>
        <path id="Trazado_1038" data-name="Trazado 1038" d="M1.953-12.6v2.436H.378v1.407H1.953v5.544A3.765,3.765,0,0,0,2.667-.567a2.561,2.561,0,0,0,2,.777A4.524,4.524,0,0,0,6.3-.042L6.216-1.428A4.111,4.111,0,0,1,5.145-1.3c-1.029,0-1.386-.714-1.386-1.974V-8.757H6.405v-1.407H3.759v-2.919ZM16.527-4.746a6.97,6.97,0,0,0,.063-.861c0-1.869-.882-4.788-4.2-4.788-2.961,0-4.767,2.415-4.767,5.481S9.492.21,12.621.21A8.232,8.232,0,0,0,16-.42l-.315-1.323a6.683,6.683,0,0,1-2.814.525A3.256,3.256,0,0,1,9.387-4.746ZM9.408-6.069c.147-1.281.966-3,2.835-3,2.079,0,2.583,1.827,2.562,3Z" transform="translate(784.256 476.907)" fill="#ff9435"/>
        <path id="Trazado_1036" data-name="Trazado 1036" d="M8.463-1.764a5.25,5.25,0,0,1-2.268.5,3.485,3.485,0,0,1-3.528-3.8A3.517,3.517,0,0,1,6.258-8.9,4.285,4.285,0,0,1,8.4-8.421l.42-1.428a6.177,6.177,0,0,0-2.562-.525A5.164,5.164,0,0,0,.8-4.977,4.829,4.829,0,0,0,5.859.21,6.807,6.807,0,0,0,8.778-.378ZM18.249,0a14.311,14.311,0,0,1-.168-2.436v-3.8c0-2.037-.756-4.158-3.864-4.158a6.308,6.308,0,0,0-3.339.9l.42,1.218a5.064,5.064,0,0,1,2.646-.756,2.1,2.1,0,0,1,2.31,2.352v.21c-3.927-.021-6.111,1.323-6.111,3.78A2.9,2.9,0,0,0,13.251.231a3.786,3.786,0,0,0,3.108-1.512h.063L16.569,0ZM16.3-3.423a1.929,1.929,0,0,1-.1.588,2.529,2.529,0,0,1-2.457,1.7A1.635,1.635,0,0,1,11.991-2.9c0-1.974,2.289-2.331,4.3-2.289ZM21.063,0h1.806V-6.132a2.547,2.547,0,0,1,.147-.9A2.525,2.525,0,0,1,25.3-8.883c1.407,0,2.121,1.176,2.121,2.793V0h1.806V-6.279a3.043,3.043,0,0,1,.147-.924,2.393,2.393,0,0,1,2.184-1.68c1.491,0,2.2,1.176,2.2,3.129V0h1.806V-5.985c0-3.528-1.995-4.41-3.339-4.41a3.469,3.469,0,0,0-2.247.714,4.187,4.187,0,0,0-1.134,1.323h-.042A3,3,0,0,0,25.935-10.4a3.5,3.5,0,0,0-3.192,1.869H22.68L22.6-10.164H20.979c.063.84.084,1.7.084,2.751ZM40.089,0l.084-1.68h.063a3.621,3.621,0,0,0,3.4,1.911c2.268,0,4.557-1.806,4.557-5.439C48.216-8.3,46.431-10.4,43.911-10.4a3.786,3.786,0,0,0-3.465,1.869H40.4V-14.91H38.577V-2.625c0,.9-.042,1.932-.084,2.625ZM40.4-5.9a3.642,3.642,0,0,1,.1-.756,2.946,2.946,0,0,1,2.814-2.268c1.974,0,3.024,1.743,3.024,3.78,0,2.331-1.155,3.906-3.087,3.906A2.851,2.851,0,0,1,40.488-3.4a3.46,3.46,0,0,1-.084-.672ZM52.374,0V-10.164H50.526V0ZM51.45-14.175a1.126,1.126,0,0,0-1.155,1.155,1.1,1.1,0,0,0,1.113,1.134,1.091,1.091,0,0,0,1.176-1.134A1.1,1.1,0,0,0,51.45-14.175ZM62.748,0a14.311,14.311,0,0,1-.168-2.436v-3.8c0-2.037-.756-4.158-3.864-4.158a6.308,6.308,0,0,0-3.339.9l.42,1.218a5.064,5.064,0,0,1,2.646-.756,2.1,2.1,0,0,1,2.31,2.352v.21c-3.927-.021-6.111,1.323-6.111,3.78A2.9,2.9,0,0,0,57.75.231a3.786,3.786,0,0,0,3.108-1.512h.063L61.068,0ZM60.795-3.423a1.929,1.929,0,0,1-.1.588,2.529,2.529,0,0,1-2.457,1.7A1.635,1.635,0,0,1,56.49-2.9c0-1.974,2.289-2.331,4.305-2.289ZM70.014,0h1.848V-14.91H70.014ZM82.278,0a14.311,14.311,0,0,1-.168-2.436v-3.8c0-2.037-.756-4.158-3.864-4.158a6.308,6.308,0,0,0-3.339.9l.42,1.218a5.064,5.064,0,0,1,2.646-.756,2.1,2.1,0,0,1,2.31,2.352v.21c-3.927-.021-6.111,1.323-6.111,3.78A2.9,2.9,0,0,0,77.28.231a3.786,3.786,0,0,0,3.108-1.512h.063L80.6,0ZM80.325-3.423a1.929,1.929,0,0,1-.105.588,2.529,2.529,0,0,1-2.457,1.7A1.635,1.635,0,0,1,76.02-2.9c0-1.974,2.289-2.331,4.305-2.289ZM89.544,0H91.35V-6.132a2.547,2.547,0,0,1,.147-.9,2.525,2.525,0,0,1,2.289-1.848c1.407,0,2.121,1.176,2.121,2.793V0h1.806V-6.279A3.043,3.043,0,0,1,97.86-7.2a2.393,2.393,0,0,1,2.184-1.68c1.491,0,2.205,1.176,2.205,3.129V0h1.806V-5.985c0-3.528-1.995-4.41-3.339-4.41a3.469,3.469,0,0,0-2.247.714,4.187,4.187,0,0,0-1.134,1.323h-.042A3,3,0,0,0,94.416-10.4a3.5,3.5,0,0,0-3.192,1.869h-.063l-.084-1.638H89.46c.063.84.084,1.7.084,2.751Zm25.683-4.746a6.971,6.971,0,0,0,.063-.861c0-1.869-.882-4.788-4.2-4.788-2.961,0-4.767,2.415-4.767,5.481s1.869,5.124,5,5.124A8.232,8.232,0,0,0,114.7-.42l-.315-1.323a6.683,6.683,0,0,1-2.814.525,3.256,3.256,0,0,1-3.486-3.528Zm-7.119-1.323c.147-1.281.966-3,2.835-3,2.079,0,2.583,1.827,2.562,3ZM118-12.6v2.436h-1.575v1.407H118v5.544a3.765,3.765,0,0,0,.714,2.646,2.561,2.561,0,0,0,2,.777,4.524,4.524,0,0,0,1.638-.252l-.084-1.386a4.111,4.111,0,0,1-1.071.126c-1.029,0-1.386-.714-1.386-1.974V-8.757h2.646v-1.407h-2.646v-2.919Zm10.71,2.2c-2.814,0-5.04,1.995-5.04,5.4,0,3.213,2.121,5.229,4.872,5.229,2.457,0,5.061-1.638,5.061-5.4C133.6-8.274,131.628-10.4,128.709-10.4Zm-.042,1.386c2.184,0,3.045,2.184,3.045,3.906,0,2.289-1.323,3.948-3.087,3.948-1.806,0-3.087-1.68-3.087-3.906C125.538-6.993,126.483-9.009,128.667-9.009Zm14.2-5.9v6.069h-.042a3.4,3.4,0,0,0-3.066-1.554c-2.478,0-4.578,2.079-4.557,5.46,0,3.087,1.89,5.166,4.347,5.166a3.76,3.76,0,0,0,3.465-2h.042L143.136,0H144.8c-.063-.693-.084-1.722-.084-2.625V-14.91Zm0,10.647a3.21,3.21,0,0,1-.084.8A2.778,2.778,0,0,1,140.07-1.26c-1.995,0-3-1.7-3-3.759,0-2.247,1.134-3.927,3.045-3.927A2.718,2.718,0,0,1,142.779-6.8a3.262,3.262,0,0,1,.084.777Zm9.219-6.132c-2.814,0-5.04,1.995-5.04,5.4,0,3.213,2.121,5.229,4.872,5.229,2.457,0,5.061-1.638,5.061-5.4C156.975-8.274,155-10.4,152.082-10.4Zm-.042,1.386c2.184,0,3.045,2.184,3.045,3.906,0,2.289-1.323,3.948-3.087,3.948-1.806,0-3.087-1.68-3.087-3.906C148.911-6.993,149.856-9.009,152.04-9.009ZM159.306,0h1.848V-14.91h-1.848Zm9.261-10.4c-2.814,0-5.04,1.995-5.04,5.4,0,3.213,2.121,5.229,4.872,5.229,2.457,0,5.061-1.638,5.061-5.4C173.46-8.274,171.486-10.4,168.567-10.4Zm-.042,1.386c2.184,0,3.045,2.184,3.045,3.906,0,2.289-1.323,3.948-3.087,3.948-1.806,0-3.087-1.68-3.087-3.906C165.4-6.993,166.341-9.009,168.525-9.009Zm14.406-1.155-.084,1.533h-.042a3.381,3.381,0,0,0-3.171-1.764c-2.331,0-4.578,1.953-4.578,5.4,0,2.814,1.806,4.956,4.326,4.956a3.628,3.628,0,0,0,3.234-1.7h.042V-.609c0,2.562-1.386,3.549-3.276,3.549a5.731,5.731,0,0,1-2.982-.8l-.462,1.407a6.56,6.56,0,0,0,3.381.84,5.388,5.388,0,0,0,3.7-1.218c.987-.882,1.449-2.31,1.449-4.641v-5.9c0-1.239.042-2.058.084-2.793Zm-.294,5.838a3.215,3.215,0,0,1-.147.987,2.7,2.7,0,0,1-2.562,1.89c-1.995,0-3-1.659-3-3.654,0-2.352,1.26-3.843,3.024-3.843a2.662,2.662,0,0,1,2.583,1.953,2.632,2.632,0,0,1,.1.84ZM189.252,0V-10.164H187.4V0Zm-.126-14.553-1.848,3H188.6l2.562-3ZM199.626,0a14.31,14.31,0,0,1-.168-2.436v-3.8c0-2.037-.756-4.158-3.864-4.158a6.308,6.308,0,0,0-3.339.9l.42,1.218a5.064,5.064,0,0,1,2.646-.756,2.1,2.1,0,0,1,2.31,2.352v.21c-3.927-.021-6.111,1.323-6.111,3.78A2.9,2.9,0,0,0,194.628.231a3.786,3.786,0,0,0,3.108-1.512h.063L197.946,0Zm-1.953-3.423a1.929,1.929,0,0,1-.1.588,2.529,2.529,0,0,1-2.457,1.7A1.635,1.635,0,0,1,193.368-2.9c0-1.974,2.289-2.331,4.305-2.289Z" transform="translate(607.795 498.915)" fill="#ff9435"/>
        <path id="Trazado_1032" data-name="Trazado 1032" d="M1.533,4.158H3.36V-1.365H3.4A3.564,3.564,0,0,0,6.531.231c2.394,0,4.62-1.806,4.62-5.46,0-3.087-1.848-5.166-4.3-5.166A4,4,0,0,0,3.234-8.421H3.192l-.084-1.743H1.449c.042.966.084,2.016.084,3.318ZM3.36-5.88a3,3,0,0,1,.126-.756A2.949,2.949,0,0,1,6.279-8.925c1.953,0,3.024,1.743,3.024,3.78,0,2.331-1.134,3.927-3.087,3.927A2.851,2.851,0,0,1,3.444-3.381a4.161,4.161,0,0,1-.084-.756ZM17.787-10.4c-2.814,0-5.04,1.995-5.04,5.4,0,3.213,2.121,5.229,4.872,5.229,2.457,0,5.061-1.638,5.061-5.4C22.68-8.274,20.706-10.4,17.787-10.4Zm-.042,1.386c2.184,0,3.045,2.184,3.045,3.906,0,2.289-1.323,3.948-3.087,3.948-1.806,0-3.087-1.68-3.087-3.906C14.616-6.993,15.561-9.009,17.745-9.009ZM25.011,0h1.827V-5.418a5.2,5.2,0,0,1,.084-.861A2.592,2.592,0,0,1,29.4-8.652a2.776,2.776,0,0,1,.63.063v-1.743a2,2,0,0,0-.525-.063,3.049,3.049,0,0,0-2.814,2.226h-.084l-.063-1.995H24.927c.063.945.084,1.974.084,3.171ZM44.5-4.746a6.97,6.97,0,0,0,.063-.861c0-1.869-.882-4.788-4.2-4.788C37.4-10.4,35.6-7.98,35.6-4.914S37.464.21,40.593.21a8.232,8.232,0,0,0,3.381-.63l-.315-1.323a6.683,6.683,0,0,1-2.814.525,3.256,3.256,0,0,1-3.486-3.528ZM37.38-6.069c.147-1.281.966-3,2.835-3,2.079,0,2.583,1.827,2.562,3ZM46.851,0H48.7V-6.111a2.657,2.657,0,0,1,.126-.861A2.626,2.626,0,0,1,51.3-8.862c1.743,0,2.352,1.365,2.352,3V0H55.5V-6.069c0-3.486-2.184-4.326-3.591-4.326a3.738,3.738,0,0,0-3.36,1.911H48.51l-.105-1.68H46.767c.063.84.084,1.7.084,2.751ZM58.842-12.6v2.436H57.267v1.407h1.575v5.544a3.765,3.765,0,0,0,.714,2.646A2.561,2.561,0,0,0,61.551.21a4.524,4.524,0,0,0,1.638-.252L63.1-1.428a4.111,4.111,0,0,1-1.071.126c-1.029,0-1.386-.714-1.386-1.974V-8.757h2.646v-1.407H60.648v-2.919ZM65.373,0H67.2V-5.418a5.2,5.2,0,0,1,.084-.861,2.592,2.592,0,0,1,2.478-2.373,2.776,2.776,0,0,1,.63.063v-1.743a2,2,0,0,0-.525-.063,3.049,3.049,0,0,0-2.814,2.226h-.084l-.063-1.995H65.289c.063.945.084,1.974.084,3.171Z" transform="translate(607.795 520.923)" fill="#ff9435"/>
        <path id="Trazado_1033" data-name="Trazado 1033" d="M9.7-4.746a6.97,6.97,0,0,0,.063-.861c0-1.869-.882-4.788-4.2-4.788C2.6-10.4.8-7.98.8-4.914S2.667.21,5.8.21A8.232,8.232,0,0,0,9.177-.42L8.862-1.743a6.683,6.683,0,0,1-2.814.525A3.256,3.256,0,0,1,2.562-4.746ZM2.583-6.069c.147-1.281.966-3,2.835-3,2.079,0,2.583,1.827,2.562,3Zm8.211-4.1L14.658,0h1.764l3.99-10.164H18.48L16.506-4.452c-.336.924-.63,1.764-.861,2.6h-.063a26.139,26.139,0,0,0-.819-2.6l-2-5.712ZM24,0V-10.164H22.155V0Zm-.924-14.175a1.126,1.126,0,0,0-1.155,1.155,1.1,1.1,0,0,0,1.113,1.134,1.091,1.091,0,0,0,1.176-1.134A1.1,1.1,0,0,0,23.079-14.175ZM26.355-.483A5.8,5.8,0,0,0,29.211.21c2.415,0,3.8-1.26,3.8-3.045,0-1.512-.9-2.394-2.667-3.066-1.323-.5-1.932-.882-1.932-1.722,0-.756.609-1.386,1.7-1.386a3.956,3.956,0,0,1,2.079.588l.462-1.344a5.073,5.073,0,0,0-2.5-.63c-2.184,0-3.507,1.344-3.507,2.982,0,1.218.861,2.226,2.688,2.877,1.365.5,1.89.987,1.89,1.869,0,.84-.63,1.512-1.974,1.512a4.843,4.843,0,0,1-2.436-.735ZM35.8-12.6v2.436H34.23v1.407H35.8v5.544a3.765,3.765,0,0,0,.714,2.646A2.561,2.561,0,0,0,38.514.21a4.524,4.524,0,0,0,1.638-.252l-.084-1.386A4.111,4.111,0,0,1,39-1.3c-1.029,0-1.386-.714-1.386-1.974V-8.757h2.646v-1.407H37.611v-2.919ZM49.644,0a14.311,14.311,0,0,1-.168-2.436v-3.8c0-2.037-.756-4.158-3.864-4.158a6.308,6.308,0,0,0-3.339.9l.42,1.218a5.064,5.064,0,0,1,2.646-.756,2.1,2.1,0,0,1,2.31,2.352v.21c-3.927-.021-6.111,1.323-6.111,3.78A2.9,2.9,0,0,0,44.646.231a3.786,3.786,0,0,0,3.108-1.512h.063L47.964,0ZM47.691-3.423a1.929,1.929,0,0,1-.1.588,2.529,2.529,0,0,1-2.457,1.7A1.635,1.635,0,0,1,43.386-2.9c0-1.974,2.289-2.331,4.305-2.289ZM65.079-4.746a6.969,6.969,0,0,0,.063-.861c0-1.869-.882-4.788-4.2-4.788-2.961,0-4.767,2.415-4.767,5.481S58.044.21,61.173.21a8.232,8.232,0,0,0,3.381-.63l-.315-1.323a6.683,6.683,0,0,1-2.814.525,3.256,3.256,0,0,1-3.486-3.528ZM57.96-6.069c.147-1.281.966-3,2.835-3,2.079,0,2.583,1.827,2.562,3ZM66.717-.483A5.8,5.8,0,0,0,69.573.21c2.415,0,3.8-1.26,3.8-3.045,0-1.512-.9-2.394-2.667-3.066-1.323-.5-1.932-.882-1.932-1.722,0-.756.609-1.386,1.7-1.386a3.956,3.956,0,0,1,2.079.588l.462-1.344a5.073,5.073,0,0,0-2.5-.63c-2.184,0-3.507,1.344-3.507,2.982,0,1.218.861,2.226,2.688,2.877,1.365.5,1.89.987,1.89,1.869,0,.84-.63,1.512-1.974,1.512a4.843,4.843,0,0,1-2.436-.735ZM76.167-12.6v2.436H74.592v1.407h1.575v5.544a3.765,3.765,0,0,0,.714,2.646,2.561,2.561,0,0,0,2,.777,4.524,4.524,0,0,0,1.638-.252L80.43-1.428a4.111,4.111,0,0,1-1.071.126c-1.029,0-1.386-.714-1.386-1.974V-8.757h2.646v-1.407H77.973v-2.919ZM82.7,0h1.827V-5.418a5.2,5.2,0,0,1,.084-.861,2.592,2.592,0,0,1,2.478-2.373,2.776,2.776,0,0,1,.63.063v-1.743a2,2,0,0,0-.525-.063,3.05,3.05,0,0,0-2.814,2.226h-.084l-.063-1.995H82.614c.063.945.084,1.974.084,3.171ZM98.07-10.164H96.222v6.237a2.7,2.7,0,0,1-.168.945A2.672,2.672,0,0,1,93.618-1.3c-1.68,0-2.268-1.3-2.268-3.234v-5.628H89.5v5.943c0,3.57,1.911,4.452,3.507,4.452a3.824,3.824,0,0,0,3.36-1.89h.042L96.516,0h1.638c-.063-.8-.084-1.722-.084-2.772Zm10,8.4a5.25,5.25,0,0,1-2.268.5,3.485,3.485,0,0,1-3.528-3.8A3.517,3.517,0,0,1,105.861-8.9,4.285,4.285,0,0,1,108-8.421l.42-1.428a6.177,6.177,0,0,0-2.562-.525,5.164,5.164,0,0,0-5.46,5.4A4.829,4.829,0,0,0,105.462.21a6.807,6.807,0,0,0,2.919-.588Z" transform="translate(678.29 520.923)" fill="#ff9435"/>
        <path id="Trazado_1035" data-name="Trazado 1035" d="M1.953-12.6v2.436H.378v1.407H1.953v5.544A3.765,3.765,0,0,0,2.667-.567a2.561,2.561,0,0,0,2,.777A4.524,4.524,0,0,0,6.3-.042L6.216-1.428A4.111,4.111,0,0,1,5.145-1.3c-1.029,0-1.386-.714-1.386-1.974V-8.757H6.405v-1.407H3.759v-2.919Zm15.036,2.436H15.141v6.237a2.7,2.7,0,0,1-.168.945A2.672,2.672,0,0,1,12.537-1.3c-1.68,0-2.268-1.3-2.268-3.234v-5.628H8.421v5.943c0,3.57,1.911,4.452,3.507,4.452a3.824,3.824,0,0,0,3.36-1.89h.042L15.435,0h1.638c-.063-.8-.084-1.722-.084-2.772Z" transform="translate(787.574 520.923)" fill="#ff9435"/>
        <path id="Trazado_1034" data-name="Trazado 1034" d="M.63-6.363V-5H5.817V-6.363Z" transform="translate(806.096 520.923)" fill="#ff9435"/>
        <path id="Trazado_1031" data-name="Trazado 1031" d="M1.533,0H3.36V-5.418a5.2,5.2,0,0,1,.084-.861A2.592,2.592,0,0,1,5.922-8.652a2.776,2.776,0,0,1,.63.063v-1.743a2,2,0,0,0-.525-.063A3.049,3.049,0,0,0,3.213-8.169H3.129l-.063-1.995H1.449c.063.945.084,1.974.084,3.171ZM15.6,0a14.311,14.311,0,0,1-.168-2.436v-3.8c0-2.037-.756-4.158-3.864-4.158a6.308,6.308,0,0,0-3.339.9l.42,1.218A5.064,5.064,0,0,1,11.3-9.03a2.1,2.1,0,0,1,2.31,2.352v.21C9.681-6.489,7.5-5.145,7.5-2.688A2.9,2.9,0,0,0,10.605.231a3.786,3.786,0,0,0,3.108-1.512h.063L13.923,0ZM13.65-3.423a1.929,1.929,0,0,1-.1.588,2.529,2.529,0,0,1-2.457,1.7A1.635,1.635,0,0,1,9.345-2.9c0-1.974,2.289-2.331,4.3-2.289Zm11.7-11.487v6.069h-.042A3.4,3.4,0,0,0,22.239-10.4c-2.478,0-4.578,2.079-4.557,5.46,0,3.087,1.89,5.166,4.347,5.166a3.76,3.76,0,0,0,3.465-2h.042L25.62,0h1.659c-.063-.693-.084-1.722-.084-2.625V-14.91Zm0,10.647a3.21,3.21,0,0,1-.084.8A2.778,2.778,0,0,1,22.554-1.26c-2,0-3-1.7-3-3.759,0-2.247,1.134-3.927,3.045-3.927A2.718,2.718,0,0,1,25.263-6.8a3.262,3.262,0,0,1,.084.777ZM37.569,0A14.311,14.311,0,0,1,37.4-2.436v-3.8c0-2.037-.756-4.158-3.864-4.158a6.308,6.308,0,0,0-3.339.9l.42,1.218a5.064,5.064,0,0,1,2.646-.756,2.1,2.1,0,0,1,2.31,2.352v.21c-3.927-.021-6.111,1.323-6.111,3.78A2.9,2.9,0,0,0,32.571.231a3.786,3.786,0,0,0,3.108-1.512h.063L35.889,0ZM35.616-3.423a1.929,1.929,0,0,1-.1.588,2.529,2.529,0,0,1-2.457,1.7A1.635,1.635,0,0,1,31.311-2.9c0-1.974,2.289-2.331,4.3-2.289Zm4.893,5.88a25.6,25.6,0,0,0,1.995-5.1l-2.058.21a30.215,30.215,0,0,1-1.26,5.019ZM56.49,0a14.311,14.311,0,0,1-.168-2.436v-3.8c0-2.037-.756-4.158-3.864-4.158a6.308,6.308,0,0,0-3.339.9l.42,1.218a5.064,5.064,0,0,1,2.646-.756,2.1,2.1,0,0,1,2.31,2.352v.21c-3.927-.021-6.111,1.323-6.111,3.78A2.9,2.9,0,0,0,51.492.231,3.786,3.786,0,0,0,54.6-1.281h.063L54.81,0ZM54.537-3.423a1.929,1.929,0,0,1-.1.588,2.529,2.529,0,0,1-2.457,1.7A1.635,1.635,0,0,1,50.232-2.9c0-1.974,2.289-2.331,4.305-2.289ZM64.176-12.6v2.436H62.6v1.407h1.575v5.544A3.765,3.765,0,0,0,64.89-.567,2.561,2.561,0,0,0,66.885.21a4.524,4.524,0,0,0,1.638-.252l-.084-1.386a4.111,4.111,0,0,1-1.071.126c-1.029,0-1.386-.714-1.386-1.974V-8.757h2.646v-1.407H65.982v-2.919ZM70.707,0h1.827V-5.418a5.2,5.2,0,0,1,.084-.861A2.592,2.592,0,0,1,75.1-8.652a2.776,2.776,0,0,1,.63.063v-1.743A2,2,0,0,0,75.2-10.4a3.05,3.05,0,0,0-2.814,2.226H72.3l-.063-1.995H70.623c.063.945.084,1.974.084,3.171Zm14.07,0a14.311,14.311,0,0,1-.168-2.436v-3.8c0-2.037-.756-4.158-3.864-4.158a6.308,6.308,0,0,0-3.339.9l.42,1.218a5.064,5.064,0,0,1,2.646-.756,2.1,2.1,0,0,1,2.31,2.352v.21c-3.927-.021-6.111,1.323-6.111,3.78A2.9,2.9,0,0,0,79.779.231a3.786,3.786,0,0,0,3.108-1.512h.063L83.1,0ZM82.824-3.423a1.929,1.929,0,0,1-.105.588,2.529,2.529,0,0,1-2.457,1.7A1.635,1.635,0,0,1,78.519-2.9c0-1.974,2.289-2.331,4.305-2.289Zm3.339-6.741L90.027,0h1.764l3.99-10.164H93.849L91.875-4.452c-.336.924-.63,1.764-.861,2.6h-.063a26.136,26.136,0,0,0-.819-2.6l-1.995-5.712Z" transform="translate(607.795 542.931)" fill="#ff9435"/>
        <path id="Trazado_1030" data-name="Trazado 1030" d="M9.7-4.746a6.97,6.97,0,0,0,.063-.861c0-1.869-.882-4.788-4.2-4.788C2.6-10.4.8-7.98.8-4.914S2.667.21,5.8.21A8.232,8.232,0,0,0,9.177-.42L8.862-1.743a6.683,6.683,0,0,1-2.814.525A3.256,3.256,0,0,1,2.562-4.746ZM2.583-6.069c.147-1.281.966-3,2.835-3,2.079,0,2.583,1.827,2.562,3Zm3.8-8.484-1.848,3H5.859l2.562-3ZM11.34-.483A5.8,5.8,0,0,0,14.2.21C16.611.21,18-1.05,18-2.835c0-1.512-.9-2.394-2.667-3.066-1.323-.5-1.932-.882-1.932-1.722,0-.756.609-1.386,1.7-1.386a3.956,3.956,0,0,1,2.079.588l.462-1.344a5.073,5.073,0,0,0-2.5-.63c-2.184,0-3.507,1.344-3.507,2.982,0,1.218.861,2.226,2.688,2.877,1.365.5,1.89.987,1.89,1.869,0,.84-.63,1.512-1.974,1.512A4.843,4.843,0,0,1,11.8-1.89ZM31.752-14.91v6.069H31.71A3.4,3.4,0,0,0,28.644-10.4c-2.478,0-4.578,2.079-4.557,5.46,0,3.087,1.89,5.166,4.347,5.166a3.76,3.76,0,0,0,3.465-2h.042L32.025,0h1.659c-.063-.693-.084-1.722-.084-2.625V-14.91Zm0,10.647a3.21,3.21,0,0,1-.084.8A2.778,2.778,0,0,1,28.959-1.26c-1.995,0-3-1.7-3-3.759,0-2.247,1.134-3.927,3.045-3.927A2.718,2.718,0,0,1,31.668-6.8a3.262,3.262,0,0,1,.084.777Zm13.083-.483a6.97,6.97,0,0,0,.063-.861c0-1.869-.882-4.788-4.2-4.788-2.961,0-4.767,2.415-4.767,5.481S37.8.21,40.929.21A8.232,8.232,0,0,0,44.31-.42l-.315-1.323a6.683,6.683,0,0,1-2.814.525,3.256,3.256,0,0,1-3.486-3.528ZM37.716-6.069c.147-1.281.966-3,2.835-3,2.079,0,2.583,1.827,2.562,3ZM51.639,0h1.848V-14.91H51.639ZM63.9,0a14.311,14.311,0,0,1-.168-2.436v-3.8c0-2.037-.756-4.158-3.864-4.158a6.308,6.308,0,0,0-3.339.9l.42,1.218A5.064,5.064,0,0,1,59.6-9.03a2.1,2.1,0,0,1,2.31,2.352v.21C57.981-6.489,55.8-5.145,55.8-2.688A2.9,2.9,0,0,0,58.9.231a3.786,3.786,0,0,0,3.108-1.512h.063L62.223,0ZM61.95-3.423a1.929,1.929,0,0,1-.1.588,2.529,2.529,0,0,1-2.457,1.7A1.635,1.635,0,0,1,57.645-2.9c0-1.974,2.289-2.331,4.305-2.289ZM78.1-1.764a5.25,5.25,0,0,1-2.268.5,3.485,3.485,0,0,1-3.528-3.8A3.517,3.517,0,0,1,75.894-8.9a4.285,4.285,0,0,1,2.142.483l.42-1.428a6.177,6.177,0,0,0-2.562-.525,5.164,5.164,0,0,0-5.46,5.4A4.829,4.829,0,0,0,75.5.21a6.807,6.807,0,0,0,2.919-.588Zm10.983-8.4H87.234v6.237a2.7,2.7,0,0,1-.168.945A2.672,2.672,0,0,1,84.63-1.3c-1.68,0-2.268-1.3-2.268-3.234v-5.628H80.514v5.943c0,3.57,1.911,4.452,3.507,4.452a3.824,3.824,0,0,0,3.36-1.89h.042L87.528,0h1.638c-.063-.8-.084-1.722-.084-2.772ZM99.456,0a14.311,14.311,0,0,1-.168-2.436v-3.8c0-2.037-.756-4.158-3.864-4.158a6.308,6.308,0,0,0-3.339.9l.42,1.218a5.064,5.064,0,0,1,2.646-.756,2.1,2.1,0,0,1,2.31,2.352v.21c-3.927-.021-6.111,1.323-6.111,3.78A2.9,2.9,0,0,0,94.458.231a3.786,3.786,0,0,0,3.108-1.512h.063L97.776,0ZM97.5-3.423a1.929,1.929,0,0,1-.105.588,2.529,2.529,0,0,1-2.457,1.7A1.635,1.635,0,0,1,93.2-2.9c0-1.974,2.289-2.331,4.305-2.289ZM102.27,0h1.848V-14.91H102.27Z" transform="translate(703.574 542.931)" fill="#ff9435"/>
      </g>
      <path id="Trazado_1029" data-name="Trazado 1029" d="M63.5,0S41.386,28.348,0,36.993c0,0,49.417-25.37,49.417-55.134Z" transform="matrix(0.719, 0.695, -0.695, 0.719, 999.615, 671.747)" fill="#fff7c4"/>
      <g id="Enmascarar_grupo_1" data-name="Enmascarar grupo 1" clip-path="url(#clip-path)">
        <g id="Grupo_692" data-name="Grupo 692">
          <path id="Trazado_991" data-name="Trazado 991" d="M0,0C1,18.483,18.721,146.264,14.724,174.737c-36.965.748-63.44,2.246-63.44,2.246L-54.941-2.92S-5.881-.469,0,0" transform="translate(956.73 726.641)" fill="#ebe5ed"/>
          <path id="Trazado_992" data-name="Trazado 992" d="M0,0C-11.612,7.492-34.465,6.742-34.465,6.742c1.5-25.85,3.745-148.309-9.366-192.142,8.241,0,26.117,4.309,30.615,7.3S37.84-77.5,33.718-6.323C20.606-9.695,7.494-7.072,7.494-7.072,7.87-29.925-10.115-112.345-10.115-112.345-9.365-74.506-2-45.961,0,0" transform="translate(994.679 911.573)" fill="#245965"/>
          <path id="Trazado_993" data-name="Trazado 993" d="M262.2,0H425.385V-209.011H262.2Z" transform="translate(582 790.118)" fill="none"/>
          <path id="Trazado_994" data-name="Trazado 994" d="M0,0C-.937,8.243-4.121,23.229-.374,27.163a16.251,16.251,0,0,0,8.241,4.682c-13.559,26.66-14.62,39.212-43.458-3,2.081-.2,3.007.055,3.356.311.625.458-.6.916-.359-1.247C-32.22,24.54-30.346-2.06-30.346-2.06Z" transform="translate(942.606 694.328)" fill="#e18e5f"/>
          <path id="Trazado_995" data-name="Trazado 995" d="M0,0H0C-.7,4.958-1.342,10.346-.994,14.331h.009C-1.335,10.344-.692,4.959,0,0M-29.808-2.457c-.3,4.186-.683,9.458-1.017,13.892C-30.491,7-30.108,1.729-29.808-2.457Z" transform="translate(941.543 702.105)" fill="#d2a07e"/>
          <path id="Trazado_997" data-name="Trazado 997" d="M0,0C-.3,4.186-.683,9.458-1.016,13.893a76.768,76.768,0,0,0,22.3,3.243c2.583,0,5.1-.123,7.53-.348-.348-3.985.3-9.373.991-14.331a82.389,82.389,0,0,1-8.574.448h-.078A76.862,76.862,0,0,1,0,0" transform="translate(911.735 699.648)" fill="#c57040"/>
          <path id="Trazado_998" data-name="Trazado 998" d="M0,0C15.987,9.133,20.121,11.093,16.2,34.58s-7.4,48.719-5.654,67.859c-.434,6.525-40.454,22.184-74.384,2.61-3.043-30.886-3.479-72.644,3.481-91.782S-24.36-11.31,0,0" transform="translate(960.029 587.993)" fill="#e18e5f"/>
          <path id="Trazado_999" data-name="Trazado 999" d="M262.2,0H425.385V-209.011H262.2Z" transform="translate(582 790.118)" fill="none"/>
          <path id="Trazado_1000" data-name="Trazado 1000" d="M0,0C-1.521-16.527-22.836-9.568-21.314,2.395S-6.088,25.883-1.085,15.442C.221,4.132,0,0,0,0" transform="translate(896.847 644.539)" fill="#e18e5f"/>
          <path id="Trazado_1001" data-name="Trazado 1001" d="M0,0A1.489,1.489,0,0,1,.392-.19c.264-.1.647-.269,1.137-.49.246-.107.507-.251.8-.394s.59-.336.918-.524A9.91,9.91,0,0,0,5.2-3.232a6.244,6.244,0,0,0,1.379-2.7,8.17,8.17,0,0,0-.045-3.5,23.164,23.164,0,0,0-1.321-3.727,40.828,40.828,0,0,1-1.44-4.069,29.814,29.814,0,0,1-1.258-8.234A34.049,34.049,0,0,1,3.2-32.224a43.906,43.906,0,0,1,1.168-4.427c.172-.512.309-.909.407-1.176a1.469,1.469,0,0,1,.173-.4,1.549,1.549,0,0,1-.082.429c-.068.275-.176.68-.32,1.2-.281,1.04-.656,2.552-1.015,4.439a35.877,35.877,0,0,0-.579,6.7A29.941,29.941,0,0,0,3.3-21.511c.087.683.246,1.366.383,2.063.175.689.329,1.4.551,2.092a42.425,42.425,0,0,0,1.415,4.028A22.949,22.949,0,0,1,6.966-9.517a8.48,8.48,0,0,1,0,3.679A6.514,6.514,0,0,1,5.454-3.007,9.807,9.807,0,0,1,3.385-1.371c-.342.182-.654.363-.955.5s-.574.266-.828.362C1.1-.313.7-.175.424-.1A1.476,1.476,0,0,1,0,0" transform="translate(939.744 670.15)" fill="#733d1f"/>
          <path id="Trazado_1002" data-name="Trazado 1002" d="M0,0C.814,3.424.489,12.559-.651,12.723s-7.505-4.568-19.9,6.524c-1.469-3.1-1.368-8.374-.491-10.929C-19.249,3.1-3.751-4.081,0,0" transform="translate(929.852 607.078)" fill="#391d14"/>
          <path id="Trazado_1004" data-name="Trazado 1004" d="M0,0C-1.121,3.3-2.7,11.821-1.825,12.111s6.557-3.372,13.449,9.035a21.967,21.967,0,0,0,1.908-10.768C12.851,5.009,3.512-3.625,0,0" transform="translate(963.912 608.788)" fill="#391d14"/>
          <path id="Trazado_1005" data-name="Trazado 1005" d="M0,0C-10.115,7.667-33.212-3.308-44.957-9.179-59.445-14.423-74.554-1.5-74.141.756-73.977,12.662-71.2,19.677-73,27.019a65.171,65.171,0,0,0-1.468,20.064c.488,4.24-5.384,7.176-5.384,7.176A56.586,56.586,0,0,0-82.784,36.8c-.817-2.119-.162-23.324,2.935-33.275S-40.461-37.838,0,0" transform="translate(976.261 598.982)" fill="#391d14"/>
          <path id="Trazado_1006" data-name="Trazado 1006" d="M0,0C-.006.015-.11-.012-.3-.078A7.748,7.748,0,0,1-1.13-.41a9.4,9.4,0,0,1-1.246-.671,7.151,7.151,0,0,1-1.463-1.2A4.566,4.566,0,0,1-4.972-4.3a3.448,3.448,0,0,1,.437-2.639,3.665,3.665,0,0,1,2.46-1.64,3.7,3.7,0,0,1,1.6.071c.134.029.259.083.389.124l.115.041h0L0-8.519a15.94,15.94,0,0,0-.7-2.93A8.075,8.075,0,0,0-2-13.885a4.244,4.244,0,0,0-1.966-1.424,3.634,3.634,0,0,0-2.109-.031,5.24,5.24,0,0,0-2.574,1.769c-.474.593-.661.98-.7.96-.015-.007.02-.109.1-.3a4.748,4.748,0,0,1,.45-.776,5.612,5.612,0,0,1,.961-1.054,4.944,4.944,0,0,1,1.664-.925,3.941,3.941,0,0,1,2.324-.023,4.6,4.6,0,0,1,2.186,1.521,8.355,8.355,0,0,1,1.4,2.557A15.78,15.78,0,0,1,.474-8.59q.044.3.085.6L.614-7.6l.007.048v.02L.6-7.547.512-7.588.339-7.669l-.346-.164L-.17-7.909l-.086-.029c-.115-.036-.226-.086-.343-.111A3.275,3.275,0,0,0-2-8.119,3.244,3.244,0,0,0-4.166-6.7a3.06,3.06,0,0,0-.421,2.315,4.294,4.294,0,0,0,1,1.884,7.3,7.3,0,0,0,1.36,1.2,11.235,11.235,0,0,0,1.181.727A8.1,8.1,0,0,1,0,0" transform="translate(890.431 657.698)" fill="#733d1f"/>
          <path id="Trazado_1007" data-name="Trazado 1007" d="M0,0C-.281.013-.7-4.179-1.25-10.956c-.519-6.78-1.226-16.136-2.132-26.455-.889-10.323-2.045-19.616-2.945-26.342C-7.321-70.455-8-74.61-7.7-74.678c.23-.055,1.4,4.006,2.75,10.7,1.263,6.7,2.645,16.034,3.538,26.393C-.5-27.233-.018-17.836.146-11.031.335-4.227.263-.015,0,0" transform="translate(985.314 812.714)" fill="#17316c"/>
          <path id="Trazado_1008" data-name="Trazado 1008" d="M262.2,0H425.385V-209.011H262.2Z" transform="translate(582 790.118)" fill="none"/>
          <path id="Trazado_1009" data-name="Trazado 1009" d="M0,0-.142-.332A2.133,2.133,0,0,0-.959.345,7.078,7.078,0,0,0-1.975,2.494a36.77,36.77,0,0,0-1.234,9.913,26.808,26.808,0,0,0,.192,3.455,8.774,8.774,0,0,0,.246,1.248,2.423,2.423,0,0,0,.395.855,1.4,1.4,0,0,0,.448.336,6.482,6.482,0,0,0,1.352.462,63.226,63.226,0,0,0,8.927,1.181c3.6.284,7.42.447,10.287.447,1.185,0,2.2-.027,2.985-.087.391-.03.721-.067.988-.115a3.171,3.171,0,0,0,.358-.084,1.13,1.13,0,0,0,.293-.13,1.276,1.276,0,0,0,.366-.421,6.406,6.406,0,0,0,.53-1.3,61.451,61.451,0,0,0,1.623-8.278c.221-1.56.405-3.085.535-4.389s.2-2.383.2-3.07a3.61,3.61,0,0,0-.042-.65,1.114,1.114,0,0,0-.148-.354,3.059,3.059,0,0,0-.569-.64,14.755,14.755,0,0,0-4.782-2.52,26.428,26.428,0,0,0-8.544-1.374A31.81,31.81,0,0,0-.142-.332L0,0,.142.332A31.083,31.083,0,0,1,12.435-2.3,24.986,24.986,0,0,1,22.1-.449a13.937,13.937,0,0,1,2.722,1.487,4.975,4.975,0,0,1,.719.622,1.649,1.649,0,0,1,.177.229.415.415,0,0,1,.055.116,3.151,3.151,0,0,1,.028.509c0,.778-.108,2.2-.293,3.878-.277,2.526-.725,5.662-1.227,8.241-.251,1.289-.517,2.44-.777,3.3a7.978,7.978,0,0,1-.379,1.037,2.111,2.111,0,0,1-.166.3.449.449,0,0,1-.095.109l-.027.013a2.231,2.231,0,0,1-.489.114,28.772,28.772,0,0,1-3.707.168c-3.463,0-8.37-.241-12.535-.647-2.082-.2-3.98-.448-5.413-.722a14.554,14.554,0,0,1-1.756-.427A3.77,3.77,0,0,1-1.6,17.66a.776.776,0,0,1-.222-.152,1.792,1.792,0,0,1-.26-.6,10.556,10.556,0,0,1-.305-1.873c-.07-.773-.105-1.67-.105-2.631a41.953,41.953,0,0,1,.7-7.683,14.967,14.967,0,0,1,.866-2.99A4.543,4.543,0,0,1-.388.787,1.416,1.416,0,0,1,.142.332Z" transform="translate(910.1 628.81)" fill="#010407"/>
          <path id="Trazado_1010" data-name="Trazado 1010" d="M0,0-.119-.341A2.257,2.257,0,0,0-1.1.418a8.85,8.85,0,0,0-1.289,2.6A40.281,40.281,0,0,0-4.139,14.379a15.163,15.163,0,0,0,.117,2.05,5.361,5.361,0,0,0,.156.76,1.973,1.973,0,0,0,.259.573,1.531,1.531,0,0,0,.509.416,8.544,8.544,0,0,0,1.659.635A83.365,83.365,0,0,0,9.444,20.818a97.18,97.18,0,0,0,10.6.926c.427,0,.788-.013,1.079-.043a3.336,3.336,0,0,0,.39-.059,1.155,1.155,0,0,0,.319-.113h0a1.322,1.322,0,0,0,.409-.416,6.992,6.992,0,0,0,.645-1.354,66.357,66.357,0,0,0,2.272-8.63c.333-1.6.618-3.134.821-4.4.1-.633.182-1.2.238-1.669A10.54,10.54,0,0,0,26.3,3.935a2.137,2.137,0,0,0-.013-.252v0a1.111,1.111,0,0,0-.139-.391,3.374,3.374,0,0,0-.6-.738A16.083,16.083,0,0,0,20.264-.515,27.18,27.18,0,0,0,10.613-2.23,32.461,32.461,0,0,0-.119-.341L0,0,.119.341A31.715,31.715,0,0,1,10.613-1.508,25.851,25.851,0,0,1,21.522.8a15.32,15.32,0,0,1,3.022,1.821,5.583,5.583,0,0,1,.785.747,1.743,1.743,0,0,1,.19.27.471.471,0,0,1,.055.135v0a1.264,1.264,0,0,1,.008.164,12.228,12.228,0,0,1-.121,1.354c-.278,2.135-1,5.919-1.807,9.244-.4,1.662-.831,3.213-1.231,4.381a12.309,12.309,0,0,1-.57,1.424,3.045,3.045,0,0,1-.242.413.615.615,0,0,1-.138.151h0l-.031.013a2.383,2.383,0,0,1-.492.078c-.241.02-.548.03-.908.03A110.617,110.617,0,0,1,6.809,19.717c-2.5-.376-4.867-.8-6.669-1.234a20.1,20.1,0,0,1-2.217-.639,4.743,4.743,0,0,1-.667-.3.9.9,0,0,1-.274-.2,1.233,1.233,0,0,1-.155-.36,10.256,10.256,0,0,1-.244-2.6A42.316,42.316,0,0,1-2.394,5.723,19.624,19.624,0,0,1-1.226,2.041,5.734,5.734,0,0,1-.537.87,1.572,1.572,0,0,1,.119.341Z" transform="translate(952.172 630.77)" fill="#010407"/>
          <path id="Trazado_1011" data-name="Trazado 1011" d="M0,0A6.1,6.1,0,0,1,2.678-1.558,12.539,12.539,0,0,1,6.441-2.12a10.157,10.157,0,0,1,4.021.748,4.845,4.845,0,0,1,1.426.931,3.03,3.03,0,0,1,.8,1.286.361.361,0,1,0,.69-.212,3.754,3.754,0,0,0-.989-1.591A6.3,6.3,0,0,0,9.769-2.393a11.867,11.867,0,0,0-3.328-.449,13.3,13.3,0,0,0-3.984.6,6.8,6.8,0,0,0-3,1.764A.362.362,0,0,0-.51.028.361.361,0,0,0,0,0" transform="translate(935.688 640.015)" fill="#010407"/>
          <path id="Trazado_1012" data-name="Trazado 1012" d="M0,0,12.924-1.686a.361.361,0,0,0,.311-.405.361.361,0,0,0-.4-.311L-.093-.716a.362.362,0,0,0-.312.405A.361.361,0,0,0,0,0" transform="translate(894.263 638.49)" fill="#010407"/>
          <path id="Trazado_1013" data-name="Trazado 1013" d="M0,0C0,3.777-1.973,6.838-4.407,6.838S-8.811,3.777-8.811,0s1.973-6.839,4.4-6.839S0-3.779,0,0" transform="translate(926.499 638.144)" fill="#1e0e0d"/>
          <path id="Trazado_1014" data-name="Trazado 1014" d="M0,0C0,3.776-1.973,6.84-4.405,6.84S-8.811,3.776-8.811,0s1.972-6.838,4.406-6.838S0-3.775,0,0" transform="translate(966.24 640.753)" fill="#1e0e0d"/>
          <path id="Trazado_1015" data-name="Trazado 1015" d="M0,0-.072.075c.3,10.623.99,21.2,1.931,30.731a69.455,69.455,0,0,0,15.616,6.606c0-.007,0-.014,0-.021A69.527,69.527,0,0,1,1.934,30.806C.992,21.249.3,10.647,0,0" transform="translate(894.26 662.235)" fill="#bba69a"/>
          <path id="Trazado_1016" data-name="Trazado 1016" d="M0,0A.149.149,0,0,1,0,.021H0A.162.162,0,0,0,0,0Z" transform="translate(911.736 699.626)" fill="#a37255"/>
          <path id="Trazado_1017" data-name="Trazado 1017" d="M0,0C0,.008,0,.014,0,.022A76.862,76.862,0,0,0,21.151,2.927h.042A76.805,76.805,0,0,1,0,0" transform="translate(911.737 699.626)" fill="#9a5632"/>
          <path id="Trazado_1018" data-name="Trazado 1018" d="M0,0C-1.011,2.975-4.732,4.967-5.126,5.171c-.161,1.891-.382,4.131-.685,6.758a8.817,8.817,0,0,1-1.5,2.254c.3,10.647.993,21.249,1.934,30.806a69.527,69.527,0,0,0,15.542,6.585h0A76.843,76.843,0,0,0,31.357,54.5C52.12,54.49,68.649,46.56,68.928,42.38c-.341-3.77-.475-7.777-.45-11.956-3.818,4.3-7.863,7.632-9.42,7.632a.728.728,0,0,1-.353-.08c-1.467-.817,2.123-9.463-.487-10.116a1.811,1.811,0,0,0-.432-.043,34.477,34.477,0,0,0-3.677.533,40.869,40.869,0,0,1-6.481.533c-7,0-17.253-1.9-30.517-10.807a1.456,1.456,0,0,0-.538-.116c-2.5,0-.875,8.932-2.56,9.087a.332.332,0,0,1-.046,0c-1.954,0-14.479-9.655-15.288-13.217C-1.908,11.253-.135,4.968,0,0" transform="translate(901.573 648.052)" fill="#ab6844"/>
          <path id="Trazado_1019" data-name="Trazado 1019" d="M0,0C-.4,3.665-1.1,8.387-1.9,13.446q.017.63.034,1.261l.072-.075a8.817,8.817,0,0,0,1.5-2.254C.015,9.751.236,7.511.4,5.62l-.034.018C.325,3.643.193,1.754,0,0" transform="translate(896.05 647.603)" fill="#ab6844"/>
          <path id="Trazado_1020" data-name="Trazado 1020" d="M0,0C-1.579,0-2.919,1.14-2.919,1.515c-.055.972-.153,2.093-.288,3.336.193,1.754.326,3.644.363,5.638l.034-.018c.395-.2,4.115-2.2,5.126-5.171A9.9,9.9,0,0,0,1.483.373,3.094,3.094,0,0,0,0,0" transform="translate(899.256 642.752)" fill="#3d1e15"/>
          <path id="Trazado_1021" data-name="Trazado 1021" d="M0,0A7.785,7.785,0,0,1,.811,1.123c.245.371.578.8.941,1.316.181.258.4.515.617.8s.449.581.713.876A25.784,25.784,0,0,0,7.064,7.968,19.629,19.629,0,0,0,13,11.158a18.6,18.6,0,0,0,6.668.9,21.78,21.78,0,0,0,5.443-.964A26.141,26.141,0,0,0,28.6,9.721a10.7,10.7,0,0,1,1.253-.586c.009.014-.09.089-.287.219s-.489.316-.881.531a21.308,21.308,0,0,1-3.468,1.532A20.913,20.913,0,0,1,19.687,12.5a19.785,19.785,0,0,1-3.337-.1,18.12,18.12,0,0,1-3.5-.784,19.475,19.475,0,0,1-6.055-3.3A24.411,24.411,0,0,1,2.823,4.328c-.26-.306-.482-.616-.695-.907s-.421-.56-.593-.827c-.345-.533-.658-.982-.88-1.37A7.743,7.743,0,0,1,0,0" transform="translate(922.839 673.793)" fill="#733d1f"/>
          <path id="Trazado_1023" data-name="Trazado 1023" d="M0,0C-.074-.157.469-.463,1.2-1.237A12.341,12.341,0,0,0,3.533-5.078C5.023-8.64,5.986-14.045,6.38-20.052a121.565,121.565,0,0,0,.006-15.457c-.235-3.96-.662-6.373-.392-6.451.254-.078,1.181,2.295,1.777,6.3a74.332,74.332,0,0,1,.581,15.742C7.948-13.771,6.742-8.174,4.8-4.481A10.48,10.48,0,0,1,1.7-.652C.716.024.03.092,0,0" transform="translate(879.589 773.813)" fill="#27333d"/>
          <path id="Trazado_1024" data-name="Trazado 1024" d="M0,0C-.125-.052.009-.8.36-2.108c.165-.658.426-1.437.655-2.366s.492-1.983.782-3.147A96.653,96.653,0,0,0,4.284-26.149a89.779,89.779,0,0,0-.146-10.29,67.429,67.429,0,0,0-1.033-8.327,40.461,40.461,0,0,0-1.379-5.471c-.443-1.245-.732-1.942-.6-2.025.1-.067.621.507,1.309,1.718a25.274,25.274,0,0,1,2.033,5.465A52.019,52.019,0,0,1,5.954-36.6a72.653,72.653,0,0,1,.3,10.523A72.591,72.591,0,0,1,3.146-7.253c-.4,1.154-.761,2.2-1.079,3.117-.335.913-.708,1.666-.986,2.289C.5-.606.127.049,0,0" transform="translate(883.925 791.515)" fill="#27333d"/>
          <path id="Trazado_1025" data-name="Trazado 1025" d="M0,0C-7.867,1.5-21.665,2.811-27.661,6.183s.125,44.58.125,44.58c7.118,41.211,4.134,47.127,3.456,74.5-1.068,43.1-13.082,59.98-13.082,59.98,22.479,13.486,48.617,10.305,48.617,10.305C25.691,163.334,29.972,118.386,0,0" transform="translate(907.306 723.05)" fill="#245965"/>
          <path id="Trazado_1026" data-name="Trazado 1026" d="M0,0C-5.494.5-16.42,5.867-28.409,44.082s-24.227,55.947-24.227,71.681,3,68.186,6.494,74.93c9.99-6.744,24.727-7.994,28.972-5.994.5-33.219-12.489-62.191,9.24-102.9C4.31,59.569,11.739,41.712,0,0" transform="translate(880.831 728.857)" fill="#245965"/>
          <path id="Trazado_1027" data-name="Trazado 1027" d="M0,0C-.125-.051.009-.8.359-2.108c.163-.655.427-1.437.656-2.365s.493-1.982.782-3.148A96.812,96.812,0,0,0,4.284-26.149a89.786,89.786,0,0,0-.146-10.29A67.057,67.057,0,0,0,3.1-44.767a40.145,40.145,0,0,0-1.377-5.468c-.443-1.246-.732-1.946-.6-2.027.1-.067.618.506,1.307,1.718a25.262,25.262,0,0,1,2.033,5.465A51.914,51.914,0,0,1,5.952-36.6a72.343,72.343,0,0,1,.3,10.522A72.629,72.629,0,0,1,3.143-7.252c-.4,1.154-.76,2.2-1.078,3.119-.334.91-.706,1.665-.985,2.288C.5-.605.125.05,0,0" transform="translate(882.142 792.921)" fill="#17316c"/>
          <path id="Trazado_1028" data-name="Trazado 1028" d="M262.2,0H425.385V-209.011H262.2Z" transform="translate(582 790.118)" fill="none"/>
        </g>
      </g>
    </g>
  </g>
</svg>
