<?xml version="1.0" encoding="utf-8"?>
<!-- Generator: Adobe Illustrator 24.3.0, SVG Export Plug-In . SVG Version: 6.00 Build 0)  -->
<svg version="1.1" id="Layer_1" xmlns="http://www.w3.org/2000/svg" xmlns:xlink="http://www.w3.org/1999/xlink" x="0px" y="0px"
	 viewBox="0 0 513.2 273" style="enable-background:new 0 0 513.2 273;" xml:space="preserve">
<style type="text/css">
	.st0{fill:#FFF7C4;}
	.st1{clip-path:url(#SVGID_2_);}
	.st2{fill:#EBE5ED;}
	.st3{fill:#245965;}
	.st4{fill:none;}
	.st5{fill:#E18E5F;}
	.st6{fill:#D2A07E;}
	.st7{fill:#C57040;}
	.st8{fill:#733D1F;}
	.st9{fill:#391D14;}
	.st10{fill:#17316C;}
	.st11{fill:#010407;}
	.st12{fill:#1E0E0D;}
	.st13{fill:#BBA69A;}
	.st14{fill:#A37255;}
	.st15{fill:#9A5632;}
	.st16{fill:#AB6844;}
	.st17{fill:#3D1E15;}
	.st18{fill:#27333D;}
	.st19{fill:#FF9435;}
</style>
<g>
	<path id="Trazado_990" class="st0" d="M251,208.1h262.2V52H251V208.1z"/>
	<path id="Trazado_1029" class="st0" d="M257.3,152.9c0,0-35.6,5-71.4-17.5c0,0,53.2,16.1,73.8-5.3L257.3,152.9z"/>
	<g>
		<defs>
			<rect id="SVGID_1_" width="241" height="273"/>
		</defs>
		<clipPath id="SVGID_2_">
			<use xlink:href="#SVGID_1_"  style="overflow:visible;"/>
		</clipPath>
		<g id="Enmascarar_grupo_1" class="st1">
			<g id="Grupo_692">
				<path id="Trazado_991" class="st2" d="M168.7,163.6c1,18.5,18.7,146.3,14.7,174.7c-37,0.7-63.4,2.2-63.4,2.2l-6.2-179.9
					C113.8,160.7,162.8,163.2,168.7,163.6"/>
				<path id="Trazado_992" class="st3" d="M206.7,348.6c-11.6,7.5-34.5,6.7-34.5,6.7c1.5-25.9,3.7-148.3-9.4-192.1
					c8.2,0,26.1,4.3,30.6,7.3s51.1,100.6,46.9,171.8c-13.1-3.4-26.2-0.7-26.2-0.7c0.4-22.9-17.6-105.3-17.6-105.3
					C197.3,274.1,204.7,302.6,206.7,348.6"/>
				<path id="Trazado_993" class="st4" d="M56.2,227.1h163.2v-209H56.2V227.1z"/>
				<path id="Trazado_994" class="st5" d="M154.6,131.3c-0.9,8.2-4.1,23.2-0.4,27.2c2.2,2.3,5.1,4,8.2,4.7
					c-13.6,26.7-14.6,39.2-43.5-3c2.1-0.2,3,0.1,3.4,0.3c0.6,0.5-0.6,0.9-0.4-1.2c0.4-3.4,2.2-30,2.2-30L154.6,131.3z"/>
				<path id="Trazado_995" class="st6" d="M153.5,139.1L153.5,139.1c-0.7,5-1.3,10.3-1,14.3h0C152.2,149.4,152.9,144.1,153.5,139.1
					 M123.7,136.6c-0.3,4.2-0.7,9.5-1,13.9C123.1,146.1,123.4,140.8,123.7,136.6z"/>
				<path id="Trazado_997" class="st7" d="M123.7,136.6c-0.3,4.2-0.7,9.5-1,13.9c7.2,2.2,14.7,3.3,22.3,3.2c2.6,0,5.1-0.1,7.5-0.3
					c-0.3-4,0.3-9.4,1-14.3c-2.8,0.3-5.7,0.4-8.6,0.4h-0.1C137.7,139.6,130.6,138.6,123.7,136.6"/>
				<path id="Trazado_998" class="st5" d="M172,25c16,9.1,20.1,11.1,16.2,34.6c-3.9,23.5-7.4,48.7-5.7,67.9
					c-0.4,6.5-40.5,22.2-74.4,2.6c-3-30.9-3.5-72.6,3.5-91.8S147.7,13.7,172,25"/>
				<path id="Trazado_999" class="st4" d="M56.2,227.1h163.2v-209H56.2V227.1z"/>
				<path id="Trazado_1000" class="st5" d="M108.8,81.5C107.3,65,86,72,87.5,83.9c1.5,12,15.2,23.5,20.2,13
					C109.1,85.7,108.8,81.5,108.8,81.5"/>
				<path id="Trazado_1001" class="st8" d="M151.7,107.2c0.1-0.1,0.3-0.1,0.4-0.2c0.3-0.1,0.6-0.3,1.1-0.5c0.2-0.1,0.5-0.3,0.8-0.4
					c0.3-0.1,0.6-0.3,0.9-0.5c0.7-0.5,1.4-1,2-1.6c0.7-0.8,1.1-1.7,1.4-2.7c0.2-1.2,0.2-2.4,0-3.5c-0.3-1.3-0.8-2.5-1.3-3.7
					c-0.6-1.3-1-2.7-1.4-4.1c-0.8-2.7-1.2-5.4-1.3-8.2c0-2.3,0.2-4.5,0.7-6.8c0.3-1.5,0.7-3,1.2-4.4c0.2-0.5,0.3-0.9,0.4-1.2
					c0-0.1,0.1-0.3,0.2-0.4c0,0.1,0,0.3-0.1,0.4c-0.1,0.3-0.2,0.7-0.3,1.2c-0.3,1-0.7,2.6-1,4.4c-0.4,2.2-0.6,4.5-0.6,6.7
					c0,1.3,0.1,2.6,0.3,3.9c0.1,0.7,0.2,1.4,0.4,2.1c0.2,0.7,0.3,1.4,0.6,2.1c0.4,1.4,0.9,2.7,1.4,4c0.5,1.2,1,2.5,1.3,3.8
					c0.3,1.2,0.3,2.5,0,3.7c-0.3,1.1-0.8,2-1.5,2.8c-0.6,0.6-1.3,1.2-2.1,1.6c-0.3,0.2-0.7,0.4-1,0.5c-0.3,0.1-0.6,0.3-0.8,0.4
					c-0.5,0.2-0.9,0.3-1.2,0.4C152,107.1,151.9,107.1,151.7,107.2"/>
				<path id="Trazado_1002" class="st9" d="M141.9,44.1c0.8,3.4,0.5,12.6-0.7,12.7s-7.5-4.6-19.9,6.5c-1.5-3.1-1.4-8.4-0.5-10.9
					C122.6,47.2,138.1,40,141.9,44.1"/>
				<path id="Trazado_1004" class="st9" d="M175.9,45.8c-1.1,3.3-2.7,11.8-1.8,12.1s6.6-3.4,13.4,9c1.5-3.4,2.2-7.1,1.9-10.8
					C188.8,50.8,179.4,42.2,175.9,45.8"/>
				<path id="Trazado_1005" class="st9" d="M188.3,36c-10.1,7.7-33.2-3.3-45-9.2c-14.5-5.2-29.6,7.7-29.2,9.9
					c0.2,11.9,2.9,18.9,1.1,26.3c-1.5,6.6-2,13.3-1.5,20.1c0.5,4.2-5.4,7.2-5.4,7.2c-0.1-5.9-1-11.8-2.9-17.5
					c-0.8-2.1-0.2-23.3,2.9-33.3S147.8-1.9,188.3,36"/>
				<path id="Trazado_1006" class="st8" d="M102.4,94.7c0,0-0.1,0-0.3-0.1c-0.3-0.1-0.6-0.2-0.8-0.3c-0.4-0.2-0.8-0.4-1.2-0.7
					c-0.5-0.3-1-0.7-1.5-1.2c-0.5-0.6-0.9-1.3-1.1-2c-0.2-0.9-0.1-1.9,0.4-2.6c0.6-0.9,1.4-1.5,2.5-1.6c0.5-0.1,1.1-0.1,1.6,0.1
					c0.1,0,0.3,0.1,0.4,0.1l0.1,0l0,0l0-0.2c-0.1-1-0.4-2-0.7-2.9c-0.3-0.9-0.7-1.7-1.3-2.4c-0.5-0.7-1.2-1.2-2-1.4
					c-0.7-0.2-1.4-0.2-2.1,0c-1,0.3-1.9,0.9-2.6,1.8c-0.5,0.6-0.7,1-0.7,1c0,0,0-0.1,0.1-0.3c0.1-0.3,0.3-0.5,0.5-0.8
					c0.3-0.4,0.6-0.7,1-1.1c0.5-0.4,1.1-0.7,1.7-0.9c0.8-0.2,1.6-0.2,2.3,0c0.9,0.3,1.6,0.8,2.2,1.5c0.6,0.8,1.1,1.6,1.4,2.6
					c0.3,1,0.6,2,0.7,3c0,0.2,0.1,0.4,0.1,0.6l0.1,0.4l0,0v0l0,0l-0.1,0l-0.2-0.1l-0.3-0.2l-0.2-0.1l-0.1,0c-0.1,0-0.2-0.1-0.3-0.1
					c-0.5-0.1-0.9-0.1-1.4-0.1c-0.9,0.2-1.7,0.7-2.2,1.4c-0.4,0.7-0.6,1.5-0.4,2.3c0.2,0.7,0.5,1.4,1,1.9c0.4,0.5,0.9,0.9,1.4,1.2
					c0.4,0.3,0.8,0.5,1.2,0.7C101.7,94.3,102.1,94.5,102.4,94.7"/>
				<path id="Trazado_1007" class="st10" d="M197.3,249.7c-0.3,0-0.7-4.2-1.2-11c-0.5-6.8-1.2-16.1-2.1-26.5
					c-0.9-10.3-2-19.6-2.9-26.3c-1-6.7-1.7-10.9-1.4-10.9c0.2-0.1,1.4,4,2.8,10.7c1.3,6.7,2.6,16,3.5,26.4
					c0.9,10.4,1.4,19.7,1.6,26.6C197.6,245.5,197.6,249.7,197.3,249.7"/>
				<path id="Trazado_1008" class="st4" d="M56.2,227.1h163.2v-209H56.2V227.1z"/>
				<path id="Trazado_1009" class="st11" d="M122.1,65.8l-0.1-0.3c-0.3,0.2-0.6,0.4-0.8,0.7c-0.5,0.7-0.8,1.4-1,2.1
					c-0.9,3.2-1.3,6.6-1.2,9.9c0,1.2,0.1,2.3,0.2,3.5c0.1,0.4,0.1,0.8,0.2,1.2c0.1,0.3,0.2,0.6,0.4,0.9c0.1,0.1,0.3,0.3,0.4,0.3
					c0.4,0.2,0.9,0.4,1.4,0.5c2.9,0.6,5.9,1,8.9,1.2c3.6,0.3,7.4,0.4,10.3,0.4c1.2,0,2.2,0,3-0.1c0.4,0,0.7-0.1,1-0.1
					c0.1,0,0.2,0,0.4-0.1c0.1,0,0.2-0.1,0.3-0.1c0.2-0.1,0.3-0.3,0.4-0.4c0.2-0.4,0.4-0.8,0.5-1.3c0.7-2.7,1.3-5.5,1.6-8.3
					c0.2-1.6,0.4-3.1,0.5-4.4c0.1-1.3,0.2-2.4,0.2-3.1c0-0.2,0-0.4,0-0.6c0-0.1-0.1-0.2-0.1-0.4c-0.2-0.2-0.4-0.5-0.6-0.6
					c-1.4-1.1-3-2-4.8-2.5c-2.8-0.9-5.6-1.4-8.5-1.4c-4.3,0-8.6,0.9-12.6,2.7L122.1,65.8l0.1,0.3c3.9-1.7,8.1-2.6,12.3-2.6
					c3.3,0,6.6,0.6,9.7,1.9c1,0.4,1.9,0.9,2.7,1.5c0.3,0.2,0.5,0.4,0.7,0.6c0.1,0.1,0.1,0.1,0.2,0.2c0,0,0,0.1,0.1,0.1
					c0,0.2,0,0.3,0,0.5c0,0.8-0.1,2.2-0.3,3.9c-0.3,2.5-0.7,5.7-1.2,8.2c-0.3,1.3-0.5,2.4-0.8,3.3c-0.1,0.4-0.2,0.7-0.4,1
					c0,0.1-0.1,0.2-0.2,0.3c0,0-0.1,0.1-0.1,0.1l0,0c-0.2,0.1-0.3,0.1-0.5,0.1c-1.2,0.1-2.5,0.2-3.7,0.2c-3.5,0-8.4-0.2-12.5-0.6
					c-2.1-0.2-4-0.4-5.4-0.7c-0.6-0.1-1.2-0.2-1.8-0.4c-0.2-0.1-0.4-0.1-0.5-0.2c-0.1,0-0.2-0.1-0.2-0.2c-0.1-0.2-0.2-0.4-0.3-0.6
					c-0.2-0.6-0.3-1.2-0.3-1.9c-0.1-0.8-0.1-1.7-0.1-2.6c0-2.6,0.2-5.1,0.7-7.7c0.2-1,0.5-2,0.9-3c0.1-0.3,0.3-0.7,0.5-0.9
					c0.1-0.2,0.3-0.3,0.5-0.5L122.1,65.8z"/>
				<path id="Trazado_1010" class="st11" d="M164.2,67.8l-0.1-0.3c-0.4,0.2-0.7,0.4-1,0.8c-0.6,0.8-1,1.7-1.3,2.6
					c-1.1,3.7-1.7,7.5-1.8,11.4c0,0.7,0,1.4,0.1,2.1c0,0.3,0.1,0.5,0.2,0.8c0.1,0.2,0.1,0.4,0.3,0.6c0.1,0.2,0.3,0.3,0.5,0.4
					c0.5,0.3,1.1,0.5,1.7,0.6c3.6,0.9,7.2,1.6,10.9,2c3.5,0.5,7.1,0.8,10.6,0.9c0.4,0,0.8,0,1.1,0c0.1,0,0.3,0,0.4-0.1
					c0.1,0,0.2-0.1,0.3-0.1l0,0c0.2-0.1,0.3-0.2,0.4-0.4c0.3-0.4,0.5-0.9,0.6-1.4c1-2.8,1.7-5.7,2.3-8.6c0.3-1.6,0.6-3.1,0.8-4.4
					c0.1-0.6,0.2-1.2,0.2-1.7c0-0.4,0.1-0.7,0.1-1.1c0-0.1,0-0.2,0-0.3l0,0c0-0.1-0.1-0.3-0.1-0.4c-0.2-0.3-0.4-0.5-0.6-0.7
					c-1.5-1.4-3.3-2.4-5.3-3.1c-3.1-1.2-6.4-1.7-9.7-1.7c-3.7,0-7.3,0.7-10.7,1.9L164.2,67.8l0.1,0.3c3.4-1.2,6.9-1.8,10.5-1.8
					c3.8,0,7.5,0.8,10.9,2.3c1.1,0.5,2.1,1.1,3,1.8c0.3,0.2,0.5,0.5,0.8,0.7c0.1,0.1,0.1,0.2,0.2,0.3c0,0,0,0.1,0.1,0.1l0,0
					c0,0.1,0,0.1,0,0.2c0,0.5-0.1,0.9-0.1,1.4c-0.3,2.1-1,5.9-1.8,9.2c-0.4,1.7-0.8,3.2-1.2,4.4c-0.2,0.5-0.4,1-0.6,1.4
					c-0.1,0.1-0.2,0.3-0.2,0.4c0,0.1-0.1,0.1-0.1,0.2l0,0l0,0c-0.2,0-0.3,0.1-0.5,0.1c-0.2,0-0.5,0-0.9,0c-4.4-0.2-8.9-0.6-13.2-1.3
					c-2.5-0.4-4.9-0.8-6.7-1.2c-0.8-0.2-1.5-0.4-2.2-0.6c-0.2-0.1-0.5-0.2-0.7-0.3c-0.1,0-0.2-0.1-0.3-0.2c-0.1-0.1-0.1-0.2-0.2-0.4
					c-0.2-0.9-0.3-1.7-0.2-2.6c0-2.9,0.4-5.8,1-8.7c0.3-1.3,0.7-2.5,1.2-3.7c0.2-0.4,0.4-0.8,0.7-1.2c0.2-0.2,0.4-0.4,0.7-0.5
					L164.2,67.8z"/>
				<path id="Trazado_1011" class="st11" d="M147.7,77c0.7-0.7,1.7-1.3,2.7-1.6c1.2-0.4,2.5-0.6,3.8-0.6c1.4,0,2.7,0.2,4,0.7
					c0.5,0.2,1,0.5,1.4,0.9c0.4,0.4,0.6,0.8,0.8,1.3c0.1,0.2,0.3,0.3,0.4,0.2c0.2-0.1,0.3-0.3,0.2-0.4c0,0,0,0,0,0
					c-0.2-0.6-0.5-1.2-1-1.6c-0.7-0.7-1.6-1.2-2.6-1.4c-1.1-0.3-2.2-0.5-3.3-0.4c-1.4,0-2.7,0.2-4,0.6c-1.1,0.3-2.2,0.9-3,1.8
					c-0.1,0.1-0.1,0.4,0,0.5C147.3,77.2,147.6,77.2,147.7,77C147.7,77,147.7,77,147.7,77"/>
				<path id="Trazado_1012" class="st11" d="M106.3,75.5l12.9-1.7c0.2,0,0.3-0.2,0.3-0.4c0,0,0,0,0,0c0-0.2-0.2-0.3-0.4-0.3
					l-12.9,1.7c-0.2,0-0.3,0.2-0.3,0.4C105.9,75.4,106.1,75.5,106.3,75.5C106.3,75.5,106.3,75.5,106.3,75.5"/>
				<path id="Trazado_1013" class="st12" d="M138.5,75.1c0,3.8-2,6.8-4.4,6.8c-2.4,0-4.4-3.1-4.4-6.8s2-6.8,4.4-6.8
					S138.5,71.4,138.5,75.1"/>
				<path id="Trazado_1014" class="st12" d="M178.2,77.8c0,3.8-2,6.8-4.4,6.8c-2.4,0-4.4-3.1-4.4-6.8s2-6.8,4.4-6.8
					S178.2,74,178.2,77.8"/>
				<path id="Trazado_1015" class="st13" d="M106.3,99.2L106.3,99.2c0.2,10.7,0.9,21.3,1.9,30.8c4.9,2.8,10.2,5.1,15.6,6.6
					c0,0,0,0,0,0c-5.4-1.6-10.6-3.8-15.5-6.6C107.3,120.5,106.6,109.9,106.3,99.2"/>
				<path id="Trazado_1016" class="st14" d="M123.7,136.6C123.7,136.6,123.7,136.6,123.7,136.6L123.7,136.6
					C123.7,136.6,123.7,136.6,123.7,136.6z"/>
				<path id="Trazado_1017" class="st15" d="M123.7,136.6C123.7,136.6,123.7,136.6,123.7,136.6c6.9,2,14,2.9,21.2,2.9h0
					C137.8,139.6,130.6,138.6,123.7,136.6"/>
				<path id="Trazado_1018" class="st16" d="M113.6,85.1c-1,3-4.7,5-5.1,5.2c-0.2,1.9-0.4,4.1-0.7,6.8c-0.4,0.8-0.9,1.6-1.5,2.3
					c0.3,10.6,1,21.2,1.9,30.8c4.9,2.8,10.1,5,15.5,6.6l0,0c6.9,2,14,2.9,21.2,2.9c20.8,0,37.3-7.9,37.6-12.1
					c-0.3-3.8-0.5-7.8-0.5-12c-3.8,4.3-7.9,7.6-9.4,7.6c-0.1,0-0.2,0-0.4-0.1c-1.5-0.8,2.1-9.5-0.5-10.1c-0.1,0-0.3,0-0.4,0
					c-1.2,0.1-2.5,0.3-3.7,0.5c-2.1,0.3-4.3,0.5-6.5,0.5c-7,0-17.3-1.9-30.5-10.8c-0.2-0.1-0.4-0.1-0.5-0.1c-2.5,0-0.9,8.9-2.6,9.1
					c0,0,0,0,0,0c-2,0-14.5-9.7-15.3-13.2C111.7,96.3,113.4,90,113.6,85.1"/>
				<path id="Trazado_1019" class="st16" d="M108,84.6c-0.4,3.7-1.1,8.4-1.9,13.4c0,0.4,0,0.8,0,1.3l0.1-0.1
					c0.6-0.7,1.1-1.4,1.5-2.3c0.3-2.6,0.5-4.9,0.7-6.8l0,0C108.4,88.2,108.2,86.4,108,84.6"/>
				<path id="Trazado_1020" class="st17" d="M111.3,79.8c-1.6,0-2.9,1.1-2.9,1.5c-0.1,1-0.2,2.1-0.3,3.3c0.2,1.8,0.3,3.6,0.4,5.6
					l0,0c0.4-0.2,4.1-2.2,5.1-5.2c0.1-1.7-0.1-3.4-0.8-4.9C112.3,79.9,111.8,79.8,111.3,79.8"/>
				<path id="Trazado_1021" class="st8" d="M134.8,110.8c0.3,0.3,0.6,0.7,0.8,1.1c0.2,0.4,0.6,0.8,0.9,1.3c0.2,0.3,0.4,0.5,0.6,0.8
					c0.2,0.3,0.4,0.6,0.7,0.9c1.2,1.4,2.5,2.7,4,3.9c1.8,1.4,3.8,2.5,5.9,3.2c2.1,0.7,4.4,1,6.7,0.9c1.8-0.1,3.7-0.4,5.4-1
					c1.2-0.4,2.4-0.8,3.5-1.4c0.4-0.2,0.8-0.4,1.3-0.6c0,0-0.1,0.1-0.3,0.2c-0.2,0.1-0.5,0.3-0.9,0.5c-1.1,0.6-2.3,1.1-3.5,1.5
					c-1.8,0.6-3.6,1-5.5,1.1c-1.1,0.1-2.2,0-3.3-0.1c-1.2-0.1-2.4-0.4-3.5-0.8c-2.2-0.7-4.2-1.8-6.1-3.3c-1.5-1.2-2.8-2.5-4-4
					c-0.3-0.3-0.5-0.6-0.7-0.9c-0.2-0.3-0.4-0.6-0.6-0.8c-0.3-0.5-0.7-1-0.9-1.4C135.2,111.6,135,111.2,134.8,110.8"/>
				<path id="Trazado_1023" class="st18" d="M91.6,210.8c-0.1-0.2,0.5-0.5,1.2-1.2c1-1.1,1.8-2.4,2.3-3.8c1.5-3.6,2.5-9,2.8-15
					c0.3-5.1,0.3-10.3,0-15.5c-0.2-4-0.7-6.4-0.4-6.5c0.3-0.1,1.2,2.3,1.8,6.3c0.8,5.2,0.9,10.5,0.6,15.7
					c-0.4,6.1-1.6,11.7-3.6,15.4c-0.7,1.5-1.8,2.8-3.1,3.8C92.3,210.8,91.6,210.9,91.6,210.8"/>
				<path id="Trazado_1024" class="st18" d="M95.9,228.5c-0.1-0.1,0-0.8,0.4-2.1c0.2-0.7,0.4-1.4,0.7-2.4c0.2-0.9,0.5-2,0.8-3.1
					c1.4-6.1,2.3-12.3,2.5-18.5c0.1-3.4,0.1-6.9-0.1-10.3c-0.2-2.8-0.5-5.6-1-8.3c-0.3-1.9-0.8-3.7-1.4-5.5c-0.4-1.2-0.7-1.9-0.6-2
					c0.1-0.1,0.6,0.5,1.3,1.7c0.9,1.7,1.6,3.6,2,5.5c0.7,2.8,1.2,5.6,1.5,8.5c0.4,3.5,0.5,7,0.3,10.5c-0.2,6.4-1.2,12.7-3.1,18.8
					c-0.4,1.2-0.8,2.2-1.1,3.1c-0.3,0.9-0.7,1.7-1,2.3C96.4,227.9,96.1,228.6,95.9,228.5"/>
				<path id="Trazado_1025" class="st3" d="M119.3,160c-7.9,1.5-21.7,2.8-27.7,6.2c-6,3.4,0.1,44.6,0.1,44.6
					c7.1,41.2,4.1,47.1,3.5,74.5c-1.1,43.1-13.1,60-13.1,60c22.5,13.5,48.6,10.3,48.6,10.3C145,323.4,149.3,278.4,119.3,160"/>
				<path id="Trazado_1026" class="st3" d="M92.8,165.9c-5.5,0.5-16.4,5.9-28.4,44.1s-24.2,55.9-24.2,71.7s3,68.2,6.5,74.9
					c10-6.7,24.7-8,29-6c0.5-33.2-12.5-62.2,9.2-102.9C97.1,225.4,104.6,207.6,92.8,165.9"/>
				<path id="Trazado_1027" class="st10" d="M94.1,229.9c-0.1-0.1,0-0.8,0.4-2.1c0.2-0.7,0.4-1.4,0.7-2.4c0.2-0.9,0.5-2,0.8-3.1
					c1.4-6.1,2.3-12.3,2.5-18.5c0.1-3.4,0.1-6.9-0.1-10.3c-0.2-2.8-0.5-5.6-1-8.3c-0.3-1.9-0.8-3.7-1.4-5.5c-0.4-1.2-0.7-1.9-0.6-2
					c0.1-0.1,0.6,0.5,1.3,1.7c0.9,1.7,1.6,3.6,2,5.5c0.7,2.8,1.2,5.6,1.5,8.5c0.4,3.5,0.5,7,0.3,10.5c-0.2,6.4-1.2,12.7-3.1,18.8
					c-0.4,1.2-0.8,2.2-1.1,3.1c-0.3,0.9-0.7,1.7-1,2.3C94.6,229.3,94.3,230,94.1,229.9"/>
				<path id="Trazado_1028" class="st4" d="M56.2,227.1h163.2v-209H56.2V227.1z"/>
			</g>
		</g>
	</g>
	<g>
		<path class="st19" d="M283.3,84.7h-5v4.6h5.5v1.4h-7.2V77.9h6.9v1.4h-5.3v4h5V84.7z"/>
		<path class="st19" d="M285.9,84c0-1,0-1.7-0.1-2.5h1.5l0.1,1.5h0c0.5-0.9,1.5-1.7,3-1.7c1.3,0,3.2,0.8,3.2,3.9v5.5h-1.7v-5.3
			c0-1.5-0.6-2.7-2.1-2.7c-1.1,0-2,0.8-2.2,1.7c-0.1,0.2-0.1,0.5-0.1,0.8v5.5h-1.7V84z"/>
		<path class="st19" d="M315.5,86.4c0,2.3,1.5,3.2,3.2,3.2c1.2,0,1.9-0.2,2.5-0.5l0.3,1.2c-0.6,0.3-1.6,0.6-3.1,0.6
			c-2.8,0-4.5-1.9-4.5-4.6s1.6-5,4.3-5c3,0,3.8,2.6,3.8,4.3c0,0.3,0,0.6-0.1,0.8H315.5z M320.4,85.2c0-1.1-0.4-2.7-2.3-2.7
			c-1.7,0-2.4,1.6-2.6,2.7H320.4z"/>
		<path class="st19" d="M323.8,89c0.5,0.3,1.4,0.7,2.2,0.7c1.2,0,1.8-0.6,1.8-1.4c0-0.8-0.5-1.2-1.7-1.7c-1.7-0.6-2.4-1.5-2.4-2.6
			c0-1.5,1.2-2.7,3.2-2.7c0.9,0,1.7,0.3,2.3,0.6l-0.4,1.2c-0.4-0.2-1-0.5-1.9-0.5c-1,0-1.5,0.6-1.5,1.3c0,0.8,0.6,1.1,1.7,1.6
			c1.6,0.6,2.4,1.4,2.4,2.8c0,1.6-1.3,2.8-3.4,2.8c-1,0-1.9-0.2-2.6-0.6L323.8,89z"/>
		<path class="st19" d="M333.6,78.8v2.6h2.4v1.3h-2.4v5c0,1.1,0.3,1.8,1.3,1.8c0.4,0,0.8-0.1,1-0.1l0.1,1.3
			c-0.3,0.1-0.8,0.2-1.5,0.2c-0.8,0-1.4-0.2-1.8-0.7c-0.5-0.5-0.6-1.3-0.6-2.4v-5h-1.4v-1.3h1.4v-2.2L333.6,78.8z"/>
		<path class="st19" d="M343,90.7l-0.1-1.2h-0.1c-0.5,0.7-1.5,1.4-2.8,1.4c-1.9,0-2.8-1.3-2.8-2.6c0-2.2,2-3.4,5.5-3.4v-0.2
			c0-0.8-0.2-2.1-2.1-2.1c-0.9,0-1.7,0.3-2.4,0.7l-0.4-1.1c0.8-0.5,1.9-0.8,3-0.8c2.8,0,3.5,1.9,3.5,3.8v3.4c0,0.8,0,1.6,0.2,2.2
			H343z M342.7,86c-1.8,0-3.9,0.3-3.9,2.1c0,1.1,0.7,1.6,1.6,1.6c1.2,0,2-0.8,2.2-1.5c0.1-0.2,0.1-0.4,0.1-0.5V86z"/>
		<path class="st19" d="M364.9,89c0.5,0.3,1.4,0.7,2.2,0.7c1.2,0,1.8-0.6,1.8-1.4c0-0.8-0.5-1.2-1.7-1.7c-1.7-0.6-2.4-1.5-2.4-2.6
			c0-1.5,1.2-2.7,3.2-2.7c0.9,0,1.7,0.3,2.3,0.6l-0.4,1.2c-0.4-0.2-1-0.5-1.9-0.5c-1,0-1.5,0.6-1.5,1.3c0,0.8,0.6,1.1,1.7,1.6
			c1.6,0.6,2.4,1.4,2.4,2.8c0,1.6-1.3,2.8-3.4,2.8c-1,0-1.9-0.2-2.6-0.6L364.9,89z"/>
		<path class="st19" d="M373.5,86.4c0,2.3,1.5,3.2,3.2,3.2c1.2,0,1.9-0.2,2.5-0.5l0.3,1.2c-0.6,0.3-1.6,0.6-3.1,0.6
			c-2.8,0-4.5-1.9-4.5-4.6s1.6-5,4.3-5c3,0,3.8,2.6,3.8,4.3c0,0.3,0,0.6-0.1,0.8H373.5z M378.5,85.2c0-1.1-0.4-2.7-2.3-2.7
			c-1.7,0-2.4,1.6-2.6,2.7H378.5z"/>
		<path class="st19" d="M390.1,81.5c0,0.7-0.1,1.4-0.1,2.5v5.3c0,2.1-0.4,3.4-1.3,4.2c-0.9,0.8-2.2,1.1-3.3,1.1
			c-1.1,0-2.3-0.3-3.1-0.8l0.4-1.3c0.6,0.4,1.6,0.7,2.7,0.7c1.7,0,3-0.9,3-3.2v-1h0c-0.5,0.9-1.5,1.5-2.9,1.5
			c-2.3,0-3.9-1.9-3.9-4.5c0-3.1,2-4.9,4.1-4.9c1.6,0,2.5,0.8,2.9,1.6h0l0.1-1.4H390.1z M388.3,85.1c0-0.3,0-0.5-0.1-0.8
			c-0.3-1-1.1-1.8-2.3-1.8c-1.6,0-2.7,1.3-2.7,3.5c0,1.8,0.9,3.3,2.7,3.3c1,0,2-0.6,2.3-1.7c0.1-0.3,0.1-0.6,0.1-0.9V85.1z"/>
		<path class="st19" d="M400.5,88.2c0,1,0,1.8,0.1,2.5H399l-0.1-1.5h0c-0.4,0.7-1.4,1.7-3,1.7c-1.4,0-3.2-0.8-3.2-4v-5.4h1.7v5.1
			c0,1.7,0.5,2.9,2.1,2.9c1.1,0,1.9-0.8,2.2-1.5c0.1-0.2,0.2-0.6,0.2-0.9v-5.6h1.7V88.2z"/>
		<path class="st19" d="M403.2,84c0-1,0-1.7-0.1-2.5h1.5l0.1,1.5h0c0.5-0.9,1.5-1.7,3-1.7c1.3,0,3.2,0.8,3.2,3.9v5.5h-1.7v-5.3
			c0-1.5-0.6-2.7-2.1-2.7c-1.1,0-2,0.8-2.2,1.7c-0.1,0.2-0.1,0.5-0.1,0.8v5.5h-1.7V84z"/>
		<path class="st19" d="M421.7,77.2v11.1c0,0.8,0,1.7,0.1,2.4h-1.5l-0.1-1.6h0c-0.5,1-1.6,1.8-3.1,1.8c-2.2,0-3.9-1.9-3.9-4.7
			c0-3.1,1.9-4.9,4.1-4.9c1.4,0,2.4,0.7,2.8,1.4h0v-5.5H421.7z M420,85.2c0-0.2,0-0.5-0.1-0.7c-0.2-1.1-1.2-1.9-2.4-1.9
			c-1.7,0-2.8,1.5-2.8,3.6c0,1.9,0.9,3.4,2.7,3.4c1.1,0,2.1-0.7,2.5-2c0.1-0.2,0.1-0.5,0.1-0.7V85.2z"/>
		<path class="st19" d="M429.6,90.7l-0.1-1.2h-0.1c-0.5,0.7-1.5,1.4-2.8,1.4c-1.9,0-2.8-1.3-2.8-2.6c0-2.2,2-3.4,5.5-3.4v-0.2
			c0-0.8-0.2-2.1-2.1-2.1c-0.9,0-1.7,0.3-2.4,0.7l-0.4-1.1c0.8-0.5,1.9-0.8,3-0.8c2.8,0,3.5,1.9,3.5,3.8v3.4c0,0.8,0,1.6,0.2,2.2
			H429.6z M429.3,86c-1.8,0-3.9,0.3-3.9,2.1c0,1.1,0.7,1.6,1.6,1.6c1.2,0,2-0.8,2.2-1.5c0.1-0.2,0.1-0.4,0.1-0.5V86z"/>
		<path class="st19" d="M451.7,84.5c0-1.2,0-2.1-0.1-3h1.5l0.1,1.6h0c0.7-1.1,1.8-1.8,3.3-1.8c2.2,0,3.9,1.9,3.9,4.7
			c0,3.3-2,4.9-4.2,4.9c-1.2,0-2.3-0.5-2.8-1.4h0v5h-1.7V84.5z M453.4,86.9c0,0.2,0,0.5,0.1,0.7c0.3,1.2,1.3,2,2.5,2
			c1.8,0,2.8-1.4,2.8-3.6c0-1.8-1-3.4-2.7-3.4c-1.1,0-2.2,0.8-2.5,2.1c-0.1,0.2-0.1,0.5-0.1,0.7V86.9z"/>
		<path class="st19" d="M467.6,90.7l-0.1-1.2h-0.1c-0.5,0.7-1.5,1.4-2.8,1.4c-1.9,0-2.8-1.3-2.8-2.6c0-2.2,2-3.4,5.5-3.4v-0.2
			c0-0.8-0.2-2.1-2.1-2.1c-0.9,0-1.7,0.3-2.4,0.7l-0.4-1.1c0.8-0.5,1.9-0.8,3-0.8c2.8,0,3.5,1.9,3.5,3.8v3.4c0,0.8,0,1.6,0.2,2.2
			H467.6z M467.4,86c-1.8,0-3.9,0.3-3.9,2.1c0,1.1,0.7,1.6,1.6,1.6c1.2,0,2-0.8,2.2-1.5c0.1-0.2,0.1-0.4,0.1-0.5V86z"/>
		<path class="st19" d="M471.7,84.4c0-1.1,0-2-0.1-2.9h1.5l0.1,1.8h0.1c0.4-1.2,1.4-2,2.5-2c0.2,0,0.3,0,0.5,0.1v1.6
			c-0.2,0-0.3-0.1-0.6-0.1c-1.2,0-2,0.9-2.2,2.1c0,0.2-0.1,0.5-0.1,0.8v4.9h-1.7V84.4z"/>
		<path class="st19" d="M480.4,78.8v2.6h2.4v1.3h-2.4v5c0,1.1,0.3,1.8,1.3,1.8c0.4,0,0.8-0.1,1-0.1l0.1,1.3
			c-0.3,0.1-0.8,0.2-1.5,0.2c-0.8,0-1.4-0.2-1.8-0.7c-0.5-0.5-0.6-1.3-0.6-2.4v-5h-1.4v-1.3h1.4v-2.2L480.4,78.8z"/>
		<path class="st19" d="M485.5,86.4c0,2.3,1.5,3.2,3.2,3.2c1.2,0,1.9-0.2,2.5-0.5l0.3,1.2c-0.6,0.3-1.6,0.6-3.1,0.6
			c-2.8,0-4.5-1.9-4.5-4.6s1.6-5,4.3-5c3,0,3.8,2.6,3.8,4.3c0,0.3,0,0.6-0.1,0.8H485.5z M490.4,85.2c0-1.1-0.4-2.7-2.3-2.7
			c-1.7,0-2.4,1.6-2.6,2.7H490.4z"/>
		<path class="st19" d="M283.1,113.1c-0.4,0.2-1.4,0.5-2.6,0.5c-2.8,0-4.6-1.9-4.6-4.7c0-2.8,1.9-4.9,4.9-4.9c1,0,1.9,0.2,2.3,0.5
			l-0.4,1.3c-0.4-0.2-1-0.4-1.9-0.4c-2.1,0-3.2,1.6-3.2,3.5c0,2.1,1.4,3.4,3.2,3.4c0.9,0,1.6-0.2,2.1-0.5L283.1,113.1z"/>
		<path class="st19" d="M290.2,113.5l-0.1-1.2H290c-0.5,0.7-1.5,1.4-2.8,1.4c-1.9,0-2.8-1.3-2.8-2.6c0-2.2,2-3.4,5.5-3.4v-0.2
			c0-0.8-0.2-2.1-2.1-2.1c-0.9,0-1.7,0.3-2.4,0.7l-0.4-1.1c0.8-0.5,1.9-0.8,3-0.8c2.8,0,3.5,1.9,3.5,3.8v3.4c0,0.8,0,1.6,0.2,2.2
			H290.2z M289.9,108.8c-1.8,0-3.9,0.3-3.9,2.1c0,1.1,0.7,1.6,1.6,1.6c1.2,0,2-0.8,2.2-1.5c0.1-0.2,0.1-0.4,0.1-0.5V108.8z"/>
		<path class="st19" d="M294.2,106.8c0-1,0-1.7-0.1-2.5h1.5l0.1,1.5h0.1c0.5-0.9,1.4-1.7,2.9-1.7c1.3,0,2.2,0.8,2.6,1.8h0
			c0.3-0.5,0.6-0.9,1-1.2c0.6-0.4,1.2-0.6,2-0.6c1.2,0,3,0.8,3,4v5.4h-1.6v-5.2c0-1.8-0.6-2.8-2-2.8c-1,0-1.7,0.7-2,1.5
			c-0.1,0.2-0.1,0.5-0.1,0.8v5.7H300V108c0-1.5-0.6-2.5-1.9-2.5c-1,0-1.8,0.8-2.1,1.7c-0.1,0.2-0.1,0.5-0.1,0.8v5.5h-1.6V106.8z"/>
		<path class="st19" d="M310,113.5c0-0.6,0.1-1.6,0.1-2.4V100h1.7v5.8h0c0.6-1,1.7-1.7,3.1-1.7c2.3,0,3.9,1.9,3.9,4.7
			c0,3.3-2.1,4.9-4.1,4.9c-1.3,0-2.4-0.5-3.1-1.7h-0.1l-0.1,1.5H310z M311.7,109.8c0,0.2,0,0.4,0.1,0.6c0.3,1.2,1.3,2,2.5,2
			c1.7,0,2.8-1.4,2.8-3.5c0-1.8-1-3.4-2.7-3.4c-1.1,0-2.2,0.8-2.5,2.1c0,0.2-0.1,0.4-0.1,0.7V109.8z"/>
		<path class="st19" d="M322.8,101.7c0,0.6-0.4,1-1.1,1c-0.6,0-1-0.5-1-1c0-0.6,0.4-1,1-1C322.4,100.7,322.8,101.1,322.8,101.7z
			 M320.9,113.5v-9.2h1.7v9.2H320.9z"/>
		<path class="st19" d="M330.4,113.5l-0.1-1.2h-0.1c-0.5,0.7-1.5,1.4-2.8,1.4c-1.9,0-2.8-1.3-2.8-2.6c0-2.2,2-3.4,5.5-3.4v-0.2
			c0-0.8-0.2-2.1-2.1-2.1c-0.9,0-1.7,0.3-2.4,0.7l-0.4-1.1c0.8-0.5,1.9-0.8,3-0.8c2.8,0,3.5,1.9,3.5,3.8v3.4c0,0.8,0,1.6,0.2,2.2
			H330.4z M330.2,108.8c-1.8,0-3.9,0.3-3.9,2.1c0,1.1,0.7,1.6,1.6,1.6c1.2,0,2-0.8,2.2-1.5c0.1-0.2,0.1-0.4,0.1-0.5V108.8z"/>
		<path class="st19" d="M338.5,100h1.7v13.5h-1.7V100z"/>
		<path class="st19" d="M348.1,113.5l-0.1-1.2h-0.1c-0.5,0.7-1.5,1.4-2.8,1.4c-1.9,0-2.8-1.3-2.8-2.6c0-2.2,2-3.4,5.5-3.4v-0.2
			c0-0.8-0.2-2.1-2.1-2.1c-0.9,0-1.7,0.3-2.4,0.7l-0.4-1.1c0.8-0.5,1.9-0.8,3-0.8c2.8,0,3.5,1.9,3.5,3.8v3.4c0,0.8,0,1.6,0.2,2.2
			H348.1z M347.9,108.8c-1.8,0-3.9,0.3-3.9,2.1c0,1.1,0.7,1.6,1.6,1.6c1.2,0,2-0.8,2.2-1.5c0.1-0.2,0.1-0.4,0.1-0.5V108.8z"/>
		<path class="st19" d="M356.2,106.8c0-1,0-1.7-0.1-2.5h1.5l0.1,1.5h0.1c0.5-0.9,1.4-1.7,2.9-1.7c1.3,0,2.2,0.8,2.6,1.8h0
			c0.3-0.5,0.6-0.9,1-1.2c0.6-0.4,1.2-0.6,2-0.6c1.2,0,3,0.8,3,4v5.4h-1.6v-5.2c0-1.8-0.6-2.8-2-2.8c-1,0-1.7,0.7-2,1.5
			c-0.1,0.2-0.1,0.5-0.1,0.8v5.7H362V108c0-1.5-0.6-2.5-1.9-2.5c-1,0-1.8,0.8-2.1,1.7c-0.1,0.2-0.1,0.5-0.1,0.8v5.5h-1.6V106.8z"/>
		<path class="st19" d="M373,109.2c0,2.3,1.5,3.2,3.2,3.2c1.2,0,1.9-0.2,2.5-0.5l0.3,1.2c-0.6,0.3-1.6,0.6-3.1,0.6
			c-2.8,0-4.5-1.9-4.5-4.6s1.6-5,4.3-5c3,0,3.8,2.6,3.8,4.3c0,0.3,0,0.6-0.1,0.8H373z M377.9,108c0-1.1-0.4-2.7-2.3-2.7
			c-1.7,0-2.4,1.6-2.6,2.7H377.9z"/>
		<path class="st19" d="M383.6,101.6v2.6h2.4v1.3h-2.4v5c0,1.1,0.3,1.8,1.3,1.8c0.4,0,0.8-0.1,1-0.1l0.1,1.3
			c-0.3,0.1-0.8,0.2-1.5,0.2c-0.8,0-1.4-0.2-1.8-0.7c-0.5-0.5-0.6-1.3-0.6-2.4v-5h-1.4v-1.3h1.4v-2.2L383.6,101.6z"/>
		<path class="st19" d="M396.1,108.8c0,3.4-2.4,4.9-4.6,4.9c-2.5,0-4.4-1.8-4.4-4.7c0-3.1,2-4.9,4.6-4.9
			C394.3,104.1,396.1,106,396.1,108.8z M388.8,108.9c0,2,1.2,3.5,2.8,3.5c1.6,0,2.8-1.5,2.8-3.6c0-1.6-0.8-3.5-2.8-3.5
			S388.8,107.2,388.8,108.9z"/>
		<path class="st19" d="M406.1,100v11.1c0,0.8,0,1.7,0.1,2.4h-1.5l-0.1-1.6h0c-0.5,1-1.6,1.8-3.1,1.8c-2.2,0-3.9-1.9-3.9-4.7
			c0-3.1,1.9-4.9,4.1-4.9c1.4,0,2.4,0.7,2.8,1.4h0V100H406.1z M404.4,108c0-0.2,0-0.5-0.1-0.7c-0.2-1.1-1.2-1.9-2.4-1.9
			c-1.7,0-2.8,1.5-2.8,3.6c0,1.9,0.9,3.4,2.7,3.4c1.1,0,2.1-0.7,2.5-2c0.1-0.2,0.1-0.5,0.1-0.7V108z"/>
		<path class="st19" d="M417.2,108.8c0,3.4-2.4,4.9-4.6,4.9c-2.5,0-4.4-1.8-4.4-4.7c0-3.1,2-4.9,4.6-4.9
			C415.4,104.1,417.2,106,417.2,108.8z M409.9,108.9c0,2,1.2,3.5,2.8,3.5c1.6,0,2.8-1.5,2.8-3.6c0-1.6-0.8-3.5-2.8-3.5
			S409.9,107.2,409.9,108.9z"/>
		<path class="st19" d="M419.3,100h1.7v13.5h-1.7V100z"/>
		<path class="st19" d="M432.1,108.8c0,3.4-2.4,4.9-4.6,4.9c-2.5,0-4.4-1.8-4.4-4.7c0-3.1,2-4.9,4.6-4.9
			C430.3,104.1,432.1,106,432.1,108.8z M424.8,108.9c0,2,1.2,3.5,2.8,3.5c1.6,0,2.8-1.5,2.8-3.6c0-1.6-0.8-3.5-2.8-3.5
			S424.8,107.2,424.8,108.9z"/>
		<path class="st19" d="M442.2,104.3c0,0.7-0.1,1.4-0.1,2.5v5.3c0,2.1-0.4,3.4-1.3,4.2c-0.9,0.8-2.2,1.1-3.3,1.1
			c-1.1,0-2.3-0.3-3.1-0.8l0.4-1.3c0.6,0.4,1.6,0.7,2.7,0.7c1.7,0,3-0.9,3-3.2v-1h0c-0.5,0.9-1.5,1.5-2.9,1.5
			c-2.3,0-3.9-1.9-3.9-4.5c0-3.1,2-4.9,4.1-4.9c1.6,0,2.5,0.8,2.9,1.6h0l0.1-1.4H442.2z M440.4,107.9c0-0.3,0-0.5-0.1-0.8
			c-0.3-1-1.1-1.8-2.3-1.8c-1.6,0-2.7,1.3-2.7,3.5c0,1.8,0.9,3.3,2.7,3.3c1,0,2-0.6,2.3-1.7c0.1-0.3,0.1-0.6,0.1-0.9V107.9z"/>
		<path class="st19" d="M448.1,100.3l-2.3,2.7h-1.2l1.7-2.7H448.1z M444.7,113.5v-9.2h1.7v9.2H444.7z"/>
		<path class="st19" d="M454.3,113.5l-0.1-1.2h-0.1c-0.5,0.7-1.5,1.4-2.8,1.4c-1.9,0-2.8-1.3-2.8-2.6c0-2.2,2-3.4,5.5-3.4v-0.2
			c0-0.8-0.2-2.1-2.1-2.1c-0.9,0-1.7,0.3-2.4,0.7l-0.4-1.1c0.8-0.5,1.9-0.8,3-0.8c2.8,0,3.5,1.9,3.5,3.8v3.4c0,0.8,0,1.6,0.2,2.2
			H454.3z M454,108.8c-1.8,0-3.9,0.3-3.9,2.1c0,1.1,0.7,1.6,1.6,1.6c1.2,0,2-0.8,2.2-1.5c0.1-0.2,0.1-0.4,0.1-0.5V108.8z"/>
		<path class="st19" d="M276.6,130.1c0-1.2,0-2.1-0.1-3h1.5l0.1,1.6h0c0.7-1.1,1.8-1.8,3.3-1.8c2.2,0,3.9,1.9,3.9,4.7
			c0,3.3-2,4.9-4.2,4.9c-1.2,0-2.3-0.5-2.8-1.4h0v5h-1.7V130.1z M278.2,132.5c0,0.2,0,0.5,0.1,0.7c0.3,1.2,1.3,2,2.5,2
			c1.8,0,2.8-1.4,2.8-3.6c0-1.8-1-3.4-2.7-3.4c-1.1,0-2.2,0.8-2.5,2.1c-0.1,0.2-0.1,0.5-0.1,0.7V132.5z"/>
		<path class="st19" d="M295.7,131.6c0,3.4-2.4,4.9-4.6,4.9c-2.5,0-4.4-1.8-4.4-4.7c0-3.1,2-4.9,4.6-4.9
			C293.9,126.9,295.7,128.8,295.7,131.6z M288.4,131.7c0,2,1.2,3.5,2.8,3.5c1.6,0,2.8-1.5,2.8-3.6c0-1.6-0.8-3.5-2.8-3.5
			S288.4,130,288.4,131.7z"/>
		<path class="st19" d="M297.8,130c0-1.1,0-2-0.1-2.9h1.5l0.1,1.8h0.1c0.4-1.2,1.4-2,2.5-2c0.2,0,0.3,0,0.5,0.1v1.6
			c-0.2,0-0.3-0.1-0.6-0.1c-1.2,0-2,0.9-2.2,2.1c0,0.2-0.1,0.5-0.1,0.8v4.9h-1.7V130z"/>
		<path class="st19" d="M309,132c0,2.3,1.5,3.2,3.2,3.2c1.2,0,1.9-0.2,2.5-0.5l0.3,1.2c-0.6,0.3-1.6,0.6-3.1,0.6
			c-2.8,0-4.5-1.9-4.5-4.6s1.6-5,4.3-5c3,0,3.8,2.6,3.8,4.3c0,0.3,0,0.6-0.1,0.8H309z M313.9,130.8c0-1.1-0.4-2.7-2.3-2.7
			c-1.7,0-2.4,1.6-2.6,2.7H313.9z"/>
		<path class="st19" d="M317.6,129.6c0-1,0-1.7-0.1-2.5h1.5l0.1,1.5h0c0.5-0.9,1.5-1.7,3-1.7c1.3,0,3.2,0.8,3.2,3.9v5.5h-1.7V131
			c0-1.5-0.6-2.7-2.1-2.7c-1.1,0-2,0.8-2.2,1.7c-0.1,0.2-0.1,0.5-0.1,0.8v5.5h-1.7V129.6z"/>
		<path class="st19" d="M330.1,124.4v2.6h2.4v1.3h-2.4v5c0,1.1,0.3,1.8,1.3,1.8c0.4,0,0.8-0.1,1-0.1l0.1,1.3
			c-0.3,0.1-0.8,0.2-1.5,0.2c-0.8,0-1.4-0.2-1.8-0.7c-0.5-0.5-0.6-1.3-0.6-2.4v-5H327v-1.3h1.4v-2.2L330.1,124.4z"/>
		<path class="st19" d="M334.3,130c0-1.1,0-2-0.1-2.9h1.5l0.1,1.8h0.1c0.4-1.2,1.4-2,2.5-2c0.2,0,0.3,0,0.5,0.1v1.6
			c-0.2,0-0.3-0.1-0.6-0.1c-1.2,0-2,0.9-2.2,2.1c0,0.2-0.1,0.5-0.1,0.8v4.9h-1.7V130z"/>
		<path class="st19" d="M341.3,132c0,2.3,1.5,3.2,3.2,3.2c1.2,0,1.9-0.2,2.5-0.5l0.3,1.2c-0.6,0.3-1.6,0.6-3.1,0.6
			c-2.8,0-4.5-1.9-4.5-4.6s1.6-5,4.3-5c3,0,3.8,2.6,3.8,4.3c0,0.3,0,0.6-0.1,0.8H341.3z M346.2,130.8c0-1.1-0.4-2.7-2.3-2.7
			c-1.7,0-2.4,1.6-2.6,2.7H346.2z"/>
		<path class="st19" d="M350.5,127.1l1.8,5.2c0.3,0.8,0.6,1.6,0.7,2.4h0.1c0.2-0.8,0.5-1.5,0.8-2.4l1.8-5.2h1.7l-3.6,9.2h-1.6
			l-3.5-9.2H350.5z"/>
		<path class="st19" d="M360.9,124.5c0,0.6-0.4,1-1.1,1c-0.6,0-1-0.5-1-1c0-0.6,0.4-1,1-1C360.5,123.5,360.9,123.9,360.9,124.5z
			 M359,136.3v-9.2h1.7v9.2H359z"/>
		<path class="st19" d="M363.2,134.6c0.5,0.3,1.4,0.7,2.2,0.7c1.2,0,1.8-0.6,1.8-1.4c0-0.8-0.5-1.2-1.7-1.7
			c-1.7-0.6-2.4-1.5-2.4-2.6c0-1.5,1.2-2.7,3.2-2.7c0.9,0,1.7,0.3,2.3,0.6l-0.4,1.2c-0.4-0.2-1-0.5-1.9-0.5c-1,0-1.5,0.6-1.5,1.3
			c0,0.8,0.6,1.1,1.7,1.6c1.6,0.6,2.4,1.4,2.4,2.8c0,1.6-1.3,2.8-3.4,2.8c-1,0-1.9-0.2-2.6-0.6L363.2,134.6z"/>
		<path class="st19" d="M373,124.4v2.6h2.4v1.3H373v5c0,1.1,0.3,1.8,1.3,1.8c0.4,0,0.8-0.1,1-0.1l0.1,1.3c-0.3,0.1-0.8,0.2-1.5,0.2
			c-0.8,0-1.4-0.2-1.8-0.7c-0.5-0.5-0.6-1.3-0.6-2.4v-5h-1.4v-1.3h1.4v-2.2L373,124.4z"/>
		<path class="st19" d="M382.4,136.3l-0.1-1.2h-0.1c-0.5,0.7-1.5,1.4-2.8,1.4c-1.9,0-2.8-1.3-2.8-2.6c0-2.2,2-3.4,5.5-3.4v-0.2
			c0-0.8-0.2-2.1-2.1-2.1c-0.9,0-1.7,0.3-2.4,0.7l-0.4-1.1c0.8-0.5,1.9-0.8,3-0.8c2.8,0,3.5,1.9,3.5,3.8v3.4c0,0.8,0,1.6,0.2,2.2
			H382.4z M382.1,131.6c-1.8,0-3.9,0.3-3.9,2.1c0,1.1,0.7,1.6,1.6,1.6c1.2,0,2-0.8,2.2-1.5c0.1-0.2,0.1-0.4,0.1-0.5V131.6z"/>
		<path class="st19" d="M390.2,134.6c0.5,0.3,1.4,0.7,2.2,0.7c1.2,0,1.8-0.6,1.8-1.4c0-0.8-0.5-1.2-1.7-1.7
			c-1.7-0.6-2.4-1.5-2.4-2.6c0-1.5,1.2-2.7,3.2-2.7c0.9,0,1.7,0.3,2.3,0.6l-0.4,1.2c-0.4-0.2-1-0.5-1.9-0.5c-1,0-1.5,0.6-1.5,1.3
			c0,0.8,0.6,1.1,1.7,1.6c1.6,0.6,2.4,1.4,2.4,2.8c0,1.6-1.3,2.8-3.4,2.8c-1,0-1.9-0.2-2.6-0.6L390.2,134.6z"/>
		<path class="st19" d="M400,124.4v2.6h2.4v1.3H400v5c0,1.1,0.3,1.8,1.3,1.8c0.4,0,0.8-0.1,1-0.1l0.1,1.3c-0.3,0.1-0.8,0.2-1.5,0.2
			c-0.8,0-1.4-0.2-1.8-0.7c-0.5-0.5-0.6-1.3-0.6-2.4v-5h-1.4v-1.3h1.4v-2.2L400,124.4z"/>
		<path class="st19" d="M404.3,130c0-1.1,0-2-0.1-2.9h1.5l0.1,1.8h0.1c0.4-1.2,1.4-2,2.5-2c0.2,0,0.3,0,0.5,0.1v1.6
			c-0.2,0-0.3-0.1-0.6-0.1c-1.2,0-2,0.9-2.2,2.1c0,0.2-0.1,0.5-0.1,0.8v4.9h-1.7V130z"/>
		<path class="st19" d="M418.2,133.8c0,1,0,1.8,0.1,2.5h-1.5l-0.1-1.5h0c-0.4,0.7-1.4,1.7-3,1.7c-1.4,0-3.2-0.8-3.2-4v-5.4h1.7v5.1
			c0,1.7,0.5,2.9,2.1,2.9c1.1,0,1.9-0.8,2.2-1.5c0.1-0.2,0.2-0.6,0.2-0.9v-5.6h1.7V133.8z"/>
		<path class="st19" d="M427.5,135.9c-0.4,0.2-1.4,0.5-2.6,0.5c-2.8,0-4.6-1.9-4.6-4.7c0-2.8,1.9-4.9,4.9-4.9c1,0,1.9,0.2,2.3,0.5
			l-0.4,1.3c-0.4-0.2-1-0.4-1.9-0.4c-2.1,0-3.2,1.6-3.2,3.5c0,2.1,1.4,3.4,3.2,3.4c0.9,0,1.6-0.2,2.1-0.5L427.5,135.9z"/>
		<path class="st19" d="M431.7,124.4v2.6h2.4v1.3h-2.4v5c0,1.1,0.3,1.8,1.3,1.8c0.4,0,0.8-0.1,1-0.1l0.1,1.3
			c-0.3,0.1-0.8,0.2-1.5,0.2c-0.8,0-1.4-0.2-1.8-0.7c-0.5-0.5-0.6-1.3-0.6-2.4v-5h-1.4v-1.3h1.4v-2.2L431.7,124.4z"/>
		<path class="st19" d="M443.7,133.8c0,1,0,1.8,0.1,2.5h-1.5l-0.1-1.5h0c-0.4,0.7-1.4,1.7-3,1.7c-1.4,0-3.2-0.8-3.2-4v-5.4h1.7v5.1
			c0,1.7,0.5,2.9,2.1,2.9c1.1,0,1.9-0.8,2.2-1.5c0.1-0.2,0.2-0.6,0.2-0.9v-5.6h1.7V133.8z"/>
		<path class="st19" d="M446.5,130c0-1.1,0-2-0.1-2.9h1.5l0.1,1.8h0.1c0.4-1.2,1.4-2,2.5-2c0.2,0,0.3,0,0.5,0.1v1.6
			c-0.2,0-0.3-0.1-0.6-0.1c-1.2,0-2,0.9-2.2,2.1c0,0.2-0.1,0.5-0.1,0.8v4.9h-1.7V130z"/>
		<path class="st19" d="M457.7,136.3l-0.1-1.2h-0.1c-0.5,0.7-1.5,1.4-2.8,1.4c-1.9,0-2.8-1.3-2.8-2.6c0-2.2,2-3.4,5.5-3.4v-0.2
			c0-0.8-0.2-2.1-2.1-2.1c-0.9,0-1.7,0.3-2.4,0.7l-0.4-1.1c0.8-0.5,1.9-0.8,3-0.8c2.8,0,3.5,1.9,3.5,3.8v3.4c0,0.8,0,1.6,0.2,2.2
			H457.7z M457.4,131.6c-1.8,0-3.9,0.3-3.9,2.1c0,1.1,0.7,1.6,1.6,1.6c1.2,0,2-0.8,2.2-1.5c0.1-0.2,0.1-0.4,0.1-0.5V131.6z"/>
		<path class="st19" d="M469.7,122.8v11.1c0,0.8,0,1.7,0.1,2.4h-1.5l-0.1-1.6h0c-0.5,1-1.6,1.8-3.1,1.8c-2.2,0-3.9-1.9-3.9-4.7
			c0-3.1,1.9-4.9,4.1-4.9c1.4,0,2.4,0.7,2.8,1.4h0v-5.5H469.7z M468,130.8c0-0.2,0-0.5-0.1-0.7c-0.2-1.1-1.2-1.9-2.4-1.9
			c-1.7,0-2.8,1.5-2.8,3.6c0,1.9,0.9,3.4,2.7,3.4c1.1,0,2.1-0.7,2.5-2c0.1-0.2,0.1-0.5,0.1-0.7V130.8z"/>
		<path class="st19" d="M477.5,136.3l-0.1-1.2h-0.1c-0.5,0.7-1.5,1.4-2.8,1.4c-1.9,0-2.8-1.3-2.8-2.6c0-2.2,2-3.4,5.5-3.4v-0.2
			c0-0.8-0.2-2.1-2.1-2.1c-0.9,0-1.7,0.3-2.4,0.7l-0.4-1.1c0.8-0.5,1.9-0.8,3-0.8c2.8,0,3.5,1.9,3.5,3.8v3.4c0,0.8,0,1.6,0.2,2.2
			H477.5z M477.3,131.6c-1.8,0-3.9,0.3-3.9,2.1c0,1.1,0.7,1.6,1.6,1.6c1.2,0,2-0.8,2.2-1.5c0.1-0.2,0.1-0.4,0.1-0.5V131.6z"/>
		<path class="st19" d="M480.5,138.6c0.4-1.1,0.9-3.2,1.1-4.5l1.9-0.2c-0.4,1.6-1.3,3.7-1.8,4.6L480.5,138.6z"/>
		<path class="st19" d="M281.7,159.1l-0.1-1.2h-0.1c-0.5,0.7-1.5,1.4-2.8,1.4c-1.9,0-2.8-1.3-2.8-2.6c0-2.2,2-3.4,5.5-3.4V153
			c0-0.8-0.2-2.1-2.1-2.1c-0.9,0-1.7,0.3-2.4,0.7l-0.4-1.1c0.8-0.5,1.9-0.8,3-0.8c2.8,0,3.5,1.9,3.5,3.8v3.4c0,0.8,0,1.6,0.2,2.2
			H281.7z M281.4,154.4c-1.8,0-3.9,0.3-3.9,2.1c0,1.1,0.7,1.6,1.6,1.6c1.2,0,2-0.8,2.2-1.5c0.1-0.2,0.1-0.4,0.1-0.5V154.4z"/>
		<path class="st19" d="M292.2,147.2v2.6h2.4v1.3h-2.4v5c0,1.1,0.3,1.8,1.3,1.8c0.4,0,0.8-0.1,1-0.1l0.1,1.3
			c-0.3,0.1-0.8,0.2-1.5,0.2c-0.8,0-1.4-0.2-1.8-0.7c-0.5-0.5-0.6-1.3-0.6-2.4v-5h-1.4v-1.3h1.4v-2.2L292.2,147.2z"/>
		<path class="st19" d="M296.4,152.8c0-1.1,0-2-0.1-2.9h1.5l0.1,1.8h0.1c0.4-1.2,1.4-2,2.5-2c0.2,0,0.3,0,0.5,0.1v1.6
			c-0.2,0-0.3-0.1-0.6-0.1c-1.2,0-2,0.9-2.2,2.1c0,0.2-0.1,0.5-0.1,0.8v4.9h-1.7V152.8z"/>
		<path class="st19" d="M307.6,159.1l-0.1-1.2h-0.1c-0.5,0.7-1.5,1.4-2.8,1.4c-1.9,0-2.8-1.3-2.8-2.6c0-2.2,2-3.4,5.5-3.4V153
			c0-0.8-0.2-2.1-2.1-2.1c-0.9,0-1.7,0.3-2.4,0.7l-0.4-1.1c0.8-0.5,1.9-0.8,3-0.8c2.8,0,3.5,1.9,3.5,3.8v3.4c0,0.8,0,1.6,0.2,2.2
			H307.6z M307.4,154.4c-1.8,0-3.9,0.3-3.9,2.1c0,1.1,0.7,1.6,1.6,1.6c1.2,0,2-0.8,2.2-1.5c0.1-0.2,0.1-0.4,0.1-0.5V154.4z"/>
		<path class="st19" d="M312.2,149.9l1.8,5.2c0.3,0.8,0.6,1.6,0.7,2.4h0.1c0.2-0.8,0.5-1.5,0.8-2.4l1.8-5.2h1.7l-3.6,9.2h-1.6
			l-3.5-9.2H312.2z"/>
		<path class="st19" d="M321.4,154.8c0,2.3,1.5,3.2,3.2,3.2c1.2,0,1.9-0.2,2.5-0.5l0.3,1.2c-0.6,0.3-1.6,0.6-3.1,0.6
			c-2.8,0-4.5-1.9-4.5-4.6s1.6-5,4.3-5c3,0,3.8,2.6,3.8,4.3c0,0.3,0,0.6-0.1,0.8H321.4z M326.3,153.6c0-1.1-0.4-2.7-2.3-2.7
			c-1.7,0-2.4,1.6-2.6,2.7H326.3z M326.7,145.9l-2.3,2.7h-1.2l1.7-2.7H326.7z"/>
		<path class="st19" d="M329.8,157.4c0.5,0.3,1.4,0.7,2.2,0.7c1.2,0,1.8-0.6,1.8-1.4c0-0.8-0.5-1.2-1.7-1.7
			c-1.7-0.6-2.4-1.5-2.4-2.6c0-1.5,1.2-2.7,3.2-2.7c0.9,0,1.7,0.3,2.3,0.6l-0.4,1.2c-0.4-0.2-1-0.5-1.9-0.5c-1,0-1.5,0.6-1.5,1.3
			c0,0.8,0.6,1.1,1.7,1.6c1.6,0.6,2.4,1.4,2.4,2.8c0,1.6-1.3,2.8-3.4,2.8c-1,0-1.9-0.2-2.6-0.6L329.8,157.4z"/>
		<path class="st19" d="M349.9,145.6v11.1c0,0.8,0,1.7,0.1,2.4h-1.5l-0.1-1.6h0c-0.5,1-1.6,1.8-3.1,1.8c-2.2,0-3.9-1.9-3.9-4.7
			c0-3.1,1.9-4.9,4.1-4.9c1.4,0,2.4,0.7,2.8,1.4h0v-5.5H349.9z M348.2,153.6c0-0.2,0-0.5-0.1-0.7c-0.2-1.1-1.2-1.9-2.4-1.9
			c-1.7,0-2.8,1.5-2.8,3.6c0,1.9,0.9,3.4,2.7,3.4c1.1,0,2.1-0.7,2.5-2c0.1-0.2,0.1-0.5,0.1-0.7V153.6z"/>
		<path class="st19" d="M353.6,154.8c0,2.3,1.5,3.2,3.2,3.2c1.2,0,1.9-0.2,2.5-0.5l0.3,1.2c-0.6,0.3-1.6,0.6-3.1,0.6
			c-2.8,0-4.5-1.9-4.5-4.6s1.6-5,4.3-5c3,0,3.8,2.6,3.8,4.3c0,0.3,0,0.6-0.1,0.8H353.6z M358.5,153.6c0-1.1-0.4-2.7-2.3-2.7
			c-1.7,0-2.4,1.6-2.6,2.7H358.5z"/>
		<path class="st19" d="M366.6,145.6h1.7v13.5h-1.7V145.6z"/>
		<path class="st19" d="M376.2,159.1l-0.1-1.2H376c-0.5,0.7-1.5,1.4-2.8,1.4c-1.9,0-2.8-1.3-2.8-2.6c0-2.2,2-3.4,5.5-3.4V153
			c0-0.8-0.2-2.1-2.1-2.1c-0.9,0-1.7,0.3-2.4,0.7l-0.4-1.1c0.8-0.5,1.9-0.8,3-0.8c2.8,0,3.5,1.9,3.5,3.8v3.4c0,0.8,0,1.6,0.2,2.2
			H376.2z M375.9,154.4c-1.8,0-3.9,0.3-3.9,2.1c0,1.1,0.7,1.6,1.6,1.6c1.2,0,2-0.8,2.2-1.5c0.1-0.2,0.1-0.4,0.1-0.5V154.4z"/>
		<path class="st19" d="M391.2,158.7c-0.4,0.2-1.4,0.5-2.6,0.5c-2.8,0-4.6-1.9-4.6-4.7c0-2.8,1.9-4.9,4.9-4.9c1,0,1.9,0.2,2.3,0.5
			l-0.4,1.3c-0.4-0.2-1-0.4-1.9-0.4c-2.1,0-3.2,1.6-3.2,3.5c0,2.1,1.4,3.4,3.2,3.4c0.9,0,1.6-0.2,2.1-0.5L391.2,158.7z"/>
		<path class="st19" d="M400.9,156.6c0,1,0,1.8,0.1,2.5h-1.5l-0.1-1.5h0c-0.4,0.7-1.4,1.7-3,1.7c-1.4,0-3.2-0.8-3.2-4v-5.4h1.7v5.1
			c0,1.7,0.5,2.9,2.1,2.9c1.1,0,1.9-0.8,2.2-1.5c0.1-0.2,0.2-0.6,0.2-0.9v-5.6h1.7V156.6z"/>
		<path class="st19" d="M408.7,159.1l-0.1-1.2h-0.1c-0.5,0.7-1.5,1.4-2.8,1.4c-1.9,0-2.8-1.3-2.8-2.6c0-2.2,2-3.4,5.5-3.4V153
			c0-0.8-0.2-2.1-2.1-2.1c-0.9,0-1.7,0.3-2.4,0.7l-0.4-1.1c0.8-0.5,1.9-0.8,3-0.8c2.8,0,3.5,1.9,3.5,3.8v3.4c0,0.8,0,1.6,0.2,2.2
			H408.7z M408.5,154.4c-1.8,0-3.9,0.3-3.9,2.1c0,1.1,0.7,1.6,1.6,1.6c1.2,0,2-0.8,2.2-1.5c0.1-0.2,0.1-0.4,0.1-0.5V154.4z"/>
		<path class="st19" d="M412.8,145.6h1.7v13.5h-1.7V145.6z"/>
		<path class="st19" d="M421.5,157.4c0.5,0.3,1.4,0.7,2.2,0.7c1.2,0,1.8-0.6,1.8-1.4c0-0.8-0.5-1.2-1.7-1.7
			c-1.7-0.6-2.4-1.5-2.4-2.6c0-1.5,1.2-2.7,3.2-2.7c0.9,0,1.7,0.3,2.3,0.6l-0.4,1.2c-0.4-0.2-1-0.5-1.9-0.5c-1,0-1.5,0.6-1.5,1.3
			c0,0.8,0.6,1.1,1.7,1.6c1.6,0.6,2.4,1.4,2.4,2.8c0,1.6-1.3,2.8-3.4,2.8c-1,0-1.9-0.2-2.6-0.6L421.5,157.4z"/>
		<path class="st19" d="M430.1,154.8c0,2.3,1.5,3.2,3.2,3.2c1.2,0,1.9-0.2,2.5-0.5l0.3,1.2c-0.6,0.3-1.6,0.6-3.1,0.6
			c-2.8,0-4.5-1.9-4.5-4.6s1.6-5,4.3-5c3,0,3.8,2.6,3.8,4.3c0,0.3,0,0.6-0.1,0.8H430.1z M435,153.6c0-1.1-0.4-2.7-2.3-2.7
			c-1.7,0-2.4,1.6-2.6,2.7H435z"/>
		<path class="st19" d="M443.1,152.8c0-1.1,0-2-0.1-2.9h1.5l0.1,1.8h0.1c0.4-1.2,1.4-2,2.5-2c0.2,0,0.3,0,0.5,0.1v1.6
			c-0.2,0-0.3-0.1-0.6-0.1c-1.2,0-2,0.9-2.2,2.1c0,0.2-0.1,0.5-0.1,0.8v4.9h-1.7V152.8z"/>
		<path class="st19" d="M450.1,154.8c0,2.3,1.5,3.2,3.2,3.2c1.2,0,1.9-0.2,2.5-0.5l0.3,1.2c-0.6,0.3-1.6,0.6-3.1,0.6
			c-2.8,0-4.5-1.9-4.5-4.6s1.6-5,4.3-5c3,0,3.8,2.6,3.8,4.3c0,0.3,0,0.6-0.1,0.8H450.1z M455,153.6c0-1.1-0.4-2.7-2.3-2.7
			c-1.7,0-2.4,1.6-2.6,2.7H455z"/>
		<path class="st19" d="M463.8,159.1l-0.1-1.2h-0.1c-0.5,0.7-1.5,1.4-2.8,1.4c-1.9,0-2.8-1.3-2.8-2.6c0-2.2,2-3.4,5.5-3.4V153
			c0-0.8-0.2-2.1-2.1-2.1c-0.9,0-1.7,0.3-2.4,0.7l-0.4-1.1c0.8-0.5,1.9-0.8,3-0.8c2.8,0,3.5,1.9,3.5,3.8v3.4c0,0.8,0,1.6,0.2,2.2
			H463.8z M463.5,154.4c-1.8,0-3.9,0.3-3.9,2.1c0,1.1,0.7,1.6,1.6,1.6c1.2,0,2-0.8,2.2-1.5c0.1-0.2,0.1-0.4,0.1-0.5V154.4z"/>
		<path class="st19" d="M467.8,145.6h1.7v13.5h-1.7V145.6z"/>
		<path class="st19" d="M474.2,147.3c0,0.6-0.4,1-1.1,1c-0.6,0-1-0.5-1-1c0-0.6,0.4-1,1-1C473.8,146.3,474.2,146.7,474.2,147.3z
			 M472.3,159.1v-9.2h1.7v9.2H472.3z"/>
		<path class="st19" d="M475.7,158.1l4.2-5.4c0.4-0.5,0.8-0.9,1.2-1.4v0h-5v-1.3h7l0,1l-4.1,5.3c-0.4,0.5-0.8,1-1.2,1.4v0h5.4v1.3
			h-7.5V158.1z"/>
		<path class="st19" d="M490,159.1l-0.1-1.2h-0.1c-0.5,0.7-1.5,1.4-2.8,1.4c-1.9,0-2.8-1.3-2.8-2.6c0-2.2,2-3.4,5.5-3.4V153
			c0-0.8-0.2-2.1-2.1-2.1c-0.9,0-1.7,0.3-2.4,0.7l-0.4-1.1c0.8-0.5,1.9-0.8,3-0.8c2.8,0,3.5,1.9,3.5,3.8v3.4c0,0.8,0,1.6,0.2,2.2
			H490z M489.7,154.4c-1.8,0-3.9,0.3-3.9,2.1c0,1.1,0.7,1.6,1.6,1.6c1.2,0,2-0.8,2.2-1.5c0.1-0.2,0.1-0.4,0.1-0.5V154.4z"/>
		<path class="st19" d="M276.6,168.4h1.7v13.5h-1.7V168.4z"/>
		<path class="st19" d="M286.1,181.9l-0.1-1.2H286c-0.5,0.7-1.5,1.4-2.8,1.4c-1.9,0-2.8-1.3-2.8-2.6c0-2.2,2-3.4,5.5-3.4v-0.2
			c0-0.8-0.2-2.1-2.1-2.1c-0.9,0-1.7,0.3-2.4,0.7l-0.4-1.1c0.8-0.5,1.9-0.8,3-0.8c2.8,0,3.5,1.9,3.5,3.8v3.4c0,0.8,0,1.6,0.2,2.2
			H286.1z M285.9,177.2c-1.8,0-3.9,0.3-3.9,2.1c0,1.1,0.7,1.6,1.6,1.6c1.2,0,2-0.8,2.2-1.5c0.1-0.2,0.1-0.4,0.1-0.5V177.2z"/>
		<path class="st19" d="M302.6,177.2c0,3.4-2.4,4.9-4.6,4.9c-2.5,0-4.4-1.8-4.4-4.7c0-3.1,2-4.9,4.6-4.9
			C300.8,172.5,302.6,174.4,302.6,177.2z M295.3,177.3c0,2,1.2,3.5,2.8,3.5c1.6,0,2.8-1.5,2.8-3.6c0-1.6-0.8-3.5-2.8-3.5
			S295.3,175.6,295.3,177.3z"/>
		<path class="st19" d="M304.6,181.9c0-0.6,0.1-1.6,0.1-2.4v-11.1h1.7v5.8h0c0.6-1,1.7-1.7,3.1-1.7c2.3,0,3.9,1.9,3.9,4.7
			c0,3.3-2.1,4.9-4.1,4.9c-1.3,0-2.4-0.5-3.1-1.7h-0.1l-0.1,1.5H304.6z M306.3,178.2c0,0.2,0,0.4,0.1,0.6c0.3,1.2,1.3,2,2.5,2
			c1.7,0,2.8-1.4,2.8-3.5c0-1.8-1-3.4-2.7-3.4c-1.1,0-2.2,0.8-2.5,2.1c0,0.2-0.1,0.4-0.1,0.7V178.2z"/>
		<path class="st19" d="M317.5,170v2.6h2.4v1.3h-2.4v5c0,1.1,0.3,1.8,1.3,1.8c0.4,0,0.8-0.1,1-0.1l0.1,1.3c-0.3,0.1-0.8,0.2-1.5,0.2
			c-0.8,0-1.4-0.2-1.8-0.7c-0.5-0.5-0.6-1.3-0.6-2.4v-5h-1.4v-1.3h1.4v-2.2L317.5,170z"/>
		<path class="st19" d="M322.6,177.6c0,2.3,1.5,3.2,3.2,3.2c1.2,0,1.9-0.2,2.5-0.5l0.3,1.2c-0.6,0.3-1.6,0.6-3.1,0.6
			c-2.8,0-4.5-1.9-4.5-4.6s1.6-5,4.3-5c3,0,3.8,2.6,3.8,4.3c0,0.3,0,0.6-0.1,0.8H322.6z M327.5,176.4c0-1.1-0.4-2.7-2.3-2.7
			c-1.7,0-2.4,1.6-2.6,2.7H327.5z"/>
		<path class="st19" d="M331.2,175.2c0-1,0-1.7-0.1-2.5h1.5l0.1,1.5h0c0.5-0.9,1.5-1.7,3-1.7c1.3,0,3.2,0.8,3.2,3.9v5.5h-1.7v-5.3
			c0-1.5-0.6-2.7-2.1-2.7c-1.1,0-2,0.8-2.2,1.7c-0.1,0.2-0.1,0.5-0.1,0.8v5.5h-1.7V175.2z"/>
		<path class="st19" d="M348.3,181.5c-0.4,0.2-1.4,0.5-2.6,0.5c-2.8,0-4.6-1.9-4.6-4.7c0-2.8,1.9-4.9,4.9-4.9c1,0,1.9,0.2,2.3,0.5
			l-0.4,1.3c-0.4-0.2-1-0.4-1.9-0.4c-2.1,0-3.2,1.6-3.2,3.5c0,2.1,1.4,3.4,3.2,3.4c0.9,0,1.6-0.2,2.1-0.5L348.3,181.5z"/>
		<path class="st19" d="M352.1,170.1c0,0.6-0.4,1-1.1,1c-0.6,0-1-0.5-1-1c0-0.6,0.4-1,1-1C351.7,169.1,352.1,169.5,352.1,170.1z
			 M350.2,181.9v-9.2h1.7v9.2H350.2z"/>
		<path class="st19" d="M363,177.2c0,3.4-2.4,4.9-4.6,4.9c-2.5,0-4.4-1.8-4.4-4.7c0-3.1,2-4.9,4.6-4.9
			C361.2,172.5,363,174.4,363,177.2z M355.7,177.3c0,2,1.2,3.5,2.8,3.5c1.6,0,2.8-1.5,2.8-3.6c0-1.6-0.8-3.5-2.8-3.5
			S355.7,175.6,355.7,177.3z M361,168.7l-2.3,2.7h-1.2l1.7-2.7H361z"/>
		<path class="st19" d="M365.1,175.2c0-1,0-1.7-0.1-2.5h1.5l0.1,1.5h0c0.5-0.9,1.5-1.7,3-1.7c1.3,0,3.2,0.8,3.2,3.9v5.5h-1.7v-5.3
			c0-1.5-0.6-2.7-2.1-2.7c-1.1,0-2,0.8-2.2,1.7c-0.1,0.2-0.1,0.5-0.1,0.8v5.5h-1.7V175.2z"/>
		<path class="st19" d="M387.6,168.4v11.1c0,0.8,0,1.7,0.1,2.4h-1.5l-0.1-1.6h0c-0.5,1-1.6,1.8-3.1,1.8c-2.2,0-3.9-1.9-3.9-4.7
			c0-3.1,1.9-4.9,4.1-4.9c1.4,0,2.4,0.7,2.8,1.4h0v-5.5H387.6z M386,176.4c0-0.2,0-0.5-0.1-0.7c-0.2-1.1-1.2-1.9-2.4-1.9
			c-1.7,0-2.8,1.5-2.8,3.6c0,1.9,0.9,3.4,2.7,3.4c1.1,0,2.1-0.7,2.5-2c0.1-0.2,0.1-0.5,0.1-0.7V176.4z"/>
		<path class="st19" d="M391.3,177.6c0,2.3,1.5,3.2,3.2,3.2c1.2,0,1.9-0.2,2.5-0.5l0.3,1.2c-0.6,0.3-1.6,0.6-3.1,0.6
			c-2.8,0-4.5-1.9-4.5-4.6s1.6-5,4.3-5c3,0,3.8,2.6,3.8,4.3c0,0.3,0,0.6-0.1,0.8H391.3z M396.2,176.4c0-1.1-0.4-2.7-2.3-2.7
			c-1.7,0-2.4,1.6-2.6,2.7H396.2z"/>
		<path class="st19" d="M403.9,168.4h1.7v13.5h-1.7V168.4z"/>
		<path class="st19" d="M416.7,177.2c0,3.4-2.4,4.9-4.6,4.9c-2.5,0-4.4-1.8-4.4-4.7c0-3.1,2-4.9,4.6-4.9
			C415,172.5,416.7,174.4,416.7,177.2z M409.5,177.3c0,2,1.2,3.5,2.8,3.5c1.6,0,2.8-1.5,2.8-3.6c0-1.6-0.8-3.5-2.8-3.5
			S409.5,175.6,409.5,177.3z"/>
		<path class="st19" d="M418.6,180.2c0.5,0.3,1.4,0.7,2.2,0.7c1.2,0,1.8-0.6,1.8-1.4c0-0.8-0.5-1.2-1.7-1.7
			c-1.7-0.6-2.4-1.5-2.4-2.6c0-1.5,1.2-2.7,3.2-2.7c0.9,0,1.7,0.3,2.3,0.6l-0.4,1.2c-0.4-0.2-1-0.5-1.9-0.5c-1,0-1.5,0.6-1.5,1.3
			c0,0.8,0.6,1.1,1.7,1.6c1.6,0.6,2.4,1.4,2.4,2.8c0,1.6-1.3,2.8-3.4,2.8c-1,0-1.9-0.2-2.6-0.6L418.6,180.2z"/>
		<path class="st19" d="M438.3,168.4v11.1c0,0.8,0,1.7,0.1,2.4h-1.5l-0.1-1.6h0c-0.5,1-1.6,1.8-3.1,1.8c-2.2,0-3.9-1.9-3.9-4.7
			c0-3.1,1.9-4.9,4.1-4.9c1.4,0,2.4,0.7,2.8,1.4h0v-5.5H438.3z M436.7,176.4c0-0.2,0-0.5-0.1-0.7c-0.2-1.1-1.2-1.9-2.4-1.9
			c-1.7,0-2.8,1.5-2.8,3.6c0,1.9,0.9,3.4,2.7,3.4c1.1,0,2.1-0.7,2.5-2c0.1-0.2,0.1-0.5,0.1-0.7V176.4z"/>
		<path class="st19" d="M446.2,181.9l-0.1-1.2H446c-0.5,0.7-1.5,1.4-2.8,1.4c-1.9,0-2.8-1.3-2.8-2.6c0-2.2,2-3.4,5.5-3.4v-0.2
			c0-0.8-0.2-2.1-2.1-2.1c-0.9,0-1.7,0.3-2.4,0.7l-0.4-1.1c0.8-0.5,1.9-0.8,3-0.8c2.8,0,3.5,1.9,3.5,3.8v3.4c0,0.8,0,1.6,0.2,2.2
			H446.2z M446,177.2c-1.8,0-3.9,0.3-3.9,2.1c0,1.1,0.7,1.6,1.6,1.6c1.2,0,2-0.8,2.2-1.5c0.1-0.2,0.1-0.4,0.1-0.5V177.2z"/>
		<path class="st19" d="M452.2,170v2.6h2.4v1.3h-2.4v5c0,1.1,0.3,1.8,1.3,1.8c0.4,0,0.8-0.1,1-0.1l0.1,1.3c-0.3,0.1-0.8,0.2-1.5,0.2
			c-0.8,0-1.4-0.2-1.8-0.7c-0.5-0.5-0.6-1.3-0.6-2.4v-5h-1.4v-1.3h1.4v-2.2L452.2,170z"/>
		<path class="st19" d="M464.7,177.2c0,3.4-2.4,4.9-4.6,4.9c-2.5,0-4.4-1.8-4.4-4.7c0-3.1,2-4.9,4.6-4.9
			C462.9,172.5,464.7,174.4,464.7,177.2z M457.4,177.3c0,2,1.2,3.5,2.8,3.5c1.6,0,2.8-1.5,2.8-3.6c0-1.6-0.8-3.5-2.8-3.5
			S457.4,175.6,457.4,177.3z"/>
		<path class="st19" d="M466.6,180.2c0.5,0.3,1.4,0.7,2.2,0.7c1.2,0,1.8-0.6,1.8-1.4c0-0.8-0.5-1.2-1.7-1.7
			c-1.7-0.6-2.4-1.5-2.4-2.6c0-1.5,1.2-2.7,3.2-2.7c0.9,0,1.7,0.3,2.3,0.6l-0.4,1.2c-0.4-0.2-1-0.5-1.9-0.5c-1,0-1.5,0.6-1.5,1.3
			c0,0.8,0.6,1.1,1.7,1.6c1.6,0.6,2.4,1.4,2.4,2.8c0,1.6-1.3,2.8-3.4,2.8c-1,0-1.9-0.2-2.6-0.6L466.6,180.2z"/>
		<path class="st19" d="M473.7,180.9c0-0.7,0.5-1.2,1.1-1.2s1.1,0.5,1.1,1.2c0,0.7-0.4,1.2-1.1,1.2
			C474.2,182.1,473.7,181.6,473.7,180.9z"/>
	</g>
</g>
</svg>
