<svg xmlns="http://www.w3.org/2000/svg" width="395.609" height="128.568" viewBox="0 0 395.609 128.568">
  <g id="Grupo_691" data-name="Grupo 691" transform="translate(-800 -657.568)">
    <path id="Trazado_990" data-name="Trazado 990" d="M-66.015-23.566h4.586V26.668h-4.586Z" transform="translate(1022.253 729.797)" fill="#42929a"/>
    <path id="Trazado_991" data-name="Trazado 991" d="M-113.988-41.7h26.643v4.4h-26.643Z" transform="translate(1022.253 729.797)" fill="#98cc44"/>
    <path id="Trazado_992" data-name="Trazado 992" d="M-216.66,4.11h90.984V49.227H-216.66Z" transform="translate(1022.253 729.797)" fill="#98cc44"/>
    <path id="Trazado_1082" data-name="Trazado 1082" d="M5.879-2.51l.947.239A3.189,3.189,0,0,1,5.754-.491,2.953,2.953,0,0,1,3.862.122,3.4,3.4,0,0,1,1.98-.349a2.942,2.942,0,0,1-1.1-1.365A4.869,4.869,0,0,1,.5-3.633,4.218,4.218,0,0,1,.925-5.583,2.927,2.927,0,0,1,2.141-6.848,3.552,3.552,0,0,1,3.877-7.28a2.935,2.935,0,0,1,1.807.547A2.84,2.84,0,0,1,6.7-5.2l-.933.22a2.212,2.212,0,0,0-.723-1.138A1.926,1.926,0,0,0,3.857-6.47a2.314,2.314,0,0,0-1.379.4A2.089,2.089,0,0,0,1.7-5.012a4.276,4.276,0,0,0-.225,1.375,4.368,4.368,0,0,0,.266,1.594,1.982,1.982,0,0,0,.828,1.018,2.321,2.321,0,0,0,1.216.337,2.037,2.037,0,0,0,1.348-.459A2.349,2.349,0,0,0,5.879-2.51ZM11.265-.64a3.273,3.273,0,0,1-.94.586,2.716,2.716,0,0,1-.969.171A1.885,1.885,0,0,1,8.042-.3a1.378,1.378,0,0,1-.459-1.067,1.419,1.419,0,0,1,.173-.7,1.435,1.435,0,0,1,.454-.505,2.135,2.135,0,0,1,.632-.288,6.28,6.28,0,0,1,.781-.132,8.033,8.033,0,0,0,1.567-.3q0-.181,0-.229a.97.97,0,0,0-.249-.757,1.471,1.471,0,0,0-1-.3,1.552,1.552,0,0,0-.916.217,1.328,1.328,0,0,0-.437.769l-.859-.117A2.129,2.129,0,0,1,8.12-4.6,1.691,1.691,0,0,1,8.9-5.12,3.463,3.463,0,0,1,10.073-5.3a3.115,3.115,0,0,1,1.079.156,1.422,1.422,0,0,1,.61.393,1.382,1.382,0,0,1,.273.6,4.949,4.949,0,0,1,.044.811v1.172a12.438,12.438,0,0,0,.056,1.55A1.956,1.956,0,0,0,12.358,0H11.44A1.864,1.864,0,0,1,11.265-.64ZM11.191-2.6a6.448,6.448,0,0,1-1.436.332,3.321,3.321,0,0,0-.767.176.764.764,0,0,0-.347.286.75.75,0,0,0-.122.417.749.749,0,0,0,.266.586,1.145,1.145,0,0,0,.779.234,1.813,1.813,0,0,0,.9-.222A1.368,1.368,0,0,0,11.05-1.4a2.123,2.123,0,0,0,.142-.879Zm2.251,4.59V-5.186h.8v.674a1.974,1.974,0,0,1,.64-.593,1.758,1.758,0,0,1,.864-.2,2.049,2.049,0,0,1,1.172.342A2.1,2.1,0,0,1,17.686-4a3.521,3.521,0,0,1,.259,1.365A3.466,3.466,0,0,1,17.659-1.2a2.153,2.153,0,0,1-.83.977,2.131,2.131,0,0,1-1.145.339A1.654,1.654,0,0,1,14.9-.068a1.8,1.8,0,0,1-.574-.469V1.987Zm.8-4.551a2.256,2.256,0,0,0,.405,1.479,1.243,1.243,0,0,0,.981.479,1.271,1.271,0,0,0,1-.5,2.351,2.351,0,0,0,.417-1.536,2.291,2.291,0,0,0-.408-1.484,1.227,1.227,0,0,0-.974-.493,1.266,1.266,0,0,0-.994.525A2.348,2.348,0,0,0,14.238-2.563ZM22.388-.64a3.273,3.273,0,0,1-.94.586,2.716,2.716,0,0,1-.969.171A1.885,1.885,0,0,1,19.165-.3a1.378,1.378,0,0,1-.459-1.067,1.419,1.419,0,0,1,.173-.7,1.435,1.435,0,0,1,.454-.505,2.135,2.135,0,0,1,.632-.288,6.28,6.28,0,0,1,.781-.132,8.033,8.033,0,0,0,1.567-.3q0-.181,0-.229a.97.97,0,0,0-.249-.757,1.471,1.471,0,0,0-1-.3,1.552,1.552,0,0,0-.916.217,1.328,1.328,0,0,0-.437.769l-.859-.117a2.129,2.129,0,0,1,.386-.891,1.691,1.691,0,0,1,.776-.522A3.463,3.463,0,0,1,21.2-5.3a3.115,3.115,0,0,1,1.079.156,1.422,1.422,0,0,1,.61.393,1.382,1.382,0,0,1,.273.6,4.949,4.949,0,0,1,.044.811v1.172a12.438,12.438,0,0,0,.056,1.55A1.956,1.956,0,0,0,23.481,0h-.918A1.863,1.863,0,0,1,22.388-.64ZM22.314-2.6a6.448,6.448,0,0,1-1.436.332,3.321,3.321,0,0,0-.767.176.764.764,0,0,0-.347.286.75.75,0,0,0-.122.417.749.749,0,0,0,.266.586,1.145,1.145,0,0,0,.779.234,1.813,1.813,0,0,0,.9-.222,1.368,1.368,0,0,0,.581-.608,2.123,2.123,0,0,0,.142-.879Zm5.635.7.864.112a2.241,2.241,0,0,1-.725,1.4,2.112,2.112,0,0,1-1.433.505,2.226,2.226,0,0,1-1.711-.7A2.823,2.823,0,0,1,24.3-2.573a3.61,3.61,0,0,1,.278-1.47,1.941,1.941,0,0,1,.847-.945A2.514,2.514,0,0,1,26.66-5.3a2.152,2.152,0,0,1,1.382.427,1.959,1.959,0,0,1,.688,1.213l-.854.132a1.419,1.419,0,0,0-.432-.786,1.118,1.118,0,0,0-.75-.264,1.364,1.364,0,0,0-1.079.476A2.26,2.26,0,0,0,25.2-2.6a2.336,2.336,0,0,0,.4,1.519,1.3,1.3,0,0,0,1.045.474,1.232,1.232,0,0,0,.864-.317A1.575,1.575,0,0,0,27.949-1.9ZM29.57-6.147V-7.158h.879v1.011ZM29.57,0V-5.186h.879V0Zm4.136-.786.127.776a3.26,3.26,0,0,1-.664.078,1.5,1.5,0,0,1-.742-.151.848.848,0,0,1-.371-.4,3.147,3.147,0,0,1-.107-1.038V-4.5H31.3v-.684h.645V-6.47L32.822-7v1.812h.884V-4.5h-.884V-1.47a1.532,1.532,0,0,0,.046.483.366.366,0,0,0,.151.171.585.585,0,0,0,.3.063A2.859,2.859,0,0,0,33.706-.786Zm4.243.146a3.273,3.273,0,0,1-.94.586,2.716,2.716,0,0,1-.969.171A1.885,1.885,0,0,1,34.727-.3a1.378,1.378,0,0,1-.459-1.067,1.419,1.419,0,0,1,.173-.7,1.435,1.435,0,0,1,.454-.505,2.135,2.135,0,0,1,.632-.288,6.28,6.28,0,0,1,.781-.132,8.033,8.033,0,0,0,1.567-.3q0-.181,0-.229a.97.97,0,0,0-.249-.757,1.471,1.471,0,0,0-1-.3,1.552,1.552,0,0,0-.916.217,1.328,1.328,0,0,0-.437.769l-.859-.117A2.129,2.129,0,0,1,34.8-4.6a1.691,1.691,0,0,1,.776-.522A3.463,3.463,0,0,1,36.758-5.3a3.115,3.115,0,0,1,1.079.156,1.422,1.422,0,0,1,.61.393,1.382,1.382,0,0,1,.273.6,4.949,4.949,0,0,1,.044.811v1.172a12.439,12.439,0,0,0,.056,1.55A1.956,1.956,0,0,0,39.043,0h-.918A1.864,1.864,0,0,1,37.949-.64ZM37.876-2.6a6.448,6.448,0,0,1-1.436.332,3.32,3.32,0,0,0-.767.176.764.764,0,0,0-.347.286.75.75,0,0,0-.122.417.749.749,0,0,0,.266.586,1.145,1.145,0,0,0,.779.234,1.813,1.813,0,0,0,.9-.222,1.368,1.368,0,0,0,.581-.608,2.123,2.123,0,0,0,.142-.879Zm5.635.7.864.112a2.241,2.241,0,0,1-.725,1.4,2.112,2.112,0,0,1-1.433.505,2.226,2.226,0,0,1-1.711-.7,2.823,2.823,0,0,1-.647-1.995,3.61,3.61,0,0,1,.278-1.47,1.941,1.941,0,0,1,.847-.945A2.514,2.514,0,0,1,42.222-5.3a2.152,2.152,0,0,1,1.382.427,1.959,1.959,0,0,1,.688,1.213l-.854.132a1.419,1.419,0,0,0-.432-.786,1.118,1.118,0,0,0-.75-.264,1.364,1.364,0,0,0-1.079.476A2.26,2.26,0,0,0,40.762-2.6a2.336,2.336,0,0,0,.4,1.519,1.3,1.3,0,0,0,1.045.474,1.232,1.232,0,0,0,.864-.317A1.575,1.575,0,0,0,43.511-1.9Zm1.621-4.248V-7.158h.879v1.011Zm0,6.147V-5.186h.879V0Zm1.89-2.593a2.673,2.673,0,0,1,.8-2.134A2.413,2.413,0,0,1,49.453-5.3a2.327,2.327,0,0,1,1.748.7,2.666,2.666,0,0,1,.679,1.936,3.43,3.43,0,0,1-.3,1.575,2.126,2.126,0,0,1-.874.891,2.545,2.545,0,0,1-1.252.317,2.331,2.331,0,0,1-1.76-.7A2.789,2.789,0,0,1,47.021-2.593Zm.9,0A2.209,2.209,0,0,0,48.359-1.1a1.393,1.393,0,0,0,1.094.5,1.385,1.385,0,0,0,1.089-.5,2.261,2.261,0,0,0,.435-1.519A2.142,2.142,0,0,0,50.54-4.08a1.39,1.39,0,0,0-1.086-.5,1.4,1.4,0,0,0-1.094.493A2.2,2.2,0,0,0,47.925-2.593Zm1.04-3.237L49.614-7.2h1.152L49.692-5.83ZM52.91,0V-5.186H53.7v.737a1.864,1.864,0,0,1,1.65-.854,2.165,2.165,0,0,1,.862.168,1.356,1.356,0,0,1,.588.442,1.7,1.7,0,0,1,.273.649,5.033,5.033,0,0,1,.049.854V0h-.879V-3.154a2.368,2.368,0,0,0-.1-.8.845.845,0,0,0-.364-.425,1.157,1.157,0,0,0-.613-.159,1.424,1.424,0,0,0-.969.356,1.758,1.758,0,0,0-.408,1.353V0ZM64.8-1.67l.908.112a2.216,2.216,0,0,1-.8,1.235,2.393,2.393,0,0,1-1.484.439,2.372,2.372,0,0,1-1.8-.7,2.738,2.738,0,0,1-.667-1.965,2.865,2.865,0,0,1,.674-2.031A2.281,2.281,0,0,1,63.379-5.3a2.217,2.217,0,0,1,1.7.708A2.813,2.813,0,0,1,65.737-2.6q0,.078,0,.234H61.865a1.993,1.993,0,0,0,.483,1.309,1.439,1.439,0,0,0,1.084.454,1.345,1.345,0,0,0,.825-.254A1.685,1.685,0,0,0,64.8-1.67ZM61.914-3.091h2.9a1.757,1.757,0,0,0-.332-.981,1.347,1.347,0,0,0-1.089-.508,1.4,1.4,0,0,0-1.018.405A1.6,1.6,0,0,0,61.914-3.091ZM66.812,0V-5.186H67.6v.737a1.864,1.864,0,0,1,1.65-.854,2.165,2.165,0,0,1,.862.168,1.356,1.356,0,0,1,.588.442,1.7,1.7,0,0,1,.273.649,5.032,5.032,0,0,1,.049.854V0h-.879V-3.154a2.368,2.368,0,0,0-.1-.8.845.845,0,0,0-.364-.425,1.157,1.157,0,0,0-.613-.159,1.424,1.424,0,0,0-.969.356,1.758,1.758,0,0,0-.408,1.353V0Z" transform="translate(815.539 752.963)" fill="#fff"/>
    <path id="Trazado_1083" data-name="Trazado 1083" d="M5.879-2.51l.947.239A3.189,3.189,0,0,1,5.754-.491,2.953,2.953,0,0,1,3.862.122,3.4,3.4,0,0,1,1.98-.349a2.942,2.942,0,0,1-1.1-1.365A4.869,4.869,0,0,1,.5-3.633,4.218,4.218,0,0,1,.925-5.583,2.927,2.927,0,0,1,2.141-6.848,3.552,3.552,0,0,1,3.877-7.28a2.935,2.935,0,0,1,1.807.547A2.84,2.84,0,0,1,6.7-5.2l-.933.22a2.212,2.212,0,0,0-.723-1.138A1.926,1.926,0,0,0,3.857-6.47a2.314,2.314,0,0,0-1.379.4A2.089,2.089,0,0,0,1.7-5.012a4.276,4.276,0,0,0-.225,1.375,4.368,4.368,0,0,0,.266,1.594,1.982,1.982,0,0,0,.828,1.018,2.321,2.321,0,0,0,1.216.337,2.037,2.037,0,0,0,1.348-.459A2.349,2.349,0,0,0,5.879-2.51Zm5.552.84.908.112a2.216,2.216,0,0,1-.8,1.235,2.393,2.393,0,0,1-1.484.439,2.372,2.372,0,0,1-1.8-.7,2.738,2.738,0,0,1-.667-1.965A2.865,2.865,0,0,1,8.262-4.58,2.281,2.281,0,0,1,10.01-5.3a2.217,2.217,0,0,1,1.7.708A2.813,2.813,0,0,1,12.368-2.6q0,.078,0,.234H8.5A1.993,1.993,0,0,0,8.979-1.06a1.439,1.439,0,0,0,1.084.454,1.345,1.345,0,0,0,.825-.254A1.685,1.685,0,0,0,11.431-1.67ZM8.545-3.091h2.9a1.757,1.757,0,0,0-.332-.981A1.347,1.347,0,0,0,10.02-4.58,1.4,1.4,0,0,0,9-4.175,1.6,1.6,0,0,0,8.545-3.091ZM13.433,0V-5.186h.791V-4.4a2.145,2.145,0,0,1,.559-.728.976.976,0,0,1,.564-.176,1.714,1.714,0,0,1,.9.283l-.3.815a1.258,1.258,0,0,0-.645-.19.837.837,0,0,0-.518.173.939.939,0,0,0-.327.481,3.423,3.423,0,0,0-.146,1.025V0Zm5.259-.786.127.776a3.26,3.26,0,0,1-.664.078,1.5,1.5,0,0,1-.742-.151.848.848,0,0,1-.371-.4,3.147,3.147,0,0,1-.107-1.038V-4.5h-.645v-.684h.645V-6.47L17.808-7v1.812h.884V-4.5h-.884V-1.47a1.532,1.532,0,0,0,.046.483.366.366,0,0,0,.151.171.585.585,0,0,0,.3.063A2.859,2.859,0,0,0,18.691-.786Zm.864-5.361V-7.158h.879v1.011Zm0,6.147V-5.186h.879V0Zm2.427,0V-4.5h-.776v-.684h.776v-.552a2.416,2.416,0,0,1,.093-.776,1.124,1.124,0,0,1,.447-.554,1.61,1.61,0,0,1,.9-.212,4.3,4.3,0,0,1,.82.088l-.132.767a2.949,2.949,0,0,0-.518-.049.77.77,0,0,0-.566.171.926.926,0,0,0-.166.64v.479h1.011V-4.5H22.856V0Zm2.573-6.147V-7.158h.879v1.011Zm0,6.147V-5.186h.879V0Zm5.6-1.9.864.112a2.241,2.241,0,0,1-.725,1.4,2.112,2.112,0,0,1-1.433.505,2.226,2.226,0,0,1-1.711-.7A2.823,2.823,0,0,1,26.5-2.573a3.61,3.61,0,0,1,.278-1.47,1.941,1.941,0,0,1,.847-.945A2.514,2.514,0,0,1,28.867-5.3a2.152,2.152,0,0,1,1.382.427,1.959,1.959,0,0,1,.688,1.213l-.854.132a1.419,1.419,0,0,0-.432-.786,1.118,1.118,0,0,0-.75-.264,1.364,1.364,0,0,0-1.079.476A2.26,2.26,0,0,0,27.407-2.6a2.336,2.336,0,0,0,.4,1.519,1.3,1.3,0,0,0,1.045.474,1.232,1.232,0,0,0,.864-.317A1.575,1.575,0,0,0,30.156-1.9Zm5,1.26a3.273,3.273,0,0,1-.94.586,2.716,2.716,0,0,1-.969.171A1.885,1.885,0,0,1,31.934-.3a1.378,1.378,0,0,1-.459-1.067,1.419,1.419,0,0,1,.173-.7,1.435,1.435,0,0,1,.454-.505,2.135,2.135,0,0,1,.632-.288,6.28,6.28,0,0,1,.781-.132,8.033,8.033,0,0,0,1.567-.3q0-.181,0-.229a.97.97,0,0,0-.249-.757,1.471,1.471,0,0,0-1-.3,1.552,1.552,0,0,0-.916.217,1.328,1.328,0,0,0-.437.769l-.859-.117a2.129,2.129,0,0,1,.386-.891,1.691,1.691,0,0,1,.776-.522A3.463,3.463,0,0,1,33.965-5.3a3.115,3.115,0,0,1,1.079.156,1.422,1.422,0,0,1,.61.393,1.382,1.382,0,0,1,.273.6,4.949,4.949,0,0,1,.044.811v1.172a12.439,12.439,0,0,0,.056,1.55A1.956,1.956,0,0,0,36.25,0h-.918A1.864,1.864,0,0,1,35.156-.64ZM35.083-2.6a6.448,6.448,0,0,1-1.436.332,3.32,3.32,0,0,0-.767.176.764.764,0,0,0-.347.286.75.75,0,0,0-.122.417.749.749,0,0,0,.266.586,1.145,1.145,0,0,0,.779.234,1.813,1.813,0,0,0,.9-.222,1.368,1.368,0,0,0,.581-.608,2.123,2.123,0,0,0,.142-.879Zm5.635.7.864.112a2.241,2.241,0,0,1-.725,1.4,2.112,2.112,0,0,1-1.433.505,2.226,2.226,0,0,1-1.711-.7,2.823,2.823,0,0,1-.647-1.995,3.61,3.61,0,0,1,.278-1.47,1.941,1.941,0,0,1,.847-.945A2.514,2.514,0,0,1,39.429-5.3a2.152,2.152,0,0,1,1.382.427A1.959,1.959,0,0,1,41.5-3.662l-.854.132a1.419,1.419,0,0,0-.432-.786,1.118,1.118,0,0,0-.75-.264,1.364,1.364,0,0,0-1.079.476A2.26,2.26,0,0,0,37.969-2.6a2.336,2.336,0,0,0,.4,1.519,1.3,1.3,0,0,0,1.045.474,1.232,1.232,0,0,0,.864-.317A1.575,1.575,0,0,0,40.718-1.9Zm1.621-4.248V-7.158h.879v1.011Zm0,6.147V-5.186h.879V0Zm1.89-2.593a2.673,2.673,0,0,1,.8-2.134A2.413,2.413,0,0,1,46.66-5.3a2.327,2.327,0,0,1,1.748.7,2.666,2.666,0,0,1,.679,1.936,3.43,3.43,0,0,1-.3,1.575,2.126,2.126,0,0,1-.874.891A2.545,2.545,0,0,1,46.66.117a2.331,2.331,0,0,1-1.76-.7A2.789,2.789,0,0,1,44.229-2.593Zm.9,0A2.209,2.209,0,0,0,45.566-1.1a1.393,1.393,0,0,0,1.094.5,1.385,1.385,0,0,0,1.089-.5,2.261,2.261,0,0,0,.435-1.519,2.142,2.142,0,0,0-.437-1.458,1.39,1.39,0,0,0-1.086-.5,1.4,1.4,0,0,0-1.094.493A2.2,2.2,0,0,0,45.132-2.593Zm1.04-3.237L46.821-7.2h1.152L46.9-5.83ZM50.117,0V-5.186h.791v.737a1.864,1.864,0,0,1,1.65-.854,2.165,2.165,0,0,1,.862.168,1.356,1.356,0,0,1,.588.442,1.7,1.7,0,0,1,.273.649,5.033,5.033,0,0,1,.049.854V0h-.879V-3.154a2.368,2.368,0,0,0-.1-.8.845.845,0,0,0-.364-.425,1.157,1.157,0,0,0-.613-.159,1.424,1.424,0,0,0-.969.356A1.758,1.758,0,0,0,51-2.832V0Z" transform="translate(824.175 767.682)" fill="#fff"/>
    <path id="Trazado_993" data-name="Trazado 993" d="M0,0H395.609V-128.568H0Z" transform="translate(800 786.136)" fill="none"/>
    <path id="Trazado_994" data-name="Trazado 994" d="M-130.261-23.566h4.585V26.668h-4.585Z" transform="translate(1022.253 729.797)" fill="#98cc44"/>
    <path id="Trazado_995" data-name="Trazado 995" d="M0,0A20.189,20.189,0,0,1-20.233,20.146,20.189,20.189,0,0,1-40.466,0,20.189,20.189,0,0,1-20.233-20.145,20.189,20.189,0,0,1,0,0" transform="translate(912.992 688.094)" fill="#98cc44"/>
    <path id="Trazado_996" data-name="Trazado 996" d="M0,0A15.472,15.472,0,0,1-15.506,15.438,15.472,15.472,0,0,1-31.011,0,15.472,15.472,0,0,1-15.506-15.438,15.472,15.472,0,0,1,0,0" transform="translate(908.265 688.094)" fill="#fff"/>
    <path id="Trazado_997" data-name="Trazado 997" d="M7.156-37.3h-56.9v-4.4h56.9Z" transform="translate(1022.253 729.797)" fill="#42929a"/>
    <path id="Trazado_998" data-name="Trazado 998" d="M-28.226,49.227h-90.984V4.11h90.984Z" transform="translate(1022.253 729.797)" fill="#42929a"/>
    <path id="Trazado_999" data-name="Trazado 999" d="M0,0A20.19,20.19,0,0,1-20.233,20.146,20.189,20.189,0,0,1-40.466,0,20.189,20.189,0,0,1-20.233-20.145,20.189,20.189,0,0,1,0,0" transform="translate(977.239 688.094)" fill="#42929a"/>
    <path id="Trazado_1000" data-name="Trazado 1000" d="M0,0A15.472,15.472,0,0,1-15.506,15.438,15.472,15.472,0,0,1-31.011,0,15.472,15.472,0,0,1-15.506-15.438,15.472,15.472,0,0,1,0,0" transform="translate(972.511 688.094)" fill="#fff"/>
    <path id="Trazado_1001" data-name="Trazado 1001" d="M0,0H395.609V-128.568H0Z" transform="translate(800 786.136)" fill="none"/>
    <path id="Trazado_1084" data-name="Trazado 1084" d="M.933,0V-7.158H1.88V0Zm2.5,0V-5.186h.791v.737A1.864,1.864,0,0,1,5.879-5.3a2.165,2.165,0,0,1,.862.168,1.356,1.356,0,0,1,.588.442,1.7,1.7,0,0,1,.273.649,5.033,5.033,0,0,1,.049.854V0H6.772V-3.154a2.368,2.368,0,0,0-.1-.8.845.845,0,0,0-.364-.425,1.157,1.157,0,0,0-.613-.159,1.424,1.424,0,0,0-.969.356,1.758,1.758,0,0,0-.408,1.353V0Zm5.21-1.548.869-.137a1.215,1.215,0,0,0,.408.8,1.421,1.421,0,0,0,.935.278,1.374,1.374,0,0,0,.9-.247.737.737,0,0,0,.293-.579.534.534,0,0,0-.259-.469,3.812,3.812,0,0,0-.9-.3,8.2,8.2,0,0,1-1.34-.422,1.3,1.3,0,0,1-.566-.493,1.306,1.306,0,0,1-.193-.7,1.336,1.336,0,0,1,.159-.642,1.423,1.423,0,0,1,.432-.491A1.812,1.812,0,0,1,9.944-5.2a2.659,2.659,0,0,1,.759-.1,3,3,0,0,1,1.072.176,1.458,1.458,0,0,1,.681.476,1.86,1.86,0,0,1,.3.8L11.9-3.73a.94.94,0,0,0-.339-.625,1.241,1.241,0,0,0-.793-.225,1.437,1.437,0,0,0-.864.2.583.583,0,0,0-.259.469.485.485,0,0,0,.107.308.775.775,0,0,0,.337.234q.132.049.776.225a10.808,10.808,0,0,1,1.3.408,1.32,1.32,0,0,1,.579.461,1.288,1.288,0,0,1,.21.752A1.476,1.476,0,0,1,12.7-.7a1.657,1.657,0,0,1-.74.6,2.693,2.693,0,0,1-1.094.212A2.437,2.437,0,0,1,9.324-.3,1.953,1.953,0,0,1,8.647-1.548ZM17.383-1.9l.864.112a2.241,2.241,0,0,1-.725,1.4,2.112,2.112,0,0,1-1.433.505,2.226,2.226,0,0,1-1.711-.7,2.823,2.823,0,0,1-.647-1.995,3.61,3.61,0,0,1,.278-1.47,1.941,1.941,0,0,1,.847-.945A2.514,2.514,0,0,1,16.094-5.3a2.152,2.152,0,0,1,1.382.427,1.959,1.959,0,0,1,.688,1.213l-.854.132a1.419,1.419,0,0,0-.432-.786,1.118,1.118,0,0,0-.75-.264,1.364,1.364,0,0,0-1.079.476A2.26,2.26,0,0,0,14.634-2.6a2.336,2.336,0,0,0,.4,1.519,1.3,1.3,0,0,0,1.045.474,1.232,1.232,0,0,0,.864-.317A1.575,1.575,0,0,0,17.383-1.9ZM18.989,0V-5.186h.791V-4.4a2.145,2.145,0,0,1,.559-.728A.976.976,0,0,1,20.9-5.3a1.714,1.714,0,0,1,.9.283l-.3.815a1.258,1.258,0,0,0-.645-.19.837.837,0,0,0-.518.173.939.939,0,0,0-.327.481,3.423,3.423,0,0,0-.146,1.025V0Zm3.345-6.147V-7.158h.879v1.011Zm0,6.147V-5.186h.879V0Zm2.217,1.987V-5.186h.8v.674a1.974,1.974,0,0,1,.64-.593,1.758,1.758,0,0,1,.864-.2,2.049,2.049,0,0,1,1.172.342A2.1,2.1,0,0,1,28.794-4a3.521,3.521,0,0,1,.259,1.365A3.466,3.466,0,0,1,28.767-1.2a2.153,2.153,0,0,1-.83.977,2.131,2.131,0,0,1-1.145.339A1.654,1.654,0,0,1,26-.068a1.8,1.8,0,0,1-.574-.469V1.987Zm.8-4.551a2.256,2.256,0,0,0,.405,1.479,1.243,1.243,0,0,0,.981.479,1.271,1.271,0,0,0,1-.5,2.351,2.351,0,0,0,.417-1.536,2.291,2.291,0,0,0-.408-1.484,1.227,1.227,0,0,0-.974-.493,1.266,1.266,0,0,0-.994.525A2.348,2.348,0,0,0,25.347-2.563ZM33.5-1.9l.864.112a2.241,2.241,0,0,1-.725,1.4A2.112,2.112,0,0,1,32.2.117a2.226,2.226,0,0,1-1.711-.7,2.823,2.823,0,0,1-.647-1.995,3.61,3.61,0,0,1,.278-1.47,1.941,1.941,0,0,1,.847-.945A2.514,2.514,0,0,1,32.207-5.3a2.152,2.152,0,0,1,1.382.427,1.959,1.959,0,0,1,.688,1.213l-.854.132a1.419,1.419,0,0,0-.432-.786,1.118,1.118,0,0,0-.75-.264,1.364,1.364,0,0,0-1.079.476A2.26,2.26,0,0,0,30.747-2.6a2.336,2.336,0,0,0,.4,1.519,1.3,1.3,0,0,0,1.045.474,1.232,1.232,0,0,0,.864-.317A1.575,1.575,0,0,0,33.5-1.9Zm1.621-4.248V-7.158H36v1.011Zm0,6.147V-5.186H36V0Zm1.89-2.593a2.673,2.673,0,0,1,.8-2.134A2.413,2.413,0,0,1,39.438-5.3a2.327,2.327,0,0,1,1.748.7,2.666,2.666,0,0,1,.679,1.936,3.43,3.43,0,0,1-.3,1.575,2.126,2.126,0,0,1-.874.891,2.545,2.545,0,0,1-1.252.317,2.331,2.331,0,0,1-1.76-.7A2.789,2.789,0,0,1,37.007-2.593Zm.9,0A2.209,2.209,0,0,0,38.345-1.1a1.393,1.393,0,0,0,1.094.5,1.385,1.385,0,0,0,1.089-.5,2.261,2.261,0,0,0,.435-1.519,2.142,2.142,0,0,0-.437-1.458,1.39,1.39,0,0,0-1.086-.5,1.4,1.4,0,0,0-1.094.493A2.2,2.2,0,0,0,37.91-2.593ZM38.95-5.83,39.6-7.2h1.152L39.678-5.83ZM42.9,0V-5.186h.791v.737a1.864,1.864,0,0,1,1.65-.854,2.165,2.165,0,0,1,.862.168,1.356,1.356,0,0,1,.588.442,1.7,1.7,0,0,1,.273.649,5.033,5.033,0,0,1,.049.854V0H46.23V-3.154a2.368,2.368,0,0,0-.1-.8.845.845,0,0,0-.364-.425,1.157,1.157,0,0,0-.613-.159,1.424,1.424,0,0,0-.969.356,1.758,1.758,0,0,0-.408,1.353V0Zm11.89-1.67.908.112a2.216,2.216,0,0,1-.8,1.235,2.393,2.393,0,0,1-1.484.439,2.372,2.372,0,0,1-1.8-.7,2.738,2.738,0,0,1-.667-1.965,2.865,2.865,0,0,1,.674-2.031A2.281,2.281,0,0,1,53.364-5.3a2.217,2.217,0,0,1,1.7.708A2.813,2.813,0,0,1,55.723-2.6q0,.078,0,.234H51.851a1.993,1.993,0,0,0,.483,1.309,1.439,1.439,0,0,0,1.084.454,1.345,1.345,0,0,0,.825-.254A1.685,1.685,0,0,0,54.785-1.67ZM51.9-3.091h2.9a1.757,1.757,0,0,0-.332-.981,1.347,1.347,0,0,0-1.089-.508,1.4,1.4,0,0,0-1.018.405A1.6,1.6,0,0,0,51.9-3.091ZM56.8,0V-5.186h.791v.737a1.864,1.864,0,0,1,1.65-.854,2.165,2.165,0,0,1,.862.168,1.356,1.356,0,0,1,.588.442,1.7,1.7,0,0,1,.273.649,5.033,5.033,0,0,1,.049.854V0h-.879V-3.154a2.368,2.368,0,0,0-.1-.8.845.845,0,0,0-.364-.425,1.157,1.157,0,0,0-.613-.159,1.424,1.424,0,0,0-.969.356,1.758,1.758,0,0,0-.408,1.353V0Zm8.34,0V-5.186h.786v.728a1.848,1.848,0,0,1,.649-.613A1.825,1.825,0,0,1,67.5-5.3a1.706,1.706,0,0,1,.945.239,1.281,1.281,0,0,1,.52.669,1.862,1.862,0,0,1,1.6-.908,1.579,1.579,0,0,1,1.187.427,1.826,1.826,0,0,1,.415,1.316V0h-.874V-3.267a2.4,2.4,0,0,0-.085-.759.735.735,0,0,0-.31-.374.968.968,0,0,0-.527-.142,1.227,1.227,0,0,0-.908.364A1.6,1.6,0,0,0,69.1-3.013V0h-.879V-3.369A1.482,1.482,0,0,0,68-4.248a.814.814,0,0,0-.7-.293,1.277,1.277,0,0,0-.686.2,1.108,1.108,0,0,0-.457.571,3.216,3.216,0,0,0-.142,1.084V0Zm8.335-6.147V-7.158h.879v1.011Zm0,6.147V-5.186h.879V0Z" transform="translate(910.783 752.963)" fill="#fff"/>
    <path id="Trazado_1085" data-name="Trazado 1085" d="M.449-2.3l.894-.078a1.973,1.973,0,0,0,.3.881,1.613,1.613,0,0,0,.72.557,2.727,2.727,0,0,0,1.1.212,2.633,2.633,0,0,0,.957-.161,1.328,1.328,0,0,0,.618-.442,1.025,1.025,0,0,0,.2-.613.932.932,0,0,0-.2-.588,1.447,1.447,0,0,0-.645-.422A12.6,12.6,0,0,0,3.12-3.3,6.512,6.512,0,0,1,1.738-3.75a1.938,1.938,0,0,1-.764-.667,1.633,1.633,0,0,1-.251-.891A1.819,1.819,0,0,1,1.03-6.321a1.9,1.9,0,0,1,.9-.715A3.408,3.408,0,0,1,3.242-7.28a3.588,3.588,0,0,1,1.4.256,2.025,2.025,0,0,1,.935.754,2.167,2.167,0,0,1,.352,1.128l-.908.068a1.465,1.465,0,0,0-.5-1.025,1.929,1.929,0,0,0-1.248-.347,2,2,0,0,0-1.252.315.945.945,0,0,0-.393.759.814.814,0,0,0,.278.635,3.771,3.771,0,0,0,1.428.51,9.447,9.447,0,0,1,1.584.457,2.17,2.17,0,0,1,.923.73,1.778,1.778,0,0,1,.3,1.018A1.947,1.947,0,0,1,5.82-.945a2.154,2.154,0,0,1-.94.786A3.275,3.275,0,0,1,3.5.122,4.119,4.119,0,0,1,1.873-.161a2.281,2.281,0,0,1-1.03-.852A2.416,2.416,0,0,1,.449-2.3Zm10.43.63.908.112a2.216,2.216,0,0,1-.8,1.235A2.393,2.393,0,0,1,9.507.117a2.372,2.372,0,0,1-1.8-.7,2.738,2.738,0,0,1-.667-1.965A2.865,2.865,0,0,1,7.71-4.58,2.281,2.281,0,0,1,9.458-5.3a2.217,2.217,0,0,1,1.7.708A2.813,2.813,0,0,1,11.816-2.6q0,.078,0,.234H7.944A1.993,1.993,0,0,0,8.428-1.06a1.439,1.439,0,0,0,1.084.454,1.345,1.345,0,0,0,.825-.254A1.685,1.685,0,0,0,10.879-1.67ZM7.993-3.091h2.9a1.757,1.757,0,0,0-.332-.981A1.347,1.347,0,0,0,9.468-4.58a1.4,1.4,0,0,0-1.018.405A1.6,1.6,0,0,0,7.993-3.091ZM12.729.43l.854.127a.814.814,0,0,0,.3.576,1.463,1.463,0,0,0,.894.244,1.569,1.569,0,0,0,.942-.244,1.2,1.2,0,0,0,.449-.684A5.614,5.614,0,0,0,16.23-.679,1.808,1.808,0,0,1,14.795,0,1.957,1.957,0,0,1,13.14-.771a2.971,2.971,0,0,1-.586-1.851,3.444,3.444,0,0,1,.269-1.37,2.149,2.149,0,0,1,.779-.969A2.1,2.1,0,0,1,14.8-5.3a1.859,1.859,0,0,1,1.514.742v-.625h.811V-.7a4.251,4.251,0,0,1-.247,1.716,1.8,1.8,0,0,1-.781.8A2.708,2.708,0,0,1,14.78,2.1a2.481,2.481,0,0,1-1.5-.417A1.412,1.412,0,0,1,12.729.43Zm.728-3.115A2.25,2.25,0,0,0,13.862-1.2a1.287,1.287,0,0,0,1.016.469,1.3,1.3,0,0,0,1.016-.466,2.176,2.176,0,0,0,.41-1.462,2.126,2.126,0,0,0-.422-1.436,1.306,1.306,0,0,0-1.018-.483,1.269,1.269,0,0,0-1,.476A2.114,2.114,0,0,0,13.457-2.686ZM21.851,0V-.762a1.9,1.9,0,0,1-1.646.879,2.1,2.1,0,0,1-.857-.176A1.411,1.411,0,0,1,18.757-.5a1.656,1.656,0,0,1-.271-.652,4.463,4.463,0,0,1-.054-.82V-5.186h.879V-2.31a5.125,5.125,0,0,0,.054.928.917.917,0,0,0,.352.544,1.089,1.089,0,0,0,.664.2,1.447,1.447,0,0,0,.742-.2,1.127,1.127,0,0,0,.491-.552,2.769,2.769,0,0,0,.144-1.013V-5.186h.879V0ZM24,0V-5.186h.791V-4.4a2.145,2.145,0,0,1,.559-.728.976.976,0,0,1,.564-.176,1.714,1.714,0,0,1,.9.283l-.3.815a1.258,1.258,0,0,0-.645-.19.837.837,0,0,0-.518.173.939.939,0,0,0-.327.481,3.423,3.423,0,0,0-.146,1.025V0Zm3.345-6.147V-7.158h.879v1.011Zm0,6.147V-5.186h.879V0ZM32.93,0V-.654a1.613,1.613,0,0,1-1.45.771,2.034,2.034,0,0,1-1.14-.342,2.248,2.248,0,0,1-.806-.955,3.3,3.3,0,0,1-.286-1.409A3.687,3.687,0,0,1,29.507-4a2.041,2.041,0,0,1,.776-.969A2.076,2.076,0,0,1,31.44-5.3a1.729,1.729,0,0,1,.835.2,1.746,1.746,0,0,1,.6.515V-7.158h.874V0ZM30.151-2.588a2.252,2.252,0,0,0,.42,1.489,1.266,1.266,0,0,0,.991.493,1.243,1.243,0,0,0,.979-.471,2.172,2.172,0,0,0,.4-1.438,2.439,2.439,0,0,0-.41-1.562,1.262,1.262,0,0,0-1.011-.5,1.218,1.218,0,0,0-.979.479A2.362,2.362,0,0,0,30.151-2.588ZM38.511-.64a3.273,3.273,0,0,1-.94.586A2.716,2.716,0,0,1,36.6.117,1.885,1.885,0,0,1,35.288-.3a1.378,1.378,0,0,1-.459-1.067,1.419,1.419,0,0,1,.173-.7,1.435,1.435,0,0,1,.454-.505,2.135,2.135,0,0,1,.632-.288,6.28,6.28,0,0,1,.781-.132,8.033,8.033,0,0,0,1.567-.3q0-.181,0-.229a.97.97,0,0,0-.249-.757,1.471,1.471,0,0,0-1-.3,1.552,1.552,0,0,0-.916.217,1.328,1.328,0,0,0-.437.769l-.859-.117a2.129,2.129,0,0,1,.386-.891,1.691,1.691,0,0,1,.776-.522A3.463,3.463,0,0,1,37.319-5.3a3.115,3.115,0,0,1,1.079.156,1.422,1.422,0,0,1,.61.393,1.382,1.382,0,0,1,.273.6,4.949,4.949,0,0,1,.044.811v1.172a12.439,12.439,0,0,0,.056,1.55A1.956,1.956,0,0,0,39.6,0h-.918A1.864,1.864,0,0,1,38.511-.64ZM38.438-2.6A6.448,6.448,0,0,1,37-2.271a3.32,3.32,0,0,0-.767.176.764.764,0,0,0-.347.286.75.75,0,0,0-.122.417.749.749,0,0,0,.266.586,1.145,1.145,0,0,0,.779.234,1.813,1.813,0,0,0,.9-.222A1.368,1.368,0,0,0,38.3-1.4a2.123,2.123,0,0,0,.142-.879ZM44.053,0V-.654A1.613,1.613,0,0,1,42.6.117a2.034,2.034,0,0,1-1.14-.342,2.248,2.248,0,0,1-.806-.955,3.3,3.3,0,0,1-.286-1.409A3.687,3.687,0,0,1,40.63-4a2.041,2.041,0,0,1,.776-.969A2.076,2.076,0,0,1,42.563-5.3a1.729,1.729,0,0,1,.835.2,1.746,1.746,0,0,1,.6.515V-7.158h.874V0ZM41.274-2.588a2.252,2.252,0,0,0,.42,1.489,1.266,1.266,0,0,0,.991.493,1.243,1.243,0,0,0,.979-.471,2.172,2.172,0,0,0,.4-1.438,2.439,2.439,0,0,0-.41-1.562,1.262,1.262,0,0,0-1.011-.5,1.218,1.218,0,0,0-.979.479A2.362,2.362,0,0,0,41.274-2.588Zm7.544.288.894-.078a1.973,1.973,0,0,0,.3.881,1.613,1.613,0,0,0,.72.557,2.727,2.727,0,0,0,1.1.212,2.633,2.633,0,0,0,.957-.161,1.328,1.328,0,0,0,.618-.442,1.025,1.025,0,0,0,.2-.613.932.932,0,0,0-.2-.588,1.447,1.447,0,0,0-.645-.422A12.6,12.6,0,0,0,51.489-3.3a6.512,6.512,0,0,1-1.382-.447,1.938,1.938,0,0,1-.764-.667,1.633,1.633,0,0,1-.251-.891A1.819,1.819,0,0,1,49.4-6.321a1.9,1.9,0,0,1,.9-.715,3.408,3.408,0,0,1,1.313-.244,3.588,3.588,0,0,1,1.4.256,2.025,2.025,0,0,1,.935.754A2.167,2.167,0,0,1,54.3-5.142l-.908.068A1.465,1.465,0,0,0,52.9-6.1a1.929,1.929,0,0,0-1.248-.347A2,2,0,0,0,50.4-6.13.945.945,0,0,0,50-5.371a.814.814,0,0,0,.278.635,3.771,3.771,0,0,0,1.428.51A9.447,9.447,0,0,1,53.3-3.77a2.17,2.17,0,0,1,.923.73,1.778,1.778,0,0,1,.3,1.018,1.947,1.947,0,0,1-.327,1.077,2.154,2.154,0,0,1-.94.786A3.275,3.275,0,0,1,51.87.122a4.119,4.119,0,0,1-1.628-.283,2.281,2.281,0,0,1-1.03-.852A2.416,2.416,0,0,1,48.818-2.3Zm6.553-.293a2.673,2.673,0,0,1,.8-2.134A2.413,2.413,0,0,1,57.8-5.3a2.327,2.327,0,0,1,1.748.7,2.666,2.666,0,0,1,.679,1.936,3.43,3.43,0,0,1-.3,1.575,2.126,2.126,0,0,1-.874.891A2.545,2.545,0,0,1,57.8.117a2.331,2.331,0,0,1-1.76-.7A2.789,2.789,0,0,1,55.371-2.593Zm.9,0A2.209,2.209,0,0,0,56.709-1.1a1.393,1.393,0,0,0,1.094.5,1.385,1.385,0,0,0,1.089-.5,2.261,2.261,0,0,0,.435-1.519,2.142,2.142,0,0,0-.437-1.458,1.39,1.39,0,0,0-1.086-.5,1.4,1.4,0,0,0-1.094.493A2.2,2.2,0,0,0,56.274-2.593Zm8.369.693.864.112a2.241,2.241,0,0,1-.725,1.4A2.112,2.112,0,0,1,63.35.117a2.226,2.226,0,0,1-1.711-.7,2.823,2.823,0,0,1-.647-1.995,3.61,3.61,0,0,1,.278-1.47,1.941,1.941,0,0,1,.847-.945A2.514,2.514,0,0,1,63.354-5.3a2.152,2.152,0,0,1,1.382.427,1.959,1.959,0,0,1,.688,1.213l-.854.132a1.419,1.419,0,0,0-.432-.786,1.118,1.118,0,0,0-.75-.264A1.364,1.364,0,0,0,62.31-4.1,2.26,2.26,0,0,0,61.895-2.6a2.336,2.336,0,0,0,.4,1.519,1.3,1.3,0,0,0,1.045.474A1.232,1.232,0,0,0,64.2-.923,1.575,1.575,0,0,0,64.644-1.9Zm1.621-4.248V-7.158h.879v1.011Zm0,6.147V-5.186h.879V0Zm5.6-.64a3.273,3.273,0,0,1-.94.586,2.716,2.716,0,0,1-.969.171A1.885,1.885,0,0,1,68.643-.3a1.378,1.378,0,0,1-.459-1.067,1.419,1.419,0,0,1,.173-.7,1.435,1.435,0,0,1,.454-.505,2.135,2.135,0,0,1,.632-.288,6.28,6.28,0,0,1,.781-.132,8.033,8.033,0,0,0,1.567-.3q0-.181,0-.229a.97.97,0,0,0-.249-.757,1.471,1.471,0,0,0-1-.3,1.552,1.552,0,0,0-.916.217,1.328,1.328,0,0,0-.437.769l-.859-.117a2.129,2.129,0,0,1,.386-.891A1.691,1.691,0,0,1,69.5-5.12,3.463,3.463,0,0,1,70.674-5.3a3.115,3.115,0,0,1,1.079.156,1.422,1.422,0,0,1,.61.393,1.382,1.382,0,0,1,.273.6,4.949,4.949,0,0,1,.044.811v1.172a12.438,12.438,0,0,0,.056,1.55A1.956,1.956,0,0,0,72.959,0h-.918A1.863,1.863,0,0,1,71.865-.64ZM71.792-2.6a6.448,6.448,0,0,1-1.436.332,3.321,3.321,0,0,0-.767.176.764.764,0,0,0-.347.286.75.75,0,0,0-.122.417.749.749,0,0,0,.266.586,1.145,1.145,0,0,0,.779.234,1.813,1.813,0,0,0,.9-.222A1.368,1.368,0,0,0,71.65-1.4a2.123,2.123,0,0,0,.142-.879ZM74.023,0V-7.158H74.9V0Z" transform="translate(911.916 767.682)" fill="#fff"/>
    <path id="Trazado_1002" data-name="Trazado 1002" d="M0,0H395.609V-128.568H0Z" transform="translate(800 786.136)" fill="none"/>
    <path id="Trazado_1003" data-name="Trazado 1003" d="M126.205-23.566h4.585V26.668h-4.585Z" transform="translate(1022.253 729.797)" fill="#42929a"/>
    <path id="Trazado_1004" data-name="Trazado 1004" d="M73.01,4.11h90.984V49.227H73.01Z" transform="translate(1022.253 729.797)" fill="#42929a"/>
    <path id="Trazado_1005" data-name="Trazado 1005" d="M0,0A20.19,20.19,0,0,1-20.233,20.146,20.189,20.189,0,0,1-40.466,0,20.189,20.189,0,0,1-20.233-20.145,20.189,20.189,0,0,1,0,0" transform="translate(1169.458 688.094)" fill="#42929a"/>
    <path id="Trazado_1006" data-name="Trazado 1006" d="M0,0A15.472,15.472,0,0,1-15.506,15.438,15.472,15.472,0,0,1-31.01,0a15.471,15.471,0,0,1,15.5-15.438A15.472,15.472,0,0,1,0,0" transform="translate(1164.73 688.094)" fill="#fff"/>
    <path id="Trazado_1007" data-name="Trazado 1007" d="M30.1-23.566H34.68V26.668H30.1Z" transform="translate(1022.253 729.797)" fill="#98cc44"/>
    <path id="Trazado_1008" data-name="Trazado 1008" d="M103.222-37.3H46.368v-4.4h56.854Z" transform="translate(1022.253 729.797)" fill="#98cc44"/>
    <path id="Trazado_1009" data-name="Trazado 1009" d="M67.884,49.227H-23.1V4.11H67.884Z" transform="translate(1022.253 729.797)" fill="#98cc44"/>
    <path id="Trazado_1010" data-name="Trazado 1010" d="M0,0A20.19,20.19,0,0,1-20.233,20.146,20.189,20.189,0,0,1-40.466,0,20.189,20.189,0,0,1-20.233-20.145,20.189,20.189,0,0,1,0,0" transform="translate(1073.349 688.094)" fill="#98cc44"/>
    <path id="Trazado_1011" data-name="Trazado 1011" d="M0,0A15.472,15.472,0,0,1-15.506,15.438,15.472,15.472,0,0,1-31.01,0a15.471,15.471,0,0,1,15.5-15.438A15.472,15.472,0,0,1,0,0" transform="translate(1068.621 688.094)" fill="#fff"/>
    <path id="Trazado_1012" data-name="Trazado 1012" d="M0,0H395.609V-128.568H0Z" transform="translate(800 786.136)" fill="none"/>
    <path id="Trazado_1086" data-name="Trazado 1086" d="M2.817,0,.044-7.158H1.069l1.86,5.2q.225.625.376,1.172.166-.586.386-1.172l1.934-5.2h.967L3.789,0ZM7.153-6.147V-7.158h.879v1.011ZM7.153,0V-5.186h.879V0ZM9.37,0V-5.186h.791v.737a1.864,1.864,0,0,1,1.65-.854,2.165,2.165,0,0,1,.862.168,1.356,1.356,0,0,1,.588.442,1.7,1.7,0,0,1,.273.649,5.033,5.033,0,0,1,.049.854V0h-.879V-3.154a2.368,2.368,0,0,0-.1-.8.845.845,0,0,0-.364-.425,1.157,1.157,0,0,0-.613-.159,1.424,1.424,0,0,0-.969.356,1.758,1.758,0,0,0-.408,1.353V0Zm8.945-1.9.864.112a2.241,2.241,0,0,1-.725,1.4,2.112,2.112,0,0,1-1.433.505,2.226,2.226,0,0,1-1.711-.7,2.823,2.823,0,0,1-.647-1.995,3.61,3.61,0,0,1,.278-1.47,1.941,1.941,0,0,1,.847-.945A2.514,2.514,0,0,1,17.026-5.3a2.152,2.152,0,0,1,1.382.427A1.959,1.959,0,0,1,19.1-3.662l-.854.132a1.419,1.419,0,0,0-.432-.786,1.118,1.118,0,0,0-.75-.264,1.364,1.364,0,0,0-1.079.476A2.26,2.26,0,0,0,15.566-2.6a2.336,2.336,0,0,0,.4,1.519,1.3,1.3,0,0,0,1.045.474,1.232,1.232,0,0,0,.864-.317A1.575,1.575,0,0,0,18.315-1.9ZM23.33,0V-.762a1.9,1.9,0,0,1-1.646.879,2.1,2.1,0,0,1-.857-.176A1.411,1.411,0,0,1,20.237-.5a1.656,1.656,0,0,1-.271-.652,4.463,4.463,0,0,1-.054-.82V-5.186h.879V-2.31a5.125,5.125,0,0,0,.054.928.917.917,0,0,0,.352.544,1.089,1.089,0,0,0,.664.2,1.447,1.447,0,0,0,.742-.2,1.127,1.127,0,0,0,.491-.552,2.769,2.769,0,0,0,.144-1.013V-5.186h.879V0Zm2.144,0V-7.158h.879V0ZM31.1-.64a3.273,3.273,0,0,1-.94.586,2.716,2.716,0,0,1-.969.171A1.885,1.885,0,0,1,27.876-.3a1.378,1.378,0,0,1-.459-1.067,1.419,1.419,0,0,1,.173-.7,1.435,1.435,0,0,1,.454-.505,2.135,2.135,0,0,1,.632-.288,6.28,6.28,0,0,1,.781-.132,8.033,8.033,0,0,0,1.567-.3q0-.181,0-.229a.97.97,0,0,0-.249-.757,1.471,1.471,0,0,0-1-.3,1.552,1.552,0,0,0-.916.217,1.328,1.328,0,0,0-.437.769l-.859-.117a2.129,2.129,0,0,1,.386-.891,1.691,1.691,0,0,1,.776-.522A3.463,3.463,0,0,1,29.907-5.3a3.115,3.115,0,0,1,1.079.156,1.422,1.422,0,0,1,.61.393,1.382,1.382,0,0,1,.273.6,4.949,4.949,0,0,1,.044.811v1.172a12.438,12.438,0,0,0,.056,1.55A1.956,1.956,0,0,0,32.192,0h-.918A1.863,1.863,0,0,1,31.1-.64ZM31.025-2.6a6.448,6.448,0,0,1-1.436.332,3.321,3.321,0,0,0-.767.176.764.764,0,0,0-.347.286.75.75,0,0,0-.122.417.749.749,0,0,0,.266.586,1.145,1.145,0,0,0,.779.234,1.813,1.813,0,0,0,.9-.222,1.368,1.368,0,0,0,.581-.608,2.123,2.123,0,0,0,.142-.879Zm5.635.7.864.112a2.241,2.241,0,0,1-.725,1.4,2.112,2.112,0,0,1-1.433.505,2.226,2.226,0,0,1-1.711-.7,2.823,2.823,0,0,1-.647-1.995,3.61,3.61,0,0,1,.278-1.47,1.941,1.941,0,0,1,.847-.945A2.514,2.514,0,0,1,35.371-5.3a2.152,2.152,0,0,1,1.382.427,1.959,1.959,0,0,1,.688,1.213l-.854.132a1.419,1.419,0,0,0-.432-.786,1.118,1.118,0,0,0-.75-.264,1.364,1.364,0,0,0-1.079.476A2.26,2.26,0,0,0,33.911-2.6a2.336,2.336,0,0,0,.4,1.519,1.3,1.3,0,0,0,1.045.474,1.232,1.232,0,0,0,.864-.317A1.575,1.575,0,0,0,36.66-1.9Zm1.621-4.248V-7.158h.879v1.011Zm0,6.147V-5.186h.879V0Zm1.89-2.593a2.673,2.673,0,0,1,.8-2.134A2.413,2.413,0,0,1,42.6-5.3a2.327,2.327,0,0,1,1.748.7,2.666,2.666,0,0,1,.679,1.936,3.43,3.43,0,0,1-.3,1.575,2.126,2.126,0,0,1-.874.891A2.545,2.545,0,0,1,42.6.117a2.331,2.331,0,0,1-1.76-.7A2.789,2.789,0,0,1,40.171-2.593Zm.9,0A2.209,2.209,0,0,0,41.509-1.1a1.393,1.393,0,0,0,1.094.5,1.385,1.385,0,0,0,1.089-.5,2.261,2.261,0,0,0,.435-1.519,2.142,2.142,0,0,0-.437-1.458,1.39,1.39,0,0,0-1.086-.5,1.4,1.4,0,0,0-1.094.493A2.2,2.2,0,0,0,41.074-2.593Zm1.04-3.237L42.764-7.2h1.152L42.842-5.83ZM46.06,0V-5.186h.791v.737A1.864,1.864,0,0,1,48.5-5.3a2.165,2.165,0,0,1,.862.168,1.356,1.356,0,0,1,.588.442,1.7,1.7,0,0,1,.273.649,5.033,5.033,0,0,1,.049.854V0h-.879V-3.154a2.368,2.368,0,0,0-.1-.8.845.845,0,0,0-.364-.425,1.157,1.157,0,0,0-.613-.159,1.424,1.424,0,0,0-.969.356,1.758,1.758,0,0,0-.408,1.353V0Zm8.32,0V-7.158h.879V0ZM60-.64a3.273,3.273,0,0,1-.94.586A2.716,2.716,0,0,1,58.1.117,1.885,1.885,0,0,1,56.782-.3a1.378,1.378,0,0,1-.459-1.067,1.419,1.419,0,0,1,.173-.7,1.435,1.435,0,0,1,.454-.505,2.135,2.135,0,0,1,.632-.288,6.28,6.28,0,0,1,.781-.132,8.033,8.033,0,0,0,1.567-.3q0-.181,0-.229a.97.97,0,0,0-.249-.757,1.471,1.471,0,0,0-1-.3,1.552,1.552,0,0,0-.916.217,1.328,1.328,0,0,0-.437.769l-.859-.117A2.129,2.129,0,0,1,56.86-4.6a1.691,1.691,0,0,1,.776-.522A3.463,3.463,0,0,1,58.813-5.3a3.115,3.115,0,0,1,1.079.156,1.422,1.422,0,0,1,.61.393,1.382,1.382,0,0,1,.273.6,4.949,4.949,0,0,1,.044.811v1.172a12.439,12.439,0,0,0,.056,1.55A1.956,1.956,0,0,0,61.1,0h-.918A1.864,1.864,0,0,1,60-.64ZM59.932-2.6a6.448,6.448,0,0,1-1.436.332,3.32,3.32,0,0,0-.767.176.764.764,0,0,0-.347.286.75.75,0,0,0-.122.417.749.749,0,0,0,.266.586,1.145,1.145,0,0,0,.779.234,1.813,1.813,0,0,0,.9-.222A1.368,1.368,0,0,0,59.79-1.4a2.123,2.123,0,0,0,.142-.879ZM62.993,0h-.815V-7.158h.879V-4.6a1.739,1.739,0,0,1,1.421-.7,2.176,2.176,0,0,1,.906.193,1.85,1.85,0,0,1,.7.542,2.62,2.62,0,0,1,.432.842,3.473,3.473,0,0,1,.156,1.055A2.962,2.962,0,0,1,66.016-.61a2.062,2.062,0,0,1-1.582.728,1.651,1.651,0,0,1-1.44-.767Zm-.01-2.632a2.691,2.691,0,0,0,.254,1.348,1.266,1.266,0,0,0,1.123.679,1.264,1.264,0,0,0,1-.5,2.274,2.274,0,0,0,.42-1.492,2.314,2.314,0,0,0-.4-1.5A1.227,1.227,0,0,0,64.4-4.58a1.264,1.264,0,0,0-1,.5A2.2,2.2,0,0,0,62.983-2.632Zm4.434.039a2.673,2.673,0,0,1,.8-2.134A2.413,2.413,0,0,1,69.849-5.3a2.327,2.327,0,0,1,1.748.7,2.666,2.666,0,0,1,.679,1.936,3.43,3.43,0,0,1-.3,1.575A2.126,2.126,0,0,1,71.1-.2a2.545,2.545,0,0,1-1.252.317,2.331,2.331,0,0,1-1.76-.7A2.789,2.789,0,0,1,67.417-2.593Zm.9,0A2.209,2.209,0,0,0,68.755-1.1a1.393,1.393,0,0,0,1.094.5,1.385,1.385,0,0,0,1.089-.5,2.261,2.261,0,0,0,.435-1.519,2.142,2.142,0,0,0-.437-1.458,1.39,1.39,0,0,0-1.086-.5,1.4,1.4,0,0,0-1.094.493A2.2,2.2,0,0,0,68.32-2.593ZM73.3,0V-5.186h.791V-4.4a2.145,2.145,0,0,1,.559-.728A.976.976,0,0,1,75.21-5.3a1.714,1.714,0,0,1,.9.283l-.3.815a1.258,1.258,0,0,0-.645-.19.837.837,0,0,0-.518.173.939.939,0,0,0-.327.481,3.423,3.423,0,0,0-.146,1.025V0ZM80.02-.64a3.273,3.273,0,0,1-.94.586,2.716,2.716,0,0,1-.969.171A1.885,1.885,0,0,1,76.8-.3a1.378,1.378,0,0,1-.459-1.067,1.419,1.419,0,0,1,.173-.7,1.435,1.435,0,0,1,.454-.505,2.135,2.135,0,0,1,.632-.288,6.28,6.28,0,0,1,.781-.132,8.033,8.033,0,0,0,1.567-.3q0-.181,0-.229a.97.97,0,0,0-.249-.757,1.471,1.471,0,0,0-1-.3,1.552,1.552,0,0,0-.916.217,1.328,1.328,0,0,0-.437.769l-.859-.117a2.129,2.129,0,0,1,.386-.891,1.691,1.691,0,0,1,.776-.522A3.463,3.463,0,0,1,78.828-5.3a3.115,3.115,0,0,1,1.079.156,1.422,1.422,0,0,1,.61.393,1.382,1.382,0,0,1,.273.6,4.949,4.949,0,0,1,.044.811v1.172a12.438,12.438,0,0,0,.056,1.55A1.956,1.956,0,0,0,81.113,0H80.2A1.863,1.863,0,0,1,80.02-.64ZM79.946-2.6a6.448,6.448,0,0,1-1.436.332,3.321,3.321,0,0,0-.767.176.764.764,0,0,0-.347.286.75.75,0,0,0-.122.417.749.749,0,0,0,.266.586,1.145,1.145,0,0,0,.779.234,1.813,1.813,0,0,0,.9-.222A1.368,1.368,0,0,0,79.8-1.4a2.123,2.123,0,0,0,.142-.879ZM82.178,0V-7.158h.879V0Z" transform="translate(1003.045 752.963)" fill="#fff"/>
    <path id="Trazado_1087" data-name="Trazado 1087" d="M.933,0V-7.158H1.88V0ZM3.55,0V-7.158h2.7a6.52,6.52,0,0,1,1.089.068,2.157,2.157,0,0,1,.884.334,1.755,1.755,0,0,1,.574.691,2.193,2.193,0,0,1,.217.977,2.2,2.2,0,0,1-.581,1.545,2.787,2.787,0,0,1-2.1.632H4.5V0ZM4.5-3.755H6.348a1.963,1.963,0,0,0,1.3-.342,1.218,1.218,0,0,0,.386-.962,1.294,1.294,0,0,0-.227-.769,1.061,1.061,0,0,0-.6-.422,4.047,4.047,0,0,0-.884-.063H4.5ZM9.9-2.3l.894-.078a1.973,1.973,0,0,0,.3.881,1.613,1.613,0,0,0,.72.557,2.727,2.727,0,0,0,1.1.212,2.633,2.633,0,0,0,.957-.161,1.328,1.328,0,0,0,.618-.442,1.025,1.025,0,0,0,.2-.613.932.932,0,0,0-.2-.588,1.447,1.447,0,0,0-.645-.422A12.6,12.6,0,0,0,12.568-3.3a6.512,6.512,0,0,1-1.382-.447,1.938,1.938,0,0,1-.764-.667,1.633,1.633,0,0,1-.251-.891,1.819,1.819,0,0,1,.308-1.013,1.9,1.9,0,0,1,.9-.715A3.408,3.408,0,0,1,12.69-7.28a3.588,3.588,0,0,1,1.4.256,2.025,2.025,0,0,1,.935.754,2.167,2.167,0,0,1,.352,1.128l-.908.068a1.465,1.465,0,0,0-.5-1.025,1.929,1.929,0,0,0-1.248-.347,2,2,0,0,0-1.252.315.945.945,0,0,0-.393.759.814.814,0,0,0,.278.635,3.771,3.771,0,0,0,1.428.51,9.447,9.447,0,0,1,1.584.457,2.17,2.17,0,0,1,.923.73,1.778,1.778,0,0,1,.3,1.018,1.947,1.947,0,0,1-.327,1.077,2.154,2.154,0,0,1-.94.786,3.275,3.275,0,0,1-1.379.281,4.119,4.119,0,0,1-1.628-.283,2.281,2.281,0,0,1-1.03-.852A2.416,2.416,0,0,1,9.9-2.3ZM19.546,0V-5.186h.791V-4.4a2.145,2.145,0,0,1,.559-.728A.976.976,0,0,1,21.46-5.3a1.714,1.714,0,0,1,.9.283l-.3.815a1.258,1.258,0,0,0-.645-.19.837.837,0,0,0-.518.173.939.939,0,0,0-.327.481,3.423,3.423,0,0,0-.146,1.025V0Zm6.89-1.67.908.112a2.216,2.216,0,0,1-.8,1.235,2.393,2.393,0,0,1-1.484.439,2.372,2.372,0,0,1-1.8-.7,2.738,2.738,0,0,1-.667-1.965,2.865,2.865,0,0,1,.674-2.031A2.281,2.281,0,0,1,25.015-5.3a2.217,2.217,0,0,1,1.7.708A2.813,2.813,0,0,1,27.373-2.6q0,.078,0,.234H23.5a1.993,1.993,0,0,0,.483,1.309,1.439,1.439,0,0,0,1.084.454,1.345,1.345,0,0,0,.825-.254A1.685,1.685,0,0,0,26.436-1.67ZM23.55-3.091h2.9a1.757,1.757,0,0,0-.332-.981,1.347,1.347,0,0,0-1.089-.508,1.4,1.4,0,0,0-1.018.405A1.6,1.6,0,0,0,23.55-3.091ZM28.286.43l.854.127a.814.814,0,0,0,.3.576,1.463,1.463,0,0,0,.894.244,1.569,1.569,0,0,0,.942-.244,1.2,1.2,0,0,0,.449-.684,5.614,5.614,0,0,0,.063-1.128A1.808,1.808,0,0,1,30.352,0,1.957,1.957,0,0,1,28.7-.771a2.971,2.971,0,0,1-.586-1.851,3.444,3.444,0,0,1,.269-1.37,2.149,2.149,0,0,1,.779-.969,2.1,2.1,0,0,1,1.2-.342,1.859,1.859,0,0,1,1.514.742v-.625h.811V-.7a4.251,4.251,0,0,1-.247,1.716,1.8,1.8,0,0,1-.781.8,2.708,2.708,0,0,1-1.316.293,2.481,2.481,0,0,1-1.5-.417A1.412,1.412,0,0,1,28.286.43Zm.728-3.115A2.25,2.25,0,0,0,29.419-1.2a1.287,1.287,0,0,0,1.016.469,1.3,1.3,0,0,0,1.016-.466,2.176,2.176,0,0,0,.41-1.462,2.126,2.126,0,0,0-.422-1.436,1.306,1.306,0,0,0-1.018-.483,1.269,1.269,0,0,0-1,.476A2.114,2.114,0,0,0,29.014-2.686Zm5-3.462V-7.158h.879v1.011Zm0,6.147V-5.186h.879V0Zm1.865-1.548.869-.137a1.215,1.215,0,0,0,.408.8,1.421,1.421,0,0,0,.935.278,1.374,1.374,0,0,0,.9-.247.737.737,0,0,0,.293-.579.534.534,0,0,0-.259-.469,3.812,3.812,0,0,0-.9-.3,8.2,8.2,0,0,1-1.34-.422,1.3,1.3,0,0,1-.566-.493,1.306,1.306,0,0,1-.193-.7,1.336,1.336,0,0,1,.159-.642,1.423,1.423,0,0,1,.432-.491,1.812,1.812,0,0,1,.559-.256,2.659,2.659,0,0,1,.759-.1,3,3,0,0,1,1.072.176,1.458,1.458,0,0,1,.681.476,1.86,1.86,0,0,1,.3.8l-.859.117a.94.94,0,0,0-.339-.625A1.241,1.241,0,0,0,38-4.58a1.437,1.437,0,0,0-.864.2.583.583,0,0,0-.259.469.485.485,0,0,0,.107.308.775.775,0,0,0,.337.234q.132.049.776.225a10.808,10.808,0,0,1,1.3.408,1.32,1.32,0,0,1,.579.461,1.288,1.288,0,0,1,.21.752,1.476,1.476,0,0,1-.256.828,1.657,1.657,0,0,1-.74.6A2.693,2.693,0,0,1,38.1.117,2.437,2.437,0,0,1,36.555-.3,1.953,1.953,0,0,1,35.879-1.548Zm7.271.762.127.776a3.26,3.26,0,0,1-.664.078,1.5,1.5,0,0,1-.742-.151.848.848,0,0,1-.371-.4,3.147,3.147,0,0,1-.107-1.038V-4.5h-.645v-.684h.645V-6.47L42.266-7v1.812h.884V-4.5h-.884V-1.47a1.532,1.532,0,0,0,.046.483.366.366,0,0,0,.151.171.585.585,0,0,0,.3.063A2.859,2.859,0,0,0,43.149-.786ZM44,0V-5.186h.791V-4.4a2.145,2.145,0,0,1,.559-.728.976.976,0,0,1,.564-.176,1.714,1.714,0,0,1,.9.283l-.3.815a1.258,1.258,0,0,0-.645-.19.837.837,0,0,0-.518.173.939.939,0,0,0-.327.481,3.423,3.423,0,0,0-.146,1.025V0Zm6.724-.64a3.273,3.273,0,0,1-.94.586,2.716,2.716,0,0,1-.969.171A1.885,1.885,0,0,1,47.5-.3a1.378,1.378,0,0,1-.459-1.067,1.419,1.419,0,0,1,.173-.7,1.435,1.435,0,0,1,.454-.505,2.135,2.135,0,0,1,.632-.288,6.28,6.28,0,0,1,.781-.132,8.033,8.033,0,0,0,1.567-.3q0-.181,0-.229a.97.97,0,0,0-.249-.757,1.471,1.471,0,0,0-1-.3,1.552,1.552,0,0,0-.916.217,1.328,1.328,0,0,0-.437.769l-.859-.117a2.129,2.129,0,0,1,.386-.891,1.691,1.691,0,0,1,.776-.522A3.463,3.463,0,0,1,49.531-5.3a3.115,3.115,0,0,1,1.079.156,1.422,1.422,0,0,1,.61.393,1.382,1.382,0,0,1,.273.6,4.949,4.949,0,0,1,.044.811v1.172a12.439,12.439,0,0,0,.056,1.55A1.956,1.956,0,0,0,51.816,0H50.9A1.864,1.864,0,0,1,50.723-.64ZM50.649-2.6a6.448,6.448,0,0,1-1.436.332,3.32,3.32,0,0,0-.767.176.764.764,0,0,0-.347.286.75.75,0,0,0-.122.417.749.749,0,0,0,.266.586,1.145,1.145,0,0,0,.779.234,1.813,1.813,0,0,0,.9-.222,1.368,1.368,0,0,0,.581-.608,2.123,2.123,0,0,0,.142-.879ZM56.265,0V-.654a1.613,1.613,0,0,1-1.45.771,2.034,2.034,0,0,1-1.14-.342,2.248,2.248,0,0,1-.806-.955,3.3,3.3,0,0,1-.286-1.409A3.687,3.687,0,0,1,52.842-4a2.041,2.041,0,0,1,.776-.969A2.076,2.076,0,0,1,54.775-5.3a1.729,1.729,0,0,1,.835.2,1.746,1.746,0,0,1,.6.515V-7.158h.874V0ZM53.486-2.588a2.252,2.252,0,0,0,.42,1.489,1.266,1.266,0,0,0,.991.493,1.243,1.243,0,0,0,.979-.471,2.172,2.172,0,0,0,.4-1.438,2.439,2.439,0,0,0-.41-1.562,1.262,1.262,0,0,0-1.011-.5,1.218,1.218,0,0,0-.979.479A2.362,2.362,0,0,0,53.486-2.588ZM61.846-.64a3.273,3.273,0,0,1-.94.586,2.716,2.716,0,0,1-.969.171A1.885,1.885,0,0,1,58.623-.3a1.378,1.378,0,0,1-.459-1.067,1.419,1.419,0,0,1,.173-.7,1.435,1.435,0,0,1,.454-.505,2.135,2.135,0,0,1,.632-.288,6.28,6.28,0,0,1,.781-.132,8.033,8.033,0,0,0,1.567-.3q0-.181,0-.229a.97.97,0,0,0-.249-.757,1.471,1.471,0,0,0-1-.3,1.552,1.552,0,0,0-.916.217,1.328,1.328,0,0,0-.437.769l-.859-.117A2.129,2.129,0,0,1,58.7-4.6a1.691,1.691,0,0,1,.776-.522A3.463,3.463,0,0,1,60.654-5.3a3.115,3.115,0,0,1,1.079.156,1.422,1.422,0,0,1,.61.393,1.382,1.382,0,0,1,.273.6,4.949,4.949,0,0,1,.044.811v1.172a12.439,12.439,0,0,0,.056,1.55A1.956,1.956,0,0,0,62.939,0h-.918A1.864,1.864,0,0,1,61.846-.64ZM61.772-2.6a6.448,6.448,0,0,1-1.436.332,3.32,3.32,0,0,0-.767.176.764.764,0,0,0-.347.286.75.75,0,0,0-.122.417.749.749,0,0,0,.266.586,1.145,1.145,0,0,0,.779.234,1.813,1.813,0,0,0,.9-.222,1.368,1.368,0,0,0,.581-.608,2.123,2.123,0,0,0,.142-.879Z" transform="translate(1013.8 767.682)" fill="#fff"/>
    <path id="Trazado_1088" data-name="Trazado 1088" d="M.933,0V-7.158H1.88V0Zm2.5,0V-5.186h.791v.737A1.864,1.864,0,0,1,5.879-5.3a2.165,2.165,0,0,1,.862.168,1.356,1.356,0,0,1,.588.442,1.7,1.7,0,0,1,.273.649,5.033,5.033,0,0,1,.049.854V0H6.772V-3.154a2.368,2.368,0,0,0-.1-.8.845.845,0,0,0-.364-.425,1.157,1.157,0,0,0-.613-.159,1.424,1.424,0,0,0-.969.356,1.758,1.758,0,0,0-.408,1.353V0Zm5.21-1.548.869-.137a1.215,1.215,0,0,0,.408.8,1.421,1.421,0,0,0,.935.278,1.374,1.374,0,0,0,.9-.247.737.737,0,0,0,.293-.579.534.534,0,0,0-.259-.469,3.812,3.812,0,0,0-.9-.3,8.2,8.2,0,0,1-1.34-.422,1.3,1.3,0,0,1-.566-.493,1.306,1.306,0,0,1-.193-.7,1.336,1.336,0,0,1,.159-.642,1.423,1.423,0,0,1,.432-.491A1.812,1.812,0,0,1,9.944-5.2a2.659,2.659,0,0,1,.759-.1,3,3,0,0,1,1.072.176,1.458,1.458,0,0,1,.681.476,1.86,1.86,0,0,1,.3.8L11.9-3.73a.94.94,0,0,0-.339-.625,1.241,1.241,0,0,0-.793-.225,1.437,1.437,0,0,0-.864.2.583.583,0,0,0-.259.469.485.485,0,0,0,.107.308.775.775,0,0,0,.337.234q.132.049.776.225a10.808,10.808,0,0,1,1.3.408,1.32,1.32,0,0,1,.579.461,1.288,1.288,0,0,1,.21.752A1.476,1.476,0,0,1,12.7-.7a1.657,1.657,0,0,1-.74.6,2.693,2.693,0,0,1-1.094.212A2.437,2.437,0,0,1,9.324-.3,1.953,1.953,0,0,1,8.647-1.548ZM17.383-1.9l.864.112a2.241,2.241,0,0,1-.725,1.4,2.112,2.112,0,0,1-1.433.505,2.226,2.226,0,0,1-1.711-.7,2.823,2.823,0,0,1-.647-1.995,3.61,3.61,0,0,1,.278-1.47,1.941,1.941,0,0,1,.847-.945A2.514,2.514,0,0,1,16.094-5.3a2.152,2.152,0,0,1,1.382.427,1.959,1.959,0,0,1,.688,1.213l-.854.132a1.419,1.419,0,0,0-.432-.786,1.118,1.118,0,0,0-.75-.264,1.364,1.364,0,0,0-1.079.476A2.26,2.26,0,0,0,14.634-2.6a2.336,2.336,0,0,0,.4,1.519,1.3,1.3,0,0,0,1.045.474,1.232,1.232,0,0,0,.864-.317A1.575,1.575,0,0,0,17.383-1.9ZM18.989,0V-5.186h.791V-4.4a2.145,2.145,0,0,1,.559-.728A.976.976,0,0,1,20.9-5.3a1.714,1.714,0,0,1,.9.283l-.3.815a1.258,1.258,0,0,0-.645-.19.837.837,0,0,0-.518.173.939.939,0,0,0-.327.481,3.423,3.423,0,0,0-.146,1.025V0Zm3.345-6.147V-7.158h.879v1.011Zm0,6.147V-5.186h.879V0Zm2.217,1.987V-5.186h.8v.674a1.974,1.974,0,0,1,.64-.593,1.758,1.758,0,0,1,.864-.2,2.049,2.049,0,0,1,1.172.342A2.1,2.1,0,0,1,28.794-4a3.521,3.521,0,0,1,.259,1.365A3.466,3.466,0,0,1,28.767-1.2a2.153,2.153,0,0,1-.83.977,2.131,2.131,0,0,1-1.145.339A1.654,1.654,0,0,1,26-.068a1.8,1.8,0,0,1-.574-.469V1.987Zm.8-4.551a2.256,2.256,0,0,0,.405,1.479,1.243,1.243,0,0,0,.981.479,1.271,1.271,0,0,0,1-.5,2.351,2.351,0,0,0,.417-1.536,2.291,2.291,0,0,0-.408-1.484,1.227,1.227,0,0,0-.974-.493,1.266,1.266,0,0,0-.994.525A2.348,2.348,0,0,0,25.347-2.563ZM33.5-1.9l.864.112a2.241,2.241,0,0,1-.725,1.4A2.112,2.112,0,0,1,32.2.117a2.226,2.226,0,0,1-1.711-.7,2.823,2.823,0,0,1-.647-1.995,3.61,3.61,0,0,1,.278-1.47,1.941,1.941,0,0,1,.847-.945A2.514,2.514,0,0,1,32.207-5.3a2.152,2.152,0,0,1,1.382.427,1.959,1.959,0,0,1,.688,1.213l-.854.132a1.419,1.419,0,0,0-.432-.786,1.118,1.118,0,0,0-.75-.264,1.364,1.364,0,0,0-1.079.476A2.26,2.26,0,0,0,30.747-2.6a2.336,2.336,0,0,0,.4,1.519,1.3,1.3,0,0,0,1.045.474,1.232,1.232,0,0,0,.864-.317A1.575,1.575,0,0,0,33.5-1.9Zm1.621-4.248V-7.158H36v1.011Zm0,6.147V-5.186H36V0Zm1.89-2.593a2.673,2.673,0,0,1,.8-2.134A2.413,2.413,0,0,1,39.438-5.3a2.327,2.327,0,0,1,1.748.7,2.666,2.666,0,0,1,.679,1.936,3.43,3.43,0,0,1-.3,1.575,2.126,2.126,0,0,1-.874.891,2.545,2.545,0,0,1-1.252.317,2.331,2.331,0,0,1-1.76-.7A2.789,2.789,0,0,1,37.007-2.593Zm.9,0A2.209,2.209,0,0,0,38.345-1.1a1.393,1.393,0,0,0,1.094.5,1.385,1.385,0,0,0,1.089-.5,2.261,2.261,0,0,0,.435-1.519,2.142,2.142,0,0,0-.437-1.458,1.39,1.39,0,0,0-1.086-.5,1.4,1.4,0,0,0-1.094.493A2.2,2.2,0,0,0,37.91-2.593ZM38.95-5.83,39.6-7.2h1.152L39.678-5.83ZM42.9,0V-5.186h.791v.737a1.864,1.864,0,0,1,1.65-.854,2.165,2.165,0,0,1,.862.168,1.356,1.356,0,0,1,.588.442,1.7,1.7,0,0,1,.273.649,5.033,5.033,0,0,1,.049.854V0H46.23V-3.154a2.368,2.368,0,0,0-.1-.8.845.845,0,0,0-.364-.425,1.157,1.157,0,0,0-.613-.159,1.424,1.424,0,0,0-.969.356,1.758,1.758,0,0,0-.408,1.353V0Z" transform="translate(1116.311 752.963)" fill="#fff"/>
    <path id="Trazado_1089" data-name="Trazado 1089" d="M4.209-1.67l.908.112a2.216,2.216,0,0,1-.8,1.235A2.393,2.393,0,0,1,2.837.117a2.372,2.372,0,0,1-1.8-.7A2.738,2.738,0,0,1,.366-2.549,2.865,2.865,0,0,1,1.04-4.58,2.281,2.281,0,0,1,2.788-5.3a2.217,2.217,0,0,1,1.7.708A2.813,2.813,0,0,1,5.146-2.6q0,.078,0,.234H1.274A1.993,1.993,0,0,0,1.758-1.06a1.439,1.439,0,0,0,1.084.454,1.345,1.345,0,0,0,.825-.254A1.685,1.685,0,0,0,4.209-1.67ZM1.323-3.091h2.9a1.757,1.757,0,0,0-.332-.981A1.347,1.347,0,0,0,2.8-4.58a1.4,1.4,0,0,0-1.018.405A1.6,1.6,0,0,0,1.323-3.091ZM6.221,0V-5.186h.791v.737A1.864,1.864,0,0,1,8.662-5.3a2.165,2.165,0,0,1,.862.168,1.356,1.356,0,0,1,.588.442,1.7,1.7,0,0,1,.273.649,5.033,5.033,0,0,1,.049.854V0H9.556V-3.154a2.368,2.368,0,0,0-.1-.8.845.845,0,0,0-.364-.425,1.157,1.157,0,0,0-.613-.159,1.424,1.424,0,0,0-.969.356A1.758,1.758,0,0,0,7.1-2.832V0Zm8.467,0V-7.158h3.174a4.224,4.224,0,0,1,1.455.193,1.591,1.591,0,0,1,.8.681,2.032,2.032,0,0,1,.3,1.079,1.8,1.8,0,0,1-.493,1.284,2.5,2.5,0,0,1-1.523.664,2.457,2.457,0,0,1,.571.356,4.922,4.922,0,0,1,.786.952L21,0H19.8l-.947-1.489q-.415-.645-.684-.986a2.149,2.149,0,0,0-.481-.479,1.422,1.422,0,0,0-.432-.19,2.846,2.846,0,0,0-.527-.034h-1.1V0Zm.947-4h2.036a3.054,3.054,0,0,0,1.016-.134,1.081,1.081,0,0,0,.557-.43,1.162,1.162,0,0,0,.19-.642,1.067,1.067,0,0,0-.369-.835A1.725,1.725,0,0,0,17.9-6.367H15.635Zm9.7,2.329.908.112a2.216,2.216,0,0,1-.8,1.235A2.393,2.393,0,0,1,23.96.117a2.372,2.372,0,0,1-1.8-.7,2.738,2.738,0,0,1-.667-1.965,2.865,2.865,0,0,1,.674-2.031A2.281,2.281,0,0,1,23.911-5.3a2.217,2.217,0,0,1,1.7.708A2.813,2.813,0,0,1,26.27-2.6q0,.078,0,.234H22.4a1.993,1.993,0,0,0,.483,1.309,1.439,1.439,0,0,0,1.084.454,1.345,1.345,0,0,0,.825-.254A1.685,1.685,0,0,0,25.332-1.67ZM22.446-3.091h2.9a1.757,1.757,0,0,0-.332-.981,1.347,1.347,0,0,0-1.089-.508,1.4,1.4,0,0,0-1.018.405A1.6,1.6,0,0,0,22.446-3.091ZM29.277,0V-6.313H26.919v-.845h5.674v.845H30.225V0Zm4.316,0V-7.158h.947v2.939h3.721V-7.158h.947V0h-.947V-3.374H34.541V0Zm11.89-7.158h.947v4.136a4.895,4.895,0,0,1-.244,1.714,2.091,2.091,0,0,1-.881,1.033,3.121,3.121,0,0,1-1.672.4,3.437,3.437,0,0,1-1.646-.347,1.979,1.979,0,0,1-.913-1A4.781,4.781,0,0,1,40.8-3.022V-7.158h.947v4.131a4.027,4.027,0,0,0,.173,1.375,1.316,1.316,0,0,0,.6.681,2.066,2.066,0,0,0,1.033.239,1.974,1.974,0,0,0,1.489-.474,2.729,2.729,0,0,0,.444-1.821Zm2.2,4.858.894-.078a1.973,1.973,0,0,0,.3.881,1.613,1.613,0,0,0,.72.557,2.727,2.727,0,0,0,1.1.212,2.633,2.633,0,0,0,.957-.161,1.328,1.328,0,0,0,.618-.442,1.025,1.025,0,0,0,.2-.613.932.932,0,0,0-.2-.588,1.447,1.447,0,0,0-.645-.422A12.6,12.6,0,0,0,50.356-3.3a6.512,6.512,0,0,1-1.382-.447,1.938,1.938,0,0,1-.764-.667,1.633,1.633,0,0,1-.251-.891,1.819,1.819,0,0,1,.308-1.013,1.9,1.9,0,0,1,.9-.715,3.408,3.408,0,0,1,1.313-.244,3.588,3.588,0,0,1,1.4.256,2.025,2.025,0,0,1,.935.754,2.167,2.167,0,0,1,.352,1.128l-.908.068a1.465,1.465,0,0,0-.5-1.025,1.929,1.929,0,0,0-1.248-.347,2,2,0,0,0-1.252.315.945.945,0,0,0-.393.759.814.814,0,0,0,.278.635,3.771,3.771,0,0,0,1.428.51,9.447,9.447,0,0,1,1.584.457,2.17,2.17,0,0,1,.923.73,1.778,1.778,0,0,1,.3,1.018,1.947,1.947,0,0,1-.327,1.077,2.154,2.154,0,0,1-.94.786,3.275,3.275,0,0,1-1.379.281,4.119,4.119,0,0,1-1.628-.283,2.281,2.281,0,0,1-1.03-.852A2.416,2.416,0,0,1,47.686-2.3Z" transform="translate(1117.062 767.682)" fill="#fff"/>
    <path id="Trazado_1013" data-name="Trazado 1013" d="M0,0H2.631V-6.145a.379.379,0,0,1,.38-.378h1.4L1.316-10.07-1.776-6.523h1.4A.379.379,0,0,1,0-6.145ZM3.01.754H-.379A.377.377,0,0,1-.758.377V-5.768H-2.606a.38.38,0,0,1-.345-.22.375.375,0,0,1,.059-.4l3.922-4.5a.394.394,0,0,1,.573,0l3.922,4.5a.377.377,0,0,1,.058.4.378.378,0,0,1-.344.22H3.389V.377A.378.378,0,0,1,3.01.754" transform="translate(1147.909 699.313)" fill="#020407"/>
    <path id="Trazado_1014" data-name="Trazado 1014" d="M0,0A.381.381,0,0,1,.286.13L1.2,1.177A2.809,2.809,0,0,0,2.021.609a2.841,2.841,0,0,0,0-4.025,2.872,2.872,0,0,0-4.042,0,2.841,2.841,0,0,0,0,4.025,2.822,2.822,0,0,0,.822.569L-.286.13A.381.381,0,0,1,0,0M-1.09,2.006a.382.382,0,0,1-.128-.022,3.559,3.559,0,0,1-1.339-.842,3.593,3.593,0,0,1,0-5.092,3.632,3.632,0,0,1,5.115,0,3.6,3.6,0,0,1,0,5.092,3.57,3.57,0,0,1-1.34.842A.38.38,0,0,1,.8,1.876L0,.953l-.8.923a.383.383,0,0,1-.286.13" transform="translate(1149.225 688.289)" fill="#020407"/>
    <path id="Trazado_1015" data-name="Trazado 1015" d="M0,0A5.553,5.553,0,0,0-3.944,1.627,5.507,5.507,0,0,0-5.577,5.553,5.506,5.506,0,0,0-3.944,9.479a5.465,5.465,0,0,0,.929.74L-.286,7.086a.393.393,0,0,1,.573,0l2.73,3.132a5.5,5.5,0,0,0,.928-.74,5.534,5.534,0,0,0,0-7.852A5.553,5.553,0,0,0,0,0M-2.938,11.084a.387.387,0,0,1-.188-.049,6.373,6.373,0,0,1-1.354-1.021,6.25,6.25,0,0,1-1.856-4.46A6.25,6.25,0,0,1-4.479,1.093,6.307,6.307,0,0,1,0-.754,6.307,6.307,0,0,1,4.479,1.093a6.287,6.287,0,0,1,0,8.921,6.391,6.391,0,0,1-1.353,1.021.382.382,0,0,1-.474-.081L0,7.911l-2.651,3.043a.383.383,0,0,1-.286.13" transform="translate(1149.225 681.333)" fill="#020407"/>
    <path id="Trazado_1016" data-name="Trazado 1016" d="M0,0A8.037,8.037,0,0,0-5.688,2.342a7.994,7.994,0,0,0,0,11.327,8.009,8.009,0,0,0,3.614,2.074V14.664H-3.922a.379.379,0,0,1-.344-.22.377.377,0,0,1,.058-.405l3.922-4.5a.393.393,0,0,1,.573,0l3.922,4.5a.377.377,0,0,1-.286.625H2.074v1.079a8.018,8.018,0,0,0,3.614-2.074,8,8,0,0,0,0-11.327A8.04,8.04,0,0,0,0,0M1.695,16.6a.379.379,0,0,1-.379-.377V14.287a.378.378,0,0,1,.379-.377h1.4L0,10.363-3.092,13.91h1.4a.377.377,0,0,1,.379.377V16.22a.374.374,0,0,1-.139.292.373.373,0,0,1-.315.078A8.771,8.771,0,0,1-6.224,14.2a8.747,8.747,0,0,1,0-12.395,8.841,8.841,0,0,1,12.448,0,8.747,8.747,0,0,1,0,12.395A8.771,8.771,0,0,1,1.77,16.59a.409.409,0,0,1-.076.007" transform="translate(1149.225 678.88)" fill="#020407"/>
    <path id="Trazado_1017" data-name="Trazado 1017" d="M0,0A9.874,9.874,0,0,0-7.016,2.893,9.793,9.793,0,0,0-9.921,9.879a9.793,9.793,0,0,0,2.906,6.985,9.848,9.848,0,0,0,4.942,2.673v-3H-3.922a.379.379,0,0,1-.344-.22.377.377,0,0,1,.058-.405l3.922-4.5a.393.393,0,0,1,.573,0l3.922,4.5a.377.377,0,0,1-.286.625H2.074v3a9.849,9.849,0,0,0,4.941-2.673,9.849,9.849,0,0,0,0-13.97A9.874,9.874,0,0,0,0,0M1.695,20.37a.38.38,0,0,1-.379-.377V16.16a.379.379,0,0,1,.379-.378h1.4L0,12.236l-3.092,3.546h1.4a.378.378,0,0,1,.379.378v3.833a.375.375,0,0,1-.133.287.373.373,0,0,1-.307.085,10.614,10.614,0,0,1-5.8-2.967A10.548,10.548,0,0,1-10.68,9.879,10.545,10.545,0,0,1-7.552,2.359,10.636,10.636,0,0,1,0-.754,10.636,10.636,0,0,1,7.552,2.359,10.545,10.545,0,0,1,10.68,9.879,10.548,10.548,0,0,1,7.552,17.4a10.615,10.615,0,0,1-5.795,2.967.355.355,0,0,1-.063.006" transform="translate(1149.225 677.007)" fill="#020407"/>
    <path id="Trazado_1018" data-name="Trazado 1018" d="M0,0A1.17,1.17,0,0,0-1.172,1.167,1.171,1.171,0,0,0,0,2.335,1.172,1.172,0,0,0,1.173,1.167,1.171,1.171,0,0,0,0,0M0,3.089A1.929,1.929,0,0,1-1.931,1.167,1.929,1.929,0,0,1,0-.755,1.929,1.929,0,0,1,1.932,1.167,1.929,1.929,0,0,1,0,3.089" transform="translate(1046.707 680.345)" fill="#020407"/>
    <path id="Trazado_1019" data-name="Trazado 1019" d="M0,0A.379.379,0,0,1-.379-.368,3.305,3.305,0,0,0-2.46-3.355a.377.377,0,0,1-.21-.492.379.379,0,0,1,.493-.208A4.055,4.055,0,0,1,.379-.387.379.379,0,0,1,.009,0Z" transform="translate(1050.407 688.161)" fill="#020407"/>
    <path id="Trazado_1020" data-name="Trazado 1020" d="M0,0H-6.741A.378.378,0,0,1-7.12-.377v-.892A4.044,4.044,0,0,1-4.563-5.037a.379.379,0,0,1,.493.209.376.376,0,0,1-.209.491A3.3,3.3,0,0,0-6.362-1.269v.515H0a.378.378,0,0,1,.38.377A.379.379,0,0,1,0,0" transform="translate(1049.747 689.142)" fill="#020407"/>
    <path id="Trazado_1021" data-name="Trazado 1021" d="M0,0A1.172,1.172,0,0,0-1.173,1.168,1.172,1.172,0,0,0,0,2.336,1.168,1.168,0,1,0,0,0M0,3.09A1.929,1.929,0,0,1-1.931,1.168,1.929,1.929,0,0,1,0-.754,1.929,1.929,0,0,1,1.931,1.168,1.929,1.929,0,0,1,0,3.09" transform="translate(1053.117 682.76)" fill="#020407"/>
    <path id="Trazado_1022" data-name="Trazado 1022" d="M0,0H-7.4a.378.378,0,0,1-.379-.377v-.892A4.043,4.043,0,0,1-5.224-5.036a.379.379,0,0,1,.494.209.376.376,0,0,1-.21.491A3.3,3.3,0,0,0-7.023-1.269v.515H-.379v-.515A3.3,3.3,0,0,0-2.461-4.336a.376.376,0,0,1-.21-.491.379.379,0,0,1,.494-.209A4.045,4.045,0,0,1,.38-1.269v.892A.379.379,0,0,1,0,0" transform="translate(1056.818 691.558)" fill="#020407"/>
    <path id="Trazado_1023" data-name="Trazado 1023" d="M0,0A1.17,1.17,0,0,0-1.172,1.167,1.171,1.171,0,0,0,0,2.335,1.172,1.172,0,0,0,1.173,1.167,1.171,1.171,0,0,0,0,0M0,3.089A1.929,1.929,0,0,1-1.931,1.167,1.929,1.929,0,0,1,0-.755,1.929,1.929,0,0,1,1.931,1.167,1.929,1.929,0,0,1,0,3.089" transform="translate(1059.527 680.345)" fill="#020407"/>
    <path id="Trazado_1024" data-name="Trazado 1024" d="M0,0H-6.742a.379.379,0,0,1-.379-.377.378.378,0,0,1,.379-.377H-.379v-.515A3.3,3.3,0,0,0-2.462-4.337a.376.376,0,0,1-.21-.491.38.38,0,0,1,.494-.209A4.044,4.044,0,0,1,.379-1.269v.892A.379.379,0,0,1,0,0" transform="translate(1063.229 689.142)" fill="#020407"/>
    <path id="Trazado_1025" data-name="Trazado 1025" d="M0,0A.379.379,0,0,1-.38-.377,3.929,3.929,0,0,1,2.176-4.054a.379.379,0,0,1,.494.208.377.377,0,0,1-.21.492A3.188,3.188,0,0,0,.379-.377.378.378,0,0,1,0,0" transform="translate(1055.828 688.16)" fill="#020407"/>
    <path id="Trazado_1026" data-name="Trazado 1026" d="M0,0H-13.481a.379.379,0,0,1-.38-.377V-5.1a.379.379,0,0,1,.38-.378A.379.379,0,0,1-13.1-5.1V-.754H-.379V-5.1A.378.378,0,0,1,0-5.476.378.378,0,0,1,.379-5.1V-.377A.378.378,0,0,1,0,0" transform="translate(1059.858 693.863)" fill="#020407"/>
    <path id="Trazado_1027" data-name="Trazado 1027" d="M0,0A.378.378,0,0,1-.216-.067l-2-1.38a.378.378,0,0,1-.163-.309.382.382,0,0,1,.161-.31l2-1.4a.381.381,0,0,1,.528.093.376.376,0,0,1-.092.525L-1.337-1.759.216-.688a.375.375,0,0,1,.1.525A.377.377,0,0,1,0,0" transform="translate(1043.572 693.209)" fill="#020407"/>
    <path id="Trazado_1028" data-name="Trazado 1028" d="M0,0H-4.806a.378.378,0,0,1-.379-.377.378.378,0,0,1,.379-.377H0a.378.378,0,0,1,.379.377A.378.378,0,0,1,0,0" transform="translate(1046.377 691.83)" fill="#020407"/>
    <path id="Trazado_1029" data-name="Trazado 1029" d="M0,0A.379.379,0,0,1-.312-.163a.376.376,0,0,1,.1-.525L1.337-1.759-.217-2.845a.376.376,0,0,1-.093-.526.381.381,0,0,1,.528-.092l2,1.4a.38.38,0,0,1,.161.31.377.377,0,0,1-.163.309l-2,1.38A.376.376,0,0,1,0,0" transform="translate(1062.659 693.264)" fill="#020407"/>
    <path id="Trazado_1030" data-name="Trazado 1030" d="M0,0H-4.8a.379.379,0,0,1-.38-.377A.378.378,0,0,1-4.8-.754H0a.377.377,0,0,1,.379.377A.378.378,0,0,1,0,0" transform="translate(1064.659 691.885)" fill="#020407"/>
    <path id="Trazado_1031" data-name="Trazado 1031" d="M0,0A.378.378,0,0,1-.312-.163L-1.7-2.154a.377.377,0,0,1,.1-.526.38.38,0,0,1,.528.1L0-1.037l1.09-1.549a.38.38,0,0,1,.528-.093.377.377,0,0,1,.093.527L.311-.161A.378.378,0,0,1,0,0" transform="translate(1049.407 698.648)" fill="#020407"/>
    <path id="Trazado_1032" data-name="Trazado 1032" d="M0,0A.378.378,0,0,1-.379-.377V-5.162A.378.378,0,0,1,0-5.539a.378.378,0,0,1,.379.377V-.377A.378.378,0,0,1,0,0" transform="translate(1049.407 698.648)" fill="#020407"/>
    <path id="Trazado_1033" data-name="Trazado 1033" d="M0,0A.378.378,0,0,1-.312-.163L-1.7-2.154a.377.377,0,0,1,.1-.526.38.38,0,0,1,.528.1L0-1.037,1.093-2.586a.38.38,0,0,1,.528-.093.378.378,0,0,1,.092.527L.311-.161A.377.377,0,0,1,0,0" transform="translate(1056.809 698.648)" fill="#020407"/>
    <path id="Trazado_1034" data-name="Trazado 1034" d="M0,0A.378.378,0,0,1-.379-.377V-5.162A.378.378,0,0,1,0-5.539a.378.378,0,0,1,.379.377V-.377A.378.378,0,0,1,0,0" transform="translate(1056.809 698.648)" fill="#020407"/>
    <path id="Trazado_1035" data-name="Trazado 1035" d="M0,0A1.023,1.023,0,0,0-1.024,1.02,1.022,1.022,0,0,0,0,2.039,1.022,1.022,0,0,0,1.024,1.02,1.023,1.023,0,0,0,0,0M0,2.794A1.781,1.781,0,0,1-1.782,1.02,1.78,1.78,0,0,1,0-.754,1.78,1.78,0,0,1,1.782,1.02,1.781,1.781,0,0,1,0,2.794" transform="translate(885.304 679.32)" fill="#020407"/>
    <path id="Trazado_1036" data-name="Trazado 1036" d="M0,0A.378.378,0,0,1-.379-.377V-3.465A1.14,1.14,0,0,0-1.519-4.6h-.094a.379.379,0,0,1-.379-.377.379.379,0,0,1,.379-.378h.094a1.9,1.9,0,0,1,1.9,1.891V-.377A.378.378,0,0,1,0,0" transform="translate(888.307 687.448)" fill="#020407"/>
    <path id="Trazado_1037" data-name="Trazado 1037" d="M0,0A.378.378,0,0,1-.379-.377V-3.465a1.9,1.9,0,0,1,1.9-1.891h.094a.379.379,0,0,1,.379.378.379.379,0,0,1-.379.377H1.519A1.14,1.14,0,0,0,.379-3.465V-.377A.378.378,0,0,1,0,0" transform="translate(882.301 687.448)" fill="#020407"/>
    <path id="Trazado_1038" data-name="Trazado 1038" d="M0,0A.378.378,0,0,1-.379-.377v-1.73A.378.378,0,0,1,0-2.484a.378.378,0,0,1,.379.377v1.73A.378.378,0,0,1,0,0" transform="translate(883.881 687.448)" fill="#020407"/>
    <path id="Trazado_1039" data-name="Trazado 1039" d="M0,0A.378.378,0,0,1-.379-.377v-1.73A.378.378,0,0,1,0-2.484a.378.378,0,0,1,.379.377v1.73A.378.378,0,0,1,0,0" transform="translate(886.727 687.448)" fill="#020407"/>
    <path id="Trazado_1040" data-name="Trazado 1040" d="M0,0A.378.378,0,0,1-.379-.377v-1.73A.378.378,0,0,1,0-2.484a.378.378,0,0,1,.379.377v1.73A.378.378,0,0,1,0,0" transform="translate(891.041 687.448)" fill="#020407"/>
    <path id="Trazado_1041" data-name="Trazado 1041" d="M0,0A.378.378,0,0,1-.379-.377v-1.73A.378.378,0,0,1,0-2.484a.378.378,0,0,1,.379.377v1.73A.378.378,0,0,1,0,0" transform="translate(893.887 687.448)" fill="#020407"/>
    <path id="Trazado_1042" data-name="Trazado 1042" d="M0,0A.378.378,0,0,1-.379-.377v-1.73A.378.378,0,0,1,0-2.484a.378.378,0,0,1,.379.377v1.73A.378.378,0,0,1,0,0" transform="translate(898.186 687.448)" fill="#020407"/>
    <path id="Trazado_1043" data-name="Trazado 1043" d="M0,0A.379.379,0,0,1-.38-.377v-1.73A.379.379,0,0,1,0-2.484a.378.378,0,0,1,.379.377v1.73A.378.378,0,0,1,0,0" transform="translate(901.032 687.448)" fill="#020407"/>
    <path id="Trazado_1044" data-name="Trazado 1044" d="M0,0A.379.379,0,0,1-.379-.377v-1.73A.378.378,0,0,1,0-2.484a.378.378,0,0,1,.379.377v1.73A.378.378,0,0,1,0,0" transform="translate(883.84 691.237)" fill="#020407"/>
    <path id="Trazado_1045" data-name="Trazado 1045" d="M0,0A.378.378,0,0,1-.379-.377v-1.73A.378.378,0,0,1,0-2.484a.378.378,0,0,1,.379.377v1.73A.379.379,0,0,1,0,0" transform="translate(886.686 691.237)" fill="#020407"/>
    <path id="Trazado_1046" data-name="Trazado 1046" d="M0,0A.379.379,0,0,1-.38-.377v-1.73A.379.379,0,0,1,0-2.484a.378.378,0,0,1,.379.377v1.73A.379.379,0,0,1,0,0" transform="translate(891 691.237)" fill="#020407"/>
    <path id="Trazado_1047" data-name="Trazado 1047" d="M0,0A.378.378,0,0,1-.379-.377v-1.73A.378.378,0,0,1,0-2.484a.378.378,0,0,1,.379.377v1.73A.378.378,0,0,1,0,0" transform="translate(893.846 691.237)" fill="#020407"/>
    <path id="Trazado_1048" data-name="Trazado 1048" d="M0,0A.378.378,0,0,1-.379-.377v-1.73A.378.378,0,0,1,0-2.484a.378.378,0,0,1,.379.377v1.73A.378.378,0,0,1,0,0" transform="translate(898.145 691.237)" fill="#020407"/>
    <path id="Trazado_1049" data-name="Trazado 1049" d="M0,0A.379.379,0,0,1-.379-.377v-1.73A.378.378,0,0,1,0-2.484a.379.379,0,0,1,.38.377v1.73A.379.379,0,0,1,0,0" transform="translate(900.99 691.237)" fill="#020407"/>
    <path id="Trazado_1050" data-name="Trazado 1050" d="M0,0A1.023,1.023,0,0,0-1.025,1.019,1.023,1.023,0,0,0,0,2.039,1.019,1.019,0,1,0,0,0M0,2.794A1.781,1.781,0,0,1-1.782,1.019,1.781,1.781,0,0,1,0-.755,1.781,1.781,0,0,1,1.782,1.019,1.781,1.781,0,0,1,0,2.794" transform="translate(892.456 679.315)" fill="#020407"/>
    <path id="Trazado_1051" data-name="Trazado 1051" d="M0,0A.378.378,0,0,1-.379-.377V-3.466A1.139,1.139,0,0,0-1.519-4.6.378.378,0,0,1-1.9-4.978a.378.378,0,0,1,.379-.378,1.9,1.9,0,0,1,1.9,1.891V-.377A.378.378,0,0,1,0,0" transform="translate(895.459 687.443)" fill="#020407"/>
    <path id="Trazado_1052" data-name="Trazado 1052" d="M0,0A.378.378,0,0,1-.379-.377V-3.466a1.9,1.9,0,0,1,1.9-1.891h.094a.379.379,0,0,1,.379.378.378.378,0,0,1-.379.377H1.519A1.139,1.139,0,0,0,.38-3.466V-.377A.379.379,0,0,1,0,0" transform="translate(889.453 687.443)" fill="#020407"/>
    <path id="Trazado_1053" data-name="Trazado 1053" d="M0,0A1.023,1.023,0,0,0-1.024,1.02,1.022,1.022,0,0,0,0,2.039,1.023,1.023,0,0,0,1.025,1.02,1.023,1.023,0,0,0,0,0M0,2.795A1.781,1.781,0,0,1-1.782,1.02,1.78,1.78,0,0,1,0-.754,1.78,1.78,0,0,1,1.782,1.02,1.781,1.781,0,0,1,0,2.795" transform="translate(899.601 679.308)" fill="#020407"/>
    <path id="Trazado_1054" data-name="Trazado 1054" d="M0,0A.379.379,0,0,1-.38-.378V-3.466A1.139,1.139,0,0,0-1.519-4.6h-.094a.378.378,0,0,1-.379-.377.379.379,0,0,1,.379-.378h.094a1.9,1.9,0,0,1,1.9,1.891V-.378A.379.379,0,0,1,0,0" transform="translate(902.604 687.437)" fill="#020407"/>
    <path id="Trazado_1055" data-name="Trazado 1055" d="M0,0A.379.379,0,0,1-.379-.378V-3.466a1.9,1.9,0,0,1,1.9-1.891h.094a.379.379,0,0,1,.379.378.378.378,0,0,1-.379.377H1.519A1.14,1.14,0,0,0,.379-3.466V-.378A.379.379,0,0,1,0,0" transform="translate(896.598 687.437)" fill="#020407"/>
    <path id="Trazado_1056" data-name="Trazado 1056" d="M0,0A1.023,1.023,0,0,0-1.024,1.019,1.023,1.023,0,0,0,0,2.039,1.019,1.019,0,1,0,0,0M0,2.794A1.781,1.781,0,0,1-1.782,1.019,1.78,1.78,0,0,1,0-.754,1.78,1.78,0,0,1,1.782,1.019,1.781,1.781,0,0,1,0,2.794" transform="translate(885.312 694.831)" fill="#020407"/>
    <path id="Trazado_1057" data-name="Trazado 1057" d="M0,0H-.094A.378.378,0,0,1-.473-.377.378.378,0,0,1-.094-.754H0A1.139,1.139,0,0,0,1.14-1.89V-4.977a.379.379,0,0,1,.379-.378.378.378,0,0,1,.379.378V-1.89A1.9,1.9,0,0,1,0,0" transform="translate(886.795 694.096)" fill="#020407"/>
    <path id="Trazado_1058" data-name="Trazado 1058" d="M0,0H-.094a1.9,1.9,0,0,1-1.9-1.89V-4.977a.379.379,0,0,1,.379-.378.379.379,0,0,1,.38.378V-1.89A1.139,1.139,0,0,0-.094-.754H0a.378.378,0,0,1,.379.377A.378.378,0,0,1,0,0" transform="translate(883.922 694.096)" fill="#020407"/>
    <path id="Trazado_1059" data-name="Trazado 1059" d="M0,0A1.023,1.023,0,0,0-1.024,1.02,1.022,1.022,0,0,0,0,2.039,1.022,1.022,0,0,0,1.024,1.02,1.023,1.023,0,0,0,0,0M0,2.794A1.781,1.781,0,0,1-1.782,1.02,1.78,1.78,0,0,1,0-.754,1.78,1.78,0,0,1,1.782,1.02,1.781,1.781,0,0,1,0,2.794" transform="translate(892.464 694.836)" fill="#020407"/>
    <path id="Trazado_1060" data-name="Trazado 1060" d="M0,0A.378.378,0,0,1-.379-.377.377.377,0,0,1,0-.754,1.14,1.14,0,0,0,1.14-1.89V-4.978a.379.379,0,0,1,.379-.378.378.378,0,0,1,.379.378V-1.89A1.9,1.9,0,0,1,0,0" transform="translate(893.948 694.103)" fill="#020407"/>
    <path id="Trazado_1061" data-name="Trazado 1061" d="M0,0H-.094a1.9,1.9,0,0,1-1.9-1.89V-4.978a.379.379,0,0,1,.379-.378.379.379,0,0,1,.38.378V-1.89A1.139,1.139,0,0,0-.094-.754H0a.378.378,0,0,1,.379.377A.379.379,0,0,1,0,0" transform="translate(891.074 694.103)" fill="#020407"/>
    <path id="Trazado_1062" data-name="Trazado 1062" d="M0,0A1.024,1.024,0,0,0-1.025,1.02,1.023,1.023,0,0,0,0,2.039,1.023,1.023,0,0,0,1.024,1.02,1.023,1.023,0,0,0,0,0M0,2.795A1.781,1.781,0,0,1-1.782,1.02,1.781,1.781,0,0,1,0-.754,1.781,1.781,0,0,1,1.782,1.02,1.781,1.781,0,0,1,0,2.795" transform="translate(899.609 694.841)" fill="#020407"/>
    <path id="Trazado_1063" data-name="Trazado 1063" d="M0,0H-.094A.378.378,0,0,1-.473-.377.378.378,0,0,1-.094-.754H0A1.139,1.139,0,0,0,1.14-1.89V-4.977a.378.378,0,0,1,.379-.378.378.378,0,0,1,.379.378V-1.89A1.9,1.9,0,0,1,0,0" transform="translate(901.092 694.108)" fill="#020407"/>
    <path id="Trazado_1064" data-name="Trazado 1064" d="M0,0H-.094a1.9,1.9,0,0,1-1.9-1.89V-4.977a.379.379,0,0,1,.379-.378.379.379,0,0,1,.38.378V-1.89A1.139,1.139,0,0,0-.094-.754H0a.378.378,0,0,1,.379.377A.378.378,0,0,1,0,0" transform="translate(898.219 694.108)" fill="#020407"/>
    <path id="Trazado_1065" data-name="Trazado 1065" d="M0,0H-23.092a.378.378,0,0,1-.379-.377.377.377,0,0,1,.379-.377H0a.378.378,0,0,1,.38.377A.379.379,0,0,1,0,0" transform="translate(904.01 687.448)" fill="#020407"/>
    <path id="Trazado_1066" data-name="Trazado 1066" d="M0,0H-23.092a.379.379,0,0,1-.38-.377.378.378,0,0,1,.38-.377H0a.377.377,0,0,1,.379.377A.378.378,0,0,1,0,0" transform="translate(904.002 689.496)" fill="#020407"/>
    <path id="Trazado_1067" data-name="Trazado 1067" d="M0,0A.868.868,0,0,0-.868.865.867.867,0,0,0,0,1.728.867.867,0,0,0,.868.865.868.868,0,0,0,0,0M0,2.484A1.624,1.624,0,0,1-1.627.865,1.625,1.625,0,0,1,0-.754,1.625,1.625,0,0,1,1.627.865,1.624,1.624,0,0,1,0,2.484" transform="translate(957.042 677.05)" fill="#020407"/>
    <path id="Trazado_1068" data-name="Trazado 1068" d="M0,0A.379.379,0,0,1-.38-.377V-1.494a2.573,2.573,0,0,0-1.627-2.4.376.376,0,0,1-.21-.491.38.38,0,0,1,.494-.209,3.324,3.324,0,0,1,2.1,3.1V-.377A.378.378,0,0,1,0,0" transform="translate(960.017 684.52)" fill="#020407"/>
    <path id="Trazado_1069" data-name="Trazado 1069" d="M0,0A.378.378,0,0,1-.379-.377V-1.494a3.324,3.324,0,0,1,2.1-3.1.379.379,0,0,1,.494.209.377.377,0,0,1-.211.491,2.574,2.574,0,0,0-1.627,2.4V-.377A.378.378,0,0,1,0,0" transform="translate(954.068 684.52)" fill="#020407"/>
    <path id="Trazado_1070" data-name="Trazado 1070" d="M0,0A4.814,4.814,0,0,0-4.819,4.8,4.814,4.814,0,0,0,0,9.6,4.813,4.813,0,0,0,4.818,4.8,4.813,4.813,0,0,0,0,0M0,10.351A5.571,5.571,0,0,1-5.577,4.8,5.571,5.571,0,0,1,0-.754,5.571,5.571,0,0,1,5.577,4.8,5.571,5.571,0,0,1,0,10.351" transform="translate(957.042 683.589)" fill="#020407"/>
    <path id="Trazado_1071" data-name="Trazado 1071" d="M0,0A2.592,2.592,0,0,0-2.6,2.584,2.592,2.592,0,0,0,0,5.168,2.593,2.593,0,0,0,2.6,2.584,2.592,2.592,0,0,0,0,0M0,5.922A3.35,3.35,0,0,1-3.354,2.584,3.35,3.35,0,0,1,0-.754,3.338,3.338,0,1,1,0,5.922" transform="translate(957.042 685.803)" fill="#020407"/>
    <path id="Trazado_1072" data-name="Trazado 1072" d="M0,0A.867.867,0,0,0-.868.865.867.867,0,0,0,0,1.728.867.867,0,0,0,.868.865.867.867,0,0,0,0,0M0,2.484A1.625,1.625,0,0,1-1.627.865,1.624,1.624,0,0,1,0-.754,1.624,1.624,0,0,1,1.627.865,1.625,1.625,0,0,1,0,2.484" transform="translate(967.56 687.523)" fill="#020407"/>
    <path id="Trazado_1073" data-name="Trazado 1073" d="M0,0H-1.122A.378.378,0,0,1-1.5-.377a.378.378,0,0,1,.379-.377H0a2.584,2.584,0,0,0,2.407-1.62A.378.378,0,0,1,2.9-2.583a.376.376,0,0,1,.21.491A3.338,3.338,0,0,1,0,0" transform="translate(962.426 691.726)" fill="#020407"/>
    <path id="Trazado_1074" data-name="Trazado 1074" d="M0,0A.379.379,0,0,1-.352-.236,2.584,2.584,0,0,0-2.758-1.855H-3.879a.378.378,0,0,1-.379-.377.378.378,0,0,1,.379-.378h1.121A3.338,3.338,0,0,1,.351-.518a.377.377,0,0,1-.209.492A.384.384,0,0,1,0,0" transform="translate(965.184 687.659)" fill="#020407"/>
    <path id="Trazado_1075" data-name="Trazado 1075" d="M0,0A.867.867,0,0,0-.868.865.867.867,0,0,0,0,1.728.867.867,0,0,0,.869.865.868.868,0,0,0,0,0M0,2.484A1.625,1.625,0,0,1-1.627.865,1.625,1.625,0,0,1,0-.754,1.624,1.624,0,0,1,1.627.865,1.625,1.625,0,0,1,0,2.484" transform="translate(946.524 687.523)" fill="#020407"/>
    <path id="Trazado_1076" data-name="Trazado 1076" d="M0,0A.38.38,0,0,1-.142-.027.377.377,0,0,1-.351-.518,3.336,3.336,0,0,1,2.758-2.611H3.879a.378.378,0,0,1,.379.378.378.378,0,0,1-.379.377H2.758A2.584,2.584,0,0,0,.352-.236.379.379,0,0,1,0,0" transform="translate(948.9 687.659)" fill="#020407"/>
    <path id="Trazado_1077" data-name="Trazado 1077" d="M0,0H-1.122A3.338,3.338,0,0,1-4.231-2.092a.376.376,0,0,1,.21-.491.379.379,0,0,1,.494.208A2.582,2.582,0,0,0-1.122-.754H0a.378.378,0,0,1,.379.377A.378.378,0,0,1,0,0" transform="translate(952.78 691.726)" fill="#020407"/>
    <path id="Trazado_1078" data-name="Trazado 1078" d="M0,0A.867.867,0,0,0-.868.864.867.867,0,0,0,0,1.728.867.867,0,0,0,.868.864.867.867,0,0,0,0,0M0,2.484A1.625,1.625,0,0,1-1.627.864,1.625,1.625,0,0,1,0-.755,1.625,1.625,0,0,1,1.627.864,1.625,1.625,0,0,1,0,2.484" transform="translate(957.042 697.995)" fill="#020407"/>
    <path id="Trazado_1079" data-name="Trazado 1079" d="M0,0A.4.4,0,0,1-.142-.027a3.326,3.326,0,0,1-2.1-3.1V-4.24a.379.379,0,0,1,.379-.378.379.379,0,0,1,.38.378v1.116A2.574,2.574,0,0,0,.142-.728a.376.376,0,0,1,.21.491A.379.379,0,0,1,0,0" transform="translate(955.932 696.871)" fill="#020407"/>
    <path id="Trazado_1080" data-name="Trazado 1080" d="M0,0A.379.379,0,0,1-.352-.237a.376.376,0,0,1,.21-.491,2.574,2.574,0,0,0,1.627-2.4V-4.24a.379.379,0,0,1,.38-.378.379.379,0,0,1,.379.378v1.116a3.326,3.326,0,0,1-2.1,3.1A.4.4,0,0,1,0,0" transform="translate(958.152 696.871)" fill="#020407"/>
    <path id="Trazado_1081" data-name="Trazado 1081" d="M0,0H395.609V-128.568H0Z" transform="translate(800 786.136)" fill="none"/>
  </g>
</svg>
