<svg xmlns="http://www.w3.org/2000/svg" xmlns:xlink="http://www.w3.org/1999/xlink" width="287.352" height="249.997" viewBox="0 0 287.352 249.997">
  <defs>
    <clipPath id="clip-path">
      <rect id="Rectángulo_1" data-name="Rectángulo 1" width="239.553" height="239.553" transform="translate(46.454 -246.756)" fill="none"/>
    </clipPath>
    <clipPath id="clip-path-2">
      <path id="Trazado_991" data-name="Trazado 991" d="M46.454-7.2H286.006V-246.755H46.454Z" fill="none"/>
    </clipPath>
    <clipPath id="clip-path-3">
      <rect id="Rectángulo_2" data-name="Rectángulo 2" width="230.961" height="164.397" transform="translate(45.424 -215.056)" fill="none"/>
    </clipPath>
    <clipPath id="clip-path-4">
      <rect id="Rectángulo_3" data-name="Rectángulo 3" width="100.326" height="118.365" transform="translate(44.831 -162.403)" fill="none"/>
    </clipPath>
    <clipPath id="clip-path-5">
      <rect id="Rectángulo_4" data-name="Rectángulo 4" width="7.119" height="71.51" transform="translate(44.498 -162.988)" fill="none"/>
    </clipPath>
  </defs>
  <g id="Grupo_725" data-name="Grupo 725" transform="translate(-854 -597.092)">
    <g id="Grupo_695" data-name="Grupo 695" transform="translate(848.52 847.089)" opacity="0.38">
      <g id="Grupo_694" data-name="Grupo 694">
        <g id="Grupo_693" data-name="Grupo 693" clip-path="url(#clip-path)">
          <g id="Grupo_692" data-name="Grupo 692" clip-path="url(#clip-path-2)">
            <g id="Grupo_691" data-name="Grupo 691" transform="translate(286.006 -126.979)">
              <path id="Trazado_990" data-name="Trazado 990" d="M0,0A119.775,119.775,0,0,1-119.776,119.776,119.775,119.775,0,0,1-239.552,0,119.776,119.776,0,0,1-119.776-119.776,119.776,119.776,0,0,1,0,0" fill="#cef1fc"/>
            </g>
          </g>
        </g>
      </g>
    </g>
    <path id="Trazado_992" data-name="Trazado 992" d="M5.48,0H292.832V-250H5.48Z" transform="translate(848.52 847.089)" fill="none"/>
    <path id="Trazado_993" data-name="Trazado 993" d="M0,0,1.05,183.026l-244.243,1.4L-244.243,1.4Z" transform="translate(1130.355 626.999)" fill="#3f8ea6"/>
    <g id="Grupo_701" data-name="Grupo 701" transform="translate(848.52 847.089)" opacity="0.26">
      <g id="Grupo_700" data-name="Grupo 700">
        <g id="Grupo_699" data-name="Grupo 699" clip-path="url(#clip-path-3)">
          <g id="Grupo_698" data-name="Grupo 698" transform="translate(276.347 -215.056)">
            <path id="Trazado_994" data-name="Trazado 994" d="M0,0-230.923,5.553l2.2,7.5L-4.033,164.4l-.016-2.74L.037,0Z" fill="#020407"/>
          </g>
        </g>
      </g>
    </g>
    <path id="Trazado_995" data-name="Trazado 995" d="M5.48,0H292.832V-250H5.48Z" transform="translate(848.52 847.089)" fill="none"/>
    <path id="Trazado_996" data-name="Trazado 996" d="M0,0,.944,164.565l-225.972,1.3L-225.972,1.3Z" transform="translate(1119.916 636.29)" fill="#fffcef"/>
    <g id="Grupo_707" data-name="Grupo 707" transform="translate(848.52 847.089)" opacity="0.05">
      <g id="Grupo_706" data-name="Grupo 706">
        <g id="Grupo_705" data-name="Grupo 705" clip-path="url(#clip-path-4)">
          <g id="Grupo_704" data-name="Grupo 704" transform="translate(45.509 -44.038)">
            <path id="Trazado_997" data-name="Trazado 997" d="M0,0,99.646-.376-.679-118.365Z" fill="#020407"/>
          </g>
        </g>
      </g>
    </g>
    <g id="Grupo_711" data-name="Grupo 711" transform="translate(848.52 847.089)" opacity="0.12">
      <g id="Grupo_710" data-name="Grupo 710">
        <g id="Grupo_709" data-name="Grupo 709" clip-path="url(#clip-path-5)">
          <g id="Grupo_708" data-name="Grupo 708" transform="translate(51.206 -162.987)">
            <path id="Trazado_998" data-name="Trazado 998" d="M0,0-6.709.038l.41,71.471L.41,71.471Z" fill="#020407"/>
          </g>
        </g>
      </g>
    </g>
    <g id="Grupo_712" data-name="Grupo 712" transform="translate(873.167 710.575)">
      <path id="Trazado_999" data-name="Trazado 999" d="M0,0,.108,18.831A3.509,3.509,0,0,1-3.371,22.35a3.51,3.51,0,0,1-3.52-3.479L-7,.04a3.512,3.512,0,0,1,3.48-3.52A3.511,3.511,0,0,1,0,0M-.361-11.669l.007,1.109-.747,0c-7.045.04-12.717,6.631-12.671,14.722l.062,10.657c.046,8.09,5.793,14.616,12.837,14.576l.748,0L-.119,30.5c.047,8.09,5.8,14.616,12.839,14.576L26.969,45l-.41-71.47-14.249.081C5.266-26.352-.407-19.76-.361-11.669" fill="#aed5d2"/>
    </g>
    <path id="Trazado_1000" data-name="Trazado 1000" d="M5.48,0H292.832V-250H5.48Z" transform="translate(848.52 847.089)" fill="none"/>
    <path id="Trazado_1013" data-name="Trazado 1013" transform="translate(928.653 656.682)" fill="#2b2e34"/>
    <path id="Trazado_1014" data-name="Trazado 1014" d="M.912,0H1.956V-3.5H2.94c.948.036,1.38.456,1.62,1.572A10.478,10.478,0,0,0,5.1,0H6.18a12.873,12.873,0,0,1-.624-2.22A2.016,2.016,0,0,0,4.368-3.852v-.036A2.124,2.124,0,0,0,5.892-5.952a2.014,2.014,0,0,0-.636-1.536,3.308,3.308,0,0,0-2.34-.66,10.874,10.874,0,0,0-2,.168ZM1.956-7.248a4.3,4.3,0,0,1,1.032-.1c1.1.012,1.86.468,1.86,1.512,0,.924-.708,1.536-1.824,1.536H1.956ZM12.048-2.712a3.983,3.983,0,0,0,.036-.492,2.461,2.461,0,0,0-2.4-2.736C7.992-5.94,6.96-4.56,6.96-2.808A2.7,2.7,0,0,0,9.816.12a4.7,4.7,0,0,0,1.932-.36L11.568-1A3.819,3.819,0,0,1,9.96-.7,1.861,1.861,0,0,1,7.968-2.712ZM7.98-3.468A1.75,1.75,0,0,1,9.6-5.184a1.5,1.5,0,0,1,1.464,1.716ZM17.568,0a8.178,8.178,0,0,1-.1-1.392V-3.564c0-1.164-.432-2.376-2.208-2.376a3.6,3.6,0,0,0-1.908.516l.24.7a2.894,2.894,0,0,1,1.512-.432,1.2,1.2,0,0,1,1.32,1.344v.12c-2.244-.012-3.492.756-3.492,2.16A1.655,1.655,0,0,0,14.712.132a2.163,2.163,0,0,0,1.776-.864h.036L16.608,0ZM16.452-1.956a1.1,1.1,0,0,1-.06.336,1.445,1.445,0,0,1-1.4.972.934.934,0,0,1-1-1.008c0-1.128,1.308-1.332,2.46-1.308ZM19.176,0h1.056V-8.52H19.176Zm3.888,0V-5.808H22.008V0Zm-.528-8.1a.643.643,0,0,0-.66.66.628.628,0,0,0,.636.648.624.624,0,0,0,.672-.648A.627.627,0,0,0,22.536-8.1ZM24.156,0h4.716V-.84h-3.4V-.864c.264-.3.5-.588.744-.912l2.592-3.372.012-.66H24.4v.852H27.54v.024c-.264.312-.5.588-.756.9L24.156-.612Zm9.972,0a8.178,8.178,0,0,1-.1-1.392V-3.564c0-1.164-.432-2.376-2.208-2.376a3.6,3.6,0,0,0-1.908.516l.24.7a2.894,2.894,0,0,1,1.512-.432,1.2,1.2,0,0,1,1.32,1.344v.12c-2.244-.012-3.492.756-3.492,2.16A1.655,1.655,0,0,0,31.272.132a2.163,2.163,0,0,0,1.776-.864h.036L33.168,0ZM33.012-1.956a1.1,1.1,0,0,1-.06.336,1.445,1.445,0,0,1-1.4.972.934.934,0,0,1-1-1.008c0-1.128,1.308-1.332,2.46-1.308ZM35.736,0h1.056V-3.492a1.518,1.518,0,0,1,.072-.492,1.5,1.5,0,0,1,1.416-1.08c1,0,1.344.78,1.344,1.716V0H40.68V-3.468c0-1.992-1.248-2.472-2.052-2.472a2.136,2.136,0,0,0-1.92,1.092h-.024l-.06-.96h-.936c.036.48.048.972.048,1.572Zm10.62-8.52v3.468h-.024A1.942,1.942,0,0,0,44.58-5.94c-1.416,0-2.616,1.188-2.6,3.12,0,1.764,1.08,2.952,2.484,2.952a2.148,2.148,0,0,0,1.98-1.14h.024L46.512,0h.948c-.036-.4-.048-.984-.048-1.5V-8.52Zm0,6.084a1.834,1.834,0,0,1-.048.456A1.587,1.587,0,0,1,44.76-.72c-1.14,0-1.716-.972-1.716-2.148,0-1.284.648-2.244,1.74-2.244a1.553,1.553,0,0,1,1.524,1.224,1.864,1.864,0,0,1,.048.444Zm5.268-3.5a2.836,2.836,0,0,0-2.88,3.084A2.761,2.761,0,0,0,51.528.132,2.839,2.839,0,0,0,54.42-2.952,2.75,2.75,0,0,0,51.624-5.94Zm-.024.792c1.248,0,1.74,1.248,1.74,2.232,0,1.308-.756,2.256-1.764,2.256-1.032,0-1.764-.96-1.764-2.232C49.812-4,50.352-5.148,51.6-5.148ZM62.964-2.712A3.983,3.983,0,0,0,63-3.2,2.461,2.461,0,0,0,60.6-5.94c-1.692,0-2.724,1.38-2.724,3.132A2.7,2.7,0,0,0,60.732.12a4.7,4.7,0,0,0,1.932-.36L62.484-1a3.819,3.819,0,0,1-1.608.3,1.861,1.861,0,0,1-1.992-2.016ZM58.9-3.468a1.75,1.75,0,0,1,1.62-1.716A1.5,1.5,0,0,1,61.98-3.468ZM64.308,0h1.056V-8.52H64.308Zm5.376,2.376h1.044V-.78h.024A2.037,2.037,0,0,0,72.54.132c1.368,0,2.64-1.032,2.64-3.12,0-1.764-1.056-2.952-2.46-2.952a2.283,2.283,0,0,0-2.064,1.128h-.024l-.048-1h-.948c.024.552.048,1.152.048,1.9ZM70.728-3.36a1.713,1.713,0,0,1,.072-.432A1.685,1.685,0,0,1,72.4-5.1c1.116,0,1.728,1,1.728,2.16,0,1.332-.648,2.244-1.764,2.244a1.629,1.629,0,0,1-1.584-1.236,2.378,2.378,0,0,1-.048-.432ZM76.512,0h1.044V-3.1a2.972,2.972,0,0,1,.048-.492A1.481,1.481,0,0,1,79.02-4.944a1.586,1.586,0,0,1,.36.036v-1a1.142,1.142,0,0,0-.3-.036,1.743,1.743,0,0,0-1.608,1.272h-.048l-.036-1.14h-.924c.036.54.048,1.128.048,1.812Zm6.264-5.94A2.836,2.836,0,0,0,79.9-2.856,2.761,2.761,0,0,0,82.68.132a2.839,2.839,0,0,0,2.892-3.084A2.75,2.75,0,0,0,82.776-5.94Zm-.024.792c1.248,0,1.74,1.248,1.74,2.232,0,1.308-.756,2.256-1.764,2.256-1.032,0-1.764-.96-1.764-2.232C80.964-4,81.5-5.148,82.752-5.148Zm8.112,4.14a3,3,0,0,1-1.3.288,1.991,1.991,0,0,1-2.016-2.172,2.01,2.01,0,0,1,2.052-2.2,2.449,2.449,0,0,1,1.224.276l.24-.816a3.53,3.53,0,0,0-1.464-.3,2.951,2.951,0,0,0-3.12,3.084A2.759,2.759,0,0,0,89.376.12a3.89,3.89,0,0,0,1.668-.336Zm6.012-1.7a3.983,3.983,0,0,0,.036-.492,2.461,2.461,0,0,0-2.4-2.736c-1.692,0-2.724,1.38-2.724,3.132A2.7,2.7,0,0,0,94.644.12a4.7,4.7,0,0,0,1.932-.36L96.4-1a3.819,3.819,0,0,1-1.608.3A1.861,1.861,0,0,1,92.8-2.712Zm-4.068-.756a1.75,1.75,0,0,1,1.62-1.716,1.5,1.5,0,0,1,1.464,1.716Zm5,3.192a3.312,3.312,0,0,0,1.632.4c1.38,0,2.172-.72,2.172-1.74,0-.864-.516-1.368-1.524-1.752-.756-.288-1.1-.5-1.1-.984,0-.432.348-.792.972-.792a2.26,2.26,0,0,1,1.188.336l.264-.768a2.9,2.9,0,0,0-1.428-.36,1.791,1.791,0,0,0-2,1.7c0,.7.492,1.272,1.536,1.644.78.288,1.08.564,1.08,1.068,0,.48-.36.864-1.128.864a2.768,2.768,0,0,1-1.392-.42Zm7.62-5.664a2.836,2.836,0,0,0-2.88,3.084A2.761,2.761,0,0,0,105.336.132a2.839,2.839,0,0,0,2.892-3.084A2.75,2.75,0,0,0,105.432-5.94Zm-.024.792c1.248,0,1.74,1.248,1.74,2.232,0,1.308-.756,2.256-1.764,2.256-1.032,0-1.764-.96-1.764-2.232C103.62-4,104.16-5.148,105.408-5.148ZM116.064-8.52v3.468h-.024a1.942,1.942,0,0,0-1.752-.888c-1.416,0-2.616,1.188-2.6,3.12,0,1.764,1.08,2.952,2.484,2.952a2.148,2.148,0,0,0,1.98-1.14h.024L116.22,0h.948c-.036-.4-.048-.984-.048-1.5V-8.52Zm0,6.084a1.835,1.835,0,0,1-.048.456,1.587,1.587,0,0,1-1.548,1.26c-1.14,0-1.716-.972-1.716-2.148,0-1.284.648-2.244,1.74-2.244a1.553,1.553,0,0,1,1.524,1.224,1.864,1.864,0,0,1,.048.444Zm7.476-.276a3.983,3.983,0,0,0,.036-.492,2.461,2.461,0,0,0-2.4-2.736c-1.692,0-2.724,1.38-2.724,3.132A2.7,2.7,0,0,0,121.308.12a4.7,4.7,0,0,0,1.932-.36L123.06-1a3.819,3.819,0,0,1-1.608.3,1.861,1.861,0,0,1-1.992-2.016Zm-4.068-.756a1.75,1.75,0,0,1,1.62-1.716,1.5,1.5,0,0,1,1.464,1.716ZM128.484,0V-5.808h-1.056V0Zm-.528-8.1a.643.643,0,0,0-.66.66.628.628,0,0,0,.636.648.624.624,0,0,0,.672-.648A.627.627,0,0,0,127.956-8.1Zm2.28,8.1h1.056V-3.492a1.518,1.518,0,0,1,.072-.492,1.5,1.5,0,0,1,1.416-1.08c1,0,1.344.78,1.344,1.716V0h1.056V-3.468c0-1.992-1.248-2.472-2.052-2.472a2.136,2.136,0,0,0-1.92,1.092h-.024l-.06-.96h-.936c.036.48.048.972.048,1.572Zm6.252-.276a3.312,3.312,0,0,0,1.632.4c1.38,0,2.172-.72,2.172-1.74,0-.864-.516-1.368-1.524-1.752-.756-.288-1.1-.5-1.1-.984,0-.432.348-.792.972-.792a2.26,2.26,0,0,1,1.188.336l.264-.768a2.9,2.9,0,0,0-1.428-.36,1.791,1.791,0,0,0-2,1.7c0,.7.492,1.272,1.536,1.644.78.288,1.08.564,1.08,1.068,0,.48-.36.864-1.128.864a2.768,2.768,0,0,1-1.392-.42Zm9.12-.732a3,3,0,0,1-1.3.288A1.991,1.991,0,0,1,142.3-2.892a2.01,2.01,0,0,1,2.052-2.2,2.449,2.449,0,0,1,1.224.276l.24-.816a3.53,3.53,0,0,0-1.464-.3,2.951,2.951,0,0,0-3.12,3.084A2.759,2.759,0,0,0,144.12.12a3.89,3.89,0,0,0,1.668-.336ZM147.024,0h1.044V-3.1a2.972,2.972,0,0,1,.048-.492,1.481,1.481,0,0,1,1.416-1.356,1.586,1.586,0,0,1,.36.036v-1a1.142,1.142,0,0,0-.3-.036,1.743,1.743,0,0,0-1.608,1.272h-.048l-.036-1.14h-.924c.036.54.048,1.128.048,1.812Zm5.028,0V-5.808H151V0Zm-.528-8.1a.643.643,0,0,0-.66.66.628.628,0,0,0,.636.648.624.624,0,0,0,.672-.648A.627.627,0,0,0,151.524-8.1ZM153.8,2.376h1.044V-.78h.024a2.037,2.037,0,0,0,1.788.912c1.368,0,2.64-1.032,2.64-3.12,0-1.764-1.056-2.952-2.46-2.952a2.283,2.283,0,0,0-2.064,1.128h-.024l-.048-1h-.948c.024.552.048,1.152.048,1.9Zm1.044-5.736a1.712,1.712,0,0,1,.072-.432,1.685,1.685,0,0,1,1.6-1.308c1.116,0,1.728,1,1.728,2.16,0,1.332-.648,2.244-1.764,2.244A1.629,1.629,0,0,1,154.9-1.932a2.378,2.378,0,0,1-.048-.432Z" transform="translate(946.653 656.682)" fill="#2b2e34"/>
    <path id="Trazado_1015" data-name="Trazado 1015" d="M.36-3.636v.78H3.324v-.78Z" transform="translate(1107.801 656.682)" fill="#2b2e34"/>
    <path id="Trazado_1016" data-name="Trazado 1016" d="M4.836-1.008a3,3,0,0,1-1.3.288A1.991,1.991,0,0,1,1.524-2.892a2.01,2.01,0,0,1,2.052-2.2A2.449,2.449,0,0,1,4.8-4.812l.24-.816a3.53,3.53,0,0,0-1.464-.3A2.951,2.951,0,0,0,.456-2.844,2.759,2.759,0,0,0,3.348.12,3.89,3.89,0,0,0,5.016-.216ZM7.308,0V-5.808H6.252V0ZM6.78-8.1a.643.643,0,0,0-.66.66.628.628,0,0,0,.636.648.624.624,0,0,0,.672-.648A.627.627,0,0,0,6.78-8.1Zm4.74,2.16A2.836,2.836,0,0,0,8.64-2.856,2.761,2.761,0,0,0,11.424.132a2.839,2.839,0,0,0,2.892-3.084A2.75,2.75,0,0,0,11.52-5.94Zm-.024.792c1.248,0,1.74,1.248,1.74,2.232,0,1.308-.756,2.256-1.764,2.256-1.032,0-1.764-.96-1.764-2.232C9.708-4,10.248-5.148,11.5-5.148Zm.4-3.168L10.836-6.6h.756l1.464-1.716ZM15.648,0H16.7V-3.492a1.518,1.518,0,0,1,.072-.492,1.5,1.5,0,0,1,1.416-1.08c1,0,1.344.78,1.344,1.716V0h1.056V-3.468c0-1.992-1.248-2.472-2.052-2.472a2.136,2.136,0,0,0-1.92,1.092H16.6l-.06-.96H15.6c.036.48.048.972.048,1.572ZM29.52-2.712a3.983,3.983,0,0,0,.036-.492,2.461,2.461,0,0,0-2.4-2.736c-1.692,0-2.724,1.38-2.724,3.132A2.7,2.7,0,0,0,27.288.12,4.7,4.7,0,0,0,29.22-.24L29.04-1a3.819,3.819,0,0,1-1.608.3A1.861,1.861,0,0,1,25.44-2.712Zm-4.068-.756a1.75,1.75,0,0,1,1.62-1.716,1.5,1.5,0,0,1,1.464,1.716Zm5,3.192a3.312,3.312,0,0,0,1.632.4c1.38,0,2.172-.72,2.172-1.74,0-.864-.516-1.368-1.524-1.752-.756-.288-1.1-.5-1.1-.984,0-.432.348-.792.972-.792a2.26,2.26,0,0,1,1.188.336l.264-.768a2.9,2.9,0,0,0-1.428-.36,1.791,1.791,0,0,0-2,1.7c0,.7.492,1.272,1.536,1.644.78.288,1.08.564,1.08,1.068,0,.48-.36.864-1.128.864a2.768,2.768,0,0,1-1.392-.42Zm5.4-6.924v1.392h-.9V-5h.9v3.168a2.152,2.152,0,0,0,.408,1.512A1.463,1.463,0,0,0,37.4.12a2.585,2.585,0,0,0,.936-.144l-.048-.792a2.349,2.349,0,0,1-.612.072c-.588,0-.792-.408-.792-1.128V-5H38.4v-.8H36.888V-7.476ZM40.644,0V-5.808H39.588V0Zm-.528-8.1a.643.643,0,0,0-.66.66.628.628,0,0,0,.636.648.624.624,0,0,0,.672-.648A.627.627,0,0,0,40.116-8.1ZM42.4,2.376H43.44V-.78h.024a2.037,2.037,0,0,0,1.788.912c1.368,0,2.64-1.032,2.64-3.12,0-1.764-1.056-2.952-2.46-2.952a2.283,2.283,0,0,0-2.064,1.128h-.024l-.048-1h-.948c.024.552.048,1.152.048,1.9ZM43.44-3.36a1.713,1.713,0,0,1,.072-.432,1.685,1.685,0,0,1,1.6-1.308c1.116,0,1.728,1,1.728,2.16,0,1.332-.648,2.244-1.764,2.244a1.629,1.629,0,0,1-1.584-1.236,2.378,2.378,0,0,1-.048-.432ZM54.084-5.808H53.028v3.564a1.544,1.544,0,0,1-.1.54,1.527,1.527,0,0,1-1.392.96c-.96,0-1.3-.744-1.3-1.848V-5.808H49.188v3.4c0,2.04,1.092,2.544,2,2.544a2.185,2.185,0,0,0,1.92-1.08h.024L53.2,0h.936c-.036-.456-.048-.984-.048-1.584ZM55.836,0h1.056V-8.52H55.836Zm7.008,0a8.177,8.177,0,0,1-.1-1.392V-3.564c0-1.164-.432-2.376-2.208-2.376a3.6,3.6,0,0,0-1.908.516l.24.7a2.894,2.894,0,0,1,1.512-.432A1.2,1.2,0,0,1,61.7-3.816v.12c-2.244-.012-3.492.756-3.492,2.16A1.655,1.655,0,0,0,59.988.132a2.163,2.163,0,0,0,1.776-.864H61.8L61.884,0ZM61.728-1.956a1.1,1.1,0,0,1-.06.336,1.445,1.445,0,0,1-1.4.972.934.934,0,0,1-1-1.008c0-1.128,1.308-1.332,2.46-1.308ZM68.412-8.52v3.468h-.024a1.942,1.942,0,0,0-1.752-.888c-1.416,0-2.616,1.188-2.6,3.12,0,1.764,1.08,2.952,2.484,2.952a2.148,2.148,0,0,0,1.98-1.14h.024L68.568,0h.948c-.036-.4-.048-.984-.048-1.5V-8.52Zm0,6.084a1.835,1.835,0,0,1-.048.456A1.587,1.587,0,0,1,66.816-.72c-1.14,0-1.716-.972-1.716-2.148,0-1.284.648-2.244,1.74-2.244a1.553,1.553,0,0,1,1.524,1.224,1.864,1.864,0,0,1,.048.444Zm5.268-3.5A2.836,2.836,0,0,0,70.8-2.856,2.761,2.761,0,0,0,73.584.132a2.839,2.839,0,0,0,2.892-3.084A2.75,2.75,0,0,0,73.68-5.94Zm-.024.792c1.248,0,1.74,1.248,1.74,2.232,0,1.308-.756,2.256-1.764,2.256-1.032,0-1.764-.96-1.764-2.232C71.868-4,72.408-5.148,73.656-5.148Zm6.7,7.524H81.4V-.78h.024a2.037,2.037,0,0,0,1.788.912c1.368,0,2.64-1.032,2.64-3.12,0-1.764-1.056-2.952-2.46-2.952a2.283,2.283,0,0,0-2.064,1.128H81.3l-.048-1H80.3c.024.552.048,1.152.048,1.9ZM81.4-3.36a1.713,1.713,0,0,1,.072-.432,1.685,1.685,0,0,1,1.6-1.308c1.116,0,1.728,1,1.728,2.16,0,1.332-.648,2.244-1.764,2.244a1.629,1.629,0,0,1-1.584-1.236,2.378,2.378,0,0,1-.048-.432ZM89.64-5.94a2.836,2.836,0,0,0-2.88,3.084A2.761,2.761,0,0,0,89.544.132a2.839,2.839,0,0,0,2.892-3.084A2.75,2.75,0,0,0,89.64-5.94Zm-.024.792c1.248,0,1.74,1.248,1.74,2.232,0,1.308-.756,2.256-1.764,2.256-1.032,0-1.764-.96-1.764-2.232C87.828-4,88.368-5.148,89.616-5.148ZM93.768,0h1.044V-3.1a2.972,2.972,0,0,1,.048-.492,1.481,1.481,0,0,1,1.416-1.356,1.586,1.586,0,0,1,.36.036v-1a1.142,1.142,0,0,0-.3-.036,1.743,1.743,0,0,0-1.608,1.272H94.68l-.036-1.14H93.72c.036.54.048,1.128.048,1.812ZM104.9-2.712a3.983,3.983,0,0,0,.036-.492,2.461,2.461,0,0,0-2.4-2.736c-1.692,0-2.724,1.38-2.724,3.132A2.7,2.7,0,0,0,102.672.12,4.7,4.7,0,0,0,104.6-.24L104.424-1a3.819,3.819,0,0,1-1.608.3,1.861,1.861,0,0,1-1.992-2.016Zm-4.068-.756a1.75,1.75,0,0,1,1.62-1.716,1.5,1.5,0,0,1,1.464,1.716ZM106.248,0H107.3V-8.52h-1.056Zm5-.4a4.18,4.18,0,0,0,2.064.516c1.908,0,2.832-1.08,2.832-2.328,0-1.188-.7-1.848-2.064-2.376-1.116-.432-1.608-.8-1.608-1.56,0-.552.42-1.212,1.524-1.212a3.221,3.221,0,0,1,1.536.384l.288-.852a3.675,3.675,0,0,0-1.788-.4,2.329,2.329,0,0,0-2.616,2.2c0,1.14.816,1.824,2.136,2.292,1.092.42,1.524.852,1.524,1.608,0,.816-.624,1.38-1.692,1.38a3.7,3.7,0,0,1-1.872-.528Zm10.512-4.26H118.62V-7.212h3.324v-.876h-4.368V0h4.548V-.876h-3.5V-3.792h3.144ZM124.464,0V-3.456c0-1.344-.024-2.316-.084-3.336l.036-.012a25.671,25.671,0,0,0,1.512,2.7L128.5,0h1.056V-8.088h-.984V-4.7c0,1.26.024,2.244.12,3.324l-.024.012A22.892,22.892,0,0,0,127.212-4L124.62-8.088h-1.14V0Zm11.088-2.544L136.416,0h1.116l-2.76-8.088h-1.26L130.764,0h1.08l.84-2.544ZM132.9-3.36l.792-2.34c.156-.492.288-.984.408-1.464h.024c.12.468.24.948.42,1.476l.792,2.328ZM139.14.132a.7.7,0,0,0,.72-.756.7.7,0,0,0-.708-.756.709.709,0,0,0-.72.756A.707.707,0,0,0,139.14.132Z" transform="translate(946.653 671.082)" fill="#2b2e34"/>
    <path id="Trazado_1017" data-name="Trazado 1017" transform="translate(928.653 685.482)" fill="#2b2e34"/>
    <path id="Trazado_1018" data-name="Trazado 1018" d="M6.348-1.092a4.179,4.179,0,0,1-1.7.336A2.94,2.94,0,0,1,1.536-4.008,3.007,3.007,0,0,1,4.692-7.344a3.8,3.8,0,0,1,1.632.336l.252-.852a4.335,4.335,0,0,0-1.92-.36A4.025,4.025,0,0,0,.432-3.972a3.78,3.78,0,0,0,4,4.092A5.182,5.182,0,0,0,6.564-.264Zm6.2-4.716H11.5v3.564a1.544,1.544,0,0,1-.1.54,1.527,1.527,0,0,1-1.392.96c-.96,0-1.3-.744-1.3-1.848V-5.808H7.656v3.4c0,2.04,1.092,2.544,2,2.544a2.185,2.185,0,0,0,1.92-1.08H11.6l.06.948H12.6c-.036-.456-.048-.984-.048-1.584ZM14.3,0h1.032V-3.5a1.456,1.456,0,0,1,.084-.516,1.443,1.443,0,0,1,1.308-1.056c.8,0,1.212.672,1.212,1.6V0h1.032V-3.588a1.739,1.739,0,0,1,.084-.528,1.367,1.367,0,0,1,1.248-.96c.852,0,1.26.672,1.26,1.788V0H22.6V-3.42c0-2.016-1.14-2.52-1.908-2.52a1.982,1.982,0,0,0-1.284.408,2.393,2.393,0,0,0-.648.756h-.024A1.717,1.717,0,0,0,17.088-5.94a2,2,0,0,0-1.824,1.068h-.036l-.048-.936h-.924c.036.48.048.972.048,1.572ZM24.312,2.376h1.044V-.78h.024a2.037,2.037,0,0,0,1.788.912c1.368,0,2.64-1.032,2.64-3.12,0-1.764-1.056-2.952-2.46-2.952a2.283,2.283,0,0,0-2.064,1.128H25.26l-.048-1h-.948c.024.552.048,1.152.048,1.9ZM25.356-3.36a1.713,1.713,0,0,1,.072-.432,1.685,1.685,0,0,1,1.6-1.308c1.116,0,1.728,1,1.728,2.16C28.752-1.608,28.1-.7,26.988-.7A1.629,1.629,0,0,1,25.4-1.932a2.378,2.378,0,0,1-.048-.432ZM31.14,0H32.2V-8.52H31.14Zm3.888,0V-5.808H33.972V0ZM34.5-8.1a.643.643,0,0,0-.66.66.628.628,0,0,0,.636.648.624.624,0,0,0,.672-.648A.627.627,0,0,0,34.5-8.1Zm6.948,5.388a3.983,3.983,0,0,0,.036-.492,2.461,2.461,0,0,0-2.4-2.736c-1.692,0-2.724,1.38-2.724,3.132A2.7,2.7,0,0,0,39.216.12a4.7,4.7,0,0,0,1.932-.36L40.968-1a3.819,3.819,0,0,1-1.608.3,1.861,1.861,0,0,1-1.992-2.016ZM37.38-3.468A1.75,1.75,0,0,1,39-5.184a1.5,1.5,0,0,1,1.464,1.716ZM42.792,0h1.056V-3.492a1.518,1.518,0,0,1,.072-.492,1.5,1.5,0,0,1,1.416-1.08c1,0,1.344.78,1.344,1.716V0h1.056V-3.468c0-1.992-1.248-2.472-2.052-2.472a2.136,2.136,0,0,0-1.92,1.092H43.74l-.06-.96h-.936c.036.48.048.972.048,1.572Zm10.62-8.52v3.468h-.024a1.942,1.942,0,0,0-1.752-.888c-1.416,0-2.616,1.188-2.6,3.12,0,1.764,1.08,2.952,2.484,2.952a2.148,2.148,0,0,0,1.98-1.14h.024L53.568,0h.948c-.036-.4-.048-.984-.048-1.5V-8.52Zm0,6.084a1.834,1.834,0,0,1-.048.456A1.587,1.587,0,0,1,51.816-.72c-1.14,0-1.716-.972-1.716-2.148,0-1.284.648-2.244,1.74-2.244a1.553,1.553,0,0,1,1.524,1.224,1.864,1.864,0,0,1,.048.444Zm5.268-3.5A2.836,2.836,0,0,0,55.8-2.856,2.761,2.761,0,0,0,58.584.132a2.839,2.839,0,0,0,2.892-3.084A2.75,2.75,0,0,0,58.68-5.94Zm-.024.792c1.248,0,1.74,1.248,1.74,2.232,0,1.308-.756,2.256-1.764,2.256-1.032,0-1.764-.96-1.764-2.232C56.868-4,57.408-5.148,58.656-5.148Zm10.656,4.14a3,3,0,0,1-1.3.288A1.991,1.991,0,0,1,66-2.892a2.01,2.01,0,0,1,2.052-2.2,2.449,2.449,0,0,1,1.224.276l.24-.816a3.53,3.53,0,0,0-1.464-.3,2.951,2.951,0,0,0-3.12,3.084A2.759,2.759,0,0,0,67.824.12a3.89,3.89,0,0,0,1.668-.336Zm3.8-4.932a2.836,2.836,0,0,0-2.88,3.084A2.761,2.761,0,0,0,73.02.132a2.839,2.839,0,0,0,2.892-3.084A2.75,2.75,0,0,0,73.116-5.94Zm-.024.792c1.248,0,1.74,1.248,1.74,2.232,0,1.308-.756,2.256-1.764,2.256-1.032,0-1.764-.96-1.764-2.232C71.3-4,71.844-5.148,73.092-5.148ZM77.244,0H78.3V-3.492a1.518,1.518,0,0,1,.072-.492,1.5,1.5,0,0,1,1.416-1.08c1,0,1.344.78,1.344,1.716V0h1.056V-3.468c0-1.992-1.248-2.472-2.052-2.472a2.136,2.136,0,0,0-1.92,1.092h-.024l-.06-.96H77.2c.036.48.048.972.048,1.572Zm9.2,0H87.5V-8.52H86.448Zm7.008,0a8.178,8.178,0,0,1-.1-1.392V-3.564c0-1.164-.432-2.376-2.208-2.376a3.6,3.6,0,0,0-1.908.516l.24.7A2.894,2.894,0,0,1,91-5.16a1.2,1.2,0,0,1,1.32,1.344v.12c-2.244-.012-3.492.756-3.492,2.16A1.655,1.655,0,0,0,90.6.132a2.163,2.163,0,0,0,1.776-.864h.036L92.5,0ZM92.34-1.956a1.1,1.1,0,0,1-.06.336,1.445,1.445,0,0,1-1.4.972.934.934,0,0,1-1-1.008c0-1.128,1.308-1.332,2.46-1.308Zm9.936-.756a3.983,3.983,0,0,0,.036-.492,2.461,2.461,0,0,0-2.4-2.736c-1.692,0-2.724,1.38-2.724,3.132A2.7,2.7,0,0,0,100.044.12a4.7,4.7,0,0,0,1.932-.36L101.8-1a3.819,3.819,0,0,1-1.608.3A1.861,1.861,0,0,1,98.2-2.712Zm-4.068-.756a1.75,1.75,0,0,1,1.62-1.716,1.5,1.5,0,0,1,1.464,1.716ZM103.62,0h1.056V-3.492a1.518,1.518,0,0,1,.072-.492,1.5,1.5,0,0,1,1.416-1.08c1,0,1.344.78,1.344,1.716V0h1.056V-3.468c0-1.992-1.248-2.472-2.052-2.472a2.136,2.136,0,0,0-1.92,1.092h-.024l-.06-.96h-.936c.036.48.048.972.048,1.572Zm6.852-7.2v1.392h-.9V-5h.9v3.168a2.152,2.152,0,0,0,.408,1.512,1.463,1.463,0,0,0,1.14.444,2.585,2.585,0,0,0,.936-.144l-.048-.792a2.349,2.349,0,0,1-.612.072c-.588,0-.792-.408-.792-1.128V-5h1.512v-.8H111.5V-7.476ZM114.2,0h1.044V-3.1a2.972,2.972,0,0,1,.048-.492,1.481,1.481,0,0,1,1.416-1.356,1.586,1.586,0,0,1,.36.036v-1a1.142,1.142,0,0,0-.3-.036,1.743,1.743,0,0,0-1.608,1.272h-.048l-.036-1.14h-.924c.036.54.048,1.128.048,1.812Zm8.472-2.712a3.983,3.983,0,0,0,.036-.492,2.461,2.461,0,0,0-2.4-2.736c-1.692,0-2.724,1.38-2.724,3.132A2.7,2.7,0,0,0,120.444.12a4.7,4.7,0,0,0,1.932-.36L122.2-1a3.819,3.819,0,0,1-1.608.3A1.861,1.861,0,0,1,118.6-2.712Zm-4.068-.756a1.75,1.75,0,0,1,1.62-1.716,1.5,1.5,0,0,1,1.464,1.716Zm9.492-2.34-.048.876h-.024a1.932,1.932,0,0,0-1.812-1.008A2.788,2.788,0,0,0,123.6-2.856a2.6,2.6,0,0,0,2.472,2.832A2.073,2.073,0,0,0,127.92-1h.024v.648c0,1.464-.792,2.028-1.872,2.028a3.275,3.275,0,0,1-1.7-.456l-.264.8a3.749,3.749,0,0,0,1.932.48,3.079,3.079,0,0,0,2.112-.7,3.34,3.34,0,0,0,.828-2.652V-4.212c0-.708.024-1.176.048-1.6Zm-.168,3.336a1.837,1.837,0,0,1-.084.564,1.544,1.544,0,0,1-1.464,1.08c-1.14,0-1.716-.948-1.716-2.088,0-1.344.72-2.2,1.728-2.2A1.521,1.521,0,0,1,127.872-4a1.5,1.5,0,0,1,.06.48ZM134.9,0a8.177,8.177,0,0,1-.1-1.392V-3.564c0-1.164-.432-2.376-2.208-2.376a3.6,3.6,0,0,0-1.908.516l.24.7a2.894,2.894,0,0,1,1.512-.432,1.2,1.2,0,0,1,1.32,1.344v.12c-2.244-.012-3.492.756-3.492,2.16A1.655,1.655,0,0,0,132.048.132a2.163,2.163,0,0,0,1.776-.864h.036l.084.732Zm-1.116-1.956a1.1,1.1,0,0,1-.06.336,1.445,1.445,0,0,1-1.4.972.934.934,0,0,1-1-1.008c0-1.128,1.308-1.332,2.46-1.308Zm9.228-6.564v3.468h-.024a1.942,1.942,0,0,0-1.752-.888c-1.416,0-2.616,1.188-2.6,3.12,0,1.764,1.08,2.952,2.484,2.952a2.148,2.148,0,0,0,1.98-1.14h.024L143.172,0h.948c-.036-.4-.048-.984-.048-1.5V-8.52Zm0,6.084a1.834,1.834,0,0,1-.048.456A1.587,1.587,0,0,1,141.42-.72c-1.14,0-1.716-.972-1.716-2.148,0-1.284.648-2.244,1.74-2.244a1.553,1.553,0,0,1,1.524,1.224,1.864,1.864,0,0,1,.048.444Zm7.476-.276a3.984,3.984,0,0,0,.036-.492,2.461,2.461,0,0,0-2.4-2.736c-1.692,0-2.724,1.38-2.724,3.132A2.7,2.7,0,0,0,148.26.12a4.7,4.7,0,0,0,1.932-.36L150.012-1a3.819,3.819,0,0,1-1.608.3,1.861,1.861,0,0,1-1.992-2.016Zm-4.068-.756a1.75,1.75,0,0,1,1.62-1.716,1.5,1.5,0,0,1,1.464,1.716Z" transform="translate(946.653 685.482)" fill="#2b2e34"/>
    <path id="Trazado_1019" data-name="Trazado 1019" d="M5.544-2.712A3.983,3.983,0,0,0,5.58-3.2,2.461,2.461,0,0,0,3.18-5.94C1.488-5.94.456-4.56.456-2.808A2.7,2.7,0,0,0,3.312.12,4.7,4.7,0,0,0,5.244-.24L5.064-1a3.819,3.819,0,0,1-1.608.3A1.861,1.861,0,0,1,1.464-2.712ZM1.476-3.468A1.75,1.75,0,0,1,3.1-5.184,1.5,1.5,0,0,1,4.56-3.468Zm4.692-2.34L8.376,0H9.384l2.28-5.808h-1.1L9.432-2.544c-.192.528-.36,1.008-.492,1.488H8.9a14.936,14.936,0,0,0-.468-1.488L7.3-5.808ZM13.716,0V-5.808H12.66V0Zm-.528-8.1a.643.643,0,0,0-.66.66.628.628,0,0,0,.636.648.624.624,0,0,0,.672-.648A.627.627,0,0,0,13.188-8.1Zm6.24-.42v3.468H19.4a1.942,1.942,0,0,0-1.752-.888c-1.416,0-2.616,1.188-2.6,3.12,0,1.764,1.08,2.952,2.484,2.952a2.148,2.148,0,0,0,1.98-1.14h.024L19.584,0h.948c-.036-.4-.048-.984-.048-1.5V-8.52Zm0,6.084a1.834,1.834,0,0,1-.048.456A1.587,1.587,0,0,1,17.832-.72c-1.14,0-1.716-.972-1.716-2.148,0-1.284.648-2.244,1.74-2.244A1.553,1.553,0,0,1,19.38-3.888a1.864,1.864,0,0,1,.048.444ZM26.9-2.712A3.983,3.983,0,0,0,26.94-3.2a2.461,2.461,0,0,0-2.4-2.736c-1.692,0-2.724,1.38-2.724,3.132A2.7,2.7,0,0,0,24.672.12,4.7,4.7,0,0,0,26.6-.24L26.424-1a3.819,3.819,0,0,1-1.608.3,1.861,1.861,0,0,1-1.992-2.016Zm-4.068-.756a1.75,1.75,0,0,1,1.62-1.716A1.5,1.5,0,0,1,25.92-3.468ZM28.248,0H29.3V-3.492a1.518,1.518,0,0,1,.072-.492,1.5,1.5,0,0,1,1.416-1.08c1,0,1.344.78,1.344,1.716V0h1.056V-3.468c0-1.992-1.248-2.472-2.052-2.472a2.136,2.136,0,0,0-1.92,1.092H29.2l-.06-.96H28.2c.036.48.048.972.048,1.572Zm10.62-1.008a3,3,0,0,1-1.3.288,1.991,1.991,0,0,1-2.016-2.172,2.01,2.01,0,0,1,2.052-2.2,2.449,2.449,0,0,1,1.224.276l.24-.816a3.53,3.53,0,0,0-1.464-.3,2.951,2.951,0,0,0-3.12,3.084A2.759,2.759,0,0,0,37.38.12a3.89,3.89,0,0,0,1.668-.336ZM41.34,0V-5.808H40.284V0Zm-.528-8.1a.643.643,0,0,0-.66.66.628.628,0,0,0,.636.648.624.624,0,0,0,.672-.648A.627.627,0,0,0,40.812-8.1ZM47.268,0a8.177,8.177,0,0,1-.1-1.392V-3.564c0-1.164-.432-2.376-2.208-2.376a3.6,3.6,0,0,0-1.908.516l.24.7a2.894,2.894,0,0,1,1.512-.432,1.2,1.2,0,0,1,1.32,1.344v.12c-2.244-.012-3.492.756-3.492,2.16A1.655,1.655,0,0,0,44.412.132a2.163,2.163,0,0,0,1.776-.864h.036L46.308,0ZM46.152-1.956a1.1,1.1,0,0,1-.06.336,1.445,1.445,0,0,1-1.4.972.934.934,0,0,1-1-1.008c0-1.128,1.308-1.332,2.46-1.308Zm2.316,1.68A3.312,3.312,0,0,0,50.1.12c1.38,0,2.172-.72,2.172-1.74,0-.864-.516-1.368-1.524-1.752-.756-.288-1.1-.5-1.1-.984,0-.432.348-.792.972-.792a2.26,2.26,0,0,1,1.188.336l.264-.768a2.9,2.9,0,0,0-1.428-.36,1.791,1.791,0,0,0-2,1.7c0,.7.492,1.272,1.536,1.644.78.288,1.08.564,1.08,1.068,0,.48-.36.864-1.128.864a2.768,2.768,0,0,1-1.392-.42ZM60.84-2.712a3.983,3.983,0,0,0,.036-.492,2.461,2.461,0,0,0-2.4-2.736c-1.692,0-2.724,1.38-2.724,3.132A2.7,2.7,0,0,0,58.608.12,4.7,4.7,0,0,0,60.54-.24L60.36-1a3.819,3.819,0,0,1-1.608.3A1.861,1.861,0,0,1,56.76-2.712Zm-4.068-.756a1.75,1.75,0,0,1,1.62-1.716,1.5,1.5,0,0,1,1.464,1.716Zm4.692-2.34,1.968,2.844L61.368,0h1.164l.84-1.308c.216-.348.42-.66.612-1.008h.024c.2.348.4.672.624,1.008L65.484,0h1.2l-2.04-3,1.98-2.808h-1.14l-.816,1.236c-.192.312-.384.612-.576.96h-.036c-.192-.324-.372-.624-.588-.948L62.64-5.808ZM68.76,0V-5.808H67.7V0Zm-.528-8.1a.643.643,0,0,0-.66.66.628.628,0,0,0,.636.648.624.624,0,0,0,.672-.648A.627.627,0,0,0,68.232-8.1Zm6.36,2.292-.048.876H74.52A1.932,1.932,0,0,0,72.708-5.94a2.788,2.788,0,0,0-2.616,3.084A2.6,2.6,0,0,0,72.564-.024,2.073,2.073,0,0,0,74.412-1h.024v.648c0,1.464-.792,2.028-1.872,2.028a3.275,3.275,0,0,1-1.7-.456l-.264.8a3.749,3.749,0,0,0,1.932.48,3.079,3.079,0,0,0,2.112-.7A3.34,3.34,0,0,0,75.468-.84V-4.212c0-.708.024-1.176.048-1.6Zm-.168,3.336a1.837,1.837,0,0,1-.084.564,1.544,1.544,0,0,1-1.464,1.08c-1.14,0-1.716-.948-1.716-2.088,0-1.344.72-2.2,1.728-2.2A1.521,1.521,0,0,1,74.364-4a1.5,1.5,0,0,1,.06.48ZM78.2,0V-5.808H77.148V0Zm-.528-8.1a.643.643,0,0,0-.66.66.628.628,0,0,0,.636.648.624.624,0,0,0,.672-.648A.627.627,0,0,0,77.676-8.1Zm6.24-.42v3.468h-.024A1.942,1.942,0,0,0,82.14-5.94c-1.416,0-2.616,1.188-2.6,3.12,0,1.764,1.08,2.952,2.484,2.952A2.148,2.148,0,0,0,84-1.008h.024L84.072,0h.948c-.036-.4-.048-.984-.048-1.5V-8.52Zm0,6.084a1.835,1.835,0,0,1-.048.456A1.587,1.587,0,0,1,82.32-.72c-1.14,0-1.716-.972-1.716-2.148,0-1.284.648-2.244,1.74-2.244a1.553,1.553,0,0,1,1.524,1.224,1.864,1.864,0,0,1,.048.444Zm5.268-3.5A2.836,2.836,0,0,0,86.3-2.856,2.761,2.761,0,0,0,89.088.132,2.839,2.839,0,0,0,91.98-2.952,2.75,2.75,0,0,0,89.184-5.94Zm-.024.792c1.248,0,1.74,1.248,1.74,2.232,0,1.308-.756,2.256-1.764,2.256-1.032,0-1.764-.96-1.764-2.232C87.372-4,87.912-5.148,89.16-5.148ZM92.9-.276a3.312,3.312,0,0,0,1.632.4c1.38,0,2.172-.72,2.172-1.74,0-.864-.516-1.368-1.524-1.752-.756-.288-1.1-.5-1.1-.984,0-.432.348-.792.972-.792a2.26,2.26,0,0,1,1.188.336L96.5-5.58a2.9,2.9,0,0,0-1.428-.36,1.791,1.791,0,0,0-2,1.7c0,.7.492,1.272,1.536,1.644.78.288,1.08.564,1.08,1.068,0,.48-.36.864-1.128.864a2.768,2.768,0,0,1-1.392-.42Zm7.7,2.652h1.044V-.78h.024a2.037,2.037,0,0,0,1.788.912c1.368,0,2.64-1.032,2.64-3.12,0-1.764-1.056-2.952-2.46-2.952a2.283,2.283,0,0,0-2.064,1.128h-.024l-.048-1h-.948c.024.552.048,1.152.048,1.9Zm1.044-5.736a1.713,1.713,0,0,1,.072-.432,1.685,1.685,0,0,1,1.6-1.308c1.116,0,1.728,1,1.728,2.16,0,1.332-.648,2.244-1.764,2.244A1.629,1.629,0,0,1,101.7-1.932a2.378,2.378,0,0,1-.048-.432ZM109.9-5.94a2.836,2.836,0,0,0-2.88,3.084A2.761,2.761,0,0,0,109.8.132a2.839,2.839,0,0,0,2.892-3.084A2.75,2.75,0,0,0,109.9-5.94Zm-.024.792c1.248,0,1.74,1.248,1.74,2.232,0,1.308-.756,2.256-1.764,2.256-1.032,0-1.764-.96-1.764-2.232C108.084-4,108.624-5.148,109.872-5.148ZM114.024,0h1.044V-3.1a2.972,2.972,0,0,1,.048-.492,1.481,1.481,0,0,1,1.416-1.356,1.586,1.586,0,0,1,.36.036v-1a1.142,1.142,0,0,0-.3-.036,1.743,1.743,0,0,0-1.608,1.272h-.048l-.036-1.14h-.924c.036.54.048,1.128.048,1.812ZM125.16-2.712A3.983,3.983,0,0,0,125.2-3.2a2.461,2.461,0,0,0-2.4-2.736c-1.692,0-2.724,1.38-2.724,3.132A2.7,2.7,0,0,0,122.928.12a4.7,4.7,0,0,0,1.932-.36L124.68-1a3.819,3.819,0,0,1-1.608.3,1.861,1.861,0,0,1-1.992-2.016Zm-4.068-.756a1.75,1.75,0,0,1,1.62-1.716,1.5,1.5,0,0,1,1.464,1.716ZM126.5,0h1.056V-8.52H126.5Zm5-.4a4.18,4.18,0,0,0,2.064.516c1.908,0,2.832-1.08,2.832-2.328,0-1.188-.7-1.848-2.064-2.376-1.116-.432-1.608-.8-1.608-1.56,0-.552.42-1.212,1.524-1.212a3.221,3.221,0,0,1,1.536.384l.288-.852a3.675,3.675,0,0,0-1.788-.4,2.329,2.329,0,0,0-2.616,2.2c0,1.14.816,1.824,2.136,2.292,1.092.42,1.524.852,1.524,1.608,0,.816-.624,1.38-1.692,1.38a3.7,3.7,0,0,1-1.872-.528Zm10.512-4.26h-3.144V-7.212H142.2v-.876h-4.368V0h4.548V-.876h-3.5V-3.792h3.144ZM144.72,0V-3.456c0-1.344-.024-2.316-.084-3.336l.036-.012a25.671,25.671,0,0,0,1.512,2.7L148.752,0h1.056V-8.088h-.984V-4.7c0,1.26.024,2.244.12,3.324l-.024.012A22.892,22.892,0,0,0,147.468-4l-2.592-4.092h-1.14V0Zm11.088-2.544L156.672,0h1.116l-2.76-8.088h-1.26L151.02,0h1.08l.84-2.544Zm-2.652-.816.792-2.34c.156-.492.288-.984.408-1.464h.024c.12.468.24.948.42,1.476l.792,2.328Z" transform="translate(946.653 699.882)" fill="#2b2e34"/>
    <path id="Trazado_1020" data-name="Trazado 1020" d="M.876,2.376H1.92V-.78h.024A2.037,2.037,0,0,0,3.732.132C5.1.132,6.372-.9,6.372-2.988c0-1.764-1.056-2.952-2.46-2.952A2.283,2.283,0,0,0,1.848-4.812H1.824l-.048-1H.828c.024.552.048,1.152.048,1.9ZM1.92-3.36a1.713,1.713,0,0,1,.072-.432A1.685,1.685,0,0,1,3.588-5.1c1.116,0,1.728,1,1.728,2.16C5.316-1.608,4.668-.7,3.552-.7A1.629,1.629,0,0,1,1.968-1.932a2.378,2.378,0,0,1-.048-.432ZM11.88,0a8.178,8.178,0,0,1-.1-1.392V-3.564c0-1.164-.432-2.376-2.208-2.376a3.6,3.6,0,0,0-1.908.516l.24.7A2.894,2.894,0,0,1,9.42-5.16a1.2,1.2,0,0,1,1.32,1.344v.12C8.5-3.708,7.248-2.94,7.248-1.536A1.655,1.655,0,0,0,9.024.132,2.163,2.163,0,0,0,10.8-.732h.036L10.92,0ZM10.764-1.956a1.1,1.1,0,0,1-.06.336,1.445,1.445,0,0,1-1.4.972.934.934,0,0,1-1-1.008c0-1.128,1.308-1.332,2.46-1.308ZM13.488,0h1.044V-3.1a2.972,2.972,0,0,1,.048-.492A1.481,1.481,0,0,1,16-4.944a1.586,1.586,0,0,1,.36.036v-1a1.142,1.142,0,0,0-.3-.036,1.743,1.743,0,0,0-1.608,1.272H14.4l-.036-1.14H13.44c.036.54.048,1.128.048,1.812Zm8.04,0a8.178,8.178,0,0,1-.1-1.392V-3.564c0-1.164-.432-2.376-2.208-2.376a3.6,3.6,0,0,0-1.908.516l.24.7a2.894,2.894,0,0,1,1.512-.432,1.2,1.2,0,0,1,1.32,1.344v.12c-2.244-.012-3.492.756-3.492,2.16A1.655,1.655,0,0,0,18.672.132a2.163,2.163,0,0,0,1.776-.864h.036L20.568,0ZM20.412-1.956a1.1,1.1,0,0,1-.06.336,1.445,1.445,0,0,1-1.4.972.934.934,0,0,1-1-1.008c0-1.128,1.308-1.332,2.46-1.308Zm9.228.948a3,3,0,0,1-1.3.288,1.991,1.991,0,0,1-2.016-2.172,2.01,2.01,0,0,1,2.052-2.2,2.449,2.449,0,0,1,1.224.276l.24-.816a3.53,3.53,0,0,0-1.464-.3,2.951,2.951,0,0,0-3.12,3.084A2.759,2.759,0,0,0,28.152.12,3.89,3.89,0,0,0,29.82-.216ZM35.232,0a8.177,8.177,0,0,1-.1-1.392V-3.564c0-1.164-.432-2.376-2.208-2.376a3.6,3.6,0,0,0-1.908.516l.24.7a2.894,2.894,0,0,1,1.512-.432,1.2,1.2,0,0,1,1.32,1.344v.12c-2.244-.012-3.492.756-3.492,2.16A1.655,1.655,0,0,0,32.376.132a2.163,2.163,0,0,0,1.776-.864h.036L34.272,0ZM34.116-1.956a1.1,1.1,0,0,1-.06.336,1.445,1.445,0,0,1-1.4.972.934.934,0,0,1-1-1.008c0-1.128,1.308-1.332,2.46-1.308ZM40.8-8.52v3.468h-.024a1.942,1.942,0,0,0-1.752-.888c-1.416,0-2.616,1.188-2.6,3.12C36.42-1.056,37.5.132,38.9.132a2.148,2.148,0,0,0,1.98-1.14h.024L40.956,0H41.9c-.036-.4-.048-.984-.048-1.5V-8.52Zm0,6.084a1.834,1.834,0,0,1-.048.456A1.587,1.587,0,0,1,39.2-.72c-1.14,0-1.716-.972-1.716-2.148,0-1.284.648-2.244,1.74-2.244a1.553,1.553,0,0,1,1.524,1.224,1.864,1.864,0,0,1,.048.444ZM47.784,0a8.177,8.177,0,0,1-.1-1.392V-3.564c0-1.164-.432-2.376-2.208-2.376a3.6,3.6,0,0,0-1.908.516l.24.7a2.894,2.894,0,0,1,1.512-.432,1.2,1.2,0,0,1,1.32,1.344v.12c-2.244-.012-3.492.756-3.492,2.16A1.655,1.655,0,0,0,44.928.132,2.163,2.163,0,0,0,46.7-.732h.036L46.824,0ZM46.668-1.956a1.1,1.1,0,0,1-.06.336,1.445,1.445,0,0,1-1.4.972.934.934,0,0,1-1-1.008c0-1.128,1.308-1.332,2.46-1.308ZM56.8-5.808H55.74v3.564a1.544,1.544,0,0,1-.1.54,1.527,1.527,0,0,1-1.392.96c-.96,0-1.3-.744-1.3-1.848V-5.808H51.9v3.4c0,2.04,1.092,2.544,2,2.544a2.185,2.185,0,0,0,1.92-1.08h.024l.06.948h.936c-.036-.456-.048-.984-.048-1.584ZM58.548,0H59.6V-3.492a1.518,1.518,0,0,1,.072-.492,1.5,1.5,0,0,1,1.416-1.08c1,0,1.344.78,1.344,1.716V0h1.056V-3.468c0-1.992-1.248-2.472-2.052-2.472a2.136,2.136,0,0,0-1.92,1.092H59.5l-.06-.96H58.5c.036.48.048.972.048,1.572Zm9.12-5.94a2.836,2.836,0,0,0-2.88,3.084A2.761,2.761,0,0,0,67.572.132a2.839,2.839,0,0,0,2.892-3.084A2.75,2.75,0,0,0,67.668-5.94Zm-.024.792c1.248,0,1.74,1.248,1.74,2.232,0,1.308-.756,2.256-1.764,2.256-1.032,0-1.764-.96-1.764-2.232C65.856-4,66.4-5.148,67.644-5.148ZM78.3-8.52v3.468h-.024a1.942,1.942,0,0,0-1.752-.888c-1.416,0-2.616,1.188-2.6,3.12C73.92-1.056,75,.132,76.4.132a2.148,2.148,0,0,0,1.98-1.14h.024L78.456,0H79.4c-.036-.4-.048-.984-.048-1.5V-8.52Zm0,6.084a1.835,1.835,0,0,1-.048.456A1.587,1.587,0,0,1,76.7-.72c-1.14,0-1.716-.972-1.716-2.148,0-1.284.648-2.244,1.74-2.244a1.553,1.553,0,0,1,1.524,1.224,1.864,1.864,0,0,1,.048.444Zm7.476-.276a3.983,3.983,0,0,0,.036-.492,2.461,2.461,0,0,0-2.4-2.736c-1.692,0-2.724,1.38-2.724,3.132A2.7,2.7,0,0,0,83.544.12a4.7,4.7,0,0,0,1.932-.36L85.3-1a3.819,3.819,0,0,1-1.608.3A1.861,1.861,0,0,1,81.7-2.712Zm-4.068-.756a1.75,1.75,0,0,1,1.62-1.716,1.5,1.5,0,0,1,1.464,1.716ZM89.664,0H90.72V-8.52H89.664Zm5.292-5.94a2.836,2.836,0,0,0-2.88,3.084A2.761,2.761,0,0,0,94.86.132a2.839,2.839,0,0,0,2.892-3.084A2.75,2.75,0,0,0,94.956-5.94Zm-.024.792c1.248,0,1.74,1.248,1.74,2.232,0,1.308-.756,2.256-1.764,2.256-1.032,0-1.764-.96-1.764-2.232C93.144-4,93.684-5.148,94.932-5.148ZM98.676-.276a3.312,3.312,0,0,0,1.632.4c1.38,0,2.172-.72,2.172-1.74,0-.864-.516-1.368-1.524-1.752-.756-.288-1.1-.5-1.1-.984,0-.432.348-.792.972-.792a2.26,2.26,0,0,1,1.188.336l.264-.768a2.9,2.9,0,0,0-1.428-.36,1.791,1.791,0,0,0-2,1.7c0,.7.492,1.272,1.536,1.644.78.288,1.08.564,1.08,1.068,0,.48-.36.864-1.128.864a2.768,2.768,0,0,1-1.392-.42Zm7.7.276h1.032V-3.5a1.456,1.456,0,0,1,.084-.516A1.443,1.443,0,0,1,108.8-5.076c.8,0,1.212.672,1.212,1.6V0h1.032V-3.588a1.739,1.739,0,0,1,.084-.528,1.367,1.367,0,0,1,1.248-.96c.852,0,1.26.672,1.26,1.788V0h1.032V-3.42c0-2.016-1.14-2.52-1.908-2.52a1.982,1.982,0,0,0-1.284.408,2.393,2.393,0,0,0-.648.756h-.024a1.717,1.717,0,0,0-1.644-1.164,2,2,0,0,0-1.824,1.068H107.3l-.048-.936h-.924c.036.48.048.972.048,1.572Zm12.468-5.94a2.836,2.836,0,0,0-2.88,3.084A2.761,2.761,0,0,0,118.752.132a2.839,2.839,0,0,0,2.892-3.084A2.75,2.75,0,0,0,118.848-5.94Zm-.024.792c1.248,0,1.74,1.248,1.74,2.232,0,1.308-.756,2.256-1.764,2.256-1.032,0-1.764-.96-1.764-2.232C117.036-4,117.576-5.148,118.824-5.148Zm.4-3.168L118.164-6.6h.756l1.464-1.716Zm7.716-.2v3.468h-.024a1.942,1.942,0,0,0-1.752-.888c-1.416,0-2.616,1.188-2.6,3.12,0,1.764,1.08,2.952,2.484,2.952a2.148,2.148,0,0,0,1.98-1.14h.024L127.092,0h.948c-.036-.4-.048-.984-.048-1.5V-8.52Zm0,6.084a1.835,1.835,0,0,1-.048.456A1.587,1.587,0,0,1,125.34-.72c-1.14,0-1.716-.972-1.716-2.148,0-1.284.648-2.244,1.74-2.244a1.553,1.553,0,0,1,1.524,1.224,1.864,1.864,0,0,1,.048.444ZM134.6-5.808h-1.056v3.564a1.544,1.544,0,0,1-.1.54,1.527,1.527,0,0,1-1.392.96c-.96,0-1.3-.744-1.3-1.848V-5.808h-1.056v3.4c0,2.04,1.092,2.544,2,2.544a2.185,2.185,0,0,0,1.92-1.08h.024l.06.948h.936c-.036-.456-.048-.984-.048-1.584ZM136.356,0h1.056V-8.52h-1.056Zm5.292-5.94a2.836,2.836,0,0,0-2.88,3.084A2.761,2.761,0,0,0,141.552.132a2.839,2.839,0,0,0,2.892-3.084A2.75,2.75,0,0,0,141.648-5.94Zm-.024.792c1.248,0,1.74,1.248,1.74,2.232,0,1.308-.756,2.256-1.764,2.256-1.032,0-1.764-.96-1.764-2.232C139.836-4,140.376-5.148,141.624-5.148Zm3.744,4.872A3.312,3.312,0,0,0,147,.12c1.38,0,2.172-.72,2.172-1.74,0-.864-.516-1.368-1.524-1.752-.756-.288-1.1-.5-1.1-.984,0-.432.348-.792.972-.792a2.26,2.26,0,0,1,1.188.336l.264-.768a2.9,2.9,0,0,0-1.428-.36,1.791,1.791,0,0,0-2,1.7c0,.7.492,1.272,1.536,1.644.78.288,1.08.564,1.08,1.068,0,.48-.36.864-1.128.864a2.768,2.768,0,0,1-1.392-.42ZM157.032-8.52v3.468h-.024a1.942,1.942,0,0,0-1.752-.888c-1.416,0-2.616,1.188-2.6,3.12,0,1.764,1.08,2.952,2.484,2.952a2.148,2.148,0,0,0,1.98-1.14h.024L157.188,0h.948c-.036-.4-.048-.984-.048-1.5V-8.52Zm0,6.084a1.834,1.834,0,0,1-.048.456,1.587,1.587,0,0,1-1.548,1.26c-1.14,0-1.716-.972-1.716-2.148,0-1.284.648-2.244,1.74-2.244a1.553,1.553,0,0,1,1.524,1.224,1.864,1.864,0,0,1,.048.444Zm7.476-.276a3.984,3.984,0,0,0,.036-.492,2.461,2.461,0,0,0-2.4-2.736c-1.692,0-2.724,1.38-2.724,3.132A2.7,2.7,0,0,0,162.276.12a4.7,4.7,0,0,0,1.932-.36L164.028-1a3.819,3.819,0,0,1-1.608.3,1.861,1.861,0,0,1-1.992-2.016Zm-4.068-.756a1.75,1.75,0,0,1,1.62-1.716,1.5,1.5,0,0,1,1.464,1.716ZM165.852,0h1.056V-8.52h-1.056Z" transform="translate(946.653 714.282)" fill="#2b2e34"/>
    <path id="Trazado_1021" data-name="Trazado 1021" d="M4.836-1.008a3,3,0,0,1-1.3.288A1.991,1.991,0,0,1,1.524-2.892a2.01,2.01,0,0,1,2.052-2.2A2.449,2.449,0,0,1,4.8-4.812l.24-.816a3.53,3.53,0,0,0-1.464-.3A2.951,2.951,0,0,0,.456-2.844,2.759,2.759,0,0,0,3.348.12,3.89,3.89,0,0,0,5.016-.216Zm6.276-4.8H10.056v3.564a1.544,1.544,0,0,1-.1.54,1.527,1.527,0,0,1-1.392.96c-.96,0-1.3-.744-1.3-1.848V-5.808H6.216v3.4c0,2.04,1.092,2.544,2,2.544a2.185,2.185,0,0,0,1.92-1.08h.024l.06.948h.936c-.036-.456-.048-.984-.048-1.584ZM12.864,0h1.044V-3.1a2.972,2.972,0,0,1,.048-.492,1.481,1.481,0,0,1,1.416-1.356,1.586,1.586,0,0,1,.36.036v-1a1.142,1.142,0,0,0-.3-.036,1.743,1.743,0,0,0-1.608,1.272h-.048l-.036-1.14h-.924c.036.54.048,1.128.048,1.812ZM16.38-.276a3.312,3.312,0,0,0,1.632.4c1.38,0,2.172-.72,2.172-1.74,0-.864-.516-1.368-1.524-1.752-.756-.288-1.1-.5-1.1-.984,0-.432.348-.792.972-.792a2.26,2.26,0,0,1,1.188.336l.264-.768a2.9,2.9,0,0,0-1.428-.36,1.791,1.791,0,0,0-2,1.7c0,.7.492,1.272,1.536,1.644.78.288,1.08.564,1.08,1.068,0,.48-.36.864-1.128.864a2.768,2.768,0,0,1-1.392-.42ZM24-5.94a2.836,2.836,0,0,0-2.88,3.084A2.761,2.761,0,0,0,23.9.132,2.839,2.839,0,0,0,26.8-2.952,2.75,2.75,0,0,0,24-5.94Zm-.024.792c1.248,0,1.74,1.248,1.74,2.232,0,1.308-.756,2.256-1.764,2.256-1.032,0-1.764-.96-1.764-2.232C22.188-4,22.728-5.148,23.976-5.148Z" transform="translate(946.653 728.682)" fill="#2b2e34"/>
    <path id="Trazado_1022" data-name="Trazado 1022" d="M1.332.132a.7.7,0,0,0,.72-.756.7.7,0,0,0-.708-.756.709.709,0,0,0-.72.756A.707.707,0,0,0,1.332.132Z" transform="translate(973.617 728.682)" fill="#2b2e34"/>
    <path id="Trazado_1023" data-name="Trazado 1023" transform="translate(928.653 743.082)" fill="#2b2e34"/>
    <path id="Trazado_1024" data-name="Trazado 1024" d="M5.088-2.544,5.952,0H7.068L4.308-8.088H3.048L.3,0H1.38l.84-2.544ZM2.436-3.36,3.228-5.7c.156-.492.288-.984.408-1.464H3.66c.12.468.24.948.42,1.476L4.872-3.36ZM8.184,2.376H9.228V-.78h.024A2.037,2.037,0,0,0,11.04.132c1.368,0,2.64-1.032,2.64-3.12,0-1.764-1.056-2.952-2.46-2.952A2.283,2.283,0,0,0,9.156-4.812H9.132l-.048-1H8.136c.024.552.048,1.152.048,1.9ZM9.228-3.36A1.713,1.713,0,0,1,9.3-3.792,1.685,1.685,0,0,1,10.9-5.1c1.116,0,1.728,1,1.728,2.16,0,1.332-.648,2.244-1.764,2.244A1.629,1.629,0,0,1,9.276-1.932a2.378,2.378,0,0,1-.048-.432ZM15.012,0h1.044V-3.1a2.972,2.972,0,0,1,.048-.492A1.481,1.481,0,0,1,17.52-4.944a1.586,1.586,0,0,1,.36.036v-1a1.142,1.142,0,0,0-.3-.036,1.743,1.743,0,0,0-1.608,1.272h-.048l-.036-1.14h-.924c.036.54.048,1.128.048,1.812Zm6.264-5.94A2.836,2.836,0,0,0,18.4-2.856,2.761,2.761,0,0,0,21.18.132a2.839,2.839,0,0,0,2.892-3.084A2.75,2.75,0,0,0,21.276-5.94Zm-.024.792c1.248,0,1.74,1.248,1.74,2.232,0,1.308-.756,2.256-1.764,2.256-1.032,0-1.764-.96-1.764-2.232C19.464-4,20-5.148,21.252-5.148ZM26.268,0l.048-.96h.036A2.069,2.069,0,0,0,28.3.132c1.3,0,2.6-1.032,2.6-3.108.012-1.764-1.008-2.964-2.448-2.964a2.163,2.163,0,0,0-1.98,1.068h-.024V-8.52H25.4V-1.5c0,.516-.024,1.1-.048,1.5Zm.18-3.372a2.081,2.081,0,0,1,.06-.432,1.684,1.684,0,0,1,1.608-1.3c1.128,0,1.728,1,1.728,2.16,0,1.332-.66,2.232-1.764,2.232A1.629,1.629,0,0,1,26.5-1.944a1.977,1.977,0,0,1-.048-.384ZM36.408,0a8.177,8.177,0,0,1-.1-1.392V-3.564c0-1.164-.432-2.376-2.208-2.376a3.6,3.6,0,0,0-1.908.516l.24.7a2.894,2.894,0,0,1,1.512-.432,1.2,1.2,0,0,1,1.32,1.344v.12c-2.244-.012-3.492.756-3.492,2.16A1.655,1.655,0,0,0,33.552.132a2.163,2.163,0,0,0,1.776-.864h.036L35.448,0ZM35.292-1.956a1.1,1.1,0,0,1-.06.336,1.445,1.445,0,0,1-1.4.972.934.934,0,0,1-1-1.008c0-1.128,1.308-1.332,2.46-1.308ZM38.016,0h1.056V-3.492a1.518,1.518,0,0,1,.072-.492,1.5,1.5,0,0,1,1.416-1.08c1,0,1.344.78,1.344,1.716V0H42.96V-3.468c0-1.992-1.248-2.472-2.052-2.472a2.136,2.136,0,0,0-1.92,1.092h-.024l-.06-.96h-.936c.036.48.048.972.048,1.572Zm10.62-8.52v3.468h-.024A1.942,1.942,0,0,0,46.86-5.94c-1.416,0-2.616,1.188-2.6,3.12,0,1.764,1.08,2.952,2.484,2.952a2.148,2.148,0,0,0,1.98-1.14h.024L48.792,0h.948c-.036-.4-.048-.984-.048-1.5V-8.52Zm0,6.084a1.834,1.834,0,0,1-.048.456A1.587,1.587,0,0,1,47.04-.72c-1.14,0-1.716-.972-1.716-2.148,0-1.284.648-2.244,1.74-2.244a1.553,1.553,0,0,1,1.524,1.224,1.864,1.864,0,0,1,.048.444ZM53.9-5.94a2.836,2.836,0,0,0-2.88,3.084A2.761,2.761,0,0,0,53.808.132,2.839,2.839,0,0,0,56.7-2.952,2.75,2.75,0,0,0,53.9-5.94Zm-.024.792c1.248,0,1.74,1.248,1.74,2.232,0,1.308-.756,2.256-1.764,2.256-1.032,0-1.764-.96-1.764-2.232C52.092-4,52.632-5.148,53.88-5.148ZM65.244-2.712A3.983,3.983,0,0,0,65.28-3.2a2.461,2.461,0,0,0-2.4-2.736c-1.692,0-2.724,1.38-2.724,3.132A2.7,2.7,0,0,0,63.012.12a4.7,4.7,0,0,0,1.932-.36L64.764-1a3.819,3.819,0,0,1-1.608.3,1.861,1.861,0,0,1-1.992-2.016Zm-4.068-.756A1.75,1.75,0,0,1,62.8-5.184,1.5,1.5,0,0,1,64.26-3.468ZM66.588,0h1.056V-8.52H66.588Zm9.336-1.008a3,3,0,0,1-1.3.288,1.991,1.991,0,0,1-2.016-2.172,2.01,2.01,0,0,1,2.052-2.2,2.449,2.449,0,0,1,1.224.276l.24-.816a3.53,3.53,0,0,0-1.464-.3,2.951,2.951,0,0,0-3.12,3.084A2.759,2.759,0,0,0,74.436.12,3.89,3.89,0,0,0,76.1-.216Zm6.276-4.8H81.144v3.564a1.544,1.544,0,0,1-.1.54,1.527,1.527,0,0,1-1.392.96c-.96,0-1.3-.744-1.3-1.848V-5.808H77.3v3.4c0,2.04,1.092,2.544,2,2.544a2.185,2.185,0,0,0,1.92-1.08h.024l.06.948h.936c-.036-.456-.048-.984-.048-1.584ZM83.952,0H85V-3.1a2.972,2.972,0,0,1,.048-.492A1.481,1.481,0,0,1,86.46-4.944a1.586,1.586,0,0,1,.36.036v-1a1.142,1.142,0,0,0-.3-.036,1.743,1.743,0,0,0-1.608,1.272h-.048l-.036-1.14H83.9c.036.54.048,1.128.048,1.812Zm3.516-.276A3.312,3.312,0,0,0,89.1.12c1.38,0,2.172-.72,2.172-1.74,0-.864-.516-1.368-1.524-1.752-.756-.288-1.1-.5-1.1-.984,0-.432.348-.792.972-.792a2.26,2.26,0,0,1,1.188.336l.264-.768a2.9,2.9,0,0,0-1.428-.36,1.791,1.791,0,0,0-2,1.7c0,.7.492,1.272,1.536,1.644.78.288,1.08.564,1.08,1.068,0,.48-.36.864-1.128.864a2.768,2.768,0,0,1-1.392-.42Zm7.62-5.664a2.836,2.836,0,0,0-2.88,3.084A2.761,2.761,0,0,0,94.992.132a2.839,2.839,0,0,0,2.892-3.084A2.75,2.75,0,0,0,95.088-5.94Zm-.024.792c1.248,0,1.74,1.248,1.74,2.232,0,1.308-.756,2.256-1.764,2.256-1.032,0-1.764-.96-1.764-2.232C93.276-4,93.816-5.148,95.064-5.148Z" transform="translate(946.653 743.082)" fill="#2b2e34"/>
    <path id="Trazado_1025" data-name="Trazado 1025" d="M1.332.132a.7.7,0,0,0,.72-.756.7.7,0,0,0-.708-.756.709.709,0,0,0-.72.756A.707.707,0,0,0,1.332.132Z" transform="translate(1044.703 743.082)" fill="#2b2e34"/>
    <path id="Trazado_1026" data-name="Trazado 1026" transform="translate(928.653 757.482)" fill="#2b2e34"/>
    <path id="Trazado_1027" data-name="Trazado 1027" d="M.912-.024a16.851,16.851,0,0,0,1.9.1A4.982,4.982,0,0,0,6.384-1.092,4.278,4.278,0,0,0,7.548-4.236a3.725,3.725,0,0,0-1.14-2.9A4.632,4.632,0,0,0,3.132-8.148a14.954,14.954,0,0,0-2.22.168ZM1.956-7.212A5.932,5.932,0,0,1,3.18-7.32c2.208,0,3.288,1.212,3.276,3.12A3.109,3.109,0,0,1,3.012-.768a6.593,6.593,0,0,1-1.056-.06Zm11.628,4.5A3.983,3.983,0,0,0,13.62-3.2a2.461,2.461,0,0,0-2.4-2.736C9.528-5.94,8.5-4.56,8.5-2.808A2.7,2.7,0,0,0,11.352.12a4.7,4.7,0,0,0,1.932-.36L13.1-1A3.819,3.819,0,0,1,11.5-.7,1.861,1.861,0,0,1,9.5-2.712ZM9.516-3.468a1.75,1.75,0,0,1,1.62-1.716A1.5,1.5,0,0,1,12.6-3.468Zm5,3.192a3.312,3.312,0,0,0,1.632.4c1.38,0,2.172-.72,2.172-1.74,0-.864-.516-1.368-1.524-1.752-.756-.288-1.1-.5-1.1-.984,0-.432.348-.792.972-.792a2.26,2.26,0,0,1,1.188.336l.264-.768a2.9,2.9,0,0,0-1.428-.36,1.791,1.791,0,0,0-2,1.7c0,.7.492,1.272,1.536,1.644.78.288,1.08.564,1.08,1.068,0,.48-.36.864-1.128.864a2.768,2.768,0,0,1-1.392-.42Zm9.12-.732a3,3,0,0,1-1.3.288,1.991,1.991,0,0,1-2.016-2.172,2.01,2.01,0,0,1,2.052-2.2,2.449,2.449,0,0,1,1.224.276l.24-.816a3.53,3.53,0,0,0-1.464-.3,2.951,2.951,0,0,0-3.12,3.084A2.759,2.759,0,0,0,22.152.12,3.89,3.89,0,0,0,23.82-.216ZM29.232,0a8.178,8.178,0,0,1-.1-1.392V-3.564c0-1.164-.432-2.376-2.208-2.376a3.6,3.6,0,0,0-1.908.516l.24.7a2.894,2.894,0,0,1,1.512-.432,1.2,1.2,0,0,1,1.32,1.344v.12c-2.244-.012-3.492.756-3.492,2.16A1.655,1.655,0,0,0,26.376.132a2.163,2.163,0,0,0,1.776-.864h.036L28.272,0ZM28.116-1.956a1.1,1.1,0,0,1-.06.336,1.445,1.445,0,0,1-1.4.972.934.934,0,0,1-1-1.008c0-1.128,1.308-1.332,2.46-1.308ZM30.84,0h1.044V-3.1a2.972,2.972,0,0,1,.048-.492,1.481,1.481,0,0,1,1.416-1.356,1.586,1.586,0,0,1,.36.036v-1a1.142,1.142,0,0,0-.3-.036A1.743,1.743,0,0,0,31.8-4.668h-.048l-.036-1.14h-.924c.036.54.048,1.128.048,1.812Zm7.908-5.808-.048.876h-.024A1.932,1.932,0,0,0,36.864-5.94a2.788,2.788,0,0,0-2.616,3.084A2.6,2.6,0,0,0,36.72-.024,2.073,2.073,0,0,0,38.568-1h.024v.648c0,1.464-.792,2.028-1.872,2.028a3.275,3.275,0,0,1-1.7-.456l-.264.8a3.749,3.749,0,0,0,1.932.48,3.079,3.079,0,0,0,2.112-.7A3.34,3.34,0,0,0,39.624-.84V-4.212c0-.708.024-1.176.048-1.6ZM38.58-2.472a1.837,1.837,0,0,1-.084.564,1.544,1.544,0,0,1-1.464,1.08c-1.14,0-1.716-.948-1.716-2.088,0-1.344.72-2.2,1.728-2.2A1.521,1.521,0,0,1,38.52-4a1.5,1.5,0,0,1,.06.48ZM45.552,0a8.177,8.177,0,0,1-.1-1.392V-3.564c0-1.164-.432-2.376-2.208-2.376a3.6,3.6,0,0,0-1.908.516l.24.7a2.894,2.894,0,0,1,1.512-.432,1.2,1.2,0,0,1,1.32,1.344v.12c-2.244-.012-3.492.756-3.492,2.16A1.655,1.655,0,0,0,42.7.132a2.163,2.163,0,0,0,1.776-.864h.036L44.592,0ZM44.436-1.956a1.1,1.1,0,0,1-.06.336,1.445,1.445,0,0,1-1.4.972.934.934,0,0,1-1-1.008c0-1.128,1.308-1.332,2.46-1.308ZM47.16,0h1.056V-3.492a1.518,1.518,0,0,1,.072-.492A1.5,1.5,0,0,1,49.7-5.064c1,0,1.344.78,1.344,1.716V0H52.1V-3.468c0-1.992-1.248-2.472-2.052-2.472a2.136,2.136,0,0,0-1.92,1.092h-.024l-.06-.96h-.936c.036.48.048.972.048,1.572ZM57.78-8.52v3.468h-.024A1.942,1.942,0,0,0,56-5.94c-1.416,0-2.616,1.188-2.6,3.12,0,1.764,1.08,2.952,2.484,2.952a2.148,2.148,0,0,0,1.98-1.14h.024L57.936,0h.948c-.036-.4-.048-.984-.048-1.5V-8.52Zm0,6.084a1.834,1.834,0,0,1-.048.456A1.587,1.587,0,0,1,56.184-.72c-1.14,0-1.716-.972-1.716-2.148,0-1.284.648-2.244,1.74-2.244a1.553,1.553,0,0,1,1.524,1.224,1.864,1.864,0,0,1,.048.444Zm5.268-3.5a2.836,2.836,0,0,0-2.88,3.084A2.761,2.761,0,0,0,62.952.132a2.839,2.839,0,0,0,2.892-3.084A2.75,2.75,0,0,0,63.048-5.94Zm-.024.792c1.248,0,1.74,1.248,1.74,2.232C64.764-1.608,64.008-.66,63-.66c-1.032,0-1.764-.96-1.764-2.232C61.236-4,61.776-5.148,63.024-5.148ZM74.388-2.712a3.983,3.983,0,0,0,.036-.492,2.461,2.461,0,0,0-2.4-2.736c-1.692,0-2.724,1.38-2.724,3.132A2.7,2.7,0,0,0,72.156.12a4.7,4.7,0,0,0,1.932-.36L73.908-1A3.819,3.819,0,0,1,72.3-.7a1.861,1.861,0,0,1-1.992-2.016ZM70.32-3.468a1.75,1.75,0,0,1,1.62-1.716A1.5,1.5,0,0,1,73.4-3.468ZM75.732,0h1.056V-8.52H75.732Zm9.336-1.008a3,3,0,0,1-1.3.288,1.991,1.991,0,0,1-2.016-2.172,2.01,2.01,0,0,1,2.052-2.2,2.449,2.449,0,0,1,1.224.276l.24-.816a3.53,3.53,0,0,0-1.464-.3,2.951,2.951,0,0,0-3.12,3.084A2.759,2.759,0,0,0,83.58.12a3.89,3.89,0,0,0,1.668-.336Zm6.012-1.7a3.983,3.983,0,0,0,.036-.492,2.461,2.461,0,0,0-2.4-2.736c-1.692,0-2.724,1.38-2.724,3.132A2.7,2.7,0,0,0,88.848.12,4.7,4.7,0,0,0,90.78-.24L90.6-1a3.819,3.819,0,0,1-1.608.3A1.861,1.861,0,0,1,87-2.712Zm-4.068-.756a1.75,1.75,0,0,1,1.62-1.716A1.5,1.5,0,0,1,90.1-3.468ZM92.424,0h1.044V-3.1a2.972,2.972,0,0,1,.048-.492,1.481,1.481,0,0,1,1.416-1.356,1.586,1.586,0,0,1,.36.036v-1a1.142,1.142,0,0,0-.3-.036,1.743,1.743,0,0,0-1.608,1.272h-.048L93.3-5.808h-.924c.036.54.048,1.128.048,1.812Z" transform="translate(946.653 757.482)" fill="#2b2e34"/>
    <path id="Trazado_1028" data-name="Trazado 1028" d="M1.116-7.2v1.392h-.9V-5h.9v3.168A2.152,2.152,0,0,0,1.524-.324,1.463,1.463,0,0,0,2.664.12,2.585,2.585,0,0,0,3.6-.024L3.552-.816a2.349,2.349,0,0,1-.612.072c-.588,0-.792-.408-.792-1.128V-5H3.66v-.8H2.148V-7.476ZM5.9,0V-5.808H4.848V0ZM5.376-8.1a.643.643,0,0,0-.66.66.628.628,0,0,0,.636.648.624.624,0,0,0,.672-.648A.627.627,0,0,0,5.376-8.1ZM8.808,0V-5h2.328V0H12.18V-5.808H8.808V-6.1c0-.924.324-1.7,1.44-1.7a2.22,2.22,0,0,1,1.224.336l.3-.8A2.907,2.907,0,0,0,10.3-8.652,2.328,2.328,0,0,0,7.764-6.12v.312H6.948V-5h.816V0Zm9.084-1.008a3,3,0,0,1-1.3.288A1.991,1.991,0,0,1,14.58-2.892a2.01,2.01,0,0,1,2.052-2.2,2.449,2.449,0,0,1,1.224.276l.24-.816a3.53,3.53,0,0,0-1.464-.3,2.951,2.951,0,0,0-3.12,3.084A2.759,2.759,0,0,0,16.4.12a3.89,3.89,0,0,0,1.668-.336ZM23.484,0a8.178,8.178,0,0,1-.1-1.392V-3.564c0-1.164-.432-2.376-2.208-2.376a3.6,3.6,0,0,0-1.908.516l.24.7a2.894,2.894,0,0,1,1.512-.432,1.2,1.2,0,0,1,1.32,1.344v.12c-2.244-.012-3.492.756-3.492,2.16A1.655,1.655,0,0,0,20.628.132,2.163,2.163,0,0,0,22.4-.732h.036L22.524,0ZM22.368-1.956a1.1,1.1,0,0,1-.06.336,1.445,1.445,0,0,1-1.4.972.934.934,0,0,1-1-1.008c0-1.128,1.308-1.332,2.46-1.308ZM29.052-8.52v3.468h-.024a1.942,1.942,0,0,0-1.752-.888c-1.416,0-2.616,1.188-2.6,3.12,0,1.764,1.08,2.952,2.484,2.952a2.148,2.148,0,0,0,1.98-1.14h.024L29.208,0h.948c-.036-.4-.048-.984-.048-1.5V-8.52Zm0,6.084A1.834,1.834,0,0,1,29-1.98,1.587,1.587,0,0,1,27.456-.72c-1.14,0-1.716-.972-1.716-2.148,0-1.284.648-2.244,1.74-2.244A1.553,1.553,0,0,1,29-3.888a1.864,1.864,0,0,1,.048.444Zm5.268-3.5a2.836,2.836,0,0,0-2.88,3.084A2.761,2.761,0,0,0,34.224.132a2.839,2.839,0,0,0,2.892-3.084A2.75,2.75,0,0,0,34.32-5.94Zm-.024.792c1.248,0,1.74,1.248,1.74,2.232,0,1.308-.756,2.256-1.764,2.256-1.032,0-1.764-.96-1.764-2.232C32.508-4,33.048-5.148,34.3-5.148ZM44.952-8.52v3.468h-.024a1.942,1.942,0,0,0-1.752-.888c-1.416,0-2.616,1.188-2.6,3.12,0,1.764,1.08,2.952,2.484,2.952a2.148,2.148,0,0,0,1.98-1.14h.024L45.108,0h.948c-.036-.4-.048-.984-.048-1.5V-8.52Zm0,6.084a1.834,1.834,0,0,1-.048.456A1.587,1.587,0,0,1,43.356-.72c-1.14,0-1.716-.972-1.716-2.148,0-1.284.648-2.244,1.74-2.244A1.553,1.553,0,0,1,44.9-3.888a1.864,1.864,0,0,1,.048.444Zm7.476-.276a3.983,3.983,0,0,0,.036-.492,2.461,2.461,0,0,0-2.4-2.736c-1.692,0-2.724,1.38-2.724,3.132A2.7,2.7,0,0,0,50.2.12a4.7,4.7,0,0,0,1.932-.36L51.948-1a3.819,3.819,0,0,1-1.608.3,1.861,1.861,0,0,1-1.992-2.016ZM48.36-3.468a1.75,1.75,0,0,1,1.62-1.716,1.5,1.5,0,0,1,1.464,1.716Z" transform="translate(1042.411 757.482)" fill="#2b2e34"/>
    <path id="Trazado_1029" data-name="Trazado 1029" d="M5.052,0a8.178,8.178,0,0,1-.1-1.392V-3.564c0-1.164-.432-2.376-2.208-2.376A3.6,3.6,0,0,0,.84-5.424l.24.7A2.894,2.894,0,0,1,2.592-5.16a1.2,1.2,0,0,1,1.32,1.344v.12C1.668-3.708.42-2.94.42-1.536A1.655,1.655,0,0,0,2.2.132,2.163,2.163,0,0,0,3.972-.732h.036L4.092,0ZM3.936-1.956a1.1,1.1,0,0,1-.06.336,1.445,1.445,0,0,1-1.4.972.934.934,0,0,1-1-1.008c0-1.128,1.308-1.332,2.46-1.308ZM6.66,2.376H7.7V-.78h.024A2.037,2.037,0,0,0,9.516.132c1.368,0,2.64-1.032,2.64-3.12,0-1.764-1.056-2.952-2.46-2.952A2.283,2.283,0,0,0,7.632-4.812H7.608l-.048-1H6.612c.024.552.048,1.152.048,1.9ZM7.7-3.36a1.713,1.713,0,0,1,.072-.432A1.685,1.685,0,0,1,9.372-5.1c1.116,0,1.728,1,1.728,2.16C11.1-1.608,10.452-.7,9.336-.7A1.629,1.629,0,0,1,7.752-1.932,2.378,2.378,0,0,1,7.7-2.364ZM13.488,0h1.044V-3.1a2.972,2.972,0,0,1,.048-.492A1.481,1.481,0,0,1,16-4.944a1.586,1.586,0,0,1,.36.036v-1a1.142,1.142,0,0,0-.3-.036,1.743,1.743,0,0,0-1.608,1.272H14.4l-.036-1.14H13.44c.036.54.048,1.128.048,1.812Zm6.264-5.94a2.836,2.836,0,0,0-2.88,3.084A2.761,2.761,0,0,0,19.656.132a2.839,2.839,0,0,0,2.892-3.084A2.75,2.75,0,0,0,19.752-5.94Zm-.024.792c1.248,0,1.74,1.248,1.74,2.232,0,1.308-.756,2.256-1.764,2.256-1.032,0-1.764-.96-1.764-2.232C17.94-4,18.48-5.148,19.728-5.148ZM24.744,0l.048-.96h.036A2.069,2.069,0,0,0,26.772.132c1.3,0,2.6-1.032,2.6-3.108.012-1.764-1.008-2.964-2.448-2.964a2.163,2.163,0,0,0-1.98,1.068h-.024V-8.52H23.88V-1.5c0,.516-.024,1.1-.048,1.5Zm.18-3.372a2.081,2.081,0,0,1,.06-.432,1.684,1.684,0,0,1,1.608-1.3c1.128,0,1.728,1,1.728,2.16,0,1.332-.66,2.232-1.764,2.232a1.629,1.629,0,0,1-1.584-1.236,1.977,1.977,0,0,1-.048-.384ZM34.884,0a8.177,8.177,0,0,1-.1-1.392V-3.564c0-1.164-.432-2.376-2.208-2.376a3.6,3.6,0,0,0-1.908.516l.24.7a2.894,2.894,0,0,1,1.512-.432,1.2,1.2,0,0,1,1.32,1.344v.12c-2.244-.012-3.492.756-3.492,2.16A1.655,1.655,0,0,0,32.028.132,2.163,2.163,0,0,0,33.8-.732h.036L33.924,0ZM33.768-1.956a1.1,1.1,0,0,1-.06.336,1.445,1.445,0,0,1-1.4.972.934.934,0,0,1-1-1.008c0-1.128,1.308-1.332,2.46-1.308ZM40.452-8.52v3.468h-.024a1.942,1.942,0,0,0-1.752-.888c-1.416,0-2.616,1.188-2.6,3.12,0,1.764,1.08,2.952,2.484,2.952a2.148,2.148,0,0,0,1.98-1.14h.024L40.608,0h.948c-.036-.4-.048-.984-.048-1.5V-8.52Zm0,6.084a1.834,1.834,0,0,1-.048.456A1.587,1.587,0,0,1,38.856-.72c-1.14,0-1.716-.972-1.716-2.148,0-1.284.648-2.244,1.74-2.244A1.553,1.553,0,0,1,40.4-3.888a1.864,1.864,0,0,1,.048.444Zm5.268-3.5a2.836,2.836,0,0,0-2.88,3.084A2.761,2.761,0,0,0,45.624.132a2.839,2.839,0,0,0,2.892-3.084A2.75,2.75,0,0,0,45.72-5.94Zm-.024.792c1.248,0,1.74,1.248,1.74,2.232,0,1.308-.756,2.256-1.764,2.256-1.032,0-1.764-.96-1.764-2.232C43.908-4,44.448-5.148,45.7-5.148ZM56.352-8.52v3.468h-.024a1.942,1.942,0,0,0-1.752-.888c-1.416,0-2.616,1.188-2.6,3.12,0,1.764,1.08,2.952,2.484,2.952a2.148,2.148,0,0,0,1.98-1.14h.024L56.508,0h.948c-.036-.4-.048-.984-.048-1.5V-8.52Zm0,6.084a1.834,1.834,0,0,1-.048.456A1.587,1.587,0,0,1,54.756-.72c-1.14,0-1.716-.972-1.716-2.148,0-1.284.648-2.244,1.74-2.244A1.553,1.553,0,0,1,56.3-3.888a1.864,1.864,0,0,1,.048.444Zm7.476-.276a3.983,3.983,0,0,0,.036-.492,2.461,2.461,0,0,0-2.4-2.736c-1.692,0-2.724,1.38-2.724,3.132A2.7,2.7,0,0,0,61.6.12a4.7,4.7,0,0,0,1.932-.36L63.348-1a3.819,3.819,0,0,1-1.608.3,1.861,1.861,0,0,1-1.992-2.016ZM59.76-3.468a1.75,1.75,0,0,1,1.62-1.716,1.5,1.5,0,0,1,1.464,1.716ZM65.172,0h1.056V-8.52H65.172Zm9.336-1.008a3,3,0,0,1-1.3.288A1.991,1.991,0,0,1,71.2-2.892a2.01,2.01,0,0,1,2.052-2.2,2.449,2.449,0,0,1,1.224.276l.24-.816a3.53,3.53,0,0,0-1.464-.3,2.951,2.951,0,0,0-3.12,3.084A2.759,2.759,0,0,0,73.02.12a3.89,3.89,0,0,0,1.668-.336Zm6.276-4.8H79.728v3.564a1.544,1.544,0,0,1-.1.54,1.527,1.527,0,0,1-1.392.96c-.96,0-1.3-.744-1.3-1.848V-5.808H75.888v3.4c0,2.04,1.092,2.544,2,2.544a2.185,2.185,0,0,0,1.92-1.08h.024L79.9,0h.936c-.036-.456-.048-.984-.048-1.584ZM82.536,0H83.58V-3.1a2.972,2.972,0,0,1,.048-.492,1.481,1.481,0,0,1,1.416-1.356,1.586,1.586,0,0,1,.36.036v-1a1.142,1.142,0,0,0-.3-.036A1.743,1.743,0,0,0,83.5-4.668h-.048l-.036-1.14h-.924c.036.54.048,1.128.048,1.812Zm3.516-.276a3.312,3.312,0,0,0,1.632.4c1.38,0,2.172-.72,2.172-1.74,0-.864-.516-1.368-1.524-1.752-.756-.288-1.1-.5-1.1-.984,0-.432.348-.792.972-.792a2.26,2.26,0,0,1,1.188.336l.264-.768a2.9,2.9,0,0,0-1.428-.36,1.791,1.791,0,0,0-2,1.7c0,.7.492,1.272,1.536,1.644.78.288,1.08.564,1.08,1.068,0,.48-.36.864-1.128.864a2.768,2.768,0,0,1-1.392-.42Zm7.62-5.664a2.836,2.836,0,0,0-2.88,3.084A2.761,2.761,0,0,0,93.576.132a2.839,2.839,0,0,0,2.892-3.084A2.75,2.75,0,0,0,93.672-5.94Zm-.024.792c1.248,0,1.74,1.248,1.74,2.232,0,1.308-.756,2.256-1.764,2.256-1.032,0-1.764-.96-1.764-2.232C91.86-4,92.4-5.148,93.648-5.148Z" transform="translate(946.653 771.882)" fill="#2b2e34"/>
    <path id="Trazado_1030" data-name="Trazado 1030" d="M1.332.132a.7.7,0,0,0,.72-.756.7.7,0,0,0-.708-.756.709.709,0,0,0-.72.756A.707.707,0,0,0,1.332.132Z" transform="translate(1043.287 771.882)" fill="#2b2e34"/>
    <g id="Grupo_714" data-name="Grupo 714" transform="translate(930.882 657.535)">
      <path id="Trazado_1001" data-name="Trazado 1001" d="M0,0-9.819.056l-.057-9.819,9.819-.056L0,0M.508-10.964l-10.961.062a.58.58,0,0,0-.568.575L-10.958.634a.579.579,0,0,0,.574.567L.577,1.139A.529.529,0,0,0,.962.984L.982.965.992.954a.529.529,0,0,0,.153-.39L1.082-10.4a.578.578,0,0,0-.574-.567" fill="#779396"/>
    </g>
    <g id="Grupo_715" data-name="Grupo 715" transform="translate(924.145 650.76)">
      <path id="Trazado_1002" data-name="Trazado 1002" d="M0,0,2.514-.854,3.928,1.657,15.915-7.089l1.4.272L3.386,4.739Z" fill="#40bc97"/>
    </g>
    <path id="Trazado_1003" data-name="Trazado 1003" d="M65.683-183.247h28.9V-209.9h-28.9Z" transform="translate(848.52 847.089)" fill="none"/>
    <g id="Grupo_717" data-name="Grupo 717" transform="translate(930.882 703.457)">
      <path id="Trazado_1004" data-name="Trazado 1004" d="M0,0-9.819.056l-.057-9.819,9.819-.056L0,0M.508-10.964l-10.961.062a.58.58,0,0,0-.568.575L-10.958.634a.579.579,0,0,0,.574.567L.577,1.139A.529.529,0,0,0,.962.984L.982.965.992.954a.529.529,0,0,0,.153-.39L1.082-10.4a.578.578,0,0,0-.574-.567" fill="#779396"/>
    </g>
    <g id="Grupo_718" data-name="Grupo 718" transform="translate(924.145 696.681)">
      <path id="Trazado_1005" data-name="Trazado 1005" d="M0,0,2.514-.854,3.928,1.657,15.915-7.089l1.4.272L3.386,4.739Z" fill="#40bc97"/>
    </g>
    <path id="Trazado_1006" data-name="Trazado 1006" d="M65.683-137.326h28.9v-26.647h-28.9Z" transform="translate(848.52 847.089)" fill="none"/>
    <g id="Grupo_720" data-name="Grupo 720" transform="translate(930.882 760.856)">
      <path id="Trazado_1007" data-name="Trazado 1007" d="M0,0-9.819.056l-.057-9.819,9.819-.056L0,0M.508-10.964l-10.961.062a.58.58,0,0,0-.568.575L-10.958.634a.579.579,0,0,0,.574.567L.577,1.139A.529.529,0,0,0,.962.984L.982.965.992.954a.529.529,0,0,0,.153-.39L1.082-10.4a.578.578,0,0,0-.574-.567" fill="#779396"/>
    </g>
    <g id="Grupo_721" data-name="Grupo 721" transform="translate(924.145 754.081)">
      <path id="Trazado_1008" data-name="Trazado 1008" d="M0,0,2.514-.854,3.928,1.657,15.915-7.089l1.4.272L3.386,4.739Z" fill="#40bc97"/>
    </g>
    <path id="Trazado_1009" data-name="Trazado 1009" d="M65.683-79.926h28.9v-26.648h-28.9Z" transform="translate(848.52 847.089)" fill="none"/>
    <g id="Grupo_723" data-name="Grupo 723" transform="translate(930.882 776.591)">
      <path id="Trazado_1010" data-name="Trazado 1010" d="M0,0-9.819.056l-.057-9.819,9.819-.056L0,0M.508-10.964l-10.961.062a.58.58,0,0,0-.568.575L-10.958.634a.579.579,0,0,0,.574.567L.577,1.139A.529.529,0,0,0,.962.984L.982.965.992.954a.529.529,0,0,0,.153-.39L1.082-10.4a.578.578,0,0,0-.574-.567" fill="#779396"/>
    </g>
    <g id="Grupo_724" data-name="Grupo 724" transform="translate(924.145 769.815)">
      <path id="Trazado_1011" data-name="Trazado 1011" d="M0,0,2.514-.854,3.928,1.657,15.915-7.089l1.4.272L3.386,4.739Z" fill="#40bc97"/>
    </g>
    <path id="Trazado_1012" data-name="Trazado 1012" d="M65.683-64.193h28.9V-90.84h-28.9Z" transform="translate(848.52 847.089)" fill="none"/>
  </g>
</svg>
