<svg xmlns="http://www.w3.org/2000/svg" xmlns:xlink="http://www.w3.org/1999/xlink" width="216.756" height="47.197" viewBox="0 0 216.756 47.197">
  <defs>
    <clipPath id="clip-path">
      <path id="Trazado_997" data-name="Trazado 997" d="M0,0H216.756V-47.2H0Z" fill="none"/>
    </clipPath>
  </defs>
  <g id="Grupo_714" data-name="Grupo 714" transform="translate(-919 -665.197)">
    <g id="Grupo_713" data-name="Grupo 713" transform="translate(919 712.394)">
      <g id="Grupo_698" data-name="Grupo 698" clip-path="url(#clip-path)">
        <g id="Grupo_691" data-name="Grupo 691" transform="translate(32.289 -33.89)">
          <path id="Trazado_990" data-name="Trazado 990" d="M0,0H-30.771a1.5,1.5,0,0,0-1.518,1.486v23.8a1.505,1.505,0,0,0,1.518,1.488h11.106A10.5,10.5,0,0,1-19.759,28a.165.165,0,0,0-.006.032l-.011.075a.142.142,0,0,0,0,.02l0,.013c0,.01,0,.019-.005.028a4.149,4.149,0,0,1-.131.553.118.118,0,0,0-.007.02l-.02.055v0l-.039.1-.008.016-.01.024s0,.011-.008.017l-.019.038,0,0,0,.009c0,.005-.005.01-.007.016l0,0-.006.01-.011.019-.005.008s-.007.011-.011.017l-.033.048-.012.016a0,0,0,0,0,0,0l-.044.028a.937.937,0,0,1-.138.067h0l-.017.006c-.051.021-.109.04-.165.058h0l-.012,0-.031.01-.053.017-.023.007-.04.013-.034.011-.04.016c-.26.09-.521.178-.756.256a.955.955,0,0,0-.313.15c-.011.008-.024.02-.034.029l0,0,0,0-.014.013a.317.317,0,0,0-.03.034l-.006.007a.292.292,0,0,0-.021.028.519.519,0,0,0-.06.117c0,.007-.005.015-.008.022s0,.012,0,.018l-.006.021-.006.027h0a.238.238,0,0,0-.005.026.309.309,0,0,0-.007.052.153.153,0,0,0,0,.03,1.183,1.183,0,0,0,.018.363.583.583,0,0,0,.511.469l.026,0,.025,0h.01c.119.01.754.061,1.612.069,1.458.016,2.926.024,4.394.024s2.936-.008,4.393-.024c.883-.008,1.541-.063,1.613-.069H-9.4l.03,0,.026,0a.578.578,0,0,0,.494-.423l.009-.03c0-.011.006-.022.009-.033a1.278,1.278,0,0,0,.015-.348.038.038,0,0,1,0-.011l0-.015a.152.152,0,0,0,0-.021.416.416,0,0,0-.013-.072l0-.017a.258.258,0,0,0-.009-.035c0-.012-.008-.025-.013-.037s-.015-.034-.024-.051l0,0,0-.006a.39.39,0,0,0-.048-.074A.705.705,0,0,0-9,29.81l-.022-.019a.963.963,0,0,0-.321-.155c-.217-.072-.463-.156-.751-.256h0l-.01,0a.393.393,0,0,0-.058-.019s0,0,0,0l-.016,0-.1-.034-.032-.011-.014,0a2.391,2.391,0,0,1-.24-.087l-.024-.013a.469.469,0,0,1-.1-.059h0s0,0,0,0,0,0,0,0l-.008-.011-.009-.013-.006-.007-.012-.017v0l-.014-.022,0,0-.011-.018,0-.006c0-.007-.007-.014-.011-.02s-.009-.018-.014-.026l-.02-.039c0-.011-.009-.021-.014-.032l-.018-.04a.108.108,0,0,0-.008-.019l0-.007a.157.157,0,0,0-.009-.023.03.03,0,0,0,0-.01l-.007-.019s0-.008,0-.013l-.006-.016c0-.011-.007-.022-.012-.033l0-.011-.006-.016v0l-.009-.027-.005-.017s0-.005,0-.008l0-.009a.05.05,0,0,1,0-.013c0-.005,0-.011,0-.016l-.027-.1a.009.009,0,0,0,0,0h0a.3.3,0,0,0-.008-.032l-.006-.025a.014.014,0,0,0,0-.007l0-.015a.293.293,0,0,0-.005-.029l-.021-.09v-.005l0-.016s0-.006,0-.009c-.017-.086-.033-.181-.049-.29a.279.279,0,0,0-.006-.033,10.793,10.793,0,0,1-.089-1.189H0a1.5,1.5,0,0,0,1.517-1.488V1.486A1.5,1.5,0,0,0,0,0M-9.369,31.051h0M-.663,19.963H-30.115V2.164H-.663Z" fill="#2b2e34"/>
        </g>
        <g id="Grupo_692" data-name="Grupo 692" transform="translate(44.29 -9.858)">
          <path id="Trazado_991" data-name="Trazado 991" d="M0,0A1.911,1.911,0,0,0,1.731-2.046a2.236,2.236,0,0,0-.507-1.447A1.6,1.6,0,0,0,0-4.093,1.911,1.911,0,0,0-1.731-2.046,1.91,1.91,0,0,0,0,0" fill="#030103"/>
        </g>
        <g id="Grupo_693" data-name="Grupo 693" transform="translate(49.817 -33.89)">
          <path id="Trazado_992" data-name="Trazado 992" d="M0,0H-11.054a2.362,2.362,0,0,0-2.14,2.529v25.99a2.364,2.364,0,0,0,2.14,2.532H0a2.364,2.364,0,0,0,2.141-2.532V2.529A2.363,2.363,0,0,0,0,0M-.441,5.2c0,.145-.408.263-.909.263H-9.7c-.5,0-.908-.118-.908-.263V3.315c0-.145.408-.263.908-.263H-1.35c.5,0,.909.118.909.263Zm0,3.579c0,.144-.408.262-.909.262H-9.7c-.5,0-.908-.118-.908-.262V6.894c0-.145.408-.263.908-.263H-1.35c.5,0,.909.118.909.263Z" fill="#030103"/>
        </g>
        <g id="Grupo_694" data-name="Grupo 694" transform="translate(46.436 -10.219)">
          <path id="Trazado_993" data-name="Trazado 993" d="M0,0A1.7,1.7,0,0,1-1.716,1.685,1.7,1.7,0,0,1-3.432,0,1.7,1.7,0,0,1-1.716-1.685,1.7,1.7,0,0,1,0,0" fill="#fff"/>
        </g>
        <g id="Grupo_695" data-name="Grupo 695" transform="translate(101.252 -6.556)">
          <path id="Trazado_994" data-name="Trazado 994" d="M0,0A3.308,3.308,0,0,0-3.337,3.278,3.308,3.308,0,0,0,0,6.556,3.308,3.308,0,0,0,3.337,3.278,3.308,3.308,0,0,0,0,0" fill="#010407"/>
        </g>
        <g id="Grupo_696" data-name="Grupo 696" transform="translate(137.116 -6.556)">
          <path id="Trazado_995" data-name="Trazado 995" d="M0,0A3.308,3.308,0,0,0-3.337,3.278,3.308,3.308,0,0,0,0,6.556,3.308,3.308,0,0,0,3.337,3.278,3.308,3.308,0,0,0,0,0" fill="#010407"/>
        </g>
        <g id="Grupo_697" data-name="Grupo 697" transform="translate(145.54 -14.795)">
          <path id="Trazado_996" data-name="Trazado 996" d="M0,0-6.388-1.936a1.525,1.525,0,0,1-.974-.882l-2.877-7.093a1.535,1.535,0,0,0-1.426-.95h-7.689a1.521,1.521,0,0,0-1.535,1.508v13.5h-1.748V-19.095H-57.346V6.92h6.235v4.6h2.143a4.639,4.639,0,0,1,4.68-4.6,4.639,4.639,0,0,1,4.68,4.6h25.982a5.156,5.156,0,0,1,5.2-5.109,5.156,5.156,0,0,1,5.2,5.109h2.77a1.522,1.522,0,0,0,1.536-1.508V1.441A1.511,1.511,0,0,0,0,0M-10.3-1.939h-5.688a.951.951,0,0,1-.959-.943V-7.657a.951.951,0,0,1,.959-.942h3.563a.96.96,0,0,1,.9.608l1.945,5.03A.756.756,0,0,1-10.3-1.939" fill="#010407"/>
        </g>
        <g id="Grupo">
          <text id="PISI" transform="translate(94.094 -18.316)" fill="#fff" font-size="10" font-family="MyriadPro-Bold, Myriad Pro" font-weight="700"><tspan x="0" y="0">PISI</tspan></text>
          <text id="S" transform="translate(111.776 -18.316)" fill="#fff" font-size="10" font-family="MyriadPro-Bold, Myriad Pro" font-weight="700"><tspan x="0" y="0">S</tspan></text>
        </g>
        <g id="Grupo-2" data-name="Grupo">
          <text id="RL" transform="translate(170.945 -1.983)" fill="#010407" font-size="6" font-family="MyriadPro-Bold, Myriad Pro" font-weight="700"><tspan x="0" y="0">RL</tspan></text>
          <text id="CPD" transform="translate(177.393 -1.983)" fill="#010407" font-size="6" font-family="MyriadPro-Bold, Myriad Pro" font-weight="700"><tspan x="0" y="0">CPD</tspan></text>
        </g>
      </g>
      <path id="Trazado_998" data-name="Trazado 998" d="M94.065-12.97h33.5v-.981h-33.5Z" fill="#fff"/>
      <g id="Grupo_699" data-name="Grupo 699" transform="translate(199.315 -47.197)">
        <path id="Trazado_999" data-name="Trazado 999" d="M0,0-18.545,7.157V34.049h2.87l.22-21.9H14.35V35.133h3.091V7.157Z" fill="#010407"/>
      </g>
      <path id="Trazado_1000" data-name="Trazado 1000" d="M212.115-32.016H185.4v-1.518h26.71Z" fill="#010407"/>
      <path id="Trazado_1001" data-name="Trazado 1001" d="M212.115-28.112H185.4V-29.63h26.71Z" fill="#010407"/>
      <g id="Grupo_700" data-name="Grupo 700" clip-path="url(#clip-path)">
        <text id="SISPRO" transform="translate(189.821 -37.275)" fill="#fff" font-size="5" font-family="MyriadPro-Bold, Myriad Pro" font-weight="700"><tspan x="0" y="0">SISPRO</tspan></text>
      </g>
      <path id="Trazado_1003" data-name="Trazado 1003" d="M212.115-12.063H206.6v-6.253h5.519Z" fill="#010407"/>
      <path id="Trazado_1004" data-name="Trazado 1004" d="M209.356-15.19h-1.84v-1.876h1.84Z" fill="#fff"/>
      <path id="Trazado_1005" data-name="Trazado 1005" d="M205.386-12.063h-5.519v-6.253h5.519Z" fill="#010407"/>
      <path id="Trazado_1006" data-name="Trazado 1006" d="M202.626-15.19h-1.84v-1.876h1.84Z" fill="#fff"/>
      <path id="Trazado_1007" data-name="Trazado 1007" d="M212.115-19.314H206.6v-6.253h5.519Z" fill="#010407"/>
      <path id="Trazado_1008" data-name="Trazado 1008" d="M209.356-22.44h-1.84v-1.876h1.84Z" fill="#fff"/>
      <path id="Trazado_1009" data-name="Trazado 1009" d="M205.386-19.314h-5.519v-6.253h5.519Z" fill="#010407"/>
      <path id="Trazado_1010" data-name="Trazado 1010" d="M202.626-22.44h-1.84v-1.876h1.84Z" fill="#fff"/>
      <path id="Trazado_1011" data-name="Trazado 1011" d="M198.657-12.063h-5.519v-6.253h5.519Z" fill="#010407"/>
      <path id="Trazado_1012" data-name="Trazado 1012" d="M195.9-15.19h-1.84v-1.876h1.84Z" fill="#fff"/>
      <path id="Trazado_1013" data-name="Trazado 1013" d="M176.031-18.482h-4.365v-1.867h4.365Z" fill="#fff"/>
      <path id="Trazado_1014" data-name="Trazado 1014" d="M176.031-18.482h-4.365v-1.867h4.365Z" fill="none" stroke="#2b2e34" stroke-width="1"/>
      <path id="Trazado_1015" data-name="Trazado 1015" d="M181.826-18.482h-4.365v-1.867h4.365Z" fill="#fff"/>
      <path id="Trazado_1016" data-name="Trazado 1016" d="M181.826-18.482h-4.365v-1.867h4.365Z" fill="none" stroke="#2b2e34" stroke-width="1"/>
      <path id="Trazado_1017" data-name="Trazado 1017" d="M178.986-15.15h-4.365v-1.868h4.365Z" fill="#fff"/>
      <path id="Trazado_1018" data-name="Trazado 1018" d="M178.986-15.15h-4.365v-1.868h4.365Z" fill="none" stroke="#2b2e34" stroke-width="1"/>
      <path id="Trazado_1019" data-name="Trazado 1019" d="M176.031-11.818h-4.365v-1.868h4.365Z" fill="#fff"/>
      <path id="Trazado_1020" data-name="Trazado 1020" d="M176.031-11.818h-4.365v-1.868h4.365Z" fill="none" stroke="#2b2e34" stroke-width="1"/>
      <path id="Trazado_1021" data-name="Trazado 1021" d="M187.423-11.818h-4.365v-1.868h4.365Z" fill="#fff"/>
      <path id="Trazado_1022" data-name="Trazado 1022" d="M187.423-11.818h-4.365v-1.868h4.365Z" fill="none" stroke="#2b2e34" stroke-width="1"/>
      <path id="Trazado_1023" data-name="Trazado 1023" d="M181.727-11.818h-4.365v-1.868h4.365Z" fill="#fff"/>
      <path id="Trazado_1024" data-name="Trazado 1024" d="M181.727-11.818h-4.365v-1.868h4.365Z" fill="none" stroke="#2b2e34" stroke-width="1"/>
      <path id="Trazado_1025" data-name="Trazado 1025" d="M184.468-15.15H180.1v-1.868h4.365Z" fill="#fff"/>
      <path id="Trazado_1026" data-name="Trazado 1026" d="M184.468-15.15H180.1v-1.868h4.365Z" fill="none" stroke="#2b2e34" stroke-width="1"/>
      <path id="Trazado_1027" data-name="Trazado 1027" d="M187.423-15.15H185.44v-1.868h1.983Z" fill="#fff"/>
      <path id="Trazado_1028" data-name="Trazado 1028" d="M187.423-15.15H185.44v-1.868h1.983Z" fill="none" stroke="#2b2e34" stroke-width="1"/>
      <path id="Trazado_1029" data-name="Trazado 1029" d="M173.649-15.15h-1.983v-1.868h1.983Z" fill="#fff"/>
      <path id="Trazado_1030" data-name="Trazado 1030" d="M173.649-15.15h-1.983v-1.868h1.983Z" fill="none" stroke="#2b2e34" stroke-width="1"/>
      <path id="Trazado_1031" data-name="Trazado 1031" d="M178.986-8.807h-4.365v-1.868h4.365Z" fill="#fff"/>
      <path id="Trazado_1032" data-name="Trazado 1032" d="M178.986-8.807h-4.365v-1.868h4.365Z" fill="none" stroke="#2b2e34" stroke-width="1"/>
      <path id="Trazado_1033" data-name="Trazado 1033" d="M184.468-8.807H180.1v-1.868h4.365Z" fill="#fff"/>
      <path id="Trazado_1034" data-name="Trazado 1034" d="M184.468-8.807H180.1v-1.868h4.365Z" fill="none" stroke="#2b2e34" stroke-width="1"/>
      <path id="Trazado_1035" data-name="Trazado 1035" d="M187.423-8.807H185.44v-1.868h1.983Z" fill="#fff"/>
      <path id="Trazado_1036" data-name="Trazado 1036" d="M187.423-8.807H185.44v-1.868h1.983Z" fill="none" stroke="#2b2e34" stroke-width="1"/>
      <path id="Trazado_1037" data-name="Trazado 1037" d="M173.649-8.807h-1.983v-1.868h1.983Z" fill="#fff"/>
      <path id="Trazado_1038" data-name="Trazado 1038" d="M173.649-8.807h-1.983v-1.868h1.983Z" fill="none" stroke="#2b2e34" stroke-width="1"/>
      <g id="Grupo_701" data-name="Grupo 701" transform="translate(187.026 -22.871)">
        <path id="Trazado_1039" data-name="Trazado 1039" d="M0,0-3.682,2.048-4.717.322l3.682-2.048Z" fill="#fff"/>
      </g>
      <g id="Grupo_702" data-name="Grupo 702" transform="translate(187.026 -22.871)">
        <path id="Trazado_1040" data-name="Trazado 1040" d="M0,0-3.682,2.048-4.717.322l3.682-2.048Z" fill="none" stroke="#2b2e34" stroke-width="1"/>
      </g>
      <g id="Grupo_703" data-name="Grupo 703" transform="translate(51.958 -19.453)">
        <path id="Trazado_1041" data-name="Trazado 1041" d="M0,0H1.2" fill="none" stroke="#010407" stroke-width="1"/>
      </g>
      <g id="Grupo_704" data-name="Grupo 704" transform="translate(55.689 -19.453)">
        <path id="Trazado_1042" data-name="Trazado 1042" d="M0,0H18.973" fill="none" stroke="#010407" stroke-width="1" stroke-dasharray="3.795 3.795"/>
      </g>
      <g id="Grupo_705" data-name="Grupo 705" transform="translate(75.928 -19.453)">
        <path id="Trazado_1043" data-name="Trazado 1043" d="M0,0H1.2" fill="none" stroke="#010407" stroke-width="1"/>
      </g>
      <g id="Grupo_707" data-name="Grupo 707" clip-path="url(#clip-path)">
        <g id="Grupo_706" data-name="Grupo 706" transform="translate(80.757 -19.416)">
          <path id="Trazado_1044" data-name="Trazado 1044" d="M0,0A18.264,18.264,0,0,0-5.137,2.808L-4.1,0-5.137-2.807A18.237,18.237,0,0,0,0,0" fill="#010407"/>
        </g>
      </g>
      <g id="Grupo_708" data-name="Grupo 708" transform="translate(138.128 -19.453)">
        <path id="Trazado_1046" data-name="Trazado 1046" d="M0,0H1.2" fill="none" stroke="#010407" stroke-width="1"/>
      </g>
      <g id="Grupo_709" data-name="Grupo 709" transform="translate(141.86 -19.453)">
        <path id="Trazado_1047" data-name="Trazado 1047" d="M0,0H18.974" fill="none" stroke="#010407" stroke-width="1" stroke-dasharray="3.795 3.795"/>
      </g>
      <g id="Grupo_710" data-name="Grupo 710" transform="translate(162.098 -19.453)">
        <path id="Trazado_1048" data-name="Trazado 1048" d="M0,0H1.2" fill="none" stroke="#010407" stroke-width="1"/>
      </g>
      <g id="Grupo_712" data-name="Grupo 712" clip-path="url(#clip-path)">
        <g id="Grupo_711" data-name="Grupo 711" transform="translate(166.928 -19.416)">
          <path id="Trazado_1049" data-name="Trazado 1049" d="M0,0A18.264,18.264,0,0,0-5.137,2.808L-4.1,0-5.137-2.807A18.237,18.237,0,0,0,0,0" fill="#010407"/>
        </g>
      </g>
    </g>
  </g>
</svg>
