<svg xmlns="http://www.w3.org/2000/svg" xmlns:xlink="http://www.w3.org/1999/xlink" width="451.994" height="578.94" viewBox="0 0 451.994 578.94">
  <defs>
    <clipPath id="clip-path">
      <path id="Trazado_600" data-name="Trazado 600" d="M451.994,0H0V-578.94H451.994Z" transform="translate(0 578.94)" fill="none"/>
    </clipPath>
  </defs>
  <g id="Grupo_686" data-name="Grupo 686" transform="translate(-613 -211.06)">
    <g id="Grupo_685" data-name="Grupo 685" transform="translate(613 211.06)">
      <g id="Grupo_649" data-name="Grupo 649" clip-path="url(#clip-path)">
        <g id="Grupo_647" data-name="Grupo 647" transform="translate(97.904 395.028)">
          <path id="Trazado_598" data-name="Trazado 598" d="M-109.775,0c-2.771,51.2-51.856,405.137-40.783,484,102.387,2.072,175.721,6.223,175.721,6.223L42.407-8.088S-93.484-1.3-109.775,0" transform="translate(152.182 8.088)" fill="#eee7ee"/>
        </g>
        <g id="Grupo_648" data-name="Grupo 648" transform="translate(-58.917 401.817)">
          <path id="Trazado_599" data-name="Trazado 599" d="M-27.3,0C4.869,20.752,68.169,18.674,68.169,18.674c-4.146-71.6-10.374-410.8,25.942-532.215-22.827,0-72.342,11.936-84.8,20.236s-141.421,278.627-130,475.791c36.318-9.34,72.637-2.076,72.637-2.076C-49.1-82.891.723-311.186.723-311.186-1.356-206.375-21.773-127.307-27.3,0" transform="translate(121.407 513.541)" fill="#2c5a68"/>
        </g>
      </g>
      <g id="Grupo_650" data-name="Grupo 650" transform="translate(157.641 307.905)">
        <path id="Trazado_601" data-name="Trazado 601" d="M-76.794,0c2.6,22.832,11.416,64.341,1.036,75.238A45.015,45.015,0,0,1-98.584,88.207c37.557,73.847,40.5,108.613,120.374-8.3-5.765-.557-8.33.151-9.3.861-1.73,1.268,1.661,2.537.995-3.454C12.453,67.975,7.261-5.705,7.261-5.705Z" transform="translate(98.584 5.705)" fill="#da925f"/>
      </g>
      <g id="Grupo_651" data-name="Grupo 651" transform="translate(182.377 328.346)">
        <path id="Trazado_602" data-name="Trazado 602" d="M-85.382,0h.008c1.923,13.732,3.709,28.656,2.745,39.694l-.023,0c.968-11.041-.812-25.958-2.73-39.693M-2.816-6.807C-1.984,4.788-.924,19.391,0,31.675-.926,19.393-1.985,4.789-2.817-6.807Z" transform="translate(85.382 6.807)" fill="#d1a682"/>
      </g>
      <g id="Grupo_655" data-name="Grupo 655" clip-path="url(#clip-path)">
        <g id="Grupo_653" data-name="Grupo 653" transform="translate(182.385 328.346)">
          <path id="Trazado_604" data-name="Trazado 604" d="M79.742,0c.832,11.6,1.891,26.2,2.815,38.481a212.62,212.62,0,0,1-61.771,8.985c-7.154,0-14.128-.342-20.856-.965C.894,35.464-.892,20.54-2.815,6.808a228.717,228.717,0,0,0,23.75,1.24h.215A212.888,212.888,0,0,0,79.742,0" transform="translate(2.815)" fill="#be733a"/>
        </g>
        <g id="Grupo_654" data-name="Grupo 654" transform="translate(82.471 2.864)">
          <path id="Trazado_605" data-name="Trazado 605" d="M-133.932,0c-44.283,25.3-55.733,30.726-44.88,95.783,10.838,65.071,20.485,134.947,15.66,187.964,1.2,18.073,112.053,61.445,206.037,7.227,8.429-85.549,9.636-201.215-9.641-254.227S-66.456-31.329-133.932,0" transform="translate(182.633 16.209)" fill="#da925f"/>
        </g>
      </g>
      <g id="Grupo_656" data-name="Grupo 656" transform="translate(306.141 148.654)">
        <path id="Trazado_607" data-name="Trazado 607" d="M-59.215,0C-55-45.778,4.038-26.5-.176,6.633S-42.353,71.692-56.209,42.774C-59.826,11.445-59.215,0-59.215,0" transform="translate(59.254 27.047)" fill="#da925f"/>
      </g>
      <g id="Grupo_657" data-name="Grupo 657" transform="translate(167.506 140.758)">
        <path id="Trazado_608" data-name="Trazado 608" d="M19.854,0a4.223,4.223,0,0,0-1.085-.527c-.732-.287-1.794-.745-3.149-1.356-.681-.3-1.4-.7-2.216-1.091S11.772-3.9,10.862-4.426A27.47,27.47,0,0,1,5.441-8.952a17.272,17.272,0,0,1-3.818-7.472,22.629,22.629,0,0,1,.123-9.685A64.255,64.255,0,0,1,5.407-36.433,113.374,113.374,0,0,0,9.394-47.7a82.521,82.521,0,0,0,3.484-22.808,94.087,94.087,0,0,0-1.9-18.745A121.175,121.175,0,0,0,7.74-101.519c-.476-1.419-.855-2.518-1.126-3.257a4.176,4.176,0,0,0-.478-1.106,4.215,4.215,0,0,0,.224,1.187c.19.764.489,1.884.888,3.32.78,2.879,1.818,7.068,2.812,12.294a99.394,99.394,0,0,1,1.6,18.555,83.048,83.048,0,0,1-.948,10.943c-.242,1.892-.682,3.784-1.062,5.715C9.169-51.959,8.745-50,8.129-48.075A117.381,117.381,0,0,1,4.21-36.918,63.527,63.527,0,0,0,.558-26.361a23.464,23.464,0,0,0,0,10.191A18.053,18.053,0,0,0,4.746-8.33,27.228,27.228,0,0,0,10.479-3.8c.947.5,1.812,1,2.644,1.384s1.591.737,2.294,1c1.4.544,2.5.927,3.262,1.134A4.171,4.171,0,0,0,19.854,0" transform="translate(0 105.882)" fill="#79441d"/>
      </g>
      <g id="Grupo_658" data-name="Grupo 658" transform="translate(213.506 68.603)">
        <path id="Trazado_609" data-name="Trazado 609" d="M-58.812,0c-2.253,9.484-1.354,34.787,1.8,35.24S-36.22,22.588-1.882,53.313c4.069-8.584,3.789-23.2,1.361-30.272C-5.494,8.584-48.423-11.3-58.812,0" transform="translate(60.064 3.335)" fill="#462715"/>
      </g>
      <g id="Grupo_664" data-name="Grupo 664" clip-path="url(#clip-path)">
        <g id="Grupo_660" data-name="Grupo 660" transform="translate(82.7 74.284)">
          <path id="Trazado_611" data-name="Trazado 611" d="M31.959,0c3.1,9.143,7.48,32.744,5.055,33.545S18.853,24.207-.239,58.572c-4.39-8.049-6.209-22.554-5.285-29.826C-3.637,13.875,22.23-10.041,31.959,0" transform="translate(5.759 2.39)" fill="#462715"/>
        </g>
        <g id="Grupo_661" data-name="Grupo 661" transform="translate(86.21 -0.825)">
          <path id="Trazado_612" data-name="Trazado 612" d="M-230.195,0C-202.177,21.236-138.2-9.162-105.67-25.424-65.538-39.951-23.688-4.148-24.833,2.094-25.287,35.072-32.967,54.5-28,74.84s5.422,43.826,4.068,55.575,14.912,19.877,14.912,19.877c.449-23.948,5.876-42.472,8.129-48.351s.45-64.605-8.129-92.17S-118.122-104.807-230.195,0" transform="translate(230.195 50.337)" fill="#462715"/>
        </g>
        <g id="Grupo_662" data-name="Grupo 662" transform="translate(322.232 168.25)">
          <path id="Trazado_613" data-name="Trazado 613" d="M-24.189,0c.017.042.3-.034.837-.217a21.018,21.018,0,0,0,2.292-.918,26.124,26.124,0,0,0,3.454-1.859,19.863,19.863,0,0,0,4.049-3.315,12.615,12.615,0,0,0,3.139-5.6,9.532,9.532,0,0,0-1.21-7.308,10.152,10.152,0,0,0-6.813-4.544,10.3,10.3,0,0,0-4.422.2c-.369.08-.717.231-1.078.345l-.318.112-.011,0,.071-.494a44.13,44.13,0,0,1,1.947-8.116,22.362,22.362,0,0,1,3.607-6.747A11.765,11.765,0,0,1-13.2-42.4a10.059,10.059,0,0,1,5.843-.085,14.5,14.5,0,0,1,7.129,4.9c1.313,1.642,1.832,2.715,1.938,2.659.041-.02-.057-.3-.285-.819A13.21,13.21,0,0,0,.182-37.9a15.546,15.546,0,0,0-2.664-2.918,13.671,13.671,0,0,0-4.609-2.564,10.917,10.917,0,0,0-6.435-.064,12.75,12.75,0,0,0-6.056,4.214,23.125,23.125,0,0,0-3.885,7.084A43.909,43.909,0,0,0-25.5-23.793q-.119.832-.235,1.659l-.152,1.071-.018.133v.055l.06-.029.241-.113.48-.227.957-.452.453-.21.237-.082c.319-.1.626-.238.951-.307a9.062,9.062,0,0,1,3.869-.194,8.979,8.979,0,0,1,6.011,3.928,8.46,8.46,0,0,1,1.166,6.413,11.872,11.872,0,0,1-2.767,5.217,20.14,20.14,0,0,1-3.766,3.325,31.264,31.264,0,0,1-3.272,2.012A22.771,22.771,0,0,0-24.189,0" transform="translate(25.909 43.902)" fill="#79441d"/>
        </g>
        <g id="Grupo_663" data-name="Grupo 663" transform="translate(60.435 434.674)">
          <path id="Trazado_614" data-name="Trazado 614" d="M-20.834,0c.777.037,1.946-11.576,3.461-30.348,1.438-18.779,3.4-44.695,5.906-73.277C-9-132.219-5.8-157.959-3.308-176.59-.555-195.152,1.333-206.662.5-206.852c-.64-.152-3.872,11.1-7.617,29.629-3.5,18.571-7.328,44.411-9.8,73.1-2.518,28.685-3.867,54.715-4.321,73.564-.524,18.848-.324,30.514.4,30.555" transform="translate(21.533 206.854)" fill="#2b3166"/>
        </g>
      </g>
      <g id="Grupo_665" data-name="Grupo 665" transform="translate(196.011 123.757)">
        <path id="Trazado_616" data-name="Trazado 616" d="M64.569,0l.394-.919A5.88,5.88,0,0,1,67.225.955,19.587,19.587,0,0,1,70.04,6.908c2.315,7.325,3.414,18.363,3.419,27.457a74.655,74.655,0,0,1-.533,9.571,24.747,24.747,0,0,1-.681,3.458,6.714,6.714,0,0,1-1.094,2.366,3.9,3.9,0,0,1-1.242.932,18.146,18.146,0,0,1-3.744,1.281c-5.459,1.367-14.76,2.481-24.727,3.271s-20.553,1.238-28.5,1.238c-3.28,0-6.107-.076-8.268-.241-1.082-.083-2-.186-2.736-.32a8.58,8.58,0,0,1-.991-.232,3.106,3.106,0,0,1-.812-.361A3.539,3.539,0,0,1-.878,54.164a17.854,17.854,0,0,1-1.467-3.612c-1.649-5.287-3.269-14.282-4.5-22.928-.613-4.32-1.124-8.545-1.482-12.156s-.566-6.6-.567-8.5a10.049,10.049,0,0,1,.118-1.8,2.989,2.989,0,0,1,.41-.98A8.414,8.414,0,0,1-6.787,2.409C-4.37.259.163-2.4,6.46-4.569A73.121,73.121,0,0,1,30.124-8.376,88.1,88.1,0,0,1,64.963-.919L64.569,0l-.394.919A86.107,86.107,0,0,0,30.124-6.376,69.2,69.2,0,0,0,3.361-1.244a38.507,38.507,0,0,0-7.538,4.12A13.584,13.584,0,0,0-6.168,4.6a4.5,4.5,0,0,0-.492.632,1.132,1.132,0,0,0-.15.322,8.481,8.481,0,0,0-.079,1.411c0,2.155.3,6.082.811,10.742.767,7,2.008,15.684,3.4,22.827.695,3.571,1.43,6.758,2.152,9.131a22.185,22.185,0,0,0,1.05,2.872,5.926,5.926,0,0,0,.458.826,1.288,1.288,0,0,0,.264.3l.074.036a6.228,6.228,0,0,0,1.355.316,79.672,79.672,0,0,0,10.268.466c9.592,0,23.185-.668,34.721-1.794,5.767-.562,11.024-1.24,14.994-2a40.2,40.2,0,0,0,4.865-1.183,10.19,10.19,0,0,0,1.465-.589,2.123,2.123,0,0,0,.615-.423,4.978,4.978,0,0,0,.72-1.653,29.346,29.346,0,0,0,.845-5.188c.192-2.139.291-4.624.29-7.288a116.094,116.094,0,0,0-1.931-21.28,41.565,41.565,0,0,0-2.4-8.282,12.5,12.5,0,0,0-1.485-2.622A3.922,3.922,0,0,0,64.175.919Z" transform="translate(8.89 8.376)" fill="#010000"/>
      </g>
      <g id="Grupo_666" data-name="Grupo 666" transform="translate(80.077 131.386)">
        <path id="Trazado_617" data-name="Trazado 617" d="M61.392,0l.329-.944a6.258,6.258,0,0,1,2.716,2.1,24.558,24.558,0,0,1,3.57,7.208c3.065,8.956,4.844,22.386,4.85,31.463a41.947,41.947,0,0,1-.324,5.679,14.715,14.715,0,0,1-.433,2.1,5.4,5.4,0,0,1-.717,1.589,4.247,4.247,0,0,1-1.411,1.151,23.643,23.643,0,0,1-4.593,1.758c-6.806,2.008-18.528,4.023-30.147,5.555S12.153,60.226,5.877,60.228c-1.182,0-2.182-.037-2.989-.118a9.5,9.5,0,0,1-1.079-.163,3.214,3.214,0,0,1-.884-.314l0,0A3.63,3.63,0,0,1-.209,58.477,19.331,19.331,0,0,1-2,54.727c-2.1-5.54-4.451-15.044-6.294-23.9C-9.211,26.4-10,22.142-10.564,18.638c-.281-1.753-.5-3.316-.659-4.623a28.786,28.786,0,0,1-.242-3.115,5.706,5.706,0,0,1,.036-.7v-.007a3.109,3.109,0,0,1,.383-1.081A9.344,9.344,0,0,1-9.392,7.069c2.6-2.535,7.606-5.808,14.655-8.5A75.348,75.348,0,0,1,31.994-6.177,89.885,89.885,0,0,1,61.722-.944L61.392,0l-.33.944A87.906,87.906,0,0,0,31.994-4.177a71.574,71.574,0,0,0-30.215,6.4,42.178,42.178,0,0,0-8.37,5.045A15.37,15.37,0,0,0-8.766,9.331a5.009,5.009,0,0,0-.527.748,1.227,1.227,0,0,0-.152.374v-.007a4.133,4.133,0,0,0-.021.454,33.411,33.411,0,0,0,.336,3.751c.769,5.913,2.766,16.393,5.005,25.6,1.119,4.6,2.3,8.9,3.412,12.136A33.519,33.519,0,0,0,.865,56.334a8.517,8.517,0,0,0,.668,1.145,1.672,1.672,0,0,0,.384.417h0L2,57.929a6.553,6.553,0,0,0,1.364.217c.667.054,1.517.082,2.514.082,7.422,0,22.807-1.526,36.654-3.613C49.458,53.573,56.013,52.39,61,51.2a55.659,55.659,0,0,0,6.14-1.77,13.418,13.418,0,0,0,1.849-.82,2.556,2.556,0,0,0,.76-.564,3.567,3.567,0,0,0,.429-1,28.5,28.5,0,0,0,.675-7.214,117.156,117.156,0,0,0-2.835-23.978,54.194,54.194,0,0,0-3.234-10.2,15.839,15.839,0,0,0-1.909-3.243A4.339,4.339,0,0,0,61.063.944Z" transform="translate(11.465 6.177)" fill="#010000"/>
      </g>
      <g id="Grupo_667" data-name="Grupo 667" transform="translate(161.481 155.298)">
        <path id="Trazado_618" data-name="Trazado 618" d="M35.367,0a16.892,16.892,0,0,0-7.418-4.316A34.723,34.723,0,0,0,17.527-5.871,28.113,28.113,0,0,0,6.389-3.8a13.433,13.433,0,0,0-3.952,2.58A8.39,8.39,0,0,0,.211,2.342,1,1,0,0,1-1.039,3,1,1,0,0,1-1.7,1.754,10.4,10.4,0,0,1,1.041-2.653,17.419,17.419,0,0,1,8.307-6.627a32.779,32.779,0,0,1,9.22-1.244A36.713,36.713,0,0,1,28.561-6.22a18.811,18.811,0,0,1,8.3,4.886A1,1,0,0,1,36.779.078,1,1,0,0,1,35.367,0" transform="translate(1.745 7.871)" fill="#010000"/>
      </g>
      <g id="Grupo_668" data-name="Grupo 668" transform="translate(276.669 152.284)">
        <path id="Trazado_619" data-name="Trazado 619" d="M35.538,0-.259-4.67a1,1,0,0,1-.862-1.121A1,1,0,0,1,0-6.653l35.8,4.67a1,1,0,0,1,.863,1.121A1,1,0,0,1,35.538,0" transform="translate(1.129 6.662)" fill="#010000"/>
      </g>
      <g id="Grupo_669" data-name="Grupo 669" transform="translate(224.047 139.044)">
        <path id="Trazado_620" data-name="Trazado 620" d="M-24.406,0c0,10.463,5.466,18.939,12.208,18.939S0,10.463,0,0-5.466-18.943-12.2-18.943-24.406-10.467-24.406,0" transform="translate(24.406 18.943)" fill="#2a150d"/>
      </g>
      <g id="Grupo_670" data-name="Grupo 670" transform="translate(113.969 146.274)">
        <path id="Trazado_621" data-name="Trazado 621" d="M-24.405,0c0,10.459,5.465,18.947,12.2,18.947S0,10.459,0,0-5.461-18.939-12.2-18.939-24.405-10.457-24.405,0" transform="translate(24.405 18.939)" fill="#2a150d"/>
      </g>
      <g id="Grupo_671" data-name="Grupo 671" transform="translate(264.938 224.718)">
        <path id="Trazado_622" data-name="Trazado 622" d="M48.209,0c.067.071.132.139.2.208-.837,29.426-2.741,58.715-5.347,85.122a192.467,192.467,0,0,1-43.255,18.3c0-.02,0-.039-.005-.059A192.548,192.548,0,0,0,42.852,85.33C45.46,58.857,47.377,29.492,48.209,0" transform="translate(0.199)" fill="#c0aca0"/>
      </g>
      <g id="Grupo_672" data-name="Grupo 672" transform="translate(264.938 328.287)">
        <path id="Trazado_623" data-name="Trazado 623" d="M0,0C0,.021,0,.04,0,.06H0C0,.039,0,.021,0,0Z" transform="translate(0.004)" fill="#a77a5a"/>
      </g>
      <g id="Grupo_673" data-name="Grupo 673" transform="translate(206.236 328.287)">
        <path id="Trazado_624" data-name="Trazado 624" d="M58.7,0c0,.021,0,.039.005.06A212.885,212.885,0,0,1,.109,8.107H0A212.749,212.749,0,0,0,58.7,0" transform="translate(0.005)" fill="#9c5b2f"/>
      </g>
      <g id="Grupo_674" data-name="Grupo 674" transform="translate(102.167 185.432)">
        <path id="Trazado_625" data-name="Trazado 625" d="M170.668,0c2.8,8.241,13.106,13.759,14.2,14.324.445,5.238,1.057,11.442,1.9,18.719a24.378,24.378,0,0,0,4.16,6.243c-.832,29.492-2.749,58.857-5.358,85.329a192.429,192.429,0,0,1-43.05,18.239h0a212.713,212.713,0,0,1-58.7,8.107c-57.512-.03-103.295-21.994-104.069-33.573.944-10.441,1.315-21.541,1.247-33.116C-8.433,96.177,2.77,105.41,7.084,105.41a1.989,1.989,0,0,0,.976-.221c4.063-2.263-5.881-26.212,1.35-28.019a5.015,5.015,0,0,1,1.2-.12c2.077,0,5.483.738,10.185,1.477A113.256,113.256,0,0,0,38.743,80c19.393,0,47.79-5.277,84.529-29.935a4.03,4.03,0,0,1,1.489-.322c6.927,0,2.426,24.742,7.092,25.171.04,0,.082.006.127.006,5.414,0,40.107-26.745,42.346-36.611,1.627-7.142-3.283-24.552-3.658-38.313" transform="translate(20.256)" fill="#ac6d45"/>
      </g>
      <g id="Grupo_675" data-name="Grupo 675" transform="translate(307.29 184.189)">
        <path id="Trazado_626" data-name="Trazado 626" d="M-4.152,0c1.1,10.151,3.058,23.23,5.251,37.243q-.043,1.748-.094,3.494l-.2-.208a24.378,24.378,0,0,1-4.16-6.243c-.84-7.277-1.452-13.481-1.9-18.719l.094.049c.1-5.524.472-10.758,1-15.616" transform="translate(5.251)" fill="#ac6d45"/>
      </g>
      <g id="Grupo_676" data-name="Grupo 676" transform="translate(293.068 170.752)">
        <path id="Trazado_627" data-name="Trazado 627" d="M-2.444,0C1.93,0,5.642,3.158,5.642,4.2c.15,2.692.423,5.8.8,9.241-.533,4.858-.9,10.092-1,15.616L5.339,29c-1.093-.565-11.4-6.083-14.2-14.324-.146-5.386.4-10.214,2.31-13.646A8.555,8.555,0,0,1-2.444,0" transform="translate(8.882)" fill="#482815"/>
      </g>
      <g id="Grupo_677" data-name="Grupo 677" transform="translate(151.504 256.73)">
        <path id="Trazado_628" data-name="Trazado 628" d="M82.675,0a21.5,21.5,0,0,0-2.246,3.111c-.679,1.026-1.6,2.22-2.607,3.646-.5.715-1.108,1.426-1.709,2.211s-1.244,1.61-1.976,2.428A71.462,71.462,0,0,1,63.109,22.071a54.357,54.357,0,0,1-16.437,8.835,51.424,51.424,0,0,1-18.47,2.5,60.257,60.257,0,0,1-15.078-2.67,72.493,72.493,0,0,1-9.656-3.811A30.1,30.1,0,0,0-.005,25.3c-.023.039.251.247.795.607s1.356.876,2.442,1.473a59.2,59.2,0,0,0,9.605,4.242,57.907,57.907,0,0,0,15.3,3,54.709,54.709,0,0,0,9.245-.29,50.1,50.1,0,0,0,9.7-2.171,53.888,53.888,0,0,0,16.773-9.131,67.746,67.746,0,0,0,11-11.04c.717-.846,1.333-1.706,1.922-2.511s1.167-1.551,1.643-2.292c.957-1.477,1.822-2.721,2.439-3.8A21.266,21.266,0,0,0,82.675,0" transform="translate(0.006 0.001)" fill="#79441d"/>
      </g>
      <g id="Grupo_684" data-name="Grupo 684" clip-path="url(#clip-path)">
        <g id="Grupo_679" data-name="Grupo 679" transform="translate(330.374 417.548)">
          <path id="Trazado_630" data-name="Trazado 630" d="M23.591,0c.206-.434-1.3-1.281-3.318-3.428A34.2,34.2,0,0,1,13.8-14.066C9.678-23.932,7.009-38.9,5.918-55.541A336.918,336.918,0,0,1,5.9-98.355c.65-10.969,1.833-17.655,1.084-17.87-.7-.216-3.27,6.358-4.922,17.45a205.84,205.84,0,0,0-1.609,43.6C1.576-38.145,4.916-22.643,10.3-12.412a29.009,29.009,0,0,0,8.58,10.605C21.607.066,23.509.254,23.591,0" transform="translate(0.019 116.23)" fill="#343942"/>
        </g>
        <g id="Grupo_680" data-name="Grupo 680" transform="translate(324.462 438.034)">
          <path id="Trazado_631" data-name="Trazado 631" d="M17.384,0c.346-.146-.025-2.227-1-5.838-.455-1.822-1.179-3.98-1.815-6.555s-1.363-5.492-2.165-8.716A267.669,267.669,0,0,1,5.518-72.43a248.3,248.3,0,0,1,.4-28.5A186.644,186.644,0,0,1,8.783-124,112.725,112.725,0,0,1,12.6-139.152c1.227-3.448,2.029-5.379,1.672-5.608-.274-.187-1.721,1.4-3.627,4.758a70.014,70.014,0,0,0-5.632,15.137,143.938,143.938,0,0,0-4.122,23.5A201.279,201.279,0,0,0,.052-72.219,201.082,201.082,0,0,0,8.671-20.09c1.11,3.2,2.108,6.094,2.987,8.633.929,2.529,1.961,4.615,2.733,6.342C15.985-1.678,17.032.137,17.384,0" transform="translate(0.127 144.775)" fill="#343942"/>
        </g>
        <g id="Grupo_681" data-name="Grupo 681" transform="translate(215.118 393.169)">
          <path id="Trazado_632" data-name="Trazado 632" d="M-40.845,0c21.79,4.152,60.011,7.787,76.618,17.127s-.347,123.482-.347,123.482C15.71,254.76,23.976,271.145,25.854,346.979,28.811,466.35,62.091,513.115,62.091,513.115-.174,550.471-72.574,541.66-72.574,541.66-112.008,452.42-123.863,327.918-40.845,0" transform="translate(102.936 0)" fill="#2c5a68"/>
        </g>
        <g id="Grupo_682" data-name="Grupo 682" transform="translate(334.206 409.255)">
          <path id="Trazado_633" data-name="Trazado 633" d="M-129.46,0c15.218,1.387,45.48,16.25,78.69,122.1S16.336,277.07,16.336,320.652,8.035,509.521-1.65,528.2c-27.672-18.68-68.494-22.142-80.251-16.6-1.384-92.014,34.593-172.262-25.594-285.028C-141.4,165-161.977,115.539-129.46,0" transform="translate(145.796)" fill="#2c5a68"/>
        </g>
        <g id="Grupo_683" data-name="Grupo 683" transform="translate(329.4 441.929)">
          <path id="Trazado_634" data-name="Trazado 634" d="M17.382,0c.347-.141-.024-2.223-.993-5.84-.454-1.814-1.183-3.978-1.819-6.551s-1.364-5.49-2.166-8.718A267.974,267.974,0,0,1,5.517-72.43a248.325,248.325,0,0,1,.4-28.5A185.63,185.63,0,0,1,8.787-124,111.79,111.79,0,0,1,12.6-139.146c1.227-3.452,2.029-5.389,1.668-5.614-.265-.187-1.711,1.4-3.618,4.758a69.815,69.815,0,0,0-5.632,15.139A143.578,143.578,0,0,0,.9-101.365,200.391,200.391,0,0,0,.052-72.219,201.181,201.181,0,0,0,8.675-20.088c1.1,3.2,2.106,6.094,2.986,8.639.925,2.521,1.956,4.613,2.729,6.34C15.984-1.676,17.034.139,17.382,0" transform="translate(0.128 144.775)" fill="#2b3166"/>
        </g>
      </g>
    </g>
  </g>
</svg>
