<?xml version="1.0" encoding="utf-8"?>
<!-- Generator: Adobe Illustrator 24.3.0, SVG Export Plug-In . SVG Version: 6.00 Build 0)  -->
<svg version="1.1" id="Layer_1" xmlns="http://www.w3.org/2000/svg" xmlns:xlink="http://www.w3.org/1999/xlink" x="0px" y="0px"
	 viewBox="0 0 2400 1847.5" style="enable-background:new 0 0 2400 1847.5;" xml:space="preserve">
<style type="text/css">
	.st0{opacity:0.1;}
	.st1{fill:#FFFFFF;}
</style>
<g class="st0">
	<g>
		<g id="XMLID_75_">
			<path id="XMLID_112_" class="st1" d="M746.4,1096.8c-11.3,0-17.1-6.4-22-11.5c-4.5-4.8-8-8.7-15.4-8.7s-10.9,3.8-15.4,8.7
				c-4.7,5.2-10.7,11.5-22,11.5s-17.1-6.4-22-11.5c-4.5-4.8-8-8.7-15.4-8.7s-10.9,3.8-15.4,8.7c-4.7,5.2-10.7,11.5-22,11.5
				c-11.3,0-17.1-6.4-22-11.5c-4.5-4.8-8-8.7-15.4-8.7c-7.4,0-10.9,3.8-15.4,8.7c-4.7,5.2-10.7,11.5-22,11.5
				c-11.3,0-17.1-6.4-22-11.5c-4.5-4.8-8-8.7-15.4-8.7c-7.4,0-10.9,3.8-15.4,8.7c-4.7,5.2-10.7,11.5-22,11.5
				c-11.3,0-17.1-6.4-22-11.5c-4.5-4.8-8-8.7-15.4-8.7c-7.4,0-10.9,3.8-15.4,8.7c-4.7,5.2-10.7,11.5-22,11.5c-2.5,0-4.5-2-4.5-4.5
				c0-2.5,2-4.5,4.5-4.5c7.4,0,10.9-3.8,15.4-8.7c4.7-5.2,10.7-11.5,22-11.5c11.3,0,17.1,6.4,22,11.5c4.5,4.8,8,8.7,15.4,8.7
				c7.4,0,10.9-3.8,15.4-8.7c4.7-5.2,10.7-11.5,22-11.5c11.3,0,17.1,6.4,22,11.5c4.5,4.8,8,8.7,15.4,8.7c7.4,0,10.9-3.8,15.4-8.7
				c4.7-5.2,10.7-11.5,22-11.5c11.3,0,17.1,6.4,22,11.5c4.5,4.8,8,8.7,15.4,8.7s10.9-3.8,15.4-8.7c4.7-5.2,10.7-11.5,22-11.5
				s17.1,6.4,22,11.5c4.5,4.8,8,8.7,15.4,8.7s10.9-3.8,15.4-8.7c4.7-5.2,10.7-11.5,22-11.5s17.1,6.4,22,11.5c4.5,4.8,8,8.7,15.4,8.7
				c2.5,0,4.5,2,4.5,4.5C750.9,1094.9,748.9,1096.8,746.4,1096.8z"/>
		</g>
		<g id="XMLID_130_">
			<path id="XMLID_131_" class="st1" d="M607.2,1426.6c-11.3,0-17.1-6.4-22-11.5c-4.5-4.8-8-8.7-15.4-8.7s-10.9,3.8-15.4,8.7
				c-4.7,5.2-10.7,11.5-22,11.5s-17.1-6.4-22-11.5c-4.5-4.8-8-8.7-15.4-8.7c-7.4,0-10.9,3.8-15.4,8.7c-4.7,5.2-10.7,11.5-22,11.5
				c-11.3,0-17.1-6.4-22-11.5c-4.5-4.8-8-8.7-15.4-8.7c-7.4,0-10.9,3.8-15.4,8.7c-4.7,5.2-10.7,11.5-22,11.5
				c-11.3,0-17.1-6.4-22-11.5c-4.5-4.8-8-8.7-15.4-8.7c-7.4,0-10.9,3.8-15.4,8.7c-4.7,5.2-10.7,11.5-22,11.5
				c-11.3,0-17.1-6.4-22-11.5c-4.5-4.8-8-8.7-15.4-8.7c-7.4,0-10.9,3.8-15.4,8.7c-4.7,5.2-10.7,11.5-22,11.5c-2.5,0-4.5-2-4.5-4.5
				c0-2.5,2-4.5,4.5-4.5c7.4,0,10.9-3.8,15.4-8.7c4.7-5.2,10.7-11.5,22-11.5c11.3,0,17.1,6.4,22,11.5c4.5,4.8,8,8.7,15.4,8.7
				c7.4,0,10.9-3.8,15.4-8.7c4.7-5.2,10.7-11.5,22-11.5c11.3,0,17.1,6.4,22,11.5c4.5,4.8,8,8.7,15.4,8.7s10.9-3.8,15.4-8.7
				c4.7-5.2,10.7-11.5,22-11.5c11.3,0,17.1,6.4,22,11.5c4.5,4.8,8,8.7,15.4,8.7c7.4,0,10.9-3.8,15.4-8.7c4.7-5.2,10.7-11.5,22-11.5
				c11.3,0,17.1,6.4,22,11.5c4.5,4.8,8,8.7,15.4,8.7s10.9-3.8,15.4-8.7c4.7-5.2,10.7-11.5,22-11.5s17.1,6.4,22,11.5
				c4.5,4.8,8,8.7,15.4,8.7c2.5,0,4.5,2,4.5,4.5C611.7,1424.5,609.7,1426.6,607.2,1426.6z"/>
		</g>
		<g id="XMLID_132_">
			<path id="XMLID_133_" class="st1" d="M1531.3,881.3c-9.3,0-14.2-5.3-18.1-9.6c-3.7-4-6.6-7.1-12.6-7.1s-9,3.2-12.6,7.1
				c-4,4.3-8.8,9.6-18.1,9.6s-14.2-5.3-18.1-9.6c-3.7-4-6.6-7.1-12.6-7.1s-9,3.2-12.6,7.1c-4,4.3-8.8,9.6-18.1,9.6
				s-14.2-5.3-18.1-9.6c-3.7-4-6.6-7.1-12.6-7.1s-9,3.2-12.6,7.1c-4,4.3-8.8,9.6-18.1,9.6s-14.2-5.3-18.1-9.6
				c-3.7-4-6.6-7.1-12.7-7.1c-6,0-9,3.2-12.6,7.1c-4,4.3-8.8,9.6-18.1,9.6c-9.3,0-14.2-5.3-18.1-9.6c-3.7-4-6.6-7.1-12.7-7.1
				c-6,0-9,3.2-12.7,7.1c-4,4.3-8.8,9.6-18.1,9.6c-2.1,0-3.7-1.6-3.7-3.7c0-2.1,1.6-3.7,3.7-3.7c6,0,9-3.2,12.7-7.1
				c4-4.3,8.8-9.6,18.1-9.6s14.2,5.3,18.1,9.6c3.7,4,6.6,7.1,12.7,7.1c6,0,9-3.2,12.6-7.1c4-4.3,8.8-9.6,18.1-9.6
				c9.3,0,14.2,5.3,18.1,9.6c3.7,4,6.6,7.1,12.7,7.1c6,0,9-3.2,12.6-7.1c4-4.3,8.8-9.6,18.1-9.6s14.2,5.3,18.1,9.6
				c3.7,4,6.6,7.1,12.6,7.1s9-3.2,12.6-7.1c4-4.3,8.8-9.6,18.1-9.6s14.2,5.3,18.1,9.6c3.7,4,6.6,7.1,12.6,7.1s9-3.2,12.6-7.1
				c4-4.3,8.8-9.6,18.1-9.6s14.2,5.3,18.1,9.6c3.7,4,6.6,7.1,12.6,7.1c2.1,0,3.7,1.6,3.7,3.7
				C1534.9,879.6,1533.3,881.3,1531.3,881.3z"/>
		</g>
		<g id="XMLID_1_">
			<path id="XMLID_2_" class="st1" d="M1980.7,522.8c-9.3,0-14.2-5.3-18.1-9.6c-3.7-4-6.6-7.1-12.6-7.1s-9,3.2-12.6,7.1
				c-4,4.3-8.8,9.6-18.1,9.6s-14.2-5.3-18.1-9.6c-3.7-4-6.6-7.1-12.6-7.1s-9,3.2-12.6,7.1c-4,4.3-8.8,9.6-18.1,9.6
				s-14.2-5.3-18.1-9.6c-3.7-4-6.6-7.1-12.6-7.1s-9,3.2-12.6,7.1c-4,4.3-8.8,9.6-18.1,9.6s-14.2-5.3-18.1-9.6
				c-3.7-4-6.6-7.1-12.7-7.1c-6,0-9,3.2-12.6,7.1c-4,4.3-8.8,9.6-18.1,9.6s-14.2-5.3-18.1-9.6c-3.7-4-6.6-7.1-12.7-7.1
				c-6,0-9,3.2-12.7,7.1c-4,4.3-8.8,9.6-18.1,9.6c-2.1,0-3.7-1.6-3.7-3.7c0-2.1,1.6-3.7,3.7-3.7c6,0,9-3.2,12.7-7.1
				c4-4.3,8.8-9.6,18.1-9.6c9.3,0,14.2,5.3,18.1,9.6c3.7,4,6.6,7.1,12.7,7.1c6,0,9-3.2,12.6-7.1c4-4.3,8.8-9.6,18.1-9.6
				s14.2,5.3,18.1,9.6c3.7,4,6.6,7.1,12.7,7.1c6,0,9-3.2,12.6-7.1c4-4.3,8.8-9.6,18.1-9.6s14.2,5.3,18.1,9.6c3.7,4,6.6,7.1,12.6,7.1
				s9-3.2,12.6-7.1c4-4.3,8.8-9.6,18.1-9.6s14.2,5.3,18.1,9.6c3.7,4,6.6,7.1,12.6,7.1s9-3.2,12.6-7.1c4-4.3,8.8-9.6,18.1-9.6
				s14.2,5.3,18.1,9.6c3.7,4,6.6,7.1,12.6,7.1c2.1,0,3.7,1.6,3.7,3.7C1984.4,521.1,1982.8,522.8,1980.7,522.8z"/>
		</g>
		<g id="XMLID_4_">
			<path id="XMLID_5_" class="st1" d="M1620.7,1728.2c-9.3,0-14.2-5.3-18.1-9.6c-3.7-4-6.6-7.1-12.6-7.1s-9,3.2-12.6,7.1
				c-4,4.3-8.8,9.6-18.1,9.6s-14.2-5.3-18.1-9.6c-3.7-4-6.6-7.1-12.6-7.1s-9,3.2-12.6,7.1c-4,4.3-8.8,9.6-18.1,9.6
				s-14.2-5.3-18.1-9.6c-3.7-4-6.6-7.1-12.6-7.1s-9,3.2-12.6,7.1c-4,4.3-8.8,9.6-18.1,9.6s-14.2-5.3-18.1-9.6
				c-3.7-4-6.6-7.1-12.7-7.1c-6,0-9,3.2-12.6,7.1c-4,4.3-8.8,9.6-18.1,9.6s-14.2-5.3-18.1-9.6c-3.7-4-6.6-7.1-12.7-7.1
				c-6,0-9,3.2-12.7,7.1c-4,4.3-8.8,9.6-18.1,9.6c-2.1,0-3.7-1.6-3.7-3.7c0-2.1,1.6-3.7,3.7-3.7c6,0,9-3.2,12.7-7.1
				c4-4.3,8.8-9.6,18.1-9.6s14.2,5.3,18.1,9.6c3.7,4,6.6,7.1,12.7,7.1c6,0,9-3.2,12.6-7.1c4-4.3,8.8-9.6,18.1-9.6s14.2,5.3,18.1,9.6
				c3.7,4,6.6,7.1,12.7,7.1c6,0,9-3.2,12.6-7.1c4-4.3,8.8-9.6,18.1-9.6s14.2,5.3,18.1,9.6c3.7,4,6.6,7.1,12.6,7.1s9-3.2,12.6-7.1
				c4-4.3,8.8-9.6,18.1-9.6s14.2,5.3,18.1,9.6c3.7,4,6.6,7.1,12.6,7.1s9-3.2,12.6-7.1c4-4.3,8.8-9.6,18.1-9.6s14.2,5.3,18.1,9.6
				c3.7,4,6.6,7.1,12.6,7.1c2.1,0,3.7,1.6,3.7,3.7C1624.4,1726.6,1622.7,1728.2,1620.7,1728.2z"/>
		</g>
		<g id="XMLID_134_">
			<path id="XMLID_135_" class="st1" d="M1002.2,195.3c-11.3,0-17.1-6.4-22-11.5c-4.5-4.8-8-8.7-15.4-8.7s-10.9,3.8-15.4,8.7
				c-4.7,5.2-10.7,11.5-22,11.5c-11.3,0-17.1-6.4-22-11.5c-4.5-4.8-8-8.7-15.4-8.7c-7.4,0-10.9,3.8-15.4,8.7
				c-4.7,5.2-10.7,11.5-22,11.5c-11.3,0-17.1-6.4-22-11.5c-4.5-4.8-8-8.7-15.4-8.7s-10.9,3.8-15.4,8.7c-4.7,5.2-10.7,11.5-22,11.5
				s-17.1-6.4-22-11.5c-4.5-4.8-8-8.7-15.4-8.7s-10.9,3.8-15.4,8.7c-4.7,5.2-10.7,11.5-22,11.5s-17.1-6.4-22-11.5
				c-4.5-4.8-8-8.7-15.4-8.7s-10.9,3.8-15.4,8.7c-4.7,5.2-10.7,11.5-22,11.5c-2.5,0-4.5-2-4.5-4.5c0-2.5,2-4.5,4.5-4.5
				c7.4,0,10.9-3.8,15.4-8.7c4.7-5.2,10.7-11.5,22-11.5c11.3,0,17.1,6.4,22,11.5c4.5,4.8,8,8.7,15.4,8.7s10.9-3.8,15.4-8.7
				c4.7-5.2,10.7-11.5,22-11.5s17.1,6.4,22,11.5c4.5,4.8,8,8.7,15.4,8.7s10.9-3.8,15.4-8.7c4.7-5.2,10.7-11.5,22-11.5
				s17.1,6.4,22,11.5c4.5,4.8,8,8.7,15.4,8.7c7.4,0,10.9-3.8,15.4-8.7c4.7-5.2,10.7-11.5,22-11.5c11.3,0,17.1,6.4,22,11.5
				c4.5,4.8,8,8.7,15.4,8.7c7.4,0,10.9-3.8,15.4-8.7c4.7-5.2,10.7-11.5,22-11.5c11.3,0,17.1,6.4,22,11.5c4.5,4.8,8,8.7,15.4,8.7
				c2.5,0,4.5,2,4.5,4.5C1006.8,193.4,1004.8,195.3,1002.2,195.3z"/>
		</g>
	</g>
	<path class="st1" d="M2027.8,1643.5c-25.8,0-46.9-21-46.9-46.9s21-46.9,46.9-46.9c25.9,0,46.9,21,46.9,46.9
		C2074.7,1622.6,2053.6,1643.5,2027.8,1643.5z M2027.8,1561.1c-19.7,0-35.6,16-35.6,35.6c0,19.5,16,35.6,35.6,35.6
		s35.6-16,35.6-35.6C2063.4,1577.1,2047.5,1561.1,2027.8,1561.1z"/>
	<path class="st1" d="M402.4,292.3c-24.8,0-45-20.2-45-45s20.2-45,45-45c24.8,0,45,20.2,45,45S427.2,292.3,402.4,292.3z
		 M402.4,209.8c-20.6,0-37.4,16.8-37.4,37.4c0,20.6,16.8,37.4,37.4,37.4s37.4-16.8,37.4-37.4S423,209.8,402.4,209.8z"/>
	<path class="st1" d="M1508.4,1257.4c-24.8,0-45-20.2-45-45c0-24.8,20.2-45,45-45s45,20.2,45,45
		C1553.5,1237.2,1533.3,1257.4,1508.4,1257.4z M1508.4,1174.9c-20.6,0-37.4,16.8-37.4,37.4c0,20.6,16.8,37.4,37.4,37.4
		c20.6,0,37.4-16.8,37.4-37.4C1545.9,1191.7,1529.2,1174.9,1508.4,1174.9z"/>
	<path class="st1" d="M1847.8,265.6c-12.4,0-22.5-10.1-22.5-22.5s10.1-22.5,22.5-22.5c12.4,0,22.5,10.1,22.5,22.5
		S1860.2,265.6,1847.8,265.6z M1847.8,224.3c-10.3,0-18.8,8.5-18.8,18.8s8.5,18.8,18.8,18.8c10.3,0,18.8-8.5,18.8-18.8
		S1858.2,224.3,1847.8,224.3z"/>
	<path class="st1" d="M1691.7,1512.5c-12.4,0-22.5-10.1-22.5-22.5s10.1-22.5,22.5-22.5s22.5,10.1,22.5,22.5
		S1704.1,1512.5,1691.7,1512.5z M1691.7,1471.2c-10.3,0-18.8,8.5-18.8,18.8c0,10.3,8.5,18.8,18.8,18.8s18.8-8.5,18.8-18.8
		C1710.5,1479.6,1702,1471.2,1691.7,1471.2z"/>
	<g>
		<g>
			<path class="st1" d="M1099.2,546.2c-8.7-8.7-19-15.2-30.3-19c12.1-8.3,20-22.3,20-38c0-25.4-20.6-46.1-46.1-46.1
				c-25.4,0-46.1,20.6-46.1,46.1c0,15.7,7.9,29.6,20,38c-11.3,3.8-21.6,10.3-30.3,19c-15,15-23.4,35-23.4,56.3h12.4
				c0-37.1,30.2-67.3,67.3-67.3s67.3,30.2,67.3,67.3h12.4C1122.6,581.3,1114.2,561.2,1099.2,546.2z M1042.9,522.8
				c-18.6,0-33.6-15-33.6-33.6s15-33.6,33.6-33.6c18.6,0,33.6,15,33.6,33.6S1061.4,522.8,1042.9,522.8z"/>
		</g>
	</g>
	<g>
		<g>
			<path class="st1" d="M807.5,1699.8c-8.7-8.7-19-15.2-30.3-19c12.1-8.3,20-22.3,20-38c0-25.4-20.6-46.1-46.1-46.1
				c-25.4,0-46.1,20.6-46.1,46.1c0,15.7,7.9,29.6,20,38c-11.3,3.8-21.6,10.3-30.3,19c-15,15-23.4,35-23.4,56.3h12.4
				c0-37.1,30.2-67.3,67.3-67.3c37.1,0,67.3,30.2,67.3,67.3h12.4C830.8,1734.9,822.5,1714.8,807.5,1699.8z M751.1,1676.4
				c-18.6,0-33.6-15-33.6-33.6s15-33.6,33.6-33.6c18.6,0,33.6,15,33.6,33.6S769.7,1676.4,751.1,1676.4z"/>
		</g>
	</g>
	<g>
		<g>
			<path class="st1" d="M2147.5,1208.6c-8.7-8.7-19-15.2-30.3-19c12.1-8.3,20-22.3,20-38c0-25.4-20.6-46.1-46.1-46.1
				c-25.5,0-46.1,20.6-46.1,46.1c0,15.7,7.9,29.6,20,38c-11.3,3.8-21.6,10.3-30.3,19c-15,15-23.4,35-23.4,56.3h12.4
				c0-37.1,30.2-67.3,67.3-67.3c37.1,0,67.3,30.2,67.3,67.3h12.4C2170.9,1243.6,2162.6,1223.6,2147.5,1208.6z M2091.2,1185.2
				c-18.6,0-33.6-15-33.6-33.6c0-18.6,15-33.6,33.6-33.6c18.6,0,33.6,15,33.6,33.6C2124.8,1170.1,2109.7,1185.2,2091.2,1185.2z"/>
		</g>
	</g>
	<g>
		<path class="st1" d="M409.2,690.8c-1.8,0-3.5,0.7-4.8,2c-1.3,1.3-2,3-2,4.8c0,1.8,0.7,3.6,2,4.8c1.3,1.3,3,2,4.8,2
			c1.8,0,3.5-0.7,4.8-2c1.3-1.3,2-3,2-4.8c0-1.8-0.7-3.5-2-4.8C412.7,691.5,411,690.8,409.2,690.8z"/>
		<path class="st1" d="M744.1,585.4c1.8,0,3.5-0.7,4.8-2c1.3-1.3,2-3,2-4.8c0-1.8-0.7-3.5-2-4.8c-1.3-1.3-3-2-4.8-2
			c-1.8,0-3.5,0.7-4.8,2c-1.3,1.3-2,3-2,4.8c0,1.8,0.7,3.6,2,4.8C740.6,584.7,742.3,585.4,744.1,585.4z"/>
		<path class="st1" d="M747.2,645.4c-3.4-1.7-7.4-0.4-9.1,3l-3.2,6.3c-5,10-9.3,20.4-12.8,31.1L712,717.3
			c-9.4,29.4-25.5,56.2-46.3,77.6c-0.6,0.7-1.3,1.3-1.9,1.9c-1.2,1.2-2.9,1.9-4.6,1.9c-1.6,0-3-0.6-4-1.7c-2.2-2.3-2.1-6,0.1-8.2
			c17.7-17.6,31.5-38.1,41.2-61c1.5-3.5-0.2-7.5-3.6-8.9c-2.9-1.2-6.2-0.3-8.1,2.2c-17.8,19.3-38.9,34.7-62.8,45.9
			c-2.9,1.4-6.4,0.1-7.8-2.8c-0.7-1.4-0.7-3-0.2-4.5c0.5-1.5,1.6-2.6,3-3.3c22.4-10.5,42.3-25,59.1-43.2c6.3-5.2,12.1-11,17.6-17.2
			c2.5-2.8,2.2-7.1-0.6-9.6c-2.8-2.5-7.1-2.2-9.6,0.6c-19.4,22.2-44.8,37.7-73.4,44.8l-16.2,4c-1.5,0.4-3.1,0.1-4.4-0.7
			c-1.3-0.8-2.3-2.1-2.7-3.6c-0.8-3.1,1.1-6.3,4.3-7.1l16.2-4c25.5-6.3,48.2-19.9,65.8-39.3c5-4.8,9.3-10.5,12.5-16.9
			c1.7-3.4,0.4-7.4-3-9.1c-3.4-1.7-7.4-0.4-9.1,3c-2.1,4.2-4.7,7.9-7.8,11.2c-0.4,0.3-0.8,0.6-1.2,1.1c-0.4,0.5-0.8,0.9-1.2,1.3
			c-8.9,8.4-20.9,13.3-33.7,13.3c0,0,0,0,0,0c-12.5,0-24.6-4.9-34.1-13.8l-4.7-4.4c-2.4-2.3-2.7-6.1-0.6-8.5c1.1-1.2,2.6-2,4.2-2
			c1.6-0.1,3.2,0.5,4.4,1.6l5.4,5.1c11.9,11.1,29.1,13.3,44,5.4c6-3.2,10.9-8.2,14.1-14.5l3.4-6.6c3.5-6.9,4.5-14.9,2.9-22.5
			l-0.1-0.6c-3.4-15.5-17.3-26.8-33.2-26.8c-21.7,0-39.5,17.7-39.6,39.4c0,3.3-2.7,6.2-5.9,6.2c0,0,0,0,0,0c-1.6,0-3.1-0.6-4.2-1.7
			c-1.1-1.1-1.7-2.6-1.7-4.2c0-28.4,23.1-51.5,51.5-51.5h81.7c3.8,0,6.8-3,6.8-6.8c0-3.8-3-6.8-6.8-6.8H635
			c-25.2,0-47.1,14.4-57.9,35.4c-1.1-2.8-2.7-5.4-5.1-7.6l-4.7-4.4c-11.5-10.8-26.3-17-41.6-17.4c7.5-3.7,15.5-6.6,23.8-8.7l16.2-4
			c10.4-2.6,16.8-13.2,14.2-23.6c-1.3-5-4.4-9.3-8.9-12c-4.5-2.7-9.7-3.5-14.7-2.2l-10.1,2.5c2.7-2.2,4.8-5.1,6-8.5
			c1.8-4.9,1.5-10.2-0.7-14.9c-4.6-9.7-16.2-13.9-25.9-9.4c-12.8,6-25,13.2-36.3,21.5c5.5-7.6,11.6-14.7,18.4-21.4
			c7.4-7.4,7.6-19.6,0.4-27.2c-3.6-3.8-8.5-5.9-13.7-6c-5.4-0.1-10.6,2.1-14.4,5.9c-0.7,0.7-1.4,1.4-2.1,2.1
			c-22.3,22.9-39.4,51.6-49.5,82.9l-10.1,31.5c-3.2,10-7.2,19.8-12,29.1l-3.2,6.3c-1.7,3.4-0.4,7.4,3,9.1c1,0.5,2,0.7,3.1,0.7
			c2.5,0,4.9-1.4,6.1-3.7l3.2-6.3c5-10,9.3-20.4,12.8-31.1l10.1-31.5c9.4-29.4,25.5-56.2,46.3-77.6c0.6-0.7,1.3-1.3,1.9-2
			c1.2-1.2,2.9-1.9,4.6-1.9c1.6,0,3,0.6,4,1.7c2.2,2.3,2.1,6-0.1,8.2c-17.7,17.6-31.5,38.1-41.2,61c-1.5,3.5,0.2,7.5,3.6,8.9
			c2.9,1.2,6.2,0.3,8.1-2.2c17.8-19.3,39-34.7,62.8-45.9c2.9-1.4,6.4-0.1,7.8,2.8c0.7,1.4,0.7,3,0.2,4.5c-0.5,1.5-1.6,2.6-3,3.3
			c-22.4,10.5-42.3,25-59.1,43.2c-6.3,5.2-12.1,11-17.6,17.2c-2.5,2.8-2.2,7.1,0.6,9.6c2.8,2.5,7.1,2.2,9.6-0.6
			c19.4-22.2,44.8-37.7,73.4-44.8l16.2-4c1.5-0.4,3.1-0.1,4.4,0.7c1.3,0.8,2.3,2.1,2.7,3.6c0.8,3.1-1.1,6.3-4.3,7.1l-16.2,4
			c-25.5,6.3-48.1,19.9-65.8,39.3c-5,4.8-9.3,10.5-12.5,16.9c-1.7,3.4-0.4,7.4,3,9.1c3.4,1.7,7.4,0.4,9.1-3
			c2.1-4.1,4.7-7.9,7.8-11.2c0.4-0.3,0.8-0.7,1.2-1.1c0.4-0.5,0.8-0.9,1.2-1.3c8.9-8.4,20.9-13.3,33.7-13.3h0
			c12.5,0,24.6,4.9,34.1,13.8l4.7,4.4c2.4,2.3,2.7,6.1,0.6,8.5c-1.1,1.2-2.6,2-4.2,2c-1.6,0.1-3.2-0.5-4.4-1.6l-5.4-5.1
			c-11.9-11.1-29.1-13.3-44-5.4c-6,3.2-10.9,8.2-14.1,14.5l-3.4,6.6c-3.5,6.9-4.5,14.9-2.9,22.5l0.1,0.6
			c3.4,15.5,17.3,26.8,33.2,26.8c21.7,0,39.5-17.7,39.6-39.4c0-3.3,2.7-6.2,5.9-6.2h0c1.6,0,3.1,0.6,4.2,1.7
			c1.1,1.1,1.7,2.6,1.7,4.2c0,28.4-23.1,51.5-51.5,51.5h-81.9c-3.8,0-6.8,3-6.8,6.8c0,3.8,3,6.8,6.8,6.8h81.9
			c25.2,0,47.1-14.4,57.9-35.4c1.1,2.8,2.7,5.4,5.1,7.6l4.7,4.4c11.5,10.8,26.3,17,41.6,17.4c-7.5,3.7-15.5,6.6-23.8,8.7l-16.2,4
			c-10.4,2.6-16.8,13.2-14.2,23.6c1.3,5,4.4,9.3,8.9,12c3.1,1.8,6.5,2.8,10,2.8c1.6,0,3.2-0.2,4.7-0.6l10.1-2.5
			c-2.7,2.2-4.8,5.1-6,8.5c-1.8,4.9-1.5,10.2,0.7,14.9c3.3,7.1,10.3,11.2,17.7,11.2c2.8,0,5.6-0.6,8.2-1.8c12.8-6,25-13.2,36.3-21.5
			c-5.5,7.6-11.6,14.7-18.4,21.4c-7.4,7.4-7.6,19.6-0.4,27.2c3.6,3.8,8.5,5.9,13.7,6h0.3c5.3,0,10.4-2.1,14.2-5.9
			c0.7-0.7,1.4-1.4,2.1-2.1c22.3-22.9,39.4-51.6,49.5-82.9l10.1-31.5c3.2-10,7.2-19.8,12-29.1l3.2-6.3
			C751.9,651.2,750.5,647.1,747.2,645.4z M609,636.8c0.1-14.3,11.8-25.9,26-25.9c9.5,0,17.9,6.7,19.9,16l0.1,0.6
			c1,4.6,0.4,9.3-1.7,13.5l-3.4,6.6c-1.9,3.8-4.8,6.7-8.3,8.6c-9.6,5.1-20.8,3.8-28.3-3.3l-5.4-5.1c-0.5-0.5-1-0.9-1.5-1.3
			C608,643.7,609,640.4,609,636.8z M544.3,639.4c-0.1,14.3-11.8,25.9-26,25.9c-9.5,0-17.9-6.7-19.9-16l-0.1-0.6
			c-1-4.6-0.4-9.3,1.7-13.5l3.4-6.6c1.9-3.8,4.8-6.7,8.3-8.6c3.9-2.1,8.1-3.1,12.1-3.1c5.9,0,11.7,2.2,16.2,6.4l5.4,5.1
			c0.5,0.5,1,0.9,1.5,1.3C545.3,632.5,544.3,635.9,544.3,639.4z"/>
	</g>
	<g>
		<path class="st1" d="M1410.5,138c3.7,0,6.7-3,6.7-6.7V98.1c0-3.7-3-6.7-6.7-6.7c-3.7,0-6.7,3-6.7,6.7v33.2
			C1403.8,135,1406.8,138,1410.5,138z"/>
		<path class="st1" d="M1346.4,148.3c1.3,1.3,3,1.9,4.7,1.9c1.7,0,3.4-0.7,4.7-2c2.6-2.6,2.6-6.8,0-9.4l-22.3-22.3
			c-2.6-2.6-6.8-2.6-9.4,0c-2.6,2.6-2.6,6.8,0,9.4L1346.4,148.3z"/>
		<path class="st1" d="M1310,109.1c1.7,0,3.4-0.7,4.7-1.9l0,0c2.6-2.6,2.6-6.8,0-9.4c-2.6-2.6-6.8-2.6-9.4,0c-2.6,2.6-2.6,6.8,0,9.4
			C1306.6,108.5,1308.3,109.1,1310,109.1z"/>
		<path class="st1" d="M1468.4,151.7c1.7,0,3.4-0.7,4.7-2l23.7-23.7c2.6-2.6,2.6-6.8,0-9.4c-2.6-2.6-6.8-2.6-9.4,0l-23.7,23.7
			c-2.6,2.6-2.6,6.8,0,9.4C1465,151,1466.7,151.7,1468.4,151.7z"/>
		<path class="st1" d="M1410.5,385.8c-3.7,0-6.7,3-6.7,6.7v33.2c0,3.7,3,6.7,6.7,6.7c3.7,0,6.7-3,6.7-6.7v-33.2
			C1417.2,388.8,1414.2,385.8,1410.5,385.8z"/>
		<path class="st1" d="M1346.4,375.5l-22.3,22.3c-2.6,2.6-2.6,6.8,0,9.4c1.3,1.3,3,2,4.7,2c1.7,0,3.4-0.7,4.7-1.9l22.3-22.3
			c2.6-2.6,2.6-6.8,0-9.4C1353.3,372.9,1349,372.9,1346.4,375.5z"/>
		<path class="st1" d="M1473.2,374c-2.6-2.6-6.8-2.6-9.4,0c-2.6,2.6-2.6,6.8,0,9.4l23.7,23.7c1.3,1.3,3,2,4.7,2s3.4-0.7,4.7-1.9
			c2.6-2.6,2.6-6.8,0-9.4L1473.2,374z"/>
		<path class="st1" d="M1506.3,416.6L1506.3,416.6c-2.6,2.6-2.6,6.8,0,9.4c1.3,1.3,3,1.9,4.7,1.9c1.7,0,3.4-0.7,4.7-2
			c2.6-2.6,2.6-6.8,0-9.4C1513.1,414,1508.9,414,1506.3,416.6z"/>
		<path class="st1" d="M1579.9,258.2c-14.5-22.1-32.8-40.8-53.8-55.4l21.6-12.5c3.2-1.8,4.3-5.9,2.4-9.1c-1.8-3.2-5.9-4.3-9.1-2.4
			l-27.5,15.9c-30.7-18.2-66.1-28.1-103-28.1c-68.5,0-131.8,34.2-169.4,91.6c-1.5,2.2-1.5,5.1,0,7.3c14.5,22.1,32.8,40.8,53.8,55.4
			l-21.6,12.5c-3.2,1.8-4.3,5.9-2.4,9.1c1.2,2.1,3.5,3.3,5.8,3.3c1.1,0,2.3-0.3,3.3-0.9l27.5-15.9c30.7,18.2,66.1,28.1,103,28.1
			c68.5,0,131.8-34.2,169.4-91.6C1581.3,263.3,1581.3,260.5,1579.9,258.2z M1500.1,202.5l-10.7,6.2c-4.4-6.6-9.7-12.5-15.6-17.8
			C1482.9,194,1491.7,197.9,1500.1,202.5z M1492.4,261.9c0,45.2-36.8,81.9-81.9,81.9c-27.9,0-52.6-14-67.4-35.4l23.8-13.7
			c10,13.2,25.8,21.8,43.6,21.8c30.1,0,54.6-24.5,54.6-54.6c0-7.6-1.5-14.8-4.3-21.3l23.8-13.7
			C1489.6,237.5,1492.4,249.3,1492.4,261.9z M1369.2,261.9c0-22.8,18.5-41.3,41.3-41.3c12.9,0,24.4,5.9,31.9,15.2l-70.6,40.7
			C1370.2,271.9,1369.2,267,1369.2,261.9z M1449.1,247.3c1.7,4.5,2.7,9.5,2.7,14.6c0,22.8-18.5,41.3-41.3,41.3
			c-12.9,0-24.4-5.9-31.9-15.2L1449.1,247.3z M1454.1,229c-10-13.2-25.8-21.8-43.6-21.8c-30.1,0-54.6,24.5-54.6,54.6
			c0,7.6,1.5,14.8,4.3,21.3l-23.8,13.7c-5.1-10.6-7.9-22.5-7.9-35.1c0-45.2,36.8-81.9,81.9-81.9c27.9,0,52.6,14,67.4,35.4
			L1454.1,229z M1254.7,261.9c23-33.3,55.4-57.9,92.4-71.1c-19.6,17.5-31.9,42.8-31.9,71.1c0,15,3.5,29.1,9.6,41.7l-17.1,9.9
			C1287.1,300.2,1269.1,282.8,1254.7,261.9z M1320.9,321.3l10.7-6.2c4.4,6.6,9.7,12.5,15.6,17.8
			C1338.1,329.7,1329.3,325.8,1320.9,321.3z M1473.9,332.9c19.6-17.5,31.9-42.8,31.9-71.1c0-15-3.5-29.1-9.6-41.7l17.1-9.9
			c20.6,13.3,38.7,30.8,53,51.6C1543.3,295.2,1510.9,319.8,1473.9,332.9z"/>
	</g>
	<g>
		<path class="st1" d="M1170.4,1396.4l-28.8-73.9c-4.3-11-11.7-20.4-21.5-27c-9.8-6.7-21.2-10.2-33-10.2h-26.4
			c-2.3-2.5-4.7-4.9-7.3-7.2v-56.9c0-17.5-8.7-32.9-22.1-42.2c13.2-7.8,22.1-22.1,22.1-38.5c0-24.6-20-44.6-44.6-44.6
			s-44.6,20-44.6,44.6c0,13.7,6.2,26,15.9,34.1c-9.6,4.5-17.8,12-23.1,21.6c-9.3,16.7-14.6,35.3-15.7,54.4
			c-19.8,5.1-38,15.2-53,29.3c-16.3,15.4-27.9,34.9-33.8,56.3c-1.1,4.1,1.3,8.3,5.4,9.4c0.7,0.2,1.4,0.3,2,0.3
			c3.4,0,6.5-2.3,7.4-5.7c9.6-35.1,37.2-63.2,71.7-73.7v22.8c-14.8,5.7-27.5,15.4-37.1,28.3c-11,14.7-16.8,32.2-16.8,50.6
			c0,46.7,38,84.7,84.7,84.7s84.7-38,84.7-84.7c0-38.7-26.2-72.2-63.1-81.9v-22.1c48.8,10,84.7,53.3,84.7,104
			c0,58.6-47.6,106.2-106.2,106.2c-47.2,0-89.1-31.6-102.1-76.9c-1.2-4.1-5.4-6.4-9.5-5.3c-4.1,1.2-6.5,5.4-5.3,9.5
			c7.1,24.9,22.4,47.3,43.1,63.1c21.3,16.3,46.9,25,73.8,25c36.4,0,69.2-16.1,91.5-41.6h131.7c4.3,0,7.7-3.4,7.7-7.7v-6.7
			C1202.9,1414.9,1188.7,1399.1,1170.4,1396.4z M1008.9,1111.3c16.1,0,29.2,13.1,29.2,29.2c0,16.1-13.1,29.2-29.2,29.2
			c-16.1,0-29.2-13.1-29.2-29.2C979.7,1124.4,992.8,1111.3,1008.9,1111.3z M1041.2,1368.3c0,38.2-31.1,69.3-69.3,69.3
			s-69.3-31.1-69.3-69.3c0-26.8,15.1-50.6,38.5-62.1v13.6c0,14.4,11.7,26.2,26.2,26.2c14.4,0,26.2-11.7,26.2-26.2v-17.4
			C1021.7,1311.6,1041.2,1338,1041.2,1368.3z M985.8,1237.8c-4.3,0-7.7,3.4-7.7,7.7v74.4c0,5.9-4.8,10.8-10.8,10.8
			c-5.9,0-10.8-4.8-10.8-10.8v-24.9c0,0,0,0,0-0.1v-37c0-18.9,4.8-37.6,14-54.1c6.4-11.5,18.4-18.6,31.5-18.6
			c19.9,0,36.1,16.2,36.1,36.1v45.1c-13.3-8.6-28.4-14.7-44.6-17.6v-3.2C993.5,1241.2,990.1,1237.8,985.8,1237.8z M1093.6,1368.3
			c0-3.1-0.1-6.2-0.4-9.2h0.8l33.5,73.9h-52.7C1086.7,1414.3,1093.6,1392.1,1093.6,1368.3z M1144.5,1433l-38.5-84.8
			c-1.2-2.8-4-4.5-7-4.5h-8c-3.2-15.6-9.4-30.1-18-43h14.1c17.9,0,33.6,10.8,40.1,27.4l30.5,78.4c1.2,3,4,4.9,7.2,4.9
			c12.1,0,22,9.6,22.5,21.6H1144.5z"/>
		<path class="st1" d="M863.5,1374.4c1.4-1.4,2.3-3.4,2.3-5.4c0-2-0.8-4-2.3-5.4c-1.4-1.4-3.4-2.3-5.4-2.3c-2,0-4,0.8-5.4,2.3
			c-1.4,1.4-2.3,3.4-2.3,5.4c0,2,0.8,4,2.3,5.4c1.4,1.4,3.4,2.3,5.4,2.3C860.1,1376.7,862.1,1375.9,863.5,1374.4z"/>
		<path class="st1" d="M995.1,1407.6c1.5,1.8,3.7,2.7,5.9,2.7c1.8,0,3.5-0.6,5-1.8c11.8-10,18.6-24.6,18.6-40.1
			c0-4.3-3.4-7.7-7.7-7.7s-7.7,3.4-7.7,7.7c0,10.9-4.8,21.3-13.2,28.4C992.8,1399.5,992.4,1404.3,995.1,1407.6z"/>
		<path class="st1" d="M972.1,1405.5C972.1,1405.5,972,1405.5,972.1,1405.5H972c-4.3,0-7.7,3.4-7.7,7.7s3.4,7.7,7.7,7.7h0.2
			c4.2,0,7.6-3.5,7.6-7.8C979.8,1409,976.3,1405.5,972.1,1405.5z"/>
	</g>
	<g id="Page-1">
		<g id="_x30_50---Human-Brain" transform="translate(0.000000, -1.000000)">
			<path id="Shape" class="st1" d="M1989.5,788.4c0.3-15.5-1.6-30.9-5.6-45.8c-5.5-18.5-16.8-34.8-32.2-46.4
				c-30.4-23.9-58.9-33.7-92.2-32.1c-17.5,1.2-35,3.7-52.2,7.5c-24.3,4.9-42,13.4-54,26.2c-9.5,10.2-16.9,22.1-21.6,35.2
				c-2,5.8-3.6,11.7-4.9,17.6l-0.4,1.9c-1.1,4.2-2.7,8.3-4.6,12.2c-1.1,2.5-2.2,5-3.2,7.6c-1.3,2.8-1.7,6-1.5,9.1
				c1.1,4.8,3.9,9.1,7.9,12c2.6,2.4,4.4,4.1,4.4,5.7c-0.2,0.8-0.5,1.6-0.9,2.3c-6.5,13.6-14.4,26.5-23.6,38.4
				c-3.9,4.7-7.9,10.2-7.1,15.9c1.2,4.3,4,7.9,7.8,10.1c1.8,1.2,3.7,2.3,5.6,3.2c2.3,1.2,6.2,3.2,6.5,4.6c0.3,1.8,0.1,3.7-0.6,5.4
				c-0.8,1.7-1.6,3.1-2.3,4.4c-2,3.5-5.3,9.4-0.3,13.6c1.2,1,3.2,2.6,5,4c-1.3,2.4-2,5.1-1.7,7.8c0.3,2.1,1.4,4,3.2,5.2
				c1.2,0.9,2.5,1.6,3.8,2.3c3.2,1.8,4.4,2.7,4.9,4.3c0.3,2.2,0.1,4.4-0.6,6.5c-0.3,1.4-0.6,2.8-0.8,4.2c-0.5,4.9,0.1,9.9,1.8,14.5
				c2.8,10.3,13.1,16.5,23.5,14.3c15.4-3.7,30.6-8.3,45.5-13.6c12.1,7.2,19.8,28.8,21.8,37c0.6,2.4,2.8,4.1,5.2,4.1l135.4-0.4
				c1.7,0,3.3-0.8,4.3-2.2c1-1.4,1.3-3.1,0.8-4.8c-1.3-3.7-3.2-7.2-5.5-10.3c-1.3-1.8-2.4-3.7-3.5-5.7c-2.4-5-4.5-10.1-6.1-15.4
				c-3.1-10.4-5.2-21.1-6.4-31.9c-1.9-16.1,0.5-32.5,7.1-47.3c4-8.2,8.9-16,14.6-23.1c3.2-4.4,6.6-8.9,9.6-13.7
				C1984.8,819.5,1989.4,804.2,1989.5,788.4z M1958,840c-6.2,7.8-11.6,16.2-15.9,25.2c-7.3,16.6-10,34.9-7.9,53
				c1.2,11.4,3.5,22.8,6.7,33.8c1.8,5.8,4,11.5,6.7,16.9c1.2,2.4,2.6,4.7,4.2,7l0.4,0.6l-122.3,0.3c-3.6-12.8-10.1-24.6-19-34.5
				c1.4-0.5,2.7-0.9,3.9-1.4c4.1-1.4,7.2-2.5,8.7-3c23.1-7.3,34.7-17.8,34.4-31.2c-0.2-2.9-2.6-5.2-5.5-5.3c-1.4,0-2.8,0.6-3.8,1.7
				c-1,1-1.5,2.4-1.5,3.9c0.1,5.6-4.4,13.7-26.8,20.7c-1.6,0.5-4.8,1.6-9,3.1c-3.8,1.3-8.6,3-13.7,4.8c-15.2,5.5-30.7,10.2-46.4,14
				c-5.1,1-10-2.2-11.1-7.2c-1.2-3-1.6-6.3-1.3-9.5c0.1-1.1,0.4-2.2,0.6-3.4c1.1-3.7,1.3-7.7,0.5-11.5c-1.5-5-5.2-9-9.9-11l-1.2-0.7
				c0.6-1.2,1.3-2.3,2.1-3.3c0.9-1.1,1.3-2.6,1.1-4c-0.2-1.4-1-2.7-2.1-3.6c-1.3-1-4.4-3.3-6.6-5c0.3-0.5,0.6-1.1,0.9-1.6
				c0.8-1.5,1.8-3.1,2.7-5.1c1.7-3.8,2.2-8,1.5-12.1c-1.3-6.6-7.6-9.8-12.2-12.2c-1.6-0.7-3.1-1.6-4.5-2.6c-1.1-0.8-2.2-1.6-3.2-2.6
				c0-0.8,0.9-2.8,5-7.8c9.6-12.4,17.9-25.9,24.6-40.1c1.3-2.2,2-4.7,2.1-7.3c-0.5-5.4-3.4-10.4-7.9-13.5c-2.2-2-4.2-3.9-4.5-5.5
				c0-1.3,0.3-2.6,0.9-3.8c0.9-2.3,1.9-4.6,2.9-6.9c2.2-4.5,4-9.3,5.2-14.2l0.4-1.9c1.2-5.5,2.7-11,4.5-16.3
				c4.2-11.7,10.8-22.5,19.3-31.6c10.4-11,26.3-18.6,48.3-23c16.7-3.6,33.6-6.1,50.6-7.3c30.5-1.6,56.7,7.6,84.9,29.8
				c13.7,10.1,23.7,24.5,28.5,40.8c3.8,13.9,5.6,28.3,5.3,42.7c-0.1,13.7-4.1,27.2-11.5,38.7C1964.4,831.4,1961.1,835.8,1958,840
				L1958,840z"/>
			<path id="Shape_1_" class="st1" d="M1806.2,755.7h5.4c3,0,5.4-2.4,5.4-5.4c0-3-2.4-5.4-5.4-5.4h-5.4c-8.9,0-16.2,7.2-16.2,16.2
				v5.4c0,8.9,7.2,16.2,16.2,16.2h5.4c3,0,5.4-2.4,5.4-5.4c0-3-2.4-5.4-5.4-5.4h-5.4c-3,0-5.4-2.4-5.4-5.4v-5.4
				C1800.8,758.1,1803.2,755.7,1806.2,755.7z"/>
			<path id="Shape_2_" class="st1" d="M1843.9,739.5c-3,0-5.4,2.4-5.4,5.4v10.8c0,3-2.4,5.4-5.4,5.4h-5.4c-3,0-5.4,2.4-5.4,5.4
				s2.4,5.4,5.4,5.4h5.4c8.9,0,16.2-7.2,16.2-16.2v-10.8C1849.3,742,1846.9,739.5,1843.9,739.5z"/>
			<path id="Shape_3_" class="st1" d="M1865.5,739.5v-5.4c0-8.9-7.2-16.2-16.2-16.2h-10.8c-8.9,0-16.2,7.2-16.2,16.2v5.4
				c0,3,2.4,5.4,5.4,5.4s5.4-2.4,5.4-5.4v-5.4c0-3,2.4-5.4,5.4-5.4h10.8c3,0,5.4,2.4,5.4,5.4v5.4c0,3,2.4,5.4,5.4,5.4
				S1865.5,742.5,1865.5,739.5z"/>
			<path id="Shape_4_" class="st1" d="M1881.7,777.3h-5.4c-3,0-5.4-2.4-5.4-5.4v-5.4c0-3-2.4-5.4-5.4-5.4c-3,0-5.4,2.4-5.4,5.4v5.4
				c0,8.9,7.2,16.2,16.2,16.2h5.4c3,0,5.4-2.4,5.4-5.4C1887.1,779.7,1884.6,777.3,1881.7,777.3z"/>
			<path id="Shape_5_" class="st1" d="M1908.6,761.1c0-3-2.4-5.4-5.4-5.4h-5.4c-3,0-5.4-2.4-5.4-5.4c0-3,2.4-5.4,5.4-5.4h5.4
				c3,0,5.4-2.4,5.4-5.4c0-3-2.4-5.4-5.4-5.4h-5.4c-8.9,0-16.2,7.2-16.2,16.2s7.2,16.2,16.2,16.2h5.4
				C1906.2,766.5,1908.6,764.1,1908.6,761.1z"/>
			<path id="Shape_6_" class="st1" d="M1924.8,761.1c-3,0-5.4,2.4-5.4,5.4v10.8c0,3-2.4,5.4-5.4,5.4h-5.4c-3,0-5.4,2.4-5.4,5.4
				s2.4,5.4,5.4,5.4h5.4c8.9,0,16.2-7.2,16.2-16.2v-10.8C1930.2,763.5,1927.8,761.1,1924.8,761.1z"/>
			<path id="Shape_7_" class="st1" d="M1967.7,777.3c0-0.1,0-0.2,0-0.2c-0.5-9.6-2-19.2-4.6-28.5c-4.2-14.2-12.9-26.5-24.8-35.3
				c-24.4-19.1-46.5-27.7-71.7-27.7c-2,0-4,0.1-6,0.2c-1.8,0.1-3.7,0.3-5.5,0.5c-0.1,0-0.2-0.1-0.4-0.1c-0.3,0-0.6,0.1-0.8,0.2
				c-14.2,1.4-28.3,3.5-42.3,6.5c-6.1,1.2-12.2,2.9-18,5c-0.1,0-0.2,0.1-0.4,0.1c-9.1,3-17.4,8-24.2,14.7
				c-6.6,7.1-11.9,15.3-15.5,24.3c-0.2,0.3-0.3,0.6-0.4,1c-0.4,0.9-0.8,1.7-1.1,2.6c-1.7,4.5-4.3,15.7-4.6,17.1
				c-1.2,6-4.2,26.7,8,39.7c7.8,8.2,19.6,11.3,35.2,9.1l7.3-1c34.6-5,52-7.5,66.9,7.1c2.9,2.8,5.8,5.7,8.9,8.5
				c-3.4,10.7-7.8,33.4,10.2,46.9c19.4,14.6,19.4,18.5,19.4,28c0,1.9,1,3.6,2.5,4.6c1.6,1,3.6,1.1,5.3,0.2
				c1.4-0.7,13.8-7.6,13.8-31.8c0-13.2,9.9-24.7,19.6-34.2l0.2-0.1c5.3-3.6,9.9-8.2,13.5-13.5c3.9-6.2,6.7-13,8.3-20.1
				c0.3-0.7,0.5-1.5,0.5-2.2c0.7-3.5,1.1-7.1,1.1-10.7C1968,784.5,1967.9,780.9,1967.7,777.3
				C1967.7,777.4,1967.7,777.3,1967.7,777.3z M1914,869c0.1,4.5-0.5,9-1.9,13.2c-2.5-6.3-8.4-12.8-21.8-22.9
				c-10.7-8-10-21.4-7.6-30.7c10.1,8.1,22.6,12.6,35.6,12.7c2.1,0,4.2-0.1,6.3-0.4C1918.1,848.9,1914.4,858.7,1914,869z M1949,815.5
				c-3.8,5.7-9.1,10.1-15.4,12.8c-9.9,3.2-20.6,3-30.4-0.5v-7.3c0-3,2.4-5.4,5.4-5.4h16.2c3,0,5.4-2.4,5.4-5.4c0-3-2.4-5.4-5.4-5.4
				h-16.2c-8.9,0-16.2,7.2-16.2,16.2v1.7c-7.2-5.1-14-10.9-20.2-17.3c-6.3-6.3-14.2-10.7-22.9-12.6v-4.1c0-3-2.4-5.4-5.4-5.4
				s-5.4,2.4-5.4,5.4v2.8c-14.2,0-28.3,1.3-42.3,3.8l-7.2,1c-3.3,0.5-6.5,0.6-9.8,0.5v-2.8c0-3-2.4-5.4-5.4-5.4
				c-3,0-5.4,2.4-5.4,5.4v0.3c-2-0.9-3.8-2.2-5.3-3.8c-3.1-3.6-5.1-8-5.7-12.7h5.6c8.9,0,16.2-7.2,16.2-16.2c0-3-2.4-5.4-5.4-5.4
				c-3,0-5.4,2.4-5.4,5.4c0,3-2.4,5.4-5.4,5.4h-6c0.1-2.2,0.4-4.4,0.9-6.6c0.7-3.1,2.7-11.3,4-15h17.4c3,0,5.4-2.4,5.4-5.4
				c0-3-2.4-5.4-5.4-5.4h-12.5c2.7-5.1,6.1-9.8,10.1-14.1c3.8-3.8,8.3-6.9,13.2-9.2v7c0,8.9,7.2,16.2,16.2,16.2c3,0,5.4-2.4,5.4-5.4
				s-2.4-5.4-5.4-5.4c-3,0-5.4-2.4-5.4-5.4v-11.3c4.3-1.3,8.6-2.4,12.9-3.3c4.6-0.9,9.3-1.8,14-2.7v1c0,3,2.4,5.4,5.4,5.4
				c3,0,5.4-2.4,5.4-5.4V699c3.6-0.5,7.2-1,10.8-1.4v4.3c0,3,2.4,5.4,5.4,5.4s5.4-2.4,5.4-5.4v-5.2c0.3,0,0.7-0.1,1-0.1
				c3.3-0.1,6.6-0.1,9.8,0V718c0,3,2.4,5.4,5.4,5.4h10.8c3,0,5.4-2.4,5.4-5.4c0-3-2.4-5.4-5.4-5.4h-5.4v-14.9
				c9.4,1.6,18.6,4.7,27,9.1c0,0.1-0.1,0.2-0.1,0.4v16.2c0,3,2.4,5.4,5.4,5.4s5.4-2.4,5.4-5.4v-10.3c3.5,2.3,7.1,4.8,10.8,7.6v13.5
				c0,3-2.4,5.4-5.4,5.4c-3,0-5.4,2.4-5.4,5.4s2.4,5.4,5.4,5.4c8.9,0,16.2-7.2,16.2-16.2v-3.7c5.5,6,9.5,13.2,11.8,21
				c1.8,6.7,3.1,13.5,3.7,20.4h-10c-3,0-5.4,2.4-5.4,5.4c0,3,2.4,5.4,5.4,5.4h10.7c0,1.8,0.1,3.5,0.1,5.3c0,1.9-0.2,3.7-0.4,5.5
				h-10.3c-3,0-5.4,2.4-5.4,5.4c0,3,2.4,5.4,5.4,5.4h7.9C1953,808.2,1951.2,811.9,1949,815.5z"/>
		</g>
	</g>
</g>
</svg>
